#N canvas 114 114 1920 1016 12;
#X obj 157 63 break;
#X obj 212 62 shift;
#X obj 263 61 count;
#X obj 313 61 count;
#X obj 363 60 break;
#X obj 418 59 shift;
#X obj 565 57 count;
#X obj 615 57 count;
#X obj 110 189 tgl 24 0 empty empty empty 0 -10 0 12 #00faff #000000 #000000 0 1;
#X obj 146 189 tgl 24 0 empty empty empty 0 -10 0 12 #00faff #000000 #000000 0 1;
#X obj 187 189 tgl 24 0 empty empty empty 0 -10 0 12 #00faff #000000 #000000 0 1;
#X obj 225 189 tgl 24 0 empty empty empty 0 -10 0 12 #00faff #000000 #000000 0 1;
#X obj 266 189 tgl 24 0 empty empty empty 0 -10 0 12 #00faff #000000 #000000 0 1;
#X obj 306 189 tgl 24 0 empty empty empty 0 -10 0 12 #00faff #000000 #000000 0 1;
#X obj 429 189 tgl 24 0 empty empty empty 0 -10 0 12 #00faff #000000 #000000 0 1;
#X obj 468 189 tgl 24 0 empty empty empty 0 -10 0 12 #00faff #000000 #000000 0 1;
#X msg 126 48 1;
#X msg 276 19 1;
#X obj 194 470 sound, f 33;
#X obj 256 122 tgl 30 0 empty empty Sound 0 -10 0 12 #e3c6ff #000000 #000000 0 1;
#X msg 709 167 \; pd dsp \$1;
#X text 731 144 Sound;
#X obj 125 122 tgl 30 0 empty empty ON/OFF 0 -10 0 12 #c7c6ff #000000 #000000 0 1;
#X obj 113 21 metro 200;
#X obj 467 58 shift;
#X obj 344 189 tgl 24 0 empty empty empty 0 -10 0 12 #00faff #000000 #000000 0 1;
#X obj 516 58 shift;
#X obj 385 189 tgl 24 0 empty empty empty 0 -10 0 12 #00faff #000000 #000000 0 1;
#X floatatom 167 134 10 0 0 2 Tempo\ (ms) - - 0;
#X obj 303 123 bng 30 250 50 0 empty empty Reset 0 -10 0 12 #ffe3c6 #000000 #000000;
#X floatatom 109 233 5 0 0 0 - - - 0;
#X obj 88 329 timer;
#X obj 88 299 bang;
#X floatatom 148 233 5 0 0 0 - - - 0;
#X obj 135 332 timer;
#X obj 135 302 bang;
#X floatatom 187 233 5 0 0 0 - - - 0;
#X obj 187 331 timer;
#X obj 187 301 bang;
#X floatatom 227 233 5 0 0 0 - - - 0;
#X obj 242 333 timer;
#X obj 242 303 bang;
#X floatatom 267 233 5 0 0 0 - - - 0;
#X obj 287 336 timer;
#X obj 287 306 bang;
#X floatatom 307 234 5 0 0 0 - - - 0;
#X obj 329 336 timer;
#X obj 329 306 bang;
#X floatatom 347 234 5 0 0 0 - - - 0;
#X obj 380 337 timer;
#X obj 380 307 bang;
#X floatatom 388 234 5 0 0 0 - - - 0;
#X obj 430 337 timer;
#X obj 430 307 bang;
#X floatatom 427 234 5 0 0 0 - - - 0;
#X obj 475 340 timer;
#X obj 475 310 bang;
#X floatatom 467 234 5 0 0 0 - - - 0;
#X obj 517 340 timer;
#X obj 517 310 bang;
#X connect 0 1 8 0;
#X connect 0 2 1 0;
#X connect 0 3 1 1;
#X connect 1 0 0 3;
#X connect 1 1 9 0;
#X connect 1 2 2 0;
#X connect 1 3 2 1;
#X connect 2 0 1 3;
#X connect 2 1 10 0;
#X connect 2 2 3 0;
#X connect 2 3 3 1;
#X connect 3 0 2 3;
#X connect 3 1 11 0;
#X connect 3 2 4 0;
#X connect 3 3 4 1;
#X connect 4 0 3 3;
#X connect 4 1 12 0;
#X connect 4 2 5 0;
#X connect 4 3 5 1;
#X connect 5 0 4 3;
#X connect 5 1 13 0;
#X connect 5 2 24 0;
#X connect 5 3 24 1;
#X connect 6 0 26 3;
#X connect 6 1 14 0;
#X connect 6 2 7 0;
#X connect 6 3 7 1;
#X connect 7 0 6 3;
#X connect 7 1 15 0;
#X connect 8 0 18 0;
#X connect 8 0 32 0;
#X connect 9 0 18 1;
#X connect 9 0 35 0;
#X connect 10 0 18 2;
#X connect 10 0 38 0;
#X connect 11 0 18 3;
#X connect 11 0 41 0;
#X connect 12 0 18 4;
#X connect 12 0 44 0;
#X connect 13 0 18 5;
#X connect 13 0 47 0;
#X connect 14 0 18 8;
#X connect 14 0 56 0;
#X connect 15 0 18 9;
#X connect 15 0 59 0;
#X connect 16 0 0 0;
#X connect 16 0 0 1;
#X connect 17 0 0 2;
#X connect 17 0 2 2;
#X connect 17 0 1 2;
#X connect 17 0 3 2;
#X connect 17 0 5 2;
#X connect 17 0 24 2;
#X connect 17 0 26 2;
#X connect 17 0 6 2;
#X connect 17 0 7 2;
#X connect 17 0 4 2;
#X connect 19 0 20 0;
#X connect 22 0 23 0;
#X connect 23 0 16 0;
#X connect 24 0 5 3;
#X connect 24 1 25 0;
#X connect 24 2 26 0;
#X connect 24 3 26 1;
#X connect 25 0 18 6;
#X connect 25 0 50 0;
#X connect 26 0 24 3;
#X connect 26 1 27 0;
#X connect 26 2 6 0;
#X connect 26 3 6 1;
#X connect 27 0 18 7;
#X connect 27 0 53 0;
#X connect 28 0 23 1;
#X connect 29 0 17 0;
#X connect 31 0 30 0;
#X connect 32 0 31 1;
#X connect 32 0 31 0;
#X connect 34 0 33 0;
#X connect 35 0 34 1;
#X connect 35 0 34 0;
#X connect 37 0 36 0;
#X connect 38 0 37 1;
#X connect 38 0 37 0;
#X connect 40 0 39 0;
#X connect 41 0 40 1;
#X connect 41 0 40 0;
#X connect 43 0 42 0;
#X connect 44 0 43 1;
#X connect 44 0 43 0;
#X connect 46 0 45 0;
#X connect 47 0 46 1;
#X connect 47 0 46 0;
#X connect 49 0 48 0;
#X connect 50 0 49 1;
#X connect 50 0 49 0;
#X connect 52 0 51 0;
#X connect 53 0 52 1;
#X connect 53 0 52 0;
#X connect 55 0 54 0;
#X connect 56 0 55 1;
#X connect 56 0 55 0;
#X connect 58 0 57 0;
#X connect 59 0 58 1;
#X connect 59 0 58 0;
#X coords 0 -1 1 1 410 155 2 100 100;
