#N canvas 1914 0 1920 1016 12;
#X obj 24 136 break;
#X obj 79 137 shift;
#X obj 130 138 count;
#X obj 180 138 count;
#X obj 230 139 break;
#X obj 285 140 shift;
#X obj 432 142 count;
#X obj 482 142 count;
#X obj 31 214 tgl 24 0 empty empty empty 0 -10 0 12 #00faff #000000 #000000 0 1;
#X obj 87 214 tgl 24 0 empty empty empty 0 -10 0 12 #00faff #000000 #000000 0 1;
#X obj 133 215 tgl 24 0 empty empty empty 0 -10 0 12 #00faff #000000 #000000 0 1;
#X obj 179 215 tgl 24 0 empty empty empty 0 -10 0 12 #00faff #000000 #000000 0 1;
#X obj 231 215 tgl 24 0 empty empty empty 0 -10 0 12 #00faff #000000 #000000 0 1;
#X obj 287 215 tgl 24 0 empty empty empty 0 -10 0 12 #00faff #000000 #000000 0 1;
#X obj 429 217 tgl 24 0 empty empty empty 0 -10 0 12 #00faff #000000 #000000 0 1;
#X obj 475 217 tgl 24 0 empty empty empty 0 -10 0 12 #00faff #000000 #000000 0 1;
#X msg 27 78 1;
#X msg 177 53 1;
#X obj 29 362 BS, f 7;
#X obj 94 363 BS, f 7;
#X obj 160 362 count;
#X obj 210 362 count;
#X obj 163 439 tgl 24 0 empty empty empty 0 -10 0 12 #00faff #000000 #000000 0 1;
#X obj 209 439 tgl 24 0 empty empty empty 0 -10 0 12 #00faff #000000 #000000 0 1;
#X obj 54 438 tgl 24 0 empty empty empty 0 -10 0 12 #00faff #000000 #000000 0 1;
#X obj 100 438 tgl 24 0 empty empty empty 0 -10 0 12 #00faff #000000 #000000 0 1;
#X obj 255 362 BS, f 7;
#X obj 320 363 BS, f 7;
#X obj 386 362 count;
#X obj 436 362 count;
#X obj 389 439 tgl 24 0 empty empty empty 0 -10 0 12 #00faff #000000 #000000 0 1;
#X obj 435 439 tgl 24 0 empty empty empty 0 -10 0 12 #00faff #000000 #000000 0 1;
#X obj 280 438 tgl 24 0 empty empty empty 0 -10 0 12 #00faff #000000 #000000 0 1;
#X obj 326 438 tgl 24 0 empty empty empty 0 -10 0 12 #00faff #000000 #000000 0 1;
#X msg 155 281 1;
#X msg 211 284 2;
#X msg 260 285 3;
#X msg 29 309 1;
#X msg 75 287 0;
#X obj 613 343 sound, f 33;
#X obj 437 38 tgl 19 0 empty empty empty 0 -10 0 12 #fcfcfc #000000 #000000 0 1;
#X msg 437 62 \; pd dsp \$1;
#X text 459 36 Sound;
#X obj 36 6 tgl 19 0 empty empty empty 0 -10 0 12 #fcfcfc #000000 #000000 0 1;
#X obj 36 30 metro 200;
#X obj 334 141 shift;
#X obj 336 216 tgl 24 0 empty empty empty 0 -10 0 12 #00faff #000000 #000000 0 1;
#X obj 383 141 shift;
#X obj 385 216 tgl 24 0 empty empty empty 0 -10 0 12 #00faff #000000 #000000 0 1;
#X connect 0 1 8 0;
#X connect 0 2 1 0;
#X connect 0 3 1 1;
#X connect 1 0 0 3;
#X connect 1 1 9 0;
#X connect 1 2 2 0;
#X connect 1 3 2 1;
#X connect 2 0 1 3;
#X connect 2 1 10 0;
#X connect 2 2 3 0;
#X connect 2 3 3 1;
#X connect 3 0 2 3;
#X connect 3 1 11 0;
#X connect 3 2 4 0;
#X connect 3 3 4 1;
#X connect 4 0 3 3;
#X connect 4 1 12 0;
#X connect 4 2 5 0;
#X connect 4 3 5 1;
#X connect 5 0 4 3;
#X connect 5 1 13 0;
#X connect 5 2 45 0;
#X connect 5 3 45 1;
#X connect 6 0 47 3;
#X connect 6 1 14 0;
#X connect 6 2 7 0;
#X connect 6 3 7 1;
#X connect 7 0 6 3;
#X connect 7 1 15 0;
#X connect 8 0 39 0;
#X connect 9 0 39 1;
#X connect 10 0 39 2;
#X connect 11 0 39 3;
#X connect 12 0 39 4;
#X connect 13 0 39 5;
#X connect 14 0 39 8;
#X connect 15 0 39 9;
#X connect 16 0 0 0;
#X connect 16 0 0 1;
#X connect 17 0 0 2;
#X connect 17 0 2 2;
#X connect 17 0 1 2;
#X connect 17 0 3 2;
#X connect 17 0 5 2;
#X connect 17 0 45 2;
#X connect 17 0 47 2;
#X connect 17 0 6 2;
#X connect 17 0 7 2;
#X connect 17 0 4 2;
#X connect 18 1 24 0;
#X connect 18 2 19 0;
#X connect 18 3 19 1;
#X connect 19 0 18 3;
#X connect 19 1 25 0;
#X connect 19 2 20 0;
#X connect 19 3 20 1;
#X connect 20 0 19 3;
#X connect 20 1 22 0;
#X connect 20 2 21 0;
#X connect 20 3 21 1;
#X connect 21 0 20 3;
#X connect 21 1 23 0;
#X connect 21 2 26 0;
#X connect 21 3 26 1;
#X connect 26 1 32 0;
#X connect 26 2 27 0;
#X connect 26 3 27 1;
#X connect 27 0 26 3;
#X connect 27 1 33 0;
#X connect 27 2 28 0;
#X connect 27 3 28 1;
#X connect 28 0 27 3;
#X connect 28 1 30 0;
#X connect 28 2 29 0;
#X connect 28 3 29 1;
#X connect 29 0 28 3;
#X connect 29 1 31 0;
#X connect 34 0 20 2;
#X connect 34 0 21 2;
#X connect 34 0 19 2;
#X connect 35 0 18 4;
#X connect 35 0 26 4;
#X connect 36 0 27 4;
#X connect 36 0 19 4;
#X connect 37 0 18 0;
#X connect 37 0 18 1;
#X connect 38 0 18 2;
#X connect 38 0 26 2;
#X connect 40 0 41 0;
#X connect 43 0 44 0;
#X connect 44 0 16 0;
#X connect 45 0 5 3;
#X connect 45 1 46 0;
#X connect 45 2 47 0;
#X connect 45 3 47 1;
#X connect 46 0 39 6;
#X connect 47 0 45 3;
#X connect 47 1 48 0;
#X connect 47 2 6 0;
#X connect 47 3 6 1;
#X connect 48 0 39 7;
