#N canvas 38 38 1920 1016 12;
#X obj 73 71 tgl 19 0 empty empty empty 0 -10 0 12 #fcfcfc #000000 #000000 0 1;
#X obj 73 95 metro 1000;
#X obj 73 119 tgl 19 0 empty empty empty 0 -10 0 12 #fcfcfc #000000 #000000 0 1;
#X msg 73 143 1;
#X text 177 29 BSSCCC;
#X msg 151 64 500;
#X msg 207 66 200;
#X obj 127 143 tgl 19 0 empty empty empty 0 -10 0 12 #fcfcfc #000000 #000000 0 1;
#X obj 122 226 BSC, f 10;
#X msg 182 168 2;
#X obj 223 229 BSC, f 10;
#X obj 310 231 BSC, f 10;
#X obj 408 233 BSC, f 10;
#X obj 166 297 tgl 24 0 empty empty empty 0 -10 0 12 #00faff #000000 #000000 0 1;
#X floatatom 167 408 5 0 0 0 - - - 0;
#X obj 167 384 timer;
#X obj 168 334 bang;
#X obj 222 297 tgl 24 0 empty empty empty 0 -10 0 12 #00faff #000000 #000000 0 1;
#X floatatom 223 408 5 0 0 0 - - - 0;
#X obj 223 384 timer;
#X obj 224 334 bang;
#X obj 268 298 tgl 24 0 empty empty empty 0 -10 0 12 #00faff #000000 #000000 0 1;
#X floatatom 269 409 5 0 0 0 - - - 0;
#X obj 269 385 timer;
#X obj 270 335 bang;
#X obj 314 298 tgl 24 0 empty empty empty 0 -10 0 12 #00faff #000000 #000000 0 1;
#X floatatom 315 409 5 0 0 0 - - - 0;
#X obj 315 385 timer;
#X obj 316 335 bang;
#X msg 291 157 3;
#X msg 282 46 4;
#X msg 472 186 2;
#X msg 425 147 1;
#X text 415 72 db spökar;
#X obj 642 180 count;
#X obj 700 181 count;
#X obj 627 243 tgl 24 0 empty empty empty 0 -10 0 12 #00faff #000000 #000000 0 1;
#X obj 712 242 tgl 24 0 empty empty empty 0 -10 0 12 #00faff #000000 #000000 0 1;
#X obj 657 246 tgl 19 0 empty empty empty 0 -10 0 12 #fcfcfc #000000 #000000 0 1;
#X obj 743 247 tgl 19 0 empty empty empty 0 -10 0 12 #fcfcfc #000000 #000000 0 1;
#X obj 659 274 tgl 19 0 empty empty empty 0 -10 0 12 #fcfcfc #000000 #000000 0 1;
#X obj 743 274 tgl 19 0 empty empty empty 0 -10 0 12 #fcfcfc #000000 #000000 0 1;
#X obj 604 267 tgl 19 0 empty empty empty 0 -10 0 12 #fcfcfc #000000 #000000 0 1;
#X obj 696 278 tgl 19 0 empty empty empty 0 -10 0 12 #fcfcfc #000000 #000000 0 1;
#X msg 610 140 1;
#X obj 778 181 count;
#X obj 790 242 tgl 24 0 empty empty empty 0 -10 0 12 #00faff #000000 #000000 0 1;
#X obj 821 247 tgl 19 0 empty empty empty 0 -10 0 12 #fcfcfc #000000 #000000 0 1;
#X obj 821 274 tgl 19 0 empty empty empty 0 -10 0 12 #fcfcfc #000000 #000000 0 1;
#X obj 774 278 tgl 19 0 empty empty empty 0 -10 0 12 #fcfcfc #000000 #000000 0 1;
#X obj 590 298 bng 19 250 50 0 empty empty empty 0 -10 0 12 #fcfcfc #000000 #000000;
#X obj 723 95 break;
#X obj 778 96 shift;
#X obj 734 131 tgl 24 0 empty empty empty 0 -10 0 12 #00faff #000000 #000000 0 1;
#X obj 790 133 tgl 24 0 empty empty empty 0 -10 0 12 #00faff #000000 #000000 0 1;
#X msg 726 59 1;
#X connect 0 0 1 0;
#X connect 1 0 2 0;
#X connect 2 0 3 0;
#X connect 3 0 8 0;
#X connect 3 0 8 1;
#X connect 5 0 1 1;
#X connect 6 0 1 1;
#X connect 7 0 8 2;
#X connect 8 1 13 0;
#X connect 8 2 10 0;
#X connect 8 3 10 1;
#X connect 9 0 8 3;
#X connect 10 1 17 0;
#X connect 10 2 11 0;
#X connect 10 3 11 1;
#X connect 11 0 10 4;
#X connect 11 1 21 0;
#X connect 11 2 12 0;
#X connect 11 3 12 1;
#X connect 12 0 11 4;
#X connect 12 1 25 0;
#X connect 13 0 16 0;
#X connect 15 0 14 0;
#X connect 16 0 15 1;
#X connect 16 0 15 0;
#X connect 17 0 20 0;
#X connect 19 0 18 0;
#X connect 20 0 19 1;
#X connect 20 0 19 0;
#X connect 21 0 24 0;
#X connect 23 0 22 0;
#X connect 24 0 23 1;
#X connect 24 0 23 0;
#X connect 25 0 28 0;
#X connect 27 0 26 0;
#X connect 28 0 27 1;
#X connect 28 0 27 0;
#X connect 29 0 10 3;
#X connect 29 0 11 3;
#X connect 30 0 8 3;
#X connect 30 0 10 3;
#X connect 30 0 11 3;
#X connect 30 0 12 3;
#X connect 31 0 12 3;
#X connect 32 0 12 2;
#X connect 34 0 42 0;
#X connect 34 1 36 0;
#X connect 34 2 38 0;
#X connect 34 2 35 0;
#X connect 34 2 51 0;
#X connect 34 3 40 0;
#X connect 34 3 35 1;
#X connect 35 0 43 0;
#X connect 35 0 34 3;
#X connect 35 0 52 3;
#X connect 35 1 37 0;
#X connect 35 2 39 0;
#X connect 35 2 45 0;
#X connect 35 3 41 0;
#X connect 35 3 45 1;
#X connect 42 0 50 0;
#X connect 44 0 34 0;
#X connect 44 0 34 1;
#X connect 45 0 49 0;
#X connect 45 0 35 3;
#X connect 45 1 46 0;
#X connect 45 2 47 0;
#X connect 45 3 48 0;
#X connect 51 1 53 0;
#X connect 51 2 52 0;
#X connect 51 3 52 1;
#X connect 52 0 51 3;
#X connect 52 1 54 0;
#X connect 55 0 51 1;
