#N canvas 152 152 1920 1016 12;
#X obj 194 30 inlet;
#X floatatom 194 54 5 0 0 0 - - - 0;
#X obj 122 89 == 0;
#X obj 194 91 == 1;
#X obj 267 93 == 2;
#X obj 122 113 tgl 19 0 empty empty empty 0 -10 0 12 #fcfcfc #000000 #000000 0 1;
#X obj 194 115 tgl 19 0 empty empty empty 0 -10 0 12 #fcfcfc #000000 #000000 0 1;
#X obj 267 117 tgl 19 0 empty empty empty 0 -10 0 12 #fcfcfc #000000 #000000 0 1;
#X obj 122 137 outlet;
#X obj 194 139 outlet;
#X obj 267 141 outlet;
#X connect 0 0 1 0;
#X connect 1 0 2 0;
#X connect 1 0 3 0;
#X connect 1 0 4 0;
#X connect 2 0 5 0;
#X connect 3 0 6 0;
#X connect 4 0 7 0;
#X connect 5 0 8 0;
#X connect 6 0 9 0;
#X connect 7 0 10 0;
