#N canvas 1297 234 1920 1016 12;
#X obj 472 66 route 2 3 4;
#X obj 91 220 break;
#X obj 238 226 shift;
#X obj 366 230 count;
#X obj 55 47 inlet df;
#X obj 139 47 inlet clk;
#X obj 214 47 inlet reset;
#X obj 302 47 inlet db;
#X obj 472 42 inlet mode;
#X obj 57 161 f;
#X obj 89 161 f;
#X obj 120 160 f;
#X obj 153 160 f;
#X obj 55 71 t f f f;
#X obj 139 71 t f f f;
#X obj 214 71 t f f f;
#X obj 302 71 t f f f;
#X obj 195 161 f;
#X obj 227 161 f;
#X obj 258 160 f;
#X obj 291 160 f;
#X obj 332 160 f;
#X obj 364 160 f;
#X obj 395 159 f;
#X obj 428 159 f;
#X obj 76 119 t b b b b;
#X obj 212 118 t b b b b;
#X obj 347 118 t b b b b;
#X obj 73 350 outlet db;
#X obj 161 352 outlet lamp;
#X obj 259 354 outlet df;
#X obj 344 355 outlet clk;
#X obj 481 219 tgl 19 0 empty empty empty 0 -10 0 12 #fcfcfc #000000 #000000 0 1;
#X obj 508 218 tgl 19 0 empty empty empty 0 -10 0 12 #fcfcfc #000000 #000000 0 1;
#X obj 537 218 tgl 19 0 empty empty empty 0 -10 0 12 #fcfcfc #000000 #000000 0 1;
#X obj 564 217 tgl 19 0 empty empty empty 0 -10 0 12 #fcfcfc #000000 #000000 0 1;
#X obj 163 119 tgl 19 0 empty empty empty 0 -10 0 12 #fcfcfc #000000 #000000 0 1;
#X floatatom 481 132 5 0 0 0 - - - 0;
#X text 630 71 i vilken ordning måste saker hända;
#X connect 0 0 25 0;
#X connect 0 1 26 0;
#X connect 0 2 27 0;
#X connect 1 0 28 0;
#X connect 1 1 29 0;
#X connect 1 2 30 0;
#X connect 1 3 31 0;
#X connect 2 0 28 0;
#X connect 2 1 29 0;
#X connect 2 2 30 0;
#X connect 2 3 31 0;
#X connect 3 0 28 0;
#X connect 3 1 29 0;
#X connect 3 2 30 0;
#X connect 3 3 31 0;
#X connect 4 0 13 0;
#X connect 5 0 14 0;
#X connect 6 0 15 0;
#X connect 7 0 16 0;
#X connect 8 0 0 0;
#X connect 8 0 37 0;
#X connect 9 0 1 0;
#X connect 10 0 1 1;
#X connect 11 0 1 2;
#X connect 12 0 1 3;
#X connect 13 0 9 1;
#X connect 13 1 17 1;
#X connect 13 1 36 0;
#X connect 13 2 21 1;
#X connect 14 0 10 1;
#X connect 14 1 18 1;
#X connect 14 2 22 1;
#X connect 15 0 11 1;
#X connect 15 1 19 1;
#X connect 15 2 23 1;
#X connect 16 0 12 1;
#X connect 16 1 20 1;
#X connect 16 2 24 1;
#X connect 17 0 2 0;
#X connect 18 0 2 1;
#X connect 19 0 2 2;
#X connect 20 0 2 3;
#X connect 21 0 3 0;
#X connect 21 0 32 0;
#X connect 22 0 3 1;
#X connect 22 0 33 0;
#X connect 23 0 3 2;
#X connect 23 0 34 0;
#X connect 24 0 3 3;
#X connect 24 0 35 0;
#X connect 25 0 9 0;
#X connect 25 1 10 0;
#X connect 25 2 11 0;
#X connect 25 3 12 0;
#X connect 26 0 17 0;
#X connect 26 1 18 0;
#X connect 26 2 19 0;
#X connect 26 3 20 0;
#X connect 27 0 21 0;
#X connect 27 1 22 0;
#X connect 27 2 23 0;
#X connect 27 3 24 0;
