#N canvas 190 190 1920 1016 12;
#X obj 31 214 tgl 24 0 empty empty empty 0 -10 0 12 #00faff #000000 #000000 0 1;
#X obj 87 214 tgl 24 0 empty empty empty 0 -10 0 12 #00faff #000000 #000000 0 1;
#X obj 133 215 tgl 24 0 empty empty empty 0 -10 0 12 #00faff #000000 #000000 0 1;
#X obj 179 215 tgl 24 0 empty empty empty 0 -10 0 12 #00faff #000000 #000000 0 1;
#X obj 231 215 tgl 24 0 empty empty empty 0 -10 0 12 #00faff #000000 #000000 0 1;
#X obj 287 215 tgl 24 0 empty empty empty 0 -10 0 12 #00faff #000000 #000000 0 1;
#X obj 429 217 tgl 24 0 empty empty empty 0 -10 0 12 #00faff #000000 #000000 0 1;
#X obj 475 217 tgl 24 0 empty empty empty 0 -10 0 12 #00faff #000000 #000000 0 1;
#X msg 27 78 1;
#X msg 177 53 1;
#X obj 591 31 tgl 19 0 empty empty empty 0 -10 0 12 #fcfcfc #000000 #000000 0 1;
#X msg 591 55 \; pd dsp \$1;
#X text 613 29 Sound;
#X obj 36 6 tgl 19 0 empty empty empty 0 -10 0 12 #fcfcfc #000000 #000000 0 1;
#X obj 36 30 metro 200;
#X obj 336 216 tgl 24 0 empty empty empty 0 -10 0 12 #00faff #000000 #000000 0 1;
#X obj 385 216 tgl 24 0 empty empty empty 0 -10 0 12 #00faff #000000 #000000 0 1;
#X obj 35 141 modev3;
#X obj 89 140 modev3;
#X obj 162 139 modev3;
#X msg 85 78 2;
#X msg 123 79 3;
#X msg 187 79 4;
#X connect 8 0 17 0;
#X connect 8 0 17 1;
#X connect 10 0 11 0;
#X connect 13 0 14 0;
#X connect 14 0 8 0;
#X connect 17 1 0 0;
#X connect 17 2 18 0;
#X connect 17 3 18 1;
#X connect 18 1 1 0;
#X connect 18 2 19 0;
#X connect 18 3 19 1;
#X connect 19 1 2 0;
#X connect 20 0 17 4;
#X connect 21 0 18 4;
#X connect 21 0 19 4;
#X connect 22 0 19 4;
#X connect 22 0 18 4;
#X connect 22 0 17 4;
