#N canvas 228 228 1920 1016 12;
#X obj 56 32 inlet;
#X obj 130 32 inlet;
#X obj 199 32 inlet;
#X obj 399 39 inlet;
#X obj 399 63 modecheck;
#X floatatom 56 56 5 0 0 0 - - - 0;
#X floatatom 130 56 5 0 0 0 - - - 0;
#X floatatom 199 56 5 0 0 0 - - - 0;
#X obj 57 158 spiggate;
#X obj 189 154 spiggate;
#X obj 337 160 spiggate;
#X obj 72 291 outlet;
#X obj 184 294 outlet;
#X obj 296 295 outlet;
#X obj 63 216 break;
#X obj 195 215 count;
#X obj 340 222 shift;
#X connect 0 0 5 0;
#X connect 1 0 6 0;
#X connect 2 0 7 0;
#X connect 3 0 4 0;
#X connect 4 0 8 3;
#X connect 4 1 9 3;
#X connect 4 2 10 3;
#X connect 5 0 8 0;
#X connect 5 0 9 0;
#X connect 5 0 10 0;
#X connect 6 0 8 1;
#X connect 6 0 9 1;
#X connect 6 0 10 1;
#X connect 7 0 8 2;
#X connect 7 0 9 2;
#X connect 7 0 10 2;
#X connect 8 0 14 3;
#X connect 8 1 14 0;
#X connect 8 2 14 1;
#X connect 9 0 15 3;
#X connect 9 1 15 0;
#X connect 9 2 15 1;
#X connect 10 0 16 3;
#X connect 10 1 16 0;
#X connect 10 2 16 1;
#X connect 14 0 11 0;
#X connect 14 2 12 0;
#X connect 14 3 13 0;
#X connect 15 0 11 0;
#X connect 15 2 12 0;
#X connect 15 3 13 0;
#X connect 16 0 11 0;
#X connect 16 2 12 0;
#X connect 16 3 13 0;
