#N canvas 38 38 1920 1016 12;
#X obj 576 116 tgl 19 0 empty empty empty 0 -10 0 12 #fcfcfc #000000 #000000 0 1;
#X obj 576 149 metro 1000;
#X floatatom 578 176 5 0 0 0 - - - 0;
#X obj 540 58 tgl 19 0 empty empty empty 0 -10 0 12 #fcfcfc #000000 #000000 0 1;
#X obj 138 186 tgl 25 0 empty empty empty 0 -10 0 12 #00faff #000000 #000000 0 1;
#X obj 141 122 vradio 19 1 0 3 empty empty empty 0 -10 0 12 #fcfcfc #000000 #000000 0;
#X obj 181 186 tgl 25 0 empty empty empty 0 -10 0 12 #00faff #000000 #000000 0 1;
#X obj 182 123 vradio 19 1 0 3 empty empty empty 0 -10 0 12 #fcfcfc #000000 #000000 0;
#X obj 216 186 tgl 25 0 empty empty empty 0 -10 0 12 #00faff #000000 #000000 0 1;
#X obj 218 121 vradio 19 1 0 3 empty empty empty 0 -10 0 12 #fcfcfc #000000 #000000 0;
#X obj 252 188 tgl 25 0 empty empty empty 0 -10 0 12 #00faff #000000 #000000 0 1;
#X obj 254 122 vradio 19 1 0 3 empty empty empty 0 -10 0 12 #fcfcfc #000000 #000000 0;
#X obj 285 186 tgl 25 0 empty empty empty 0 -10 0 12 #00faff #000000 #000000 0 1;
#X obj 290 122 vradio 19 1 0 3 empty empty empty 0 -10 0 12 #fcfcfc #000000 #000000 0;
#X obj 322 186 tgl 25 0 empty empty empty 0 -10 0 12 #00faff #000000 #000000 0 1;
#X obj 324 121 vradio 19 1 0 3 empty empty empty 0 -10 0 12 #fcfcfc #000000 #000000 0;
#X obj 358 185 tgl 25 0 empty empty empty 0 -10 0 12 #00faff #000000 #000000 0 1;
#X obj 362 122 vradio 19 1 0 3 empty empty empty 0 -10 0 12 #fcfcfc #000000 #000000 0;
#X obj 390 185 tgl 25 0 empty empty empty 0 -10 0 12 #00faff #000000 #000000 0 1;
#X obj 394 121 vradio 19 1 0 3 empty empty empty 0 -10 0 12 #fcfcfc #000000 #000000 0;
#X obj 430 186 tgl 25 0 empty empty empty 0 -10 0 12 #00faff #000000 #000000 0 1;
#X obj 431 122 vradio 19 1 0 3 empty empty empty 0 -10 0 12 #fcfcfc #000000 #000000 0;
#X obj 465 186 tgl 25 0 empty empty empty 0 -10 0 12 #00faff #000000 #000000 0 1;
#X obj 467 123 vradio 19 1 0 3 empty empty empty 0 -10 0 12 #fcfcfc #000000 #000000 0;
#X text 499 120 Break;
#X text 497 141 Count;
#X text 501 161 Shift;
#X text 598 118 On/Off;
#X text 579 201 Metro;
#X obj 32 189 modev2, f 8;
#X obj 31 228 modev2, f 8;
#X obj 29 262 modev2, f 8;
#X obj 29 292 modev2, f 8;
#X obj 29 318 modev2, f 8;
#X obj 26 347 modev2, f 8;
#X obj 27 373 modev2, f 8;
#X obj 27 402 modev2, f 8;
#X obj 27 432 modev2, f 8;
#X obj 25 457 modev2, f 8;
#X msg 573 269 1;
#X msg 664 117 500;
#X msg 663 84 200;
#X connect 0 0 1 0;
#X connect 1 0 3 0;
#X connect 2 0 1 1;
#X connect 3 0 39 0;
#X connect 5 0 29 3;
#X connect 7 0 30 3;
#X connect 9 0 31 3;
#X connect 11 0 32 3;
#X connect 13 0 33 3;
#X connect 15 0 34 3;
#X connect 17 0 35 3;
#X connect 19 0 36 3;
#X connect 21 0 37 3;
#X connect 23 0 38 3;
#X connect 29 1 4 0;
#X connect 29 1 30 1;
#X connect 29 2 30 2;
#X connect 30 0 29 0;
#X connect 30 1 6 0;
#X connect 30 1 31 1;
#X connect 30 2 31 2;
#X connect 31 0 30 0;
#X connect 31 1 8 0;
#X connect 31 1 32 1;
#X connect 31 2 32 2;
#X connect 32 0 31 0;
#X connect 32 1 10 0;
#X connect 32 1 33 1;
#X connect 32 2 33 2;
#X connect 33 0 32 0;
#X connect 33 1 12 0;
#X connect 33 1 34 1;
#X connect 33 2 34 2;
#X connect 34 0 33 0;
#X connect 34 1 14 0;
#X connect 34 1 35 1;
#X connect 34 2 35 2;
#X connect 35 0 34 0;
#X connect 35 1 16 0;
#X connect 35 1 36 1;
#X connect 35 2 36 2;
#X connect 36 0 35 0;
#X connect 36 1 18 0;
#X connect 36 1 37 1;
#X connect 36 2 37 2;
#X connect 37 0 36 0;
#X connect 37 1 20 0;
#X connect 37 1 38 1;
#X connect 37 2 38 2;
#X connect 38 0 37 0;
#X connect 38 1 22 0;
#X connect 39 0 29 1;
#X connect 40 0 1 1;
#X connect 41 0 1 1;
