#N canvas 114 114 1920 1026 12;
#X text 505 24 in: df \, s \, mode \, db out: db \, lamp \, df \, s;
#X obj 49 108 mode, f 7;
#X obj 108 108 mode, f 7;
#X obj 166 108 mode, f 7;
#X obj 225 108 mode, f 7;
#X msg 31 42 1;
#X obj 31 66 t b f;
#X msg 397 11 1;
#X text 428 12 rs;
#X msg 74 31 1;
#X obj 64 140 tgl 19 0 empty empty empty 0 -10 0 12 #fcfcfc #000000 #000000 0 1;
#X obj 123 140 tgl 19 0 empty empty empty 0 -10 0 12 #fcfcfc #000000 #000000 0 1;
#X obj 181 140 tgl 19 0 empty empty empty 0 -10 0 12 #fcfcfc #000000 #000000 0 1;
#X obj 240 140 tgl 19 0 empty empty empty 0 -10 0 12 #fcfcfc #000000 #000000 0 1;
#X msg 209 39 0;
#X obj 270 25 tgl 19 0 empty empty empty 0 -10 0 12 #fcfcfc #000000 #000000 0 1;
#X obj 116 300 mode, f 7;
#X obj 174 300 mode, f 7;
#X obj 233 300 mode, f 7;
#X msg 39 234 1;
#X obj 39 258 t b f;
#X msg 140 229 1;
#X obj 72 332 tgl 19 0 empty empty empty 0 -10 0 12 #fcfcfc #000000 #000000 0 1;
#X obj 131 332 tgl 19 0 empty empty empty 0 -10 0 12 #fcfcfc #000000 #000000 0 1;
#X obj 189 332 tgl 19 0 empty empty empty 0 -10 0 12 #fcfcfc #000000 #000000 0 1;
#X obj 248 332 tgl 19 0 empty empty empty 0 -10 0 12 #fcfcfc #000000 #000000 0 1;
#X msg 217 231 0;
#X obj 278 217 tgl 19 0 empty empty empty 0 -10 0 12 #fcfcfc #000000 #000000 0 1;
#X obj 89 371 t f f f f f f f f f f;
#X obj 57 300 mode1, f 7;
#X msg 86 231 2;
#X msg 96 202 1;
#X obj 292 300 mode10;
#X obj 305 331 tgl 19 0 empty empty empty 0 -10 0 12 #fcfcfc #000000 #000000 0 1;
#X msg 311 255 1;
#X msg 347 256 0;
#X msg 380 257 2;
#X msg 174 229 2;
#X msg 129 202 0;
#X connect 1 1 10 0;
#X connect 1 2 2 0;
#X connect 1 3 2 1;
#X connect 2 0 1 4;
#X connect 2 1 11 0;
#X connect 2 2 3 0;
#X connect 2 3 3 1;
#X connect 3 0 2 4;
#X connect 3 1 12 0;
#X connect 3 2 4 0;
#X connect 3 3 4 1;
#X connect 4 0 3 4;
#X connect 4 1 13 0;
#X connect 5 0 6 0;
#X connect 6 0 1 1;
#X connect 6 1 1 0;
#X connect 7 0 1 3;
#X connect 7 0 2 3;
#X connect 7 0 3 3;
#X connect 7 0 4 3;
#X connect 9 0 1 2;
#X connect 9 0 2 2;
#X connect 9 0 3 2;
#X connect 9 0 4 2;
#X connect 14 0 3 2;
#X connect 15 0 3 4;
#X connect 16 0 29 4;
#X connect 16 1 23 0;
#X connect 16 2 17 0;
#X connect 16 3 17 1;
#X connect 17 0 16 4;
#X connect 17 1 24 0;
#X connect 17 2 18 0;
#X connect 17 3 18 1;
#X connect 18 0 17 4;
#X connect 18 1 25 0;
#X connect 18 2 32 0;
#X connect 18 3 32 1;
#X connect 19 0 20 0;
#X connect 20 0 29 1;
#X connect 20 1 29 0;
#X connect 21 0 16 2;
#X connect 21 0 17 2;
#X connect 21 0 18 2;
#X connect 26 0 17 2;
#X connect 27 0 17 4;
#X connect 28 0 29 3;
#X connect 28 1 16 3;
#X connect 28 2 17 3;
#X connect 28 3 18 3;
#X connect 28 4 32 3;
#X connect 29 0 28 0;
#X connect 29 1 22 0;
#X connect 29 2 16 0;
#X connect 29 3 16 1;
#X connect 30 0 29 2;
#X connect 31 0 29 2;
#X connect 32 0 18 4;
#X connect 32 1 33 0;
#X connect 34 0 32 2;
#X connect 35 0 32 2;
#X connect 36 0 32 2;
#X connect 37 0 16 2;
#X connect 37 0 17 2;
#X connect 37 0 18 2;
#X connect 38 0 29 2;
