#N canvas 152 152 1920 1016 12;
#X obj 76 130 NAND;
#X obj 78 164 NAND;
#X obj 83 200 NAND;
#X obj 58 96 inlet a;
#X obj 123 96 inlet b;
#X obj 192 96 inlet c;
#X obj 82 236 outlet T;
#X connect 0 0 1 0;
#X connect 0 0 1 1;
#X connect 1 0 2 0;
#X connect 2 0 6 0;
#X connect 3 0 0 0;
#X connect 4 0 0 1;
#X connect 5 0 2 1;
