#N canvas -24 -13 1920 1016 12;
#X obj 63 152 stage1;
#X obj 723 150 stage10, f 24;
#X obj 185 150 stage2-9, f 67;
#X obj 73 49 tgl 19 0 empty empty empty 0 -10 0 12 #fcfcfc #000000 #000000 0 1;
#X obj 73 73 metro 500;
#X obj 171 11 vradio 19 1 0 3 empty empty empty 0 -10 0 12 #fcfcfc #000000 #000000 0;
#X floatatom 171 98 5 0 0 0 - - - 0;
#X obj 171 73 + 1;
#X obj 233 5 vradio 19 1 0 3 empty empty empty 0 -10 0 12 #fcfcfc #000000 #000000 0;
#X floatatom 233 92 5 0 0 0 - - - 0;
#X obj 233 67 + 1;
#X obj 286 5 vradio 19 1 0 3 empty empty empty 0 -10 0 12 #fcfcfc #000000 #000000 0;
#X floatatom 286 92 5 0 0 0 - - - 0;
#X obj 286 67 + 1;
#X obj 362 2 vradio 19 1 0 3 empty empty empty 0 -10 0 12 #fcfcfc #000000 #000000 0;
#X floatatom 362 89 5 0 0 0 - - - 0;
#X obj 362 64 + 1;
#X obj 431 2 vradio 19 1 0 3 empty empty empty 0 -10 0 12 #fcfcfc #000000 #000000 0;
#X floatatom 431 89 5 0 0 0 - - - 0;
#X obj 431 64 + 1;
#X obj 484 2 vradio 19 1 0 3 empty empty empty 0 -10 0 12 #fcfcfc #000000 #000000 0;
#X floatatom 484 89 5 0 0 0 - - - 0;
#X obj 484 64 + 1;
#X obj 537 4 vradio 19 1 0 3 empty empty empty 0 -10 0 12 #fcfcfc #000000 #000000 0;
#X floatatom 537 91 5 0 0 0 - - - 0;
#X obj 537 66 + 1;
#X obj 592 5 vradio 19 1 0 3 empty empty empty 0 -10 0 12 #fcfcfc #000000 #000000 0;
#X floatatom 592 92 5 0 0 0 - - - 0;
#X obj 592 67 + 1;
#X obj 644 4 vradio 19 1 0 3 empty empty empty 0 -10 0 12 #fcfcfc #000000 #000000 0;
#X floatatom 644 91 5 0 0 0 - - - 0;
#X obj 644 66 + 1;
#X obj 746 6 vradio 19 1 0 3 empty empty empty 0 -10 0 12 #fcfcfc #000000 #000000 0;
#X floatatom 746 93 5 0 0 0 - - - 0;
#X obj 746 68 + 1;
#X obj 235 317 tgl 19 0 empty empty empty 0 -10 0 12 #fcfcfc #000000 #000000 0 1;
#X obj 293 314 tgl 19 0 empty empty empty 0 -10 0 12 #fcfcfc #000000 #000000 0 1;
#X obj 333 317 tgl 19 0 empty empty empty 0 -10 0 12 #fcfcfc #000000 #000000 0 1;
#X obj 391 314 tgl 19 0 empty empty empty 0 -10 0 12 #fcfcfc #000000 #000000 0 1;
#X obj 742 274 tgl 19 0 empty empty empty 0 -10 0 12 #fcfcfc #000000 #000000 0 1;
#X obj 81 112 tgl 19 0 empty empty empty 0 -10 0 12 #fcfcfc #000000 #000000 0 1;
#X connect 0 0 2 0;
#X connect 0 1 2 1;
#X connect 0 2 2 2;
#X connect 1 1 39 0;
#X connect 1 3 2 11;
#X connect 2 0 0 0;
#X connect 2 2 35 0;
#X connect 2 5 36 0;
#X connect 2 8 37 0;
#X connect 2 11 38 0;
#X connect 2 25 1 1;
#X connect 2 26 1 2;
#X connect 2 27 1 3;
#X connect 3 0 4 0;
#X connect 4 0 40 0;
#X connect 5 0 7 0;
#X connect 6 0 0 1;
#X connect 7 0 6 0;
#X connect 8 0 10 0;
#X connect 9 0 2 3;
#X connect 10 0 9 0;
#X connect 11 0 13 0;
#X connect 12 0 2 4;
#X connect 13 0 12 0;
#X connect 14 0 16 0;
#X connect 15 0 2 5;
#X connect 16 0 15 0;
#X connect 17 0 19 0;
#X connect 18 0 2 6;
#X connect 19 0 18 0;
#X connect 20 0 22 0;
#X connect 21 0 2 7;
#X connect 22 0 21 0;
#X connect 23 0 25 0;
#X connect 24 0 2 8;
#X connect 25 0 24 0;
#X connect 26 0 28 0;
#X connect 27 0 2 9;
#X connect 28 0 27 0;
#X connect 29 0 31 0;
#X connect 30 0 2 10;
#X connect 31 0 30 0;
#X connect 32 0 34 0;
#X connect 33 0 1 4;
#X connect 34 0 33 0;
#X connect 40 0 0 2;
