#N canvas 38 38 1920 1016 12;
#X text 152 49 K;
#X text 497 44 J;
#X text 521 392 Qn+1;
#X obj 468 159 NAND 1;
#X text 166 417 inv Qn+1;
#X obj 428 37 inlet J;
#X obj 184 42 inlet K;
#X obj 317 81 != 1;
#X obj 346 162 NAND 2;
#X obj 168 161 NAND 4;
#X obj 186 304 NAND 5;
#X obj 397 313 NAND 3;
#X obj 161 379 outlet invQn+1;
#X obj 487 371 outlet Qn+1;
#X connect 3 0 11 1;
#X connect 5 0 3 1;
#X connect 5 0 8 1;
#X connect 5 0 10 0;
#X connect 6 0 7 0;
#X connect 6 0 9 0;
#X connect 7 0 3 0;
#X connect 8 0 11 0;
#X connect 9 0 10 1;
#X connect 10 0 8 0;
#X connect 10 0 12 0;
#X connect 11 0 9 1;
#X connect 11 0 13 0;
