#N canvas 1914 0 1920 1016 12;
#X obj 283 287 &&;
#X obj 283 313 != 1;
#X obj 287 263 t b f;
#X obj 370 70 &&;
#X obj 370 96 != 1;
#X obj 374 46 t b f;
#X obj 383 147 &&;
#X obj 377 172 != 1;
#X obj 383 122 t b f;
#X obj 354 222 &&;
#X obj 363 247 != 1;
#X obj 369 197 t b f;
#X obj 54 16 inlet k;
#X obj 220 14 inlet clk;
#X obj 357 14 inlet j;
#X obj 97 71 &&;
#X obj 97 97 != 1;
#X obj 101 47 t b f;
#X obj 110 146 &&;
#X obj 104 171 != 1;
#X obj 110 121 t b f;
#X obj 81 221 &&;
#X obj 90 246 != 1;
#X obj 96 196 t b f;
#X obj 268 342 f;
#X obj 158 279 &&;
#X obj 158 305 != 1;
#X obj 162 255 t b f;
#X obj 154 343 f;
#X obj 268 366 outlet Q;
#X obj 154 367 outlet invQ;
#X obj 247 94 sel 1;
#X connect 0 0 1 0;
#X connect 1 0 24 1;
#X connect 2 0 0 0;
#X connect 2 1 0 1;
#X connect 3 0 4 0;
#X connect 4 0 8 0;
#X connect 4 0 6 0;
#X connect 5 0 3 0;
#X connect 5 1 3 1;
#X connect 6 0 7 0;
#X connect 7 0 11 0;
#X connect 8 0 6 0;
#X connect 8 1 6 1;
#X connect 9 0 10 0;
#X connect 10 0 2 0;
#X connect 11 0 9 0;
#X connect 11 1 9 1;
#X connect 12 0 15 0;
#X connect 13 0 5 0;
#X connect 13 0 17 0;
#X connect 13 0 31 0;
#X connect 14 0 3 0;
#X connect 15 0 16 0;
#X connect 16 0 20 0;
#X connect 16 0 18 0;
#X connect 17 0 15 0;
#X connect 17 1 15 1;
#X connect 18 0 19 0;
#X connect 19 0 23 0;
#X connect 20 0 18 0;
#X connect 20 1 18 1;
#X connect 21 0 22 0;
#X connect 22 0 25 0;
#X connect 23 0 21 0;
#X connect 23 1 21 1;
#X connect 24 0 27 0;
#X connect 24 0 29 0;
#X connect 25 0 26 0;
#X connect 26 0 28 1;
#X connect 27 0 25 0;
#X connect 27 1 25 1;
#X connect 28 0 0 0;
#X connect 28 0 30 0;
#X connect 31 0 28 0;
#X connect 31 0 24 0;
