#N canvas -10 0 958 1004 12;
#X obj 299 342 &&;
#X obj 299 368 != 1;
#X obj 303 318 t b f;
#X obj 367 148 &&;
#X obj 367 174 != 1;
#X obj 371 124 t b f;
#X obj 380 225 &&;
#X obj 374 250 != 1;
#X obj 380 200 t b f;
#X obj 351 300 &&;
#X obj 360 325 != 1;
#X obj 366 275 t b f;
#X obj 54 90 inlet k;
#X obj 220 88 inlet clk;
#X obj 357 88 inlet j;
#X obj 94 149 &&;
#X obj 94 175 != 1;
#X obj 98 125 t b f;
#X obj 107 224 &&;
#X obj 101 249 != 1;
#X obj 107 199 t b f;
#X obj 78 299 &&;
#X obj 87 324 != 1;
#X obj 93 274 t b f;
#X obj 284 397 f;
#X obj 146 331 &&;
#X obj 146 357 != 1;
#X obj 150 307 t b f;
#X obj 142 395 f;
#X obj 275 428 outlet Q;
#X obj 133 426 outlet invQ;
#X obj 221 118 t f f f;
#X obj 234 198 bang;
#X obj 346 430 print Q;
#X obj 69 429 print !Q;
#X connect 0 0 1 0;
#X connect 1 0 24 1;
#X connect 2 0 0 0;
#X connect 2 1 0 1;
#X connect 3 0 4 0;
#X connect 4 0 8 0;
#X connect 4 0 6 0;
#X connect 5 0 3 0;
#X connect 5 1 3 1;
#X connect 6 0 7 0;
#X connect 7 0 11 0;
#X connect 8 0 6 0;
#X connect 8 1 6 1;
#X connect 9 0 10 0;
#X connect 10 0 2 0;
#X connect 11 0 9 0;
#X connect 11 1 9 1;
#X connect 12 0 15 0;
#X connect 13 0 31 0;
#X connect 14 0 3 0;
#X connect 15 0 16 0;
#X connect 16 0 20 0;
#X connect 16 0 18 0;
#X connect 17 0 15 0;
#X connect 17 1 15 1;
#X connect 18 0 19 0;
#X connect 19 0 23 0;
#X connect 20 0 18 0;
#X connect 20 1 18 1;
#X connect 21 0 22 0;
#X connect 22 0 25 0;
#X connect 23 0 21 0;
#X connect 23 1 21 1;
#X connect 24 0 27 0;
#X connect 24 0 29 0;
#X connect 24 0 21 0;
#X connect 24 0 33 0;
#X connect 25 0 26 0;
#X connect 26 0 28 1;
#X connect 27 0 25 0;
#X connect 27 1 25 1;
#X connect 28 0 0 0;
#X connect 28 0 30 0;
#X connect 28 0 9 0;
#X connect 28 0 34 0;
#X connect 31 0 32 0;
#X connect 31 1 17 0;
#X connect 31 2 5 0;
#X connect 32 0 28 0;
#X connect 32 0 24 0;
