#N canvas 1914 0 1920 1016 12;
#X obj 73 30 inlet K;
#X obj 240 61 inlet CLK;
#X obj 317 27 inlet J;
#X obj 65 129 3NAND;
#X obj 297 144 3NAND;
#X obj 98 191 NAND;
#X obj 277 193 NAND;
#X obj 101 280 NAND;
#X obj 266 279 NAND;
#X obj 131 149 NAND;
#X obj 87 317 NAND;
#X obj 252 316 NAND;
#X obj 315 407 print Q;
#X obj 230 402 outlet Q;
#X obj 96 400 outlet invQ;
#X obj 229 247 f;
#X obj 149 246 f;
#X obj 241 368 f;
#X obj 98 363 f;
#X obj 28 399 print !Q;
#X obj 130 121 t f f;
#X obj 183 155 t b b b b;
#X obj 27 28 tgl 24 0 empty empty K 0 -10 0 12 #ffe3c6 #000000 #000000 0 1;
#X obj 169 26 tgl 24 0 empty empty CLK 0 -10 0 12 #feffc6 #000000 #000000 0 1;
#X obj 379 25 tgl 24 0 empty empty J 0 -10 0 12 #c6ffc7 #000000 #000000 0 1;
#X obj 117 444 tgl 24 0 empty empty !Q 0 -10 0 12 #c6feff #000000 #000000 0 1;
#X obj 201 442 tgl 24 0 empty empty Q 0 -10 0 12 #e3c6ff #000000 #000000 0 1;
#X connect 0 0 3 1;
#X connect 1 0 21 0;
#X connect 1 0 20 0;
#X connect 1 0 3 2;
#X connect 1 0 4 0;
#X connect 2 0 4 1;
#X connect 3 0 5 0;
#X connect 4 0 6 1;
#X connect 5 0 16 1;
#X connect 6 0 15 1;
#X connect 7 0 10 0;
#X connect 8 0 11 1;
#X connect 9 0 7 1;
#X connect 9 0 8 0;
#X connect 10 0 18 1;
#X connect 10 0 4 2;
#X connect 11 0 17 1;
#X connect 11 0 3 0;
#X connect 15 0 8 1;
#X connect 15 0 5 1;
#X connect 16 0 7 0;
#X connect 16 0 6 0;
#X connect 17 0 13 0;
#X connect 17 0 12 0;
#X connect 17 0 10 1;
#X connect 17 0 26 0;
#X connect 18 0 14 0;
#X connect 18 0 11 0;
#X connect 18 0 19 0;
#X connect 18 0 25 0;
#X connect 20 0 9 0;
#X connect 20 1 9 1;
#X connect 21 0 16 0;
#X connect 21 1 15 0;
#X connect 21 2 18 0;
#X connect 21 3 17 0;
#X connect 22 0 3 1;
#X connect 23 0 20 0;
#X connect 23 0 3 2;
#X connect 23 0 21 0;
#X connect 24 0 4 1;
