#N canvas 76 76 1676 662 12;
#X obj 78 58 inlet;
#X obj 82 266 outlet;
#X obj 81 153 f;
#X obj 167 56 inlet;
#X obj 171 264 outlet;
#X obj 170 151 f;
#X obj 245 55 inlet;
#X obj 249 263 outlet;
#X obj 248 150 f;
#X obj 334 53 inlet;
#X obj 338 261 outlet;
#X obj 337 148 f;
#X obj 414 54 inlet;
#X obj 418 262 outlet;
#X obj 417 149 f;
#X obj 503 52 inlet;
#X obj 507 260 outlet;
#X obj 506 147 f;
#X obj 581 51 inlet;
#X obj 585 259 outlet;
#X obj 584 146 f;
#X obj 670 49 inlet;
#X obj 674 257 outlet;
#X obj 673 144 f;
#X connect 0 0 2 0;
#X connect 2 0 1 0;
#X connect 3 0 5 0;
#X connect 5 0 4 0;
#X connect 6 0 8 0;
#X connect 8 0 7 0;
#X connect 9 0 11 0;
#X connect 11 0 10 0;
#X connect 12 0 14 0;
#X connect 14 0 13 0;
#X connect 15 0 17 0;
#X connect 17 0 16 0;
#X connect 18 0 20 0;
#X connect 20 0 19 0;
#X connect 21 0 23 0;
#X connect 23 0 22 0;
