#N canvas 152 152 1247 817 12;
#X obj 440 39 inlet S;
#X obj 288 39 inlet clk;
#X obj 99 39 inlet R;
#X obj 142 180 &&;
#X obj 380 191 &&;
#X obj 192 130 t b f;
#X obj 415 133 t b f;
#X obj 380 215 f;
#X obj 142 204 f;
#X obj 152 274 NOR;
#X obj 360 269 NOR;
#X obj 153 357 f;
#X obj 344 357 f;
#X floatatom 153 381 5 0 0 0 - - - 0;
#X floatatom 344 381 5 0 0 0 - - - 0;
#X obj 124 444 outlet invQ;
#X obj 335 438 outlet Q;
#X obj 289 101 bng 19 250 50 0 empty empty empty 0 -10 0 12 #fcfcfc #000000 #000000;
#X text 77 180 AND;
#X connect 0 0 6 0;
#X connect 1 0 5 0;
#X connect 1 0 4 0;
#X connect 1 0 17 0;
#X connect 2 0 3 0;
#X connect 3 0 8 0;
#X connect 4 0 7 0;
#X connect 5 0 3 0;
#X connect 5 1 3 1;
#X connect 6 0 4 0;
#X connect 6 1 4 1;
#X connect 7 0 10 1;
#X connect 8 0 9 0;
#X connect 9 0 11 1;
#X connect 10 0 12 1;
#X connect 11 0 10 0;
#X connect 11 0 13 0;
#X connect 12 0 9 1;
#X connect 12 0 14 0;
#X connect 13 0 15 0;
#X connect 14 0 16 0;
#X connect 17 0 11 0;
#X connect 17 0 12 0;
