#N canvas 803 190 1920 1016 12;
#X obj 116 314 spigot;
#X obj 155 269 tgl 19 0 empty empty empty 0 -10 0 12 #fcfcfc #000000 #000000 0 1;
#X obj 85 67 inlet;
#X obj 159 63 inlet;
#X obj 174 421 outlet;
#X obj 238 66 inlet;
#X obj 246 320 spigot;
#X obj 213 269 tgl 19 0 empty empty empty 0 -10 0 12 #fcfcfc #000000 #000000 0 1;
#X obj 448 198 t b f;
#X obj 417 255 float;
#X obj 157 197 == 1;
#X obj 206 197 == 2;
#X connect 0 0 4 0;
#X connect 1 0 0 1;
#X connect 2 0 0 0;
#X connect 3 0 10 0;
#X connect 3 0 11 0;
#X connect 5 0 6 0;
#X connect 6 0 4 0;
#X connect 7 0 6 1;
#X connect 8 0 9 0;
#X connect 8 1 9 1;
#X connect 10 0 1 0;
#X connect 11 0 7 0;
