#N canvas 68 43 1920 1016 12;
#X obj 78 308 spigot;
#X obj 118 275 tgl 19 0 empty empty empty 0 -10 0 12 #fcfcfc #000000 #000000 0 1;
#X obj 174 421 outlet;
#X obj 290 310 spigot;
#X obj 252 270 tgl 19 0 empty empty empty 0 -10 0 12 #fcfcfc #000000 #000000 0 1;
#X obj 71 41 inlet cs;
#X obj 168 41 inlet mode;
#X obj 289 39 inlet b;
#X obj 180 182 tgl 19 0 empty empty empty 0 -10 0 12 #fcfcfc #000000 #000000 0 1;
#X obj 149 205 spigot;
#X obj 252 244 == 1;
#X obj 180 155 == 3;
#X obj 118 241 == 2;
#X text 321 94 b= 1 \, c=2 \, s=3;
#X connect 0 0 2 0;
#X connect 1 0 0 1;
#X connect 3 0 2 0;
#X connect 4 0 3 1;
#X connect 5 0 0 0;
#X connect 5 0 9 0;
#X connect 6 0 10 0;
#X connect 6 0 11 0;
#X connect 6 0 12 0;
#X connect 7 0 3 0;
#X connect 8 0 9 1;
#X connect 9 0 2 0;
#X connect 10 0 4 0;
#X connect 11 0 8 0;
#X connect 12 0 1 0;
