#N canvas 886 321 450 300 12;
#X obj 86 62 jkbig;
#X obj 58 32 tgl 19 0 empty empty empty 0 -10 0 12 #fcfcfc #000000 #000000 0 1;
#X obj 101 29 tgl 19 0 empty empty empty 0 -10 0 12 #fcfcfc #000000 #000000 0 1;
#X obj 140 32 tgl 19 0 empty empty empty 0 -10 0 12 #fcfcfc #000000 #000000 0 1;
#X obj 45 90 bng 19 250 50 0 empty empty empty 0 -10 0 12 #fcfcfc #000000 #000000;
#X floatatom 68 91 5 0 0 0 - - - 0;
#X obj 122 92 bng 19 250 50 0 empty empty empty 0 -10 0 12 #fcfcfc #000000 #000000;
#X floatatom 145 93 5 0 0 0 - - - 0;
#X msg 173 35 0;
#X msg 15 27 0;
#X connect 0 0 4 0;
#X connect 0 0 5 0;
#X connect 0 1 6 0;
#X connect 0 1 7 0;
#X connect 1 0 0 0;
#X connect 2 0 0 1;
#X connect 3 0 0 2;
#X connect 8 0 0 2;
#X connect 9 0 0 0;
