#N canvas 76 76 1920 1016 12;
#X obj 417 286 vradio 19 1 0 2 ON OFF empty 0 -10 0 12 #fcfcfc #000000 #000000 0;
#X msg 397 186 1;
#X msg 397 142 tempo \$1 permin;
#X obj 397 164 metro 1 300 permin;
#X obj 397 208 stages, f 7;
#X msg 456 208 1;
#X obj 397 120 r speed;
#X obj 397 231 s OFF;
#X obj 363 142 r ON;
#X obj 449 327 steps;
#X obj 438 381 dac~;
#X obj 4 5 receive fromGUI;
#X obj 4 27 list trim;
#X obj 497 54 receive fromGUI;
#X obj 497 76 list trim;
#X obj 497 98 route /myGrid;
#X obj 497 120 unpack f f f;
#X obj 497 187 sel 0 1 2 3 4 5 6 7 8 9;
#X obj 497 209 f;
#X obj 525 209 f;
#X obj 538 142 t f f f f f f f f f f;
#X obj 580 209 f;
#X obj 553 209 f;
#X obj 635 209 f;
#X obj 608 209 f;
#X obj 689 209 f;
#X obj 662 209 f;
#X obj 743 209 f;
#X obj 716 209 f;
#X obj 578 165 t f f f f f f f f f f;
#X obj 74 62 cm;
#X obj 112 62 cm;
#X obj 149 61 cm;
#X obj 186 61 cm;
#X obj 224 61 cm;
#X obj 261 61 cm;
#X obj 299 61 cm;
#X obj 336 61 cm;
#X obj 374 61 cm;
#X obj 411 61 cm;
#X obj 4 49 s listgui;
#X obj 4 83 r listgui;
#X obj 4 186 r listgui;
#X obj 4 208 route /gain1 /gain2 /gain3 /gain4 /gain5 /gain6 /gain7 /gain8 /gain9 /gain10;
#X obj 4 106 route /pitch1 /pitch2 /pitch3 /pitch4 /pitch5 /pitch6 /pitch7 /pitch8 /pitch9 /pitch10;
#X obj 4 142 pc;
#X obj 41 142 pc;
#X obj 78 142 pc;
#X obj 114 142 pc;
#X obj 151 142 pc;
#X obj 188 142 pc;
#X obj 225 142 pc;
#X obj 261 142 pc;
#X obj 298 142 pc;
#X obj 335 142 pc;
#X obj 211 460 send toGUI;
#X msg 4 372 list /tgl1 \$1;
#X obj 4 350 r l1;
#X obj 108 350 r l2;
#X msg 108 372 list /tgl2 \$1;
#X obj 4 394 r l3;
#X msg 4 416 list /tgl3 \$1;
#X obj 107 394 r l4;
#X msg 107 416 list /tgl4 \$1;
#X obj 4 438 r l5;
#X msg 4 460 list /tgl5 \$1;
#X obj 107 438 r l6;
#X msg 107 460 list /tgl6 \$1;
#X obj 212 372 r l7;
#X msg 212 394 list /tgl7 \$1;
#X obj 315 372 r l8;
#X msg 315 394 list /tgl8 \$1;
#X obj 211 416 r l9;
#X msg 211 438 list /tgl9 \$1;
#X obj 315 416 r l10;
#X msg 315 438 list /tgl10 \$1;
#X obj 4 267 r listgui;
#X obj 4 291 route /hpf /lpf /bph /bpl /tune /gain /speed /sq /mod /vib /pwr;
#X obj 398 351 * 10;
#X obj 180 351 * 135;
#X obj 439 261 r OFF;
#X msg 439 283 list /pwr \$1;
#X obj 439 305 send toGUI;
#X obj 223 351 expr (12 + (1188 * $f1));
#X text 496 251 o varför funkar inte mmp??? orkar ej;
#X obj 4 164 s p1;
#X obj 41 164 s p2;
#X obj 78 164 s p3;
#X obj 114 164 s p4;
#X obj 151 164 s p5;
#X obj 188 164 s p6;
#X obj 225 164 s p7;
#X obj 261 164 s p8;
#X obj 298 164 s p9;
#X obj 335 164 s p10;
#X obj 74 84 s m1;
#X obj 112 84 s m2;
#X obj 149 83 s m3;
#X obj 186 83 s m4;
#X obj 224 83 s m5;
#X obj 261 83 s m6;
#X obj 299 83 s m7;
#X obj 336 83 s m8;
#X obj 374 83 s m9;
#X obj 411 83 s m10;
#X obj 4 244 s g1;
#X obj 42 244 s g2;
#X obj 79 244 s g3;
#X obj 116 244 s g4;
#X obj 154 244 s g5;
#X obj 192 244 s g6;
#X obj 229 244 s g7;
#X obj 267 244 s g8;
#X obj 304 244 s g9;
#X obj 341 244 s g10;
#X obj 4 327 s hpf;
#X obj 46 327 s lpf;
#X obj 88 327 s high;
#X obj 136 327 s low;
#X obj 178 327 s grov;
#X obj 227 327 s gain;
#X obj 275 327 s speed;
#X obj 330 327 s sq;
#X obj 365 327 s mod;
#X obj 407 327 s vib;
#X text 484 187 x;
#X text 523 139 y;
#X text 528 165 ON/OFF;
#X obj 497 232 checky, f 30;
#X obj 74 26 route /mode1 /mode2 /mode3 /mode4 /mode5 /mode6 /mode7 /mode8 /mode9 /mode10;
#X obj 449 351 *~;
#X obj 491 327 r gain;
#X text 115 3 Andromatic 2024-12-25 \, Amanda Andrén;
#X connect 1 0 4 0;
#X connect 2 0 3 0;
#X connect 3 0 1 0;
#X connect 4 0 7 0;
#X connect 4 1 5 0;
#X connect 5 0 4 1;
#X connect 6 0 2 0;
#X connect 8 0 3 0;
#X connect 9 0 130 0;
#X connect 11 0 12 0;
#X connect 12 0 40 0;
#X connect 12 0 129 0;
#X connect 13 0 14 0;
#X connect 14 0 15 0;
#X connect 15 0 16 0;
#X connect 16 0 17 0;
#X connect 16 1 20 0;
#X connect 16 2 29 0;
#X connect 17 0 18 0;
#X connect 17 1 19 0;
#X connect 17 2 22 0;
#X connect 17 3 21 0;
#X connect 17 4 24 0;
#X connect 17 5 23 0;
#X connect 17 6 26 0;
#X connect 17 7 25 0;
#X connect 17 8 28 0;
#X connect 17 9 27 0;
#X connect 18 0 128 0;
#X connect 19 0 128 2;
#X connect 20 0 18 1;
#X connect 20 1 19 1;
#X connect 20 2 22 1;
#X connect 20 3 21 1;
#X connect 20 4 24 1;
#X connect 20 5 23 1;
#X connect 20 6 26 1;
#X connect 20 7 25 1;
#X connect 20 8 28 1;
#X connect 20 9 27 1;
#X connect 21 0 128 6;
#X connect 22 0 128 4;
#X connect 23 0 128 10;
#X connect 24 0 128 8;
#X connect 25 0 128 14;
#X connect 26 0 128 12;
#X connect 27 0 128 18;
#X connect 28 0 128 16;
#X connect 29 0 128 1;
#X connect 29 1 128 3;
#X connect 29 2 128 5;
#X connect 29 3 128 7;
#X connect 29 4 128 9;
#X connect 29 5 128 11;
#X connect 29 6 128 13;
#X connect 29 7 128 15;
#X connect 29 8 128 17;
#X connect 29 9 128 19;
#X connect 30 0 95 0;
#X connect 31 0 96 0;
#X connect 32 0 97 0;
#X connect 33 0 98 0;
#X connect 34 0 99 0;
#X connect 35 0 100 0;
#X connect 36 0 101 0;
#X connect 37 0 102 0;
#X connect 38 0 103 0;
#X connect 39 0 104 0;
#X connect 41 0 44 0;
#X connect 42 0 43 0;
#X connect 43 0 105 0;
#X connect 43 1 106 0;
#X connect 43 2 107 0;
#X connect 43 3 108 0;
#X connect 43 4 109 0;
#X connect 43 5 110 0;
#X connect 43 6 111 0;
#X connect 43 7 112 0;
#X connect 43 8 113 0;
#X connect 43 9 114 0;
#X connect 44 0 45 0;
#X connect 44 1 46 0;
#X connect 44 2 47 0;
#X connect 44 3 48 0;
#X connect 44 4 49 0;
#X connect 44 5 50 0;
#X connect 44 6 51 0;
#X connect 44 7 52 0;
#X connect 44 8 53 0;
#X connect 44 9 54 0;
#X connect 45 0 85 0;
#X connect 46 0 86 0;
#X connect 47 0 87 0;
#X connect 48 0 88 0;
#X connect 49 0 89 0;
#X connect 50 0 90 0;
#X connect 51 0 91 0;
#X connect 52 0 92 0;
#X connect 53 0 93 0;
#X connect 54 0 94 0;
#X connect 56 0 55 0;
#X connect 57 0 56 0;
#X connect 58 0 59 0;
#X connect 59 0 55 0;
#X connect 60 0 61 0;
#X connect 61 0 55 0;
#X connect 62 0 63 0;
#X connect 63 0 55 0;
#X connect 64 0 65 0;
#X connect 65 0 55 0;
#X connect 66 0 67 0;
#X connect 67 0 55 0;
#X connect 68 0 69 0;
#X connect 69 0 55 0;
#X connect 70 0 71 0;
#X connect 71 0 55 0;
#X connect 72 0 73 0;
#X connect 73 0 55 0;
#X connect 74 0 75 0;
#X connect 75 0 55 0;
#X connect 76 0 77 0;
#X connect 77 0 115 0;
#X connect 77 1 116 0;
#X connect 77 2 117 0;
#X connect 77 3 118 0;
#X connect 77 4 119 0;
#X connect 77 5 120 0;
#X connect 77 6 83 0;
#X connect 77 7 122 0;
#X connect 77 8 79 0;
#X connect 77 9 78 0;
#X connect 77 10 0 0;
#X connect 78 0 124 0;
#X connect 79 0 123 0;
#X connect 80 0 81 0;
#X connect 81 0 82 0;
#X connect 83 0 121 0;
#X connect 129 0 30 0;
#X connect 129 1 31 0;
#X connect 129 2 32 0;
#X connect 129 3 33 0;
#X connect 129 4 34 0;
#X connect 129 5 35 0;
#X connect 129 6 36 0;
#X connect 129 7 37 0;
#X connect 129 8 38 0;
#X connect 129 9 39 0;
#X connect 130 0 10 0;
#X connect 130 0 10 1;
#X connect 131 0 130 1;
