#N canvas 76 76 1920 1016 12;
#X obj 56 32 inlet;
#X obj 49 162 spiggate;
#X obj 145 163 spiggate;
#X obj 238 165 spiggate;
#X obj 37 325 outlet;
#X obj 123 328 outlet;
#X obj 203 329 outlet;
#X obj 58 216 break;
#X obj 256 216 count;
#X obj 159 215 shift;
#X obj 295 331 outlet;
#X obj 366 25 inlet;
#X obj 366 49 t f f f;
#X obj 56 79 t f f f;
#X obj 129 31 inlet;
#X obj 129 78 t f f f;
#X obj 201 30 inlet;
#X obj 201 77 t f f f;
#X obj 269 30 inlet;
#X obj 269 77 t f f f;
#X text 468 35 Break 0 \, Count 1 \, Shift 2;
#X obj 339 75 == 0;
#X obj 383 76 == 2;
#X obj 426 76 == 1;
#X obj 120 276 == 1;
#X obj 120 250 t f f;
#X text 60 8 DF;
#X text 130 7 CLK;
#X text 199 7 Reset;
#X text 272 7 DB;
#X text 366 6 Mode;
#X text 47 350 DB;
#X text 127 350 Lamp;
#X text 216 352 DF;
#X text 308 352 CLK;
#X obj 105 411 spigot;
#X obj 169 411 spigot;
#X obj 238 412 spigot;
#X obj 339 99 t f f;
#X obj 383 100 t f f;
#X obj 426 100 t f f;
#X connect 0 0 13 0;
#X connect 1 0 7 0;
#X connect 1 1 7 1;
#X connect 1 2 7 2;
#X connect 1 3 7 3;
#X connect 2 0 9 0;
#X connect 2 1 9 1;
#X connect 2 2 9 2;
#X connect 2 3 9 3;
#X connect 3 0 8 0;
#X connect 3 1 8 1;
#X connect 3 2 8 2;
#X connect 3 3 8 3;
#X connect 7 0 4 0;
#X connect 7 1 35 0;
#X connect 7 2 6 0;
#X connect 7 3 10 0;
#X connect 8 0 4 0;
#X connect 8 1 37 0;
#X connect 8 2 6 0;
#X connect 8 3 10 0;
#X connect 9 1 36 0;
#X connect 9 2 25 0;
#X connect 9 3 10 0;
#X connect 11 0 12 0;
#X connect 12 0 21 0;
#X connect 12 1 22 0;
#X connect 12 2 23 0;
#X connect 13 0 1 0;
#X connect 13 1 2 0;
#X connect 13 2 3 0;
#X connect 14 0 15 0;
#X connect 15 0 1 1;
#X connect 15 1 2 1;
#X connect 15 2 3 1;
#X connect 16 0 17 0;
#X connect 17 0 1 2;
#X connect 17 1 2 2;
#X connect 17 2 3 2;
#X connect 18 0 19 0;
#X connect 19 0 1 3;
#X connect 19 1 2 3;
#X connect 19 2 3 3;
#X connect 21 0 38 0;
#X connect 22 0 39 0;
#X connect 23 0 40 0;
#X connect 24 0 4 0;
#X connect 25 0 24 0;
#X connect 25 1 6 0;
#X connect 35 0 5 0;
#X connect 36 0 5 0;
#X connect 37 0 5 0;
#X connect 38 0 35 1;
#X connect 38 1 1 4;
#X connect 39 0 36 1;
#X connect 39 1 2 4;
#X connect 40 0 37 1;
#X connect 40 1 3 4;
