#N canvas 1884 0 1920 1016 12;
#X obj 581 116 hsl 100 25 200 6400 0 0 hpf empty HPF -2 -10 0 12 #fcfcfc #000000 #000000 0 1;
#X obj 581 218 hsl 100 25 50 6400 0 0 lpf empty LPF -2 -10 0 12 #fcfcfc #000000 #000000 0 1;
#X obj 579 165 hsl 100 25 0 1 0 0 gain empty Gain -2 -10 0 12 #fcfcfc #000000 #000000 0 1;
#X obj 583 267 hsl 100 25 0 1 0 0 sq empty SQ -2 -10 0 12 #fcfcfc #000000 #000000 0 1;
#X obj 705 114 hsl 100 25 0 1 0 0 high empty BPH -2 -10 0 12 #fcfcfc #000000 #000000 0 1;
#X obj 705 164 hsl 100 25 0 1 0 0 low empty BPL -2 -10 0 12 #fcfcfc #000000 #000000 0 1;
#X obj 706 216 hsl 100 25 12 1200 0 0 speed empty Speed -2 -10 0 12 #fcfcfc #000000 #000000 0 1;
#X obj 826 162 hsl 100 25 1 10 0 0 grov empty Tune -2 -10 0 12 #fcfcfc #000000 #000000 0 1;
#X obj 828 216 hsl 100 25 0 10 0 0 vib empty Vibrato\ speed -2 -10 0 12 #fcfcfc #000000 #000000 0 1;
#X obj 825 114 hsl 100 25 0 135 0 0 mod empty Modulation\ speed -2 -10 0 12 #fcfcfc #000000 #000000 0 1;
#X obj 50 41 tgl 15 1 1a - HPF -25 8 1 8 #fcfcfc #000000 #000000 0 1;
#X obj 65 41 tgl 15 1 2a - empty 17 7 0 10 #fcfcfc #000000 #000000 0 1;
#X obj 80 41 tgl 15 1 3a - empty 17 7 0 10 #fcfcfc #000000 #000000 0 1;
#X obj 95 41 tgl 15 1 4a - empty 17 7 0 10 #fcfcfc #000000 #000000 0 1;
#X obj 50 56 tgl 15 1 1b - Direct -25 8 1 8 #fcfcfc #000000 #000000 0 1;
#X obj 65 56 tgl 15 0 2b - empty 17 7 0 10 #fcfcfc #000000 #000000 0 1;
#X obj 80 56 tgl 15 1 3b - empty 17 7 0 10 #fcfcfc #000000 #000000 0 1;
#X obj 95 56 tgl 15 1 4b - empty 17 7 0 10 #fcfcfc #000000 #000000 0 1;
#X obj 50 71 tgl 15 1 1c - LPF -25 8 1 8 #fcfcfc #000000 #000000 0 1;
#X obj 65 71 tgl 15 1 2c - empty 17 7 0 10 #fcfcfc #000000 #000000 0 1;
#X obj 80 71 tgl 15 1 3c - empty 17 7 0 10 #fcfcfc #000000 #000000 0 1;
#X obj 95 71 tgl 15 1 4c - empty 17 7 0 10 #fcfcfc #000000 #000000 0 1;
#X obj 50 86 tgl 15 1 1d - SQ -25 8 1 8 #fcfcfc #000000 #000000 0 1;
#X obj 65 86 tgl 15 1 2d - empty 17 7 0 10 #fcfcfc #000000 #000000 0 1;
#X obj 80 86 tgl 15 1 3d - empty 17 7 0 10 #fcfcfc #000000 #000000 0 1;
#X obj 95 86 tgl 15 1 4d - empty 17 7 0 10 #fcfcfc #000000 #000000 0 1;
#X text 54 24 1;
#X text 70 24 2;
#X text 99 24 4;
#X text 85 24 3;
#X obj 50 101 tgl 15 1 1e - BPF\ 1 -25 8 1 8 #fcfcfc #000000 #000000 0 1;
#X obj 65 101 tgl 15 1 2e - empty 17 7 0 10 #fcfcfc #000000 #000000 0 1;
#X obj 80 101 tgl 15 1 3e - empty 17 7 0 10 #fcfcfc #000000 #000000 0 1;
#X obj 95 101 tgl 15 1 4e - empty 17 7 0 10 #fcfcfc #000000 #000000 0 1;
#X obj 50 116 tgl 15 1 1f - BPF\ 2 -25 8 1 8 #fcfcfc #000000 #000000 0 1;
#X obj 65 116 tgl 15 0 2f - empty 17 7 0 10 #fcfcfc #000000 #000000 0 1;
#X obj 80 116 tgl 15 1 3f - empty 17 7 0 10 #fcfcfc #000000 #000000 0 1;
#X obj 95 116 tgl 15 1 4f - empty 17 7 0 10 #fcfcfc #000000 #000000 0 1;
#X obj 50 131 tgl 15 1 1g - BPF\ 3 -25 8 1 8 #fcfcfc #000000 #000000 0 1;
#X obj 65 131 tgl 15 1 2g - empty 17 7 0 10 #fcfcfc #000000 #000000 0 1;
#X obj 80 131 tgl 15 1 3g - empty 17 7 0 10 #fcfcfc #000000 #000000 0 1;
#X obj 95 131 tgl 15 1 4g - empty 17 7 0 10 #fcfcfc #000000 #000000 0 1;
#X obj 50 146 tgl 15 1 1h - BPF\ 4 -25 8 1 8 #fcfcfc #000000 #000000 0 1;
#X obj 65 146 tgl 15 1 2h - empty 17 7 0 10 #fcfcfc #000000 #000000 0 1;
#X obj 80 146 tgl 15 1 3h - empty 17 7 0 10 #fcfcfc #000000 #000000 0 1;
#X obj 95 146 tgl 15 1 4h - empty 17 7 0 10 #fcfcfc #000000 #000000 0 1;
#X obj 110 41 tgl 15 1 5a - empty -25 8 0 8 #fcfcfc #000000 #fc2828 0 1;
#X obj 125 41 tgl 15 1 6a - 6 0 -10 0 10 #fcfcfc #000000 #000000 0 1;
#X obj 140 41 tgl 15 1 7a - 7 5 -10 0 10 #fcfcfc #000000 #000000 0 1;
#X obj 155 41 tgl 15 1 8a - empty 17 7 0 10 #fcfcfc #000000 #000000 0 1;
#X obj 110 56 tgl 15 1 5b - empty -25 8 0 8 #fcfcfc #000000 #fc2828 0 1;
#X obj 125 56 tgl 15 0 6b - empty 17 7 0 10 #fcfcfc #000000 #000000 0 1;
#X obj 140 56 tgl 15 1 7b - empty 17 7 0 10 #fcfcfc #000000 #000000 0 1;
#X obj 155 56 tgl 15 1 8b - empty 17 7 0 10 #fcfcfc #000000 #000000 0 1;
#X obj 110 71 tgl 15 1 5c - empty -25 8 0 8 #fcfcfc #000000 #fc2828 0 1;
#X obj 125 71 tgl 15 1 6c - empty 17 7 0 10 #fcfcfc #000000 #000000 0 1;
#X obj 140 71 tgl 15 1 7c - empty 17 7 0 10 #fcfcfc #000000 #000000 0 1;
#X obj 155 71 tgl 15 1 8c - empty 17 7 0 10 #fcfcfc #000000 #000000 0 1;
#X obj 110 86 tgl 15 1 5d - empty -25 8 0 8 #fcfcfc #000000 #fc2828 0 1;
#X obj 125 86 tgl 15 1 6d - empty 17 7 0 10 #fcfcfc #000000 #000000 0 1;
#X obj 140 86 tgl 15 1 7d - empty 17 7 0 10 #fcfcfc #000000 #000000 0 1;
#X obj 155 86 tgl 15 1 8d - empty 17 7 0 10 #fcfcfc #000000 #000000 0 1;
#X obj 110 101 tgl 15 1 5e - empty -25 8 0 8 #fcfcfc #000000 #fc2828 0 1;
#X obj 125 101 tgl 15 1 6e - empty 17 7 0 10 #fcfcfc #000000 #000000 0 1;
#X obj 140 101 tgl 15 1 7e - empty 17 7 0 10 #fcfcfc #000000 #000000 0 1;
#X obj 155 101 tgl 15 1 8e - empty 17 7 0 10 #fcfcfc #000000 #000000 0 1;
#X obj 110 116 tgl 15 1 5f - empty -25 8 0 8 #fcfcfc #000000 #fc2828 0 1;
#X obj 125 116 tgl 15 0 6f - empty 17 7 0 10 #fcfcfc #000000 #000000 0 1;
#X obj 140 116 tgl 15 1 7f - empty 17 7 0 10 #fcfcfc #000000 #000000 0 1;
#X obj 155 116 tgl 15 1 8f - empty 17 7 0 10 #fcfcfc #000000 #000000 0 1;
#X obj 110 131 tgl 15 1 5g - empty -25 8 0 8 #fcfcfc #000000 #fc2828 0 1;
#X obj 125 131 tgl 15 1 6g - empty 17 7 0 10 #fcfcfc #000000 #000000 0 1;
#X obj 140 131 tgl 15 1 7g - empty 17 7 0 10 #fcfcfc #000000 #000000 0 1;
#X obj 155 131 tgl 15 1 8g - empty 17 7 0 10 #fcfcfc #000000 #000000 0 1;
#X obj 110 146 tgl 15 1 5h - empty -25 8 0 8 #fcfcfc #000000 #fc2828 0 1;
#X obj 125 146 tgl 15 1 6h - empty 17 7 0 10 #fcfcfc #000000 #000000 0 1;
#X obj 140 146 tgl 15 1 7h - empty 17 7 0 10 #fcfcfc #000000 #000000 0 1;
#X obj 155 146 tgl 15 1 8h - empty 17 7 0 10 #fcfcfc #000000 #000000 0 1;
#X obj 170 41 tgl 15 1 9a - empty 17 7 0 10 #fcfcfc #000000 #000000 0 1;
#X obj 185 41 tgl 15 1 10a - empty 17 7 0 10 #fcfcfc #000000 #000000 0 1;
#X obj 170 56 tgl 15 1 9b - empty 17 7 0 10 #fcfcfc #000000 #000000 0 1;
#X obj 185 56 tgl 15 1 10b - empty 17 7 0 10 #fcfcfc #000000 #000000 0 1;
#X obj 170 71 tgl 15 1 9c - empty 17 7 0 10 #fcfcfc #000000 #000000 0 1;
#X obj 185 71 tgl 15 1 10c - empty 17 7 0 10 #fcfcfc #000000 #000000 0 1;
#X obj 170 86 tgl 15 1 9d - empty 17 7 0 10 #fcfcfc #000000 #000000 0 1;
#X obj 185 86 tgl 15 1 10d - empty 17 7 0 10 #fcfcfc #000000 #000000 0 1;
#X obj 170 101 tgl 15 1 9e - empty 17 7 0 10 #fcfcfc #000000 #000000 0 1;
#X obj 185 101 tgl 15 1 10e - empty 17 7 0 10 #fcfcfc #000000 #000000 0 1;
#X obj 170 116 tgl 15 1 9f - empty 17 7 0 10 #fcfcfc #000000 #000000 0 1;
#X obj 185 116 tgl 15 1 10f - empty 17 7 0 10 #fcfcfc #000000 #000000 0 1;
#X obj 170 131 tgl 15 1 9g - empty 17 7 0 10 #fcfcfc #000000 #000000 0 1;
#X obj 185 131 tgl 15 1 10g - empty 17 7 0 10 #fcfcfc #000000 #000000 0 1;
#X obj 170 146 tgl 15 1 9h - empty 17 7 0 10 #fcfcfc #000000 #000000 0 1;
#X obj 185 146 tgl 15 1 10h - empty 17 7 0 10 #fcfcfc #000000 #000000 0 1;
#X text 114 24 5;
#X text 130 24 6;
#X text 145 24 7;
#X text 159 24 8;
#X text 175 24 9;
#X text 184 24 10;
#X msg 223 30 \; - 1;
#X msg 223 65 \; - 0;
#X obj 473 438 r hpf;
#X floatatom 473 462 5 0 0 0 - - - 0;
#X obj 516 438 r high;
#X floatatom 516 462 5 0 0 0 - - - 0;
#X obj 566 437 r mod;
#X floatatom 566 461 5 0 0 0 - - - 0;
#X obj 609 437 r gain;
#X floatatom 609 461 5 0 0 0 - - - 0;
#X obj 659 437 r low;
#X floatatom 659 461 5 0 0 0 - - - 0;
#X obj 801 435 r speed;
#X floatatom 801 459 5 0 0 0 - - - 0;
#X floatatom 859 460 5 0 0 0 - - - 0;
#X obj 905 436 r sq;
#X floatatom 905 460 5 0 0 0 - - - 0;
#X obj 705 436 r grov;
#X floatatom 705 460 5 0 0 0 - - - 0;
#X obj 757 435 r lpf;
#X floatatom 757 459 5 0 0 0 - - - 0;
#X obj 795 322 r gain;
#X obj 846 323 r speed;
#X obj 50 161 tgl 15 1 1i - Mod -25 8 1 8 #fcfcfc #000000 #000000 0 1;
#X obj 65 161 tgl 15 1 2i - empty 17 7 0 10 #fcfcfc #000000 #000000 0 1;
#X obj 80 161 tgl 15 1 3i - empty 17 7 0 10 #fcfcfc #000000 #000000 0 1;
#X obj 95 161 tgl 15 1 4i - empty 17 7 0 10 #fcfcfc #000000 #000000 0 1;
#X obj 50 176 tgl 15 1 1j - Vib -25 8 1 8 #fcfcfc #000000 #000000 0 1;
#X obj 65 176 tgl 15 1 2j - empty 17 7 0 10 #fcfcfc #000000 #000000 0 1;
#X obj 80 176 tgl 15 1 3j - empty 17 7 0 10 #fcfcfc #000000 #000000 0 1;
#X obj 95 176 tgl 15 1 4j - empty 17 7 0 10 #fcfcfc #000000 #000000 0 1;
#X obj 110 161 tgl 15 1 5i - empty -25 8 0 8 #fcfcfc #000000 #fc2828 0 1;
#X obj 125 161 tgl 15 1 6i - empty 17 7 0 10 #fcfcfc #000000 #000000 0 1;
#X obj 140 161 tgl 15 1 7i - empty 17 7 0 10 #fcfcfc #000000 #000000 0 1;
#X obj 155 161 tgl 15 1 8i - empty 17 7 0 10 #fcfcfc #000000 #000000 0 1;
#X obj 110 176 tgl 15 1 5j - empty -25 8 0 8 #fcfcfc #000000 #fc2828 0 1;
#X obj 125 176 tgl 15 1 6j - empty 17 7 0 10 #fcfcfc #000000 #000000 0 1;
#X obj 140 176 tgl 15 1 7j - empty 17 7 0 10 #fcfcfc #000000 #000000 0 1;
#X obj 155 176 tgl 15 1 8j - empty 17 7 0 10 #fcfcfc #000000 #000000 0 1;
#X obj 170 161 tgl 15 1 9i - empty 17 7 0 10 #fcfcfc #000000 #000000 0 1;
#X obj 185 161 tgl 15 1 10i - empty 17 7 0 10 #fcfcfc #000000 #000000 0 1;
#X obj 170 176 tgl 15 1 9j - empty 17 7 0 10 #fcfcfc #000000 #000000 0 1;
#X obj 185 176 tgl 15 1 10j - empty 17 7 0 10 #fcfcfc #000000 #000000 0 1;
#X obj 859 436 r vib;
#N canvas 0 50 450 250 (subpatch) 0;
#X array matrix\$0 100 float 1;
#A 0 0 0 0 0 0 0 0 0 0 0 0 0 0 0 0 0 0 0 0 0 0 0 0 0 0 0 0 0 0 0 0 0 0 0 0 0 0 0 0 0 0 0 0 0 0 0 0 0 0 0 0 0 0 0 0 0 0 0 0 0 0 0 0 0 0 0 0 0 0 0 0 0 0 0 0 0 0 0 0 0 0 0 0 0 0 0 0 0 0 0 0 0 0 0 0 0 0 0 0 0;
#X coords 0 1 99 -1 200 140 1;
#X restore 294 30 graph;
#X obj 643 19 steps;
#X obj 526 14 tgl 19 0 empty empty empty 0 -10 0 12 #fcfcfc #000000 #000000 0 1;
#X obj 526 38 metro 100;
#X obj 526 62 tabwrite~ matrix\$0;
#X obj 269 241 freqscope;
#X connect 102 0 103 0;
#X connect 104 0 105 0;
#X connect 106 0 107 0;
#X connect 108 0 109 0;
#X connect 110 0 111 0;
#X connect 112 0 113 0;
#X connect 115 0 116 0;
#X connect 117 0 118 0;
#X connect 119 0 120 0;
#X connect 143 0 114 0;
#X connect 145 0 148 0;
#X connect 145 0 149 0;
#X connect 146 0 147 0;
#X connect 147 0 148 0;
#X coords 0 1016 1 1015 85 60 0;
