#N canvas 402 122 1920 1016 12;
#X obj 150 32 break;
#X text 27 29 BSCC;
#X obj 201 32 shift;
#X obj 253 33 count;
#X obj 586 242 JKFF, f 12;
#X msg 540 209 1;
#X msg 638 209 1;
#X obj 568 271 f;
#X obj 580 197 t b f;
#X obj 568 295 t f f;
#X obj 600 321 != 1;
#X obj 736 237 JKFF, f 12;
#X msg 690 204 1;
#X msg 788 204 1;
#X obj 718 266 f;
#X obj 730 192 t b f;
#X obj 718 290 t f f;
#X obj 750 316 != 1;
#X obj 642 119 bng 19 250 50 0 empty empty empty 0 -10 0 12 #fcfcfc #000000 #000000;
#X obj 718 383 tgl 24 0 empty empty empty 0 -10 0 12 #00faff #000000 #000000 0 1;
#X obj 568 383 tgl 24 0 empty empty empty 0 -10 0 12 #00faff #000000 #000000 0 1;
#X obj 438 243 JKFF, f 9;
#X obj 480 324 != 1;
#X obj 480 274 f;
#X obj 503 380 tgl 24 0 empty empty empty 0 -10 0 12 #00faff #000000 #000000 0 1;
#X obj 324 242 JKFF, f 9;
#X obj 366 323 != 1;
#X obj 366 273 f;
#X obj 366 299 t f f f;
#X msg 401 201 0;
#X msg 502 198 1;
#X obj 378 378 tgl 24 0 empty empty empty 0 -10 0 12 #00faff #000000 #000000 0 1;
#X obj 156 116 tgl 19 0 empty empty empty 0 -10 0 12 #fcfcfc #000000 #000000 0 1;
#X obj 156 140 metro 1500;
#X obj 480 300 t f f f f;
#X obj 156 164 tgl 19 0 empty empty empty 0 -10 0 12 #fcfcfc #000000 #000000 0 1;
#X obj 174 231 sel 1;
#X obj 156 188 t f f f;
#X connect 4 0 7 1;
#X connect 5 0 4 0;
#X connect 6 0 4 2;
#X connect 7 0 9 0;
#X connect 8 0 7 0;
#X connect 8 1 4 1;
#X connect 9 0 20 0;
#X connect 9 1 10 0;
#X connect 10 0 15 0;
#X connect 11 0 14 1;
#X connect 12 0 11 0;
#X connect 13 0 11 2;
#X connect 14 0 16 0;
#X connect 15 0 14 0;
#X connect 15 1 11 1;
#X connect 16 0 19 0;
#X connect 16 1 17 0;
#X connect 18 0 5 0;
#X connect 18 0 6 0;
#X connect 18 0 12 0;
#X connect 18 0 13 0;
#X connect 18 0 30 0;
#X connect 18 0 29 0;
#X connect 21 1 23 1;
#X connect 22 0 25 0;
#X connect 23 0 34 0;
#X connect 25 1 27 1;
#X connect 26 0 21 0;
#X connect 27 0 28 0;
#X connect 28 0 26 0;
#X connect 28 1 31 0;
#X connect 28 2 21 2;
#X connect 29 0 25 3;
#X connect 30 0 21 3;
#X connect 32 0 33 0;
#X connect 33 0 35 0;
#X connect 34 0 22 0;
#X connect 34 1 24 0;
#X connect 34 2 8 0;
#X connect 34 3 25 2;
#X connect 35 0 37 0;
#X connect 36 0 27 0;
#X connect 36 0 23 0;
#X connect 37 0 36 0;
#X connect 37 1 21 1;
#X connect 37 2 25 1;
