#N canvas 14 0 1920 1004 12;
#X obj 142 257 JKFF, f 12;
#X obj 61 413 outlet !Q;
#X obj 207 415 outlet Q;
#X obj 57 145 inlet K;
#X msg 57 169 1;
#X obj 139 145 inlet CLK;
#X obj 228 145 inlet J;
#X msg 228 169 1;
#X obj 297 144 inlet reset;
#X obj 391 144 inlet trig;
#X text 18 17 I count ska vi alltid ställa första J=K=1 \, ska vi trigga det vaje gång eller enbart "första gången" \, använda loadbang då? Här triggar vi bara nästa steg på hög puls \, kommer detta ge oss ett läge där saker är ur sync? Ska vi byta plats på Q och !Q? Vad funkar bäst? Q ska till nästa CLK och !Q ska ses som egentliga DF.;
#X obj 124 286 f;
#X obj 139 169 t b f;
#X obj 124 310 t f f;
#X obj 119 343 != 1;
#X text 481 144 Nu använder vi inte denna för att trigga något.;
#X obj 292 416 outlet CLK;
#X text 397 403 Nu har jag gjort så att Q ger DF och en separat clk ger klockpulsen (som egentligen är Q \, och out Q är egentligen !Q), f 59;
#X connect 0 0 11 1;
#X connect 3 0 4 0;
#X connect 4 0 0 0;
#X connect 5 0 12 0;
#X connect 6 0 7 0;
#X connect 7 0 0 2;
#X connect 8 0 0 3;
#X connect 11 0 13 0;
#X connect 12 0 11 0;
#X connect 12 1 0 1;
#X connect 13 0 14 0;
#X connect 13 1 2 0;
#X connect 14 0 16 0;
