#N canvas 190 190 1920 1016 12;
#X obj 254 77 tgl 19 0 empty empty empty 0 -10 0 12 #fcfcfc #000000 #000000 0 1;
#X obj 254 101 metro 500;
#X obj 254 125 tgl 19 0 empty empty empty 0 -10 0 12 #fcfcfc #000000 #000000 0 1;
#X msg 144 135 1;
#X obj 220 163 JKFF, f 15;
#X obj 288 205 JKFF, f 15;
#X obj 361 268 JKFF, f 15;
#X obj 521 192 tgl 19 0 empty empty empty 0 -10 0 12 #fcfcfc #000000 #000000 0 1;
#X obj 554 192 tgl 19 0 empty empty empty 0 -10 0 12 #fcfcfc #000000 #000000 0 1;
#X obj 589 192 tgl 19 0 empty empty empty 0 -10 0 12 #fcfcfc #000000 #000000 0 1;
#X obj 259 371 tgl 19 0 empty empty empty 0 -10 0 12 #fcfcfc #000000 #000000 0 1;
#X obj 292 371 tgl 19 0 empty empty empty 0 -10 0 12 #fcfcfc #000000 #000000 0 1;
#X obj 327 371 tgl 19 0 empty empty empty 0 -10 0 12 #fcfcfc #000000 #000000 0 1;
#X obj 668 198 JKFF, f 15;
#X obj 736 240 JKFF, f 15;
#X obj 809 303 JKFF, f 15;
#X obj 707 406 tgl 19 0 empty empty empty 0 -10 0 12 #fcfcfc #000000 #000000 0 1;
#X obj 740 406 tgl 19 0 empty empty empty 0 -10 0 12 #fcfcfc #000000 #000000 0 1;
#X obj 775 406 tgl 19 0 empty empty empty 0 -10 0 12 #fcfcfc #000000 #000000 0 1;
#X msg 738 73 1;
#X connect 0 0 1 0;
#X connect 1 0 2 0;
#X connect 2 0 4 1;
#X connect 2 0 13 1;
#X connect 3 0 4 0;
#X connect 3 0 4 2;
#X connect 3 0 5 0;
#X connect 3 0 5 2;
#X connect 3 0 6 0;
#X connect 3 0 6 2;
#X connect 4 0 10 0;
#X connect 4 1 5 1;
#X connect 4 1 7 0;
#X connect 5 0 11 0;
#X connect 5 1 6 1;
#X connect 5 1 8 0;
#X connect 6 0 12 0;
#X connect 6 1 9 0;
#X connect 13 0 16 0;
#X connect 13 0 14 0;
#X connect 14 0 17 0;
#X connect 14 0 15 0;
#X connect 15 0 18 0;
#X connect 19 0 13 0;
#X connect 19 0 13 2;
#X connect 19 0 14 0;
#X connect 19 0 14 2;
#X connect 19 0 15 0;
#X connect 19 0 15 2;
