#N canvas 1913 1009 1920 1016 12;
#X obj 39 103 metro 1500;
#X obj 39 127 tgl 19 0 empty empty empty 0 -10 0 12 #fcfcfc #000000 #000000 0 1;
#X obj 46 207 JKFF 0;
#X obj 127 206 JKFF 1;
#X obj 205 205 JKFF 2;
#X obj 279 206 JKFF 3;
#X msg 213 80 0;
#X msg 254 80 1;
#X obj 123 346 tgl 25 0 empty empty empty 0 -10 0 12 #c6feff #000000 #000000 0 1;
#X obj 161 346 tgl 25 0 empty empty empty 0 -10 0 12 #c6feff #000000 #000000 0 1;
#X obj 198 346 tgl 25 0 empty empty empty 0 -10 0 12 #c6feff #000000 #000000 0 1;
#X obj 234 347 tgl 25 0 empty empty empty 0 -10 0 12 #c6feff #000000 #000000 0 1;
#X obj 119 423 tgl 25 0 empty empty empty 0 -10 0 12 #feffc6 #000000 #000000 0 1;
#X obj 167 423 tgl 25 0 empty empty empty 0 -10 0 12 #feffc6 #000000 #000000 0 1;
#X obj 204 422 tgl 25 0 empty empty empty 0 -10 0 12 #feffc6 #000000 #000000 0 1;
#X obj 241 422 tgl 25 0 empty empty empty 0 -10 0 12 #feffc6 #000000 #000000 0 1;
#X obj 67 239 f;
#X obj 11 166 sel 1;
#X obj 67 262 t f f;
#X obj 67 286 != 1;
#X obj 149 235 f;
#X obj 149 258 t f f;
#X obj 149 282 != 1;
#X obj 227 233 f;
#X obj 227 256 t f f;
#X obj 227 280 != 1;
#X obj 39 54 tgl 19 0 empty empty empty 0 -10 0 12 #fcfcfc #000000 #000000 0 1;
#X obj 299 238 f;
#X obj 299 261 t f f;
#X obj 299 285 != 1;
#X obj 348 207 JKFF 3;
#X obj 368 239 f;
#X obj 368 262 t f f;
#X obj 368 286 != 1;
#X obj 284 346 tgl 25 0 empty empty empty 0 -10 0 12 #c6feff #000000 #000000 0 1;
#X obj 291 421 tgl 25 0 empty empty empty 0 -10 0 12 #feffc6 #000000 #000000 0 1;
#X msg 108 66 500;
#X msg 75 53 750;
#X floatatom 59 371 5 0 0 0 - - - 0;
#X floatatom 8 369 5 0 0 0 - - - 0;
#X floatatom 6 408 5 0 0 0 - - - 0;
#X floatatom 59 408 5 0 0 0 - - - 0;
#X floatatom 405 342 5 0 0 0 - - - 0;
#X floatatom 354 340 5 0 0 0 - - - 0;
#X floatatom 352 379 5 0 0 0 - - - 0;
#X floatatom 405 379 5 0 0 0 - - - 0;
#X obj 493 374 tgl 25 0 empty empty empty 0 -10 0 12 #c6feff #000000 #000000 0 1;
#X obj 531 374 tgl 25 0 empty empty empty 0 -10 0 12 #c6feff #000000 #000000 0 1;
#X obj 568 374 tgl 25 0 empty empty empty 0 -10 0 12 #c6feff #000000 #000000 0 1;
#X obj 489 451 tgl 25 0 empty empty empty 0 -10 0 12 #feffc6 #000000 #000000 0 1;
#X obj 537 451 tgl 25 0 empty empty empty 0 -10 0 12 #feffc6 #000000 #000000 0 1;
#X obj 574 450 tgl 25 0 empty empty empty 0 -10 0 12 #feffc6 #000000 #000000 0 1;
#X obj 466 141 f;
#X obj 466 164 t f f;
#X obj 466 188 != 1;
#X obj 548 137 f;
#X obj 548 160 t f f;
#X obj 548 184 != 1;
#X obj 626 135 f;
#X obj 626 158 t f f;
#X obj 626 182 != 1;
#X obj 445 109 JKFF 4;
#X obj 526 108 JKFF 5;
#X obj 604 107 JKFF 6;
#X msg 516 20 0;
#X obj 392 57 sel 1;
#X msg 611 18 1;
#X floatatom 462 260 5 0 0 0 - - - 0;
#X floatatom 415 258 5 0 0 0 - - - 0;
#X floatatom 462 298 5 0 0 0 - - - 0;
#X floatatom 415 296 5 0 0 0 - - - 0;
#X floatatom 584 274 5 0 0 0 - - - 0;
#X floatatom 537 272 5 0 0 0 - - - 0;
#X floatatom 584 312 5 0 0 0 - - - 0;
#X floatatom 537 310 5 0 0 0 - - - 0;
#X obj 786 343 tgl 25 0 empty empty empty 0 -10 0 12 #c6feff #000000 #000000 0 1;
#X obj 824 343 tgl 25 0 empty empty empty 0 -10 0 12 #c6feff #000000 #000000 0 1;
#X obj 861 343 tgl 25 0 empty empty empty 0 -10 0 12 #c6feff #000000 #000000 0 1;
#X obj 782 420 tgl 25 0 empty empty empty 0 -10 0 12 #feffc6 #000000 #000000 0 1;
#X obj 830 420 tgl 25 0 empty empty empty 0 -10 0 12 #feffc6 #000000 #000000 0 1;
#X obj 867 419 tgl 25 0 empty empty empty 0 -10 0 12 #feffc6 #000000 #000000 0 1;
#X obj 730 236 f;
#X obj 730 259 t f f;
#X obj 730 283 != 1;
#X obj 812 232 f;
#X obj 812 255 t f f;
#X obj 812 279 != 1;
#X obj 890 230 f;
#X obj 890 253 t f f;
#X obj 890 277 != 1;
#X obj 709 204 JKFF 4;
#X obj 790 203 JKFF 5;
#X obj 868 202 JKFF 6;
#X msg 780 115 0;
#X obj 667 106 sel 1;
#X msg 875 113 1;
#X floatatom 718 428 5 0 0 0 - - - 0;
#X floatatom 671 426 5 0 0 0 - - - 0;
#X floatatom 718 466 5 0 0 0 - - - 0;
#X floatatom 671 464 5 0 0 0 - - - 0;
#X floatatom 984 361 5 0 0 0 - - - 0;
#X floatatom 916 353 5 0 0 0 - - - 0;
#X floatatom 984 399 5 0 0 0 - - - 0;
#X floatatom 916 391 5 0 0 0 - - - 0;
#X msg 150 64 100;
#X connect 0 0 1 0;
#X connect 1 0 2 1;
#X connect 1 0 3 1;
#X connect 1 0 4 1;
#X connect 1 0 5 1;
#X connect 1 0 17 0;
#X connect 1 0 30 1;
#X connect 2 0 39 0;
#X connect 2 1 16 1;
#X connect 2 1 38 0;
#X connect 3 1 20 1;
#X connect 4 1 23 1;
#X connect 5 1 27 1;
#X connect 6 0 2 3;
#X connect 6 0 4 3;
#X connect 7 0 5 3;
#X connect 7 0 3 3;
#X connect 7 0 30 3;
#X connect 16 0 18 0;
#X connect 17 0 16 0;
#X connect 17 0 20 0;
#X connect 17 0 23 0;
#X connect 17 0 27 0;
#X connect 17 0 31 0;
#X connect 18 0 19 0;
#X connect 18 1 3 2;
#X connect 18 1 8 0;
#X connect 18 1 41 0;
#X connect 19 0 3 0;
#X connect 19 0 12 0;
#X connect 19 0 40 0;
#X connect 20 0 21 0;
#X connect 21 0 22 0;
#X connect 21 1 4 2;
#X connect 21 1 9 0;
#X connect 22 0 4 0;
#X connect 22 0 13 0;
#X connect 23 0 24 0;
#X connect 24 0 25 0;
#X connect 24 1 10 0;
#X connect 24 1 5 2;
#X connect 25 0 14 0;
#X connect 25 0 5 0;
#X connect 26 0 0 0;
#X connect 27 0 28 0;
#X connect 28 0 29 0;
#X connect 28 1 11 0;
#X connect 28 1 30 2;
#X connect 29 0 15 0;
#X connect 29 0 30 0;
#X connect 30 0 43 0;
#X connect 30 1 31 1;
#X connect 30 1 42 0;
#X connect 31 0 32 0;
#X connect 32 0 33 0;
#X connect 32 1 34 0;
#X connect 32 1 2 2;
#X connect 32 1 45 0;
#X connect 32 1 61 1;
#X connect 32 1 65 0;
#X connect 32 1 62 1;
#X connect 32 1 63 1;
#X connect 33 0 35 0;
#X connect 33 0 2 0;
#X connect 33 0 44 0;
#X connect 36 0 0 1;
#X connect 37 0 0 1;
#X connect 52 0 53 0;
#X connect 53 0 54 0;
#X connect 53 1 46 0;
#X connect 53 1 62 2;
#X connect 53 1 69 0;
#X connect 54 0 49 0;
#X connect 54 0 62 0;
#X connect 54 0 70 0;
#X connect 55 0 56 0;
#X connect 56 0 57 0;
#X connect 56 1 47 0;
#X connect 56 1 63 2;
#X connect 57 0 50 0;
#X connect 57 0 63 0;
#X connect 58 0 59 0;
#X connect 59 0 60 0;
#X connect 59 1 48 0;
#X connect 59 1 61 2;
#X connect 59 1 73 0;
#X connect 59 1 94 0;
#X connect 59 1 90 1;
#X connect 59 1 91 1;
#X connect 59 1 92 1;
#X connect 60 0 51 0;
#X connect 60 0 61 0;
#X connect 60 0 74 0;
#X connect 61 0 68 0;
#X connect 61 1 52 1;
#X connect 61 1 67 0;
#X connect 62 1 55 1;
#X connect 63 0 72 0;
#X connect 63 1 58 1;
#X connect 63 1 71 0;
#X connect 64 0 61 3;
#X connect 65 0 52 0;
#X connect 65 0 55 0;
#X connect 65 0 58 0;
#X connect 66 0 62 3;
#X connect 66 0 63 3;
#X connect 81 0 82 0;
#X connect 82 0 83 0;
#X connect 82 1 75 0;
#X connect 82 1 91 2;
#X connect 82 1 98 0;
#X connect 83 0 78 0;
#X connect 83 0 91 0;
#X connect 83 0 99 0;
#X connect 84 0 85 0;
#X connect 85 0 86 0;
#X connect 85 1 76 0;
#X connect 85 1 92 2;
#X connect 86 0 79 0;
#X connect 86 0 92 0;
#X connect 87 0 88 0;
#X connect 88 0 89 0;
#X connect 88 1 77 0;
#X connect 88 1 90 2;
#X connect 88 1 102 0;
#X connect 89 0 80 0;
#X connect 89 0 90 0;
#X connect 89 0 103 0;
#X connect 90 0 97 0;
#X connect 90 1 81 1;
#X connect 90 1 96 0;
#X connect 91 1 84 1;
#X connect 92 0 101 0;
#X connect 92 1 87 1;
#X connect 92 1 100 0;
#X connect 93 0 90 3;
#X connect 94 0 81 0;
#X connect 94 0 84 0;
#X connect 94 0 87 0;
#X connect 95 0 91 3;
#X connect 95 0 92 3;
#X connect 104 0 0 1;
