#N canvas 249 96 1792 1016 12;
#X obj 130 210 tgl 19 0 empty empty empty 0 -10 0 12 #fcfcfc #000000 #000000 0 1;
#X obj 129 178 f;
#X obj 38 28 inlet db;
#X obj 25 414 outlet db;
#X obj 121 28 inlet df;
#X obj 109 414 outlet df;
#X obj 232 100 tgl 15 0 empty empty empty 17 7 0 10 #fcfcfc #000000 #000000 0 1;
#X obj 218 61 bang;
#X obj 200 28 inlet sm;
#X obj 195 414 outlet sm;
#X obj 223 126 sel 1;
#X obj 130 234 != 1;
#X connect 0 0 11 0;
#X connect 1 0 0 0;
#X connect 2 0 3 0;
#X connect 4 0 1 1;
#X connect 6 0 10 0;
#X connect 7 0 6 0;
#X connect 8 0 7 0;
#X connect 8 0 9 0;
#X connect 10 0 1 0;
#X connect 11 0 5 0;
