#N canvas 228 228 1920 1016 12;
#X obj 290 21 break;
#X obj 443 16 shift;
#X obj 587 6 count;
#X obj 280 56 tgl 19 0 empty empty empty 0 -10 0 12 #fcfcfc #000000 #000000 0 1;
#X obj 306 56 tgl 19 0 empty empty empty 0 -10 0 12 #fcfcfc #000000 #000000 0 1;
#X obj 334 58 tgl 19 0 empty empty empty 0 -10 0 12 #fcfcfc #000000 #000000 0 1;
#X obj 421 58 tgl 19 0 empty empty empty 0 -10 0 12 #fcfcfc #000000 #000000 0 1;
#X obj 447 58 tgl 19 0 empty empty empty 0 -10 0 12 #fcfcfc #000000 #000000 0 1;
#X obj 475 59 tgl 19 0 empty empty empty 0 -10 0 12 #fcfcfc #000000 #000000 0 1;
#X obj 570 56 tgl 19 0 empty empty empty 0 -10 0 12 #fcfcfc #000000 #000000 0 1;
#X obj 596 56 tgl 19 0 empty empty empty 0 -10 0 12 #fcfcfc #000000 #000000 0 1;
#X obj 624 57 tgl 19 0 empty empty empty 0 -10 0 12 #fcfcfc #000000 #000000 0 1;
#X obj 104 55 metro 500;
#X floatatom 178 24 5 0 0 0 - - - 0;
#X obj 94 23 tgl 19 0 empty empty empty 0 -10 0 12 #fcfcfc #000000 #000000 0 1;
#X text 749 60 1 db 2df 3 shift;
#X obj 29 388 tgl 19 0 empty empty empty 0 -10 0 12 #fcfcfc #000000 #000000 0 1;
#X obj 55 388 tgl 19 0 empty empty empty 0 -10 0 12 #fcfcfc #000000 #000000 0 1;
#X obj 83 389 tgl 19 0 empty empty empty 0 -10 0 12 #fcfcfc #000000 #000000 0 1;
#X obj 137 334 count;
#X obj 120 384 tgl 19 0 empty empty empty 0 -10 0 12 #fcfcfc #000000 #000000 0 1;
#X obj 146 384 tgl 19 0 empty empty empty 0 -10 0 12 #fcfcfc #000000 #000000 0 1;
#X obj 174 385 tgl 19 0 empty empty empty 0 -10 0 12 #fcfcfc #000000 #000000 0 1;
#X obj 226 335 count;
#X obj 209 385 tgl 19 0 empty empty empty 0 -10 0 12 #fcfcfc #000000 #000000 0 1;
#X obj 235 385 tgl 19 0 empty empty empty 0 -10 0 12 #fcfcfc #000000 #000000 0 1;
#X obj 263 386 tgl 19 0 empty empty empty 0 -10 0 12 #fcfcfc #000000 #000000 0 1;
#X obj 104 79 tgl 19 0 empty empty empty 0 -10 0 12 #fcfcfc #000000 #000000 0 1;
#X obj 309 337 break;
#X obj 299 372 tgl 19 0 empty empty empty 0 -10 0 12 #fcfcfc #000000 #000000 0 1;
#X obj 325 372 tgl 19 0 empty empty empty 0 -10 0 12 #fcfcfc #000000 #000000 0 1;
#X obj 353 374 tgl 19 0 empty empty empty 0 -10 0 12 #fcfcfc #000000 #000000 0 1;
#X obj 424 343 shift;
#X obj 402 385 tgl 19 0 empty empty empty 0 -10 0 12 #fcfcfc #000000 #000000 0 1;
#X obj 428 385 tgl 19 0 empty empty empty 0 -10 0 12 #fcfcfc #000000 #000000 0 1;
#X obj 456 386 tgl 19 0 empty empty empty 0 -10 0 12 #fcfcfc #000000 #000000 0 1;
#X obj 526 341 shift;
#X obj 504 383 tgl 19 0 empty empty empty 0 -10 0 12 #fcfcfc #000000 #000000 0 1;
#X obj 530 383 tgl 19 0 empty empty empty 0 -10 0 12 #fcfcfc #000000 #000000 0 1;
#X obj 558 384 tgl 19 0 empty empty empty 0 -10 0 12 #fcfcfc #000000 #000000 0 1;
#X obj 617 343 shift;
#X obj 595 385 tgl 19 0 empty empty empty 0 -10 0 12 #fcfcfc #000000 #000000 0 1;
#X obj 621 385 tgl 19 0 empty empty empty 0 -10 0 12 #fcfcfc #000000 #000000 0 1;
#X obj 649 386 tgl 19 0 empty empty empty 0 -10 0 12 #fcfcfc #000000 #000000 0 1;
#X obj 703 339 count;
#X obj 686 389 tgl 19 0 empty empty empty 0 -10 0 12 #fcfcfc #000000 #000000 0 1;
#X obj 712 389 tgl 19 0 empty empty empty 0 -10 0 12 #fcfcfc #000000 #000000 0 1;
#X obj 740 390 tgl 19 0 empty empty empty 0 -10 0 12 #fcfcfc #000000 #000000 0 1;
#X obj 794 335 count;
#X obj 777 385 tgl 19 0 empty empty empty 0 -10 0 12 #fcfcfc #000000 #000000 0 1;
#X obj 803 385 tgl 19 0 empty empty empty 0 -10 0 12 #fcfcfc #000000 #000000 0 1;
#X obj 831 386 tgl 19 0 empty empty empty 0 -10 0 12 #fcfcfc #000000 #000000 0 1;
#X obj 883 336 count;
#X obj 866 386 tgl 19 0 empty empty empty 0 -10 0 12 #fcfcfc #000000 #000000 0 1;
#X obj 892 386 tgl 19 0 empty empty empty 0 -10 0 12 #fcfcfc #000000 #000000 0 1;
#X obj 920 387 tgl 19 0 empty empty empty 0 -10 0 12 #fcfcfc #000000 #000000 0 1;
#X obj 178 227 tgl 30 0 empty empty empty 0 -10 0 12 #00faff #000000 #000000 0 1;
#X obj 222 228 tgl 30 0 empty empty empty 0 -10 0 12 #00faff #000000 #000000 0 1;
#X obj 263 228 tgl 30 0 empty empty empty 0 -10 0 12 #00faff #000000 #000000 0 1;
#X obj 307 229 tgl 30 0 empty empty empty 0 -10 0 12 #00faff #000000 #000000 0 1;
#X obj 349 229 tgl 30 0 empty empty empty 0 -10 0 12 #00faff #000000 #000000 0 1;
#X obj 393 230 tgl 30 0 empty empty empty 0 -10 0 12 #00faff #000000 #000000 0 1;
#X obj 434 230 tgl 30 0 empty empty empty 0 -10 0 12 #00faff #000000 #000000 0 1;
#X obj 478 231 tgl 30 0 empty empty empty 0 -10 0 12 #00faff #000000 #000000 0 1;
#X obj 519 233 tgl 30 0 empty empty empty 0 -10 0 12 #00faff #000000 #000000 0 1;
#X obj 561 232 tgl 30 0 empty empty empty 0 -10 0 12 #00faff #000000 #000000 0 1;
#X obj 46 338 count zero;
#X connect 0 0 3 0;
#X connect 0 1 4 0;
#X connect 0 2 5 0;
#X connect 1 0 6 0;
#X connect 1 1 7 0;
#X connect 1 2 8 0;
#X connect 2 0 9 0;
#X connect 2 1 10 0;
#X connect 2 2 11 0;
#X connect 12 0 27 0;
#X connect 13 0 12 1;
#X connect 14 0 12 0;
#X connect 16 0 19 0;
#X connect 17 0 56 0;
#X connect 17 0 19 1;
#X connect 18 0 19 2;
#X connect 19 0 20 0;
#X connect 19 1 21 0;
#X connect 19 2 22 0;
#X connect 20 0 23 0;
#X connect 21 0 57 0;
#X connect 21 0 23 1;
#X connect 22 0 23 2;
#X connect 23 0 24 0;
#X connect 23 1 25 0;
#X connect 23 2 26 0;
#X connect 24 0 28 0;
#X connect 25 0 28 1;
#X connect 25 0 58 0;
#X connect 26 0 28 2;
#X connect 27 0 66 1;
#X connect 28 0 29 0;
#X connect 28 1 30 0;
#X connect 28 2 31 0;
#X connect 29 0 32 0;
#X connect 30 0 32 1;
#X connect 30 0 59 0;
#X connect 31 0 32 2;
#X connect 32 0 33 0;
#X connect 32 1 34 0;
#X connect 32 2 35 0;
#X connect 33 0 36 0;
#X connect 34 0 36 1;
#X connect 34 0 60 0;
#X connect 35 0 36 2;
#X connect 36 0 37 0;
#X connect 36 1 38 0;
#X connect 36 2 39 0;
#X connect 37 0 40 0;
#X connect 38 0 40 1;
#X connect 38 0 61 0;
#X connect 39 0 40 2;
#X connect 40 0 41 0;
#X connect 40 1 42 0;
#X connect 40 2 43 0;
#X connect 41 0 44 0;
#X connect 42 0 62 0;
#X connect 42 0 44 1;
#X connect 43 0 44 2;
#X connect 44 0 45 0;
#X connect 44 1 46 0;
#X connect 44 2 47 0;
#X connect 45 0 48 0;
#X connect 46 0 63 0;
#X connect 46 0 48 1;
#X connect 47 0 48 2;
#X connect 48 0 49 0;
#X connect 48 1 50 0;
#X connect 48 2 51 0;
#X connect 49 0 52 0;
#X connect 50 0 64 0;
#X connect 50 0 52 1;
#X connect 51 0 52 2;
#X connect 52 0 53 0;
#X connect 52 1 54 0;
#X connect 52 2 55 0;
#X connect 53 0 66 0;
#X connect 54 0 65 0;
#X connect 66 0 16 0;
#X connect 66 1 17 0;
#X connect 66 2 18 0;
