#N canvas 199 107 1920 1016 12;
#X obj 130 210 tgl 19 0 empty empty empty 0 -10 0 12 #fcfcfc #000000 #000000 0 1;
#X obj 38 28 inlet db;
#X obj 25 414 outlet db;
#X obj 121 28 inlet df;
#X obj 109 414 outlet df;
#X obj 200 28 inlet shift;
#X obj 195 414 outlet shift;
#X obj 200 52 sel 1;
#X obj 129 178 sel 1;
#X obj 121 52 != 1;
#X connect 0 0 4 0;
#X connect 3 0 6 0;
#X connect 3 0 8 0;
#X connect 3 0 9 0;
#X connect 5 0 7 0;
#X connect 8 0 0 0;
#X connect 9 0 2 0;
