#N canvas -33 26 1920 1016 12;
#X obj 93 112 bng 19 250 50 0 empty empty empty 0 -10 0 12 #fcfcfc #000000 #000000;
#X obj 155 175 + 1;
#X obj 94 45 tgl 19 0 empty empty empty 0 -10 0 12 #fcfcfc #000000 #000000 0 1;
#X floatatom 95 238 5 0 0 0 - - - 0;
#X obj 93 88 metro 500;
#X msg 159 229 1;
#X obj 161 204 sel 10;
#X obj 190 273 sel 1 2 3 4 5 6 7 8 9 10;
#X obj 54 371 hradio 19 1 0 10 empty empty empty 0 -10 0 12 #fcfcfc #000000 #000000 0;
#X obj 56 332 - 1;
#X obj 189 309 bng 19 250 50 0 empty empty empty 0 -10 0 12 #fcfcfc #000000 #000000;
#X obj 223 310 bng 19 250 50 0 empty empty empty 0 -10 0 12 #fcfcfc #000000 #000000;
#X floatatom 54 395 5 0 0 0 - - - 0;
#X obj 96 174 f 1;
#X obj 460 59 vradio 19 1 0 3 empty empty empty 0 -10 0 12 #fcfcfc #000000 #000000 0;
#X obj 437 144 sel 0 1 2;
#X floatatom 452 120 5 0 0 0 - - - 0;
#X obj 327 13 v nosteps;
#X msg 427 16 \; nosteps 0;
#X msg 244 166 5;
#X obj 226 112 mod 10;
#X msg 283 206 15;
#X obj 704 124 bng 19 250 50 0 empty empty empty 0 -10 0 12 #fcfcfc #000000 #000000;
#X obj 766 187 + 1;
#X obj 705 57 tgl 19 0 empty empty empty 0 -10 0 12 #fcfcfc #000000 #000000 0 1;
#X floatatom 706 250 5 0 0 0 - - - 0;
#X obj 704 100 metro 500;
#X obj 801 285 sel 1 2 3 4 5 6 7 8 9 10;
#X obj 665 383 hradio 19 1 0 10 empty empty empty 0 -10 0 12 #fcfcfc #000000 #000000 0;
#X obj 667 344 - 1;
#X obj 800 321 bng 19 250 50 0 empty empty empty 0 -10 0 12 #fcfcfc #000000 #000000;
#X obj 834 322 bng 19 250 50 0 empty empty empty 0 -10 0 12 #fcfcfc #000000 #000000;
#X floatatom 665 407 5 0 0 0 - - - 0;
#X obj 707 186 f 1;
#X obj 708 218 mod 10;
#X obj 479 170 bng 19 250 50 0 empty empty empty 0 -10 0 12 #fcfcfc #000000 #000000;
#X obj 540 61 vradio 19 1 0 3 empty empty empty 0 -10 0 12 #fcfcfc #000000 #000000 0;
#X obj 517 146 sel 0 1 2;
#X floatatom 532 122 5 0 0 0 - - - 0;
#X obj 559 172 bng 19 250 50 0 empty empty empty 0 -10 0 12 #fcfcfc #000000 #000000;
#X obj 624 62 vradio 19 1 0 3 empty empty empty 0 -10 0 12 #fcfcfc #000000 #000000 0;
#X obj 601 147 sel 0 1 2;
#X floatatom 616 123 5 0 0 0 - - - 0;
#X obj 643 173 bng 19 250 50 0 empty empty empty 0 -10 0 12 #fcfcfc #000000 #000000;
#X obj 356 304 vradio 19 1 0 3 empty empty empty 0 -10 0 12 #fcfcfc #000000 #000000 0;
#X floatatom 348 365 5 0 0 0 - - - 0;
#X obj 338 391 expr if($f1 == 2 \, 1 \, 0);
#X floatatom 338 415 5 0 0 0 - - - 0;
#X obj 420 246 vradio 19 1 0 3 empty empty empty 0 -10 0 12 #fcfcfc #000000 #000000 0;
#X floatatom 412 307 5 0 0 0 - - - 0;
#X obj 402 333 expr if($f1 == 2 \, 1 \, 0);
#X floatatom 402 357 5 0 0 0 - - - 0;
#X obj 498 197 vradio 19 1 0 3 empty empty empty 0 -10 0 12 #fcfcfc #000000 #000000 0;
#X floatatom 490 258 5 0 0 0 - - - 0;
#X obj 480 284 expr if($f1 == 2 \, 1 \, 0);
#X floatatom 480 308 5 0 0 0 - - - 0;
#X obj 443 450 expr $f1 + $f2 + $f3;
#X floatatom 443 474 5 0 0 0 - - - 0;
#X obj 560 19 until;
#X connect 0 0 13 0;
#X connect 1 0 13 1;
#X connect 2 0 4 0;
#X connect 3 0 7 0;
#X connect 3 0 9 0;
#X connect 4 0 0 0;
#X connect 5 0 13 1;
#X connect 6 0 5 0;
#X connect 7 0 10 0;
#X connect 7 1 11 0;
#X connect 8 0 12 0;
#X connect 9 0 8 0;
#X connect 13 0 1 0;
#X connect 13 0 3 0;
#X connect 13 0 6 0;
#X connect 14 0 16 0;
#X connect 15 2 35 0;
#X connect 16 0 15 0;
#X connect 19 0 6 1;
#X connect 19 0 20 1;
#X connect 21 0 6 1;
#X connect 22 0 33 0;
#X connect 23 0 33 1;
#X connect 24 0 26 0;
#X connect 25 0 27 0;
#X connect 25 0 29 0;
#X connect 26 0 22 0;
#X connect 27 0 30 0;
#X connect 27 1 31 0;
#X connect 28 0 32 0;
#X connect 29 0 28 0;
#X connect 33 0 23 0;
#X connect 33 0 34 0;
#X connect 34 0 25 0;
#X connect 36 0 38 0;
#X connect 37 2 39 0;
#X connect 38 0 37 0;
#X connect 40 0 42 0;
#X connect 41 2 43 0;
#X connect 42 0 41 0;
#X connect 44 0 45 0;
#X connect 45 0 46 0;
#X connect 46 0 47 0;
#X connect 47 0 56 0;
#X connect 48 0 49 0;
#X connect 49 0 50 0;
#X connect 50 0 51 0;
#X connect 51 0 56 1;
#X connect 52 0 53 0;
#X connect 53 0 54 0;
#X connect 54 0 55 0;
#X connect 55 0 56 2;
#X connect 56 0 57 0;
#X connect 57 0 6 1;
