#N canvas 44 117 1792 739 12;
#X obj 33 27 inlet;
#X obj 150 23 inlet;
#X obj 37 139 *~;
#X obj 55 102 *~ 0.2;
#X obj 166 95 *~ 0.2;
#X obj 276 95 *~ 0.2;
#X obj 382 97 *~ 0.2;
#X obj 498 92 *~ 0.2;
#X obj 606 91 *~ 0.2;
#X obj 712 93 *~ 0.2;
#X obj 710 67 phasor~ 110;
#X obj 604 65 phasor~ 220;
#X obj 496 66 phasor~ 440;
#X obj 382 67 phasor~ 880;
#X obj 274 69 phasor~ 140;
#X obj 164 69 phasor~ 280;
#X obj 55 75 phasor~ 560;
#X obj 149 140 *~;
#X obj 255 21 inlet;
#X obj 254 138 *~;
#X obj 361 25 inlet;
#X obj 361 142 *~;
#X obj 479 27 inlet;
#X obj 478 144 *~;
#X obj 584 31 inlet;
#X obj 583 148 *~;
#X obj 694 30 inlet;
#X obj 693 147 *~;
#X obj 821 94 *~ 0.2;
#X obj 803 31 inlet;
#X obj 802 148 *~;
#X obj 926 96 *~ 0.2;
#X obj 908 33 inlet;
#X obj 907 150 *~;
#X obj 819 68 phasor~ 450;
#X obj 924 70 phasor~ 900;
#X obj 525 289 dac~;
#X obj 1034 93 *~ 0.2;
#X obj 1016 30 inlet;
#X obj 1015 147 *~;
#X obj 1032 67 phasor~ 1350;
#X connect 0 0 2 0;
#X connect 1 0 17 0;
#X connect 2 0 36 0;
#X connect 2 0 36 1;
#X connect 3 0 2 1;
#X connect 4 0 17 1;
#X connect 5 0 19 1;
#X connect 6 0 21 1;
#X connect 7 0 23 1;
#X connect 8 0 25 1;
#X connect 9 0 27 1;
#X connect 10 0 9 0;
#X connect 11 0 8 0;
#X connect 12 0 7 0;
#X connect 13 0 6 0;
#X connect 14 0 5 0;
#X connect 15 0 4 0;
#X connect 16 0 3 0;
#X connect 17 0 36 0;
#X connect 17 0 36 1;
#X connect 18 0 19 0;
#X connect 19 0 36 0;
#X connect 19 0 36 1;
#X connect 20 0 21 0;
#X connect 21 0 36 0;
#X connect 21 0 36 1;
#X connect 22 0 23 0;
#X connect 23 0 36 0;
#X connect 23 0 36 1;
#X connect 24 0 25 0;
#X connect 25 0 36 0;
#X connect 25 0 36 1;
#X connect 26 0 27 0;
#X connect 27 0 36 0;
#X connect 27 0 36 1;
#X connect 28 0 30 1;
#X connect 29 0 30 0;
#X connect 30 0 36 0;
#X connect 30 0 36 1;
#X connect 31 0 33 1;
#X connect 32 0 33 0;
#X connect 33 0 36 0;
#X connect 33 0 36 1;
#X connect 34 0 28 0;
#X connect 35 0 31 0;
#X connect 37 0 39 1;
#X connect 38 0 39 0;
#X connect 39 0 36 0;
#X connect 39 0 36 1;
#X connect 40 0 37 0;
