#N canvas -74 -9 1920 1016 12;
#X obj 44 41 inlet db;
#X obj 149 42 inlet df;
#X obj 241 43 inlet sm;
#X obj 87 412 outlet db;
#X obj 181 413 outlet df;
#X obj 282 413 outlet sm;
#X obj 189 251 JKFF, f 9;
#X obj 333 44 inlet reset;
#X obj 44 69 t f f;
#X obj 44 93 != 1;
#X obj 183 97 t f f;
#X obj 149 66 t f f;
#X obj 144 97 != 1;
#X obj 384 184 tgl 19 0 empty empty empty 0 -10 0 12 #fcfcfc #000000 #000000 0 1;
#X obj 36 160 tgl 19 0 empty empty empty 0 -10 0 12 #fcfcfc #000000 #000000 0 1;
#X obj 212 296 tgl 19 0 empty empty empty 0 -10 0 12 #fcfcfc #000000 #000000 0 1;
#X obj 273 292 tgl 19 0 empty empty empty 0 -10 0 12 #fcfcfc #000000 #000000 0 1;
#X connect 0 0 8 0;
#X connect 0 0 14 0;
#X connect 1 0 11 0;
#X connect 1 0 13 0;
#X connect 6 0 15 0;
#X connect 6 0 4 0;
#X connect 6 1 16 0;
#X connect 7 0 6 3;
#X connect 8 0 9 0;
#X connect 8 1 6 2;
#X connect 9 0 6 0;
#X connect 10 0 6 1;
#X connect 10 1 5 0;
#X connect 11 0 12 0;
#X connect 11 1 10 0;
#X connect 12 0 3 0;
