#N canvas 76 76 1920 1016 12;
#X obj 44 41 inlet db;
#X obj 149 42 inlet df;
#X obj 241 43 inlet sm;
#X obj 87 412 outlet db;
#X obj 181 413 outlet df;
#X obj 282 413 outlet sm;
#X obj 189 251 JKFF, f 9;
#X obj 333 44 inlet reset;
#X obj 171 92 != 1;
#X obj 149 66 t b f f f;
#X msg 132 92 1;
#X obj 132 116 t f f;
#X connect 1 0 9 0;
#X connect 6 1 4 0;
#X connect 7 0 6 3;
#X connect 8 0 3 0;
#X connect 9 0 10 0;
#X connect 9 1 8 0;
#X connect 9 2 6 1;
#X connect 9 3 5 0;
#X connect 10 0 11 0;
#X connect 11 0 6 0;
#X connect 11 1 6 2;
