#N canvas -416 241 1920 1016 12;
#X obj 245 155 ||;
#X obj 255 121 t b f;
#X obj 245 179 != 1;
#X obj 203 66 inlet a;
#X obj 278 66 inlet b;
#X obj 245 203 outlet T;
#X connect 0 0 2 0;
#X connect 1 0 0 0;
#X connect 1 1 0 1;
#X connect 2 0 5 0;
#X connect 3 0 0 0;
#X connect 4 0 1 0;
