#N canvas 38 38 1920 1016 12;
#X obj 179 197 NORShift;
#X obj 277 198 NORShift;
#X obj 364 197 NORShift;
#X obj 462 198 NORShift;
#X obj 204 301 tgl 25 0 empty empty empty 0 -10 0 12 #c6feff #000000 #000000 0 1;
#X obj 296 305 tgl 25 0 empty empty empty 0 -10 0 12 #c6feff #000000 #000000 0 1;
#X obj 397 305 tgl 25 0 empty empty empty 0 -10 0 12 #c6feff #000000 #000000 0 1;
#X obj 352 305 tgl 25 0 empty empty empty 0 -10 0 12 #feffc6 #000000 #000000 0 1;
#X obj 261 305 tgl 25 0 empty empty empty 0 -10 0 12 #feffc6 #000000 #000000 0 1;
#X obj 159 301 tgl 25 0 empty empty empty 0 -10 0 12 #feffc6 #000000 #000000 0 1;
#X obj 502 305 tgl 25 0 empty empty empty 0 -10 0 12 #c6feff #000000 #000000 0 1;
#X obj 457 305 tgl 25 0 empty empty empty 0 -10 0 12 #feffc6 #000000 #000000 0 1;
#X obj 198 235 t f f;
#X obj 299 239 t f f;
#X obj 387 237 t f f;
#X connect 0 0 9 0;
#X connect 0 1 12 0;
#X connect 0 2 1 1;
#X connect 1 0 8 0;
#X connect 1 1 13 0;
#X connect 1 2 2 1;
#X connect 2 0 7 0;
#X connect 2 1 14 0;
#X connect 2 2 3 1;
#X connect 12 0 4 0;
#X connect 12 1 1 0;
#X connect 13 0 5 0;
#X connect 13 1 2 0;
#X connect 14 0 6 0;
#X connect 14 1 3 0;
