#N canvas 949 1009 1920 1026 12;
#X obj 35 40 inlet;
#X obj 77 40 inlet;
#X obj 35 350 outlet;
#X obj 135 350 outlet;
#X obj 119 40 inlet;
#X obj 186 350 outlet;
#X text 129 21 DB;
#X text 48 371 DB;
#X text 46 21 DF;
#X text 88 19 s;
#X text 149 370 DF;
#X text 199 371 s;
#X obj 109 187 f;
#X obj 77 124 sel 1;
#X obj 109 261 tgl 19 0 empty empty empty 0 -10 0 12 #fcfcfc #000000 #000000 0 1;
#X obj 109 211 t f f;
#X obj 109 235 != 1;
#X obj 86 350 outlet;
#X text 91 371 lamp;
#X obj 35 65 t f f;
#X obj 77 148 t b b;
#X obj 77 96 f;
#X connect 0 0 19 0;
#X connect 1 0 21 0;
#X connect 12 0 15 0;
#X connect 13 0 20 0;
#X connect 14 0 17 0;
#X connect 15 0 16 0;
#X connect 15 1 3 0;
#X connect 16 0 14 0;
#X connect 16 0 12 1;
#X connect 19 0 2 0;
#X connect 19 1 21 1;
#X connect 20 0 5 0;
#X connect 20 1 12 0;
#X connect 21 0 13 0;
