#N canvas 76 76 3840 2055 12;
#X msg 397 186 1;
#X msg 397 142 tempo \$1 permin;
#X obj 397 164 metro 1 300 permin;
#X obj 397 208 stages, f 7;
#X msg 456 208 1;
#X obj 397 120 r speed;
#X obj 397 243 s OFF;
#X obj 363 142 r ON;
#X obj 451 327 steps;
#X obj 448 550 dac~;
#X obj 4 5 receive fromGUI;
#X obj 4 27 list trim;
#X obj 497 54 receive fromGUI;
#X obj 497 76 list trim;
#X obj 497 98 route /myGrid;
#X obj 497 120 unpack f f f;
#X obj 497 187 sel 0 1 2 3 4 5 6 7 8 9;
#X obj 497 209 f;
#X obj 525 209 f;
#X obj 538 142 t f f f f f f f f f f;
#X obj 580 209 f;
#X obj 553 209 f;
#X obj 635 209 f;
#X obj 608 209 f;
#X obj 689 209 f;
#X obj 662 209 f;
#X obj 743 209 f;
#X obj 716 209 f;
#X obj 578 165 t f f f f f f f f f f;
#X obj 74 62 cm;
#X obj 112 62 cm;
#X obj 149 61 cm;
#X obj 186 61 cm;
#X obj 224 61 cm;
#X obj 261 61 cm;
#X obj 299 61 cm;
#X obj 336 61 cm;
#X obj 374 61 cm;
#X obj 411 61 cm;
#X obj 4 49 s listgui;
#X obj 4 83 r listgui;
#X obj 4 186 r listgui;
#X obj 4 208 route /gain1 /gain2 /gain3 /gain4 /gain5 /gain6 /gain7 /gain8 /gain9 /gain10;
#X obj 4 106 route /pitch1 /pitch2 /pitch3 /pitch4 /pitch5 /pitch6 /pitch7 /pitch8 /pitch9 /pitch10;
#X obj 4 142 pc;
#X obj 41 142 pc;
#X obj 78 142 pc;
#X obj 114 142 pc;
#X obj 151 142 pc;
#X obj 188 142 pc;
#X obj 225 142 pc;
#X obj 261 142 pc;
#X obj 298 142 pc;
#X obj 335 142 pc;
#X obj 211 460 send toGUI;
#X msg 4 372 list /tgl1 \$1;
#X obj 4 350 r l1;
#X obj 108 350 r l2;
#X msg 108 372 list /tgl2 \$1;
#X obj 4 394 r l3;
#X msg 4 416 list /tgl3 \$1;
#X obj 107 394 r l4;
#X msg 107 416 list /tgl4 \$1;
#X obj 4 438 r l5;
#X msg 4 460 list /tgl5 \$1;
#X obj 107 438 r l6;
#X msg 107 460 list /tgl6 \$1;
#X obj 212 372 r l7;
#X msg 212 394 list /tgl7 \$1;
#X obj 315 372 r l8;
#X msg 315 394 list /tgl8 \$1;
#X obj 211 416 r l9;
#X msg 211 438 list /tgl9 \$1;
#X obj 315 416 r l10;
#X msg 315 438 list /tgl10 \$1;
#X obj 4 267 r listgui;
#X obj 4 291 route /hpf /lpf /bph /bpl /tune /gain /speed /sq /mod /vib /pwr;
#X obj 398 351 * 10;
#X obj 180 351 * 135;
#X obj 451 261 r OFF;
#X msg 451 283 list /pwr \$1;
#X obj 451 305 send toGUI;
#X obj 223 351 expr (12 + (1188 * $f1));
#X text 496 251 o varför funkar inte mmp??? orkar ej;
#X obj 4 164 s p1;
#X obj 41 164 s p2;
#X obj 78 164 s p3;
#X obj 114 164 s p4;
#X obj 151 164 s p5;
#X obj 188 164 s p6;
#X obj 225 164 s p7;
#X obj 261 164 s p8;
#X obj 298 164 s p9;
#X obj 335 164 s p10;
#X obj 74 84 s m1;
#X obj 112 84 s m2;
#X obj 149 83 s m3;
#X obj 186 83 s m4;
#X obj 224 83 s m5;
#X obj 261 83 s m6;
#X obj 299 83 s m7;
#X obj 336 83 s m8;
#X obj 374 83 s m9;
#X obj 411 83 s m10;
#X obj 4 244 s g1;
#X obj 42 244 s g2;
#X obj 79 244 s g3;
#X obj 116 244 s g4;
#X obj 154 244 s g5;
#X obj 192 244 s g6;
#X obj 229 244 s g7;
#X obj 267 244 s g8;
#X obj 304 244 s g9;
#X obj 341 244 s g10;
#X obj 4 327 s hpf;
#X obj 46 327 s lpf;
#X obj 88 327 s high;
#X obj 136 327 s low;
#X obj 178 327 s grov;
#X obj 227 327 s gain;
#X obj 275 327 s speed;
#X obj 330 327 s sq;
#X obj 365 327 s mod;
#X obj 407 327 s vib;
#X text 484 187 x;
#X text 523 139 y;
#X text 528 165 ON/OFF;
#X obj 497 232 checky, f 30;
#X obj 74 26 route /mode1 /mode2 /mode3 /mode4 /mode5 /mode6 /mode7 /mode8 /mode9 /mode10;
#X obj 451 351 *~;
#X obj 493 327 r gain;
#X text 115 3 Andromatic 2024-12-25 \, Amanda Andrén;
#X obj 416 305 s ON;
#X obj 451 375 *~;
#X obj 493 348 r ON;
#X floatatom 499 379 5 0 0 0 - - - 0;
#X obj 1217 80 tgl 35 0 empty l1 empty 0 -10 0 12 #ff0080 #000000 #000000 0 1;
#X obj 1273 80 tgl 35 0 empty l2 empty 0 -10 0 12 #ff0080 #000000 #000000 0 1;
#X obj 1325 80 tgl 35 0 empty l3 empty 0 -10 0 12 #ff0080 #000000 #000000 0 1;
#X obj 1381 80 tgl 35 0 empty l4 empty 0 -10 0 12 #ff0080 #000000 #000000 0 1;
#X obj 1434 80 tgl 35 0 empty l5 empty 0 -10 0 12 #ff0080 #000000 #000000 0 1;
#X obj 1490 80 tgl 35 0 empty l6 empty 0 -10 0 12 #ff0080 #000000 #000000 0 1;
#X obj 1542 80 tgl 35 0 empty l7 empty 0 -10 0 12 #ff0080 #000000 #000000 0 1;
#X obj 1598 80 tgl 35 0 empty l8 empty 0 -10 0 12 #ff0080 #000000 #000000 0 1;
#X obj 1653 80 tgl 35 0 empty l9 empty 0 -10 0 12 #ff0080 #000000 #000000 0 1;
#X obj 1709 80 tgl 35 0 empty l10 empty 0 -10 0 12 #ff0080 #000000 #000000 0 1;
#X obj 1214 178 r p1;
#X floatatom 1214 202 5 0 0 0 - - - 0;
#X floatatom 1265 201 5 0 0 0 - - - 0;
#X floatatom 1328 200 5 0 0 0 - - - 0;
#X floatatom 1379 199 5 0 0 0 - - - 0;
#X floatatom 1434 197 5 0 0 0 - - - 0;
#X floatatom 1485 196 5 0 0 0 - - - 0;
#X floatatom 1548 195 5 0 0 0 - - - 0;
#X floatatom 1599 194 5 0 0 0 - - - 0;
#X floatatom 1659 194 5 0 0 0 - - - 0;
#X floatatom 1710 193 5 0 0 0 - - - 0;
#X floatatom 1216 258 5 0 0 0 - - - 0;
#X floatatom 1267 257 5 0 0 0 - - - 0;
#X floatatom 1330 256 5 0 0 0 - - - 0;
#X floatatom 1381 255 5 0 0 0 - - - 0;
#X floatatom 1436 253 5 0 0 0 - - - 0;
#X floatatom 1487 252 5 0 0 0 - - - 0;
#X floatatom 1550 251 5 0 0 0 - - - 0;
#X floatatom 1601 250 5 0 0 0 - - - 0;
#X floatatom 1661 250 5 0 0 0 - - - 0;
#X floatatom 1712 249 5 0 0 0 - - - 0;
#X obj 1265 177 r p2;
#X obj 1328 176 r p3;
#X obj 1379 175 r p4;
#X obj 1434 173 r p5;
#X obj 1485 172 r p6;
#X obj 1548 171 r p7;
#X obj 1599 170 r p8;
#X obj 1659 170 r p9;
#X obj 1710 169 r p10;
#X obj 1216 234 r g1;
#X obj 1267 233 r g2;
#X obj 1330 232 r g3;
#X obj 1381 231 r g4;
#X obj 1436 229 r g5;
#X obj 1487 228 r g6;
#X obj 1550 227 r g7;
#X obj 1601 226 r g8;
#X obj 1661 226 r g9;
#X obj 1712 225 r g10;
#X obj 1220 354 r hpf;
#X floatatom 1220 378 5 0 0 0 - - - 0;
#X obj 1274 355 r lpf;
#X floatatom 1274 379 5 0 0 0 - - - 0;
#X obj 1325 352 r high;
#X floatatom 1325 376 5 0 0 0 - - - 0;
#X obj 1384 351 r low;
#X floatatom 1384 375 5 0 0 0 - - - 0;
#X obj 1440 350 r grov;
#X floatatom 1440 374 5 0 0 0 - - - 0;
#X obj 1503 349 r speed;
#X floatatom 1503 373 5 0 0 0 - - - 0;
#X obj 1570 349 r gain;
#X floatatom 1570 373 5 0 0 0 - - - 0;
#X obj 1629 350 r sq;
#X floatatom 1629 374 5 0 0 0 - - - 0;
#X obj 1679 352 r mod;
#X floatatom 1679 376 5 0 0 0 - - - 0;
#X obj 1730 347 r vib;
#X floatatom 1730 371 5 0 0 0 - - - 0;
#X obj 1223 422 r ON;
#X floatatom 1223 446 5 0 0 0 - - - 0;
#X obj 1505 539 freqscope;
#X obj 1229 547 tgl 19 0 empty empty empty 0 -10 0 12 #fcfcfc #000000 #000000 0 1;
#X obj 1229 571 metro 100;
#N canvas 0 50 450 250 (subpatch) 0;
#X array andromatic\$0 100 float 1;
#A 0 0 0 0 0 0 0 0 0 0 0 0 0 0 0 0 0 0 0 0 0 0 0 0 0 0 0 0 0 0 0 0 0 0 0 0 0 0 0 0 0 0 0 0 0 0 0 0 0 0 0 0 0 0 0 0 0 0 0 0 0 0 0 0 0 0 0 0 0 0 0 0 0 0 0 0 0 0 0 0 0 0 0 0 0 0 0 0 0 0 0 0 0 0 0 0 0 0 0 0 0;
#X coords 0 1 99 -1 200 140 1;
#X restore 1236 664 graph;
#X obj 1229 595 tabwrite~ andromatic\$0;
#X obj 900 499 limiter;
#X obj 449 477 output~;
#X obj 884 636 compressor;
#X obj 886 110 hsl 70 45 0 1 0 0 empty empty empty -2 -10 0 12 #fcfcfc #000000 #000000 0 1;
#X floatatom 883 160 5 0 0 0 - - - 0;
#X obj 977 109 hsl 70 45 0.01 1 1 0 empty empty empty -2 -10 0 12 #fcfcfc #000000 #000000 0 1;
#X floatatom 974 159 5 0 0 0 - - - 0;
#X floatatom 653 651 5 0 0 0 - - - 0;
#X obj 653 627 log 2;
#X obj 883 207 + 60;
#X obj 883 231 dbtorms;
#X floatatom 883 255 9 0 0 0 - - - 0;
#X obj 883 183 * 40;
#X connect 0 0 3 0;
#X connect 1 0 2 0;
#X connect 2 0 0 0;
#X connect 3 1 4 0;
#X connect 4 0 3 1;
#X connect 5 0 1 0;
#X connect 7 0 2 0;
#X connect 8 0 129 0;
#X connect 10 0 11 0;
#X connect 11 0 39 0;
#X connect 11 0 128 0;
#X connect 12 0 13 0;
#X connect 13 0 14 0;
#X connect 14 0 15 0;
#X connect 15 0 16 0;
#X connect 15 1 19 0;
#X connect 15 2 28 0;
#X connect 16 0 17 0;
#X connect 16 1 18 0;
#X connect 16 2 21 0;
#X connect 16 3 20 0;
#X connect 16 4 23 0;
#X connect 16 5 22 0;
#X connect 16 6 25 0;
#X connect 16 7 24 0;
#X connect 16 8 27 0;
#X connect 16 9 26 0;
#X connect 17 0 127 0;
#X connect 18 0 127 2;
#X connect 19 0 17 1;
#X connect 19 1 18 1;
#X connect 19 2 21 1;
#X connect 19 3 20 1;
#X connect 19 4 23 1;
#X connect 19 5 22 1;
#X connect 19 6 25 1;
#X connect 19 7 24 1;
#X connect 19 8 27 1;
#X connect 19 9 26 1;
#X connect 20 0 127 6;
#X connect 21 0 127 4;
#X connect 22 0 127 10;
#X connect 23 0 127 8;
#X connect 24 0 127 14;
#X connect 25 0 127 12;
#X connect 26 0 127 18;
#X connect 27 0 127 16;
#X connect 28 0 127 1;
#X connect 28 1 127 3;
#X connect 28 2 127 5;
#X connect 28 3 127 7;
#X connect 28 4 127 9;
#X connect 28 5 127 11;
#X connect 28 6 127 13;
#X connect 28 7 127 15;
#X connect 28 8 127 17;
#X connect 28 9 127 19;
#X connect 29 0 94 0;
#X connect 30 0 95 0;
#X connect 31 0 96 0;
#X connect 32 0 97 0;
#X connect 33 0 98 0;
#X connect 34 0 99 0;
#X connect 35 0 100 0;
#X connect 36 0 101 0;
#X connect 37 0 102 0;
#X connect 38 0 103 0;
#X connect 40 0 43 0;
#X connect 41 0 42 0;
#X connect 42 0 104 0;
#X connect 42 1 105 0;
#X connect 42 2 106 0;
#X connect 42 3 107 0;
#X connect 42 4 108 0;
#X connect 42 5 109 0;
#X connect 42 6 110 0;
#X connect 42 7 111 0;
#X connect 42 8 112 0;
#X connect 42 9 113 0;
#X connect 43 0 44 0;
#X connect 43 1 45 0;
#X connect 43 2 46 0;
#X connect 43 3 47 0;
#X connect 43 4 48 0;
#X connect 43 5 49 0;
#X connect 43 6 50 0;
#X connect 43 7 51 0;
#X connect 43 8 52 0;
#X connect 43 9 53 0;
#X connect 44 0 84 0;
#X connect 45 0 85 0;
#X connect 46 0 86 0;
#X connect 47 0 87 0;
#X connect 48 0 88 0;
#X connect 49 0 89 0;
#X connect 50 0 90 0;
#X connect 51 0 91 0;
#X connect 52 0 92 0;
#X connect 53 0 93 0;
#X connect 55 0 54 0;
#X connect 56 0 55 0;
#X connect 57 0 58 0;
#X connect 58 0 54 0;
#X connect 59 0 60 0;
#X connect 60 0 54 0;
#X connect 61 0 62 0;
#X connect 62 0 54 0;
#X connect 63 0 64 0;
#X connect 64 0 54 0;
#X connect 65 0 66 0;
#X connect 66 0 54 0;
#X connect 67 0 68 0;
#X connect 68 0 54 0;
#X connect 69 0 70 0;
#X connect 70 0 54 0;
#X connect 71 0 72 0;
#X connect 72 0 54 0;
#X connect 73 0 74 0;
#X connect 74 0 54 0;
#X connect 75 0 76 0;
#X connect 76 0 114 0;
#X connect 76 1 115 0;
#X connect 76 2 116 0;
#X connect 76 3 117 0;
#X connect 76 4 118 0;
#X connect 76 5 119 0;
#X connect 76 6 82 0;
#X connect 76 7 121 0;
#X connect 76 8 78 0;
#X connect 76 9 77 0;
#X connect 76 10 132 0;
#X connect 77 0 123 0;
#X connect 78 0 122 0;
#X connect 79 0 80 0;
#X connect 80 0 81 0;
#X connect 82 0 120 0;
#X connect 128 0 29 0;
#X connect 128 1 30 0;
#X connect 128 2 31 0;
#X connect 128 3 32 0;
#X connect 128 4 33 0;
#X connect 128 5 34 0;
#X connect 128 6 35 0;
#X connect 128 7 36 0;
#X connect 128 8 37 0;
#X connect 128 9 38 0;
#X connect 129 0 133 0;
#X connect 130 0 129 1;
#X connect 133 0 208 0;
#X connect 133 0 213 0;
#X connect 133 0 215 0;
#X connect 133 0 214 0;
#X connect 134 0 133 1;
#X connect 134 0 135 0;
#X connect 146 0 147 0;
#X connect 167 0 148 0;
#X connect 168 0 149 0;
#X connect 169 0 150 0;
#X connect 170 0 151 0;
#X connect 171 0 152 0;
#X connect 172 0 153 0;
#X connect 173 0 154 0;
#X connect 174 0 155 0;
#X connect 175 0 156 0;
#X connect 176 0 157 0;
#X connect 177 0 158 0;
#X connect 178 0 159 0;
#X connect 179 0 160 0;
#X connect 180 0 161 0;
#X connect 181 0 162 0;
#X connect 182 0 163 0;
#X connect 183 0 164 0;
#X connect 184 0 165 0;
#X connect 185 0 166 0;
#X connect 186 0 187 0;
#X connect 188 0 189 0;
#X connect 190 0 191 0;
#X connect 192 0 193 0;
#X connect 194 0 195 0;
#X connect 196 0 197 0;
#X connect 198 0 199 0;
#X connect 200 0 201 0;
#X connect 202 0 203 0;
#X connect 204 0 205 0;
#X connect 206 0 207 0;
#X connect 209 0 210 0;
#X connect 210 0 212 0;
#X connect 213 0 212 0;
#X connect 216 0 217 0;
#X connect 217 0 221 0;
#X connect 217 0 218 0;
#X connect 217 0 225 0;
#X connect 218 0 219 0;
#X connect 221 0 220 0;
#X connect 222 0 223 0;
#X connect 223 0 224 0;
#X connect 225 0 222 0;
