#N canvas 0 0 1924 1020 12;
#X obj 436 119 hsl 100 25 0 1 0 1 hpf empty HPF -2 -10 1 12 #fcfcfc #000000 #000000 9900 1;
#X obj 436 221 hsl 100 25 0 1 0 1 lpf empty LPF -2 -10 1 12 #fcfcfc #000000 #000000 9900 1;
#X obj 434 168 hsl 100 25 0 1 0 1 gain empty Gain -2 -10 1 12 #fcfcfc #000000 #000000 9900 1;
#X obj 438 270 hsl 100 25 0 1 0 1 sq empty SQ -2 -10 1 12 #fcfcfc #000000 #000000 7450 1;
#X obj 560 117 hsl 100 25 0 1 0 1 high empty BPH -2 -10 1 12 #fcfcfc #000000 #000000 5650 1;
#X obj 560 167 hsl 100 25 0 1 0 1 low empty BPL -2 -10 1 12 #fcfcfc #000000 #000000 5750 1;
#X obj 561 219 hsl 100 25 12 1200 0 1 speed empty Speed -2 -10 1 12 #fcfcfc #000000 #000000 450 1;
#X obj 681 165 hsl 100 25 0 1 0 1 grov empty Tune -2 -10 1 12 #fcfcfc #000000 #000000 3450 1;
#X obj 683 219 hsl 100 25 0 100 0 1 vib empty Vib -2 -10 1 12 #fcfcfc #000000 #000000 9900 1;
#X obj 680 117 hsl 100 25 0 135 0 1 mod empty Mod -2 -10 1 12 #fcfcfc #000000 #000000 3700 1;
#X obj 889 207 tgl 15 1 1a - HPF -25 8 1 8 #fcfcfc #000000 #000000 0 1;
#X obj 904 207 tgl 15 1 2a - empty 17 7 0 10 #fcfcfc #000000 #000000 0 1;
#X obj 919 207 tgl 15 1 3a - empty 17 7 0 10 #fcfcfc #000000 #000000 0 1;
#X obj 934 207 tgl 15 1 4a - empty 17 7 0 10 #fcfcfc #000000 #000000 0 1;
#X obj 889 222 tgl 15 1 1b - Direct -25 8 1 8 #fcfcfc #000000 #000000 0 1;
#X obj 904 222 tgl 15 0 2b - empty 17 7 0 10 #fcfcfc #000000 #000000 0 1;
#X obj 919 222 tgl 15 1 3b - empty 17 7 0 10 #fcfcfc #000000 #000000 0 1;
#X obj 934 222 tgl 15 1 4b - empty 17 7 0 10 #fcfcfc #000000 #000000 0 1;
#X obj 889 237 tgl 15 1 1c - LPF -25 8 1 8 #fcfcfc #000000 #000000 0 1;
#X obj 904 237 tgl 15 1 2c - empty 17 7 0 10 #fcfcfc #000000 #000000 0 1;
#X obj 919 237 tgl 15 1 3c - empty 17 7 0 10 #fcfcfc #000000 #000000 0 1;
#X obj 934 237 tgl 15 1 4c - empty 17 7 0 10 #fcfcfc #000000 #000000 0 1;
#X obj 889 252 tgl 15 1 1d - SQ -25 8 1 8 #fcfcfc #000000 #000000 0 1;
#X obj 904 252 tgl 15 1 2d - empty 17 7 0 10 #fcfcfc #000000 #000000 0 1;
#X obj 919 252 tgl 15 1 3d - empty 17 7 0 10 #fcfcfc #000000 #000000 0 1;
#X obj 934 252 tgl 15 1 4d - empty 17 7 0 10 #fcfcfc #000000 #000000 0 1;
#X text 893 190 1;
#X text 909 190 2;
#X text 938 190 4;
#X text 924 190 3;
#X obj 889 267 tgl 15 1 1e - BPF\ 1 -25 8 1 8 #fcfcfc #000000 #000000 0 1;
#X obj 904 267 tgl 15 1 2e - empty 17 7 0 10 #fcfcfc #000000 #000000 0 1;
#X obj 919 267 tgl 15 1 3e - empty 17 7 0 10 #fcfcfc #000000 #000000 0 1;
#X obj 934 267 tgl 15 1 4e - empty 17 7 0 10 #fcfcfc #000000 #000000 0 1;
#X obj 889 282 tgl 15 1 1f - BPF\ 2 -25 8 1 8 #fcfcfc #000000 #000000 1 1;
#X obj 904 282 tgl 15 0 2f - empty 17 7 0 10 #fcfcfc #000000 #000000 0 1;
#X obj 919 282 tgl 15 1 3f - empty 17 7 0 10 #fcfcfc #000000 #000000 0 1;
#X obj 934 282 tgl 15 1 4f - empty 17 7 0 10 #fcfcfc #000000 #000000 0 1;
#X obj 889 297 tgl 15 1 1g - BPF\ 3 -25 8 1 8 #fcfcfc #000000 #000000 1 1;
#X obj 904 297 tgl 15 1 2g - empty 17 7 0 10 #fcfcfc #000000 #000000 0 1;
#X obj 919 297 tgl 15 1 3g - empty 17 7 0 10 #fcfcfc #000000 #000000 0 1;
#X obj 934 297 tgl 15 1 4g - empty 17 7 0 10 #fcfcfc #000000 #000000 0 1;
#X obj 889 312 tgl 15 1 1h - BPF\ 4 -25 8 1 8 #fcfcfc #000000 #000000 1 1;
#X obj 904 312 tgl 15 1 2h - empty 17 7 0 10 #fcfcfc #000000 #000000 0 1;
#X obj 919 312 tgl 15 1 3h - empty 17 7 0 10 #fcfcfc #000000 #000000 0 1;
#X obj 934 312 tgl 15 1 4h - empty 17 7 0 10 #fcfcfc #000000 #000000 0 1;
#X obj 949 207 tgl 15 1 5a - empty -25 8 0 8 #fcfcfc #000000 #fc2828 0 1;
#X obj 964 207 tgl 15 1 6a - 6 0 -10 0 10 #fcfcfc #000000 #000000 0 1;
#X obj 979 207 tgl 15 1 7a - 7 5 -10 0 10 #fcfcfc #000000 #000000 0 1;
#X obj 994 207 tgl 15 1 8a - empty 17 7 0 10 #fcfcfc #000000 #000000 0 1;
#X obj 949 222 tgl 15 1 5b - empty -25 8 0 8 #fcfcfc #000000 #fc2828 0 1;
#X obj 964 222 tgl 15 0 6b - empty 17 7 0 10 #fcfcfc #000000 #000000 0 1;
#X obj 979 222 tgl 15 1 7b - empty 17 7 0 10 #fcfcfc #000000 #000000 0 1;
#X obj 994 222 tgl 15 1 8b - empty 17 7 0 10 #fcfcfc #000000 #000000 0 1;
#X obj 949 237 tgl 15 1 5c - empty -25 8 0 8 #fcfcfc #000000 #fc2828 0 1;
#X obj 964 237 tgl 15 1 6c - empty 17 7 0 10 #fcfcfc #000000 #000000 0 1;
#X obj 979 237 tgl 15 1 7c - empty 17 7 0 10 #fcfcfc #000000 #000000 0 1;
#X obj 994 237 tgl 15 1 8c - empty 17 7 0 10 #fcfcfc #000000 #000000 0 1;
#X obj 949 252 tgl 15 1 5d - empty -25 8 0 8 #fcfcfc #000000 #fc2828 0 1;
#X obj 964 252 tgl 15 1 6d - empty 17 7 0 10 #fcfcfc #000000 #000000 0 1;
#X obj 979 252 tgl 15 1 7d - empty 17 7 0 10 #fcfcfc #000000 #000000 0 1;
#X obj 994 252 tgl 15 1 8d - empty 17 7 0 10 #fcfcfc #000000 #000000 0 1;
#X obj 949 267 tgl 15 1 5e - empty -25 8 0 8 #fcfcfc #000000 #fc2828 0 1;
#X obj 964 267 tgl 15 1 6e - empty 17 7 0 10 #fcfcfc #000000 #000000 0 1;
#X obj 979 267 tgl 15 1 7e - empty 17 7 0 10 #fcfcfc #000000 #000000 0 1;
#X obj 994 267 tgl 15 1 8e - empty 17 7 0 10 #fcfcfc #000000 #000000 0 1;
#X obj 949 282 tgl 15 1 5f - empty -25 8 0 8 #fcfcfc #000000 #fc2828 0 1;
#X obj 964 282 tgl 15 0 6f - empty 17 7 0 10 #fcfcfc #000000 #000000 0 1;
#X obj 979 282 tgl 15 1 7f - empty 17 7 0 10 #fcfcfc #000000 #000000 0 1;
#X obj 994 282 tgl 15 1 8f - empty 17 7 0 10 #fcfcfc #000000 #000000 0 1;
#X obj 949 297 tgl 15 1 5g - empty -25 8 0 8 #fcfcfc #000000 #fc2828 0 1;
#X obj 964 297 tgl 15 1 6g - empty 17 7 0 10 #fcfcfc #000000 #000000 0 1;
#X obj 979 297 tgl 15 1 7g - empty 17 7 0 10 #fcfcfc #000000 #000000 0 1;
#X obj 994 297 tgl 15 1 8g - empty 17 7 0 10 #fcfcfc #000000 #000000 0 1;
#X obj 949 312 tgl 15 1 5h - empty -25 8 0 8 #fcfcfc #000000 #fc2828 0 1;
#X obj 964 312 tgl 15 1 6h - empty 17 7 0 10 #fcfcfc #000000 #000000 0 1;
#X obj 979 312 tgl 15 1 7h - empty 17 7 0 10 #fcfcfc #000000 #000000 0 1;
#X obj 994 312 tgl 15 1 8h - empty 17 7 0 10 #fcfcfc #000000 #000000 0 1;
#X obj 1009 207 tgl 15 1 9a - empty 17 7 0 10 #fcfcfc #000000 #000000 0 1;
#X obj 1024 207 tgl 15 1 10a - empty 17 7 0 10 #fcfcfc #000000 #000000 0 1;
#X obj 1009 222 tgl 15 1 9b - empty 17 7 0 10 #fcfcfc #000000 #000000 0 1;
#X obj 1024 222 tgl 15 1 10b - empty 17 7 0 10 #fcfcfc #000000 #000000 0 1;
#X obj 1009 237 tgl 15 1 9c - empty 17 7 0 10 #fcfcfc #000000 #000000 0 1;
#X obj 1024 237 tgl 15 1 10c - empty 17 7 0 10 #fcfcfc #000000 #000000 0 1;
#X obj 1009 252 tgl 15 1 9d - empty 17 7 0 10 #fcfcfc #000000 #000000 0 1;
#X obj 1024 252 tgl 15 1 10d - empty 17 7 0 10 #fcfcfc #000000 #000000 0 1;
#X obj 1009 267 tgl 15 1 9e - empty 17 7 0 10 #fcfcfc #000000 #000000 0 1;
#X obj 1024 267 tgl 15 1 10e - empty 17 7 0 10 #fcfcfc #000000 #000000 0 1;
#X obj 1009 282 tgl 15 1 9f - empty 17 7 0 10 #fcfcfc #000000 #000000 0 1;
#X obj 1024 282 tgl 15 1 10f - empty 17 7 0 10 #fcfcfc #000000 #000000 0 1;
#X obj 1009 297 tgl 15 1 9g - empty 17 7 0 10 #fcfcfc #000000 #000000 0 1;
#X obj 1024 297 tgl 15 1 10g - empty 17 7 0 10 #fcfcfc #000000 #000000 0 1;
#X obj 1009 312 tgl 15 1 9h - empty 17 7 0 10 #fcfcfc #000000 #000000 0 1;
#X obj 1024 312 tgl 15 1 10h - empty 17 7 0 10 #fcfcfc #000000 #000000 0 1;
#X text 953 190 5;
#X text 969 190 6;
#X text 984 190 7;
#X text 998 190 8;
#X text 1014 190 9;
#X text 1023 190 10;
#X obj 889 327 tgl 15 1 1i - Mod -25 8 1 8 #fcfcfc #000000 #000000 1 1;
#X obj 904 327 tgl 15 1 2i - empty 17 7 0 10 #fcfcfc #000000 #000000 0 1;
#X obj 919 327 tgl 15 1 3i - empty 17 7 0 10 #fcfcfc #000000 #000000 0 1;
#X obj 934 327 tgl 15 1 4i - empty 17 7 0 10 #fcfcfc #000000 #000000 0 1;
#X obj 889 342 tgl 15 1 1j - Vib -25 8 1 8 #fcfcfc #000000 #000000 0 1;
#X obj 904 342 tgl 15 1 2j - empty 17 7 0 10 #fcfcfc #000000 #000000 1 1;
#X obj 919 342 tgl 15 1 3j - empty 17 7 0 10 #fcfcfc #000000 #000000 1 1;
#X obj 934 342 tgl 15 1 4j - empty 17 7 0 10 #fcfcfc #000000 #000000 1 1;
#X obj 949 327 tgl 15 1 5i - empty -25 8 0 8 #fcfcfc #000000 #fc2828 0 1;
#X obj 964 327 tgl 15 1 6i - empty 17 7 0 10 #fcfcfc #000000 #000000 0 1;
#X obj 979 327 tgl 15 1 7i - empty 17 7 0 10 #fcfcfc #000000 #000000 0 1;
#X obj 994 327 tgl 15 1 8i - empty 17 7 0 10 #fcfcfc #000000 #000000 0 1;
#X obj 949 342 tgl 15 1 5j - empty -25 8 0 8 #fcfcfc #000000 #fc2828 1 1;
#X obj 964 342 tgl 15 1 6j - empty 17 7 0 10 #fcfcfc #000000 #000000 0 1;
#X obj 979 342 tgl 15 1 7j - empty 17 7 0 10 #fcfcfc #000000 #000000 0 1;
#X obj 994 342 tgl 15 1 8j - empty 17 7 0 10 #fcfcfc #000000 #000000 0 1;
#X obj 1009 327 tgl 15 1 9i - empty 17 7 0 10 #fcfcfc #000000 #000000 0 1;
#X obj 1024 327 tgl 15 1 10i - empty 17 7 0 10 #fcfcfc #000000 #000000 0 1;
#X obj 1009 342 tgl 15 1 9j - empty 17 7 0 10 #fcfcfc #000000 #000000 0 1;
#X obj 1024 342 tgl 15 1 10j - empty 17 7 0 10 #fcfcfc #000000 #000000 0 1;
#X msg 668 361 1;
#X msg 668 313 tempo \$1 permin;
#X obj 668 338 metro 1 300 permin;
#X obj 668 286 r speed;
#X obj 632 313 r ON;
#X obj 760 441 steps;
#X obj 127 368 hsl 30 30 1 13 0 1 p1 empty Pitch -35 15 1 12 #fcfcfc #000000 #000000 1900 1;
#X obj 127 411 hsl 30 30 0 1 0 1 g1 empty Gain -34 15 1 12 #fcfcfc #000000 #000000 2350 1;
#X obj 171 368 hsl 30 30 1 13 0 1 p2 empty empty -35 15 1 12 #fcfcfc #000000 #000000 1600 1;
#X obj 171 411 hsl 30 30 0 1 0 1 g2 empty empty -34 15 1 12 #fcfcfc #000000 #000000 2900 1;
#X obj 215 368 hsl 30 30 1 13 0 1 p3 empty empty -35 15 1 12 #fcfcfc #000000 #000000 557 1;
#X obj 215 411 hsl 30 30 0 1 0 1 g3 empty empty -34 15 1 12 #fcfcfc #000000 #000000 2250 1;
#X obj 257 368 hsl 30 30 1 13 0 1 p4 empty empty -35 15 1 12 #fcfcfc #000000 #000000 2200 1;
#X obj 257 411 hsl 30 30 0 1 0 1 g4 empty empty -34 15 1 12 #fcfcfc #000000 #000000 2900 1;
#X obj 301 368 hsl 30 30 1 13 0 1 p5 empty empty -35 15 1 12 #fcfcfc #000000 #000000 2900 1;
#X obj 301 411 hsl 30 30 0 1 0 1 g5 empty empty -34 15 1 12 #fcfcfc #000000 #000000 2900 1;
#X obj 344 368 hsl 30 30 1 13 0 1 p6 empty empty -35 15 1 12 #fcfcfc #000000 #000000 1950 1;
#X obj 344 411 hsl 30 30 0 1 0 1 g6 empty empty -34 15 1 12 #fcfcfc #000000 #000000 2900 1;
#X obj 388 368 hsl 30 30 1 13 0 1 p7 empty empty -35 15 1 12 #fcfcfc #000000 #000000 2900 1;
#X obj 388 411 hsl 30 30 0 1 0 1 g7 empty empty -34 15 1 12 #fcfcfc #000000 #000000 750 1;
#X obj 430 368 hsl 30 30 1 13 0 1 p8 empty empty -35 15 1 12 #fcfcfc #000000 #000000 1200 1;
#X obj 430 411 hsl 30 30 0 1 0 1 g8 empty empty -34 15 1 12 #fcfcfc #000000 #000000 650 1;
#X obj 474 368 hsl 30 30 1 13 0 1 p9 empty empty -35 15 1 12 #fcfcfc #000000 #000000 1300 1;
#X obj 474 411 hsl 30 30 0 1 0 1 g9 empty empty -34 15 1 12 #fcfcfc #000000 #000000 2050 1;
#X obj 517 368 hsl 30 30 1 13 0 1 p10 empty empty -35 15 1 12 #fcfcfc #000000 #000000 600 1;
#X obj 517 411 hsl 30 30 0 1 0 1 g10 empty empty -34 15 1 12 #fcfcfc #000000 #000000 1400 1;
#X obj 587 272 tgl 19 0 ON empty empty 0 -10 0 12 #fcfcfc #000000 #000000 0 1;
#X obj 736 591 freqscope;
#X obj 537 505 output~;
#X floatatom 143 776 5 0 0 0 - - - 0;
#X obj 143 688 cputime;
#X obj 143 568 loadbang;
#X obj 143 632 metro 1000;
#X obj 143 660 t b b;
#X obj 143 748 * 0.1;
#X obj 143 717 int;
#X obj 143 599 tgl 19 0 empty empty empty 17 7 0 10 #dfdfdf #000000 #000000 0 1;
#X text 167 599 <-- on/off;
#X obj 1046 655 tgl 19 0 empty empty empty 0 -10 0 12 #fcfcfc #000000 #000000 0 1;
#X obj 1046 679 metro 100;
#N canvas 0 50 450 250 (subpatch) 0;
#X array scope\$0 100 float 1;
#A 0 0.226226 0.215323 0.205911 0.197889 0.19116 0.185595 0.181033 0.177302 0.174231 0.171671 0.169497 0.167618 0.165966 0.164498 0.163184 0.162008 0.160956 0.16002 0.159188 0.158451 0.157795 0.157206 0.156666 0.156158 0.155665 0.155169 0.154654 0.154104 0.204378 0.271733 0.337234 0.39283 0.437042 0.471528 0.498836 0.521249 0.540372 0.557146 0.572039 0.58526 0.596924 0.607139 0.616051 0.623838 0.630696 0.636815 0.642364 0.647479 0.652267 0.6568 0.66113 0.665287 0.669292 0.673159 0.676898 0.680521 0.68404 0.68747 0.690828 0.694131 0.6974 0.700655 0.703914 0.707197 0.71052 0.713898 0.660724 0.588563 0.518491 0.459468 0.413133 0.377637 0.350139 0.328095 0.309717 0.293955 0.280287 0.268477 0.2584 0.249932 0.242912 0.237141 0.2324 0.228479 0.22519 0.22238 0.219933 0.217766 0.215825 0.214073 0.212491 0.211062 0.209774 0.208616 0.207575 0.206633 0.205773 0.204974 0.204215 0.203475;
#X coords 0 1 99 -1 200 140 1;
#X restore 516 626 graph;
#X obj 1046 703 tabwrite~ scope\$0;
#X obj 836 487 sigmund~ pitch;
#X floatatom 836 511 5 0 0 0 - - - 0;
#X text 1282 466 VARFÖR UPPDATERAS INTE PITCH O SÅ KONTINUERLIGT??????;
#X obj 69 205 tgl 24 0 empty l1 empty 0 -10 0 12 #00faff #000000 #000000 0 1;
#X obj 99 205 tgl 24 0 empty l2 empty 0 -10 0 12 #00faff #000000 #000000 0 1;
#X obj 128 205 tgl 24 0 empty l3 empty 0 -10 0 12 #00faff #000000 #000000 0 1;
#X obj 158 205 tgl 24 0 empty l4 empty 0 -10 0 12 #00faff #000000 #000000 0 1;
#X obj 187 205 tgl 24 0 empty l5 empty 0 -10 0 12 #00faff #000000 #000000 0 1;
#X obj 217 205 tgl 24 0 empty l6 empty 0 -10 0 12 #00faff #000000 #000000 0 1;
#X obj 246 205 tgl 24 0 empty l7 empty 0 -10 0 12 #00faff #000000 #000000 0 1;
#X obj 276 205 tgl 24 0 empty l8 empty 0 -10 0 12 #00faff #000000 #000000 0 1;
#X obj 306 205 tgl 24 0 empty l9 empty 0 -10 0 12 #00faff #000000 #000000 0 1;
#X obj 336 205 tgl 24 0 empty l10 empty 0 -10 0 12 #00faff #000000 #000000 0 1;
#X obj 71 236 vradio 19 1 1 3 m1 empty empty 0 -10 0 12 #fcfcfc #000000 #000000 2;
#X obj 102 236 vradio 19 1 1 3 m2 empty empty 0 -10 0 12 #fcfcfc #000000 #000000 1;
#X obj 131 236 vradio 19 1 1 3 m3 empty empty 0 -10 0 12 #fcfcfc #000000 #000000 1;
#X obj 161 236 vradio 19 1 1 3 m4 empty empty 0 -10 0 12 #fcfcfc #000000 #000000 0;
#X obj 190 236 vradio 19 1 1 3 m5 empty empty 0 -10 0 12 #fcfcfc #000000 #000000 2;
#X obj 220 235 vradio 19 1 1 3 m6 empty empty 0 -10 0 12 #fcfcfc #000000 #000000 2;
#X obj 250 236 vradio 19 1 1 3 m7 empty empty 0 -10 0 12 #fcfcfc #000000 #000000 2;
#X obj 280 236 vradio 19 1 1 3 m8 empty empty 0 -10 0 12 #fcfcfc #000000 #000000 1;
#X obj 310 236 vradio 19 1 1 3 m9 empty empty 0 -10 0 12 #fcfcfc #000000 #000000 1;
#X obj 339 236 vradio 19 1 1 3 m10 empty empty 0 -10 0 12 #fcfcfc #000000 #000000 1;
#X obj 243 110 timer;
#X floatatom 243 134 5 0 0 0 - - - 0;
#X obj 249 86 bang;
#X obj 286 109 realtime;
#X floatatom 286 133 5 0 0 0 - - - 0;
#X obj 289 86 bang;
#X obj 262 56 r l1;
#X obj 668 385 logic;
#X connect 120 0 192 0;
#X connect 121 0 122 0;
#X connect 122 0 120 0;
#X connect 123 0 121 0;
#X connect 124 0 122 0;
#X connect 125 0 147 0;
#X connect 125 0 148 0;
#X connect 125 0 161 0;
#X connect 125 0 162 0;
#X connect 150 0 155 0;
#X connect 151 0 156 0;
#X connect 152 0 153 0;
#X connect 153 0 150 0;
#X connect 153 1 150 1;
#X connect 154 0 149 0;
#X connect 155 0 154 0;
#X connect 156 0 152 0;
#X connect 158 0 159 0;
#X connect 159 0 161 0;
#X connect 162 0 163 0;
#X connect 185 0 186 0;
#X connect 187 0 185 1;
#X connect 187 0 185 0;
#X connect 188 0 189 0;
#X connect 190 0 188 1;
#X connect 190 0 188 0;
#X connect 191 0 187 0;
#X connect 191 0 190 0;
