#N canvas 0 0 1920 1026 12;
#X obj 639 33 hsl 100 25 0 1 0 1 hpf empty HPF -2 -10 1 12 #fcfcfc #000000 #000000 9900 1;
#X obj 639 124 hsl 100 25 0 1 0 1 lpf empty LPF -2 -10 1 12 #fcfcfc #000000 #000000 9900 1;
#X obj 639 78 hsl 100 25 0 1 0 1 gain empty Direct -2 -10 1 12 #fcfcfc #000000 #000000 9900 1;
#X obj 639 169 hsl 100 25 0 1 0 1 sq empty SQ -2 -10 1 12 #fcfcfc #000000 #000000 9550 1;
#X obj 755 33 hsl 100 25 0 1 0 1 high empty BPH -2 -10 1 12 #fcfcfc #000000 #000000 9900 1;
#X obj 755 78 hsl 100 25 0 1 0 1 low empty BPL -2 -10 1 12 #fcfcfc #000000 #000000 9900 1;
#X obj 755 124 hsl 100 25 12 1200 0 1 speed empty Speed -2 -10 1 12 #fcfcfc #000000 #000000 3950 1;
#X obj 871 78 hsl 100 25 0 1 0 1 grov empty Tune -2 -10 1 12 #fcfcfc #000000 #000000 0 1;
#X obj 871 124 hsl 100 25 100 200 0 1 vib empty Vib -2 -10 1 12 #fcfcfc #000000 #000000 9900 1;
#X obj 871 33 hsl 100 25 0 135 0 1 mod empty Mod -2 -10 1 12 #fcfcfc #000000 #000000 8600 1;
#X obj 470 44 tgl 15 1 1a - HPF -25 8 1 8 #fcfcfc #000000 #000000 0 1;
#X obj 485 44 tgl 15 1 2a - empty 17 7 0 10 #fcfcfc #000000 #000000 0 1;
#X obj 500 44 tgl 15 1 3a - empty 17 7 0 10 #fcfcfc #000000 #000000 0 1;
#X obj 515 44 tgl 15 1 4a - empty 17 7 0 10 #fcfcfc #000000 #000000 0 1;
#X obj 470 59 tgl 15 1 1b - Direct -25 8 1 8 #fcfcfc #000000 #000000 1 1;
#X obj 485 59 tgl 15 1 2b - empty 17 7 0 10 #fcfcfc #000000 #000000 1 1;
#X obj 500 59 tgl 15 1 3b - empty 17 7 0 10 #fcfcfc #000000 #000000 1 1;
#X obj 515 59 tgl 15 1 4b - empty 17 7 0 10 #fcfcfc #000000 #000000 1 1;
#X obj 470 74 tgl 15 1 1c - LPF -25 8 1 8 #fcfcfc #000000 #000000 0 1;
#X obj 485 74 tgl 15 1 2c - empty 17 7 0 10 #fcfcfc #000000 #000000 0 1;
#X obj 500 74 tgl 15 1 3c - empty 17 7 0 10 #fcfcfc #000000 #000000 0 1;
#X obj 515 74 tgl 15 1 4c - empty 17 7 0 10 #fcfcfc #000000 #000000 0 1;
#X obj 470 89 tgl 15 1 1d - SQ -25 8 1 8 #fcfcfc #000000 #000000 0 1;
#X obj 485 89 tgl 15 1 2d - empty 17 7 0 10 #fcfcfc #000000 #000000 0 1;
#X obj 500 89 tgl 15 1 3d - empty 17 7 0 10 #fcfcfc #000000 #000000 0 1;
#X obj 515 89 tgl 15 1 4d - empty 17 7 0 10 #fcfcfc #000000 #000000 0 1;
#X text 474 27 1;
#X text 489 27 2;
#X text 519 27 4;
#X text 505 27 3;
#X obj 470 104 tgl 15 1 1e - BPF\ 1 -25 8 1 8 #fcfcfc #000000 #000000 0 1;
#X obj 485 104 tgl 15 1 2e - empty 17 7 0 10 #fcfcfc #000000 #000000 0 1;
#X obj 500 104 tgl 15 1 3e - empty 17 7 0 10 #fcfcfc #000000 #000000 0 1;
#X obj 515 104 tgl 15 1 4e - empty 17 7 0 10 #fcfcfc #000000 #000000 0 1;
#X obj 470 119 tgl 15 1 1f - BPF\ 2 -25 8 1 8 #fcfcfc #000000 #000000 0 1;
#X obj 485 119 tgl 15 1 2f - empty 17 7 0 10 #fcfcfc #000000 #000000 0 1;
#X obj 500 119 tgl 15 1 3f - empty 17 7 0 10 #fcfcfc #000000 #000000 0 1;
#X obj 515 119 tgl 15 1 4f - empty 17 7 0 10 #fcfcfc #000000 #000000 0 1;
#X obj 470 134 tgl 15 1 1g - BPF\ 3 -25 8 1 8 #fcfcfc #000000 #000000 0 1;
#X obj 485 134 tgl 15 1 2g - empty 17 7 0 10 #fcfcfc #000000 #000000 0 1;
#X obj 500 134 tgl 15 1 3g - empty 17 7 0 10 #fcfcfc #000000 #000000 0 1;
#X obj 515 134 tgl 15 1 4g - empty 17 7 0 10 #fcfcfc #000000 #000000 0 1;
#X obj 470 149 tgl 15 1 1h - BPF\ 4 -25 8 1 8 #fcfcfc #000000 #000000 0 1;
#X obj 485 149 tgl 15 1 2h - empty 17 7 0 10 #fcfcfc #000000 #000000 0 1;
#X obj 500 149 tgl 15 1 3h - empty 17 7 0 10 #fcfcfc #000000 #000000 0 1;
#X obj 515 149 tgl 15 1 4h - empty 17 7 0 10 #fcfcfc #000000 #000000 0 1;
#X obj 530 44 tgl 15 1 5a - empty -25 8 0 8 #fcfcfc #000000 #fc2828 0 1;
#X obj 545 44 tgl 15 1 6a - empty 0 -10 0 10 #fcfcfc #000000 #000000 0 1;
#X obj 560 44 tgl 15 1 7a - empty 5 -10 0 10 #fcfcfc #000000 #000000 0 1;
#X obj 575 44 tgl 15 1 8a - empty 17 7 0 10 #fcfcfc #000000 #000000 0 1;
#X obj 530 59 tgl 15 1 5b - empty -25 8 0 8 #fcfcfc #000000 #fc2828 1 1;
#X obj 545 59 tgl 15 1 6b - empty 17 7 0 10 #fcfcfc #000000 #000000 1 1;
#X obj 560 59 tgl 15 1 7b - empty 17 7 0 10 #fcfcfc #000000 #000000 1 1;
#X obj 575 59 tgl 15 1 8b - empty 17 7 0 10 #fcfcfc #000000 #000000 1 1;
#X obj 530 74 tgl 15 1 5c - empty -25 8 0 8 #fcfcfc #000000 #fc2828 0 1;
#X obj 545 74 tgl 15 1 6c - empty 17 7 0 10 #fcfcfc #000000 #000000 0 1;
#X obj 560 74 tgl 15 1 7c - empty 17 7 0 10 #fcfcfc #000000 #000000 0 1;
#X obj 575 74 tgl 15 1 8c - empty 17 7 0 10 #fcfcfc #000000 #000000 0 1;
#X obj 530 89 tgl 15 1 5d - empty -25 8 0 8 #fcfcfc #000000 #fc2828 0 1;
#X obj 545 89 tgl 15 1 6d - empty 17 7 0 10 #fcfcfc #000000 #000000 0 1;
#X obj 560 89 tgl 15 1 7d - empty 17 7 0 10 #fcfcfc #000000 #000000 0 1;
#X obj 575 89 tgl 15 1 8d - empty 17 7 0 10 #fcfcfc #000000 #000000 0 1;
#X obj 530 104 tgl 15 1 5e - empty -25 8 0 8 #fcfcfc #000000 #fc2828 0 1;
#X obj 545 104 tgl 15 1 6e - empty 17 7 0 10 #fcfcfc #000000 #000000 0 1;
#X obj 560 104 tgl 15 1 7e - empty 17 7 0 10 #fcfcfc #000000 #000000 0 1;
#X obj 575 104 tgl 15 1 8e - empty 17 7 0 10 #fcfcfc #000000 #000000 0 1;
#X obj 530 119 tgl 15 1 5f - empty -25 8 0 8 #fcfcfc #000000 #fc2828 0 1;
#X obj 545 119 tgl 15 1 6f - empty 17 7 0 10 #fcfcfc #000000 #000000 0 1;
#X obj 560 119 tgl 15 1 7f - empty 17 7 0 10 #fcfcfc #000000 #000000 0 1;
#X obj 575 119 tgl 15 1 8f - empty 17 7 0 10 #fcfcfc #000000 #000000 0 1;
#X obj 530 134 tgl 15 1 5g - empty -25 8 0 8 #fcfcfc #000000 #fc2828 0 1;
#X obj 545 134 tgl 15 1 6g - empty 17 7 0 10 #fcfcfc #000000 #000000 0 1;
#X obj 560 134 tgl 15 1 7g - empty 17 7 0 10 #fcfcfc #000000 #000000 0 1;
#X obj 575 134 tgl 15 1 8g - empty 17 7 0 10 #fcfcfc #000000 #000000 0 1;
#X obj 530 149 tgl 15 1 5h - empty -25 8 0 8 #fcfcfc #000000 #fc2828 0 1;
#X obj 545 149 tgl 15 1 6h - empty 17 7 0 10 #fcfcfc #000000 #000000 0 1;
#X obj 560 149 tgl 15 1 7h - empty 17 7 0 10 #fcfcfc #000000 #000000 0 1;
#X obj 575 149 tgl 15 1 8h - empty 17 7 0 10 #fcfcfc #000000 #000000 0 1;
#X obj 590 44 tgl 15 1 9a - empty 17 7 0 10 #fcfcfc #000000 #000000 0 1;
#X obj 605 44 tgl 15 1 10a - empty 17 7 0 10 #fcfcfc #000000 #000000 0 1;
#X obj 590 59 tgl 15 1 9b - empty 17 7 0 10 #fcfcfc #000000 #000000 1 1;
#X obj 605 59 tgl 15 1 10b - empty 17 7 0 10 #fcfcfc #000000 #000000 1 1;
#X obj 590 74 tgl 15 1 9c - empty 17 7 0 10 #fcfcfc #000000 #000000 0 1;
#X obj 605 74 tgl 15 1 10c - empty 17 7 0 10 #fcfcfc #000000 #000000 0 1;
#X obj 590 89 tgl 15 1 9d - empty 17 7 0 10 #fcfcfc #000000 #000000 0 1;
#X obj 605 89 tgl 15 1 10d - empty 17 7 0 10 #fcfcfc #000000 #000000 0 1;
#X obj 590 104 tgl 15 1 9e - empty 17 7 0 10 #fcfcfc #000000 #000000 0 1;
#X obj 605 104 tgl 15 1 10e - empty 17 7 0 10 #fcfcfc #000000 #000000 0 1;
#X obj 590 119 tgl 15 1 9f - empty 17 7 0 10 #fcfcfc #000000 #000000 0 1;
#X obj 605 119 tgl 15 1 10f - empty 17 7 0 10 #fcfcfc #000000 #000000 0 1;
#X obj 590 134 tgl 15 1 9g - empty 17 7 0 10 #fcfcfc #000000 #000000 0 1;
#X obj 605 134 tgl 15 1 10g - empty 17 7 0 10 #fcfcfc #000000 #000000 0 1;
#X obj 590 149 tgl 15 1 9h - empty 17 7 0 10 #fcfcfc #000000 #000000 0 1;
#X obj 605 149 tgl 15 1 10h - empty 17 7 0 10 #fcfcfc #000000 #000000 0 1;
#X text 534 27 5;
#X text 549 27 6;
#X text 564 27 7;
#X text 579 27 8;
#X text 593 27 9;
#X text 604 27 10;
#X obj 470 164 tgl 15 1 1i - Mod -25 8 1 8 #fcfcfc #000000 #000000 0 1;
#X obj 485 164 tgl 15 1 2i - empty 17 7 0 10 #fcfcfc #000000 #000000 0 1;
#X obj 500 164 tgl 15 1 3i - empty 17 7 0 10 #fcfcfc #000000 #000000 0 1;
#X obj 515 164 tgl 15 1 4i - empty 17 7 0 10 #fcfcfc #000000 #000000 0 1;
#X obj 470 179 tgl 15 1 1j - Vib -25 8 1 8 #fcfcfc #000000 #000000 0 1;
#X obj 485 179 tgl 15 1 2j - empty 17 7 0 10 #fcfcfc #000000 #000000 0 1;
#X obj 500 179 tgl 15 1 3j - empty 17 7 0 10 #fcfcfc #000000 #000000 0 1;
#X obj 515 179 tgl 15 1 4j - empty 17 7 0 10 #fcfcfc #000000 #000000 0 1;
#X obj 530 164 tgl 15 1 5i - empty -25 8 0 8 #fcfcfc #000000 #fc2828 0 1;
#X obj 545 164 tgl 15 1 6i - empty 17 7 0 10 #fcfcfc #000000 #000000 0 1;
#X obj 560 164 tgl 15 1 7i - empty 17 7 0 10 #fcfcfc #000000 #000000 0 1;
#X obj 575 164 tgl 15 1 8i - empty 17 7 0 10 #fcfcfc #000000 #000000 0 1;
#X obj 530 179 tgl 15 1 5j - empty -25 8 0 8 #fcfcfc #000000 #fc2828 0 1;
#X obj 545 179 tgl 15 1 6j - empty 17 7 0 10 #fcfcfc #000000 #000000 0 1;
#X obj 560 179 tgl 15 1 7j - empty 17 7 0 10 #fcfcfc #000000 #000000 0 1;
#X obj 575 179 tgl 15 1 8j - empty 17 7 0 10 #fcfcfc #000000 #000000 0 1;
#X obj 590 164 tgl 15 1 9i - empty 17 7 0 10 #fcfcfc #000000 #000000 0 1;
#X obj 605 164 tgl 15 1 10i - empty 17 7 0 10 #fcfcfc #000000 #000000 0 1;
#X obj 590 179 tgl 15 1 9j - empty 17 7 0 10 #fcfcfc #000000 #000000 0 1;
#X obj 605 179 tgl 15 1 10j - empty 17 7 0 10 #fcfcfc #000000 #000000 0 1;
#X msg 247 341 1;
#X msg 247 299 tempo \$1 permin;
#X obj 247 320 metro 1 300 permin;
#X obj 247 278 r speed;
#X obj 213 299 r ON;
#X obj 17 264 steps;
#X obj 42 68 hsl 30 30 1 13 0 1 p1 empty Pitch -35 15 1 12 #fcfcfc #000000 #000000 2200 1;
#X obj 42 109 hsl 30 30 0 1 0 1 g1 empty Gain -34 15 1 12 #fcfcfc #000000 #000000 2900 1;
#X obj 82 68 hsl 30 30 1 13 0 1 p2 empty empty -35 15 1 12 #fcfcfc #000000 #000000 2200 1;
#X obj 82 109 hsl 30 30 0 1 0 1 g2 empty empty -34 15 1 12 #fcfcfc #000000 #000000 2900 1;
#X obj 122 68 hsl 30 30 1 13 0 1 p3 empty empty -35 15 1 12 #fcfcfc #000000 #000000 1900 1;
#X obj 122 109 hsl 30 30 0 1 0 1 g3 empty empty -34 15 1 12 #fcfcfc #000000 #000000 2900 1;
#X obj 162 68 hsl 30 30 1 13 0 1 p4 empty empty -35 15 1 12 #fcfcfc #000000 #000000 2150 1;
#X obj 162 109 hsl 30 30 0 1 0 1 g4 empty empty -34 15 1 12 #fcfcfc #000000 #000000 2900 1;
#X obj 202 68 hsl 30 30 1 13 0 1 p5 empty empty -35 15 1 12 #fcfcfc #000000 #000000 750 1;
#X obj 202 109 hsl 30 30 0 1 0 1 g5 empty empty -34 15 1 12 #fcfcfc #000000 #000000 2900 1;
#X obj 242 68 hsl 30 30 1 13 0 1 p6 empty empty -35 15 1 12 #fcfcfc #000000 #000000 1800 1;
#X obj 242 109 hsl 30 30 0 1 0 1 g6 empty empty -34 15 1 12 #fcfcfc #000000 #000000 2900 1;
#X obj 282 68 hsl 30 30 1 13 0 1 p7 empty empty -35 15 1 12 #fcfcfc #000000 #000000 1900 1;
#X obj 282 109 hsl 30 30 0 1 0 1 g7 empty empty -34 15 1 12 #fcfcfc #000000 #000000 2900 1;
#X obj 322 68 hsl 30 30 1 13 0 1 p8 empty empty -35 15 1 12 #fcfcfc #000000 #000000 1050 1;
#X obj 322 109 hsl 30 30 0 1 0 1 g8 empty empty -34 15 1 12 #fcfcfc #000000 #000000 2900 1;
#X obj 362 68 hsl 30 30 1 13 0 1 p9 empty empty -35 15 1 12 #fcfcfc #000000 #000000 1200 1;
#X obj 362 109 hsl 30 30 0 1 0 1 g9 empty empty -34 15 1 12 #fcfcfc #000000 #000000 2900 1;
#X obj 402 68 hsl 30 30 1 13 0 1 p10 empty empty -35 15 1 12 #fcfcfc #000000 #000000 1000 1;
#X obj 402 109 hsl 30 30 0 1 0 1 g10 empty empty -34 15 1 12 #fcfcfc #000000 #000000 2900 1;
#X obj 752 169 tgl 25 0 ON empty Power -2 -10 1 12 #fcfcfc #000000 #000000 0 1;
#X obj 40 24 tgl 33 0 empty l1 empty 0 -10 0 12 #0080ff #c6feff #000000 0 1;
#X obj 80 24 tgl 33 0 empty l2 empty 0 -10 0 12 #0080ff #c6feff #000000 0 1;
#X obj 120 24 tgl 33 0 empty l3 empty 0 -10 0 12 #0080ff #c6feff #000000 0 1;
#X obj 160 24 tgl 33 0 empty l4 empty 0 -10 0 12 #0080ff #c6feff #000000 0 1;
#X obj 200 24 tgl 33 0 empty l5 empty 0 -10 0 12 #0080ff #c6feff #000000 0 1;
#X obj 240 24 tgl 33 0 empty l6 empty 0 -10 0 12 #0080ff #c6feff #000000 0 1;
#X obj 280 24 tgl 33 0 empty l7 empty 0 -10 0 12 #0080ff #c6feff #000000 0 1;
#X obj 320 24 tgl 33 0 empty l8 empty 0 -10 0 12 #0080ff #c6feff #000000 0 1;
#X obj 360 24 tgl 33 0 empty l9 empty 0 -10 0 12 #0080ff #c6feff #000000 0 1;
#X obj 400 24 tgl 33 0 empty l10 empty 0 -10 0 12 #0080ff #c6feff #000000 0 1;
#X obj 46 150 vradio 20 1 1 3 m1 empty empty 0 -10 0 12 #fcfcfc #000000 #000000 0;
#X obj 85 150 vradio 20 1 1 3 m2 empty empty 0 -10 0 12 #fcfcfc #000000 #000000 2;
#X obj 126 150 vradio 20 1 1 3 m3 empty empty 0 -10 0 12 #fcfcfc #000000 #000000 2;
#X obj 165 150 vradio 20 1 1 3 m4 empty empty 0 -10 0 12 #fcfcfc #000000 #000000 2;
#X obj 205 150 vradio 20 1 1 3 m5 empty empty 0 -10 0 12 #fcfcfc #000000 #000000 2;
#X obj 245 149 vradio 20 1 1 3 m6 empty empty 0 -10 0 12 #fcfcfc #000000 #000000 2;
#X obj 285 150 vradio 20 1 1 3 m7 empty empty 0 -10 0 12 #fcfcfc #000000 #000000 2;
#X obj 326 150 vradio 20 1 1 3 m8 empty empty 0 -10 0 12 #fcfcfc #000000 #000000 2;
#X obj 367 150 vradio 20 1 1 3 m9 empty empty 0 -10 0 12 #fcfcfc #000000 #000000 2;
#X obj 405 150 vradio 20 1 1 3 m10 empty empty 0 -10 0 12 #fcfcfc #000000 #000000 2;
#X obj 247 362 logic;
#X obj 16 306 dac~;
#X obj 247 385 r ON;
#X msg 247 406 \; pd dsp \$1;
#X text 81 260 Andromatic 2024-02-05 Amanda Andrén;
#X msg 184 292 \; - 0;
#X obj 58 285 metro 100;
#X obj 58 306 tabwrite~ sound\$0;
#N canvas 0 50 450 250 (subpatch) 0;
#X array sound\$0 100 float 1;
#A 0 0.0795697 0.0809061 0.0821302 0.0832295 0.084261 0.0852462 0.0861895 0.087081 0.0879082 0.0886528 0.0892998 0.06105 0.0615003 0.0619925 0.0625159 0.0630607 0.0636187 0.0641827 0.0647465 0.065305 0.0658537 0.066389 0.0669081 0.0674084 0.0678882 0.0718162 0.0779159 0.0851406 0.0926774 0.099934 0.106514 0.112168 0.114546 0.115931 0.116408 0.116104 0.115171 0.113764 0.112034 0.110119 0.108137 0.106184 0.10434 0.10266 0.101185 0.0999399 0.0989395 0.0981879 0.0976838 0.0974207 0.0973896 0.126295 0.126391 0.126395 0.1263 0.126106 0.125821 0.125454 0.125016 0.124519 0.123975 0.123395 0.122788 0.122165 0.121534 0.120901 0.120274 0.119656 0.119054 0.11847 0.116805 0.118555 0.120322 0.122092 0.123854 0.125592 0.127293 0.128943 0.130531 0.132042 0.133465 0.134788 0.136 0.137092 0.138054 0.138878 0.139557 0.136616 0.131323 0.124722 0.0888377 0.0818782 0.0755875 0.0701962 0.0658032 0.0624081 0.059941 0.0583549 0.0575455 0.0573813;
#X coords 0 1 99 -1 200 140 1;
#X restore 16 341 graph;
#X obj 58 264 tgl 19 0 empty empty empty 0 -10 0 12 #fcfcfc #000000 #000000 0 1;
#X obj 17 285 *~ 1;
#X obj 381 362 tgl 19 0 empty empty empty 0 -10 0 12 #fcfcfc #000000 #000000 0 1;
#X obj 423 362 tgl 19 0 empty empty empty 0 -10 0 12 #fcfcfc #000000 #000000 0 1;
#X msg 368 427 0;
#X msg 368 448 2;
#X msg 424 426 2;
#X msg 424 447 1;
#X msg 457 426 0;
#X obj 807 169 hradio 25 1 1 2 empty empty Presets 0 -10 1 12 #fcfcfc #000000 #000000 0;
#X obj 381 320 t f f;
#X obj 381 341 == 0;
#X obj 415 341 == 1;
#X obj 381 384 sel 1;
#X obj 423 384 sel 1;
#X obj 390 278 change;
#X obj 390 299 t f f;
#X msg 422 320 1;
#X obj 457 447 bang;
#X obj 368 405 t f f f;
#X msg 368 469 1;
#X obj 423 405 t f f f;
#X connect 120 0 167 0;
#X connect 121 0 122 0;
#X connect 122 0 120 0;
#X connect 123 0 121 0;
#X connect 124 0 122 0;
#X connect 125 0 177 0;
#X connect 125 0 174 0;
#X connect 169 0 170 0;
#X connect 173 0 174 0;
#X connect 176 0 173 0;
#X connect 177 0 168 0;
#X connect 177 0 168 1;
#X connect 178 0 14 0;
#X connect 178 0 15 0;
#X connect 178 0 16 0;
#X connect 178 0 17 0;
#X connect 178 0 50 0;
#X connect 178 0 51 0;
#X connect 178 0 52 0;
#X connect 178 0 53 0;
#X connect 178 0 80 0;
#X connect 178 0 81 0;
#X connect 178 0 189 0;
#X connect 179 0 22 0;
#X connect 179 0 23 0;
#X connect 179 0 20 0;
#X connect 179 0 21 0;
#X connect 179 0 70 0;
#X connect 179 0 71 0;
#X connect 179 0 68 0;
#X connect 179 0 69 0;
#X connect 179 0 113 0;
#X connect 179 0 114 0;
#X connect 179 0 78 0;
#X connect 179 0 83 0;
#X connect 179 0 118 0;
#X connect 179 0 106 0;
#X connect 179 0 105 0;
#X connect 179 0 190 0;
#X connect 180 0 157 0;
#X connect 181 0 158 0;
#X connect 181 0 159 0;
#X connect 181 0 160 0;
#X connect 181 0 161 0;
#X connect 181 0 162 0;
#X connect 181 0 163 0;
#X connect 181 0 164 0;
#X connect 181 0 165 0;
#X connect 181 0 166 0;
#X connect 182 0 157 0;
#X connect 182 0 161 0;
#X connect 182 0 162 0;
#X connect 182 0 163 0;
#X connect 183 0 158 0;
#X connect 183 0 159 0;
#X connect 183 0 164 0;
#X connect 183 0 165 0;
#X connect 183 0 166 0;
#X connect 184 0 160 0;
#X connect 184 0 194 0;
#X connect 185 0 191 0;
#X connect 186 0 187 0;
#X connect 186 1 188 0;
#X connect 187 0 178 0;
#X connect 188 0 179 0;
#X connect 189 0 195 0;
#X connect 190 0 197 0;
#X connect 191 0 192 0;
#X connect 192 0 186 0;
#X connect 192 1 193 0;
#X connect 193 0 157 0;
#X connect 194 0 160 0;
#X connect 195 0 180 0;
#X connect 195 1 196 0;
#X connect 195 2 181 0;
#X connect 196 0 157 0;
#X connect 197 0 184 0;
#X connect 197 1 183 0;
#X connect 197 2 182 0;
#X coords 0 -1 1 1 1000 250 2 5 5;
