#N canvas -321 118 1920 1016 12;
#X obj 33 214 bp64-4;
#X obj 97 214 bp32-2;
#X obj 159 214 bp16-1;
#X obj 217 215 bp8-5;
#X obj 37 256 +~;
#X obj 117 256 +~;
#X obj 74 285 +~;
#X obj 161 255 +~;
#X obj 232 254 +~;
#X obj 201 286 +~;
#X obj 74 313 *~;
#X obj 201 311 *~;
#X obj 74 342 +~;
#X obj 33 187 *~;
#X obj 97 188 *~;
#X obj 159 188 *~;
#X obj 217 190 *~;
#X obj 33 24 inlet~;
#X obj 74 378 outlet~;
#X obj 33 114 bpmod;
#X obj 89 24 inlet;
#X obj 136 24 inlet;
#X obj 180 24 inlet;
#X obj 225 24 inlet;
#X obj 270 24 inlet;
#X obj 385 175 sigmund~ pitch;
#X floatatom 385 199 5 0 0 0 - - - 0;
#X obj 316 25 r high;
#X obj 369 25 r low;
#X connect 0 0 4 0;
#X connect 0 1 7 0;
#X connect 1 0 4 1;
#X connect 1 1 7 1;
#X connect 2 0 5 0;
#X connect 2 1 8 0;
#X connect 3 0 5 1;
#X connect 3 1 8 1;
#X connect 4 0 6 0;
#X connect 5 0 6 1;
#X connect 6 0 10 0;
#X connect 7 0 9 0;
#X connect 8 0 9 1;
#X connect 9 0 11 0;
#X connect 10 0 12 0;
#X connect 11 0 12 1;
#X connect 12 0 18 0;
#X connect 13 0 0 0;
#X connect 14 0 1 0;
#X connect 15 0 2 0;
#X connect 16 0 3 0;
#X connect 17 0 19 0;
#X connect 19 0 13 0;
#X connect 19 0 14 0;
#X connect 19 0 15 0;
#X connect 19 0 16 0;
#X connect 20 0 19 1;
#X connect 21 0 13 1;
#X connect 22 0 14 1;
#X connect 23 0 15 1;
#X connect 24 0 16 1;
#X connect 25 0 26 0;
#X connect 27 0 10 1;
#X connect 28 0 11 1;
