#N canvas 38 38 1920 1016 12;
#X obj 27 36 inlet~;
#X obj 27 136 *~;
#X obj 131 137 *~;
#X obj 27 160 outlet~;
#X obj 131 161 outlet~;
#X obj 27 112 bp~ 3200 2.5;
#X obj 131 113 bp~ 200 2.5;
#X obj 83 36 r high;
#X obj 137 36 r low;
#X connect 0 0 5 0;
#X connect 0 0 6 0;
#X connect 1 0 3 0;
#X connect 2 0 4 0;
#X connect 5 0 1 0;
#X connect 6 0 2 0;
#X connect 7 0 1 1;
#X connect 8 0 2 1;
