#N canvas 1863 0 1920 1016 12;
#X obj 56 29 inlet~;
#X obj 56 409 outlet~;
#X obj 56 363 *~;
#X obj 74 334 vline~;
#X msg 131 283 1 \$1;
#X msg 74 283 0.3 \$1;
#X obj 122 229 f;
#X obj 64 204 f;
#X obj 122 203 del;
#X obj 64 228 t f f f;
#X floatatom 109 101 5 0 0 0 - - - 0;
#X obj 77 175 metro;
#X obj 109 124 t f f;
#X obj 109 150 * 2;
#X text 109 7 modulation speed;
#X obj 222 30 inlet;
#X obj 109 60 f;
#X obj 222 54 t f f;
#X obj 254 82 sel 1;
#X obj 254 106 t b b;
#X obj 222 138 sel 0;
#X obj 222 162 t b b;
#X msg 254 186 0;
#X msg 222 283 1;
#X obj 233 244 loadbang;
#X text 269 27 On/Off;
#X obj 109 29 r mod;
#X connect 0 0 2 0;
#X connect 2 0 1 0;
#X connect 3 0 2 1;
#X connect 4 0 3 0;
#X connect 5 0 3 0;
#X connect 6 0 4 0;
#X connect 7 0 9 0;
#X connect 8 0 6 0;
#X connect 9 0 6 1;
#X connect 9 1 8 0;
#X connect 9 2 5 0;
#X connect 10 0 12 0;
#X connect 11 0 10 0;
#X connect 12 0 13 0;
#X connect 12 1 7 0;
#X connect 13 0 11 1;
#X connect 15 0 17 0;
#X connect 16 0 10 0;
#X connect 17 0 20 0;
#X connect 17 1 18 0;
#X connect 18 0 19 0;
#X connect 19 0 16 0;
#X connect 19 1 11 0;
#X connect 20 0 21 0;
#X connect 21 0 23 0;
#X connect 21 1 22 0;
#X connect 22 0 11 0;
#X connect 23 0 3 0;
#X connect 24 0 23 0;
#X connect 26 0 16 0;
