#N canvas 950 0 958 1004 12;
#X obj 189 251 JKFF, f 9;
#X obj 106 221 != 1;
#X msg 189 182 1;
#X obj 189 206 t f f;
#X obj 150 116 t f f b f;
#X text 293 182 testar att byta db;
#X obj 153 383 outlet lamp;
#X obj 45 39 inlet DF;
#X obj 136 39 inlet clk;
#X obj 240 41 inlet reset;
#X obj 336 40 inlet DB;
#X obj 57 383 outlet DB;
#X obj 256 383 outlet DF;
#X obj 348 384 outlet clk;
#X msg 239 66 0;
#X obj 72 263 f;
#X obj 355 333 f;
#X obj 139 86 t b b;
#X obj 136 63 sel 1;
#X connect 0 0 6 0;
#X connect 0 1 12 0;
#X connect 1 0 15 1;
#X connect 2 0 3 0;
#X connect 3 0 0 0;
#X connect 3 1 0 2;
#X connect 4 0 0 1;
#X connect 4 1 1 0;
#X connect 4 2 2 0;
#X connect 4 3 16 1;
#X connect 7 0 4 0;
#X connect 8 0 18 0;
#X connect 9 0 14 0;
#X connect 14 0 0 3;
#X connect 15 0 11 0;
#X connect 16 0 13 0;
#X connect 17 0 15 0;
#X connect 17 1 16 0;
#X connect 18 0 17 0;
