#N canvas 76 76 450 300 12;
#N canvas -142 128 1920 1016 filterpack1 0;
#X obj 99 93 filterpack, f 20;
#X obj 24 51 r 1a;
#X obj 62 51 r 1b;
#X obj 98 52 r 1c;
#X obj 135 52 r 1d;
#X obj 171 51 r 1e;
#X obj 209 51 r 1f;
#X obj 244 52 r 1g;
#X obj 280 51 r 1h;
#X listbox 99 117 20 0 0 0 - - - 0;
#X obj 107 204 outlet;
#X obj 316 51 r 1i;
#X obj 352 50 r 1j;
#X connect 0 0 9 0;
#X connect 0 0 10 0;
#X connect 1 0 0 0;
#X connect 2 0 0 1;
#X connect 3 0 0 2;
#X connect 4 0 0 3;
#X connect 5 0 0 4;
#X connect 6 0 0 5;
#X connect 7 0 0 6;
#X connect 8 0 0 7;
#X connect 11 0 0 8;
#X connect 12 0 0 9;
#X restore 39 37 pd filterpack1;
#N canvas 98 994 1920 1016 filterpack10 0;
#X obj 109 76 filterpack, f 20;
#X listbox 111 101 20 0 0 0 - - - 0;
#X obj 11 37 r 10a;
#X obj 52 37 r 10b;
#X obj 96 37 r 10c;
#X obj 138 38 r 10d;
#X obj 181 38 r 10e;
#X obj 222 37 r 10f;
#X obj 264 36 r 10g;
#X obj 308 35 r 10h;
#X obj 132 172 outlet;
#X obj 353 34 r 10i;
#X obj 397 33 r 10j;
#X connect 0 0 1 0;
#X connect 0 0 10 0;
#X connect 2 0 0 0;
#X connect 3 0 0 1;
#X connect 4 0 0 2;
#X connect 5 0 0 3;
#X connect 6 0 0 4;
#X connect 7 0 0 5;
#X connect 8 0 0 6;
#X connect 9 0 0 7;
#X connect 11 0 0 8;
#X connect 12 0 0 9;
#X restore 689 66 pd filterpack10;
#N canvas 152 152 1613 817 filterpack2 0;
#X obj 88 58 filterpack, f 20;
#X listbox 88 82 20 0 0 0 - - - 0;
#X obj 20 18 r 2a;
#X obj 58 18 r 2b;
#X obj 94 19 r 2c;
#X obj 240 19 r 2g;
#X obj 205 18 r 2f;
#X obj 168 18 r 2e;
#X obj 131 19 r 2d;
#X obj 278 19 r 2h;
#X obj 94 118 outlet;
#X obj 322 19 r 2i;
#X obj 357 20 r 2j;
#X connect 0 0 1 0;
#X connect 1 0 10 0;
#X connect 2 0 0 0;
#X connect 3 0 0 1;
#X connect 4 0 0 2;
#X connect 5 0 0 6;
#X connect 6 0 0 5;
#X connect 7 0 0 4;
#X connect 8 0 0 3;
#X connect 9 0 0 7;
#X connect 11 0 0 8;
#X connect 12 0 0 9;
#X restore 109 68 pd filterpack2;
#N canvas 48 130 885 448 filterpack3 0;
#X obj 88 58 filterpack, f 20;
#X listbox 88 82 20 0 0 0 - - - 0;
#X obj 18 26 r 3a;
#X obj 55 26 r 3b;
#X obj 92 27 r 3c;
#X obj 129 27 r 3d;
#X obj 166 26 r 3e;
#X obj 203 26 r 3f;
#X obj 238 27 r 3g;
#X obj 276 27 r 3h;
#X obj 111 136 outlet;
#X obj 314 28 r 3i;
#X obj 352 28 r 3j;
#X connect 0 0 1 0;
#X connect 0 0 10 0;
#X connect 2 0 0 0;
#X connect 3 0 0 1;
#X connect 4 0 0 2;
#X connect 5 0 0 3;
#X connect 6 0 0 4;
#X connect 7 0 0 5;
#X connect 8 0 0 6;
#X connect 9 0 0 7;
#X connect 11 0 0 8;
#X connect 12 0 0 9;
#X restore 175 37 pd filterpack3;
#N canvas 791 230 934 470 filterpack4 0;
#X obj 101 74 filterpack, f 20;
#X listbox 101 98 20 0 0 0 - - - 0;
#X obj 32 39 r 4a;
#X obj 70 39 r 4b;
#X obj 106 40 r 4c;
#X obj 143 40 r 4d;
#X obj 180 39 r 4e;
#X obj 217 39 r 4f;
#X obj 252 40 r 4g;
#X obj 290 40 r 4h;
#X obj 139 163 outlet;
#X obj 328 39 r 4i;
#X obj 366 39 r 4j;
#X connect 0 0 1 0;
#X connect 0 0 10 0;
#X connect 2 0 0 0;
#X connect 3 0 0 1;
#X connect 4 0 0 2;
#X connect 5 0 0 3;
#X connect 6 0 0 4;
#X connect 7 0 0 5;
#X connect 8 0 0 6;
#X connect 9 0 0 7;
#X connect 11 0 0 8;
#X connect 12 0 0 9;
#X restore 259 68 pd filterpack4;
#N canvas 38 38 1718 910 filterpack5 0;
#X obj 92 57 filterpack, f 20;
#X listbox 92 81 20 0 0 0 - - - 0;
#X obj 24 23 r 5a;
#X obj 62 23 r 5b;
#X obj 98 24 r 5c;
#X obj 135 24 r 5d;
#X obj 172 23 r 5e;
#X obj 209 23 r 5f;
#X obj 244 24 r 5g;
#X obj 282 24 r 5h;
#X obj 135 123 outlet;
#X obj 318 23 r 5i;
#X obj 356 23 r 5j;
#X connect 0 0 1 0;
#X connect 0 0 10 0;
#X connect 2 0 0 0;
#X connect 3 0 0 1;
#X connect 4 0 0 2;
#X connect 5 0 0 3;
#X connect 6 0 0 4;
#X connect 7 0 0 5;
#X connect 8 0 0 6;
#X connect 9 0 0 7;
#X connect 11 0 0 8;
#X connect 12 0 0 9;
#X restore 335 34 pd filterpack5;
#N canvas 38 38 1920 1016 filterpack6 0;
#X obj 88 57 filterpack, f 20;
#X listbox 88 81 20 0 0 0 - - - 0;
#X obj 17 19 r 6a;
#X obj 55 19 r 6b;
#X obj 91 20 r 6c;
#X obj 128 20 r 6d;
#X obj 165 19 r 6e;
#X obj 202 19 r 6f;
#X obj 237 20 r 6g;
#X obj 275 20 r 6h;
#X obj 196 194 outlet;
#X obj 310 20 r 6i;
#X obj 348 20 r 6j;
#X connect 0 0 1 0;
#X connect 0 0 10 0;
#X connect 2 0 0 0;
#X connect 3 0 0 1;
#X connect 4 0 0 2;
#X connect 5 0 0 3;
#X connect 6 0 0 4;
#X connect 7 0 0 5;
#X connect 8 0 0 6;
#X connect 9 0 0 7;
#X connect 11 0 0 8;
#X connect 12 0 0 9;
#X restore 395 66 pd filterpack6;
#N canvas 1886 176 1920 1016 filterpack7 0;
#X obj 88 57 filterpack, f 20;
#X listbox 88 81 20 0 0 0 - - - 0;
#X obj 17 22 r 7a;
#X obj 55 22 r 7b;
#X obj 91 23 r 7c;
#X obj 128 23 r 7d;
#X obj 165 22 r 7e;
#X obj 202 22 r 7f;
#X obj 237 23 r 7g;
#X obj 275 23 r 7h;
#X obj 176 225 outlet;
#X obj 313 23 r 7i;
#X obj 351 22 r 7j;
#X connect 0 0 1 0;
#X connect 0 0 10 0;
#X connect 2 0 0 0;
#X connect 3 0 0 1;
#X connect 4 0 0 2;
#X connect 5 0 0 3;
#X connect 6 0 0 4;
#X connect 7 0 0 5;
#X connect 8 0 0 6;
#X connect 9 0 0 7;
#X connect 11 0 0 8;
#X connect 12 0 0 9;
#X restore 488 30 pd filterpack7;
#N canvas 240 -12 1920 1016 filterpack8 0;
#X obj 88 57 filterpack, f 20;
#X listbox 88 81 20 0 0 0 - - - 0;
#X obj 20 30 r 8a;
#X obj 58 30 r 8b;
#X obj 94 31 r 8c;
#X obj 131 31 r 8d;
#X obj 168 30 r 8e;
#X obj 205 31 r 8f;
#X obj 240 31 r 8g;
#X obj 280 31 r 8h;
#X obj 97 147 outlet;
#X obj 319 31 r 8i;
#X obj 359 31 r 8j;
#X connect 0 0 1 0;
#X connect 0 0 10 0;
#X connect 2 0 0 0;
#X connect 3 0 0 1;
#X connect 4 0 0 2;
#X connect 5 0 0 3;
#X connect 6 0 0 4;
#X connect 7 0 0 5;
#X connect 8 0 0 6;
#X connect 9 0 0 7;
#X connect 11 0 0 8;
#X connect 12 0 0 9;
#X restore 544 63 pd filterpack8;
#N canvas -10 0 958 464 filterpack9 0;
#X obj 88 57 filterpack, f 20;
#X listbox 88 81 20 0 0 0 - - - 0;
#X obj 16 22 r 9a;
#X obj 54 20 r 9b;
#X obj 90 23 r 9c;
#X obj 127 23 r 9d;
#X obj 164 22 r 9e;
#X obj 201 22 r 9f;
#X obj 236 23 r 9g;
#X obj 274 23 r 9h;
#X obj 93 125 outlet;
#X obj 316 23 r 9g;
#X obj 354 23 r 9h;
#X connect 0 0 1 0;
#X connect 0 0 10 0;
#X connect 2 0 0 0;
#X connect 3 0 0 1;
#X connect 4 0 0 2;
#X connect 5 0 0 3;
#X connect 6 0 0 4;
#X connect 7 0 0 5;
#X connect 8 0 0 6;
#X connect 9 0 0 7;
#X connect 11 0 0 8;
#X connect 12 0 0 9;
#X restore 631 32 pd filterpack9;
#X obj 99 342 outlet;
#X obj 160 341 outlet;
#X obj 231 344 outlet;
#X obj 292 344 outlet;
#X obj 360 344 outlet;
#X obj 421 343 outlet;
#X obj 492 346 outlet;
#X obj 553 346 outlet;
#X obj 631 344 outlet;
#X obj 692 344 outlet;
#X connect 0 0 10 0;
#X connect 1 0 19 0;
#X connect 2 0 11 0;
#X connect 3 0 12 0;
#X connect 4 0 13 0;
#X connect 5 0 14 0;
#X connect 6 0 15 0;
#X connect 7 0 16 0;
#X connect 8 0 17 0;
#X connect 9 0 18 0;
