#N canvas 114 114 1920 1016 12;
#X obj 61 37 inlet~;
#X obj 112 37 inlet freq;
#X obj 61 88 hip~;
#X obj 137 113 *~ 0.8;
#X obj 137 137 clip~ -0.99 0.99;
#X obj 61 160 outlet~;
#X text 267 126 tog bort eftersom denna är oklar varför den är kvar;
#X connect 0 0 2 0;
#X connect 1 0 2 1;
#X connect 2 0 5 0;
#X connect 3 0 4 0;
