#N canvas 1878 998 1920 1016 12;
#X obj 275 126 tgl 24 0 empty l1 empty 0 -10 0 12 #00faff #000000 #000000 0 1;
#X obj 305 126 tgl 24 0 empty l2 empty 0 -10 0 12 #00faff #000000 #000000 0 1;
#X obj 334 126 tgl 24 0 empty l3 empty 0 -10 0 12 #00faff #000000 #000000 0 1;
#X obj 364 126 tgl 24 0 empty l4 empty 0 -10 0 12 #00faff #000000 #000000 0 1;
#X obj 393 126 tgl 24 0 empty l5 empty 0 -10 0 12 #00faff #000000 #000000 0 1;
#X obj 423 126 tgl 24 0 empty l6 empty 0 -10 0 12 #00faff #000000 #000000 0 1;
#X obj 452 126 tgl 24 0 empty l7 empty 0 -10 0 12 #00faff #000000 #000000 0 1;
#X obj 482 126 tgl 24 0 empty l8 empty 0 -10 0 12 #00faff #000000 #000000 0 1;
#X obj 512 126 tgl 24 0 empty l9 empty 0 -10 0 12 #00faff #000000 #000000 0 1;
#X obj 542 126 tgl 24 0 empty l10 empty 0 -10 0 12 #00faff #000000 #000000 0 1;
#X obj 293 331 vradio 19 1 0 3 m1 empty empty 0 -10 0 12 #fcfcfc #000000 #000000 0;
#X obj 320 331 vradio 19 1 0 3 m2 empty empty 0 -10 0 12 #fcfcfc #000000 #000000 0;
#X obj 346 331 vradio 19 1 0 3 m3 empty empty 0 -10 0 12 #fcfcfc #000000 #000000 0;
#X obj 373 331 vradio 19 1 0 3 m4 empty empty 0 -10 0 12 #fcfcfc #000000 #000000 0;
#X obj 398 331 vradio 19 1 0 3 m5 empty empty 0 -10 0 12 #fcfcfc #000000 #000000 0;
#X obj 423 331 vradio 19 1 0 3 m6 empty empty 0 -10 0 12 #fcfcfc #000000 #000000 0;
#X obj 449 331 vradio 19 1 0 3 m7 empty empty 0 -10 0 12 #fcfcfc #000000 #000000 0;
#X obj 476 331 vradio 19 1 0 3 m8 empty empty 0 -10 0 12 #fcfcfc #000000 #000000 0;
#X obj 501 331 vradio 19 1 0 3 m9 empty empty 0 -10 0 12 #fcfcfc #000000 #000000 0;
#X obj 528 331 vradio 19 1 0 3 m10 empty empty 0 -10 0 12 #fcfcfc #000000 #000000 0;
#X obj 218 188 hsl 30 30 20 2000 0 0 p1 empty Pitch -35 15 1 12 #fcfcfc #000000 #000000 0 1;
#X obj 218 231 hsl 30 30 0 1 0 0 g1 empty Gain -34 15 1 12 #fcfcfc #000000 #000000 0 1;
#X obj 262 188 hsl 30 30 20 2000 0 0 p2 empty empty -35 15 1 12 #fcfcfc #000000 #000000 0 1;
#X obj 262 231 hsl 30 30 0 1 0 0 g2 empty empty -34 15 1 12 #fcfcfc #000000 #000000 0 1;
#X obj 306 188 hsl 30 30 20 2000 0 0 p3 empty empty -35 15 1 12 #fcfcfc #000000 #000000 0 1;
#X obj 306 231 hsl 30 30 0 1 0 0 g3 empty empty -34 15 1 12 #fcfcfc #000000 #000000 0 1;
#X obj 348 188 hsl 30 30 20 2000 0 0 p4 empty empty -35 15 1 12 #fcfcfc #000000 #000000 0 1;
#X obj 348 231 hsl 30 30 0 1 0 0 g4 empty empty -34 15 1 12 #fcfcfc #000000 #000000 0 1;
#X obj 392 188 hsl 30 30 20 2000 0 0 p5 empty empty -35 15 1 12 #fcfcfc #000000 #000000 0 1;
#X obj 392 231 hsl 30 30 0 1 0 0 g5 empty empty -34 15 1 12 #fcfcfc #000000 #000000 0 1;
#X obj 435 188 hsl 30 30 20 2000 0 0 p6 empty empty -35 15 1 12 #fcfcfc #000000 #000000 0 1;
#X obj 435 231 hsl 30 30 0 1 0 0 g6 empty empty -34 15 1 12 #fcfcfc #000000 #000000 0 1;
#X obj 479 188 hsl 30 30 20 2000 0 0 p7 empty empty -35 15 1 12 #fcfcfc #000000 #000000 0 1;
#X obj 479 231 hsl 30 30 0 1 0 0 g7 empty empty -34 15 1 12 #fcfcfc #000000 #000000 0 1;
#X obj 521 188 hsl 30 30 20 2000 0 0 p8 empty empty -35 15 1 12 #fcfcfc #000000 #000000 0 1;
#X obj 521 231 hsl 30 30 0 1 0 0 g8 empty empty -34 15 1 12 #fcfcfc #000000 #000000 0 1;
#X obj 565 188 hsl 30 30 20 2000 0 0 p9 empty empty -35 15 1 12 #fcfcfc #000000 #000000 0 1;
#X obj 565 231 hsl 30 30 0 1 0 0 g9 empty empty -34 15 1 12 #fcfcfc #000000 #000000 0 1;
#X obj 608 188 hsl 30 30 20 2000 0 0 p10 empty empty -35 15 1 12 #fcfcfc #000000 #000000 0 1;
#X obj 608 231 hsl 30 30 0 1 0 0 g10 empty empty -34 15 1 12 #fcfcfc #000000 #000000 0 1;
#X obj 91 185 vradio 19 1 0 2 ON OFF empty 0 -10 0 12 #fcfcfc #000000 #000000 0;
#X text 65 187 OFF;
#X text 72 204 ON;
#X msg 745 247 1;
#X msg 745 199 tempo \$1 permin;
#X obj 745 224 metro 1 300 permin;
#X obj 745 269 stages, f 7;
#X msg 804 269 1;
#X obj 745 172 r speed;
#X obj 745 293 s OFF;
#X obj 709 199 r ON;
#X connect 43 0 46 0;
#X connect 44 0 45 0;
#X connect 45 0 43 0;
#X connect 46 0 49 0;
#X connect 46 1 47 0;
#X connect 47 0 46 1;
#X connect 48 0 44 0;
#X connect 50 0 45 0;
