#N canvas 56 405 1920 1016 12;
#X obj 45 135 ljud, f 8;
#X obj 8 14 inlet lamp;
#X obj 86 14 inlet freq;
#X obj 166 14 inlet indgain;
#X obj 273 15 inlet unpack;
#X obj 171 216 bandpass;
#X obj 59 215 unmodfilters;
#X obj 139 366 outlet~;
#X obj 273 39 unpack f f f f f f f f f f;
#X text 385 11 hpf \, d \, lpf \, sq \, bpf \, mod \, vib;
#X obj 139 287 +~;
#X obj 399 240 sigmund~ pitch;
#X floatatom 399 264 5 0 0 0 - - - 0;
#X connect 0 0 6 0;
#X connect 0 0 5 0;
#X connect 1 0 0 0;
#X connect 2 0 0 1;
#X connect 3 0 0 2;
#X connect 4 0 8 0;
#X connect 5 0 10 1;
#X connect 6 0 10 0;
#X connect 8 0 6 1;
#X connect 8 1 6 2;
#X connect 8 2 6 3;
#X connect 8 3 6 4;
#X connect 8 4 5 2;
#X connect 8 5 5 3;
#X connect 8 6 5 4;
#X connect 8 7 5 5;
#X connect 8 8 5 1;
#X connect 8 9 0 3;
#X connect 10 0 7 0;
#X connect 11 0 12 0;
