#N canvas -10 0 1920 1016 12;
#X text 403 26 i matrisen så kollar vi hur många steg som har aktiv vibrato \, påverkar vibraton alla steg? ellerenbart de steg som ärinkopplade? ratten till höger styr alla \, inte något som kan styras individuellt på alla steg. om den är få alla steg \, läggs den på innan eller efter filtrerna? jag tolkar kopplingarna som innan men kanske mer logiskt att ha efter är vibraton liksom satt? är ratten till höger enbart för olymen för vibrato/ styrkan på amplituden i vibrato amplifier;
#X text 413 191 comment;
#X text 415 233 vi har ju en vibrato amplifier men var skapas vibraton nånstans? hur skapas den?;
#X obj 39 21 inlet~;
#X obj 39 184 *~ 0.5;
#X obj 39 208 outlet~;
#X obj 39 160 +~;
#X obj 92 21 inlet~;
#X obj 154 20 inlet;
#X text 203 21 see if vibrato active;
#X obj 154 46 expr if ($f1 == 1 \, 0.5 \, 1);
#X text 14 1 original;
#X text 94 1 vibrato;
#X connect 3 0 6 0;
#X connect 4 0 5 0;
#X connect 6 0 4 0;
#X connect 7 0 6 1;
#X connect 8 0 10 0;
#X connect 10 0 4 1;
