#N canvas 932 0 1920 1016 12;
#X obj 61 136 tgl 19 0 empty empty empty 0 -10 0 12 #fcfcfc #000000 #000000 0 1;
#X obj 146 136 tgl 19 0 empty empty empty 0 -10 0 12 #fcfcfc #000000 #000000 0 1;
#X obj 227 136 tgl 19 0 empty empty empty 0 -10 0 12 #fcfcfc #000000 #000000 0 1;
#X obj 290 99 mode, f 10;
#X obj 312 136 tgl 19 0 empty empty empty 0 -10 0 12 #fcfcfc #000000 #000000 0 1;
#X msg 154 29 1;
#X obj 14 42 t b f;
#X msg 14 17 1;
#X obj 103 175 tgl 19 0 empty empty empty 0 -10 0 12 #fcfcfc #000000 #000000 0 1;
#X obj 128 176 tgl 19 0 empty empty empty 0 -10 0 12 #fcfcfc #000000 #000000 0 1;
#X obj 163 180 bng 19 250 50 0 empty empty empty 0 -10 0 12 #fcfcfc #000000 #000000;
#X obj 39 99 mode 1, f 10;
#X obj 124 99 mode 2, f 10;
#X obj 205 99 mode 3, f 10;
#X obj 621 256 f;
#X obj 612 386 != 1;
#X obj 612 335 spigot;
#X obj 612 410 t f f;
#X obj 661 290 tgl 19 0 empty empty empty 0 -10 0 12 #fcfcfc #000000 #000000 0 1;
#X obj 553 190 tgl 19 0 empty empty empty 0 -10 0 12 #fcfcfc #000000 #000000 0 1;
#X obj 553 214 sel 1;
#X obj 612 359 t f f;
#X obj 612 434 tgl 19 0 empty empty empty 0 -10 0 12 #fcfcfc #000000 #000000 0 1;
#X obj 724 262 f;
#X obj 715 392 != 1;
#X obj 715 341 spigot;
#X obj 715 416 t f f;
#X obj 764 296 tgl 19 0 empty empty empty 0 -10 0 12 #fcfcfc #000000 #000000 0 1;
#X obj 656 196 tgl 19 0 empty empty empty 0 -10 0 12 #fcfcfc #000000 #000000 0 1;
#X obj 656 220 sel 1;
#X obj 715 365 t f f;
#X obj 715 440 tgl 19 0 empty empty empty 0 -10 0 12 #fcfcfc #000000 #000000 0 1;
#X msg 578 190 1;
#X obj 906 31 tgl 19 0 empty empty empty 0 -10 0 12 #fcfcfc #000000 #000000 0 1;
#X obj 906 55 s ON;
#X obj 198 315 f;
#X obj 198 370 t f f;
#X obj 198 393 != 1;
#X obj 198 341 t f f;
#X obj 198 417 t f f;
#X obj 254 315 f;
#X obj 254 370 t f f;
#X obj 254 393 != 1;
#X obj 254 341 t f f;
#X obj 254 417 t f f;
#X obj 198 447 tgl 19 0 empty empty empty 0 -10 0 12 #fcfcfc #000000 #000000 0 1;
#X obj 254 448 tgl 19 0 empty empty empty 0 -10 0 12 #fcfcfc #000000 #000000 0 1;
#X obj 421 258 spigot;
#X obj 460 232 tgl 19 0 empty empty empty 0 -10 0 12 #fcfcfc #000000 #000000 0 1;
#X obj 435 284 spigot;
#X obj 474 258 tgl 19 0 empty empty empty 0 -10 0 12 #fcfcfc #000000 #000000 0 1;
#X obj 198 248 tgl 19 0 empty empty empty 0 -10 0 12 #fcfcfc #000000 #000000 0 1;
#X obj 198 272 sel 1;
#X msg 223 248 1;
#X obj 259 249 tgl 19 0 empty empty empty 0 -10 0 12 #fcfcfc #000000 #000000 0 1;
#X obj 259 273 sel 1;
#X connect 3 1 4 0;
#X connect 5 0 12 2;
#X connect 5 0 3 2;
#X connect 5 0 11 2;
#X connect 5 0 13 2;
#X connect 6 0 11 1;
#X connect 6 1 11 0;
#X connect 7 0 6 0;
#X connect 11 1 0 0;
#X connect 11 2 12 0;
#X connect 11 2 8 0;
#X connect 11 3 12 1;
#X connect 11 3 9 0;
#X connect 11 3 10 0;
#X connect 12 1 1 0;
#X connect 12 2 13 0;
#X connect 12 3 13 1;
#X connect 13 1 2 0;
#X connect 13 2 3 0;
#X connect 13 3 3 1;
#X connect 14 0 16 0;
#X connect 15 0 17 0;
#X connect 16 0 21 0;
#X connect 17 0 22 0;
#X connect 17 1 14 1;
#X connect 18 0 16 1;
#X connect 19 0 20 0;
#X connect 20 0 14 0;
#X connect 21 0 15 0;
#X connect 21 1 28 0;
#X connect 23 0 25 0;
#X connect 24 0 26 0;
#X connect 25 0 30 0;
#X connect 26 0 31 0;
#X connect 26 1 23 1;
#X connect 27 0 25 1;
#X connect 28 0 29 0;
#X connect 29 0 23 0;
#X connect 30 0 24 0;
#X connect 32 0 20 0;
#X connect 33 0 34 0;
#X connect 35 0 38 0;
#X connect 36 0 37 0;
#X connect 37 0 39 0;
#X connect 38 0 47 0;
#X connect 38 1 54 0;
#X connect 39 0 45 0;
#X connect 39 1 35 1;
#X connect 40 0 43 0;
#X connect 41 0 42 0;
#X connect 42 0 44 0;
#X connect 43 0 49 0;
#X connect 44 0 46 0;
#X connect 44 1 40 1;
#X connect 47 0 36 0;
#X connect 48 0 47 1;
#X connect 49 0 41 0;
#X connect 50 0 49 1;
#X connect 51 0 52 0;
#X connect 52 0 35 0;
#X connect 53 0 52 0;
#X connect 54 0 55 0;
#X connect 55 0 40 0;
