#N canvas 38 38 1920 1016 12;
#X obj 65 18 bng 19 250 50 0 empty empty empty 0 -10 0 12 #fcfcfc #000000 #000000;
#X obj 65 42 tgl 19 0 empty empty empty 0 -10 0 12 #fcfcfc #000000 #000000 0 1;
#X floatatom 65 66 5 0 0 0 - - - 0;
#X obj 56 158 float;
#X floatatom 56 182 5 0 0 0 - - - 0;
#X obj 32 112 != 1;
#X obj 148 40 tgl 19 0 empty empty empty 0 -10 0 12 #fcfcfc #000000 #000000 0 1;
#X floatatom 148 64 5 0 0 0 - - - 0;
#X obj 139 156 float;
#X floatatom 139 180 5 0 0 0 - - - 0;
#X obj 115 110 != 1;
#X text 266 13 blir simultant;
#X obj 35 316 spigot;
#X obj 254 70 tgl 19 0 empty empty empty 0 -10 0 12 #fcfcfc #000000 #000000 0 1;
#X floatatom 254 94 5 0 0 0 - - - 0;
#X obj 245 186 float;
#X floatatom 245 210 5 0 0 0 - - - 0;
#X obj 199 128 != 1;
#X obj 254 117 + 3;
#X obj 225 153 bng 19 250 50 0 empty empty empty 0 -10 0 12 #fcfcfc #000000 #000000;
#X obj 141 236 tgl 19 0 empty empty empty 0 -10 0 12 #fcfcfc #000000 #000000 0 1;
#X floatatom 141 260 5 0 0 0 - - - 0;
#X obj 132 352 float;
#X floatatom 132 376 5 0 0 0 - - - 0;
#X obj 86 276 != 1;
#X obj 141 283 + 3;
#X obj 72 348 bng 19 250 50 0 empty empty empty 0 -10 0 12 #fcfcfc #000000 #000000;
#X obj 22 389 trigger;
#X obj 376 50 tgl 19 0 empty empty empty 0 -10 0 12 #fcfcfc #000000 #000000 0 1;
#X floatatom 376 74 5 0 0 0 - - - 0;
#X obj 359 182 float;
#X floatatom 359 205 5 0 0 0 - - - 0;
#X obj 320 96 != 1;
#X floatatom 320 120 5 0 0 0 - - - 0;
#X obj 320 143 sel 1;
#X obj 181 425 t f b;
#X obj 604 33 tgl 19 0 empty empty empty 0 -10 0 12 #fcfcfc #000000 #000000 0 1;
#X floatatom 604 57 5 0 0 0 - - - 0;
#X obj 590 101 sel 1;
#X floatatom 563 135 5 0 0 0 - - - 0;
#X obj 540 135 bng 19 250 50 0 empty empty empty 0 -10 0 12 #fcfcfc #000000 #000000;
#X floatatom 642 135 5 0 0 0 - - - 0;
#X obj 615 135 bng 19 250 50 0 empty empty empty 0 -10 0 12 #fcfcfc #000000 #000000;
#X floatatom 739 132 5 0 0 0 - - - 0;
#X obj 714 131 bng 19 250 50 0 empty empty empty 0 -10 0 12 #fcfcfc #000000 #000000;
#X floatatom 815 126 5 0 0 0 - - - 0;
#X obj 792 129 bng 19 250 50 0 empty empty empty 0 -10 0 12 #fcfcfc #000000 #000000;
#X obj 742 93 sel 0;
#X msg 781 323 0;
#X msg 420 320 1;
#X obj 481 139 tgl 19 0 empty empty empty 0 -10 0 12 #fcfcfc #000000 #000000 0 1;
#X floatatom 481 163 5 0 0 0 - - - 0;
#X obj 462 207 f;
#X floatatom 462 231 5 0 0 0 - - - 0;
#X obj 434 162 bng 19 250 50 0 empty empty empty 0 -10 0 12 #fcfcfc #000000 #000000;
#X obj 473 358 expr if( $f1 == 1 && $f2 == 0 \, 2 \, 5);
#X floatatom 469 304 5 0 0 0 - - - 0;
#X floatatom 724 289 5 0 0 0 - - - 0;
#X floatatom 473 382 5 0 0 0 - - - 0;
#X msg 688 316 1;
#X msg 535 315 0;
#X connect 0 0 1 0;
#X connect 1 0 2 0;
#X connect 2 0 3 1;
#X connect 2 0 5 0;
#X connect 3 0 4 0;
#X connect 4 0 6 0;
#X connect 5 0 3 0;
#X connect 6 0 7 0;
#X connect 7 0 8 1;
#X connect 7 0 10 0;
#X connect 8 0 9 0;
#X connect 10 0 8 0;
#X connect 12 0 26 0;
#X connect 13 0 14 0;
#X connect 14 0 17 0;
#X connect 14 0 18 0;
#X connect 15 0 16 0;
#X connect 17 0 19 0;
#X connect 18 0 15 1;
#X connect 19 0 15 0;
#X connect 20 0 21 0;
#X connect 21 0 24 0;
#X connect 21 0 25 0;
#X connect 22 0 23 0;
#X connect 24 0 12 0;
#X connect 24 0 12 1;
#X connect 25 0 22 1;
#X connect 26 0 22 0;
#X connect 28 0 29 0;
#X connect 29 0 30 1;
#X connect 29 0 32 0;
#X connect 32 0 33 0;
#X connect 33 0 34 0;
#X connect 34 0 30 0;
#X connect 36 0 37 0;
#X connect 37 0 38 0;
#X connect 37 0 47 0;
#X connect 38 0 39 0;
#X connect 38 0 40 0;
#X connect 38 1 41 0;
#X connect 38 1 42 0;
#X connect 47 0 43 0;
#X connect 47 0 44 0;
#X connect 47 1 45 0;
#X connect 47 1 46 0;
#X connect 48 0 55 1;
#X connect 49 0 55 0;
#X connect 50 0 51 0;
#X connect 51 0 52 1;
#X connect 52 0 53 0;
#X connect 54 0 52 0;
#X connect 55 0 58 0;
#X connect 56 0 55 0;
#X connect 57 0 55 1;
#X connect 59 0 55 1;
#X connect 60 0 55 0;
