#N canvas 1910 25 1920 1016 12;
#X obj 38 28 inlet db;
#X obj 25 414 outlet db;
#X obj 121 28 inlet df;
#X obj 109 414 outlet df;
#X obj 200 28 inlet shift;
#X obj 195 414 outlet shift;
#X obj 200 52 sel 1;
#X obj 115 269 f;
#X obj 104 151 sel 1;
#X floatatom 271 127 5 0 0 0 - - - 0;
#X floatatom 239 304 5 0 0 0 - - - 0;
#X floatatom 29 109 5 0 0 0 - - - 0;
#X floatatom 61 85 5 0 0 0 - - - 0;
#X obj 61 61 != 1;
#X obj 113 315 != 1;
#X obj 56 212 != 1;
#X connect 0 0 11 0;
#X connect 0 0 13 0;
#X connect 2 0 5 0;
#X connect 2 0 8 0;
#X connect 2 0 9 0;
#X connect 2 0 15 0;
#X connect 4 0 6 0;
#X connect 7 0 10 0;
#X connect 7 0 14 0;
#X connect 8 0 7 0;
#X connect 13 0 7 1;
#X connect 13 0 12 0;
#X connect 14 0 3 0;
#X connect 15 0 1 0;
