#N canvas 38 38 1920 1016 12;
#X obj 234 330 tgl 19 0 empty empty empty 0 -10 0 12 #fcfcfc #000000 #000000 0 1;
#X floatatom 234 354 5 0 0 0 - - - 0;
#X floatatom 335 423 5 0 0 0 - - - 0;
#X obj 525 323 tgl 19 0 empty empty empty 0 -10 0 12 #fcfcfc #000000 #000000 0 1;
#X floatatom 525 347 5 0 0 0 - - - 0;
#X floatatom 626 416 5 0 0 0 - - - 0;
#X obj 525 370 expr if($f1 == 1 && $f2 == 0 \, 1 \, 0);
#X obj 234 377 expr if($f1 == 1 && $f2 == 0 \, 1 \, 0);
#X obj 80 62 tgl 19 0 empty empty empty 0 -10 0 12 #fcfcfc #000000 #000000 0 1;
#X floatatom 80 86 5 0 0 0 - - - 0;
#X obj 151 60 tgl 19 0 empty empty empty 0 -10 0 12 #fcfcfc #000000 #000000 0 1;
#X floatatom 151 84 5 0 0 0 - - - 0;
#X obj 210 60 tgl 19 0 empty empty empty 0 -10 0 12 #fcfcfc #000000 #000000 0 1;
#X floatatom 210 84 5 0 0 0 - - - 0;
#X obj 281 58 tgl 19 0 empty empty empty 0 -10 0 12 #fcfcfc #000000 #000000 0 1;
#X floatatom 281 82 5 0 0 0 - - - 0;
#X obj 67 159 t b f;
#X obj 67 211 f;
#X floatatom 67 235 5 0 0 0 - - - 0;
#X floatatom 148 203 5 0 0 0 - - - 0;
#X msg 150 128 3;
#X connect 0 0 1 0;
#X connect 1 0 7 0;
#X connect 2 0 3 0;
#X connect 3 0 4 0;
#X connect 4 0 6 0;
#X connect 4 0 7 1;
#X connect 5 0 6 1;
#X connect 6 0 5 0;
#X connect 7 0 2 0;
#X connect 8 0 9 0;
#X connect 9 0 10 0;
#X connect 9 0 16 0;
#X connect 10 0 11 0;
#X connect 11 0 12 0;
#X connect 12 0 13 0;
#X connect 13 0 14 0;
#X connect 14 0 15 0;
#X connect 16 0 17 0;
#X connect 16 1 17 1;
#X connect 16 1 19 0;
#X connect 17 0 18 0;
#X connect 20 0 16 0;
