#N canvas 2 -26 1920 1016 12;
#X floatatom 187 77 5 0 0 0 - - - 0;
#X floatatom 187 124 5 0 0 0 - - - 0;
#X obj 187 45 tgl 19 0 empty empty empty 0 -10 0 12 #fcfcfc #000000 #000000 0 1;
#X obj 187 100 != 1;
#X floatatom 258 76 5 0 0 0 - - - 0;
#X floatatom 258 123 5 0 0 0 - - - 0;
#X obj 258 44 tgl 19 0 empty empty empty 0 -10 0 12 #fcfcfc #000000 #000000 0 1;
#X obj 258 99 == 0;
#X obj 854 176 float;
#X obj 444 26 bng 19 250 50 0 empty empty empty 0 -10 0 12 #fcfcfc #000000 #000000;
#X obj 444 50 tgl 19 0 empty empty empty 0 -10 0 12 #fcfcfc #000000 #000000 0 1;
#X floatatom 358 81 5 0 0 0 - - - 0;
#X floatatom 358 128 5 0 0 0 - - - 0;
#X floatatom 410 82 5 0 0 0 - - - 0;
#X floatatom 410 129 5 0 0 0 - - - 0;
#X floatatom 461 83 5 0 0 0 - - - 0;
#X floatatom 461 130 5 0 0 0 - - - 0;
#X floatatom 515 85 5 0 0 0 - - - 0;
#X floatatom 515 132 5 0 0 0 - - - 0;
#X obj 358 104 == 0;
#X obj 410 105 == 1;
#X obj 461 106 != 0;
#X obj 515 108 != 1;
#X floatatom 854 200 5 0 0 0 - - - 0;
#X connect 0 0 3 0;
#X connect 2 0 0 0;
#X connect 3 0 1 0;
#X connect 4 0 7 0;
#X connect 6 0 4 0;
#X connect 7 0 5 0;
#X connect 8 0 23 0;
#X connect 9 0 10 0;
#X connect 9 0 8 0;
#X connect 10 0 11 0;
#X connect 10 0 13 0;
#X connect 10 0 17 0;
#X connect 10 0 15 0;
#X connect 11 0 19 0;
#X connect 13 0 20 0;
#X connect 14 0 8 1;
#X connect 15 0 21 0;
#X connect 17 0 22 0;
#X connect 19 0 12 0;
#X connect 20 0 14 0;
#X connect 21 0 16 0;
#X connect 22 0 18 0;
