#N canvas 152 152 1920 1016 12;
#X floatatom 257 353 5 0 0 0 - - - 0;
#X obj 403 85 expr if($f1 == 1 \, 1 \, 0);
#X obj 392 38 tgl 19 0 empty empty empty 0 -10 0 12 #fcfcfc #000000 #000000 0 1;
#X floatatom 403 109 5 0 0 0 - - - 0;
#X floatatom 425 39 5 0 0 0 - - - 0;
#X obj 352 153 bng 19 250 50 0 empty empty empty 0 -10 0 12 #fcfcfc #000000 #000000;
#X floatatom 339 344 5 0 0 0 - - - 0;
#X floatatom 340 279 5 0 0 0 - - - 0;
#X floatatom 508 354 5 0 0 0 - - - 0;
#X obj 339 306 expr if($f1 == 1 \, 1 \, 0) \; if ($f1 == 1 \, 0 \, 0);
#X obj 87 383 f;
#X obj 85 250 f;
#X floatatom 87 407 5 0 0 0 - - - 0;
#X floatatom 114 275 5 0 0 0 - - - 0;
#X obj 21 213 bng 19 250 50 0 empty empty empty 0 -10 0 12 #fcfcfc #000000 #000000;
#X obj 88 305 expr if($f1 == 1 \, 1 \, 0) \; if ($f1 == 1 \, 0 \, 0);
#X msg 79 197 1;
#X msg 132 198 0;
#X obj 405 133 != 1;
#X floatatom 403 156 5 0 0 0 - - - 0;
#X obj 412 238 value;
#X obj 187 117 spigot;
#X floatatom 571 354 5 0 0 0 - - - 0;
#X floatatom 572 289 5 0 0 0 - - - 0;
#X floatatom 740 364 5 0 0 0 - - - 0;
#X obj 571 316 expr if($f1 == 1 \, 1 \, 0) \; if ($f1 == 1 \, 0 \, 0);
#X obj 594 84 expr if($f1 == 1 \, 1 \, 0);
#X obj 583 37 tgl 19 0 empty empty empty 0 -10 0 12 #fcfcfc #000000 #000000 0 1;
#X floatatom 594 108 5 0 0 0 - - - 0;
#X connect 1 0 3 0;
#X connect 2 0 1 0;
#X connect 3 0 5 0;
#X connect 3 0 18 0;
#X connect 4 0 1 0;
#X connect 6 0 23 0;
#X connect 7 0 9 0;
#X connect 9 0 6 0;
#X connect 9 1 8 0;
#X connect 10 0 7 0;
#X connect 10 0 12 0;
#X connect 11 0 13 0;
#X connect 11 0 15 0;
#X connect 14 0 11 0;
#X connect 15 0 10 0;
#X connect 15 1 0 0;
#X connect 16 0 11 0;
#X connect 17 0 11 0;
#X connect 18 0 19 0;
#X connect 23 0 25 0;
#X connect 25 0 22 0;
#X connect 25 1 24 0;
#X connect 26 0 28 0;
#X connect 27 0 26 0;
