#N canvas -11 -11 1920 1016 12;
#X floatatom 203 79 5 0 0 0 - - -;
#X obj 202 31 loadbang;
#X obj 173 84 tgl 15 0 empty empty empty 17 7 0 10 -262144 -1 -1 0
1;
#X obj 173 104 metro;
#X obj 173 133 bng 15 250 50 0 empty empty empty 17 7 0 10 -262144
-1 -1;
#X obj 173 173 int 1;
#X obj 110 102 sel 0;
#X obj 110 131 bng 15 250 50 0 empty empty empty 17 7 0 10 -262144
-1 -1;
#X obj 46 100 loadbang;
#X obj 232 219 + 1;
#X floatatom 173 196 5 0 0 0 - - -;
#X obj 173 218 % 10;
#X obj 173 241 + 1;
#X floatatom 173 264 5 0 0 0 - - -;
#X msg 110 153 -1;
#X text 48 133 break?;
#X text 276 38 Clock \, change evey 400 ms (check to better know andromatic
original clock) Possible to change clock later/how will interact w
sustain?;
#X obj 23 234 expr;
#X obj 949 356 sel 1;
#X obj 949 382 bng 15 250 50 0 empty empty empty 17 7 0 10 -262144
-1 -1;
#X obj 949 402 s One;
#X obj 1004 382 bng 15 250 50 0 empty empty empty 17 7 0 10 -262144
-1 -1;
#X obj 1050 381 bng 15 250 50 0 empty empty empty 17 7 0 10 -262144
-1 -1;
#X obj 1110 382 bng 15 250 50 0 empty empty empty 17 7 0 10 -262144
-1 -1;
#X obj 1004 356 sel 2;
#X obj 1050 355 sel 3;
#X obj 1110 356 sel 4;
#X obj 1004 402 s Two;
#X obj 1050 401 s Three;
#X obj 1110 402 s Four;
#X obj 955 475 r One;
#X floatatom 955 498 5 0 0 0 - - -;
#X msg 202 56 400;
#X text 891 49 count;
#X obj 913 233 bng 15 250 50 0 empty empty empty 17 7 0 10 -262144
-1 -1;
#X text 889 89 3-bit counter;
#X obj 941 233 bng 15 250 50 0 empty empty empty 17 7 0 10 -262144
-1 -1;
#X obj 971 233 bng 15 250 50 0 empty empty empty 17 7 0 10 -262144
-1 -1;
#X obj 464 162 r One;
#X floatatom 436 201 5 0 0 0 - - -;
#X obj 491 202 bng 15 250 50 0 empty empty empty 17 7 0 10 -262144
-1 -1;
#X obj 111 303 s all;
#X obj 950 291 r all;
#X obj 731 174 moses;
#X text 614 140 delar upp numrety på höger ovänster;
#X text 1074 75 counter räknar 2^4 16 steag 0 (0) 1000 100 1100 10
1010 110 1110 1 1001 101 1101 11 1011 1111 0 (15);
#X obj 173 289 sel 1 2 3 4 5 6 7 8 9 10;
#X obj 174 317 bng 15 250 50 0 empty empty empty 17 7 0 10 -262144
-1 -1;
#X obj 174 337 s One;
#X obj 229 317 bng 15 250 50 0 empty empty empty 17 7 0 10 -262144
-1 -1;
#X obj 275 316 bng 15 250 50 0 empty empty empty 17 7 0 10 -262144
-1 -1;
#X obj 335 317 bng 15 250 50 0 empty empty empty 17 7 0 10 -262144
-1 -1;
#X obj 384 316 bng 15 250 50 0 empty empty empty 17 7 0 10 -262144
-1 -1;
#X obj 436 315 bng 15 250 50 0 empty empty empty 17 7 0 10 -262144
-1 -1;
#X obj 485 316 bng 15 250 50 0 empty empty empty 17 7 0 10 -262144
-1 -1;
#X obj 541 316 bng 15 250 50 0 empty empty empty 17 7 0 10 -262144
-1 -1;
#X obj 597 315 bng 15 250 50 0 empty empty empty 17 7 0 10 -262144
-1 -1;
#X obj 646 314 bng 15 250 50 0 empty empty empty 17 7 0 10 -262144
-1 -1;
#X obj 229 337 s Two;
#X obj 275 336 s Three;
#X obj 335 337 s Four;
#X obj 384 336 s Five;
#X obj 436 335 s Six;
#X obj 485 336 s Seven;
#X obj 541 336 s Eight;
#X obj 597 335 s Nine;
#X obj 650 335 s Ten;
#X connect 0 0 3 1;
#X connect 1 0 32 0;
#X connect 2 0 3 0;
#X connect 2 0 6 0;
#X connect 3 0 4 0;
#X connect 4 0 5 0;
#X connect 5 0 9 0;
#X connect 5 0 10 0;
#X connect 6 0 7 0;
#X connect 7 0 14 0;
#X connect 8 0 7 0;
#X connect 9 0 5 1;
#X connect 10 0 11 0;
#X connect 11 0 12 0;
#X connect 12 0 13 0;
#X connect 13 0 41 0;
#X connect 13 0 46 0;
#X connect 14 0 5 0;
#X connect 18 0 19 0;
#X connect 19 0 20 0;
#X connect 21 0 27 0;
#X connect 22 0 28 0;
#X connect 23 0 29 0;
#X connect 24 0 21 0;
#X connect 25 0 22 0;
#X connect 26 0 23 0;
#X connect 30 0 31 0;
#X connect 32 0 0 0;
#X connect 38 0 39 0;
#X connect 38 0 40 0;
#X connect 42 0 18 0;
#X connect 42 0 24 0;
#X connect 42 0 25 0;
#X connect 42 0 26 0;
#X connect 46 0 47 0;
#X connect 46 1 49 0;
#X connect 46 2 50 0;
#X connect 46 3 51 0;
#X connect 46 4 52 0;
#X connect 46 5 53 0;
#X connect 46 6 54 0;
#X connect 46 7 55 0;
#X connect 46 8 56 0;
#X connect 46 9 57 0;
#X connect 47 0 48 0;
#X connect 49 0 58 0;
#X connect 50 0 59 0;
#X connect 51 0 60 0;
#X connect 52 0 61 0;
#X connect 53 0 62 0;
#X connect 54 0 63 0;
#X connect 55 0 64 0;
#X connect 56 0 65 0;
#X connect 57 0 66 0;
