#N canvas -11 -11 1920 1016 12;
#X text 57 22 2-bit counter;
#X obj 40 115 until;
#X obj 29 74 expr~ tanh;
#X obj 391 45 moses 10;
#X floatatom 391 13 4 0 0 0 - - -;
#X floatatom 458 16 4 0 0 0 - - -;
#X floatatom 391 78 4 0 0 0 - - -;
#X floatatom 458 79 4 0 0 0 - - -;
#X text 510 14 Moses takes numbers and outputs them at left if they're
less than a control value \, and at right if they're greater or equal
to it. The creation argument initializes the control value (10 in this
example) and the right inlet changes it.;
#X text 523 140 Spigot passes messages from its left inlet to its outlet
\, as long as a nonzero number is sent to its right inlet. When its
right inlet gets zero \, incoming messages are "blocked \, " i.e. \,
ignored.;
#X msg 445 167 0.5 1000;
#X obj 445 310 print;
#X msg 458 220 walk the cat;
#X msg 451 192 bang;
#X text 548 250 control: nonzero to pass messages \, zero to stop them
;
#X obj 445 277 spigot 0;
#X obj 512 254 tgl 15 0 empty empty empty 0 -6 0 8 -262144 -1 -1 0
1;
#X text 545 277 optional arg sets the initial state (0 by default)
;
#X obj 419 350 bng 15 250 50 0 empty empty empty 17 7 0 10 -262144
-1 -1;
#X obj 419 375 tgl 15 0 empty empty empty 17 7 0 10 -262144 -1 -1 0
1;
#X floatatom 418 395 5 0 0 0 - - -;
#X obj 220 59 bng 15 250 50 0 empty empty empty 17 7 0 10 -262144 -1
-1;
#X obj 220 84 tgl 15 0 empty empty empty 17 7 0 10 -262144 -1 -1 0
1;
#X floatatom 220 104 5 0 0 0 - - -;
#X obj 220 21 spigot;
#X obj 421 431 != 1;
#X floatatom 421 454 5 0 0 0 - - -;
#X obj 44 221 bng 15 250 50 0 empty empty empty 17 7 0 10 -262144 -1
-1;
#X obj 44 246 tgl 15 0 empty empty empty 17 7 0 10 -262144 -1 -1 1
1;
#X floatatom 44 266 5 0 0 0 - - -;
#X obj 100 223 != 1;
#X floatatom 100 246 5 0 0 0 - - -;
#X obj 314 71 == 1;
#X floatatom 314 94 5 0 0 0 - - -;
#X obj 315 121 tgl 15 0 empty empty empty 17 7 0 10 -262144 -1 -1 0
1;
#X obj 45 295 tgl 15 0 empty empty empty 17 7 0 10 -262144 -1 -1 1
1;
#X obj 101 297 tgl 15 0 empty empty empty 17 7 0 10 -262144 -1 -1 0
1;
#X obj 232 366 != 1;
#X floatatom 232 389 5 0 0 0 - - -;
#X obj 233 440 tgl 15 0 empty empty empty 17 7 0 10 -262144 -1 -1 1
1;
#X obj 284 367 != 1;
#X floatatom 284 390 5 0 0 0 - - -;
#X obj 285 441 tgl 15 0 empty empty empty 17 7 0 10 -262144 -1 -1 0
1;
#X obj 335 367 != 1;
#X floatatom 335 390 5 0 0 0 - - -;
#X obj 336 441 tgl 15 0 empty empty empty 17 7 0 10 -262144 -1 -1 1
1;
#X obj 137 301 bng 15 250 50 0 empty empty empty 17 7 0 10 -262144
-1 -1;
#X obj 139 325 tgl 15 0 empty empty empty 17 7 0 10 -262144 -1 -1 0
1;
#X obj 247 217 != 1;
#X floatatom 247 240 5 0 0 0 - - -;
#X obj 245 310 tgl 15 0 empty empty empty 17 7 0 10 -262144 -1 -1 0
1;
#X obj 271 290 bng 15 250 50 0 empty empty empty 17 7 0 10 -262144
-1 -1;
#X obj 273 314 tgl 15 0 empty empty empty 17 7 0 10 -262144 -1 -1 1
1;
#X obj 303 215 != 1;
#X floatatom 303 238 5 0 0 0 - - -;
#X obj 304 289 tgl 15 0 empty empty empty 17 7 0 10 -262144 -1 -1 0
1;
#X obj 327 288 bng 15 250 50 0 empty empty empty 17 7 0 10 -262144
-1 -1;
#X obj 329 312 tgl 15 0 empty empty empty 17 7 0 10 -262144 -1 -1 1
1;
#X obj 363 214 != 1;
#X floatatom 363 237 5 0 0 0 - - -;
#X obj 364 288 tgl 15 0 empty empty empty 17 7 0 10 -262144 -1 -1 0
1;
#X obj 387 287 bng 15 250 50 0 empty empty empty 17 7 0 10 -262144
-1 -1;
#X obj 389 311 tgl 15 0 empty empty empty 17 7 0 10 -262144 -1 -1 1
1;
#X obj 116 271 == 1;
#X floatatom 139 345 5 0 0 0 - - -;
#X obj 84 396 sel 1 0;
#X obj 82 427 tgl 15 0 empty empty empty 17 7 0 10 -262144 -1 -1 0
1;
#X obj 32 426 bng 15 250 50 0 empty empty empty 17 7 0 10 -262144 -1
-1;
#X floatatom 82 447 5 0 0 0 - - -;
#X obj 136 427 tgl 15 0 empty empty empty 17 7 0 10 -262144 -1 -1 1
1;
#X floatatom 136 447 5 0 0 0 - - -;
#X obj 597 397 spigot 0;
#X msg 590 358 1;
#X floatatom 597 420 5 0 0 0 - - -;
#X obj 653 368 tgl 15 0 empty empty empty 17 7 0 10 -262144 -1 -1 0
1;
#X connect 3 0 6 0;
#X connect 3 1 7 0;
#X connect 4 0 3 0;
#X connect 5 0 3 1;
#X connect 10 0 15 0;
#X connect 12 0 15 0;
#X connect 13 0 15 0;
#X connect 15 0 11 0;
#X connect 16 0 15 1;
#X connect 18 0 19 0;
#X connect 19 0 20 0;
#X connect 20 0 25 0;
#X connect 21 0 22 0;
#X connect 22 0 23 0;
#X connect 24 0 21 0;
#X connect 25 0 26 0;
#X connect 27 0 28 0;
#X connect 28 0 29 0;
#X connect 29 0 30 0;
#X connect 29 0 35 0;
#X connect 30 0 31 0;
#X connect 31 0 36 0;
#X connect 31 0 63 0;
#X connect 32 0 33 0;
#X connect 33 0 34 0;
#X connect 37 0 38 0;
#X connect 38 0 39 0;
#X connect 38 0 40 0;
#X connect 40 0 41 0;
#X connect 41 0 42 0;
#X connect 41 0 43 0;
#X connect 43 0 44 0;
#X connect 44 0 45 0;
#X connect 46 0 47 0;
#X connect 47 0 64 0;
#X connect 48 0 49 0;
#X connect 49 0 50 0;
#X connect 49 0 51 0;
#X connect 51 0 52 0;
#X connect 52 0 53 0;
#X connect 53 0 54 0;
#X connect 54 0 55 0;
#X connect 54 0 56 0;
#X connect 56 0 57 0;
#X connect 57 0 58 0;
#X connect 58 0 59 0;
#X connect 59 0 60 0;
#X connect 59 0 61 0;
#X connect 61 0 62 0;
#X connect 63 0 46 0;
#X connect 64 0 65 0;
#X connect 65 0 66 0;
#X connect 65 1 69 0;
#X connect 66 0 68 0;
#X connect 69 0 70 0;
#X connect 71 0 73 0;
#X connect 72 0 71 0;
#X connect 74 0 71 1;
