#N canvas 0 0 1266 658 12;
#X obj 49 36 bng 19 250 50 0 empty empty empty 0 -10 0 12 #fcfcfc #000000
#000000;
#X obj 49 60 tgl 19 0 empty empty empty 0 -10 0 12 #fcfcfc #000000
#000000 0 1;
#X floatatom 49 84 5 0 0 0 - - -, f 5;
#X obj 137 31 != 1;
#X floatatom 137 55 5 0 0 0 - - -, f 5;
#X obj 50 224 tgl 19 0 empty empty empty 0 -10 0 12 #fcfcfc #000000
#000000 0 1;
#X obj 82 225 tgl 19 0 empty empty empty 0 -10 0 12 #fcfcfc #000000
#000000 0 1;
#X obj 50 190 sel 1 0;
#X floatatom 82 249 5 0 0 0 - - -, f 5;
#X obj 610 190 spigot;
#X obj 440 70 trigger;
#X obj 203 31 != 1;
#X floatatom 203 55 5 0 0 0 - - -, f 5;
#X obj 160 180 sel 0;
#X obj 160 220 tgl 16 0 empty empty empty 17 7 0 10 #fcfcfc #000000
#000000 0 1;
#X floatatom 200 220 5 0 0 0 - - -, f 5;
#X obj 610 42 bng 19 250 50 0 empty empty empty 0 -10 0 12 #fcfcfc
#000000 #000000;
#X obj 610 66 tgl 19 0 empty empty empty 0 -10 0 12 #fcfcfc #000000
#000000 0 1;
#X floatatom 610 90 5 0 0 0 - - -, f 5;
#X floatatom 610 219 5 0 0 0 - - -, f 5;
#X msg 780 120 1;
#X obj 790 80 t b b;
#X obj 790 50 bng 15 250 50 0 empty empty empty 17 7 0 10 #fcfcfc #000000
#000000;
#X floatatom 820 150 5 0 0 0 - - -, f 5;
#X floatatom 780 149 5 0 0 0 - - -, f 5;
#X msg 820 120 5;
#X obj 780 210 pack f f;
#X obj 780 239 print;
#X obj 960 60 bng 15 250 50 0 empty empty empty 17 7 0 10 #fcfcfc #000000
#000000;
#X floatatom 990 160 5 0 0 0 - - -, f 5;
#X floatatom 950 159 5 0 0 0 - - -, f 5;
#X obj 950 220 pack f f;
#X obj 950 249 print;
#X obj 960 90 t;
#X msg 990 130 7;
#X msg 950 130 8;
#X obj 80 450 spigot;
#X obj 214 391 t f b;
#X floatatom 210 440 5 0 0 0 - - -, f 5;
#X obj 300 440 tgl 15 0 empty empty empty 17 7 0 10 #fcfcfc #000000
#000000 0 1;
#X msg 208 346 2;
#X obj 214 391 t f b;
#X floatatom 210 440 5 0 0 0 - - -, f 5;
#X obj 300 440 tgl 15 0 empty empty empty 17 7 0 10 #fcfcfc #000000
#000000 0 1;
#X msg 208 346 2;
#X obj 500 470 expr if($f1 == 1 \, $f1 \, 0);
#X obj 500 382 bng 19 250 50 0 empty empty empty 0 -10 0 12 #fcfcfc
#000000 #000000;
#X obj 500 406 tgl 19 0 empty empty empty 0 -10 0 12 #fcfcfc #000000
#000000 0 1;
#X floatatom 500 430 5 0 0 0 - - -, f 5;
#X floatatom 500 499 5 0 0 0 - - -, f 5;
#X obj 910 350 counter;
#X obj 790 470 gate;
#X obj 640 350 f;
#X text 680 350 store;
#X text 910 530 have previous states;
#X connect 0 0 1 0;
#X connect 1 0 2 0;
#X connect 2 0 3 0;
#X connect 3 0 4 0;
#X connect 4 0 7 0;
#X connect 4 0 11 0;
#X connect 4 0 13 0;
#X connect 6 0 8 0;
#X connect 7 0 5 0;
#X connect 7 1 6 0;
#X connect 9 0 19 0;
#X connect 11 0 12 0;
#X connect 12 0 9 0;
#X connect 13 0 14 0;
#X connect 13 1 15 0;
#X connect 16 0 17 0;
#X connect 17 0 18 0;
#X connect 18 0 9 1;
#X connect 20 0 24 0;
#X connect 21 0 20 0;
#X connect 21 1 25 0;
#X connect 22 0 21 0;
#X connect 23 0 26 1;
#X connect 24 0 26 0;
#X connect 25 0 23 0;
#X connect 26 0 27 0;
#X connect 28 0 33 0;
#X connect 29 0 31 1;
#X connect 30 0 31 0;
#X connect 31 0 32 0;
#X connect 33 0 35 0;
#X connect 33 1 34 0;
#X connect 34 0 29 0;
#X connect 35 0 30 0;
#X connect 37 0 38 0;
#X connect 37 1 39 0;
#X connect 40 0 37 0;
#X connect 41 0 42 0;
#X connect 41 1 43 0;
#X connect 44 0 41 0;
#X connect 45 0 49 0;
#X connect 46 0 47 0;
#X connect 47 0 48 0;
#X connect 48 0 45 0;
