#N canvas 76 76 1920 1016 12;
#X obj 102 109 tgl 24 0 empty l1 empty 0 -10 0 12 #00faff #000000 #000000 0 1;
#X obj 132 109 tgl 24 0 empty l2 empty 0 -10 0 12 #00faff #000000 #000000 0 1;
#X obj 161 109 tgl 24 0 empty l3 empty 0 -10 0 12 #00faff #000000 #000000 0 1;
#X obj 191 109 tgl 24 0 empty l4 empty 0 -10 0 12 #00faff #000000 #000000 0 1;
#X obj 220 109 tgl 24 0 empty l5 empty 0 -10 0 12 #00faff #000000 #000000 0 1;
#X obj 250 109 tgl 24 0 empty l6 empty 0 -10 0 12 #00faff #000000 #000000 0 1;
#X obj 279 109 tgl 24 0 empty l7 empty 0 -10 0 12 #00faff #000000 #000000 0 1;
#X obj 309 109 tgl 24 0 empty l8 empty 0 -10 0 12 #00faff #000000 #000000 0 1;
#X obj 339 109 tgl 24 0 empty l9 empty 0 -10 0 12 #00faff #000000 #000000 0 1;
#X obj 369 109 tgl 24 0 empty l10 empty 0 -10 0 12 #00faff #000000 #000000 0 1;
#X obj 120 314 vradio 19 1 1 3 m1 empty empty 0 -10 0 12 #fcfcfc #000000 #000000 0;
#X obj 147 314 vradio 19 1 1 3 m2 empty empty 0 -10 0 12 #fcfcfc #000000 #000000 2;
#X obj 173 314 vradio 19 1 1 3 m3 empty empty 0 -10 0 12 #fcfcfc #000000 #000000 2;
#X obj 200 314 vradio 19 1 1 3 m4 empty empty 0 -10 0 12 #fcfcfc #000000 #000000 2;
#X obj 225 314 vradio 19 1 1 3 m5 empty empty 0 -10 0 12 #fcfcfc #000000 #000000 2;
#X obj 250 314 vradio 19 1 1 3 m6 empty empty 0 -10 0 12 #fcfcfc #000000 #000000 2;
#X obj 276 314 vradio 19 1 1 3 m7 empty empty 0 -10 0 12 #fcfcfc #000000 #000000 2;
#X obj 303 314 vradio 19 1 1 3 m8 empty empty 0 -10 0 12 #fcfcfc #000000 #000000 2;
#X obj 328 314 vradio 19 1 1 3 m9 empty empty 0 -10 0 12 #fcfcfc #000000 #000000 2;
#X obj 355 314 vradio 19 1 1 3 m10 empty empty 0 -10 0 12 #fcfcfc #000000 #000000 2;
#X obj 45 171 hsl 30 30 1 13 0 1 p1 empty Pitch -35 15 1 12 #fcfcfc #000000 #000000 1650 1;
#X obj 45 214 hsl 30 30 0 1 0 1 g1 empty Gain -34 15 1 12 #fcfcfc #000000 #000000 2900 1;
#X obj 89 171 hsl 30 30 1 13 0 1 p2 empty empty -35 15 1 12 #fcfcfc #000000 #000000 1500 1;
#X obj 89 214 hsl 30 30 0 1 0 1 g2 empty empty -34 15 1 12 #fcfcfc #000000 #000000 2900 1;
#X obj 133 171 hsl 30 30 1 13 0 1 p3 empty empty -35 15 1 12 #fcfcfc #000000 #000000 1900 1;
#X obj 133 214 hsl 30 30 0 1 0 1 g3 empty empty -34 15 1 12 #fcfcfc #000000 #000000 2900 1;
#X obj 175 171 hsl 30 30 1 13 0 1 p4 empty empty -35 15 1 12 #fcfcfc #000000 #000000 1750 1;
#X obj 175 214 hsl 30 30 0 1 0 1 g4 empty empty -34 15 1 12 #fcfcfc #000000 #000000 2900 1;
#X obj 219 171 hsl 30 30 1 13 0 1 p5 empty empty -35 15 1 12 #fcfcfc #000000 #000000 1650 1;
#X obj 219 214 hsl 30 30 0 1 0 1 g5 empty empty -34 15 1 12 #fcfcfc #000000 #000000 2900 1;
#X obj 262 171 hsl 30 30 1 13 0 1 p6 empty empty -35 15 1 12 #fcfcfc #000000 #000000 1950 1;
#X obj 262 214 hsl 30 30 0 1 0 1 g6 empty empty -34 15 1 12 #fcfcfc #000000 #000000 2900 1;
#X obj 306 171 hsl 30 30 1 13 0 1 p7 empty empty -35 15 1 12 #fcfcfc #000000 #000000 1800 1;
#X obj 306 214 hsl 30 30 0 1 0 1 g7 empty empty -34 15 1 12 #fcfcfc #000000 #000000 2900 1;
#X obj 348 171 hsl 30 30 1 13 0 1 p8 empty empty -35 15 1 12 #fcfcfc #000000 #000000 1550 1;
#X obj 348 214 hsl 30 30 0 1 0 1 g8 empty empty -34 15 1 12 #fcfcfc #000000 #000000 2900 1;
#X obj 392 171 hsl 30 30 1 13 0 1 p9 empty empty -35 15 1 12 #fcfcfc #000000 #000000 1850 1;
#X obj 392 214 hsl 30 30 0 1 0 1 g9 empty empty -34 15 1 12 #fcfcfc #000000 #000000 2900 1;
#X obj 435 171 hsl 30 30 1 13 0 1 p10 empty empty -35 15 1 12 #fcfcfc #000000 #000000 1750 1;
#X obj 435 214 hsl 30 30 0 1 0 1 g10 empty empty -34 15 1 12 #fcfcfc #000000 #000000 2900 1;
#X obj -25 70 vradio 19 1 0 2 ON OFF empty 0 -10 0 12 #fcfcfc #000000 #000000 0;
#X text -51 72 OFF;
#X text -44 89 ON;
#X msg 1027 423 1;
#X msg 1027 375 tempo \$1 permin;
#X obj 1027 400 metro 1 300 permin;
#X obj 1027 445 stages, f 7;
#X msg 1086 445 1;
#X obj 1027 348 r speed;
#X obj 1027 469 s OFF;
#X obj 991 375 r ON;
#X obj 1053 138 hsl 100 25 0 1 0 1 hpf empty HPF -2 -10 0 12 #fcfcfc #000000 #000000 9900 1;
#X obj 1053 240 hsl 100 25 0 1 0 1 lpf empty LPF -2 -10 0 12 #fcfcfc #000000 #000000 9900 1;
#X obj 1051 187 hsl 100 25 0 1 0 1 gain empty Gain -2 -10 0 12 #fcfcfc #000000 #000000 9900 1;
#X obj 1055 289 hsl 100 25 0 1 0 1 sq empty SQ -2 -10 0 12 #fcfcfc #000000 #000000 6550 1;
#X obj 1177 136 hsl 100 25 0 1 0 1 high empty BPH -2 -10 0 12 #fcfcfc #000000 #000000 100 1;
#X obj 1177 186 hsl 100 25 0 1 0 1 low empty BPL -2 -10 0 12 #fcfcfc #000000 #000000 7850 1;
#X obj 1177 239 hsl 100 25 12 1200 0 1 speed empty Speed -2 -10 0 12 #fcfcfc #000000 #000000 0 1;
#X obj 1298 184 hsl 100 25 0 1 0 1 grov empty Tune -2 -10 0 12 #fcfcfc #000000 #000000 6000 1;
#X obj 1300 238 hsl 100 25 0 10 0 1 vib empty Vibrato\ speed -2 -10 0 12 #fcfcfc #000000 #000000 7450 1;
#X obj 1297 136 hsl 100 25 0 135 0 1 mod empty Modulation\ speed -2 -10 0 12 #fcfcfc #000000 #000000 8400 1;
#X obj 514 132 tgl 15 1 1a - HPF -25 8 1 8 #fcfcfc #000000 #000000 0 1;
#X obj 529 132 tgl 15 1 2a - empty 17 7 0 10 #fcfcfc #000000 #000000 0 1;
#X obj 544 132 tgl 15 1 3a - empty 17 7 0 10 #fcfcfc #000000 #000000 0 1;
#X obj 559 132 tgl 15 1 4a - empty 17 7 0 10 #fcfcfc #000000 #000000 0 1;
#X obj 514 147 tgl 15 1 1b - Direct -25 8 1 8 #fcfcfc #000000 #000000 0 1;
#X obj 529 147 tgl 15 0 2b - empty 17 7 0 10 #fcfcfc #000000 #000000 0 1;
#X obj 544 147 tgl 15 1 3b - empty 17 7 0 10 #fcfcfc #000000 #000000 0 1;
#X obj 559 147 tgl 15 1 4b - empty 17 7 0 10 #fcfcfc #000000 #000000 0 1;
#X obj 514 162 tgl 15 1 1c - LPF -25 8 1 8 #fcfcfc #000000 #000000 0 1;
#X obj 529 162 tgl 15 1 2c - empty 17 7 0 10 #fcfcfc #000000 #000000 0 1;
#X obj 544 162 tgl 15 1 3c - empty 17 7 0 10 #fcfcfc #000000 #000000 0 1;
#X obj 559 162 tgl 15 1 4c - empty 17 7 0 10 #fcfcfc #000000 #000000 0 1;
#X obj 514 177 tgl 15 1 1d - SQ -25 8 1 8 #fcfcfc #000000 #000000 0 1;
#X obj 529 177 tgl 15 1 2d - empty 17 7 0 10 #fcfcfc #000000 #000000 0 1;
#X obj 544 177 tgl 15 1 3d - empty 17 7 0 10 #fcfcfc #000000 #000000 0 1;
#X obj 559 177 tgl 15 1 4d - empty 17 7 0 10 #fcfcfc #000000 #000000 0 1;
#X text 518 115 1;
#X text 534 115 2;
#X text 563 115 4;
#X text 549 115 3;
#X obj 514 192 tgl 15 1 1e - BPF\ 1 -25 8 1 8 #fcfcfc #000000 #000000 0 1;
#X obj 529 192 tgl 15 1 2e - empty 17 7 0 10 #fcfcfc #000000 #000000 0 1;
#X obj 544 192 tgl 15 1 3e - empty 17 7 0 10 #fcfcfc #000000 #000000 0 1;
#X obj 559 192 tgl 15 1 4e - empty 17 7 0 10 #fcfcfc #000000 #000000 0 1;
#X obj 514 207 tgl 15 1 1f - BPF\ 2 -25 8 1 8 #fcfcfc #000000 #000000 1 1;
#X obj 529 207 tgl 15 0 2f - empty 17 7 0 10 #fcfcfc #000000 #000000 0 1;
#X obj 544 207 tgl 15 1 3f - empty 17 7 0 10 #fcfcfc #000000 #000000 1 1;
#X obj 559 207 tgl 15 1 4f - empty 17 7 0 10 #fcfcfc #000000 #000000 1 1;
#X obj 514 222 tgl 15 1 1g - BPF\ 3 -25 8 1 8 #fcfcfc #000000 #000000 0 1;
#X obj 529 222 tgl 15 1 2g - empty 17 7 0 10 #fcfcfc #000000 #000000 0 1;
#X obj 544 222 tgl 15 1 3g - empty 17 7 0 10 #fcfcfc #000000 #000000 0 1;
#X obj 559 222 tgl 15 1 4g - empty 17 7 0 10 #fcfcfc #000000 #000000 0 1;
#X obj 514 237 tgl 15 1 1h - BPF\ 4 -25 8 1 8 #fcfcfc #000000 #000000 0 1;
#X obj 529 237 tgl 15 1 2h - empty 17 7 0 10 #fcfcfc #000000 #000000 0 1;
#X obj 544 237 tgl 15 1 3h - empty 17 7 0 10 #fcfcfc #000000 #000000 0 1;
#X obj 559 237 tgl 15 1 4h - empty 17 7 0 10 #fcfcfc #000000 #000000 0 1;
#X obj 574 132 tgl 15 1 5a - empty -25 8 0 8 #fcfcfc #000000 #fc2828 0 1;
#X obj 589 132 tgl 15 1 6a - 6 0 -10 0 10 #fcfcfc #000000 #000000 0 1;
#X obj 604 132 tgl 15 1 7a - 7 5 -10 0 10 #fcfcfc #000000 #000000 0 1;
#X obj 619 132 tgl 15 1 8a - empty 17 7 0 10 #fcfcfc #000000 #000000 0 1;
#X obj 574 147 tgl 15 1 5b - empty -25 8 0 8 #fcfcfc #000000 #fc2828 1 1;
#X obj 589 147 tgl 15 0 6b - empty 17 7 0 10 #fcfcfc #000000 #000000 0 1;
#X obj 604 147 tgl 15 1 7b - empty 17 7 0 10 #fcfcfc #000000 #000000 1 1;
#X obj 619 147 tgl 15 1 8b - empty 17 7 0 10 #fcfcfc #000000 #000000 1 1;
#X obj 574 162 tgl 15 1 5c - empty -25 8 0 8 #fcfcfc #000000 #fc2828 0 1;
#X obj 589 162 tgl 15 1 6c - empty 17 7 0 10 #fcfcfc #000000 #000000 0 1;
#X obj 604 162 tgl 15 1 7c - empty 17 7 0 10 #fcfcfc #000000 #000000 0 1;
#X obj 619 162 tgl 15 1 8c - empty 17 7 0 10 #fcfcfc #000000 #000000 0 1;
#X obj 574 177 tgl 15 1 5d - empty -25 8 0 8 #fcfcfc #000000 #fc2828 0 1;
#X obj 589 177 tgl 15 1 6d - empty 17 7 0 10 #fcfcfc #000000 #000000 0 1;
#X obj 604 177 tgl 15 1 7d - empty 17 7 0 10 #fcfcfc #000000 #000000 0 1;
#X obj 619 177 tgl 15 1 8d - empty 17 7 0 10 #fcfcfc #000000 #000000 0 1;
#X obj 574 192 tgl 15 1 5e - empty -25 8 0 8 #fcfcfc #000000 #fc2828 0 1;
#X obj 589 192 tgl 15 1 6e - empty 17 7 0 10 #fcfcfc #000000 #000000 0 1;
#X obj 604 192 tgl 15 1 7e - empty 17 7 0 10 #fcfcfc #000000 #000000 0 1;
#X obj 619 192 tgl 15 1 8e - empty 17 7 0 10 #fcfcfc #000000 #000000 0 1;
#X obj 574 207 tgl 15 1 5f - empty -25 8 0 8 #fcfcfc #000000 #fc2828 0 1;
#X obj 589 207 tgl 15 0 6f - empty 17 7 0 10 #fcfcfc #000000 #000000 0 1;
#X obj 604 207 tgl 15 1 7f - empty 17 7 0 10 #fcfcfc #000000 #000000 0 1;
#X obj 619 207 tgl 15 1 8f - empty 17 7 0 10 #fcfcfc #000000 #000000 0 1;
#X obj 574 222 tgl 15 1 5g - empty -25 8 0 8 #fcfcfc #000000 #fc2828 0 1;
#X obj 589 222 tgl 15 1 6g - empty 17 7 0 10 #fcfcfc #000000 #000000 0 1;
#X obj 604 222 tgl 15 1 7g - empty 17 7 0 10 #fcfcfc #000000 #000000 0 1;
#X obj 619 222 tgl 15 1 8g - empty 17 7 0 10 #fcfcfc #000000 #000000 0 1;
#X obj 574 237 tgl 15 1 5h - empty -25 8 0 8 #fcfcfc #000000 #fc2828 0 1;
#X obj 589 237 tgl 15 1 6h - empty 17 7 0 10 #fcfcfc #000000 #000000 0 1;
#X obj 604 237 tgl 15 1 7h - empty 17 7 0 10 #fcfcfc #000000 #000000 0 1;
#X obj 619 237 tgl 15 1 8h - empty 17 7 0 10 #fcfcfc #000000 #000000 0 1;
#X obj 634 132 tgl 15 1 9a - empty 17 7 0 10 #fcfcfc #000000 #000000 0 1;
#X obj 649 132 tgl 15 1 10a - empty 17 7 0 10 #fcfcfc #000000 #000000 0 1;
#X obj 634 147 tgl 15 1 9b - empty 17 7 0 10 #fcfcfc #000000 #000000 1 1;
#X obj 649 147 tgl 15 1 10b - empty 17 7 0 10 #fcfcfc #000000 #000000 1 1;
#X obj 634 162 tgl 15 1 9c - empty 17 7 0 10 #fcfcfc #000000 #000000 0 1;
#X obj 649 162 tgl 15 1 10c - empty 17 7 0 10 #fcfcfc #000000 #000000 0 1;
#X obj 634 177 tgl 15 1 9d - empty 17 7 0 10 #fcfcfc #000000 #000000 0 1;
#X obj 649 177 tgl 15 1 10d - empty 17 7 0 10 #fcfcfc #000000 #000000 0 1;
#X obj 634 192 tgl 15 1 9e - empty 17 7 0 10 #fcfcfc #000000 #000000 0 1;
#X obj 649 192 tgl 15 1 10e - empty 17 7 0 10 #fcfcfc #000000 #000000 0 1;
#X obj 634 207 tgl 15 1 9f - empty 17 7 0 10 #fcfcfc #000000 #000000 0 1;
#X obj 649 207 tgl 15 1 10f - empty 17 7 0 10 #fcfcfc #000000 #000000 0 1;
#X obj 634 222 tgl 15 1 9g - empty 17 7 0 10 #fcfcfc #000000 #000000 0 1;
#X obj 649 222 tgl 15 1 10g - empty 17 7 0 10 #fcfcfc #000000 #000000 0 1;
#X obj 634 237 tgl 15 1 9h - empty 17 7 0 10 #fcfcfc #000000 #000000 0 1;
#X obj 649 237 tgl 15 1 10h - empty 17 7 0 10 #fcfcfc #000000 #000000 0 1;
#X text 578 115 5;
#X text 594 115 6;
#X text 609 115 7;
#X text 623 115 8;
#X text 639 115 9;
#X text 648 115 10;
#X msg 695 52 \; - 1;
#X msg 695 87 \; - 0;
#X obj 514 252 tgl 15 1 1i - Mod -25 8 1 8 #fcfcfc #000000 #000000 1 1;
#X obj 529 252 tgl 15 1 2i - empty 17 7 0 10 #fcfcfc #000000 #000000 1 1;
#X obj 544 252 tgl 15 1 3i - empty 17 7 0 10 #fcfcfc #000000 #000000 1 1;
#X obj 559 252 tgl 15 1 4i - empty 17 7 0 10 #fcfcfc #000000 #000000 1 1;
#X obj 514 267 tgl 15 1 1j - Vib -25 8 1 8 #fcfcfc #000000 #000000 0 1;
#X obj 529 267 tgl 15 1 2j - empty 17 7 0 10 #fcfcfc #000000 #000000 0 1;
#X obj 544 267 tgl 15 1 3j - empty 17 7 0 10 #fcfcfc #000000 #000000 0 1;
#X obj 559 267 tgl 15 1 4j - empty 17 7 0 10 #fcfcfc #000000 #000000 0 1;
#X obj 574 252 tgl 15 1 5i - empty -25 8 0 8 #fcfcfc #000000 #fc2828 0 1;
#X obj 589 252 tgl 15 1 6i - empty 17 7 0 10 #fcfcfc #000000 #000000 0 1;
#X obj 604 252 tgl 15 1 7i - empty 17 7 0 10 #fcfcfc #000000 #000000 0 1;
#X obj 619 252 tgl 15 1 8i - empty 17 7 0 10 #fcfcfc #000000 #000000 0 1;
#X obj 574 267 tgl 15 1 5j - empty -25 8 0 8 #fcfcfc #000000 #fc2828 0 1;
#X obj 589 267 tgl 15 1 6j - empty 17 7 0 10 #fcfcfc #000000 #000000 0 1;
#X obj 604 267 tgl 15 1 7j - empty 17 7 0 10 #fcfcfc #000000 #000000 0 1;
#X obj 619 267 tgl 15 1 8j - empty 17 7 0 10 #fcfcfc #000000 #000000 0 1;
#X obj 634 252 tgl 15 1 9i - empty 17 7 0 10 #fcfcfc #000000 #000000 0 1;
#X obj 649 252 tgl 15 1 10i - empty 17 7 0 10 #fcfcfc #000000 #000000 0 1;
#X obj 634 267 tgl 15 1 9j - empty 17 7 0 10 #fcfcfc #000000 #000000 0 1;
#X obj 649 267 tgl 15 1 10j - empty 17 7 0 10 #fcfcfc #000000 #000000 0 1;
#N canvas 0 50 450 250 (subpatch) 0;
#X array matrix\$0 100 float 1;
#A 0 0.0496063 0.049301 0.0491524 0.0491423 0.0492557 0.0494817 0.0498144 0.0502512 0.0507922 0.0514384 0.0521909 0.0530497 0.0540137 0.0550807 0.0562475 0.0575103 0.0588651 0.0603077 0.0618344 0.0634416 0.0651261 0.0668848 0.0687148 0.0706131 0.072577 0.0746035 0.0766896 0.0788322 0.0810283 0.0832747 0.0855684 0.0879062 0.0902851 0.0927022 0.0951545 0.0976391 0.100153 0.102694 0.105258 0.107844 0.110448 0.113068 0.115701 0.117679 0.119264 0.120681 0.122081 0.123538 0.12506 0.126609 0.128124 0.129542 0.130811 0.131898 0.132789 0.133486 0.134003 0.134358 0.134569 0.134653 0.13462 0.134477 0.134226 0.133867 0.133399 0.13282 0.132131 0.131333 0.130428 0.129419 0.12831 0.127106 0.12581 0.124426 0.122958 0.121409 0.119783 0.118082 0.116309 0.114468 0.112561 0.110591 0.108562 0.106477 0.104338 0.102149 0.0999137 0.0976345 0.0953147 0.0929573 0.0905652 0.0881414 0.0856888 0.0832103 0.0807088 0.0781869 0.0756475 0.0730933 0.0712182 0.0697488;
#X coords 0 1 99 -1 200 140 1;
#X restore 481 324 graph;
#X obj 1115 41 steps;
#X obj 998 36 tgl 19 0 empty empty empty 0 -10 0 12 #fcfcfc #000000 #000000 0 1;
#X obj 998 60 metro 100;
#X obj 998 84 tabwrite~ matrix\$0;
#X obj 735 185 freqscope;
#X text 1111 327 modulation speed o vibrato kanske bör ändras till gain för det filtret....kanske inte nåt som går att kontrollera för tune kolla vad som blir rimligast \, att den sköter oktaven?;
#X obj 774 75 dac~;
#X obj 866 15 limiter;
#X obj 756 42 compressor;
#X obj 832 94 output~;
#X connect 43 0 46 0;
#X connect 44 0 45 0;
#X connect 45 0 43 0;
#X connect 46 0 49 0;
#X connect 46 1 47 0;
#X connect 47 0 46 1;
#X connect 48 0 44 0;
#X connect 50 0 45 0;
#X connect 174 0 181 0;
#X connect 175 0 176 0;
#X connect 176 0 177 0;
#X connect 181 0 182 0;
#X connect 182 0 183 0;
#X connect 182 0 177 0;
#X connect 182 0 178 0;
