#N canvas 421 177 1920 1016 12;
#X obj 140 79 break, f 10;
#X obj 237 80 Dflipflop;
#X obj 237 179 != 1;
#X obj 295 179 f;
#X obj 297 128 t f f;
#X obj 295 156 sel 1;
#X obj 236 222 tgl 25 0 empty empty empty 0 -10 0 12 #c6feff #000000 #000000 0 1;
#X obj 350 81 Dflipflop;
#X obj 350 180 != 1;
#X obj 408 180 f;
#X obj 410 129 t f f;
#X obj 408 157 sel 1;
#X obj 349 223 tgl 25 0 empty empty empty 0 -10 0 12 #c6feff #000000 #000000 0 1;
#X obj 475 77 break, f 10;
#X obj 148 221 tgl 25 0 empty empty empty 0 -10 0 12 #c6feff #000000 #000000 0 1;
#X obj 483 222 tgl 25 0 empty empty empty 0 -10 0 12 #c6feff #000000 #000000 0 1;
#X msg 529 26 0;
#X msg 166 33 1;
#X obj 77 40 tgl 19 0 empty empty empty 0 -10 0 12 #fcfcfc #000000 #000000 0 1;
#X obj 446 33 tgl 19 0 empty empty empty 0 -10 0 12 #fcfcfc #000000 #000000 0 1;
#X msg 476 24 1;
#X msg 215 32 0;
#X obj 129 362 break, f 10;
#X obj 151 407 tgl 25 0 empty empty empty 0 -10 0 12 #c6feff #000000 #000000 0 1;
#X msg 125 317 1;
#X msg 175 314 0;
#X obj 240 362 shift, f 10;
#X obj 334 363 shift, f 10;
#X obj 428 363 break, f 10;
#X text 620 20 in: D clk \, rst out: !Q \, Q \, clk;
#X msg 478 317 0;
#X obj 263 405 tgl 25 0 empty empty empty 0 -10 0 12 #c6feff #000000 #000000 0 1;
#X obj 353 405 tgl 25 0 empty empty empty 0 -10 0 12 #c6feff #000000 #000000 0 1;
#X obj 451 404 tgl 25 0 empty empty empty 0 -10 0 12 #c6feff #000000 #000000 0 1;
#X text 576 274 om db inte funkar \, prva kloca;
#X text 576 183 In: df \, clk rst db. Out: db \, lamp \, df \, clk;
#X obj 518 363 shift, f 10;
#X obj 612 364 shift, f 10;
#X obj 706 364 break, f 10;
#X obj 541 406 tgl 25 0 empty empty empty 0 -10 0 12 #c6feff #000000 #000000 0 1;
#X obj 631 406 tgl 25 0 empty empty empty 0 -10 0 12 #c6feff #000000 #000000 0 1;
#X obj 729 405 tgl 25 0 empty empty empty 0 -10 0 12 #c6feff #000000 #000000 0 1;
#X msg 772 321 0;
#X msg 609 316 1;
#X obj 36 405 tgl 19 0 empty empty empty 0 -10 0 12 #fcfcfc #000000 #000000 0 1;
#X obj 674 435 tgl 19 0 empty empty empty 0 -10 0 12 #fcfcfc #000000 #000000 0 1;
#X msg 334 301 1;
#X connect 0 1 14 0;
#X connect 0 2 1 0;
#X connect 0 3 1 1;
#X connect 1 0 2 0;
#X connect 1 1 3 1;
#X connect 1 2 4 0;
#X connect 2 0 6 0;
#X connect 3 0 7 0;
#X connect 4 0 7 1;
#X connect 4 1 5 0;
#X connect 5 0 3 0;
#X connect 7 0 8 0;
#X connect 7 1 9 1;
#X connect 7 2 10 0;
#X connect 8 0 12 0;
#X connect 9 0 13 0;
#X connect 10 0 13 1;
#X connect 10 1 11 0;
#X connect 11 0 9 0;
#X connect 13 0 0 3;
#X connect 13 1 15 0;
#X connect 16 0 13 2;
#X connect 17 0 0 0;
#X connect 18 0 0 0;
#X connect 19 0 13 0;
#X connect 20 0 13 1;
#X connect 21 0 0 2;
#X connect 22 0 44 0;
#X connect 22 1 23 0;
#X connect 22 2 26 0;
#X connect 22 3 26 1;
#X connect 24 0 22 0;
#X connect 25 0 22 2;
#X connect 26 0 22 3;
#X connect 26 1 31 0;
#X connect 26 2 27 0;
#X connect 26 3 27 1;
#X connect 27 0 26 3;
#X connect 27 1 32 0;
#X connect 27 2 28 0;
#X connect 27 3 28 1;
#X connect 28 0 27 3;
#X connect 28 1 33 0;
#X connect 28 2 36 0;
#X connect 28 3 36 1;
#X connect 30 0 28 2;
#X connect 36 0 28 3;
#X connect 36 1 39 0;
#X connect 36 2 37 0;
#X connect 36 3 37 1;
#X connect 37 0 36 3;
#X connect 37 1 40 0;
#X connect 37 2 38 0;
#X connect 37 3 38 1;
#X connect 38 0 37 3;
#X connect 38 0 45 0;
#X connect 38 1 41 0;
#X connect 42 0 38 2;
#X connect 43 0 36 2;
#X connect 43 0 37 2;
#X connect 46 0 26 2;
#X connect 46 0 27 2;
