#N canvas 1914 0 1920 1016 12;
#X obj 44 41 inlet db;
#X obj 149 42 inlet df;
#X obj 228 43 inlet sm;
#X obj 87 412 outlet db;
#X obj 181 413 outlet df;
#X obj 282 413 outlet sm;
#X obj 189 251 JKFF, f 9;
#X obj 298 43 inlet reset;
#X obj 27 326 != 1;
#X msg 189 182 1;
#X obj 189 206 t f f;
#X obj 150 116 t f f b f;
#X obj 484 167 spigot;
#X obj 484 143 t f f;
#X text 7 219 testar att byta db;
#X text 540 142 tog bort detta efter df;
#X connect 1 0 11 0;
#X connect 6 1 4 0;
#X connect 7 0 6 3;
#X connect 8 0 3 0;
#X connect 9 0 10 0;
#X connect 10 0 6 0;
#X connect 10 1 6 2;
#X connect 11 0 6 1;
#X connect 11 1 3 0;
#X connect 11 2 9 0;
#X connect 11 3 5 0;
#X connect 13 0 12 0;
#X connect 13 1 12 1;
