#N canvas 1914 0 1920 1016 12;
#X obj 129 204 Dflipflop;
#X obj 138 247 f;
#X obj 141 326 outlet DF;
#X obj 11 285 tgl 25 0 empty empty empty 0 -10 0 12 #c6feff #000000 #000000 0 1;
#X obj 85 279 != 1;
#X obj 29 329 outlet lamp;
#X text 37 362 skiljer sig dessa åt?;
#X obj 127 52 inlet clk;
#X obj 35 54 inlet DF;
#X obj 234 328 outlet clk;
#X obj 226 55 inlet reset;
#X obj 17 138 t f f b;
#X obj 62 164 t b b;
#X obj 85 246 f;
#X obj 334 57 inlet mode;
#X obj 335 92 t f f;
#X obj 307 119 == 3;
#X obj 371 119 == 4;
#X obj 273 202 spigot;
#X obj 336 203 spigot;
#X text 54 10 koppla samman med inlet reset \, för trycker ju 0 när vill ha b o 1 när s;
#X text 345 30 3b 4 s;
#X obj 429 57 inlet db;
#X obj 398 203 spigot;
#X obj 216 204 spigot;
#X obj 331 329 outlet db;
#X obj 429 81 t f f;
#X obj 454 203 spigot;
#X obj 371 143 t f f f;
#X obj 332 262 bng 19 250 50 0 empty empty empty 0 -10 0 12 #fcfcfc #000000 #000000;
#X floatatom 228 275 5 0 0 0 - - - 0;
#X obj 273 227 tgl 19 0 empty empty empty 0 -10 0 12 #fcfcfc #000000 #000000 0 1;
#X obj 510 204 spigot;
#X obj 35 78 t f f f;
#X obj 305 148 t f f f;
#X text 518 16 break använder db \, vad behöver break för att aktivera \, vikl vi ha 1 eller 0? vad skickar vi?;
#X text 513 59 i shift skickar vi bara db vidare;
#X text 520 86 db 1 i break ger att D i DFF får 1 dvs J 1 \, K=0 vilket ger en Q=1 . Om db 0 ger det D 0 -> Q= 0 Vi anväder Q som DF (och inverterade !Q dvs Q till lampan så dessa borde vara samma) dvs att när break får db = 1 så ger det en Q= 1DF= 1 ut och vidare. \, detta används i nästa steg av shift. OM shift får DF = 1så ger det Q= 1;
#X connect 0 0 13 1;
#X connect 0 1 1 1;
#X connect 1 0 2 0;
#X connect 4 0 3 0;
#X connect 4 0 5 0;
#X connect 7 0 23 0;
#X connect 8 0 33 0;
#X connect 10 0 0 2;
#X connect 11 0 9 0;
#X connect 11 1 0 1;
#X connect 11 2 12 0;
#X connect 12 0 13 0;
#X connect 12 1 1 0;
#X connect 13 0 4 0;
#X connect 14 0 15 0;
#X connect 15 0 16 0;
#X connect 15 1 17 0;
#X connect 16 0 34 0;
#X connect 17 0 28 0;
#X connect 18 0 0 0;
#X connect 18 0 31 0;
#X connect 19 0 0 0;
#X connect 22 0 26 0;
#X connect 23 0 11 0;
#X connect 24 0 11 0;
#X connect 26 0 18 0;
#X connect 26 1 27 0;
#X connect 27 0 25 0;
#X connect 28 0 19 1;
#X connect 28 1 23 1;
#X connect 28 2 27 1;
#X connect 32 0 25 0;
#X connect 33 0 24 0;
#X connect 33 1 19 0;
#X connect 33 2 32 0;
#X connect 34 0 24 1;
#X connect 34 0 29 0;
#X connect 34 1 18 1;
#X connect 34 1 30 0;
#X connect 34 2 32 1;
