#N canvas 190 190 1920 1016 12;
#X obj 148 163 Dflipflop;
#X obj 148 262 != 1;
#X obj 206 262 f;
#X obj 208 211 t f f;
#X obj 206 239 sel 1;
#X text 445 46 in: D clk \, rst out: !Q \, Q \, clk;
#X obj 43 58 inlet DF;
#X obj 114 57 inlet clk;
#X obj 191 57 inlet reset;
#X obj 284 57 inlet db;
#X obj 67 408 outlet db;
#X obj 144 408 outlet lamp;
#X obj 234 408 outlet DF;
#X obj 309 408 outlet clk;
#X connect 0 0 1 0;
#X connect 0 1 2 1;
#X connect 0 2 3 0;
#X connect 1 0 11 0;
#X connect 2 0 12 0;
#X connect 3 0 13 0;
#X connect 3 1 4 0;
#X connect 4 0 2 0;
#X connect 6 0 0 0;
#X connect 7 0 0 1;
#X connect 8 0 0 2;
#X connect 9 0 10 0;
