#N canvas 75 4 1920 1016 12;
#X obj 149 236 count;
#X obj 268 236 s2, f 6;
#X text 531 25 count: in: db \, df \, sm rs out: db \, df sm;
#X text 532 50 s2: in: df \, clk \, rs \, mode \, db out: lmp \, df \, clk \, db;
#X text 535 85 mode: 3b \, 4s \, 5c;
#X obj 300 34 inlet mode;
#X obj 95 390 outlet db;
#X obj 187 391 outlet lamp;
#X obj 289 391 outlet df;
#X obj 370 393 outlet clk;
#X obj 28 33 inlet df;
#X obj 114 34 inlet clk;
#X obj 201 33 inlet reset;
#X obj 391 33 inlet db;
#X obj 11 346 spigot;
#X obj 63 346 spigot;
#X obj 9 138 spigot;
#X obj 71 139 spigot;
#X obj 425 96 == 3;
#X obj 363 96 == 4;
#X obj 315 97 == 5;
#X obj 28 57 t f f f;
#X obj 129 139 spigot;
#X obj 315 121 t f f;
#X obj 425 120 t f f;
#X obj 300 58 t f f f f;
#X text 537 124 inget händer om det inte får en klockpuls?;
#X obj 122 85 spigot;
#X obj 201 57 t f f;
#X obj 165 266 t f f;
#X obj 165 290 != 1;
#X obj 363 120 t f f f;
#X obj 307 263 t f f;
#X obj 116 345 spigot;
#X text 538 155 behöver jag alla spigot \, tex innan db ut? det kanske inte kommer något där m inte klockpuls? kan prova om det funkar med spigots på alla ställen annars kan det vara ett bra ställe att börja felsöka.;
#X obj 431 185 tgl 19 0 empty empty empty 0 -10 0 12 #fcfcfc #000000 #000000 0 1;
#X obj 411 233 bng 19 250 50 0 empty empty empty 0 -10 0 12 #fcfcfc #000000 #000000;
#X obj 505 336 tgl 19 0 empty empty empty 0 -10 0 12 #fcfcfc #000000 #000000 0 1;
#X obj 479 334 bng 19 250 50 0 empty empty empty 0 -10 0 12 #fcfcfc #000000 #000000;
#X obj 54 216 tgl 19 0 empty empty empty 0 -10 0 12 #fcfcfc #000000 #000000 0 1;
#X obj 28 214 bng 19 250 50 0 empty empty empty 0 -10 0 12 #fcfcfc #000000 #000000;
#X obj 45 253 tgl 19 0 empty empty empty 0 -10 0 12 #fcfcfc #000000 #000000 0 1;
#X obj 19 251 bng 19 250 50 0 empty empty empty 0 -10 0 12 #fcfcfc #000000 #000000;
#X obj 73 289 tgl 19 0 empty empty empty 0 -10 0 12 #fcfcfc #000000 #000000 0 1;
#X obj 47 287 bng 19 250 50 0 empty empty empty 0 -10 0 12 #fcfcfc #000000 #000000;
#X text 547 239 sm ut från count är alltid 1....;
#X obj 36 403 tgl 19 0 empty empty empty 0 -10 0 12 #fcfcfc #000000 #000000 0 1;
#X obj 10 401 bng 19 250 50 0 empty empty empty 0 -10 0 12 #fcfcfc #000000 #000000;
#X obj 90 429 tgl 19 0 empty empty empty 0 -10 0 12 #fcfcfc #000000 #000000 0 1;
#X obj 64 427 bng 19 250 50 0 empty empty empty 0 -10 0 12 #fcfcfc #000000 #000000;
#X obj 157 438 tgl 19 0 empty empty empty 0 -10 0 12 #fcfcfc #000000 #000000 0 1;
#X obj 131 436 bng 19 250 50 0 empty empty empty 0 -10 0 12 #fcfcfc #000000 #000000;
#X floatatom 262 88 5 0 0 0 - - - 0;
#X text 540 267 comment;
#X connect 0 0 14 0;
#X connect 0 0 40 0;
#X connect 0 0 39 0;
#X connect 0 1 29 0;
#X connect 0 1 42 0;
#X connect 0 1 41 0;
#X connect 0 2 9 0;
#X connect 0 2 44 0;
#X connect 0 2 43 0;
#X connect 1 0 7 0;
#X connect 1 1 8 0;
#X connect 1 2 9 0;
#X connect 1 3 32 0;
#X connect 1 3 37 0;
#X connect 1 3 38 0;
#X connect 5 0 25 0;
#X connect 10 0 21 0;
#X connect 11 0 27 0;
#X connect 12 0 28 0;
#X connect 13 0 1 4;
#X connect 13 0 35 0;
#X connect 13 0 36 0;
#X connect 14 0 6 0;
#X connect 14 0 46 0;
#X connect 14 0 47 0;
#X connect 15 0 6 0;
#X connect 15 0 49 0;
#X connect 15 0 48 0;
#X connect 16 0 0 1;
#X connect 17 0 1 0;
#X connect 18 0 24 0;
#X connect 19 0 31 0;
#X connect 20 0 23 0;
#X connect 21 0 16 0;
#X connect 21 1 17 0;
#X connect 21 2 22 0;
#X connect 22 0 1 0;
#X connect 23 0 14 1;
#X connect 23 1 16 1;
#X connect 24 0 15 1;
#X connect 24 1 17 1;
#X connect 25 0 1 3;
#X connect 25 0 52 0;
#X connect 25 1 20 0;
#X connect 25 2 19 0;
#X connect 25 3 18 0;
#X connect 27 0 1 1;
#X connect 28 0 0 3;
#X connect 28 1 1 2;
#X connect 29 0 30 0;
#X connect 29 1 8 0;
#X connect 30 0 7 0;
#X connect 31 0 33 1;
#X connect 31 1 22 1;
#X connect 31 2 27 1;
#X connect 32 0 15 0;
#X connect 32 1 33 0;
#X connect 33 0 6 0;
#X connect 33 0 51 0;
#X connect 33 0 50 0;
