#N canvas 160 160 1920 1026 12;
#X listbox 53 73 20 0 0 0 - - - 0;
#X msg 53 43 1 1 1 0 0;
#X obj 32 146 unpack f f f f f;
#X floatatom 32 170 5 0 0 0 - - - 0;
#X floatatom 141 170 5 0 0 0 - - - 0;
#X obj 494 36 +;
#X listbox 373 119 20 0 0 0 - - - 0;
#X obj 523 36 +;
#X obj 53 96 t l l;
#X obj 22 227 unpack f f f f f;
#X obj 22 304 +;
#X obj 28 276 t b f;
#X obj 65 304 +;
#X obj 71 276 t b f;
#X obj 36 375 +;
#X obj 42 347 t b f;
#X floatatom 37 410 5 0 0 0 - - - 0;
#X obj 113 441 / 10;
#X floatatom 113 465 5 0 0 0 - - - 0;
#X obj 115 361 expr $f1 + $f2 + $f3 + $f4 + $f5 + $f6 + $f7 + $f8 + $f9 + $f10;
#X obj 115 399 / 10;
#X text 631 186 make signal 1 octave lower;
#X text 631 202 *from E03.octave.divider.pd;
#X text 439 199 BP Q at 30... set at 1.4;
#X obj 383 224 unpack f f f f f f f f f f;
#X obj 395 245 t b f;
#X obj 441 245 t b f;
#X obj 485 245 t b f;
#X obj 530 245 t b f;
#X obj 574 245 t b f;
#X obj 620 245 t b f;
#X obj 664 245 t b f;
#X obj 709 245 t b f;
#X obj 383 203 t l l;
#X obj 383 266 expr 1 / ($f1 + $f2 + $f3 + $f4 + $f5 + $f6 + $f7 + $f8 + $f9 + $f10);
#X connect 0 0 5 0;
#X connect 0 0 7 0;
#X connect 0 0 8 0;
#X connect 1 0 0 0;
#X connect 2 0 3 0;
#X connect 2 4 4 0;
#X connect 5 0 6 0;
#X connect 8 0 2 0;
#X connect 8 1 9 0;
#X connect 9 0 10 0;
#X connect 9 0 19 0;
#X connect 9 1 11 0;
#X connect 9 2 12 0;
#X connect 9 3 13 0;
#X connect 10 0 14 0;
#X connect 11 0 10 0;
#X connect 11 0 19 0;
#X connect 11 1 10 1;
#X connect 11 1 19 1;
#X connect 12 0 15 0;
#X connect 13 0 12 0;
#X connect 13 1 12 1;
#X connect 14 0 16 0;
#X connect 15 0 14 0;
#X connect 15 1 14 1;
#X connect 16 0 17 0;
#X connect 17 0 18 0;
#X connect 19 0 20 0;
#X connect 24 0 34 0;
#X connect 24 1 25 0;
#X connect 24 2 26 0;
#X connect 24 3 27 0;
#X connect 24 4 28 0;
#X connect 24 5 29 0;
#X connect 24 6 30 0;
#X connect 24 7 31 0;
#X connect 24 8 32 0;
#X connect 25 0 34 0;
#X connect 25 1 34 1;
#X connect 26 0 34 0;
#X connect 26 1 34 2;
#X connect 27 0 34 0;
#X connect 27 1 34 3;
#X connect 28 0 34 0;
#X connect 28 1 34 4;
#X connect 29 0 34 0;
#X connect 29 1 34 5;
#X connect 30 0 34 0;
#X connect 30 1 34 6;
#X connect 31 0 34 0;
#X connect 31 1 34 7;
#X connect 32 0 34 0;
#X connect 32 1 34 8;
#X connect 33 0 24 0;
