#N canvas -26 28 1920 1016 12;
#X obj 89 127 mode, f 7;
#X obj 152 127 mode, f 7;
#X obj 216 127 mode, f 7;
#X obj 279 127 mode, f 7;
#X obj 104 155 tgl 19 0 empty empty empty 0 -10 0 12 #fcfcfc #000000 #000000 0 1;
#X obj 167 154 tgl 19 0 empty empty empty 0 -10 0 12 #fcfcfc #000000 #000000 0 1;
#X obj 231 155 tgl 19 0 empty empty empty 0 -10 0 12 #fcfcfc #000000 #000000 0 1;
#X obj 294 154 tgl 19 0 empty empty empty 0 -10 0 12 #fcfcfc #000000 #000000 0 1;
#X msg 89 77 1;
#X msg 158 68 1;
#X obj 89 101 t b f;
#X obj 330 87 tgl 19 0 empty empty empty 0 -10 0 12 #fcfcfc #000000 #000000 0 1;
#X msg 221 73 0;
#X msg 265 73 2;
#X text 381 39 VARFÖR SLUTADE DET FUNKA?????s;
#X connect 0 1 4 0;
#X connect 0 2 1 0;
#X connect 0 3 1 1;
#X connect 1 0 0 4;
#X connect 1 1 5 0;
#X connect 1 2 2 0;
#X connect 1 3 2 1;
#X connect 2 0 1 4;
#X connect 2 1 6 0;
#X connect 2 2 3 0;
#X connect 2 3 3 1;
#X connect 3 0 2 4;
#X connect 3 1 7 0;
#X connect 8 0 10 0;
#X connect 9 0 0 2;
#X connect 9 0 1 2;
#X connect 9 0 2 2;
#X connect 9 0 3 2;
#X connect 10 0 0 1;
#X connect 10 1 0 0;
#X connect 11 0 3 4;
#X connect 12 0 0 2;
#X connect 12 0 3 2;
#X connect 13 0 2 2;
#X connect 13 0 1 2;
