#N canvas 152 152 1920 1016 12;
#X text 13 18 En break är en shift som jag ställer initsierar i 1 (ev fixa så att den inverterar beroende på läget innan den sätts till break. En break funkar som en shift i att den styrs av samma klcka som resten av sekvensen. Trots att i ritningarna det står att vi plockar !Q till DF så väljer jag att ta Q som DF eftersom jag vill använda break och shift som liknande \, vi vill alltså ställa up break som en preset shift. dvs skicka in 0 i reset på jkff.;
#X obj 116 315 JKFF, f 9;
#X text 467 23 JKFF: inlet 1 = K \, 2 = clk \, 3 = J \, 4= reset;
#X obj 158 372 t f f;
#X obj 158 396 != 1;
#X obj 57 442 outlet !Q;
#X obj 190 444 outlet Q;
#X obj 290 176 inlet reset;
#X obj 14 180 inlet K;
#X obj 129 174 inlet CLK;
#X obj 224 174 inlet J;
#X msg 191 143 1;
#X msg 83 145 0;
#X obj 158 346 f;
#X obj 290 200 sel 1;
#X msg 290 224 0;
#X text 469 79 inlet K tar outlet !Q \, inlet J tar outlet Q;
#X text 472 108 Q sätts till 1 om J=1 och K=0 \, borde även sätta [f];
#X obj 390 176 inlet trig;
#X obj 390 200 t b b;
#X obj 83 169 t f f;
#X obj 275 447 outlet CLK;
#X text 469 46 outlet: !Q \, Q \, CLK;
#X obj 129 198 t b f f;
#X connect 1 1 13 1;
#X connect 3 0 4 0;
#X connect 3 1 6 0;
#X connect 4 0 5 0;
#X connect 7 0 1 3;
#X connect 7 0 14 0;
#X connect 8 0 1 0;
#X connect 9 0 23 0;
#X connect 10 0 1 2;
#X connect 11 0 1 2;
#X connect 12 0 20 0;
#X connect 13 0 3 0;
#X connect 14 0 15 0;
#X connect 15 0 13 0;
#X connect 18 0 19 0;
#X connect 19 0 12 0;
#X connect 19 1 11 0;
#X connect 20 0 13 0;
#X connect 20 1 1 0;
#X connect 23 0 13 0;
#X connect 23 1 1 1;
#X connect 23 2 21 0;
