#N canvas 950 0 1920 1016 12;
#X obj 241 248 tgl 24 0 empty empty empty 0 -10 0 12 #00faff #000000 #000000 0 1;
#X obj 143 247 tgl 24 0 empty empty empty 0 -10 0 12 #00faff #000000 #000000 0 1;
#X obj 331 247 tgl 24 0 empty empty empty 0 -10 0 12 #00faff #000000 #000000 0 1;
#X obj 95 19 tgl 19 0 empty empty empty 0 -10 0 12 #fcfcfc #000000 #000000 0 1;
#X obj 95 43 metro 1000;
#X obj 95 67 tgl 19 0 empty empty empty 0 -10 0 12 #fcfcfc #000000 #000000 0 1;
#X msg 227 55 1;
#X obj 113 175 count2, f 9;
#X obj 211 176 count2, f 9;
#X obj 301 175 count2, f 9;
#X connect 3 0 4 0;
#X connect 4 0 5 0;
#X connect 5 0 7 1;
#X connect 6 0 7 0;
#X connect 6 0 7 2;
#X connect 6 0 8 0;
#X connect 6 0 8 2;
#X connect 6 0 9 0;
#X connect 6 0 9 2;
#X connect 7 1 1 0;
#X connect 7 2 8 1;
#X connect 8 1 0 0;
#X connect 8 2 9 1;
#X connect 9 1 2 0;
