#N canvas 114 114 1920 1016 12;
#X obj 45 96 tgl 19 0 empty empty empty 0 -10 0 12 #fcfcfc #000000 #000000 0 1;
#X obj 45 120 metro 500;
#X obj 124 230 f;
#X obj 105 281 f;
#X obj 45 144 bang;
#X obj 62 345 f;
#X obj 14 419 f;
#X obj 177 291 tgl 19 0 empty empty empty 0 -10 0 12 #fcfcfc #000000 #000000 0 1;
#X obj 177 326 tgl 19 0 empty empty empty 0 -10 0 12 #fcfcfc #000000 #000000 0 1;
#X obj 177 359 tgl 19 0 empty empty empty 0 -10 0 12 #fcfcfc #000000 #000000 0 1;
#X obj 177 394 tgl 19 0 empty empty empty 0 -10 0 12 #fcfcfc #000000 #000000 0 1;
#X obj 124 254 != 1;
#X obj 82 319 != 1;
#X obj 33 377 != 1;
#X floatatom 111 369 5 0 0 0 - - - 0;
#X floatatom 128 331 5 0 0 0 - - - 0;
#X obj 78 387 bng 19 250 50 0 empty empty empty 0 -10 0 12 #fcfcfc #000000 #000000;
#X msg 152 185 1;
#X obj 196 134 tgl 25 0 empty empty empty 0 -10 0 12 #fcfcfc #000000 #000000 0 1;
#X msg 171 48 bang;
#X obj 260 134 tgl 25 0 empty empty empty 0 -10 0 12 #fcfcfc #000000 #000000 0 1;
#X obj 193 99 f;
#X obj 222 45 tgl 19 0 empty empty empty 0 -10 0 12 #fcfcfc #000000 #000000 0 1;
#X obj 260 98 f;
#X obj 293 354 JKFF, f 14;
#X obj 320 269 tgl 19 0 empty empty empty 0 -10 0 12 #fcfcfc #000000 #000000 0 1;
#X obj 320 293 t f f;
#X obj 295 323 != 1;
#X obj 302 174 tgl 19 0 empty empty empty 0 -10 0 12 #fcfcfc #000000 #000000 0 1;
#X obj 302 198 metro 500;
#X obj 302 222 tgl 19 0 empty empty empty 0 -10 0 12 #fcfcfc #000000 #000000 0 1;
#X obj 296 455 JKFF, f 14;
#X obj 241 406 tgl 25 0 empty empty empty 0 -10 0 12 #fcfcfc #000000 #000000 0 1;
#X obj 401 500 tgl 25 0 empty empty empty 0 -10 0 12 #fcfcfc #000000 #000000 0 1;
#X obj 540 35 tgl 19 0 empty empty empty 0 -10 0 12 #fcfcfc #000000 #000000 0 1;
#X obj 540 59 metro 500;
#X obj 540 83 tgl 19 0 empty empty empty 0 -10 0 12 #fcfcfc #000000 #000000 0 1;
#X msg 582 95 0;
#X msg 493 91 1;
#X obj 523 149 t f f;
#X obj 523 173 != 1;
#X obj 592 246 t f f;
#X obj 592 270 != 1;
#X obj 523 125 JKFF B1, f 8;
#X obj 539 217 JKFF S1, f 8;
#X obj 592 313 JKFF S2, f 8;
#X obj 634 431 JKFF B2;
#X msg 696 385 0;
#X msg 600 395 1;
#X obj 668 140 tgl 25 0 empty empty empty 0 -10 0 12 #c6feff #000000 #000000 0 1;
#X obj 706 140 tgl 25 0 empty empty empty 0 -10 0 12 #c6feff #000000 #000000 0 1;
#X obj 744 142 tgl 25 0 empty empty empty 0 -10 0 12 #c6feff #000000 #000000 0 1;
#X obj 780 143 tgl 25 0 empty empty empty 0 -10 0 12 #c6feff #000000 #000000 0 1;
#X obj 464 170 tgl 25 0 empty empty empty 0 -10 0 12 #feffc6 #000000 #000000 0 1;
#X obj 469 234 tgl 25 0 empty empty empty 0 -10 0 12 #feffc6 #000000 #000000 0 1;
#X obj 498 342 tgl 25 0 empty empty empty 0 -10 0 12 #feffc6 #000000 #000000 0 1;
#X obj 519 424 tgl 25 0 empty empty empty 0 -10 0 12 #feffc6 #000000 #000000 0 1;
#X obj 646 344 t f f;
#X obj 646 368 != 1;
#X text 650 49 bssb(s) 1001 \, 101 \, 11 \, 1000 \, 100 \, 10 \, 1001;
#X text 677 82 101 \, 110;
#X connect 0 0 1 0;
#X connect 1 0 4 0;
#X connect 2 0 7 0;
#X connect 2 0 11 0;
#X connect 3 0 8 0;
#X connect 3 0 12 1;
#X connect 3 0 15 0;
#X connect 4 0 3 0;
#X connect 4 0 5 0;
#X connect 4 0 6 0;
#X connect 4 0 2 0;
#X connect 5 0 9 0;
#X connect 5 0 13 1;
#X connect 5 0 16 0;
#X connect 6 0 10 0;
#X connect 6 0 2 1;
#X connect 11 0 3 1;
#X connect 12 0 5 1;
#X connect 12 0 14 0;
#X connect 13 0 6 1;
#X connect 17 0 2 1;
#X connect 18 0 23 1;
#X connect 19 0 21 0;
#X connect 19 0 23 0;
#X connect 21 0 18 0;
#X connect 22 0 21 1;
#X connect 23 0 20 0;
#X connect 24 0 31 0;
#X connect 24 1 31 2;
#X connect 24 1 32 0;
#X connect 25 0 26 0;
#X connect 26 0 27 0;
#X connect 26 1 24 2;
#X connect 27 0 24 0;
#X connect 28 0 29 0;
#X connect 29 0 30 0;
#X connect 30 0 24 1;
#X connect 30 0 31 1;
#X connect 31 1 33 0;
#X connect 34 0 35 0;
#X connect 35 0 36 0;
#X connect 36 0 43 1;
#X connect 36 0 44 1;
#X connect 36 0 45 1;
#X connect 37 0 43 2;
#X connect 38 0 43 0;
#X connect 39 0 40 0;
#X connect 39 1 44 2;
#X connect 40 0 44 0;
#X connect 41 0 42 0;
#X connect 41 1 45 2;
#X connect 42 0 45 0;
#X connect 43 0 39 0;
#X connect 43 0 53 0;
#X connect 43 1 49 0;
#X connect 44 0 54 0;
#X connect 44 1 41 0;
#X connect 44 1 50 0;
#X connect 45 0 55 0;
#X connect 45 1 51 0;
#X connect 45 1 57 0;
#X connect 46 0 56 0;
#X connect 46 1 52 0;
#X connect 47 0 46 2;
#X connect 48 0 46 0;
#X connect 57 0 58 0;
#X connect 57 1 43 0;
#X connect 57 1 46 1;
#X connect 58 0 43 2;
