#N canvas 38 38 1920 1016 12;
#X obj 55 29 inlet~;
#X obj 55 53 sigmund~;
#X obj 55 77 mtof;
#X obj 55 101 t f f;
#X obj 55 154 sig~;
#X obj 92 128 * -1;
#X obj 149 29 inlet;
#X obj 55 223 phasor~;
#X obj 92 154 sig~;
#X obj 135 223 phasor~;
#X obj 149 53 t b f;
#X msg 149 77 0;
#X text 201 56 from 0 to 1;
#X obj 55 323 *~ 0.6;
#X obj 55 347 outlet~;
#X obj 55 273 +~;
#X obj 55 297 -~ 1;
#X connect 0 0 1 0;
#X connect 1 0 2 0;
#X connect 2 0 3 0;
#X connect 3 0 4 0;
#X connect 3 1 5 0;
#X connect 4 0 7 0;
#X connect 5 0 8 0;
#X connect 6 0 10 0;
#X connect 7 0 15 0;
#X connect 8 0 9 0;
#X connect 9 0 15 1;
#X connect 10 0 11 0;
#X connect 10 1 9 1;
#X connect 11 0 7 1;
#X connect 13 0 14 0;
#X connect 15 0 16 0;
#X connect 16 0 13 0;
