#N canvas 228 228 1920 1016 12;
#X obj 246 55 inlet;
#X obj 246 79 unpack f f f f f f f f f f;
#X obj 107 188 outlet;
#X obj 160 189 outlet;
#X obj 213 189 outlet;
#X obj 266 190 outlet;
#X obj 318 189 outlet;
#X obj 371 190 outlet;
#X obj 425 191 outlet;
#X obj 478 192 outlet;
#X obj 532 193 outlet;
#X obj 585 194 outlet;
#X connect 0 0 1 0;
#X connect 1 0 2 0;
#X connect 1 1 3 0;
#X connect 1 2 4 0;
#X connect 1 3 5 0;
#X connect 1 4 6 0;
#X connect 1 5 7 0;
#X connect 1 6 8 0;
#X connect 1 7 9 0;
#X connect 1 8 10 0;
#X connect 1 9 11 0;
