#N canvas 190 190 1920 1016 12;
#X obj 45 25 inlet;
#X obj 100 25 inlet;
#X obj 153 25 inlet;
#X obj 39 110 spigot;
#X obj 96 110 spigot;
#X obj 155 110 spigot;
#X obj 38 196 outlet;
#X obj 97 195 outlet;
#X obj 154 195 outlet;
#X text 421 134 spigot is not the best;
#X text 425 190 need to open/close? no?;
#X obj 212 27 inlet;
#X obj 214 112 spigot;
#X obj 213 197 outlet;
#X obj 277 28 inlet;
#X obj 277 52 t f f f f;
#X connect 0 0 3 0;
#X connect 1 0 4 0;
#X connect 2 0 5 0;
#X connect 3 0 6 0;
#X connect 4 0 7 0;
#X connect 5 0 8 0;
#X connect 11 0 12 0;
#X connect 12 0 13 0;
#X connect 14 0 15 0;
#X connect 15 0 3 1;
#X connect 15 1 4 1;
#X connect 15 2 5 1;
#X connect 15 3 12 1;
