#N canvas 60 192 1920 1016 12;
#X obj 204 256 ylva, f 11;
#X obj 100 142 ljud, f 8;
#X obj 8 17 inlet lamp;
#X obj 93 16 inlet freq;
#X obj 175 16 inlet indgain;
#X obj 653 15 inlet unpack;
#X obj 204 280 outlet~;
#X obj 378 15 r hpf;
#X obj 512 16 r high;
#X obj 334 16 r mod;
#X obj 563 16 r low;
#X obj 469 16 r amp;
#X obj 610 16 r sq;
#X obj 280 16 r grov;
#X obj 423 16 r lpf;
#X connect 0 0 6 0;
#X connect 1 0 0 0;
#X connect 2 0 1 0;
#X connect 3 0 1 1;
#X connect 4 0 1 4;
#X connect 5 0 0 7;
#X connect 7 0 0 1;
#X connect 8 0 0 4;
#X connect 9 0 1 3;
#X connect 10 0 0 5;
#X connect 11 0 0 3;
#X connect 12 0 0 6;
#X connect 13 0 1 2;
#X connect 14 0 0 2;
