#N canvas 949 1009 1920 1016 12;
#X obj 19 36 inlet~;
#X obj 75 35 inlet;
#X obj 75 59 phasor~;
#X obj 32 136 *~;
#X obj 32 160 outlet~;
#X connect 0 0 3 0;
#X connect 1 0 2 0;
#X connect 2 0 3 1;
#X connect 3 0 4 0;
