#N canvas -8 20 1920 1016 12;
#X obj 155 53 inlet;
#X obj 82 51 inlet;
#X obj 234 53 inlet;
#X obj 99 116 nand;
#X obj 98 172 nand;
#X obj 112 78 t b f;
#X obj 118 141 t b f;
#X obj 140 215 nand;
#X obj 162 173 t b f;
#X obj 139 302 outlet;
#X connect 0 0 5 0;
#X connect 1 0 3 0;
#X connect 2 0 8 0;
#X connect 3 0 6 0;
#X connect 3 0 4 0;
#X connect 4 0 7 0;
#X connect 5 0 3 0;
#X connect 5 1 3 1;
#X connect 6 0 4 0;
#X connect 6 1 4 1;
#X connect 7 0 9 0;
#X connect 8 0 7 0;
#X connect 8 1 7 1;
