#N canvas -10 0 958 1004 12;
#X obj 75 42 tgl 19 0 empty empty empty 0 -10 0 12 #fcfcfc #000000 #000000 0 1;
#X obj 170 40 tgl 19 0 empty empty empty 0 -10 0 12 #fcfcfc #000000 #000000 0 1;
#X obj 109 417 tgl 19 0 empty empty empty 0 -10 0 12 #fcfcfc #000000 #000000 0 1;
#X obj 233 415 tgl 19 0 empty empty empty 0 -10 0 12 #fcfcfc #000000 #000000 0 1;
#X obj 270 37 tgl 19 0 empty empty empty 0 -10 0 12 #fcfcfc #000000 #000000 0 1;
#X obj 79 132 3nand;
#X obj 89 94 t b f;
#X obj 248 131 3nand;
#X obj 202 91 t b f;
#X obj 101 296 nand;
#X obj 108 261 t b f;
#X obj 102 345 f;
#X obj 212 300 nand;
#X obj 219 265 t b f;
#X obj 277 92 t b f;
#X obj 142 93 t b f;
#X obj 190 177 bang;
#X obj 213 349 f;
#X obj 313 398 print Q;
#X connect 0 0 5 0;
#X connect 1 0 6 0;
#X connect 1 0 8 0;
#X connect 1 0 16 0;
#X connect 4 0 7 0;
#X connect 5 0 9 0;
#X connect 6 0 5 0;
#X connect 6 1 5 1;
#X connect 7 0 12 0;
#X connect 8 0 7 0;
#X connect 8 1 7 1;
#X connect 9 0 11 1;
#X connect 10 0 9 0;
#X connect 10 1 9 1;
#X connect 11 0 2 0;
#X connect 11 0 13 0;
#X connect 11 0 14 0;
#X connect 12 0 17 1;
#X connect 13 0 12 0;
#X connect 13 1 12 1;
#X connect 14 0 7 0;
#X connect 14 1 7 2;
#X connect 15 0 5 0;
#X connect 15 1 5 2;
#X connect 16 0 11 0;
#X connect 16 0 17 0;
#X connect 17 0 3 0;
#X connect 17 0 10 0;
#X connect 17 0 15 0;
#X connect 17 0 18 0;
