#N canvas 18 0 1570 1004 12;
#X obj 45 34 inlet DF;
#X obj 411 36 inlet DB;
#X obj 145 33 inlet RS;
#X obj 233 34 inlet S;
#X obj 324 35 inlet mode;
#X obj 45 61 != 1;
#X obj 96 433 outlet oscgate;
#X obj 45 111 != 1;
#X obj 45 85 f;
#X obj 203 434 outlet lamp;
#X text 197 464 lamp = timer;
#X obj 288 433 outlet RS;
#X obj 454 224 != 1;
#X obj 460 175 t b f;
#X obj 486 286 != 1;
#X obj 492 237 t b f;
#X msg 540 56 1;
#X msg 581 56 0;
#X obj 645 20 loadbang;
#X obj 433 434 outlet DF;
#X obj 25 434 outlet DB;
#X obj 365 433 outlet S;
#X obj 545 122 switch;
#X obj 545 152 switch;
#X obj 25 395 switch;
#X obj 248 223 switch;
#X obj 365 393 switch;
#X obj 455 367 switch;
#X obj 463 330 JK, f 6;
#X obj 637 104 bng 19 250 50 0 empty empty empty 0 -10 0 12 #fcfcfc #000000 #000000;
#X obj 507 88 bng 19 250 50 0 empty empty empty 0 -10 0 12 #fcfcfc #000000 #000000;
#X obj 618 158 bng 19 250 50 0 empty empty empty 0 -10 0 12 #fcfcfc #000000 #000000;
#X floatatom 603 204 5 0 0 0 - - - 0;
#X obj 538 20 t b b;
#X obj 545 176 bng 19 250 50 0 empty empty empty 0 -10 0 12 #fcfcfc #000000 #000000;
#X obj 415 331 bng 19 250 50 0 empty empty empty 0 -10 0 12 #fcfcfc #000000 #000000;
#X obj 538 359 bng 19 250 50 0 empty empty empty 0 -10 0 12 #fcfcfc #000000 #000000;
#X obj 547 306 bng 19 250 50 0 empty empty empty 0 -10 0 12 #fcfcfc #000000 #000000;
#X obj 418 261 bng 19 250 50 0 empty empty empty 0 -10 0 12 #fcfcfc #000000 #000000;
#X floatatom 610 309 5 0 0 0 - - - 0;
#X obj 600 342 tgl 19 0 empty empty empty 0 -10 0 12 #fcfcfc #000000 #000000 0 1;
#X obj 253 263 bng 19 250 50 0 empty empty empty 0 -10 0 12 #fcfcfc #000000 #000000;
#X obj 92 188 bng 19 250 50 0 empty empty empty 0 -10 0 12 #fcfcfc #000000 #000000;
#X obj 411 60 bng 19 250 50 0 empty empty empty 0 -10 0 12 #fcfcfc #000000 #000000;
#X obj 295 83 bng 19 250 50 0 empty empty empty 0 -10 0 12 #fcfcfc #000000 #000000;
#X floatatom 339 84 5 0 0 0 - - - 0;
#X floatatom 298 276 5 0 0 0 - - - 0;
#X obj 454 200 ||;
#X obj 486 262 ||;
#X connect 0 0 5 0;
#X connect 1 0 24 2;
#X connect 1 0 25 1;
#X connect 1 0 25 0;
#X connect 1 0 43 0;
#X connect 2 0 11 0;
#X connect 3 0 26 2;
#X connect 3 0 33 0;
#X connect 4 0 22 3;
#X connect 4 0 23 3;
#X connect 4 0 24 3;
#X connect 4 0 26 3;
#X connect 4 0 27 3;
#X connect 4 0 25 3;
#X connect 4 0 44 0;
#X connect 4 0 45 0;
#X connect 5 0 8 0;
#X connect 7 0 9 0;
#X connect 7 0 25 2;
#X connect 7 0 26 1;
#X connect 7 0 26 0;
#X connect 7 0 42 0;
#X connect 8 0 6 0;
#X connect 8 0 7 0;
#X connect 8 0 24 0;
#X connect 8 0 24 1;
#X connect 12 0 28 0;
#X connect 12 0 38 0;
#X connect 12 0 48 0;
#X connect 13 0 47 0;
#X connect 13 1 47 1;
#X connect 14 0 28 2;
#X connect 14 0 37 0;
#X connect 14 0 39 0;
#X connect 14 0 40 0;
#X connect 15 0 48 0;
#X connect 15 1 48 1;
#X connect 16 0 22 1;
#X connect 16 0 22 2;
#X connect 16 0 30 0;
#X connect 17 0 22 0;
#X connect 17 0 23 2;
#X connect 17 0 29 0;
#X connect 18 0 16 0;
#X connect 18 0 17 0;
#X connect 22 0 23 0;
#X connect 22 0 23 1;
#X connect 22 0 31 0;
#X connect 23 0 13 0;
#X connect 23 0 15 0;
#X connect 23 0 32 0;
#X connect 23 0 34 0;
#X connect 24 0 20 0;
#X connect 25 0 41 0;
#X connect 25 0 46 0;
#X connect 25 0 47 0;
#X connect 26 0 21 0;
#X connect 26 0 28 1;
#X connect 27 0 19 0;
#X connect 28 0 27 0;
#X connect 28 0 35 0;
#X connect 28 1 27 2;
#X connect 28 1 27 1;
#X connect 28 1 36 0;
#X connect 33 0 17 0;
#X connect 33 1 16 0;
#X connect 47 0 12 0;
#X connect 48 0 14 0;
