#N canvas 869 252 1920 1016 12;
#X obj 58 35 inlet;
#X obj 128 35 inlet;
#X obj 84 167 outlet;
#X obj 84 112 *;
#X obj 84 136 != 1;
#X connect 0 0 3 0;
#X connect 1 0 3 1;
#X connect 3 0 4 0;
#X connect 4 0 2 0;
