#N canvas 326 205 1920 1016 12;
#X obj 62 211 spigot;
#X obj 128 213 spigot;
#X obj 195 214 spigot;
#X obj 219 38 inlet mode;
#X obj 219 139 tgl 19 0 empty empty empty 0 -10 0 12 #fcfcfc #000000 #000000 0 1;
#X obj 219 105 == 0;
#X obj 269 140 tgl 19 0 empty empty empty 0 -10 0 12 #fcfcfc #000000 #000000 0 1;
#X obj 269 106 == 1;
#X obj 317 140 tgl 19 0 empty empty empty 0 -10 0 12 #fcfcfc #000000 #000000 0 1;
#X obj 317 106 == 2;
#X obj 101 305 outlet;
#X obj 33 40 inlet B;
#X obj 89 40 inlet C;
#X obj 147 40 inlet S;
#X floatatom 33 64 5 0 0 0 - - - 0;
#X floatatom 89 64 5 0 0 0 - - - 0;
#X floatatom 147 64 5 0 0 0 - - - 0;
#X floatatom 195 238 5 0 0 0 - - - 0;
#X floatatom 128 237 5 0 0 0 - - - 0;
#X floatatom 62 235 5 0 0 0 - - - 0;
#X connect 0 0 10 0;
#X connect 0 0 19 0;
#X connect 1 0 10 0;
#X connect 1 0 18 0;
#X connect 2 0 10 0;
#X connect 2 0 17 0;
#X connect 3 0 5 0;
#X connect 3 0 7 0;
#X connect 3 0 9 0;
#X connect 4 0 0 1;
#X connect 5 0 4 0;
#X connect 6 0 1 1;
#X connect 7 0 6 0;
#X connect 8 0 2 1;
#X connect 9 0 8 0;
#X connect 11 0 0 0;
#X connect 11 0 14 0;
#X connect 12 0 1 0;
#X connect 12 0 15 0;
#X connect 13 0 2 0;
#X connect 13 0 16 0;
