#N canvas 76 76 1920 1016 12;
#X obj 135 88 tgl 19 0 empty empty empty 0 -10 0 12 #fcfcfc #000000 #000000 0 1;
#X obj 216 76 tgl 19 0 empty empty empty 0 -10 0 12 #fcfcfc #000000 #000000 0 1;
#X obj 155 217 tgl 19 0 empty empty empty 0 -10 0 12 #fcfcfc #000000 #000000 0 1;
#X obj 164 145 nand;
#X obj 173 117 t b f;
#X obj 307 84 tgl 19 0 empty empty empty 0 -10 0 12 #fcfcfc #000000 #000000 0 1;
#X obj 350 81 tgl 19 0 empty empty empty 0 -10 0 12 #fcfcfc #000000 #000000 0 1;
#X obj 343 228 tgl 19 0 empty empty empty 0 -10 0 12 #fcfcfc #000000 #000000 0 1;
#X obj 351 124 t b f;
#X obj 351 156 3nand;
#X obj 400 83 tgl 19 0 empty empty empty 0 -10 0 12 #fcfcfc #000000 #000000 0 1;
#X obj 401 126 t b f;
#X connect 0 0 3 0;
#X connect 1 0 4 0;
#X connect 3 0 2 0;
#X connect 4 0 3 0;
#X connect 4 1 3 1;
#X connect 5 0 9 0;
#X connect 6 0 8 0;
#X connect 8 0 9 0;
#X connect 8 1 9 1;
#X connect 9 0 7 0;
#X connect 10 0 11 0;
#X connect 11 0 9 0;
#X connect 11 1 9 2;
