#N canvas 76 76 1920 1016 12;
#X obj 68 21 tgl 19 0 empty empty empty 0 -10 0 12 #fcfcfc #000000 #000000 0 1;
#X obj 111 18 tgl 19 0 empty empty empty 0 -10 0 12 #fcfcfc #000000 #000000 0 1;
#X obj 111 42 t b f;
#X floatatom 78 205 5 0 0 0 - - - 0;
#X obj 201 17 t b f;
#X obj 81 233 f;
#X floatatom 179 201 5 0 0 0 - - - 0;
#X obj 182 229 f;
#X floatatom 294 201 5 0 0 0 - - - 0;
#X obj 297 229 f;
#X floatatom 389 203 5 0 0 0 - - - 0;
#X obj 392 231 f;
#X obj 549 31 bng 19 250 50 0 empty empty empty 0 -10 0 12 #fcfcfc #000000 #000000;
#X floatatom 392 255 5 0 0 0 - - - 0;
#X obj 68 115 expr if ($f1 == 0 && $f2 == 0 \, -$f3 \, 7) \; if ($f1 == 1 && $f2 == 0 \, 1 \, 56) \; if ($f1 == 0 && $f2 == 1 \, 0 \, 45) \; if ($f1 == 1 && $f2 == 1 \, if($f3 == 1 \, 0 \, 84) \, 99);
#X obj 248 18 t b f;
#X obj 293 17 t b f;
#X obj 342 17 t b f;
#X floatatom 366 50 5 0 0 0 - - - 0;
#X floatatom 318 50 5 0 0 0 - - - 0;
#X floatatom 270 49 5 0 0 0 - - - 0;
#X floatatom 220 48 5 0 0 0 - - - 0;
#X connect 0 0 14 0;
#X connect 1 0 2 0;
#X connect 2 0 14 0;
#X connect 2 1 14 1;
#X connect 3 0 5 1;
#X connect 4 0 14 0;
#X connect 4 1 14 2;
#X connect 4 1 21 0;
#X connect 5 0 4 0;
#X connect 6 0 7 1;
#X connect 7 0 15 0;
#X connect 8 0 9 1;
#X connect 9 0 16 0;
#X connect 10 0 11 1;
#X connect 11 0 13 0;
#X connect 11 0 17 0;
#X connect 12 0 11 0;
#X connect 12 0 9 0;
#X connect 12 0 7 0;
#X connect 12 0 5 0;
#X connect 12 0 14 0;
#X connect 14 0 3 0;
#X connect 14 1 6 0;
#X connect 14 2 8 0;
#X connect 14 3 10 0;
#X connect 15 0 14 0;
#X connect 15 1 14 2;
#X connect 15 1 20 0;
#X connect 16 0 14 0;
#X connect 16 1 14 2;
#X connect 16 1 19 0;
#X connect 17 0 14 0;
#X connect 17 1 14 2;
#X connect 17 1 18 0;
