#N canvas -11 -11 1920 1016 12;
#X obj -31 67 != 1;
#X floatatom -31 90 5 0 0 0 - - -;
#X obj -33 160 tgl 15 0 empty empty empty 17 7 0 10 -262144 -1 -1 0
1;
#X obj 32 167 bng 15 250 50 0 empty empty empty 17 7 0 10 -262144 -1
-1;
#X obj 34 191 tgl 15 0 empty empty empty 17 7 0 10 -262144 -1 -1 0
1;
#X obj 85 56 != 1;
#X floatatom 85 79 5 0 0 0 - - -;
#X obj 86 130 tgl 15 0 empty empty empty 17 7 0 10 -262144 -1 -1 0
1;
#X obj 109 129 bng 15 250 50 0 empty empty empty 17 7 0 10 -262144
-1 -1;
#X obj 111 153 tgl 15 0 empty empty empty 17 7 0 10 -262144 -1 -1 0
1;
#X obj 145 55 != 1;
#X floatatom 145 78 5 0 0 0 - - -;
#X obj 146 129 tgl 15 0 empty empty empty 17 7 0 10 -262144 -1 -1 0
1;
#X obj 169 128 bng 15 250 50 0 empty empty empty 17 7 0 10 -262144
-1 -1;
#X obj 171 152 tgl 15 0 empty empty empty 17 7 0 10 -262144 -1 -1 0
1;
#X obj -97 10 bng 15 250 50 0 empty empty empty 17 7 0 10 -262144 -1
-1;
#X obj -97 35 tgl 15 0 empty empty empty 17 7 0 10 -262144 -1 -1 0
1;
#X floatatom -97 55 5 0 0 0 - - -;
#X obj -96 84 tgl 15 0 empty empty empty 17 7 0 10 -262144 -1 -1 0
1;
#X obj 21 127 == 1;
#X floatatom 34 211 5 0 0 0 - - -;
#X obj -300 62 bng 15 250 50 0 empty empty empty 17 7 0 10 -262144
-1 -1;
#X obj -300 87 tgl 15 0 empty empty empty 17 7 0 10 -262144 -1 -1 0
1;
#X floatatom -300 107 5 0 0 0 - - -;
#X obj -299 136 tgl 15 0 empty empty empty 17 7 0 10 -262144 -1 -1
0 1;
#X obj 476 93 != 1;
#X floatatom 476 116 5 0 0 0 - - -;
#X obj 476 159 tgl 15 0 empty empty empty 17 7 0 10 -262144 -1 -1 0
1;
#X obj 410 17 bng 15 250 50 0 empty empty empty 17 7 0 10 -262144 -1
-1;
#X obj 410 42 tgl 15 0 empty empty empty 17 7 0 10 -262144 -1 -1 0
1;
#X floatatom 410 62 5 0 0 0 - - -;
#X obj 411 91 tgl 15 0 empty empty empty 17 7 0 10 -262144 -1 -1 0
1;
#X obj 536 92 != 1;
#X floatatom 536 115 5 0 0 0 - - -;
#X obj 537 166 tgl 15 0 empty empty empty 17 7 0 10 -262144 -1 -1 0
1;
#X obj 596 91 != 1;
#X floatatom 596 114 5 0 0 0 - - -;
#X obj 597 165 tgl 15 0 empty empty empty 17 7 0 10 -262144 -1 -1 0
1;
#X obj 650 94 != 1;
#X floatatom 650 117 5 0 0 0 - - -;
#X obj 650 160 tgl 15 0 empty empty empty 17 7 0 10 -262144 -1 -1 0
1;
#X obj 709 92 != 1;
#X floatatom 709 115 5 0 0 0 - - -;
#X obj 710 166 tgl 15 0 empty empty empty 17 7 0 10 -262144 -1 -1 0
1;
#X obj 769 91 != 1;
#X floatatom 769 114 5 0 0 0 - - -;
#X obj 770 165 tgl 15 0 empty empty empty 17 7 0 10 -262144 -1 -1 0
1;
#X text 441 36 inte helt hundra för den sätter igång alla samtidigt
;
#X obj -28 298 bng 15 250 50 0 empty empty empty 17 7 0 10 -262144
-1 -1;
#X obj -28 323 tgl 15 0 empty empty empty 17 7 0 10 -262144 -1 -1 0
1;
#X floatatom -28 343 5 0 0 0 - - -;
#X obj -27 372 tgl 15 0 empty empty empty 17 7 0 10 -262144 -1 -1 0
1;
#X obj 33 321 != 1;
#X floatatom 33 344 5 0 0 0 - - -;
#X obj 33 387 tgl 15 0 empty empty empty 17 7 0 10 -262144 -1 -1 0
1;
#X connect 0 0 1 0;
#X connect 1 0 2 0;
#X connect 1 0 19 0;
#X connect 3 0 4 0;
#X connect 4 0 20 0;
#X connect 5 0 6 0;
#X connect 6 0 7 0;
#X connect 6 0 8 0;
#X connect 6 0 10 0;
#X connect 8 0 9 0;
#X connect 10 0 11 0;
#X connect 11 0 12 0;
#X connect 11 0 13 0;
#X connect 13 0 14 0;
#X connect 15 0 16 0;
#X connect 16 0 17 0;
#X connect 17 0 18 0;
#X connect 17 0 0 0;
#X connect 19 0 3 0;
#X connect 20 0 5 0;
#X connect 21 0 22 0;
#X connect 22 0 23 0;
#X connect 23 0 24 0;
#X connect 25 0 26 0;
#X connect 26 0 27 0;
#X connect 26 0 32 0;
#X connect 28 0 29 0;
#X connect 29 0 30 0;
#X connect 30 0 31 0;
#X connect 31 0 25 0;
#X connect 32 0 33 0;
#X connect 33 0 34 0;
#X connect 33 0 35 0;
#X connect 35 0 36 0;
#X connect 36 0 37 0;
#X connect 36 0 38 0;
#X connect 38 0 39 0;
#X connect 39 0 40 0;
#X connect 39 0 41 0;
#X connect 41 0 42 0;
#X connect 42 0 43 0;
#X connect 42 0 44 0;
#X connect 44 0 45 0;
#X connect 45 0 46 0;
#X connect 48 0 49 0;
#X connect 49 0 50 0;
#X connect 50 0 51 0;
#X connect 51 0 52 0;
#X connect 52 0 53 0;
#X connect 53 0 54 0;
