#N canvas -11 -11 1920 1016 12;
#X obj 24 28 bng 15 250 50 0 empty empty empty 17 7 0 10 -262144 -1
-1;
#X obj 24 53 tgl 15 0 empty empty empty 17 7 0 10 -262144 -1 -1 0 1
;
#X floatatom 24 73 5 0 0 0 - - -;
#X obj 80 30 != 1;
#X floatatom 80 53 5 0 0 0 - - -;
#X obj 25 102 tgl 15 0 empty empty empty 17 7 0 10 -262144 -1 -1 0
1;
#X obj 81 104 tgl 15 0 empty empty empty 17 7 0 10 -262144 -1 -1 1
1;
#X obj 119 132 tgl 15 0 empty empty empty 17 7 0 10 -262144 -1 -1 1
1;
#X obj 96 79 == 1;
#X floatatom 119 152 5 0 0 0 - - -;
#X obj 127 182 sel 1 0;
#X obj 125 213 tgl 15 0 empty empty empty 17 7 0 10 -262144 -1 -1 1
1;
#X floatatom 125 233 5 0 0 0 - - -;
#X obj 179 213 tgl 15 0 empty empty empty 17 7 0 10 -262144 -1 -1 1
1;
#X floatatom 179 233 5 0 0 0 - - -;
#X obj 208 29 != 1;
#X floatatom 208 52 5 0 0 0 - - -;
#X obj 209 103 tgl 15 0 empty empty empty 17 7 0 10 -262144 -1 -1 0
1;
#X obj 247 131 tgl 15 0 empty empty empty 17 7 0 10 -262144 -1 -1 0
1;
#X obj 224 77 == 1;
#X floatatom 247 151 5 0 0 0 - - -;
#X obj 255 181 sel 1 0;
#X obj 253 212 tgl 15 0 empty empty empty 17 7 0 10 -262144 -1 -1 0
1;
#X floatatom 253 232 5 0 0 0 - - -;
#X obj 307 212 tgl 15 0 empty empty empty 17 7 0 10 -262144 -1 -1 0
1;
#X floatatom 307 232 5 0 0 0 - - -;
#X obj 349 30 != 1;
#X floatatom 349 53 5 0 0 0 - - -;
#X obj 350 104 tgl 15 0 empty empty empty 17 7 0 10 -262144 -1 -1 1
1;
#X obj 388 132 tgl 15 0 empty empty empty 17 7 0 10 -262144 -1 -1 1
1;
#X obj 365 78 == 1;
#X floatatom 388 152 5 0 0 0 - - -;
#X obj 396 182 sel 1 0;
#X obj 394 213 tgl 15 0 empty empty empty 17 7 0 10 -262144 -1 -1 0
1;
#X floatatom 394 233 5 0 0 0 - - -;
#X obj 448 213 tgl 15 0 empty empty empty 17 7 0 10 -262144 -1 -1 1
1;
#X floatatom 448 233 5 0 0 0 - - -;
#X obj 469 30 != 1;
#X floatatom 469 53 5 0 0 0 - - -;
#X obj 470 104 tgl 15 0 empty empty empty 17 7 0 10 -262144 -1 -1 1
1;
#X obj 508 132 tgl 15 0 empty empty empty 17 7 0 10 -262144 -1 -1 1
1;
#X obj 485 78 == 1;
#X floatatom 508 152 5 0 0 0 - - -;
#X obj 516 182 sel 1 0;
#X obj 514 213 tgl 15 0 empty empty empty 17 7 0 10 -262144 -1 -1 0
1;
#X floatatom 514 233 5 0 0 0 - - -;
#X obj 568 213 tgl 15 0 empty empty empty 17 7 0 10 -262144 -1 -1 1
1;
#X floatatom 568 233 5 0 0 0 - - -;
#X obj 594 31 != 1;
#X floatatom 594 54 5 0 0 0 - - -;
#X obj 595 105 tgl 15 0 empty empty empty 17 7 0 10 -262144 -1 -1 1
1;
#X obj 633 133 tgl 15 0 empty empty empty 17 7 0 10 -262144 -1 -1 1
1;
#X obj 610 79 == 1;
#X floatatom 633 153 5 0 0 0 - - -;
#X obj 641 183 sel 1 0;
#X obj 639 214 tgl 15 0 empty empty empty 17 7 0 10 -262144 -1 -1 1
1;
#X floatatom 639 234 5 0 0 0 - - -;
#X obj 693 214 tgl 15 0 empty empty empty 17 7 0 10 -262144 -1 -1 0
1;
#X floatatom 693 234 5 0 0 0 - - -;
#X floatatom 37 312 5 0 0 0 - - -;
#X floatatom 89 313 5 0 0 0 - - -;
#X obj 89 335 t b f;
#X obj 45 377 ==;
#X floatatom 45 400 5 0 0 0 - - -;
#X obj 45 422 select 1;
#X floatatom 45 445 5 0 0 0 - - -;
#X obj 152 282 bng 15 250 50 0 empty empty empty 17 7 0 10 -262144
-1 -1;
#X obj 152 307 tgl 15 0 empty empty empty 17 7 0 10 -262144 -1 -1 0
1;
#X floatatom 152 327 5 0 0 0 - - -;
#X obj 208 284 != 1;
#X floatatom 208 307 5 0 0 0 - - -;
#X obj 153 356 tgl 15 0 empty empty empty 17 7 0 10 -262144 -1 -1 0
1;
#X obj 209 358 tgl 15 0 empty empty empty 17 7 0 10 -262144 -1 -1 1
1;
#X obj 296 347 bng 15 250 50 0 empty empty empty 17 7 0 10 -262144
-1 -1;
#X obj 298 371 tgl 15 0 empty empty empty 17 7 0 10 -262144 -1 -1 1
1;
#X floatatom 298 391 5 0 0 0 - - -;
#X obj 306 421 sel 1 0;
#X obj 304 452 tgl 15 0 empty empty empty 17 7 0 10 -262144 -1 -1 1
1;
#X floatatom 304 472 5 0 0 0 - - -;
#X obj 358 452 tgl 15 0 empty empty empty 17 7 0 10 -262144 -1 -1 0
1;
#X floatatom 358 472 5 0 0 0 - - -;
#X obj 225 333 ==;
#X msg 262 282 1;
#X floatatom 262 305 5 0 0 0 - - -;
#X floatatom 235 355 5 0 0 0 - - -;
#X msg 859 82 10;
#X msg 906 82 5;
#X obj 881 133 +;
#X obj 876 18 bng 15 250 50 0 empty empty empty 17 7 0 10 -262144 -1
-1;
#X obj 876 38 t b b;
#X floatatom 881 156 5 0 0 0 - - -;
#X obj 474 431 spigot;
#X msg 739 40 0;
#X obj 739 63 s reset;
#X obj 132 30 r reset;
#X obj 254 28 r reset;
#X obj 393 28 r reset;
#X obj 513 30 r reset;
#X obj 636 31 r reset;
#X obj 447 315 bng 15 250 50 0 empty empty empty 17 7 0 10 -262144
-1 -1;
#X obj 447 340 tgl 15 0 empty empty empty 17 7 0 10 -262144 -1 -1 1
1;
#X floatatom 447 360 5 0 0 0 - - -;
#X obj 448 389 tgl 15 0 empty empty empty 17 7 0 10 -262144 -1 -1 1
1;
#X obj 527 319 bng 15 250 50 0 empty empty empty 17 7 0 10 -262144
-1 -1;
#X obj 527 344 tgl 15 0 empty empty empty 17 7 0 10 -262144 -1 -1 1
1;
#X floatatom 527 364 5 0 0 0 - - -;
#X obj 528 393 tgl 15 0 empty empty empty 17 7 0 10 -262144 -1 -1 1
1;
#X obj 744 120 moses;
#X floatatom 474 454 5 0 0 0 - - -;
#X obj 556 431 spigot;
#X floatatom 556 454 5 0 0 0 - - -;
#X connect 0 0 1 0;
#X connect 1 0 2 0;
#X connect 2 0 3 0;
#X connect 2 0 5 0;
#X connect 3 0 4 0;
#X connect 4 0 6 0;
#X connect 4 0 8 0;
#X connect 7 0 9 0;
#X connect 8 0 7 0;
#X connect 9 0 10 0;
#X connect 10 0 11 0;
#X connect 10 1 13 0;
#X connect 11 0 12 0;
#X connect 12 0 15 0;
#X connect 13 0 14 0;
#X connect 15 0 16 0;
#X connect 16 0 17 0;
#X connect 16 0 19 0;
#X connect 18 0 20 0;
#X connect 19 0 18 0;
#X connect 20 0 21 0;
#X connect 21 0 22 0;
#X connect 21 1 24 0;
#X connect 22 0 23 0;
#X connect 23 0 26 0;
#X connect 24 0 25 0;
#X connect 26 0 27 0;
#X connect 27 0 28 0;
#X connect 27 0 30 0;
#X connect 29 0 31 0;
#X connect 30 0 29 0;
#X connect 31 0 32 0;
#X connect 32 0 33 0;
#X connect 32 1 35 0;
#X connect 33 0 34 0;
#X connect 34 0 37 0;
#X connect 35 0 36 0;
#X connect 37 0 38 0;
#X connect 38 0 39 0;
#X connect 38 0 41 0;
#X connect 40 0 42 0;
#X connect 41 0 40 0;
#X connect 42 0 43 0;
#X connect 43 0 44 0;
#X connect 43 1 46 0;
#X connect 44 0 45 0;
#X connect 45 0 48 0;
#X connect 46 0 47 0;
#X connect 48 0 49 0;
#X connect 49 0 50 0;
#X connect 49 0 52 0;
#X connect 51 0 53 0;
#X connect 52 0 51 0;
#X connect 53 0 54 0;
#X connect 54 0 55 0;
#X connect 54 1 57 0;
#X connect 55 0 56 0;
#X connect 57 0 58 0;
#X connect 59 0 62 0;
#X connect 60 0 61 0;
#X connect 61 0 62 0;
#X connect 61 1 62 1;
#X connect 62 0 63 0;
#X connect 63 0 64 0;
#X connect 64 0 65 0;
#X connect 66 0 67 0;
#X connect 67 0 68 0;
#X connect 68 0 69 0;
#X connect 68 0 71 0;
#X connect 69 0 70 0;
#X connect 70 0 72 0;
#X connect 70 0 81 0;
#X connect 73 0 74 0;
#X connect 74 0 75 0;
#X connect 75 0 76 0;
#X connect 76 0 77 0;
#X connect 76 1 79 0;
#X connect 77 0 78 0;
#X connect 79 0 80 0;
#X connect 81 0 84 0;
#X connect 82 0 83 0;
#X connect 83 0 81 1;
#X connect 85 0 87 0;
#X connect 86 0 87 1;
#X connect 87 0 90 0;
#X connect 88 0 89 0;
#X connect 89 0 85 0;
#X connect 89 1 86 0;
#X connect 91 0 108 0;
#X connect 92 0 93 0;
#X connect 94 0 4 0;
#X connect 94 0 12 0;
#X connect 95 0 16 0;
#X connect 95 0 23 0;
#X connect 96 0 27 0;
#X connect 96 0 34 0;
#X connect 97 0 38 0;
#X connect 97 0 45 0;
#X connect 98 0 49 0;
#X connect 98 0 56 0;
#X connect 99 0 100 0;
#X connect 100 0 101 0;
#X connect 101 0 102 0;
#X connect 101 0 91 1;
#X connect 101 0 91 0;
#X connect 103 0 104 0;
#X connect 104 0 105 0;
#X connect 105 0 106 0;
#X connect 105 0 109 0;
#X connect 105 0 109 1;
#X connect 108 0 103 0;
#X connect 109 0 110 0;
