#N canvas -11 -11 1920 1016 12;
#X obj 52 38 bng 15 250 50 0 empty empty empty 17 7 0 10 -262144 -1
-1;
#X obj 52 63 tgl 15 0 empty empty empty 17 7 0 10 -262144 -1 -1 0 1
;
#X floatatom 52 83 5 0 0 0 - - -;
#X obj 108 40 != 1;
#X floatatom 108 63 5 0 0 0 - - -;
#X obj 53 112 tgl 15 0 empty empty empty 17 7 0 10 -262144 -1 -1 0
1;
#X obj 109 114 tgl 15 0 empty empty empty 17 7 0 10 -262144 -1 -1 0
1;
#X obj 145 118 bng 15 250 50 0 empty empty empty 17 7 0 10 -262144
-1 -1;
#X obj 147 142 tgl 15 0 empty empty empty 17 7 0 10 -262144 -1 -1 1
1;
#X obj 124 88 == 1;
#X floatatom 147 162 5 0 0 0 - - -;
#X obj 153 192 sel 1 0;
#X obj 151 223 tgl 15 0 empty empty empty 17 7 0 10 -262144 -1 -1 1
1;
#X floatatom 151 243 5 0 0 0 - - -;
#X obj 205 223 tgl 15 0 empty empty empty 17 7 0 10 -262144 -1 -1 1
1;
#X floatatom 205 243 5 0 0 0 - - -;
#X obj 236 39 != 1;
#X floatatom 236 62 5 0 0 0 - - -;
#X obj 237 113 tgl 15 0 empty empty empty 17 7 0 10 -262144 -1 -1 0
1;
#X obj 273 117 bng 15 250 50 0 empty empty empty 17 7 0 10 -262144
-1 -1;
#X obj 275 141 tgl 15 0 empty empty empty 17 7 0 10 -262144 -1 -1 1
1;
#X obj 252 87 == 1;
#X floatatom 275 161 5 0 0 0 - - -;
#X obj 281 191 sel 1 0;
#X obj 279 222 tgl 15 0 empty empty empty 17 7 0 10 -262144 -1 -1 1
1;
#X floatatom 279 242 5 0 0 0 - - -;
#X obj 333 222 tgl 15 0 empty empty empty 17 7 0 10 -262144 -1 -1 0
1;
#X floatatom 333 242 5 0 0 0 - - -;
#X obj 377 40 != 1;
#X floatatom 377 63 5 0 0 0 - - -;
#X obj 378 114 tgl 15 0 empty empty empty 17 7 0 10 -262144 -1 -1 0
1;
#X obj 414 118 bng 15 250 50 0 empty empty empty 17 7 0 10 -262144
-1 -1;
#X obj 416 142 tgl 15 0 empty empty empty 17 7 0 10 -262144 -1 -1 1
1;
#X obj 393 88 == 1;
#X floatatom 416 162 5 0 0 0 - - -;
#X obj 422 192 sel 1 0;
#X obj 420 223 tgl 15 0 empty empty empty 17 7 0 10 -262144 -1 -1 0
1;
#X floatatom 420 243 5 0 0 0 - - -;
#X obj 474 223 tgl 15 0 empty empty empty 17 7 0 10 -262144 -1 -1 1
1;
#X floatatom 474 243 5 0 0 0 - - -;
#X obj 497 40 != 1;
#X floatatom 497 63 5 0 0 0 - - -;
#X obj 498 114 tgl 15 0 empty empty empty 17 7 0 10 -262144 -1 -1 1
1;
#X obj 534 118 bng 15 250 50 0 empty empty empty 17 7 0 10 -262144
-1 -1;
#X obj 536 142 tgl 15 0 empty empty empty 17 7 0 10 -262144 -1 -1 0
1;
#X obj 513 88 == 1;
#X floatatom 536 162 5 0 0 0 - - -;
#X obj 542 192 sel 1 0;
#X obj 540 223 tgl 15 0 empty empty empty 17 7 0 10 -262144 -1 -1 1
1;
#X floatatom 540 243 5 0 0 0 - - -;
#X obj 594 223 tgl 15 0 empty empty empty 17 7 0 10 -262144 -1 -1 1
1;
#X floatatom 594 243 5 0 0 0 - - -;
#X obj 622 41 != 1;
#X floatatom 622 64 5 0 0 0 - - -;
#X obj 623 115 tgl 15 0 empty empty empty 17 7 0 10 -262144 -1 -1 0
1;
#X obj 659 119 bng 15 250 50 0 empty empty empty 17 7 0 10 -262144
-1 -1;
#X obj 661 143 tgl 15 0 empty empty empty 17 7 0 10 -262144 -1 -1 1
1;
#X obj 638 89 == 1;
#X floatatom 661 163 5 0 0 0 - - -;
#X obj 667 193 sel 1 0;
#X obj 665 224 tgl 15 0 empty empty empty 17 7 0 10 -262144 -1 -1 0
1;
#X floatatom 665 244 5 0 0 0 - - -;
#X obj 719 224 tgl 15 0 empty empty empty 17 7 0 10 -262144 -1 -1 1
1;
#X floatatom 719 244 5 0 0 0 - - -;
#X obj 80 273 bng 15 250 50 0 empty empty empty 17 7 0 10 -262144 -1
-1;
#X obj 80 298 tgl 15 0 empty empty empty 17 7 0 10 -262144 -1 -1 0
1;
#X floatatom 80 318 5 0 0 0 - - -;
#X obj 136 275 != 1;
#X floatatom 136 298 5 0 0 0 - - -;
#X obj 81 347 tgl 15 0 empty empty empty 17 7 0 10 -262144 -1 -1 0
1;
#X obj 137 349 tgl 15 0 empty empty empty 17 7 0 10 -262144 -1 -1 0
1;
#X obj 173 353 bng 15 250 50 0 empty empty empty 17 7 0 10 -262144
-1 -1;
#X obj 175 377 tgl 15 0 empty empty empty 17 7 0 10 -262144 -1 -1 0
1;
#X obj 152 323 == 1;
#X floatatom 175 397 5 0 0 0 - - -;
#X obj 183 427 sel 1 0;
#X obj 181 458 tgl 15 0 empty empty empty 17 7 0 10 -262144 -1 -1 0
1;
#X floatatom 181 478 5 0 0 0 - - -;
#X obj 235 458 tgl 15 0 empty empty empty 17 7 0 10 -262144 -1 -1 0
1;
#X floatatom 235 478 5 0 0 0 - - -;
#X obj 264 274 != 1;
#X floatatom 264 297 5 0 0 0 - - -;
#X obj 265 348 tgl 15 0 empty empty empty 17 7 0 10 -262144 -1 -1 0
1;
#X obj 301 352 bng 15 250 50 0 empty empty empty 17 7 0 10 -262144
-1 -1;
#X obj 303 376 tgl 15 0 empty empty empty 17 7 0 10 -262144 -1 -1 0
1;
#X obj 280 322 == 1;
#X floatatom 303 396 5 0 0 0 - - -;
#X obj 311 426 sel 1 0;
#X obj 309 457 tgl 15 0 empty empty empty 17 7 0 10 -262144 -1 -1 0
1;
#X floatatom 309 477 5 0 0 0 - - -;
#X obj 363 457 tgl 15 0 empty empty empty 17 7 0 10 -262144 -1 -1 0
1;
#X floatatom 363 477 5 0 0 0 - - -;
#X obj 405 275 != 1;
#X floatatom 405 298 5 0 0 0 - - -;
#X obj 406 349 tgl 15 0 empty empty empty 17 7 0 10 -262144 -1 -1 0
1;
#X obj 442 353 bng 15 250 50 0 empty empty empty 17 7 0 10 -262144
-1 -1;
#X obj 444 377 tgl 15 0 empty empty empty 17 7 0 10 -262144 -1 -1 0
1;
#X obj 421 323 == 1;
#X floatatom 444 397 5 0 0 0 - - -;
#X obj 452 427 sel 1 0;
#X obj 450 458 tgl 15 0 empty empty empty 17 7 0 10 -262144 -1 -1 0
1;
#X floatatom 450 478 5 0 0 0 - - -;
#X obj 504 458 tgl 15 0 empty empty empty 17 7 0 10 -262144 -1 -1 0
1;
#X floatatom 504 478 5 0 0 0 - - -;
#X obj 525 275 != 1;
#X floatatom 525 298 5 0 0 0 - - -;
#X obj 526 349 tgl 15 0 empty empty empty 17 7 0 10 -262144 -1 -1 0
1;
#X obj 562 353 bng 15 250 50 0 empty empty empty 17 7 0 10 -262144
-1 -1;
#X obj 564 377 tgl 15 0 empty empty empty 17 7 0 10 -262144 -1 -1 0
1;
#X obj 541 323 == 1;
#X floatatom 564 397 5 0 0 0 - - -;
#X obj 572 427 sel 1 0;
#X obj 570 458 tgl 15 0 empty empty empty 17 7 0 10 -262144 -1 -1 0
1;
#X floatatom 570 478 5 0 0 0 - - -;
#X obj 624 458 tgl 15 0 empty empty empty 17 7 0 10 -262144 -1 -1 0
1;
#X floatatom 624 478 5 0 0 0 - - -;
#X obj 650 276 != 1;
#X floatatom 650 299 5 0 0 0 - - -;
#X obj 651 350 tgl 15 0 empty empty empty 17 7 0 10 -262144 -1 -1 0
1;
#X obj 687 354 bng 15 250 50 0 empty empty empty 17 7 0 10 -262144
-1 -1;
#X obj 689 378 tgl 15 0 empty empty empty 17 7 0 10 -262144 -1 -1 0
1;
#X obj 666 324 == 1;
#X floatatom 689 398 5 0 0 0 - - -;
#X obj 697 428 sel 1 0;
#X obj 695 459 tgl 15 0 empty empty empty 17 7 0 10 -262144 -1 -1 0
1;
#X floatatom 695 479 5 0 0 0 - - -;
#X obj 749 459 tgl 15 0 empty empty empty 17 7 0 10 -262144 -1 -1 0
1;
#X floatatom 749 479 5 0 0 0 - - -;
#X msg 781 51 0;
#X obj 781 74 s reset;
#X obj 166 26 r reset;
#X obj 285 22 r reset;
#X obj 418 15 r reset;
#X obj 541 16 r reset;
#X obj 676 10 r reset;
#X connect 0 0 1 0;
#X connect 1 0 2 0;
#X connect 2 0 3 0;
#X connect 2 0 5 0;
#X connect 3 0 4 0;
#X connect 4 0 6 0;
#X connect 4 0 9 0;
#X connect 7 0 8 0;
#X connect 8 0 10 0;
#X connect 9 0 7 0;
#X connect 10 0 11 0;
#X connect 11 0 12 0;
#X connect 11 1 14 0;
#X connect 12 0 13 0;
#X connect 13 0 16 0;
#X connect 14 0 15 0;
#X connect 16 0 17 0;
#X connect 17 0 18 0;
#X connect 17 0 21 0;
#X connect 19 0 20 0;
#X connect 20 0 22 0;
#X connect 21 0 19 0;
#X connect 22 0 23 0;
#X connect 23 0 24 0;
#X connect 23 1 26 0;
#X connect 24 0 25 0;
#X connect 25 0 28 0;
#X connect 26 0 27 0;
#X connect 28 0 29 0;
#X connect 29 0 30 0;
#X connect 29 0 33 0;
#X connect 31 0 32 0;
#X connect 32 0 34 0;
#X connect 33 0 31 0;
#X connect 34 0 35 0;
#X connect 35 0 36 0;
#X connect 35 1 38 0;
#X connect 36 0 37 0;
#X connect 37 0 40 0;
#X connect 38 0 39 0;
#X connect 40 0 41 0;
#X connect 41 0 42 0;
#X connect 41 0 45 0;
#X connect 43 0 44 0;
#X connect 44 0 46 0;
#X connect 45 0 43 0;
#X connect 46 0 47 0;
#X connect 47 0 48 0;
#X connect 47 1 50 0;
#X connect 48 0 49 0;
#X connect 49 0 52 0;
#X connect 50 0 51 0;
#X connect 52 0 53 0;
#X connect 53 0 54 0;
#X connect 53 0 57 0;
#X connect 55 0 56 0;
#X connect 56 0 58 0;
#X connect 57 0 55 0;
#X connect 58 0 59 0;
#X connect 59 0 60 0;
#X connect 59 1 62 0;
#X connect 60 0 61 0;
#X connect 62 0 63 0;
#X connect 64 0 65 0;
#X connect 65 0 66 0;
#X connect 66 0 67 0;
#X connect 66 0 69 0;
#X connect 67 0 68 0;
#X connect 68 0 70 0;
#X connect 68 0 73 0;
#X connect 71 0 72 0;
#X connect 72 0 74 0;
#X connect 73 0 71 0;
#X connect 74 0 75 0;
#X connect 75 0 76 0;
#X connect 75 1 78 0;
#X connect 76 0 77 0;
#X connect 77 0 80 0;
#X connect 78 0 79 0;
#X connect 80 0 81 0;
#X connect 81 0 82 0;
#X connect 81 0 85 0;
#X connect 83 0 84 0;
#X connect 84 0 86 0;
#X connect 85 0 83 0;
#X connect 86 0 87 0;
#X connect 87 0 88 0;
#X connect 87 1 90 0;
#X connect 88 0 89 0;
#X connect 89 0 92 0;
#X connect 90 0 91 0;
#X connect 92 0 93 0;
#X connect 93 0 94 0;
#X connect 93 0 97 0;
#X connect 95 0 96 0;
#X connect 96 0 98 0;
#X connect 97 0 95 0;
#X connect 98 0 99 0;
#X connect 99 0 100 0;
#X connect 99 1 102 0;
#X connect 100 0 101 0;
#X connect 101 0 104 0;
#X connect 102 0 103 0;
#X connect 104 0 105 0;
#X connect 105 0 106 0;
#X connect 105 0 109 0;
#X connect 107 0 108 0;
#X connect 108 0 110 0;
#X connect 109 0 107 0;
#X connect 110 0 111 0;
#X connect 111 0 112 0;
#X connect 111 1 114 0;
#X connect 112 0 113 0;
#X connect 113 0 116 0;
#X connect 114 0 115 0;
#X connect 116 0 117 0;
#X connect 117 0 118 0;
#X connect 117 0 121 0;
#X connect 119 0 120 0;
#X connect 120 0 122 0;
#X connect 121 0 119 0;
#X connect 122 0 123 0;
#X connect 123 0 124 0;
#X connect 123 1 126 0;
#X connect 124 0 125 0;
#X connect 126 0 127 0;
#X connect 128 0 129 0;
#X connect 130 0 4 0;
#X connect 131 0 17 0;
#X connect 132 0 29 0;
#X connect 133 0 41 0;
#X connect 134 0 53 0;
