#N canvas 114 114 1920 1016 12;
#X obj 190 200 mode, f 11;
#X msg 285 117 4;
#X obj 283 199 mode, f 11;
#X obj 374 200 mode, f 11;
#X msg 418 115 1;
#X obj 225 293 tgl 23 0 empty empty empty 0 -10 0 12 #00faff #000000 #000000 0 1;
#X obj 300 295 tgl 23 0 empty empty empty 0 -10 0 12 #00faff #000000 #000000 0 1;
#X obj 379 290 tgl 23 0 empty empty empty 0 -10 0 12 #00faff #000000 #000000 0 1;
#X obj 598 223 count;
#X obj 648 224 count;
#X obj 699 223 count;
#X obj 575 294 tgl 23 0 empty empty empty 0 -10 0 12 #00faff #000000 #000000 0 1;
#X obj 650 296 tgl 23 0 empty empty empty 0 -10 0 12 #00faff #000000 #000000 0 1;
#X obj 729 291 tgl 23 0 empty empty empty 0 -10 0 12 #00faff #000000 #000000 0 1;
#X msg 625 156 1;
#X connect 0 1 5 0;
#X connect 0 2 2 0;
#X connect 1 0 0 4;
#X connect 1 0 2 4;
#X connect 1 0 3 4;
#X connect 2 1 6 0;
#X connect 2 2 3 0;
#X connect 3 1 7 0;
#X connect 4 0 8 0;
#X connect 4 0 0 0;
#X connect 8 1 11 0;
#X connect 8 2 9 0;
#X connect 9 1 12 0;
#X connect 9 2 10 0;
#X connect 10 1 13 0;
#X connect 14 0 8 2;
#X connect 14 0 9 2;
#X connect 14 0 10 2;
