#N canvas 21 45 1920 1016 12;
#X obj 373 328 dac~;
#X obj 88 411 sound, f 57;
#X text 21 56 första två: tuner \, resten;
#X text 19 84 output är ljud sig;
#X text 17 116 det är här vi kopplar till filter \, måste egentligen ha olika för varje steg......;
#X text 339 40 sätt hpf från 200-6.4 khz o lpf 50-6.4khz;
#X obj 510 199 hsl 100 25 200 6400 0 0 empty empty HPF -2 -10 0 12 #fcfcfc #000000 #000000 0 1;
#X obj 510 301 hsl 100 25 50 6400 0 0 empty empty LPF -2 -10 0 12 #fcfcfc #000000 #000000 0 1;
#X obj 508 248 hsl 100 25 0 1 0 0 empty empty Gain -2 -10 0 12 #fcfcfc #000000 #000000 0 1;
#X obj 512 350 hsl 100 25 0 1 0 0 empty empty SQ -2 -10 0 12 #fcfcfc #000000 #000000 0 1;
#X obj 634 197 hsl 100 25 0 1 0 0 empty empty BPH -2 -10 0 12 #fcfcfc #000000 #000000 0 1;
#X obj 634 247 hsl 100 25 0 1 0 0 empty empty BPL -2 -10 0 12 #fcfcfc #000000 #000000 0 1;
#X obj 635 299 hsl 100 25 12 1200 0 0 empty empty Speed -2 -10 0 12 #fcfcfc #000000 #000000 0 1;
#X obj 755 245 hsl 100 25 0 10 0 0 empty empty Tune -2 -10 0 12 #fcfcfc #000000 #000000 0 1;
#X obj 757 299 hsl 100 25 0 10 0 0 empty empty Amp -2 -10 0 12 #fcfcfc #000000 #000000 0 1;
#X obj 754 197 hsl 100 25 0 135 0 0 empty empty Mod -2 -10 0 12 #fcfcfc #000000 #000000 0 1;
#X obj 164 227 tgl 15 1 1op1 empty 1->> -25 8 0 8 #fcfcfc #000000 #fc2828 1 1;
#X obj 179 227 tgl 15 1 1op2 empty empty 17 7 0 10 #fcfcfc #000000 #000000 1 1;
#X obj 194 227 tgl 15 1 1op3 empty empty 17 7 0 10 #fcfcfc #000000 #000000 1 1;
#X obj 209 227 tgl 15 1 1op4 empty empty 17 7 0 10 #fcfcfc #000000 #000000 1 1;
#X obj 164 242 tgl 15 1 2op1 empty 2->> -25 8 0 8 #fcfcfc #000000 #fc2828 0 1;
#X obj 179 242 tgl 15 0 2op2 empty empty 17 7 0 10 #fcfcfc #000000 #000000 0 1;
#X obj 194 242 tgl 15 1 2op3 empty empty 17 7 0 10 #fcfcfc #000000 #000000 0 1;
#X obj 209 242 tgl 15 1 2op4 empty empty 17 7 0 10 #fcfcfc #000000 #000000 1 1;
#X obj 164 257 tgl 15 1 3op1 empty 3->> -25 8 0 8 #fcfcfc #000000 #fc2828 1 1;
#X obj 179 257 tgl 15 1 3op2 empty empty 17 7 0 10 #fcfcfc #000000 #000000 0 1;
#X obj 194 257 tgl 15 1 3op3 empty empty 17 7 0 10 #fcfcfc #000000 #000000 1 1;
#X obj 209 257 tgl 15 1 3op4 empty empty 17 7 0 10 #fcfcfc #000000 #000000 0 1;
#X obj 164 272 tgl 15 1 4op1 empty 4->> -25 8 0 8 #fcfcfc #000000 #fc2828 0 1;
#X obj 179 272 tgl 15 1 4op2 empty empty 17 7 0 10 #fcfcfc #000000 #000000 1 1;
#X obj 194 272 tgl 15 1 4op3 empty empty 17 7 0 10 #fcfcfc #000000 #000000 1 1;
#X obj 209 272 tgl 15 1 4op4 empty empty 17 7 0 10 #fcfcfc #000000 #000000 0 1;
#X text 166 211 1;
#X text 182 211 2;
#X text 211 211 4;
#X text 197 211 3;
