#N canvas 114 114 1920 1016 12;
#X obj 207 234 mode, f 7;
#X obj 268 234 mode, f 7;
#X obj 222 290 tgl 23 0 empty empty empty 0 -10 0 12 #00faff #000000 #000000 0 1;
#X obj 283 291 tgl 23 0 empty empty empty 0 -10 0 12 #00faff #000000 #000000 0 1;
#X obj 329 234 mode, f 7;
#X obj 390 234 mode, f 7;
#X obj 344 290 tgl 23 0 empty empty empty 0 -10 0 12 #00faff #000000 #000000 0 1;
#X obj 405 291 tgl 23 0 empty empty empty 0 -10 0 12 #00faff #000000 #000000 0 1;
#X obj 448 234 mode, f 7;
#X obj 509 234 mode, f 7;
#X obj 463 290 tgl 23 0 empty empty empty 0 -10 0 12 #00faff #000000 #000000 0 1;
#X obj 524 291 tgl 23 0 empty empty empty 0 -10 0 12 #00faff #000000 #000000 0 1;
#X obj 570 234 mode, f 7;
#X obj 631 234 mode, f 7;
#X obj 585 290 tgl 23 0 empty empty empty 0 -10 0 12 #00faff #000000 #000000 0 1;
#X obj 646 291 tgl 23 0 empty empty empty 0 -10 0 12 #00faff #000000 #000000 0 1;
#X obj 690 234 mode, f 7;
#X obj 705 290 tgl 23 0 empty empty empty 0 -10 0 12 #00faff #000000 #000000 0 1;
#X obj 136 87 tgl 19 0 empty empty empty 0 -10 0 12 #fcfcfc #000000 #000000 0 1;
#X obj 136 111 metro 1000;
#X obj 136 135 tgl 19 0 empty empty empty 0 -10 0 12 #fcfcfc #000000 #000000 0 1;
#X msg 136 159 1;
#X msg 179 159 0;
#X msg 406 160 0;
#X msg 225 70 250;
#X obj 39 249 vradio 19 1 1 3 empty empty empty 0 -10 0 12 #fcfcfc #000000 #000000 1;
#X text 117 55 0B \, 1C \, 2S;
#X floatatom 41 311 5 0 0 0 - - - 0;
#X msg 229 158 0;
#X msg 296 164 2;
#X msg 354 159 1;
#X msg 445 160 2;
#X msg 486 162 2;
#X msg 700 95 1;
#X obj 124 233 first, f 10;
#X obj 379 44 f;
#X obj 379 68 t f f f f f f f f f;
#X obj 400 11 bng 19 250 50 0 empty empty empty 0 -10 0 12 #fcfcfc #000000 #000000;
#X msg 148 366 1;
#X obj 149 291 tgl 23 0 empty empty empty 0 -10 0 12 #00faff #000000 #000000 0 1;
#X msg 190 359 2;
#X msg 237 365 0;
#X msg 308 367 2;
#X obj 751 234 last, f 7;
#X obj 766 289 tgl 23 0 empty empty empty 0 -10 0 12 #00faff #000000 #000000 0 1;
#X msg 765 158 0;
#X msg 799 158 1;
#X msg 835 158 2;
#X msg 653 123 2;
#X obj 437 364 vradio 19 1 1 3 empty empty empty 0 -10 0 12 #fcfcfc #000000 #000000 1;
#X text 105 430 Break 0 \, Reset 1 \, Count 2, f 29;
#X connect 0 0 34 3;
#X connect 0 1 2 0;
#X connect 0 2 1 0;
#X connect 0 3 1 1;
#X connect 1 0 0 3;
#X connect 1 1 3 0;
#X connect 1 2 4 0;
#X connect 1 3 4 1;
#X connect 4 0 1 3;
#X connect 4 1 6 0;
#X connect 4 2 5 0;
#X connect 4 3 5 1;
#X connect 5 0 4 3;
#X connect 5 1 7 0;
#X connect 5 2 8 0;
#X connect 5 3 8 1;
#X connect 8 0 5 3;
#X connect 8 1 10 0;
#X connect 8 2 9 0;
#X connect 8 3 9 1;
#X connect 9 0 8 3;
#X connect 9 1 11 0;
#X connect 9 2 12 0;
#X connect 9 3 12 1;
#X connect 12 0 9 3;
#X connect 12 1 14 0;
#X connect 12 2 13 0;
#X connect 12 3 13 1;
#X connect 13 0 12 3;
#X connect 13 1 15 0;
#X connect 13 2 16 0;
#X connect 13 3 16 1;
#X connect 16 0 13 3;
#X connect 16 1 17 0;
#X connect 16 2 43 0;
#X connect 16 3 43 1;
#X connect 18 0 19 0;
#X connect 19 0 20 0;
#X connect 20 0 21 0;
#X connect 21 0 34 0;
#X connect 22 0 0 2;
#X connect 23 0 8 2;
#X connect 24 0 19 1;
#X connect 25 0 27 0;
#X connect 28 0 0 4;
#X connect 28 0 8 4;
#X connect 29 0 4 4;
#X connect 29 0 1 4;
#X connect 29 0 5 4;
#X connect 30 0 5 4;
#X connect 31 0 8 4;
#X connect 32 0 9 4;
#X connect 32 0 12 4;
#X connect 33 0 13 4;
#X connect 33 0 16 4;
#X connect 34 0 18 0;
#X connect 34 1 35 0;
#X connect 34 2 39 0;
#X connect 34 3 0 0;
#X connect 34 4 0 1;
#X connect 35 0 36 0;
#X connect 36 0 16 2;
#X connect 36 1 13 2;
#X connect 36 2 12 2;
#X connect 36 3 9 2;
#X connect 36 4 8 2;
#X connect 36 5 5 2;
#X connect 36 6 4 2;
#X connect 36 7 1 2;
#X connect 36 8 0 2;
#X connect 37 0 35 0;
#X connect 38 0 34 4;
#X connect 40 0 34 4;
#X connect 41 0 34 4;
#X connect 42 0 0 4;
#X connect 43 0 16 3;
#X connect 43 1 44 0;
#X connect 45 0 43 4;
#X connect 46 0 43 4;
#X connect 47 0 43 4;
#X connect 48 0 13 4;
#X connect 48 0 16 4;
