#N canvas 190 190 1920 1016 12;
#X obj 676 201 shift;
#X obj 730 202 shift;
#X obj 788 202 shift;
#X msg 645 151 1;
#X msg 589 148 1;
#X msg 683 147 0;
#X obj 666 282 tgl 23 0 empty empty empty 0 -10 0 12 #00faff #000000 #000000 0 1;
#X obj 741 284 tgl 23 0 empty empty empty 0 -10 0 12 #00faff #000000 #000000 0 1;
#X obj 820 279 tgl 23 0 empty empty empty 0 -10 0 12 #00faff #000000 #000000 0 1;
#X obj 109 303 tgl 23 0 empty empty empty 0 -10 0 12 #00faff #000000 #000000 0 1;
#X obj 184 305 tgl 23 0 empty empty empty 0 -10 0 12 #00faff #000000 #000000 0 1;
#X obj 263 300 tgl 23 0 empty empty empty 0 -10 0 12 #00faff #000000 #000000 0 1;
#X obj 211 202 mode, f 11;
#X obj 101 203 mode, f 11;
#X obj 310 201 mode, f 11;
#X msg 101 114 1;
#X msg 45 111 1;
#X msg 139 110 0;
#X msg 299 116 3;
#X msg 744 150 1;
#X connect 0 1 6 0;
#X connect 0 2 1 0;
#X connect 0 3 1 1;
#X connect 1 1 7 0;
#X connect 1 2 2 0;
#X connect 1 3 2 1;
#X connect 2 1 8 0;
#X connect 3 0 0 0;
#X connect 4 0 0 1;
#X connect 5 0 0 0;
#X connect 12 1 10 0;
#X connect 12 2 14 0;
#X connect 12 3 14 1;
#X connect 13 1 9 0;
#X connect 13 2 12 0;
#X connect 13 3 12 1;
#X connect 14 1 11 0;
#X connect 15 0 13 0;
#X connect 16 0 13 1;
#X connect 17 0 13 0;
#X connect 18 0 13 4;
#X connect 18 0 12 4;
#X connect 18 0 14 4;
#X connect 19 0 1 2;
