#N canvas 1284 166 1920 1016 12;
#X obj 173 64 ljud, f 7;
#X obj 173 14 inlet;
#X obj 14 182 vsl 19 50 1 10 0 0 empty empty empty 0 -9 0 12 #fcfcfc #000000 #000000 0 1;
#X obj 40 182 vsl 19 50 1 2 0 0 empty empty empty 0 -9 0 12 #fcfcfc #000000 #000000 0 1;
#X obj 216 14 inlet;
#X obj 266 64 ljud, f 7;
#X obj 266 14 inlet;
#X obj 309 14 inlet;
#X obj 358 64 ljud, f 7;
#X obj 358 14 inlet;
#X obj 401 14 inlet;
#X obj 451 64 ljud, f 7;
#X obj 451 14 inlet;
#X obj 494 14 inlet;
#X obj 544 63 ljud, f 7;
#X obj 544 13 inlet;
#X obj 587 13 inlet;
#X obj 636 63 ljud, f 7;
#X obj 636 13 inlet;
#X obj 679 13 inlet;
#X obj 729 63 ljud, f 7;
#X obj 729 13 inlet;
#X obj 772 13 inlet;
#X obj 820 64 ljud, f 7;
#X obj 820 14 inlet;
#X obj 863 14 inlet;
#X obj 913 63 ljud, f 7;
#X obj 913 13 inlet;
#X obj 956 13 inlet;
#X obj 1005 63 ljud, f 7;
#X obj 1005 13 inlet;
#X obj 1048 13 inlet;
#X obj 4 14 inlet grov;
#X obj 4 108 t f f f f f f f f f f;
#X obj 473 463 t f f f f f f f f f f;
#X obj 253 321 outlet~;
#X obj 338 323 outlet~;
#X obj 398 323 outlet~;
#X obj 461 323 outlet~;
#X obj 522 324 outlet~;
#X obj 585 324 outlet~;
#X obj 645 324 outlet~;
#X obj 708 324 outlet~;
#X obj 769 324 outlet~;
#X obj 830 325 outlet~;
#X obj 59 318 ylva, f 16;
#X connect 0 0 35 0;
#X connect 1 0 0 0;
#X connect 2 0 0 2;
#X connect 4 0 0 1;
#X connect 5 0 36 0;
#X connect 6 0 5 0;
#X connect 7 0 5 1;
#X connect 8 0 37 0;
#X connect 9 0 8 0;
#X connect 10 0 8 1;
#X connect 11 0 38 0;
#X connect 12 0 11 0;
#X connect 13 0 11 1;
#X connect 14 0 39 0;
#X connect 15 0 14 0;
#X connect 16 0 14 1;
#X connect 17 0 40 0;
#X connect 18 0 17 0;
#X connect 19 0 17 1;
#X connect 20 0 41 0;
#X connect 21 0 20 0;
#X connect 22 0 20 1;
#X connect 23 0 42 0;
#X connect 24 0 23 0;
#X connect 25 0 23 1;
#X connect 26 0 43 0;
#X connect 27 0 26 0;
#X connect 28 0 26 1;
#X connect 29 0 44 0;
#X connect 30 0 29 0;
#X connect 31 0 29 1;
#X connect 32 0 33 0;
#X connect 33 0 0 2;
#X connect 33 1 5 2;
#X connect 33 2 8 2;
#X connect 33 3 11 2;
#X connect 33 4 14 2;
#X connect 33 5 17 2;
#X connect 33 6 20 2;
#X connect 33 7 23 2;
#X connect 33 8 26 2;
#X connect 33 9 29 2;
#X connect 34 1 5 3;
#X connect 34 2 8 3;
#X connect 34 3 11 3;
#X connect 34 4 14 3;
#X connect 34 5 17 3;
#X connect 34 6 20 3;
#X connect 34 7 23 3;
#X connect 34 8 26 2;
#X connect 34 9 29 3;
