#N canvas 1917 1005 1920 1016 12;
#X obj 26 136 hpf;
#X obj 67 135 lpf;
#X obj 143 234 bp64-4;
#X obj 207 234 bp32-2;
#X obj 269 234 bp16-1;
#X obj 327 235 bp8-5;
#X obj 100 135 sq;
#X obj 166 127 vib;
#X text 417 238 direktfilter;
#X obj 87 22 inlet~;
#X text 394 270 hp \, d \, lp \, sq \, bpx4 \, mod vib;
#X obj 26 179 +~;
#X obj 67 179 +~;
#X obj 26 211 +~;
#X obj 147 276 +~;
#X obj 227 276 +~;
#X obj 184 305 +~;
#X obj 271 275 +~;
#X obj 342 274 +~;
#X obj 311 306 +~;
#X obj 184 333 *~;
#X obj 311 331 *~;
#X obj 184 362 +~;
#X obj 166 390 +~;
#X obj 166 415 *~;
#X obj 166 465 outlet~;
#X obj 145 22 inlet hpf;
#X obj 220 22 inlet lpf;
#X obj 382 19 inlet high;
#X obj 463 19 inlet low;
#X obj 716 69 t f f f f;
#X obj 382 45 t f f f f;
#X obj 463 45 t f f f f;
#X obj 541 18 inlet unpack;
#X obj 26 109 *~;
#X obj 54 82 *~;
#X obj 67 111 *~;
#X obj 100 110 *~;
#X obj 144 193 *~;
#X obj 211 187 *~;
#X obj 276 192 *~;
#X obj 340 197 *~;
#X obj 300 44 t f f f f;
#N canvas 0 50 450 250 (subpatch) 0;
#X array test 100 float 1;
#A 0 0 0 0 0 0 0 0 0 0 0 0 0 0 0 0 0 0 0 0 0 0 0 0 0 0 0 0 0 0 0 0 0 0 0 0 0 0 0 0 0 0 0 0 0 0 0 0 0 0 0 0 0 0 0 0 0 0 0 0 0 0 0 0 0 0 0 0 0 0 0 0 0 0 0 0 0 0 0 0 0 0 0 0 0 0 0 0 0 0 0 0 0 0 0 0 0 0 0 0 0;
#X coords 0 1 99 -1 200 140 1;
#X restore 657 327 graph;
#X obj 504 370 tgl 19 0 empty empty empty 0 -10 0 12 #fcfcfc #000000 #000000 0 1;
#X obj 504 394 metro 100;
#X obj 504 418 tabwrite~ test;
#X obj 300 20 inlet amp;
#X obj 541 42 unpack f f f f f f f f;
#X obj 716 19 loadbang;
#X msg 716 43 2.5;
#X obj 166 440 clip~ -0.99 0.99;
#X obj 639 19 inlet sq;
#X connect 0 0 11 0;
#X connect 1 0 12 0;
#X connect 2 0 14 0;
#X connect 2 1 17 0;
#X connect 3 0 14 1;
#X connect 3 1 17 1;
#X connect 4 0 15 0;
#X connect 4 1 18 0;
#X connect 5 0 15 1;
#X connect 5 1 18 1;
#X connect 6 0 12 1;
#X connect 7 0 38 0;
#X connect 7 0 39 0;
#X connect 7 0 40 0;
#X connect 7 0 41 0;
#X connect 9 0 7 0;
#X connect 9 0 34 0;
#X connect 9 0 35 0;
#X connect 9 0 36 0;
#X connect 9 0 37 0;
#X connect 11 0 13 0;
#X connect 12 0 13 1;
#X connect 13 0 23 0;
#X connect 14 0 16 0;
#X connect 15 0 16 1;
#X connect 16 0 20 0;
#X connect 17 0 19 0;
#X connect 18 0 19 1;
#X connect 19 0 21 0;
#X connect 20 0 22 0;
#X connect 21 0 22 1;
#X connect 22 0 23 1;
#X connect 23 0 24 0;
#X connect 24 0 51 0;
#X connect 26 0 0 1;
#X connect 27 0 1 1;
#X connect 28 0 31 0;
#X connect 29 0 32 0;
#X connect 30 0 2 1;
#X connect 30 1 3 1;
#X connect 30 2 4 1;
#X connect 30 3 5 1;
#X connect 31 0 2 2;
#X connect 31 1 3 2;
#X connect 31 2 4 2;
#X connect 31 3 5 2;
#X connect 32 0 2 3;
#X connect 32 1 3 3;
#X connect 32 2 4 3;
#X connect 32 3 5 3;
#X connect 33 0 48 0;
#X connect 34 0 0 0;
#X connect 35 0 11 1;
#X connect 36 0 1 0;
#X connect 37 0 6 0;
#X connect 38 0 2 0;
#X connect 39 0 3 0;
#X connect 40 0 4 0;
#X connect 41 0 5 0;
#X connect 42 0 24 1;
#X connect 42 1 21 1;
#X connect 42 2 20 1;
#X connect 42 3 7 1;
#X connect 44 0 45 0;
#X connect 45 0 46 0;
#X connect 47 0 42 0;
#X connect 48 0 34 1;
#X connect 48 1 35 1;
#X connect 48 2 36 1;
#X connect 48 3 37 1;
#X connect 48 4 38 1;
#X connect 48 5 39 1;
#X connect 48 6 40 1;
#X connect 48 7 41 1;
#X connect 49 0 50 0;
#X connect 50 0 30 0;
#X connect 51 0 25 0;
#X connect 52 0 6 1;
