#N canvas -278 186 1920 1016 12;
#X obj 33 24 inlet~;
#X obj 191 403 outlet~;
#X obj 33 59 bpmod;
#X obj 89 24 inlet;
#X obj 136 24 inlet;
#X obj 180 24 inlet;
#X obj 225 24 inlet;
#X obj 270 24 inlet;
#X obj 18 151 bp~ 6400 2.5;
#X obj 110 151 bp~ 400 2.5;
#X obj 198 150 bp~ 3200 2.5;
#X obj 291 150 bp~ 200 2.5;
#X obj 19 242 bp~ 1600 2.5;
#X obj 116 242 bp~ 100 2.5;
#X obj 212 242 bp~ 800 2.5;
#X obj 302 242 bp~ 50 2.5;
#X obj 32 125 *~;
#X obj 213 124 *~;
#X obj 25 212 *~;
#X obj 216 216 *~;
#X obj 287 288 +~;
#X obj 101 291 +~;
#X obj 101 328 *~;
#X obj 287 324 *~;
#X obj 191 371 +~;
#X obj 131 290 r high;
#X obj 317 288 r low;
#X connect 0 0 2 0;
#X connect 2 0 16 0;
#X connect 2 0 17 0;
#X connect 2 0 18 0;
#X connect 2 0 19 0;
#X connect 3 0 2 1;
#X connect 4 0 16 1;
#X connect 5 0 17 1;
#X connect 6 0 18 1;
#X connect 7 0 19 1;
#X connect 8 0 21 0;
#X connect 9 0 20 0;
#X connect 10 0 21 0;
#X connect 11 0 20 0;
#X connect 12 0 21 0;
#X connect 13 0 20 0;
#X connect 14 0 21 0;
#X connect 15 0 20 0;
#X connect 16 0 8 0;
#X connect 16 0 9 0;
#X connect 17 0 10 0;
#X connect 17 0 11 0;
#X connect 18 0 12 0;
#X connect 18 0 13 0;
#X connect 19 0 14 0;
#X connect 19 0 15 0;
#X connect 20 0 23 0;
#X connect 21 0 22 0;
#X connect 22 0 24 0;
#X connect 23 0 24 1;
#X connect 24 0 1 0;
#X connect 25 0 22 1;
#X connect 26 0 23 1;
