#N canvas 28 -18 1920 1016 12;
#X obj 27 36 inlet~;
#X obj 27 136 *~;
#X obj 119 136 *~;
#X obj 27 160 outlet~;
#X obj 119 160 outlet~;
#X obj 119 112 bp~ 100 2.5;
#X obj 27 112 bp~ 1600 2.5;
#X obj 81 36 r high;
#X obj 137 36 r low;
#X connect 0 0 5 0;
#X connect 0 0 6 0;
#X connect 1 0 3 0;
#X connect 2 0 4 0;
#X connect 5 0 2 0;
#X connect 6 0 1 0;
#X connect 7 0 1 1;
#X connect 8 0 2 1;
