#N canvas 845 181 1920 1016 12;
#X obj 157 27 inlet modfreq;
#X obj 276 27 inlet modamount;
#X obj 162 238 +~;
#X text 202 58 0-135;
#X obj 157 58 * 1.6;
#X obj 157 114 mtof~;
#X obj 157 87 sig~;
#X obj 157 138 phasor~;
#X obj 180 184 *~;
#X obj 162 262 outlet~;
#X obj 48 28 inlet~;
#X text 382 96 inte FM utan vi modulerar med output om inpatchad. detta ska då påverka hela "den signalen" \, blir det feedback? hur skickar vi tillbaka det? Vi ska inte heller ha en oscillator utan vi ska enbart använda siffror. Måste se till att byta från phasor till square. (ANvända min SQ patch för det?);
#X connect 0 0 4 0;
#X connect 1 0 8 1;
#X connect 2 0 9 0;
#X connect 4 0 6 0;
#X connect 5 0 7 0;
#X connect 6 0 5 0;
#X connect 7 0 8 0;
#X connect 8 0 2 1;
#X connect 10 0 2 0;
