#N canvas 1915 131 1920 1016 12;
#X obj 53 12 inlet;
#X obj 31 190 outlet;
#X obj 102 12 r grov;
#X obj 31 93 loadbang;
#X msg 31 117 2;
#X obj 31 141 pow;
#X obj 96 117 t b f;
#X floatatom 31 165 5 0 0 0 - - - 0;
#X obj 96 69 +;
#X obj 102 41 t b f;
#X floatatom 96 92 5 0 0 0 - - - 0;
#X connect 0 0 8 0;
#X connect 2 0 9 0;
#X connect 3 0 4 0;
#X connect 4 0 5 0;
#X connect 5 0 7 0;
#X connect 6 0 5 0;
#X connect 6 1 5 1;
#X connect 7 0 1 0;
#X connect 8 0 10 0;
#X connect 9 0 8 0;
#X connect 9 1 8 1;
#X connect 10 0 6 0;
