#N canvas 1914 0 1920 1016 12;
#X obj 6 8 inlet;
#X obj 71 166 *~;
#X obj 7 52 line~;
#X obj 6 30 pack 0 30;
#X obj 89 41 grov;
#X obj 89 7 inlet freq;
#X obj 71 218 outlet~;
#X obj 71 190 *~;
#X obj 174 6 inlet indgain;
#X obj 89 136 square;
#X obj 89 78 freqvib;
#X obj 281 7 inlet vib;
#X connect 0 0 3 0;
#X connect 1 0 7 0;
#X connect 2 0 1 0;
#X connect 3 0 2 0;
#X connect 4 0 10 0;
#X connect 5 0 4 0;
#X connect 7 0 6 0;
#X connect 8 0 7 1;
#X connect 9 0 1 1;
#X connect 10 0 9 0;
#X connect 11 0 10 1;
