#N canvas 950 0 1920 1016 12;
#X obj 11 24 inlet~;
#X obj 76 23 inlet;
#X obj 57 141 mtof;
#X obj 57 166 / 2;
#X text 86 167 freq cleaver;
#X text 144 13 make signal 1 octave lower;
#X obj 25 65 delwrite~ octave\$0 40;
#X obj 11 89 sigmund~ -npts 2048;
#X obj 11 115 moses 1;
#X obj 57 190 osc~;
#X obj 57 217 *~;
#X obj 193 80 loadbang;
#X obj 193 132 expr 1000*1024/$f1;
#X obj 193 106 samplerate~;
#X obj 193 159 delread~ octave\$0;
#X obj 57 247 *~;
#X obj 57 271 outlet~;
#X text 144 29 from E03.octave.divider.pd;
#X connect 0 0 6 0;
#X connect 0 0 7 0;
#X connect 1 0 15 1;
#X connect 2 0 3 0;
#X connect 3 0 9 0;
#X connect 7 0 8 0;
#X connect 8 1 2 0;
#X connect 9 0 10 0;
#X connect 10 0 15 0;
#X connect 11 0 13 0;
#X connect 12 0 14 0;
#X connect 13 0 12 0;
#X connect 14 0 10 1;
#X connect 15 0 16 0;
