#N canvas 1893 25 1920 1016 12;
#X obj 123 167 Dflipflop;
#X obj 123 242 != 1;
#X obj 235 347 f;
#X obj 183 215 t f f;
#X obj 181 243 sel 1;
#X obj 145 382 outlet lamp;
#X obj 235 382 outlet DF;
#X obj 310 382 outlet clk;
#X obj 43 58 inlet DF;
#X obj 114 57 inlet clk;
#X obj 191 57 inlet reset;
#X obj 43 82 t f f;
#X obj 66 174 f;
#X obj 284 57 inlet DB;
#X obj 68 382 outlet DB;
#X msg 191 81 0;
#X obj 284 86 != 1;
#X obj 145 349 f;
#X obj 181 267 t b b;
#X connect 0 0 1 0;
#X connect 0 1 2 1;
#X connect 0 2 3 0;
#X connect 1 0 17 1;
#X connect 2 0 6 0;
#X connect 3 0 7 0;
#X connect 3 1 4 0;
#X connect 4 0 18 0;
#X connect 8 0 11 0;
#X connect 10 0 15 0;
#X connect 11 0 0 1;
#X connect 11 1 12 0;
#X connect 12 0 14 0;
#X connect 13 0 16 0;
#X connect 15 0 0 2;
#X connect 16 0 0 0;
#X connect 17 0 5 0;
#X connect 18 0 17 0;
#X connect 18 1 2 0;
