#N canvas 190 190 1920 1016 12;
#X obj 113 186 break;
#X obj 124 267 tgl 19 0 empty empty empty 0 -10 0 12 #fcfcfc #000000 #000000 0 1;
#X obj 91 152 tgl 19 0 empty empty empty 0 -10 0 12 #fcfcfc #000000 #000000 0 1;
#X obj 152 153 tgl 19 0 empty empty empty 0 -10 0 12 #fcfcfc #000000 #000000 0 1;
#X obj 100 267 tgl 19 0 empty empty empty 0 -10 0 12 #fcfcfc #000000 #000000 0 1;
#X obj 171 267 tgl 19 0 empty empty empty 0 -10 0 12 #fcfcfc #000000 #000000 0 1;
#X obj 147 267 tgl 19 0 empty empty empty 0 -10 0 12 #fcfcfc #000000 #000000 0 1;
#X obj 115 129 tgl 19 0 empty empty empty 0 -10 0 12 #fcfcfc #000000 #000000 0 1;
#X obj 260 181 break;
#X obj 310 181 shift;
#X obj 359 181 shift;
#X obj 405 181 break;
#X obj 320 246 tgl 19 0 empty empty empty 0 -10 0 12 #fcfcfc #000000 #000000 0 1;
#X obj 296 246 tgl 19 0 empty empty empty 0 -10 0 12 #fcfcfc #000000 #000000 0 1;
#X obj 367 246 tgl 19 0 empty empty empty 0 -10 0 12 #fcfcfc #000000 #000000 0 1;
#X obj 343 246 tgl 19 0 empty empty empty 0 -10 0 12 #fcfcfc #000000 #000000 0 1;
#X obj 246 133 tgl 19 0 empty empty empty 0 -10 0 12 #fcfcfc #000000 #000000 0 1;
#X obj 434 137 tgl 19 0 empty empty empty 0 -10 0 12 #fcfcfc #000000 #000000 0 1;
#X msg 277 131 1;
#X connect 0 0 4 0;
#X connect 0 1 1 0;
#X connect 0 2 6 0;
#X connect 0 3 5 0;
#X connect 2 0 0 0;
#X connect 3 0 0 3;
#X connect 7 0 0 1;
#X connect 8 1 13 0;
#X connect 8 2 9 0;
#X connect 8 3 9 1;
#X connect 9 0 8 3;
#X connect 9 1 12 0;
#X connect 9 2 10 0;
#X connect 9 3 10 1;
#X connect 10 0 9 3;
#X connect 10 1 15 0;
#X connect 10 2 11 0;
#X connect 10 3 11 1;
#X connect 11 0 10 3;
#X connect 11 1 14 0;
#X connect 16 0 8 0;
#X connect 17 0 11 2;
#X connect 18 0 8 0;
