#N canvas 114 114 1920 1016 12;
#X obj 15 42 b2bcount;
#X obj 78 42 b2bcount;
#X obj 142 42 b2bcount;
#X obj 206 42 b2bcount;
#X msg 15 20 1;
#X obj 32 68 tgl 19 0 empty empty empty 0 -10 0 12 #fcfcfc #000000 #000000 0 1;
#X obj 95 69 tgl 19 0 empty empty empty 0 -10 0 12 #fcfcfc #000000 #000000 0 1;
#X obj 160 66 tgl 19 0 empty empty empty 0 -10 0 12 #fcfcfc #000000 #000000 0 1;
#X obj 224 67 tgl 19 0 empty empty empty 0 -10 0 12 #fcfcfc #000000 #000000 0 1;
#X obj 271 42 b2bshift;
#X obj 336 42 b2bshift;
#X obj 401 42 b2bshift;
#X obj 466 42 b2bshift;
#X obj 297 67 tgl 19 0 empty empty empty 0 -10 0 12 #fcfcfc #000000 #000000 0 1;
#X obj 362 67 tgl 19 0 empty empty empty 0 -10 0 12 #fcfcfc #000000 #000000 0 1;
#X obj 428 68 tgl 19 0 empty empty empty 0 -10 0 12 #fcfcfc #000000 #000000 0 1;
#X obj 493 67 tgl 19 0 empty empty empty 0 -10 0 12 #fcfcfc #000000 #000000 0 1;
#X obj 532 42 b2bbreak;
#X obj 597 42 b2bshift;
#X obj 662 42 b2bshift;
#X obj 624 68 tgl 19 0 empty empty empty 0 -10 0 12 #fcfcfc #000000 #000000 0 1;
#X obj 689 67 tgl 19 0 empty empty empty 0 -10 0 12 #fcfcfc #000000 #000000 0 1;
#X obj 727 42 b2bbreak;
#X obj 780 19 tgl 19 0 empty empty empty 0 -10 0 12 #fcfcfc #000000 #000000 0 1;
#X obj 559 67 tgl 19 0 empty empty empty 0 -10 0 12 #fcfcfc #000000 #000000 0 1;
#X obj 754 66 tgl 19 0 empty empty empty 0 -10 0 12 #fcfcfc #000000 #000000 0 1;
#X obj 585 20 tgl 19 0 empty empty empty 0 -10 0 12 #fcfcfc #000000 #000000 0 1;
#X text 19 97 3c4s3c;
#X obj 20 166 b2bcount;
#X obj 83 166 b2bcount;
#X obj 147 166 b2bcount;
#X msg 20 118 1;
#X obj 37 191 tgl 19 0 empty empty empty 0 -10 0 12 #fcfcfc #000000 #000000 0 1;
#X obj 100 192 tgl 19 0 empty empty empty 0 -10 0 12 #fcfcfc #000000 #000000 0 1;
#X obj 165 193 tgl 19 0 empty empty empty 0 -10 0 12 #fcfcfc #000000 #000000 0 1;
#X obj 212 166 b2bbreak;
#X obj 277 166 b2bshift;
#X obj 342 166 b2bshift;
#X obj 304 193 tgl 19 0 empty empty empty 0 -10 0 12 #fcfcfc #000000 #000000 0 1;
#X obj 369 192 tgl 19 0 empty empty empty 0 -10 0 12 #fcfcfc #000000 #000000 0 1;
#X obj 239 192 tgl 19 0 empty empty empty 0 -10 0 12 #fcfcfc #000000 #000000 0 1;
#X obj 265 141 tgl 19 0 empty empty empty 0 -10 0 12 #fcfcfc #000000 #000000 0 1;
#X obj 406 166 b2bshift;
#X obj 433 192 tgl 19 0 empty empty empty 0 -10 0 12 #fcfcfc #000000 #000000 0 1;
#X obj 470 166 b2bcount;
#X obj 533 166 b2bcount;
#X obj 597 166 b2bcount;
#X obj 487 191 tgl 19 0 empty empty empty 0 -10 0 12 #fcfcfc #000000 #000000 0 1;
#X obj 550 191 tgl 19 0 empty empty empty 0 -10 0 12 #fcfcfc #000000 #000000 0 1;
#X obj 615 192 tgl 19 0 empty empty empty 0 -10 0 12 #fcfcfc #000000 #000000 0 1;
#X text 89 98 count efter en shit är för snabb..... hur löser jag det?;
#X obj 20 140 t b f;
#X text 514 94 Så nu funkar det men nu triggas inte break rätt \, varför inte? ändrade jag nåt där \, är det för att jag inte skickar tbx db i count på en gång?;
#X text 513 139 japp \, var det \, nu ska vi bara lckas abstrahera allt....;
#X obj 21 267 mode, f 8;
#X msg 21 217 1;
#X obj 21 239 t b f;
#X text 74 215 0b1c2s;
#X obj 88 267 mode, f 8;
#X obj 154 267 mode, f 8;
#X obj 221 267 mode, f 8;
#X obj 38 301 tgl 19 0 empty empty empty 0 -10 0 12 #fcfcfc #000000 #000000 0 1;
#X obj 105 301 tgl 19 0 empty empty empty 0 -10 0 12 #fcfcfc #000000 #000000 0 1;
#X obj 172 301 tgl 19 0 empty empty empty 0 -10 0 12 #fcfcfc #000000 #000000 0 1;
#X obj 239 301 tgl 19 0 empty empty empty 0 -10 0 12 #fcfcfc #000000 #000000 0 1;
#X text 394 238 in: df \, s \, mode \, db out: db \, lamp \, df \, s;
#X obj 287 267 mode, f 8;
#X obj 354 267 mode, f 8;
#X obj 420 267 mode, f 8;
#X obj 571 267 mode, f 8;
#X obj 304 301 tgl 19 0 empty empty empty 0 -10 0 12 #fcfcfc #000000 #000000 0 1;
#X obj 371 301 tgl 19 0 empty empty empty 0 -10 0 12 #fcfcfc #000000 #000000 0 1;
#X obj 438 301 tgl 19 0 empty empty empty 0 -10 0 12 #fcfcfc #000000 #000000 0 1;
#X obj 589 301 tgl 19 0 empty empty empty 0 -10 0 12 #fcfcfc #000000 #000000 0 1;
#X obj 637 267 mode, f 8;
#X obj 704 267 mode, f 8;
#X obj 655 301 tgl 19 0 empty empty empty 0 -10 0 12 #fcfcfc #000000 #000000 0 1;
#X obj 722 301 tgl 19 0 empty empty empty 0 -10 0 12 #fcfcfc #000000 #000000 0 1;
#X msg 112 234 1;
#X msg 741 239 1;
#X msg 256 234 0;
#X msg 333 234 2;
#X obj 293 235 tgl 19 0 empty empty empty 0 -10 0 12 #fcfcfc #000000 #000000 0 1;
#X msg 224 233 2;
#X obj 504 301 tgl 19 0 empty empty empty 0 -10 0 12 #fcfcfc #000000 #000000 0 1;
#X obj 486 267 mode10, f 8;
#X obj 90 418 mode, f 8;
#X obj 156 418 mode, f 8;
#X obj 223 418 mode, f 8;
#X obj 49 452 tgl 19 0 empty empty empty 0 -10 0 12 #fcfcfc #000000 #000000 0 1;
#X obj 107 452 tgl 19 0 empty empty empty 0 -10 0 12 #fcfcfc #000000 #000000 0 1;
#X obj 174 452 tgl 19 0 empty empty empty 0 -10 0 12 #fcfcfc #000000 #000000 0 1;
#X obj 241 452 tgl 19 0 empty empty empty 0 -10 0 12 #fcfcfc #000000 #000000 0 1;
#X obj 289 418 mode, f 8;
#X obj 356 418 mode, f 8;
#X obj 422 418 mode, f 8;
#X obj 306 452 tgl 19 0 empty empty empty 0 -10 0 12 #fcfcfc #000000 #000000 0 1;
#X obj 373 452 tgl 19 0 empty empty empty 0 -10 0 12 #fcfcfc #000000 #000000 0 1;
#X obj 440 452 tgl 19 0 empty empty empty 0 -10 0 12 #fcfcfc #000000 #000000 0 1;
#X msg 118 376 1;
#X msg 396 373 2;
#X obj 295 375 tgl 19 0 empty empty empty 0 -10 0 12 #fcfcfc #000000 #000000 0 1;
#X msg 249 380 2;
#X obj 506 452 tgl 19 0 empty empty empty 0 -10 0 12 #fcfcfc #000000 #000000 0 1;
#X obj 488 418 mode10, f 8;
#X obj 23 418 mode1, f 8;
#X msg 23 378 1;
#X msg 58 379 2;
#X msg 61 356 1;
#X msg 62 333 0;
#X msg 180 382 2;
#X obj 23 441 tgl 11 0 empty empty empty 0 -10 0 12 #ff0400 #000000 #000000 0 1;
#X obj 36 441 tgl 11 0 empty empty empty 0 -10 0 12 #00ff04 #000000 #000000 0 1;
#X msg 250 354 0;
#X obj 70 459 bng 19 250 50 0 empty empty empty 0 -10 0 12 #fcfcfc #000000 #000000;
#X obj 35 479 bng 19 250 50 0 empty empty empty 0 -10 0 12 #fcfcfc #000000 #000000;
#X obj 93 482 tgl 19 0 empty empty empty 0 -10 0 12 #fcfcfc #000000 #000000 0 1;
#X connect 0 1 5 0;
#X connect 0 2 1 0;
#X connect 1 1 6 0;
#X connect 1 2 2 0;
#X connect 2 1 7 0;
#X connect 2 2 3 0;
#X connect 3 1 8 0;
#X connect 3 2 9 0;
#X connect 3 3 9 1;
#X connect 4 0 0 0;
#X connect 9 1 13 0;
#X connect 9 1 10 0;
#X connect 9 2 10 1;
#X connect 10 1 14 0;
#X connect 10 1 11 0;
#X connect 10 2 11 1;
#X connect 11 1 15 0;
#X connect 11 1 12 0;
#X connect 11 2 12 1;
#X connect 12 1 16 0;
#X connect 12 1 17 0;
#X connect 12 2 17 1;
#X connect 17 0 12 2;
#X connect 17 1 18 0;
#X connect 17 1 24 0;
#X connect 17 2 18 1;
#X connect 18 0 17 2;
#X connect 18 1 20 0;
#X connect 18 1 19 0;
#X connect 18 2 19 1;
#X connect 19 0 18 2;
#X connect 19 1 21 0;
#X connect 19 1 22 0;
#X connect 19 2 22 1;
#X connect 22 0 19 2;
#X connect 22 1 25 0;
#X connect 23 0 22 2;
#X connect 26 0 17 2;
#X connect 28 1 32 0;
#X connect 28 2 29 0;
#X connect 28 3 29 1;
#X connect 29 1 33 0;
#X connect 29 2 30 0;
#X connect 29 3 30 1;
#X connect 30 1 34 0;
#X connect 30 2 35 0;
#X connect 30 3 35 1;
#X connect 31 0 51 0;
#X connect 35 0 30 2;
#X connect 35 1 36 0;
#X connect 35 1 40 0;
#X connect 35 2 36 1;
#X connect 36 0 35 2;
#X connect 36 1 38 0;
#X connect 36 1 37 0;
#X connect 36 2 37 1;
#X connect 37 0 36 2;
#X connect 37 1 39 0;
#X connect 37 1 42 0;
#X connect 37 2 42 1;
#X connect 41 0 35 2;
#X connect 42 0 37 2;
#X connect 42 1 43 0;
#X connect 42 1 44 0;
#X connect 42 2 44 1;
#X connect 44 0 42 2;
#X connect 44 1 47 0;
#X connect 44 2 45 0;
#X connect 44 3 45 1;
#X connect 45 0 44 2;
#X connect 45 1 48 0;
#X connect 45 2 46 0;
#X connect 45 3 46 1;
#X connect 46 0 45 2;
#X connect 46 1 49 0;
#X connect 51 0 28 1;
#X connect 51 1 28 0;
#X connect 54 1 61 0;
#X connect 54 2 58 0;
#X connect 54 3 58 1;
#X connect 55 0 56 0;
#X connect 56 0 54 1;
#X connect 56 1 54 0;
#X connect 58 0 54 3;
#X connect 58 1 62 0;
#X connect 58 2 59 0;
#X connect 58 3 59 1;
#X connect 59 0 58 3;
#X connect 59 1 63 0;
#X connect 59 2 60 0;
#X connect 59 3 60 1;
#X connect 60 0 59 3;
#X connect 60 1 64 0;
#X connect 60 2 66 0;
#X connect 60 3 66 1;
#X connect 66 0 60 3;
#X connect 66 1 70 0;
#X connect 66 2 67 0;
#X connect 66 3 67 1;
#X connect 67 0 66 3;
#X connect 67 1 71 0;
#X connect 67 2 68 0;
#X connect 67 3 68 1;
#X connect 68 0 67 3;
#X connect 68 1 72 0;
#X connect 68 2 85 0;
#X connect 68 3 85 1;
#X connect 69 1 73 0;
#X connect 69 2 74 0;
#X connect 69 3 74 1;
#X connect 74 0 69 3;
#X connect 74 1 76 0;
#X connect 74 2 75 0;
#X connect 74 3 75 1;
#X connect 75 0 74 3;
#X connect 75 1 77 0;
#X connect 78 0 54 2;
#X connect 78 0 58 2;
#X connect 78 0 59 2;
#X connect 79 0 69 2;
#X connect 79 0 74 2;
#X connect 79 0 75 2;
#X connect 80 0 60 2;
#X connect 81 0 66 2;
#X connect 81 0 67 2;
#X connect 81 0 68 2;
#X connect 81 0 85 2;
#X connect 82 0 60 3;
#X connect 83 0 60 2;
#X connect 85 0 68 3;
#X connect 85 1 84 0;
#X connect 86 0 105 3;
#X connect 86 1 90 0;
#X connect 86 2 87 0;
#X connect 86 3 87 1;
#X connect 87 0 86 4;
#X connect 87 1 91 0;
#X connect 87 2 88 0;
#X connect 87 3 88 1;
#X connect 88 0 87 4;
#X connect 88 1 92 0;
#X connect 88 2 93 0;
#X connect 88 3 93 1;
#X connect 89 0 115 0;
#X connect 93 0 88 4;
#X connect 93 1 96 0;
#X connect 93 2 94 0;
#X connect 93 3 94 1;
#X connect 94 0 93 4;
#X connect 94 1 97 0;
#X connect 94 2 95 0;
#X connect 94 3 95 1;
#X connect 95 0 94 4;
#X connect 95 1 98 0;
#X connect 95 2 104 0;
#X connect 95 3 104 1;
#X connect 99 0 86 2;
#X connect 99 0 87 2;
#X connect 100 0 93 2;
#X connect 100 0 94 2;
#X connect 100 0 95 2;
#X connect 100 0 104 2;
#X connect 101 0 88 4;
#X connect 102 0 88 2;
#X connect 104 0 95 4;
#X connect 104 1 103 0;
#X connect 105 0 111 0;
#X connect 105 1 112 0;
#X connect 105 2 89 0;
#X connect 105 3 86 0;
#X connect 105 3 116 0;
#X connect 105 4 86 1;
#X connect 105 4 114 0;
#X connect 106 0 105 0;
#X connect 107 0 105 1;
#X connect 108 0 105 1;
#X connect 109 0 105 1;
#X connect 110 0 86 2;
#X connect 110 0 87 2;
#X connect 113 0 88 2;
