#N canvas 38 38 1920 1016 12;
#X obj 67 144 mode1, f 7;
#X obj 129 144 mode, f 6;
#X obj 530 144 mode10;
#X obj 43 67 inlet;
#X obj 85 66 r m1;
#X obj 174 60 r m2;
#X obj 219 59 r m3;
#X obj 263 59 r m4;
#X obj 304 59 r m5;
#X obj 346 59 r m6;
#X obj 386 59 r m7;
#X obj 422 59 r m8;
#X obj 460 60 r m9;
#X obj 499 60 r m10;
#X obj 20 204 outlet;
#X text 17 224 clkstp;
#X obj 76 204 outlet;
#X text 85 227 rs;
#X obj 132 206 s l1;
#X obj 169 206 s l2;
#X obj 206 206 s l3;
#X obj 242 206 s l4;
#X obj 277 206 s l5;
#X obj 313 206 s l6;
#X obj 349 206 s l7;
#X obj 385 205 s l8;
#X obj 421 205 s l9;
#X obj 456 205 s l10;
#X obj 179 144 mode, f 6;
#X obj 229 144 mode, f 6;
#X obj 279 144 mode, f 6;
#X obj 330 144 mode, f 6;
#X obj 380 144 mode, f 6;
#X obj 430 144 mode, f 6;
#X obj 480 144 mode, f 6;
#X obj 130 99 t f f f f f f f f f;
#X obj 127 63 inlet;
#X connect 0 0 14 0;
#X connect 0 1 16 0;
#X connect 0 2 18 0;
#X connect 0 3 1 0;
#X connect 0 4 1 1;
#X connect 1 0 0 3;
#X connect 1 1 19 0;
#X connect 1 2 28 0;
#X connect 1 3 28 1;
#X connect 2 0 34 4;
#X connect 2 1 27 0;
#X connect 3 0 0 0;
#X connect 4 0 0 1;
#X connect 5 0 1 2;
#X connect 6 0 28 2;
#X connect 7 0 29 2;
#X connect 8 0 30 2;
#X connect 9 0 31 2;
#X connect 10 0 32 2;
#X connect 11 0 33 2;
#X connect 12 0 34 2;
#X connect 13 0 2 2;
#X connect 28 0 1 4;
#X connect 28 1 20 0;
#X connect 28 2 29 0;
#X connect 28 3 29 1;
#X connect 29 0 28 4;
#X connect 29 1 21 0;
#X connect 29 2 30 0;
#X connect 29 3 30 1;
#X connect 30 0 29 4;
#X connect 30 1 22 0;
#X connect 30 2 31 0;
#X connect 30 3 31 1;
#X connect 31 0 30 4;
#X connect 31 1 23 0;
#X connect 31 2 32 0;
#X connect 31 3 32 1;
#X connect 32 0 31 4;
#X connect 32 1 24 0;
#X connect 32 2 33 0;
#X connect 32 3 33 1;
#X connect 33 0 32 4;
#X connect 33 1 25 0;
#X connect 33 2 34 0;
#X connect 33 3 34 1;
#X connect 34 0 33 4;
#X connect 34 1 26 0;
#X connect 34 2 2 0;
#X connect 34 3 2 1;
#X connect 35 0 2 3;
#X connect 35 1 34 3;
#X connect 35 2 33 3;
#X connect 35 3 32 3;
#X connect 35 4 31 3;
#X connect 35 5 30 3;
#X connect 35 6 29 3;
#X connect 35 7 28 3;
#X connect 35 8 1 2;
#X connect 36 0 35 0;
