#N canvas 953 0 956 1015 12;
#X obj 7 18 inlet;
#X obj 95 12 inlet;
#X obj 27 460 outlet;
#X obj 129 460 outlet;
#X obj 452 22 inlet;
#X obj 180 460 outlet;
#X text 462 3 DB;
#X text 40 480 DB;
#X text 18 -1 DF;
#X text 95 -7 s;
#X text 143 479 DF;
#X text 193 480 s;
#X obj 160 225 f;
#X obj 128 179 sel 1;
#X obj 160 247 t f f;
#X obj 160 271 != 1;
#X obj 80 460 outlet;
#X text 85 480 lamp;
#X obj 114 133 t f f;
#X obj 128 203 t b b;
#X obj 128 156 f;
#X obj 242 14 inlet;
#X text 239 -7 mode;
#X obj 242 40 t f f f;
#X obj 242 126 == 0;
#X obj 265 62 == 1;
#X obj 288 105 == 2;
#X obj 452 71 spigot;
#X obj 452 46 t f f;
#X obj 253 215 spigot;
#X obj 114 110 spigot;
#X obj 7 42 t f f f;
#X obj 95 37 t b b;
#X obj 127 60 spigot;
#X obj 13 88 spigot;
#X obj 13 110 f;
#X text 516 59 0b1c2s;
#X obj 13 275 f;
#X obj 30 65 spigot;
#X obj 203 193 spigot;
#X obj 203 217 t f f;
#X obj 235 241 sel 1;
#X obj 235 266 f;
#X obj 357 13 inlet;
#X text 357 -7 rs;
#X obj 357 37 t f f;
#X obj 389 66 spigot;
#X obj 338 65 spigot;
#X obj 242 148 t f f f f;
#X obj 282 171 != 1;
#X msg 338 89 0;
#X obj 389 90 t f f;
#X obj 288 126 t f f f;
#X obj 65 352 t f f b;
#X obj 13 299 t f f;
#X obj 13 352 t f f;
#X obj 13 376 != 1;
#X obj 13 326 spigot;
#X obj 65 326 spigot;
#X obj 72 259 == 1;
#X obj 72 281 t f f;
#X obj 104 303 != 1;
#X obj 265 83 t f f f;
#X obj 270 315 tgl 19 0 empty empty empty 0 -10 0 12 #fcfcfc #000000 #000000 0 1;
#X obj 271 383 tgl 19 0 empty empty empty 0 -10 0 12 #fcfcfc #000000 #000000 0 1;
#X obj 210 403 tgl 19 0 empty empty empty 0 -10 0 12 #fcfcfc #000000 #000000 0 1;
#X obj 210 427 bng 19 250 50 0 empty empty empty 0 -10 0 12 #fcfcfc #000000 #000000;
#X obj 271 407 bng 19 250 50 0 empty empty empty 0 -10 0 12 #fcfcfc #000000 #000000;
#X obj 275 344 bng 19 250 50 0 empty empty empty 0 -10 0 12 #fcfcfc #000000 #000000;
#X obj 452 95 tgl 19 0 empty empty empty 0 -10 0 12 #fcfcfc #000000 #000000 0 1;
#X obj 452 119 bng 19 250 50 0 empty empty empty 0 -10 0 12 #fcfcfc #000000 #000000;
#X connect 0 0 31 0;
#X connect 1 0 32 0;
#X connect 4 0 28 0;
#X connect 12 0 14 0;
#X connect 12 0 37 0;
#X connect 13 0 19 0;
#X connect 14 0 15 0;
#X connect 15 0 12 1;
#X connect 18 0 2 0;
#X connect 18 1 20 1;
#X connect 19 0 5 0;
#X connect 19 1 12 0;
#X connect 20 0 13 0;
#X connect 21 0 23 0;
#X connect 23 0 24 0;
#X connect 23 1 25 0;
#X connect 23 2 26 0;
#X connect 24 0 48 0;
#X connect 25 0 62 0;
#X connect 26 0 52 0;
#X connect 27 0 2 0;
#X connect 27 0 69 0;
#X connect 28 0 27 0;
#X connect 28 1 29 0;
#X connect 29 0 42 1;
#X connect 30 0 18 0;
#X connect 31 0 39 0;
#X connect 31 1 38 0;
#X connect 31 2 30 0;
#X connect 32 0 34 0;
#X connect 32 1 33 0;
#X connect 33 0 20 0;
#X connect 34 0 35 0;
#X connect 35 0 37 0;
#X connect 37 0 54 0;
#X connect 38 0 35 1;
#X connect 39 0 40 0;
#X connect 40 0 2 0;
#X connect 40 1 41 0;
#X connect 41 0 42 0;
#X connect 42 0 37 0;
#X connect 42 0 63 0;
#X connect 43 0 45 0;
#X connect 45 0 47 0;
#X connect 45 1 46 0;
#X connect 46 0 51 0;
#X connect 47 0 50 0;
#X connect 48 0 39 1;
#X connect 48 1 29 1;
#X connect 48 2 49 0;
#X connect 48 3 46 1;
#X connect 49 0 47 1;
#X connect 50 0 3 0;
#X connect 50 0 16 0;
#X connect 51 0 16 0;
#X connect 51 1 3 0;
#X connect 52 0 27 1;
#X connect 52 1 34 1;
#X connect 52 2 38 1;
#X connect 53 0 3 0;
#X connect 53 1 16 0;
#X connect 53 1 64 0;
#X connect 53 2 5 0;
#X connect 54 0 57 0;
#X connect 54 1 58 0;
#X connect 55 0 56 0;
#X connect 55 1 3 0;
#X connect 55 1 65 0;
#X connect 56 0 16 0;
#X connect 57 0 55 0;
#X connect 58 0 53 0;
#X connect 59 0 60 0;
#X connect 60 0 57 1;
#X connect 60 1 61 0;
#X connect 61 0 58 1;
#X connect 62 0 30 1;
#X connect 62 1 33 1;
#X connect 62 2 59 0;
#X connect 63 0 68 0;
#X connect 64 0 67 0;
#X connect 65 0 66 0;
#X connect 69 0 70 0;
