#N canvas 38 38 1920 1016 12;
#X obj 575 134 Dflipflop;
#X obj 575 158 tgl 19 0 empty empty empty 0 -10 0 12 #fcfcfc #000000 #000000 0 1;
#X obj 635 159 tgl 19 0 empty empty empty 0 -10 0 12 #fcfcfc #000000 #000000 0 1;
#X obj 624 56 tgl 19 0 empty empty empty 0 -10 0 12 #fcfcfc #000000 #000000 0 1;
#X obj 576 112 tgl 19 0 empty empty empty 0 -10 0 12 #fcfcfc #000000 #000000 0 1;
#X obj 741 128 Dflipflop;
#X obj 741 152 tgl 19 0 empty empty empty 0 -10 0 12 #fcfcfc #000000 #000000 0 1;
#X obj 801 153 tgl 19 0 empty empty empty 0 -10 0 12 #fcfcfc #000000 #000000 0 1;
#X obj 799 87 tgl 19 0 empty empty empty 0 -10 0 12 #fcfcfc #000000 #000000 0 1;
#X obj 741 87 tgl 19 0 empty empty empty 0 -10 0 12 #fcfcfc #000000 #000000 0 1;
#X obj 844 129 Dflipflop;
#X obj 844 153 tgl 19 0 empty empty empty 0 -10 0 12 #fcfcfc #000000 #000000 0 1;
#X obj 904 154 tgl 19 0 empty empty empty 0 -10 0 12 #fcfcfc #000000 #000000 0 1;
#X obj 902 88 tgl 19 0 empty empty empty 0 -10 0 12 #fcfcfc #000000 #000000 0 1;
#X obj 844 88 tgl 19 0 empty empty empty 0 -10 0 12 #fcfcfc #000000 #000000 0 1;
#X obj 605 186 f;
#X obj 672 78 sel 1;
#X obj 762 170 f;
#X obj 865 180 f;
#X obj 865 204 tgl 19 0 empty empty empty 0 -10 0 12 #fcfcfc #000000 #000000 0 1;
#X obj 605 209 tgl 19 0 empty empty empty 0 -10 0 12 #fcfcfc #000000 #000000 0 1;
#X obj 760 200 tgl 19 0 empty empty empty 0 -10 0 12 #fcfcfc #000000 #000000 0 1;
#X msg 622 21 1;
#X obj 575 76 f;
#X obj 67 242 dbreak;
#X obj 132 243 dshift;
#X obj 190 243 dshift;
#X obj 250 245 dbreak;
#X obj 315 246 dshift;
#X obj 373 246 dshift;
#X obj 66 118 tgl 19 0 empty empty empty 0 -10 0 12 #fcfcfc #000000 #000000 0 1;
#X obj 66 166 tgl 19 0 empty empty empty 0 -10 0 12 #fcfcfc #000000 #000000 0 1;
#X obj 67 143 metro 1000;
#X text 56 28 in: df \, sm \, db \, out:df \, sm \, db;
#X obj 58 314 tgl 24 0 empty empty empty 0 -10 0 12 #e3c6ff #000000 #000000 0 1;
#X obj 126 314 tgl 24 0 empty empty empty 0 -10 0 12 #e3c6ff #000000 #000000 0 1;
#X obj 185 314 tgl 24 0 empty empty empty 0 -10 0 12 #e3c6ff #000000 #000000 0 1;
#X obj 253 314 tgl 24 0 empty empty empty 0 -10 0 12 #e3c6ff #000000 #000000 0 1;
#X obj 312 315 tgl 24 0 empty empty empty 0 -10 0 12 #e3c6ff #000000 #000000 0 1;
#X obj 380 315 tgl 24 0 empty empty empty 0 -10 0 12 #e3c6ff #000000 #000000 0 1;
#X obj 439 315 tgl 24 0 empty empty empty 0 -10 0 12 #e3c6ff #000000 #000000 0 1;
#X msg 141 106 500;
#X obj 439 344 bng 19 250 50 0 empty empty empty 0 -10 0 12 #fcfcfc #000000 #000000;
#X obj 380 344 bng 19 250 50 0 empty empty empty 0 -10 0 12 #fcfcfc #000000 #000000;
#X text 116 182 BSSBSSB;
#X text 264 211 B2;
#X text 209 211 S;
#X text 76 214 B1;
#X floatatom 136 456 5 0 0 0 - - - 0;
#X obj 136 432 timer;
#X obj 137 382 bang;
#X floatatom 74 460 5 0 0 0 - - - 0;
#X obj 74 436 timer;
#X obj 75 386 bang;
#X floatatom 192 459 5 0 0 0 - - - 0;
#X obj 192 435 timer;
#X obj 193 385 bang;
#X floatatom 252 462 5 0 0 0 - - - 0;
#X obj 252 438 timer;
#X obj 253 388 bang;
#X floatatom 319 464 5 0 0 0 - - - 0;
#X obj 319 440 timer;
#X obj 320 390 bang;
#X obj 487 248 count;
#X obj 537 247 count;
#X obj 486 315 tgl 24 0 empty empty empty 0 -10 0 12 #e3c6ff #000000 #000000 0 1;
#X obj 545 316 tgl 24 0 empty empty empty 0 -10 0 12 #e3c6ff #000000 #000000 0 1;
#X floatatom 485 463 5 0 0 0 - - - 0;
#X obj 485 439 timer;
#X obj 486 389 bang;
#X floatatom 552 465 5 0 0 0 - - - 0;
#X obj 552 441 timer;
#X obj 553 391 bang;
#X msg 179 106 250;
#X obj 430 248 dshift;
#X msg 488 153 1;
#X msg 213 169 1;
#X msg 249 170 0;
#X connect 0 0 1 0;
#X connect 0 1 2 0;
#X connect 2 0 15 1;
#X connect 3 0 0 1;
#X connect 3 0 16 0;
#X connect 3 0 8 0;
#X connect 3 0 13 0;
#X connect 4 0 0 0;
#X connect 5 0 6 0;
#X connect 5 1 7 0;
#X connect 7 0 17 1;
#X connect 8 0 5 1;
#X connect 9 0 5 0;
#X connect 10 0 11 0;
#X connect 10 1 12 0;
#X connect 12 0 18 1;
#X connect 13 0 10 1;
#X connect 14 0 10 0;
#X connect 15 0 9 0;
#X connect 15 0 20 0;
#X connect 16 0 15 0;
#X connect 16 0 17 0;
#X connect 16 0 18 0;
#X connect 16 0 23 0;
#X connect 17 0 14 0;
#X connect 17 0 21 0;
#X connect 18 0 19 0;
#X connect 19 0 23 1;
#X connect 22 0 3 0;
#X connect 23 0 4 0;
#X connect 24 0 25 0;
#X connect 24 0 34 0;
#X connect 24 1 25 1;
#X connect 25 0 26 0;
#X connect 25 0 35 0;
#X connect 25 1 26 1;
#X connect 25 2 24 2;
#X connect 26 0 27 0;
#X connect 26 0 36 0;
#X connect 26 1 27 1;
#X connect 26 2 25 2;
#X connect 27 0 28 0;
#X connect 27 0 37 0;
#X connect 27 1 28 1;
#X connect 27 2 26 2;
#X connect 28 0 29 0;
#X connect 28 0 38 0;
#X connect 28 1 29 1;
#X connect 28 2 27 2;
#X connect 29 0 39 0;
#X connect 29 0 74 0;
#X connect 29 1 74 1;
#X connect 29 2 28 2;
#X connect 30 0 32 0;
#X connect 31 0 24 0;
#X connect 32 0 31 0;
#X connect 34 0 53 0;
#X connect 35 0 50 0;
#X connect 36 0 56 0;
#X connect 37 0 59 0;
#X connect 38 0 62 0;
#X connect 39 0 43 0;
#X connect 40 0 42 0;
#X connect 41 0 32 1;
#X connect 49 0 48 0;
#X connect 50 0 49 1;
#X connect 50 0 49 0;
#X connect 52 0 51 0;
#X connect 53 0 52 1;
#X connect 53 0 52 0;
#X connect 55 0 54 0;
#X connect 56 0 55 1;
#X connect 56 0 55 0;
#X connect 58 0 57 0;
#X connect 59 0 58 1;
#X connect 59 0 58 0;
#X connect 61 0 60 0;
#X connect 62 0 61 1;
#X connect 62 0 61 0;
#X connect 63 1 64 1;
#X connect 63 1 65 0;
#X connect 63 2 64 2;
#X connect 64 1 66 0;
#X connect 65 0 69 0;
#X connect 66 0 72 0;
#X connect 68 0 67 0;
#X connect 69 0 68 1;
#X connect 69 0 68 0;
#X connect 71 0 70 0;
#X connect 72 0 71 1;
#X connect 72 0 71 0;
#X connect 73 0 32 1;
#X connect 74 0 40 0;
#X connect 74 0 63 1;
#X connect 74 1 63 2;
#X connect 74 2 29 2;
#X connect 75 0 63 3;
#X connect 76 0 24 1;
#X connect 77 0 24 1;
