#N canvas 146 144 1920 1016 12;
#X obj 122 175 Dflipflop;
#X obj 22 44 inlet DF;
#X obj 102 212 f;
#X obj 100 329 outlet DF;
#X obj 272 333 outlet DB;
#X obj 198 42 inlet DB;
#X obj 40 105 sel 1;
#X obj 271 108 != 1;
#X obj 105 44 inlet sm;
#X obj 186 331 outlet sm;
#X obj 180 79 f;
#X obj 22 70 t f f f f f;
#X obj 22 153 sel 1;
#X connect 0 0 2 1;
#X connect 1 0 11 0;
#X connect 2 0 3 0;
#X connect 5 0 10 1;
#X connect 6 0 2 0;
#X connect 7 0 4 0;
#X connect 10 0 0 0;
#X connect 11 0 12 0;
#X connect 11 1 6 0;
#X connect 11 2 0 1;
#X connect 11 3 9 0;
#X connect 11 4 7 0;
#X connect 12 0 10 0;
