#N canvas 1898 72 1920 1016 12;
#X obj 87 68 inlet D;
#X obj 160 69 inlet clk;
#X obj 116 193 JKFF, f 13;
#X obj 87 92 t f f;
#X obj 87 116 != 1;
#X obj 97 349 outlet !Q;
#X obj 202 348 outlet Q;
#X obj 243 70 inlet reset;
#X obj 278 347 outlet clk;
#X obj 160 93 t f f;
#X connect 0 0 3 0;
#X connect 1 0 9 0;
#X connect 2 0 5 0;
#X connect 2 1 6 0;
#X connect 3 0 4 0;
#X connect 3 1 2 2;
#X connect 4 0 2 0;
#X connect 7 0 2 3;
#X connect 9 0 2 1;
#X connect 9 1 8 0;
