#N canvas 689 157 1067 583 12;
#X obj 77 101 Dflipflop;
#X obj 77 134 t f f;
#X obj 133 163 f;
#X obj 132 136 t b f;
#X obj 23 11 inlet D;
#X obj 97 11 inlet clk;
#X obj 123 219 outlet D;
#X obj 192 219 outlet clk;
#X obj 178 11 inlet trig;
#X obj 18 217 outlet DF;
#X msg 137 75 1;
#X obj 287 12 inlet db;
#X obj 287 220 outlet db;
#X obj 301 73 tgl 19 0 empty empty empty 0 -10 0 12 #fcfcfc #000000 #000000 0 1;
#X floatatom 345 168 5 0 0 0 - - - 0;
#X obj 345 144 timer;
#X obj 346 94 bang;
#X obj 397 50 bng 19 250 50 0 empty empty empty 0 -10 0 12 #fcfcfc #000000 #000000;
#X floatatom 398 163 5 0 0 0 - - - 0;
#X obj 398 139 timer;
#X obj 399 89 bang;
#X connect 0 1 1 0;
#X connect 0 2 3 0;
#X connect 1 0 9 0;
#X connect 1 1 2 1;
#X connect 2 0 6 0;
#X connect 3 0 2 0;
#X connect 3 1 7 0;
#X connect 4 0 0 0;
#X connect 5 0 0 1;
#X connect 8 0 10 0;
#X connect 10 0 0 2;
#X connect 11 0 12 0;
#X connect 11 0 13 0;
#X connect 11 0 17 0;
#X connect 13 0 16 0;
#X connect 15 0 14 0;
#X connect 16 0 15 1;
#X connect 16 0 15 0;
#X connect 17 0 20 0;
#X connect 19 0 18 0;
#X connect 20 0 19 1;
#X connect 20 0 19 0;
