#N canvas 190 190 1920 1016 12;
#X obj 156 288 JKFF, f 8;
#X text 629 33 NOR: 00-> 1 allt annat 0;
#X obj 95 221 NOR A;
#X obj 193 219 NOR B;
#X obj 95 247 t f f;
#X obj 197 143 tgl 19 0 empty empty empty 0 -10 0 12 #fcfcfc #000000 #000000 0 1;
#X obj 197 167 t f f;
#X obj 95 152 tgl 19 0 empty empty empty 0 -10 0 12 #fcfcfc #000000 #000000 0 1;
#X text 48 151 DF;
#X text 240 145 ground 0;
#X obj 62 18 inlet df;
#X msg 197 113 0;
#X obj 62 42 t f f;
#X obj 163 28 inlet clk;
#X obj 209 334 outlet Q;
#X obj 134 335 outlet !Q;
#X obj 288 336 outlet clk;
#X obj 163 52 t f f;
#X connect 0 0 15 0;
#X connect 0 1 14 0;
#X connect 2 0 4 0;
#X connect 3 0 0 2;
#X connect 4 0 0 0;
#X connect 4 1 3 0;
#X connect 5 0 6 0;
#X connect 6 0 3 1;
#X connect 6 1 2 1;
#X connect 7 0 2 0;
#X connect 10 0 12 0;
#X connect 11 0 5 0;
#X connect 12 0 7 0;
#X connect 12 1 11 0;
#X connect 13 0 17 0;
#X connect 17 0 0 1;
#X connect 17 1 16 0;
