#N canvas -10 0 1920 1016 12;
#X obj 78 168 s2, f 6;
#X obj 144 169 s2, f 6;
#X obj 215 169 s2, f 6;
#X obj 95 268 tgl 25 0 empty empty empty 0 -10 0 12 #c6feff #000000 #000000 0 1;
#X obj 161 268 tgl 25 0 empty empty empty 0 -10 0 12 #c6feff #000000 #000000 0 1;
#X obj 217 271 tgl 25 0 empty empty empty 0 -10 0 12 #c6feff #000000 #000000 0 1;
#X obj 67 69 metro 1500;
#X obj 67 93 tgl 19 0 empty empty empty 0 -10 0 12 #fcfcfc #000000 #000000 0 1;
#X obj 67 20 tgl 19 0 empty empty empty 0 -10 0 12 #fcfcfc #000000 #000000 0 1;
#X msg 136 32 500;
#X msg 103 19 750;
#X msg 178 30 100;
#X msg 123 126 0;
#X msg 206 117 1;
#X obj 33 147 tgl 19 0 empty empty empty 0 -10 0 12 #fcfcfc #000000 #000000 0 1;
#X obj 96 334 bang;
#X obj 96 358 timer;
#X floatatom 96 382 5 0 0 0 - - - 0;
#X obj 303 171 count, f 7;
#X obj 320 232 != 1;
#X obj 319 274 tgl 25 0 empty empty empty 0 -10 0 12 #c6feff #000000 #000000 0 1;
#X obj 317 325 bang;
#X obj 317 349 timer;
#X floatatom 317 373 5 0 0 0 - - - 0;
#X obj 368 172 count, f 7;
#X obj 385 233 != 1;
#X obj 384 275 tgl 25 0 empty empty empty 0 -10 0 12 #c6feff #000000 #000000 0 1;
#X obj 382 326 bang;
#X obj 382 350 timer;
#X floatatom 382 374 5 0 0 0 - - - 0;
#X obj 244 223 t f f;
#X obj 247 406 tgl 25 0 empty empty empty 0 -10 0 12 #c6feff #000000 #000000 0 1;
#X obj 314 198 t f f;
#X obj 247 325 bng 19 250 50 0 empty empty empty 0 -10 0 12 #fcfcfc #000000 #000000;
#X obj 214 327 bng 19 250 50 0 empty empty empty 0 -10 0 12 #fcfcfc #000000 #000000;
#X msg 67 117 1;
#X obj 176 327 bng 19 250 50 0 empty empty empty 0 -10 0 12 #fcfcfc #000000 #000000;
#X obj 175 370 sel 1;
#X obj 172 406 bng 30 250 50 0 empty empty empty 0 -10 0 12 #00faff #000000 #000000;
#X obj 555 182 s2, f 6;
#X obj 621 183 s2, f 6;
#X obj 692 183 s2, f 6;
#X obj 544 83 metro 1500;
#X obj 544 107 tgl 19 0 empty empty empty 0 -10 0 12 #fcfcfc #000000 #000000 0 1;
#X obj 544 34 tgl 19 0 empty empty empty 0 -10 0 12 #fcfcfc #000000 #000000 0 1;
#X msg 613 46 500;
#X msg 580 33 750;
#X msg 655 44 100;
#X msg 600 140 0;
#X msg 683 131 1;
#X obj 442 116 tgl 19 0 empty empty empty 0 -10 0 12 #fcfcfc #000000 #000000 0 1;
#X obj 712 211 t f f;
#X msg 544 131 1;
#X obj 440 387 route;
#X obj 640 214 t f f;
#X text 499 337 vill hitta ett sätt där jag skickar både fram och tilbaka men bara använder en. men också på ett sätt där jag inte bara skickar tillbaka ett steg \, kan vi göra villkor i varje led? typ routa rätt?;
#X connect 0 0 3 0;
#X connect 0 1 1 0;
#X connect 0 2 1 1;
#X connect 1 0 4 0;
#X connect 1 1 2 0;
#X connect 1 2 2 1;
#X connect 2 0 5 0;
#X connect 2 1 30 0;
#X connect 3 0 15 0;
#X connect 4 0 37 0;
#X connect 6 0 7 0;
#X connect 7 0 34 0;
#X connect 7 0 35 0;
#X connect 8 0 6 0;
#X connect 9 0 6 1;
#X connect 10 0 6 1;
#X connect 11 0 6 1;
#X connect 12 0 0 2;
#X connect 13 0 2 2;
#X connect 13 0 1 2;
#X connect 14 0 0 0;
#X connect 15 0 16 1;
#X connect 15 0 16 0;
#X connect 16 0 17 0;
#X connect 18 1 32 0;
#X connect 19 0 20 0;
#X connect 20 0 21 0;
#X connect 21 0 22 1;
#X connect 21 0 22 0;
#X connect 22 0 23 0;
#X connect 24 1 25 0;
#X connect 25 0 26 0;
#X connect 26 0 27 0;
#X connect 27 0 28 1;
#X connect 27 0 28 0;
#X connect 28 0 29 0;
#X connect 30 0 18 1;
#X connect 30 0 33 0;
#X connect 30 1 0 0;
#X connect 32 0 19 0;
#X connect 32 1 24 1;
#X connect 35 0 36 0;
#X connect 35 0 0 1;
#X connect 37 0 38 0;
#X connect 39 1 40 0;
#X connect 39 2 40 1;
#X connect 40 1 54 0;
#X connect 40 2 41 1;
#X connect 41 1 51 0;
#X connect 42 0 43 0;
#X connect 43 0 52 0;
#X connect 44 0 42 0;
#X connect 45 0 42 1;
#X connect 46 0 42 1;
#X connect 47 0 42 1;
#X connect 48 0 39 2;
#X connect 49 0 41 2;
#X connect 49 0 40 2;
#X connect 50 0 39 0;
#X connect 52 0 39 1;
#X connect 54 1 41 0;
