#N canvas 76 76 1920 1016 12;
#X text 11 16 Pova att göra en break shift count \, då borde vi få se allt och vi vet att count funkar i sin countfunktion så det är bara db som behöver lösas till break här.;
#X text 17 74 Måste vi liksom se till att trigga db på nåt sätt även innan vi sätter igång så att det alltid finns nåt i db \, oavsett vad det är.;
#X obj 105 155 tgl 24 0 empty empty CLK 0 -10 0 12 #ff0400 #000000 #000000 0 1;
#X obj 229 275 Dflipflop;
#X obj 115 274 Dflipflop;
#X obj 361 273 count;
#X obj 96 306 f;
#X obj 105 184 metro 1500;
#X msg 105 210 1;
#X obj 105 234 t b f;
#X obj 96 330 t f f;
#X obj 92 400 tgl 24 0 empty empty empty 0 -10 0 12 #c6feff #000000 #000000 0 1;
#X obj 239 311 f;
#X obj 239 335 t f f;
#X obj 235 405 tgl 24 0 empty empty empty 0 -10 0 12 #c6feff #000000 #000000 0 1;
#X obj 289 308 t b f;
#X obj 374 402 tgl 24 0 empty empty empty 0 -10 0 12 #c6feff #000000 #000000 0 1;
#X obj 374 371 != 1;
#X obj 194 229 f;
#X obj 204 166 bng 19 250 50 0 empty empty empty 0 -10 0 12 #fcfcfc #000000 #000000;
#X obj 398 308 bang;
#X floatatom 195 259 5 0 0 0 - - - 0;
#X obj 457 271 count;
#X obj 465 400 tgl 24 0 empty empty empty 0 -10 0 12 #c6feff #000000 #000000 0 1;
#X obj 465 369 != 1;
#X obj 489 306 bang;
#X connect 2 0 7 0;
#X connect 3 1 12 1;
#X connect 3 2 15 0;
#X connect 4 0 6 1;
#X connect 4 2 3 1;
#X connect 5 0 18 1;
#X connect 5 1 17 0;
#X connect 5 1 22 1;
#X connect 5 2 20 0;
#X connect 5 2 22 2;
#X connect 6 0 10 0;
#X connect 7 0 8 0;
#X connect 8 0 9 0;
#X connect 9 0 6 0;
#X connect 9 1 4 1;
#X connect 10 0 11 0;
#X connect 10 1 3 0;
#X connect 12 0 13 0;
#X connect 13 0 14 0;
#X connect 13 1 5 1;
#X connect 15 0 12 0;
#X connect 15 1 5 2;
#X connect 17 0 16 0;
#X connect 18 0 4 0;
#X connect 18 0 21 0;
#X connect 19 0 18 0;
#X connect 20 0 18 0;
#X connect 22 1 24 0;
#X connect 22 2 25 0;
#X connect 22 2 5 0;
#X connect 24 0 23 0;
