#N canvas 0 82 1792 1016 12;
#X obj 38 28 inlet db;
#X obj 25 414 outlet db;
#X obj 121 28 inlet df;
#X obj 109 414 outlet df;
#X obj 88 118 != 1;
#X obj 123 235 f;
#X obj 38 89 tgl 15 0 empty empty empty 17 7 0 10 #fcfcfc #000000 #000000 0 1;
#X obj 200 28 inlet sm;
#X obj 195 414 outlet sm;
#X obj 38 64 select 0;
#X text 308 122 why is this not right?;
#X obj 152 115 select 0;
#X text 233 94 start in high;
#X connect 0 0 9 0;
#X connect 2 0 4 0;
#X connect 2 0 8 0;
#X connect 2 0 11 0;
#X connect 4 0 1 0;
#X connect 5 0 3 0;
#X connect 6 0 5 1;
#X connect 9 0 6 0;
#X connect 11 0 5 0;
