#N canvas 0 82 1792 1016 12;
#X obj 94 228 tgl 19 0 empty empty empty 0 -10 0 12 #fcfcfc #000000 #000000 0 1;
#X obj 38 28 inlet db;
#X obj 25 414 outlet db;
#X obj 121 28 inlet df;
#X obj 109 414 outlet df;
#X obj 200 52 sel 1;
#X obj 54 135 != 1;
#X obj 97 194 sel 1;
#X obj 200 28 inlet sm;
#X obj 195 414 outlet sm;
#X text 236 248 sel on 0?;
#X text 241 278 why;
#X obj 289 110 != 1;
#X obj 290 143 != 1;
#X obj 460 226 f;
#X obj 377 326 sel 0;
#X obj 377 350 tgl 19 0 empty empty empty 0 -10 0 12 #fcfcfc #000000 #000000 0 1;
#X obj 869 146 tgl 19 0 empty empty empty 0 -10 0 12 #fcfcfc #000000 #000000 0 1;
#X obj 867 172 != 1;
#X floatatom 867 196 5 0 0 0 - - - 0;
#X floatatom 925 196 5 0 0 0 - - - 0;
#X obj 577 77 sel 1;
#X obj 577 101 tgl 19 0 empty empty empty 0 -10 0 12 #fcfcfc #000000 #000000 0 1;
#X obj 577 125 != 1;
#X obj 631 78 sel 1;
#X obj 631 102 tgl 19 0 empty empty empty 0 -10 0 12 #fcfcfc #000000 #000000 0 1;
#X obj 631 126 != 1;
#X text 526 315 comment;
#X text 581 430 initialize a value?;
#X obj 1094 181 pipe;
#X text 837 346 duration? sustain;
#X connect 0 0 4 0;
#X connect 3 0 6 0;
#X connect 3 0 7 0;
#X connect 3 0 9 0;
#X connect 3 0 12 0;
#X connect 6 0 2 0;
#X connect 7 0 0 0;
#X connect 8 0 5 0;
#X connect 12 0 13 0;
#X connect 13 0 15 0;
#X connect 15 0 16 0;
#X connect 17 0 18 0;
#X connect 17 0 20 0;
#X connect 18 0 19 0;
#X connect 21 0 22 0;
#X connect 22 0 23 0;
#X connect 23 0 24 0;
#X connect 24 0 25 0;
#X connect 25 0 26 0;
