#N canvas 32 32 1920 1026 12;
#X obj 6 15 inlet;
#X obj 6 39 sel 0 1 2 3 4 5 6 7 8 9;
#X obj 97 14 inlet;
#X obj 38 67 f;
#X obj 178 38 t f f f f f f f f f f;
#X obj 6 66 f;
#X obj 101 67 f;
#X obj 69 66 f;
#X obj 166 67 f;
#X obj 134 66 f;
#X obj 229 67 f;
#X obj 197 66 f;
#X obj 295 69 f;
#X obj 263 68 f;
#X msg 6 89 \; 1a \$1;
#X msg 59 89 \; 1b \$1;
#X msg 111 90 \; 1c \$1;
#X msg 160 91 \; 1d \$1;
#X msg 212 92 \; 1e \$1;
#X msg 265 93 \; 1f \$1;
#X msg 317 94 \; 1g \$1;
#X msg 366 95 \; 1h \$1;
#X msg 418 96 \; 1i \$1;
#X msg 469 95 \; 1j \$1;
#X text 52 17 float;
#X text 143 11 ON/OFF;
#X obj 195 10 inlet;
#X obj 6 132 sel 0 1 2 3 4 5 6 7 8 9;
#X obj 236 10 inlet;
#X obj 38 163 f;
#X obj 176 132 t f f f f f f f f f f;
#X obj 6 162 f;
#X obj 101 163 f;
#X obj 69 162 f;
#X obj 166 163 f;
#X obj 134 162 f;
#X obj 229 163 f;
#X obj 197 162 f;
#X obj 295 165 f;
#X obj 263 164 f;
#X msg 6 188 \; 2a \$1;
#X msg 59 188 \; 2b \$1;
#X msg 111 189 \; 2c \$1;
#X msg 160 190 \; 2d \$1;
#X msg 212 191 \; 2e \$1;
#X msg 265 192 \; 2f \$1;
#X msg 317 193 \; 2g \$1;
#X msg 366 194 \; 2h \$1;
#X msg 418 195 \; 2i \$1;
#X msg 469 194 \; 2j \$1;
#X text 277 7 2;
#X obj 290 8 inlet;
#X obj 331 8 inlet;
#X text 372 5 3;
#X obj 6 231 sel 0 1 2 3 4 5 6 7 8 9;
#X obj 38 262 f;
#X obj 176 231 t f f f f f f f f f f;
#X obj 6 261 f;
#X obj 101 262 f;
#X obj 69 261 f;
#X obj 166 262 f;
#X obj 134 261 f;
#X obj 229 262 f;
#X obj 197 261 f;
#X obj 295 264 f;
#X obj 263 263 f;
#X msg 6 287 \; 3a \$1;
#X msg 59 287 \; 3b \$1;
#X msg 111 288 \; 3c \$1;
#X msg 160 289 \; 3d \$1;
#X msg 212 290 \; 3e \$1;
#X msg 265 291 \; 3f \$1;
#X msg 317 292 \; 3g \$1;
#X msg 366 293 \; 3h \$1;
#X msg 418 294 \; 3i \$1;
#X msg 469 293 \; 3j \$1;
#X obj 7 328 sel 0 1 2 3 4 5 6 7 8 9;
#X obj 39 359 f;
#X obj 177 328 t f f f f f f f f f f;
#X obj 7 358 f;
#X obj 102 359 f;
#X obj 70 358 f;
#X obj 167 359 f;
#X obj 135 358 f;
#X obj 230 359 f;
#X obj 198 358 f;
#X obj 296 361 f;
#X obj 264 360 f;
#X obj 386 8 inlet;
#X obj 427 8 inlet;
#X text 468 5 4;
#X msg 7 384 \; 4a \$1;
#X msg 60 384 \; 4b \$1;
#X msg 112 385 \; 4c \$1;
#X msg 161 386 \; 4d \$1;
#X msg 213 387 \; 4e \$1;
#X msg 266 388 \; 4f \$1;
#X msg 318 389 \; 4g \$1;
#X msg 367 390 \; 4h \$1;
#X msg 419 391 \; 4i \$1;
#X msg 470 390 \; 4j \$1;
#X obj 7 423 sel 0 1 2 3 4 5 6 7 8 9;
#X obj 39 454 f;
#X obj 177 423 t f f f f f f f f f f;
#X obj 7 453 f;
#X obj 102 454 f;
#X obj 70 453 f;
#X obj 167 454 f;
#X obj 135 453 f;
#X obj 230 454 f;
#X obj 198 453 f;
#X obj 296 456 f;
#X obj 264 455 f;
#X obj 482 6 inlet;
#X obj 523 6 inlet;
#X text 564 3 5;
#X msg 7 479 \; 5a \$1;
#X msg 60 479 \; 5b \$1;
#X msg 112 480 \; 5c \$1;
#X msg 161 481 \; 5d \$1;
#X msg 213 482 \; 5e \$1;
#X msg 266 483 \; 5f \$1;
#X msg 318 484 \; 5g \$1;
#X msg 367 485 \; 5h \$1;
#X msg 419 486 \; 5i \$1;
#X msg 470 485 \; 5j \$1;
#X obj 525 39 sel 0 1 2 3 4 5 6 7 8 9;
#X obj 557 70 f;
#X obj 695 39 t f f f f f f f f f f;
#X obj 525 69 f;
#X obj 620 70 f;
#X obj 588 69 f;
#X obj 685 70 f;
#X obj 653 69 f;
#X obj 748 70 f;
#X obj 716 69 f;
#X obj 814 72 f;
#X obj 782 71 f;
#X obj 579 4 inlet;
#X obj 620 4 inlet;
#X text 661 1 6;
#X msg 525 95 \; 6a \$1;
#X msg 578 95 \; 6b \$1;
#X msg 630 96 \; 6c \$1;
#X msg 679 97 \; 6d \$1;
#X msg 731 98 \; 6e \$1;
#X msg 784 99 \; 6f \$1;
#X msg 836 100 \; 6g \$1;
#X msg 885 101 \; 6h \$1;
#X msg 937 102 \; 6i \$1;
#X msg 988 101 \; 6j \$1;
#X obj 524 136 sel 0 1 2 3 4 5 6 7 8 9;
#X obj 556 167 f;
#X obj 694 136 t f f f f f f f f f f;
#X obj 524 166 f;
#X obj 619 167 f;
#X obj 587 166 f;
#X obj 684 167 f;
#X obj 652 166 f;
#X obj 747 167 f;
#X obj 715 166 f;
#X obj 813 169 f;
#X obj 781 168 f;
#X obj 680 5 inlet;
#X obj 721 5 inlet;
#X text 762 2 7;
#X msg 524 192 \; 7a \$1;
#X msg 577 192 \; 7b \$1;
#X msg 629 193 \; 7c \$1;
#X msg 678 194 \; 7d \$1;
#X msg 730 195 \; 7e \$1;
#X msg 783 196 \; 7f \$1;
#X msg 835 197 \; 7g \$1;
#X msg 884 198 \; 7h \$1;
#X msg 936 199 \; 7i \$1;
#X msg 987 198 \; 7j \$1;
#X obj 524 233 sel 0 1 2 3 4 5 6 7 8 9;
#X obj 556 264 f;
#X obj 694 233 t f f f f f f f f f f;
#X obj 524 263 f;
#X obj 619 264 f;
#X obj 587 263 f;
#X obj 684 264 f;
#X obj 652 263 f;
#X obj 747 264 f;
#X obj 715 263 f;
#X obj 813 266 f;
#X obj 781 265 f;
#X obj 780 4 inlet;
#X obj 821 4 inlet;
#X text 862 1 8;
#X msg 524 289 \; 8a \$1;
#X msg 577 289 \; 8b \$1;
#X msg 629 290 \; 8c \$1;
#X msg 678 291 \; 8d \$1;
#X msg 730 292 \; 8e \$1;
#X msg 783 293 \; 8f \$1;
#X msg 835 294 \; 8g \$1;
#X msg 884 295 \; 8h \$1;
#X msg 936 296 \; 8i \$1;
#X msg 987 295 \; 8j \$1;
#X obj 877 4 inlet;
#X obj 918 4 inlet;
#X obj 527 333 sel 0 1 2 3 4 5 6 7 8 9;
#X obj 559 364 f;
#X obj 697 333 t f f f f f f f f f f;
#X obj 527 363 f;
#X obj 622 364 f;
#X obj 590 363 f;
#X obj 687 364 f;
#X obj 655 363 f;
#X obj 750 364 f;
#X obj 718 363 f;
#X obj 816 366 f;
#X obj 784 365 f;
#X text 959 1 9;
#X msg 527 389 \; 9a \$1;
#X msg 580 389 \; 9b \$1;
#X msg 632 390 \; 9c \$1;
#X msg 681 391 \; 9d \$1;
#X msg 733 392 \; 9e \$1;
#X msg 786 393 \; 9f \$1;
#X msg 838 394 \; 9g \$1;
#X msg 887 395 \; 9h \$1;
#X msg 939 396 \; 9i \$1;
#X msg 990 395 \; 9j \$1;
#X obj 976 4 inlet;
#X obj 1017 4 inlet;
#X text 1058 1 10;
#X obj 527 428 sel 0 1 2 3 4 5 6 7 8 9;
#X obj 559 459 f;
#X obj 697 428 t f f f f f f f f f f;
#X obj 527 458 f;
#X obj 622 459 f;
#X obj 590 458 f;
#X obj 687 459 f;
#X obj 655 458 f;
#X obj 750 459 f;
#X obj 718 458 f;
#X obj 816 461 f;
#X obj 784 460 f;
#X msg 527 484 \; 10a \$1;
#X msg 580 484 \; 10b \$1;
#X msg 632 485 \; 10c \$1;
#X msg 681 486 \; 10d \$1;
#X msg 733 487 \; 10e \$1;
#X msg 786 488 \; 10f \$1;
#X msg 838 489 \; 10g \$1;
#X msg 887 490 \; 10h \$1;
#X msg 939 491 \; 10i \$1;
#X msg 990 490 \; 10j \$1;
#X connect 0 0 1 0;
#X connect 1 0 5 0;
#X connect 1 1 3 0;
#X connect 1 2 7 0;
#X connect 1 3 6 0;
#X connect 1 4 9 0;
#X connect 1 5 8 0;
#X connect 1 6 11 0;
#X connect 1 7 10 0;
#X connect 1 8 13 0;
#X connect 1 9 12 0;
#X connect 2 0 4 0;
#X connect 3 0 15 0;
#X connect 4 0 5 1;
#X connect 4 1 3 1;
#X connect 4 2 7 1;
#X connect 4 3 6 1;
#X connect 4 4 9 1;
#X connect 4 5 8 1;
#X connect 4 6 11 1;
#X connect 4 7 10 1;
#X connect 4 8 13 1;
#X connect 4 9 12 1;
#X connect 5 0 14 0;
#X connect 6 0 17 0;
#X connect 7 0 16 0;
#X connect 8 0 19 0;
#X connect 9 0 18 0;
#X connect 10 0 21 0;
#X connect 11 0 20 0;
#X connect 12 0 23 0;
#X connect 13 0 22 0;
#X connect 26 0 27 0;
#X connect 27 0 31 0;
#X connect 27 1 29 0;
#X connect 27 2 33 0;
#X connect 27 3 32 0;
#X connect 27 4 35 0;
#X connect 27 5 34 0;
#X connect 27 6 37 0;
#X connect 27 7 36 0;
#X connect 27 8 39 0;
#X connect 27 9 38 0;
#X connect 28 0 30 0;
#X connect 29 0 41 0;
#X connect 30 0 31 1;
#X connect 30 1 29 1;
#X connect 30 2 33 1;
#X connect 30 3 32 1;
#X connect 30 4 35 1;
#X connect 30 5 34 1;
#X connect 30 6 37 1;
#X connect 30 7 36 1;
#X connect 30 8 39 1;
#X connect 30 9 38 1;
#X connect 31 0 40 0;
#X connect 32 0 43 0;
#X connect 33 0 42 0;
#X connect 34 0 45 0;
#X connect 35 0 44 0;
#X connect 36 0 47 0;
#X connect 37 0 46 0;
#X connect 38 0 49 0;
#X connect 39 0 48 0;
#X connect 51 0 54 0;
#X connect 52 0 56 0;
#X connect 54 0 57 0;
#X connect 54 1 55 0;
#X connect 54 2 59 0;
#X connect 54 3 58 0;
#X connect 54 4 61 0;
#X connect 54 5 60 0;
#X connect 54 6 63 0;
#X connect 54 7 62 0;
#X connect 54 8 65 0;
#X connect 54 9 64 0;
#X connect 55 0 67 0;
#X connect 56 0 57 1;
#X connect 56 1 55 1;
#X connect 56 2 59 1;
#X connect 56 3 58 1;
#X connect 56 4 61 1;
#X connect 56 5 60 1;
#X connect 56 6 63 1;
#X connect 56 7 62 1;
#X connect 56 8 65 1;
#X connect 56 9 64 1;
#X connect 57 0 66 0;
#X connect 58 0 69 0;
#X connect 59 0 68 0;
#X connect 60 0 71 0;
#X connect 61 0 70 0;
#X connect 62 0 73 0;
#X connect 63 0 72 0;
#X connect 64 0 75 0;
#X connect 65 0 74 0;
#X connect 76 0 79 0;
#X connect 76 1 77 0;
#X connect 76 2 81 0;
#X connect 76 3 80 0;
#X connect 76 4 83 0;
#X connect 76 5 82 0;
#X connect 76 6 85 0;
#X connect 76 7 84 0;
#X connect 76 8 87 0;
#X connect 76 9 86 0;
#X connect 77 0 92 0;
#X connect 78 0 79 1;
#X connect 78 1 77 1;
#X connect 78 2 81 1;
#X connect 78 3 80 1;
#X connect 78 4 83 1;
#X connect 78 5 82 1;
#X connect 78 6 85 1;
#X connect 78 7 84 1;
#X connect 78 8 87 1;
#X connect 78 9 86 1;
#X connect 79 0 91 0;
#X connect 80 0 94 0;
#X connect 81 0 93 0;
#X connect 82 0 96 0;
#X connect 83 0 95 0;
#X connect 84 0 98 0;
#X connect 85 0 97 0;
#X connect 86 0 100 0;
#X connect 87 0 99 0;
#X connect 88 0 76 0;
#X connect 89 0 78 0;
#X connect 101 0 104 0;
#X connect 101 1 102 0;
#X connect 101 2 106 0;
#X connect 101 3 105 0;
#X connect 101 4 108 0;
#X connect 101 5 107 0;
#X connect 101 6 110 0;
#X connect 101 7 109 0;
#X connect 101 8 112 0;
#X connect 101 9 111 0;
#X connect 102 0 117 0;
#X connect 103 0 104 1;
#X connect 103 1 102 1;
#X connect 103 2 106 1;
#X connect 103 3 105 1;
#X connect 103 4 108 1;
#X connect 103 5 107 1;
#X connect 103 6 110 1;
#X connect 103 7 109 1;
#X connect 103 8 112 1;
#X connect 103 9 111 1;
#X connect 104 0 116 0;
#X connect 105 0 119 0;
#X connect 106 0 118 0;
#X connect 107 0 121 0;
#X connect 108 0 120 0;
#X connect 109 0 123 0;
#X connect 110 0 122 0;
#X connect 111 0 125 0;
#X connect 112 0 124 0;
#X connect 113 0 101 0;
#X connect 114 0 103 0;
#X connect 126 0 129 0;
#X connect 126 1 127 0;
#X connect 126 2 131 0;
#X connect 126 3 130 0;
#X connect 126 4 133 0;
#X connect 126 5 132 0;
#X connect 126 6 135 0;
#X connect 126 7 134 0;
#X connect 126 8 137 0;
#X connect 126 9 136 0;
#X connect 127 0 142 0;
#X connect 128 0 129 1;
#X connect 128 1 127 1;
#X connect 128 2 131 1;
#X connect 128 3 130 1;
#X connect 128 4 133 1;
#X connect 128 5 132 1;
#X connect 128 6 135 1;
#X connect 128 7 134 1;
#X connect 128 8 137 1;
#X connect 128 9 136 1;
#X connect 129 0 141 0;
#X connect 130 0 144 0;
#X connect 131 0 143 0;
#X connect 132 0 146 0;
#X connect 133 0 145 0;
#X connect 134 0 148 0;
#X connect 135 0 147 0;
#X connect 136 0 150 0;
#X connect 137 0 149 0;
#X connect 138 0 126 0;
#X connect 139 0 128 0;
#X connect 151 0 154 0;
#X connect 151 1 152 0;
#X connect 151 2 156 0;
#X connect 151 3 155 0;
#X connect 151 4 158 0;
#X connect 151 5 157 0;
#X connect 151 6 160 0;
#X connect 151 7 159 0;
#X connect 151 8 162 0;
#X connect 151 9 161 0;
#X connect 152 0 167 0;
#X connect 153 0 154 1;
#X connect 153 1 152 1;
#X connect 153 2 156 1;
#X connect 153 3 155 1;
#X connect 153 4 158 1;
#X connect 153 5 157 1;
#X connect 153 6 160 1;
#X connect 153 7 159 1;
#X connect 153 8 162 1;
#X connect 153 9 161 1;
#X connect 154 0 166 0;
#X connect 155 0 169 0;
#X connect 156 0 168 0;
#X connect 157 0 171 0;
#X connect 158 0 170 0;
#X connect 159 0 173 0;
#X connect 160 0 172 0;
#X connect 161 0 175 0;
#X connect 162 0 174 0;
#X connect 163 0 151 0;
#X connect 164 0 153 0;
#X connect 176 0 179 0;
#X connect 176 1 177 0;
#X connect 176 2 181 0;
#X connect 176 3 180 0;
#X connect 176 4 183 0;
#X connect 176 5 182 0;
#X connect 176 6 185 0;
#X connect 176 7 184 0;
#X connect 176 8 187 0;
#X connect 176 9 186 0;
#X connect 177 0 192 0;
#X connect 178 0 179 1;
#X connect 178 1 177 1;
#X connect 178 2 181 1;
#X connect 178 3 180 1;
#X connect 178 4 183 1;
#X connect 178 5 182 1;
#X connect 178 6 185 1;
#X connect 178 7 184 1;
#X connect 178 8 187 1;
#X connect 178 9 186 1;
#X connect 179 0 191 0;
#X connect 180 0 194 0;
#X connect 181 0 193 0;
#X connect 182 0 196 0;
#X connect 183 0 195 0;
#X connect 184 0 198 0;
#X connect 185 0 197 0;
#X connect 186 0 200 0;
#X connect 187 0 199 0;
#X connect 188 0 176 0;
#X connect 189 0 178 0;
#X connect 201 0 203 0;
#X connect 202 0 205 0;
#X connect 203 0 206 0;
#X connect 203 1 204 0;
#X connect 203 2 208 0;
#X connect 203 3 207 0;
#X connect 203 4 210 0;
#X connect 203 5 209 0;
#X connect 203 6 212 0;
#X connect 203 7 211 0;
#X connect 203 8 214 0;
#X connect 203 9 213 0;
#X connect 204 0 217 0;
#X connect 205 0 206 1;
#X connect 205 1 204 1;
#X connect 205 2 208 1;
#X connect 205 3 207 1;
#X connect 205 4 210 1;
#X connect 205 5 209 1;
#X connect 205 6 212 1;
#X connect 205 7 211 1;
#X connect 205 8 214 1;
#X connect 205 9 213 1;
#X connect 206 0 216 0;
#X connect 207 0 219 0;
#X connect 208 0 218 0;
#X connect 209 0 221 0;
#X connect 210 0 220 0;
#X connect 211 0 223 0;
#X connect 212 0 222 0;
#X connect 213 0 225 0;
#X connect 214 0 224 0;
#X connect 226 0 229 0;
#X connect 227 0 231 0;
#X connect 229 0 232 0;
#X connect 229 1 230 0;
#X connect 229 2 234 0;
#X connect 229 3 233 0;
#X connect 229 4 236 0;
#X connect 229 5 235 0;
#X connect 229 6 238 0;
#X connect 229 7 237 0;
#X connect 229 8 240 0;
#X connect 229 9 239 0;
#X connect 230 0 242 0;
#X connect 231 0 232 1;
#X connect 231 1 230 1;
#X connect 231 2 234 1;
#X connect 231 3 233 1;
#X connect 231 4 236 1;
#X connect 231 5 235 1;
#X connect 231 6 238 1;
#X connect 231 7 237 1;
#X connect 231 8 240 1;
#X connect 231 9 239 1;
#X connect 232 0 241 0;
#X connect 233 0 244 0;
#X connect 234 0 243 0;
#X connect 235 0 246 0;
#X connect 236 0 245 0;
#X connect 237 0 248 0;
#X connect 238 0 247 0;
#X connect 239 0 250 0;
#X connect 240 0 249 0;
