#N canvas 385 385 3840 2065 12;
#X obj 27 45 inlet~;
#X obj 166 69 env~ 1024;
#X obj 219 132 dbtorms;
#X obj 201 217 outlet~;
#X obj 201 196 *~;
#X obj 219 175 line~;
#X msg 219 154 \$1 20;
#X text 27 16 3.9.1.1. Limiter 3;
#X text 169 35 www.pd-tutorial.com;
#X text 178 10 Johannes Kreidler;
#X obj 27 69 delwrite~ lim\$0 100;
#X obj 166 90 moses 85;
#X obj 219 111 expr ((($f1 - 85) / 10) - $f1 + 85) + 100;
#X obj 27 90 delread~ lim\$0 100;
#X msg 166 112 1 20;
#X connect 0 0 1 0;
#X connect 0 0 10 0;
#X connect 1 0 11 0;
#X connect 2 0 6 0;
#X connect 4 0 3 0;
#X connect 5 0 4 1;
#X connect 6 0 5 0;
#X connect 11 0 14 0;
#X connect 11 1 12 0;
#X connect 12 0 2 0;
#X connect 13 0 4 0;
#X connect 14 0 5 0;
