#N canvas 1900 0 1920 1016 12;
#X obj 90 273 f;
#X obj 90 318 t f f;
#X obj 90 340 != 1;
#X obj 12 27 inlet;
#X obj 54 27 inlet;
#X obj 236 27 inlet;
#X text 246 8 DB;
#X text 23 8 DF;
#X text 65 6 s;
#X obj 9 449 outlet;
#X obj 107 449 outlet;
#X obj 156 449 outlet;
#X text 21 468 DB;
#X text 120 467 DF;
#X text 168 468 s;
#X obj 90 251 sel 1;
#X obj 58 229 t f f;
#X obj 96 27 inlet;
#X text 95 6 mode;
#X obj 96 48 t f f f;
#X obj 49 69 == 0;
#X obj 119 69 == 1;
#X obj 159 69 == 2;
#X obj 60 154 spigot;
#X obj 10 154 spigot;
#X obj 58 449 outlet;
#X text 62 466 lamp;
#X obj 120 132 spigot;
#X obj 168 132 spigot;
#X obj 224 276 sel 1;
#X obj 210 232 t f f;
#X obj 224 298 t b b;
#X obj 224 254 f;
#X obj 210 204 spigot;
#X obj 161 204 spigot;
#X obj 194 27 inlet;
#X text 203 6 rs;
#X obj 194 69 f;
#X obj 194 48 sel 1;
#X obj 49 132 t f f f f;
#X obj 109 154 sel 1;
#X msg 109 176 1;
#X obj 236 48 t f f;
#X obj 216 132 spigot;
#X obj 278 27 r ON;
#X obj 278 48 sel 0;
#X msg 278 69 0;
#X obj 112 204 spigot;
#X obj 90 296 t f f;
#X obj 110 417 t f f b;
#X obj 194 90 t f f;
#X obj 151 182 t f f f;
#X obj 159 111 t f f f;
#X obj 90 362 t f f;
#X obj 110 396 spigot;
#X obj 119 90 t f f;
#X obj 119 111 == 0;
#X connect 0 0 48 0;
#X connect 1 0 2 0;
#X connect 1 1 10 0;
#X connect 2 0 53 0;
#X connect 3 0 23 0;
#X connect 3 0 28 0;
#X connect 3 0 33 0;
#X connect 4 0 27 0;
#X connect 4 0 34 0;
#X connect 5 0 42 0;
#X connect 15 0 0 0;
#X connect 16 0 9 0;
#X connect 16 1 15 0;
#X connect 17 0 19 0;
#X connect 19 0 20 0;
#X connect 19 1 21 0;
#X connect 19 2 22 0;
#X connect 20 0 39 0;
#X connect 21 0 55 0;
#X connect 22 0 52 0;
#X connect 23 0 16 0;
#X connect 24 0 0 1;
#X connect 27 0 0 0;
#X connect 28 0 0 1;
#X connect 29 0 31 0;
#X connect 30 0 9 0;
#X connect 30 1 32 1;
#X connect 31 0 11 0;
#X connect 31 1 0 0;
#X connect 32 0 29 0;
#X connect 33 0 30 0;
#X connect 34 0 32 0;
#X connect 35 0 38 0;
#X connect 37 0 50 0;
#X connect 38 0 37 0;
#X connect 39 0 24 1;
#X connect 39 1 23 1;
#X connect 39 2 37 1;
#X connect 39 3 40 0;
#X connect 40 0 41 0;
#X connect 41 0 42 0;
#X connect 42 0 43 0;
#X connect 42 1 24 0;
#X connect 43 0 9 0;
#X connect 44 0 45 0;
#X connect 45 0 46 0;
#X connect 46 0 0 0;
#X connect 47 0 1 0;
#X connect 48 0 47 0;
#X connect 48 1 54 0;
#X connect 49 0 10 0;
#X connect 49 1 25 0;
#X connect 49 2 11 0;
#X connect 50 0 25 0;
#X connect 50 1 0 1;
#X connect 51 0 47 1;
#X connect 51 1 34 1;
#X connect 51 2 33 1;
#X connect 52 0 27 1;
#X connect 52 1 28 1;
#X connect 52 2 43 1;
#X connect 53 0 25 0;
#X connect 53 1 0 1;
#X connect 54 0 49 0;
#X connect 55 0 56 0;
#X connect 55 1 51 0;
#X connect 56 0 54 1;
