#N canvas -10 0 1516 1004 12;
#X obj 202 204 mode, f 14;
#X obj 457 207 mode, f 14;
#X obj 597 208 mode, f 14;
#X obj 130 96 tgl 19 0 empty empty empty 0 -10 0 12 #fcfcfc #000000 #000000 0 1;
#X obj 130 144 tgl 19 0 empty empty empty 0 -10 0 12 #fcfcfc #000000 #000000 0 1;
#X obj 130 120 metro 500;
#X msg 166 81 2000;
#X msg 208 81 1000;
#X obj 274 119 vradio 19 1 0 3 empty empty empty 0 -10 0 12 #fcfcfc #000000 #000000 0;
#X obj 297 255 tgl 25 0 empty empty empty 0 -10 0 12 #00faff #000000 #000000 0 1;
#X obj 552 258 tgl 25 0 empty empty empty 0 -10 0 12 #00faff #000000 #000000 0 1;
#X obj 692 252 tgl 25 0 empty empty empty 0 -10 0 12 #00faff #000000 #000000 0 1;
#X obj 249 254 tgl 25 0 empty empty empty 0 -10 0 12 #faff00 #000000 #000000 0 1;
#X obj 491 258 tgl 25 0 empty empty empty 0 -10 0 12 #faff00 #000000 #000000 0 1;
#X obj 637 251 tgl 25 0 empty empty empty 0 -10 0 12 #faff00 #000000 #000000 0 1;
#X obj 534 121 vradio 19 1 0 3 empty empty empty 0 -10 0 12 #fcfcfc #000000 #000000 0;
#X obj 670 120 vradio 19 1 0 3 empty empty empty 0 -10 0 12 #fcfcfc #000000 #000000 0;
#X floatatom 293 180 5 0 0 0 - - - 0;
#X obj 430 92 tgl 19 0 empty empty empty 0 -10 0 12 #fcfcfc #000000 #000000 0 1;
#X obj 430 140 tgl 19 0 empty empty empty 0 -10 0 12 #fcfcfc #000000 #000000 0 1;
#X obj 430 116 metro 500;
#X msg 466 77 2000;
#X msg 508 77 1000;
#X connect 0 2 12 0;
#X connect 0 5 9 0;
#X connect 1 2 13 0;
#X connect 1 3 2 1;
#X connect 1 4 2 2;
#X connect 1 5 2 0;
#X connect 1 5 10 0;
#X connect 2 0 1 4;
#X connect 2 2 14 0;
#X connect 2 5 11 0;
#X connect 3 0 5 0;
#X connect 4 0 0 0;
#X connect 4 0 0 1;
#X connect 4 0 0 2;
#X connect 5 0 4 0;
#X connect 6 0 5 1;
#X connect 7 0 5 1;
#X connect 8 0 17 0;
#X connect 8 0 0 3;
#X connect 15 0 1 3;
#X connect 16 0 2 3;
#X connect 17 0 0 4;
#X connect 18 0 20 0;
#X connect 19 0 1 0;
#X connect 19 0 1 1;
#X connect 19 0 1 2;
#X connect 20 0 19 0;
#X connect 21 0 20 1;
#X connect 22 0 20 1;
