#N canvas 193 62 1920 1016 12;
#X obj 146 68 inlet J;
#X obj 331 67 inlet K;
#X obj 227 66 inlet CLK;
#X obj 291 335 outlet Q;
#X obj 173 335 outlet !Q;
#X obj 165 198 expr if ($f1 == $f2 \, if ($f1 == 0 \, if ($f3 == 1 \, 1 \, 0) \, if ($f3 == 1 \, 0 \, 1)) \, if ($f1 == 0 \, 0 \, 1));
#X obj 205 98 bang;
#X obj 115 259 f;
#X obj 268 257 f;
#X obj 177 303 != 1;
#X obj 334 157 t b f;
#X obj 536 158 t b f;
#X obj 108 300 bng 19 250 50 0 empty empty empty 0 -10 0 12 #fcfcfc #000000 #000000;
#X obj 356 288 bng 19 250 50 0 empty empty empty 0 -10 0 12 #fcfcfc #000000 #000000;
#X floatatom 268 281 5 0 0 0 - - - 0;
#X floatatom 146 92 5 0 0 0 - - - 0;
#X floatatom 331 91 5 0 0 0 - - - 0;
#X obj 137 337 bng 19 250 50 0 empty empty empty 0 -10 0 12 #fcfcfc #000000 #000000;
#X floatatom 138 381 5 0 0 0 - - - 0;
#X obj 536 182 bng 19 250 50 0 empty empty empty 0 -10 0 12 #fcfcfc #000000 #000000;
#X obj 286 147 bng 19 250 50 0 empty empty empty 0 -10 0 12 #fcfcfc #000000 #000000;
#X obj 205 125 bng 19 250 50 0 empty empty empty 0 -10 0 12 #fcfcfc #000000 #000000;
#X obj 243 99 sel 1;
#X obj 240 125 bng 19 250 50 0 empty empty empty 0 -10 0 12 #fcfcfc #000000 #000000;
#X connect 0 0 5 0;
#X connect 0 0 15 0;
#X connect 1 0 10 0;
#X connect 1 0 16 0;
#X connect 2 0 6 0;
#X connect 2 0 22 0;
#X connect 5 0 7 1;
#X connect 5 0 8 0;
#X connect 6 0 21 0;
#X connect 7 0 11 0;
#X connect 7 0 12 0;
#X connect 8 0 3 0;
#X connect 8 0 9 0;
#X connect 8 0 13 0;
#X connect 8 0 14 0;
#X connect 9 0 4 0;
#X connect 9 0 17 0;
#X connect 9 0 18 0;
#X connect 10 0 5 0;
#X connect 10 0 20 0;
#X connect 10 1 5 1;
#X connect 11 0 5 0;
#X connect 11 0 19 0;
#X connect 11 1 5 2;
#X connect 22 0 23 0;
#X connect 23 0 7 0;
#X connect 23 0 5 0;
