#N canvas 152 152 1920 1016 12;
#X obj 242 224 expr if ($f1 == $f2 \, if ($f1 == 0 \, if ($f3 == 1 \, 1 \, 0) \, if ($f3 == 1 \, 0 \, 1)) \, if ($f1 == 0 \, 0 \, 1));
#X obj 245 161 tgl 19 0 empty empty empty 0 -10 0 12 #fcfcfc #000000 #000000 0 1;
#X obj 406 172 t b f;
#X obj 406 142 tgl 19 0 empty empty empty 0 -10 0 12 #fcfcfc #000000 #000000 0 1;
#X floatatom 243 305 5 0 0 0 - - - 0;
#X obj 225 345 f;
#X obj 609 181 t b f;
#X obj 609 151 tgl 19 0 empty empty empty 0 -10 0 12 #fcfcfc #000000 #000000 0 1;
#X obj 212 162 bng 19 250 50 0 empty empty empty 0 -10 0 12 #fcfcfc #000000 #000000;
#X floatatom 223 384 5 0 0 0 - - - 0;
#X connect 0 0 4 0;
#X connect 1 0 0 0;
#X connect 2 0 0 0;
#X connect 2 1 0 1;
#X connect 3 0 2 0;
#X connect 4 0 5 1;
#X connect 5 0 7 0;
#X connect 5 0 9 0;
#X connect 6 0 0 0;
#X connect 6 1 0 2;
#X connect 7 0 6 0;
#X connect 8 0 5 0;
#X connect 8 0 0 0;
