#N canvas 949 -11 960 1016 12;
#X text 20 14 J=K=0 \, ingen 채ndring \, Q o !Q;
#X text 21 40 J=1 \, K=0 \, s채tts Q till 1 \, !Q s채tts till 0;
#X text 20 77 J=0 \, K=1 \, Q s채tts till 0 \, !Q till 1;
#X text 19 107 J=K=1 togglar \, Q=1 \, !Q=0;
#X obj 29 183 tgl 19 0 empty empty empty 0 -10 0 12 #fcfcfc #000000 #000000 0 1;
#X obj 225 166 tgl 19 0 empty empty empty 0 -10 0 12 #fcfcfc #000000 #000000 0 1;
#X obj 225 190 t b f;
#X floatatom 28 257 5 0 0 0 - - - 0;
#X obj 28 233 expr if ($f1 == 0 && $f2 == 0 \, 2 \, 3);
#X obj 326 184 tgl 19 0 empty empty empty 0 -10 0 12 #fcfcfc #000000 #000000 0 1;
#X obj 522 167 tgl 19 0 empty empty empty 0 -10 0 12 #fcfcfc #000000 #000000 0 1;
#X obj 522 191 t b f;
#X floatatom 325 258 5 0 0 0 - - - 0;
#X obj 325 234 expr if ($f1 == 1 && $f2 == 0 \, 4 \, 5);
#X obj 36 309 tgl 19 0 empty empty empty 0 -10 0 12 #fcfcfc #000000 #000000 0 1;
#X obj 232 292 tgl 19 0 empty empty empty 0 -10 0 12 #fcfcfc #000000 #000000 0 1;
#X obj 232 316 t b f;
#X floatatom 35 383 5 0 0 0 - - - 0;
#X obj 35 359 expr if ($f1 == 0 && $f2 == 1 \, 6 \, 7);
#X obj 431 528 tgl 19 0 empty empty empty 0 -10 0 12 #fcfcfc #000000 #000000 0 1;
#X obj 530 290 tgl 19 0 empty empty empty 0 -10 0 12 #fcfcfc #000000 #000000 0 1;
#X obj 530 314 t b f;
#X floatatom 430 602 5 0 0 0 - - - 0;
#X obj 432 564 expr if ($f1 == 1 && $f2 == 1 \, 8 \, 9);
#X obj 40 427 tgl 19 0 empty empty empty 0 -10 0 12 #fcfcfc #000000 #000000 0 1;
#X obj 129 415 tgl 19 0 empty empty empty 0 -10 0 12 #fcfcfc #000000 #000000 0 1;
#X obj 129 439 t b f;
#X floatatom 50 577 5 0 0 0 - - - 0;
#X obj 258 439 t b f;
#X obj 53 605 f;
#X obj 40 487 expr if ($f1 == 0 && $f2 == 0 \, -$f3 \, 7) \; if ($f1 == 1 && $f2 == 0 \, 1 \, 56) \; if ($f1 == 0 && $f2 == 1 \, 0 \, 45) \; if ($f1 == 1 && $f2 == 1 \, if($f3 == 1 \, 0 \, 1) \, 99);
#X floatatom 151 573 5 0 0 0 - - - 0;
#X obj 154 601 f;
#X floatatom 266 573 5 0 0 0 - - - 0;
#X obj 269 601 f;
#X floatatom 361 575 5 0 0 0 - - - 0;
#X obj 364 603 f;
#X connect 4 0 8 0;
#X connect 5 0 6 0;
#X connect 6 0 8 0;
#X connect 6 1 8 1;
#X connect 8 0 7 0;
#X connect 9 0 13 0;
#X connect 10 0 11 0;
#X connect 11 0 13 0;
#X connect 11 1 13 1;
#X connect 13 0 12 0;
#X connect 14 0 18 0;
#X connect 15 0 16 0;
#X connect 16 0 18 0;
#X connect 16 1 18 1;
#X connect 18 0 17 0;
#X connect 19 0 23 0;
#X connect 20 0 21 0;
#X connect 21 0 23 0;
#X connect 21 1 23 1;
#X connect 23 0 22 0;
#X connect 24 0 30 0;
#X connect 25 0 26 0;
#X connect 26 0 29 0;
#X connect 26 0 30 0;
#X connect 26 0 32 0;
#X connect 26 0 34 0;
#X connect 26 0 36 0;
#X connect 26 1 30 1;
#X connect 27 0 29 1;
#X connect 28 0 30 0;
#X connect 28 1 30 2;
#X connect 29 0 28 0;
#X connect 30 0 27 0;
#X connect 30 1 31 0;
#X connect 30 2 33 0;
#X connect 30 3 35 0;
#X connect 31 0 32 1;
#X connect 32 0 28 0;
#X connect 33 0 34 1;
#X connect 34 0 28 0;
#X connect 35 0 36 1;
#X connect 36 0 28 0;
