#N canvas 38 38 1920 1016 12;
#X obj 317 177 JK, f 10;
#X obj 386 122 tgl 19 0 empty empty empty 0 -10 0 12 #fcfcfc #000000 #000000 0 1;
#X obj 347 90 metro 500;
#X obj 347 114 tgl 19 0 empty empty empty 0 -10 0 12 #fcfcfc #000000 #000000 0 1;
#X obj 346 47 tgl 19 0 empty empty empty 0 -10 0 12 #fcfcfc #000000 #000000 0 1;
#X obj 313 122 tgl 19 0 empty empty empty 0 -10 0 12 #fcfcfc #000000 #000000 0 1;
#X obj 364 223 tgl 19 0 empty empty empty 0 -10 0 12 #fcfcfc #000000 #000000 0 1;
#X obj 326 223 tgl 19 0 empty empty empty 0 -10 0 12 #fcfcfc #000000 #000000 0 1;
#X msg 385 46 2000;
#X msg 428 46 1000;
#X msg 471 46 500;
#X msg 509 45 100;
#X connect 0 0 7 0;
#X connect 0 1 6 0;
#X connect 1 0 0 2;
#X connect 2 0 3 0;
#X connect 3 0 0 1;
#X connect 4 0 2 0;
#X connect 5 0 0 0;
#X connect 8 0 2 1;
#X connect 9 0 2 1;
#X connect 10 0 2 1;
#X connect 11 0 2 1;
