#N canvas 1258 -37 1920 1016 12;
#X obj 68 21 tgl 19 0 empty empty empty 0 -10 0 12 #fcfcfc #000000 #000000 0 1;
#X obj 111 18 tgl 19 0 empty empty empty 0 -10 0 12 #fcfcfc #000000 #000000 0 1;
#X obj 111 42 t b f;
#X floatatom 76 253 5 0 0 0 - - - 0;
#X obj 201 17 t b f;
#X obj 79 281 f;
#X floatatom 185 258 5 0 0 0 - - - 0;
#X obj 188 286 f;
#X floatatom 300 258 5 0 0 0 - - - 0;
#X obj 303 286 f;
#X floatatom 395 260 5 0 0 0 - - - 0;
#X obj 398 288 f;
#X obj 316 5 bng 19 250 50 0 empty empty empty 0 -10 0 12 #fcfcfc #000000 #000000;
#X floatatom 398 312 5 0 0 0 - - - 0;
#X floatatom 220 48 5 0 0 0 - - - 0;
#X obj 73 115 expr if ($f1 == 0 && $f2 == 0 \, if ($f3 == 1 \, 1 \, 0) \, 0) \; if ($f1 == 1 && $f2 == 0 \, 1 \, 0) \; if ($f1 == 0 && $f2 == 1 \, 0 \, 1) \; if ($f1 == 1 && $f2 == 1 \, if($f3 == 1 \, 0 \, 1) \, 1);
#X connect 0 0 15 0;
#X connect 1 0 2 0;
#X connect 2 0 15 0;
#X connect 2 1 15 1;
#X connect 3 0 5 1;
#X connect 4 0 15 0;
#X connect 4 1 14 0;
#X connect 4 1 15 2;
#X connect 5 0 4 0;
#X connect 6 0 7 1;
#X connect 8 0 9 1;
#X connect 10 0 11 1;
#X connect 11 0 13 0;
#X connect 12 0 11 0;
#X connect 12 0 9 0;
#X connect 12 0 7 0;
#X connect 12 0 5 0;
#X connect 12 0 15 0;
#X connect 15 0 3 0;
#X connect 15 1 6 0;
#X connect 15 2 8 0;
#X connect 15 3 10 0;
