#N canvas 1916 0 1920 1026 12;
#X obj 2 2 inlet lamp;
#X obj 78 2 inlet freq;
#X obj 154 2 inlet indgain;
#X obj 252 2 inlet unpack;
#X obj 17 622 outlet~;
#X obj 260 23 unpack f f f f f f f f f f;
#X text 350 3 hpf \, d \, lpf \, sq \, bpf \, mod \, vib;
#X obj 405 266 *~;
#X obj 495 266 *~;
#X obj 585 266 *~;
#X obj 676 266 *~;
#X obj 585 332 +~;
#X obj 404 333 +~;
#X obj 404 355 *~;
#X obj 585 354 *~;
#X obj 431 333 r high;
#X obj 612 332 r low;
#X obj 405 243 *~;
#X obj 423 220 vline~;
#X msg 424 198 1 \$1;
#X msg 452 153 0.3 \$1;
#X obj 424 175 f;
#X obj 424 153 del;
#X obj 401 130 t f f f;
#X floatatom 369 88 5 0 0 0 - - - 0;
#X obj 382 153 metro;
#X obj 369 108 t f f;
#X obj 369 130 * 2;
#X obj 369 67 f;
#X obj 419 45 t f f;
#X obj 451 66 sel 1;
#X obj 451 87 t b b;
#X obj 410 66 sel 0;
#X obj 410 87 t b b;
#X msg 442 108 0;
#X msg 410 108 1;
#X obj 369 46 r mod;
#X obj 11 410 *~;
#X obj 38 410 *~;
#X obj 46 494 *~;
#X obj 82 409 *~;
#X obj 38 453 r hpf;
#X obj 220 584 r lpf;
#X obj 155 558 r sq;
#X obj 11 453 *~;
#X obj 193 584 *~;
#X obj 11 431 hip~ 6500;
#X obj 193 562 lop~ 2400;
#X obj 46 515 lop~ 400;
#X obj 46 536 lop~ 800;
#X obj 128 495 mtof;
#X obj 128 516 / 2;
#X text 716 9 make signal 1 octave lower;
#X obj 82 431 delwrite~ octave\$0 40;
#X obj 82 453 sigmund~ -npts 2048;
#X obj 82 474 moses 1;
#X obj 128 537 osc~;
#X obj 128 558 *~;
#X obj 162 516 expr 1000*1024/$f1;
#X obj 162 495 samplerate~;
#X obj 162 537 delread~ octave\$0;
#X obj 128 580 *~;
#X text 577 3 HPF: 6.5 or 4k?;
#X text 106 411 freq cleaver*;
#X text 716 25 *from E03.octave.divider.pd;
#X text 465 42 mod On/Off;
#X text 346 93 mod speed;
#X text 524 22 BP Q at 30... set at 1.4;
#X obj 405 288 bp~ 6400 1.4;
#X obj 405 309 bp~ 400 1.4;
#X obj 495 288 bp~ 3200 1.4;
#X obj 495 309 bp~ 200 1.4;
#X obj 585 288 bp~ 1600 1.4;
#X obj 585 309 bp~ 100 1.4;
#X obj 675 288 bp~ 800 1.4;
#X obj 675 309 bp~ 50 1.4;
#X obj 59 359 *~;
#X obj 2 44 line~;
#X obj 2 23 pack 0 30;
#X obj 59 383 *~;
#X obj 105 26 r grov;
#X msg 107 112 2;
#X obj 106 133 pow;
#X obj 105 90 t b f;
#X obj 105 69 +;
#X obj 105 48 t b f;
#X obj 77 312 phasor~;
#X obj 77 334 expr~ $v1 > 0.5;
#X obj 156 25 loadbang;
#X obj 156 47 t b b b b;
#X obj 52 136 t f f;
#X obj 72 245 pack f f;
#X obj 134 245 pack f f;
#X obj 93 223 t b f;
#X obj 155 223 t b f;
#X obj 134 289 vline~;
#X listbox 72 267 8 0 0 0 - - - 0;
#X listbox 134 266 13 0 0 0 - - - 0;
#X obj 153 92 == 1;
#X obj 187 92 == 0;
#X obj 3 115 spigot;
#X obj 3 69 t f f;
#X obj 3 136 sig~;
#X obj 52 115 spigot;
#X obj 93 200 t f f f;
#X obj 134 313 *~;
#X obj 3 158 *~;
#X obj 3 91 f;
#X obj 35 91 f;
#X obj 93 179 r vib;
#X msg 221 71 0;
#X obj 153 71 t f f f;
#X obj 182 289 t f b f;
#X obj 31 158 t f b f;
#X obj 89 158 expr $f1 * pow(2 \, $f2);
#X msg 241 116 5;
#X obj 241 137 / 120;
#X obj 221 92 t f f b;
#X obj 312 237 t f f;
#X obj 311 309 delay;
#X obj 344 260 / 2;
#X obj 269 332 metro;
#X obj 311 332 metro;
#X obj 312 283 t f f;
#X obj 266 190 t f b;
#X connect 0 0 78 0;
#X connect 1 0 84 0;
#X connect 2 0 79 1;
#X connect 3 0 5 0;
#X connect 5 0 37 1;
#X connect 5 1 38 1;
#X connect 5 2 39 1;
#X connect 5 3 40 1;
#X connect 5 4 7 1;
#X connect 5 5 8 1;
#X connect 5 6 9 1;
#X connect 5 7 10 1;
#X connect 5 8 29 0;
#X connect 5 9 111 0;
#X connect 7 0 68 0;
#X connect 7 0 69 0;
#X connect 8 0 70 0;
#X connect 8 0 71 0;
#X connect 9 0 72 0;
#X connect 9 0 73 0;
#X connect 10 0 74 0;
#X connect 10 0 75 0;
#X connect 11 0 14 0;
#X connect 12 0 13 0;
#X connect 13 0 4 0;
#X connect 14 0 4 0;
#X connect 15 0 13 1;
#X connect 16 0 14 1;
#X connect 17 0 7 0;
#X connect 17 0 8 0;
#X connect 17 0 9 0;
#X connect 17 0 10 0;
#X connect 18 0 17 1;
#X connect 19 0 18 0;
#X connect 20 0 18 0;
#X connect 21 0 19 0;
#X connect 22 0 21 0;
#X connect 23 0 21 1;
#X connect 23 1 22 0;
#X connect 23 2 20 0;
#X connect 24 0 26 0;
#X connect 25 0 24 0;
#X connect 26 0 27 0;
#X connect 26 1 23 0;
#X connect 27 0 25 1;
#X connect 28 0 24 0;
#X connect 29 0 32 0;
#X connect 29 1 30 0;
#X connect 30 0 31 0;
#X connect 31 0 28 0;
#X connect 31 1 25 0;
#X connect 32 0 33 0;
#X connect 33 0 35 0;
#X connect 33 1 34 0;
#X connect 34 0 25 0;
#X connect 35 0 18 0;
#X connect 36 0 28 0;
#X connect 37 0 46 0;
#X connect 38 0 4 0;
#X connect 39 0 48 0;
#X connect 40 0 54 0;
#X connect 40 0 53 0;
#X connect 41 0 44 1;
#X connect 42 0 45 1;
#X connect 43 0 61 1;
#X connect 44 0 4 0;
#X connect 45 0 4 0;
#X connect 46 0 44 0;
#X connect 47 0 45 0;
#X connect 48 0 49 0;
#X connect 49 0 47 0;
#X connect 50 0 51 0;
#X connect 51 0 56 0;
#X connect 54 0 55 0;
#X connect 55 1 50 0;
#X connect 56 0 57 0;
#X connect 57 0 61 0;
#X connect 58 0 60 0;
#X connect 59 0 58 0;
#X connect 60 0 57 1;
#X connect 61 0 4 0;
#X connect 68 0 12 0;
#X connect 69 0 11 0;
#X connect 70 0 12 0;
#X connect 71 0 11 0;
#X connect 72 0 12 0;
#X connect 73 0 11 0;
#X connect 74 0 12 0;
#X connect 75 0 11 0;
#X connect 76 0 79 0;
#X connect 77 0 76 0;
#X connect 78 0 77 0;
#X connect 79 0 37 0;
#X connect 79 0 38 0;
#X connect 79 0 40 0;
#X connect 79 0 39 0;
#X connect 79 0 17 0;
#X connect 80 0 85 0;
#X connect 81 0 82 0;
#X connect 82 0 101 0;
#X connect 83 0 82 0;
#X connect 83 1 82 1;
#X connect 84 0 83 0;
#X connect 85 0 84 0;
#X connect 85 1 84 1;
#X connect 86 0 87 0;
#X connect 87 0 76 1;
#X connect 88 0 89 0;
#X connect 89 0 59 0;
#X connect 89 1 35 0;
#X connect 89 2 110 0;
#X connect 89 3 81 0;
#X connect 90 0 91 0;
#X connect 90 1 114 0;
#X connect 91 0 96 0;
#X connect 92 0 97 0;
#X connect 93 0 91 0;
#X connect 93 1 91 1;
#X connect 94 0 92 0;
#X connect 94 1 92 1;
#X connect 95 0 105 0;
#X connect 96 0 95 0;
#X connect 97 0 95 0;
#X connect 98 0 112 0;
#X connect 99 0 113 0;
#X connect 100 0 102 0;
#X connect 101 0 107 0;
#X connect 101 1 108 0;
#X connect 102 0 106 0;
#X connect 103 0 90 0;
#X connect 104 0 93 0;
#X connect 104 1 94 0;
#X connect 104 2 118 0;
#X connect 105 0 86 0;
#X connect 106 0 86 0;
#X connect 107 0 100 0;
#X connect 108 0 103 0;
#X connect 109 0 104 0;
#X connect 110 0 117 0;
#X connect 111 0 98 0;
#X connect 111 1 99 0;
#X connect 111 2 124 0;
#X connect 112 0 105 1;
#X connect 112 1 108 0;
#X connect 112 2 103 1;
#X connect 113 0 106 1;
#X connect 113 1 107 0;
#X connect 113 2 100 1;
#X connect 114 0 92 0;
#X connect 115 0 116 0;
#X connect 116 0 114 1;
#X connect 117 0 96 0;
#X connect 117 1 97 0;
#X connect 117 2 115 0;
#X connect 118 0 123 0;
#X connect 118 1 120 0;
#X connect 119 0 122 0;
#X connect 120 0 119 1;
#X connect 121 0 91 0;
#X connect 122 0 92 0;
#X connect 123 0 121 1;
#X connect 123 1 122 1;
#X connect 124 0 121 0;
#X connect 124 1 119 0;
