#N canvas 951 0 956 1003 12;
#X obj 67 45 inlet;
#X obj 67 70 bng 15 250 50 0 empty empty empty 17 7 0 10 -262144 -1
-1;
#X obj 67 90 random 5;
#X floatatom 67 113 5 0 0 0 - - -;
#X obj 67 135 sel 0 1 2 3 4;
#X msg 67 158;
#X msg 107 159;
#X msg 147 159;
#X msg 183 160;
#X msg 217 159;
#X floatatom 67 191 5 0 0 0 - - -;
#X msg 67 213 set \$1;
#X obj 67 236 outlet;
#X connect 0 0 1 0;
#X connect 1 0 2 0;
#X connect 2 0 3 0;
#X connect 3 0 4 0;
#X connect 4 0 5 0;
#X connect 4 1 6 0;
#X connect 4 2 7 0;
#X connect 4 3 8 0;
#X connect 4 4 9 0;
#X connect 5 0 10 0;
#X connect 6 0 10 0;
#X connect 7 0 10 0;
#X connect 8 0 10 0;
#X connect 9 0 10 0;
#X connect 10 0 11 0;
#X connect 11 0 12 0;
