#N canvas 951 0 956 1003 12;
#X obj 43 50 s pd;
#X msg 42 21 dsp 1;
#X msg 96 22 dsp 0;
#X obj 870 109 tgl 15 0 empty empty empty 17 7 0 10 -262144 -1 -1 0
1;
#X obj 870 129 s ON;
#X text 67 137 BPM;
#X msg 73 192 60000;
#X text 127 193 1 min;
#X obj 257 217 bng 15 250 50 0 empty empty empty 17 7 0 10 -262144
-1 -1;
#X obj 256 262 /;
#X floatatom 256 285 5 0 0 0 - - -;
#X obj 252 316 s 4th_time;
#X obj 448 131 r 4th_time;
#X floatatom 448 177 5 0 0 0 - - -;
#X obj 491 203 s whole_time;
#X obj 413 205 metro;
#X obj 403 130 r ON;
#X obj 417 233 bng 15 250 50 0 empty empty empty 17 7 0 10 -262144
-1 -1;
#X obj 448 154 * 4;
#X obj 629 129 r 4th_time;
#X floatatom 629 175 5 0 0 0 - - -;
#X obj 599 201 metro;
#X obj 585 129 r ON;
#X obj 598 231 bng 15 250 50 0 empty empty empty 17 7 0 10 -262144
-1 -1;
#X obj 629 152 * 1;
#X obj 417 256 s whole_note;
#X obj 598 251 s 4th_note;
#X obj 467 289 r ON;
#X obj 467 312 sel 0;
#X obj 466 339 bng 15 250 50 0 empty empty empty 17 7 0 10 -262144
-1 -1;
#X obj 393 308 loadbang;
#X msg 466 359 -1;
#X obj 547 336 r whole_note;
#X obj 548 363 bng 15 250 50 0 empty empty empty 17 7 0 10 -262144
-1 -1;
#X obj 548 383 int 1;
#X floatatom 547 414 5 0 0 0 - - -;
#X obj 644 409 + 1;
#X text 610 446 funkar % 2 + 1 ?;
#X obj 547 482 sel 1;
#X obj 548 508 bng 15 250 50 0 empty empty empty 17 7 0 10 -262144
-1 -1;
#X obj 549 534 tgl 15 0 empty empty empty 17 7 0 10 -262144 -1 -1 1
1;
#X text 373 543 fldömc dföldf-l fdkl;
#X obj 415 471 r ON;
#X obj 418 494 sel 0;
#X msg 462 522 1;
#X obj 463 482 loadbang;
#X floatatom 281 182 5 0 0 0 - - -;
#X msg 281 159 60;
#X text 115 85 förhoppningsvis så deelar den nu;
#X obj 547 436 % 2 + 1;
#X obj 757 154 r Chord;
#X text 777 118 Bass;
#X obj 757 186 tgl 15 0 empty empty empty 17 7 0 10 -262144 -1 -1 1
1;
#X obj 757 206 sel 0;
#X obj 757 233 bng 15 250 50 0 empty empty empty 17 7 0 10 -262144
-1 -1;
#X obj 820 232 bng 15 250 50 0 empty empty empty 17 7 0 10 -262144
-1 -1;
#X msg 757 253 130.81;
#X text 734 257 C;
#X text 840 232 F;
#X msg 827 251 87.31;
#X floatatom 759 296 5 0 0 0 - - -;
#X obj 759 318 phasor~;
#X obj 759 341 lop~ 100;
#X obj 759 389 *~;
#X obj 962 161 r ON;
#X obj 962 185 sel 1;
#X msg 963 233 1 500;
#X obj 964 311 line~;
#X obj 1054 182 * 2;
#X floatatom 1054 205 5 0 0 0 - - -;
#X obj 1054 227 - 100;
#X obj 1015 253 delay;
#X text 1068 119 Envelope ____;
#X msg 1015 284 0 100;
#X obj 1126 202 r ON;
#X obj 1126 225 sel 0;
#X obj 1126 250 delay 5;
#X obj 759 415 s~ Bass;
#X obj 946 462 r whole_note;
#X obj 947 490 bng 15 250 50 0 empty empty empty 17 7 0 10 -262144
-1 -1;
#X obj 947 510 Chords_Scales;
#X floatatom 947 533 5 0 0 0 - - -;
#X obj 949 577 phasor~;
#X obj 1032 550 * 1.001;
#X floatatom 1032 573 5 0 0 0 - - -;
#X obj 1031 595 phasor~;
#X obj 960 649 lop~ 100;
#X obj 960 701 *~;
#X obj 960 724 *~ 0.5;
#X obj 960 747 s~ Ambient_Pad;
#X obj 1133 493 bng 15 250 50 0 empty empty empty 17 7 0 10 -262144
-1 -1;
#X msg 1133 549 1 500;
#X obj 1133 577 line~;
#X text 1050 322 Har valt line~ ist för line \, kan behöva ändras
;
#X obj 1212 514 delay;
#X msg 1212 546 0 500;
#X text 1021 398 Ambient Pad Melody;
#X obj 1244 428 r whole_time;
#X floatatom 1244 451 5 0 0 0 - - -;
#X obj 1244 473 -500;
#X obj 1313 453 r ON;
#X obj 1313 476 sel 0;
#X obj 1313 499 delay 5;
#X obj 554 632 r~ Bass;
#X obj 614 632 r~ Ambient_Pad;
#X obj 556 710 dac~;
#X text 811 677 comment;
#X obj 422 639 tgl 15 0 empty empty empty 17 7 0 10 -259693 -1 -1 1
1;
#X obj 416 682 metro 100;
#X obj 417 592 loadbang;
#X obj 362 679 r~ tw;
#X obj 541 995 s~ tw;
#N canvas 0 50 450 250 (subpatch) 0;
#X array array1 100 float 3;
#A 0 0 0 0 0 0 0 0 0 0 0 0 0 0 0 0 0 0 0 0 0 0 0 0 0 0 0 0 0 0 0 0
0 0 0 0 0 0 0 0 0 0 0 0 0 0 0 0 0 0 0 0 0 0 0 0 0 0 0 0 0 0 0 0 0 0
0 0 0 0 0 0 0 0 0 0 0 0 0 0 0 0 0 0 0 0 0 0 0 0 0 0 0 0 0 0 0 0 0 0
0;
#X coords 0 1 100 -1 200 140 1 0 0;
#X restore 729 730 graph;
#X obj 396 719 tabwrite~ array1;
#X obj 549 554 s Chord;
#X text 466 90 Clock multiplication;
#X obj 963 209 bng 15 250 50 0 empty empty empty 17 7 0 10 -262144
-1 -1;
#X obj 1054 159 r whole_time;
#X obj 557 671 *~ 0.5;
#X obj 301 791 r~ Bass;
#X obj 363 793 r~ Ambient_Pad;
#X obj 475 794 loadbang;
#X obj 544 795 loadbang;
#X obj 620 795 loadbang;
#X msg 475 817 1;
#X msg 544 818 0.5;
#X msg 620 818 0.95;
#X msg 475 840 wet \$1;
#X msg 544 841 dry \$1;
#X msg 620 841 roomsize \$1;
#X obj 405 910 freeverb~;
#X obj 456 965 *~ 0.5;
#X obj 394 965 *~ 0.5;
#X obj 438 1009 dac~;
#X connect 1 0 0 0;
#X connect 2 0 0 0;
#X connect 3 0 4 0;
#X connect 6 0 9 0;
#X connect 8 0 9 0;
#X connect 9 0 10 0;
#X connect 10 0 11 0;
#X connect 12 0 18 0;
#X connect 13 0 14 0;
#X connect 13 0 15 1;
#X connect 15 0 17 0;
#X connect 16 0 15 0;
#X connect 17 0 25 0;
#X connect 18 0 13 0;
#X connect 19 0 24 0;
#X connect 20 0 21 1;
#X connect 21 0 23 0;
#X connect 22 0 21 0;
#X connect 23 0 26 0;
#X connect 24 0 20 0;
#X connect 27 0 28 0;
#X connect 28 0 29 0;
#X connect 29 0 31 0;
#X connect 30 0 29 0;
#X connect 31 0 34 0;
#X connect 32 0 33 0;
#X connect 33 0 34 0;
#X connect 34 0 35 0;
#X connect 34 0 36 0;
#X connect 35 0 49 0;
#X connect 36 0 34 1;
#X connect 38 0 39 0;
#X connect 39 0 40 0;
#X connect 40 0 114 0;
#X connect 42 0 43 0;
#X connect 43 0 44 0;
#X connect 44 0 40 0;
#X connect 45 0 44 0;
#X connect 46 0 8 0;
#X connect 46 0 9 1;
#X connect 47 0 46 0;
#X connect 49 0 38 0;
#X connect 50 0 52 0;
#X connect 52 0 53 0;
#X connect 53 0 54 0;
#X connect 53 1 55 0;
#X connect 54 0 56 0;
#X connect 55 0 59 0;
#X connect 56 0 60 0;
#X connect 59 0 60 0;
#X connect 60 0 61 0;
#X connect 61 0 62 0;
#X connect 62 0 63 0;
#X connect 63 0 77 0;
#X connect 64 0 65 0;
#X connect 65 0 116 0;
#X connect 66 0 67 0;
#X connect 67 0 63 1;
#X connect 68 0 69 0;
#X connect 69 0 70 0;
#X connect 70 0 71 0;
#X connect 71 0 73 0;
#X connect 73 0 67 0;
#X connect 74 0 75 0;
#X connect 75 0 76 0;
#X connect 76 0 73 0;
#X connect 78 0 79 0;
#X connect 78 0 90 0;
#X connect 79 0 80 0;
#X connect 80 0 81 0;
#X connect 81 0 82 0;
#X connect 81 0 83 0;
#X connect 82 0 86 0;
#X connect 83 0 84 0;
#X connect 84 0 85 0;
#X connect 85 0 86 0;
#X connect 86 0 87 0;
#X connect 87 0 88 0;
#X connect 88 0 89 0;
#X connect 90 0 91 0;
#X connect 90 0 94 0;
#X connect 91 0 92 0;
#X connect 94 0 95 0;
#X connect 95 0 92 0;
#X connect 97 0 98 0;
#X connect 98 0 99 0;
#X connect 99 0 94 1;
#X connect 100 0 101 0;
#X connect 101 0 102 0;
#X connect 102 0 95 0;
#X connect 103 0 118 0;
#X connect 104 0 118 0;
#X connect 107 0 108 0;
#X connect 108 0 113 0;
#X connect 109 0 107 0;
#X connect 110 0 113 0;
#X connect 116 0 66 0;
#X connect 117 0 68 0;
#X connect 119 0 132 0;
#X connect 119 0 131 0;
#X connect 120 0 130 0;
#X connect 120 0 130 1;
#X connect 121 0 124 0;
#X connect 122 0 125 0;
#X connect 123 0 126 0;
#X connect 124 0 127 0;
#X connect 125 0 128 0;
#X connect 126 0 129 0;
#X connect 130 0 132 0;
#X connect 130 1 131 0;
#X connect 131 0 111 0;
#X connect 131 0 133 1;
#X connect 132 0 111 0;
#X connect 132 0 133 0;
