#N canvas -11 -11 1920 1016 12;
#X floatatom 105 72 7 0 0 0 - - -;
#X floatatom 173 120 5 0 0 0 - - -;
#X obj 173 142 phasor~;
#X obj 173 165 *~ 0.4;
#X obj 104 142 phasor~;
#X obj 104 165 *~ 0.4;
#X msg 730 85 dsp 1;
#X obj 762 115 s pd;
#X msg 787 84 dsp 0;
#X obj 173 97 * 1.01;
#X obj 235 125 loadbang;
#X msg 237 148 500;
#X floatatom 237 171 5 0 0 0 - - -;
#X obj 303 126 loadbang;
#X floatatom 305 172 5 0 0 0 - - -;
#X obj 103 249 vcf~;
#X msg 305 149 10;
#X obj 104 287 dac~;
#X obj 152 31 hsl 165 15 220 880 0 0 empty empty empty -2 -8 0 10 -262144
-1 -1 21100 1;
#X obj 514 10 hsl 165 15 220 880 0 0 empty empty empty -2 -8 0 10 -262144
-1 -1 3800 1;
#X floatatom 511 111 5 0 0 0 - - -;
#X obj 511 133 s freq;
#X floatatom 605 56 5 0 0 0 - - -;
#X obj 605 78 s span;
#X obj 580 87 bng 15 250 50 0 empty empty empty 17 7 0 10 -262144 -1
-1;
#X obj 465 200 r freq;
#X obj 465 223 + 0;
#X floatatom 465 246 5 0 0 0 - - -;
#X obj 465 268 phasor~;
#X obj 465 291 *~ 0.4;
#X obj 558 198 r freq;
#X obj 558 221 + 0;
#X floatatom 558 244 5 0 0 0 - - -;
#X obj 558 266 phasor~;
#X obj 558 289 *~ 0.4;
#X obj 619 172 r span;
#X obj 619 195 * 1.1;
#X obj 669 198 r freq;
#X obj 669 221 + 0;
#X floatatom 669 244 5 0 0 0 - - -;
#X obj 669 266 phasor~;
#X obj 669 289 *~ 0.4;
#X obj 730 172 r span;
#X obj 730 195 * 1.2;
#X obj 776 197 r freq;
#X obj 776 220 + 0;
#X floatatom 776 243 5 0 0 0 - - -;
#X obj 776 265 phasor~;
#X obj 776 288 *~ 0.4;
#X obj 837 171 r span;
#X obj 837 194 * 1.3;
#X obj 885 196 r freq;
#X obj 885 219 + 0;
#X floatatom 885 242 5 0 0 0 - - -;
#X obj 885 264 phasor~;
#X obj 885 287 *~ 0.4;
#X obj 946 170 r span;
#X obj 946 193 * 1.4;
#X obj 990 193 r freq;
#X obj 990 216 + 0;
#X floatatom 990 239 5 0 0 0 - - -;
#X obj 990 261 phasor~;
#X obj 990 284 *~ 0.4;
#X obj 1051 167 r span;
#X obj 1051 190 * 1.5;
#X obj 733 362 vcf~;
#X obj 734 388 *~ 1;
#X obj 734 431 dac~;
#X obj 924 315 loadbang;
#X msg 924 338 500;
#X floatatom 924 361 5 0 0 0 - - -;
#X obj 991 315 loadbang;
#X floatatom 993 361 5 0 0 0 - - -;
#X msg 993 338 10;
#X obj 608 32 hsl 128 15 0 100 0 0 empty empty empty -2 -8 0 10 -262144
-1 -1 0 1;
#X connect 0 0 4 0;
#X connect 0 0 9 0;
#X connect 1 0 2 0;
#X connect 2 0 3 0;
#X connect 3 0 15 0;
#X connect 4 0 5 0;
#X connect 5 0 15 0;
#X connect 6 0 7 0;
#X connect 8 0 7 0;
#X connect 9 0 1 0;
#X connect 10 0 11 0;
#X connect 11 0 12 0;
#X connect 12 0 15 1;
#X connect 13 0 16 0;
#X connect 14 0 15 2;
#X connect 16 0 14 0;
#X connect 18 0 0 0;
#X connect 19 0 20 0;
#X connect 20 0 21 0;
#X connect 22 0 23 0;
#X connect 22 0 24 0;
#X connect 24 0 20 0;
#X connect 25 0 26 0;
#X connect 26 0 27 0;
#X connect 27 0 28 0;
#X connect 28 0 29 0;
#X connect 29 0 65 0;
#X connect 30 0 31 0;
#X connect 31 0 32 0;
#X connect 32 0 33 0;
#X connect 33 0 34 0;
#X connect 34 0 65 0;
#X connect 35 0 36 0;
#X connect 36 0 31 1;
#X connect 37 0 38 0;
#X connect 38 0 39 0;
#X connect 39 0 40 0;
#X connect 40 0 41 0;
#X connect 41 0 65 0;
#X connect 42 0 43 0;
#X connect 43 0 38 1;
#X connect 44 0 45 0;
#X connect 45 0 46 0;
#X connect 46 0 47 0;
#X connect 47 0 48 0;
#X connect 48 0 65 0;
#X connect 49 0 50 0;
#X connect 50 0 45 1;
#X connect 51 0 52 0;
#X connect 52 0 53 0;
#X connect 53 0 54 0;
#X connect 54 0 55 0;
#X connect 55 0 65 0;
#X connect 56 0 57 0;
#X connect 57 0 52 1;
#X connect 58 0 59 0;
#X connect 59 0 60 0;
#X connect 60 0 61 0;
#X connect 61 0 62 0;
#X connect 62 0 65 0;
#X connect 63 0 64 0;
#X connect 64 0 59 1;
#X connect 65 0 66 0;
#X connect 66 0 67 0;
#X connect 66 0 67 1;
#X connect 68 0 69 0;
#X connect 69 0 70 0;
#X connect 70 0 65 1;
#X connect 71 0 73 0;
#X connect 72 0 65 2;
#X connect 73 0 72 0;
#X connect 74 0 22 0;
