#N canvas 36 0 1814 1004 12;
#X obj 83 26 tgl 19 0 empty empty empty 0 -10 0 12 #fcfcfc #000000 #000000 0 1;
#X obj 83 50 metro 1000;
#X floatatom 150 16 5 0 0 0 - - - 0;
#X obj 83 74 tgl 19 0 empty empty empty 0 -10 0 12 #fcfcfc #000000 #000000 0 1;
#X obj 216 61 vradio 19 1 0 3 empty empty empty 0 -10 0 12 #fcfcfc #000000 #000000 0;
#X text 245 64 break 0;
#X text 245 80 count 1;
#X text 245 95 shift 2;
#X obj 181 84 tgl 25 0 empty empty empty 0 -10 0 12 #00faff #000000 #000000 0 1;
#X obj 177 146 tgl 25 0 empty empty empty 0 -10 0 12 #00faff #000000 #000000 0 1;
#X obj 216 128 vradio 19 1 0 3 empty empty empty 0 -10 0 12 #fcfcfc #000000 #000000 0;
#X text 244 131 break 0;
#X text 244 147 count 1;
#X text 244 162 shift 2;
#X obj 64 118 mode one, f 12;
#X obj 63 155 mode two, f 12;
#X obj 62 201 mode three;
#X obj 216 199 vradio 19 1 0 3 empty empty empty 0 -10 0 12 #fcfcfc #000000 #000000 0;
#X text 244 202 break 0;
#X text 244 218 count 1;
#X text 244 233 shift 2;
#X obj 176 213 tgl 25 0 empty empty empty 0 -10 0 12 #00faff #000000 #000000 0 1;
#X obj 65 245 mode four;
#X obj 217 268 vradio 19 1 0 3 empty empty empty 0 -10 0 12 #fcfcfc #000000 #000000 0;
#X text 245 271 break 0;
#X text 245 287 count 1;
#X text 245 302 shift 2;
#X obj 175 279 tgl 25 0 empty empty empty 0 -10 0 12 #00faff #000000 #000000 0 1;
#X obj 64 301 mode five;
#X obj 218 342 vradio 19 1 0 3 empty empty empty 0 -10 0 12 #fcfcfc #000000 #000000 0;
#X text 246 345 break 0;
#X text 246 361 count 1;
#X text 246 376 shift 2;
#X obj 176 353 tgl 25 0 empty empty empty 0 -10 0 12 #00faff #000000 #000000 0 1;
#X obj 63 355 mode six;
#X obj 217 413 vradio 19 1 0 3 empty empty empty 0 -10 0 12 #fcfcfc #000000 #000000 0;
#X text 245 416 break 0;
#X text 245 432 count 1;
#X text 245 447 shift 2;
#X obj 175 424 tgl 25 0 empty empty empty 0 -10 0 12 #00faff #000000 #000000 0 1;
#X obj 358 85 modetest1;
#X obj 360 7 tgl 19 0 empty empty empty 0 -10 0 12 #fcfcfc #000000 #000000 0 1;
#X obj 360 31 metro 1000;
#X floatatom 427 -3 5 0 0 0 - - - 0;
#X obj 360 55 tgl 19 0 empty empty empty 0 -10 0 12 #fcfcfc #000000 #000000 0 1;
#X obj 445 36 vradio 19 1 0 3 empty empty empty 0 -10 0 12 #fcfcfc #000000 #000000 0;
#X floatatom 410 119 5 0 0 0 - - - 0;
#X obj 592 64 tgl 25 0 empty empty empty 0 -10 0 12 #00faff #000000 #000000 0 1;
#X obj 362 176 modetest1 two;
#X obj 484 96 vradio 19 1 0 3 empty empty empty 0 -10 0 12 #fcfcfc #000000 #000000 0;
#X obj 592 95 tgl 25 0 empty empty empty 0 -10 0 12 #00faff #000000 #000000 0 1;
#X obj 486 167 vradio 19 1 0 3 empty empty empty 0 -10 0 12 #fcfcfc #000000 #000000 0;
#X floatatom 406 242 5 0 0 0 - - - 0;
#X obj 592 126 tgl 25 0 empty empty empty 0 -10 0 12 #00faff #000000 #000000 0 1;
#X obj 483 242 vradio 19 1 0 3 empty empty empty 0 -10 0 12 #fcfcfc #000000 #000000 0;
#X obj 594 163 tgl 25 0 empty empty empty 0 -10 0 12 #00faff #000000 #000000 0 1;
#X obj 357 212 modetest1 three;
#X obj 363 285 modetest1 four;
#X obj 514 293 vradio 19 1 0 3 empty empty empty 0 -10 0 12 #fcfcfc #000000 #000000 0;
#X floatatom 427 365 5 0 0 0 - - - 0;
#X obj 595 201 tgl 25 0 empty empty empty 0 -10 0 12 #00faff #000000 #000000 0 1;
#X obj 513 364 vradio 19 1 0 3 empty empty empty 0 -10 0 12 #fcfcfc #000000 #000000 0;
#X obj 595 238 tgl 25 0 empty empty empty 0 -10 0 12 #00faff #000000 #000000 0 1;
#X obj 363 336 modetest1 five, f 18;
#X obj 380 404 modetest1 six;
#X obj 523 428 vradio 19 1 0 3 empty empty empty 0 -10 0 12 #fcfcfc #000000 #000000 0;
#X obj 596 272 tgl 25 0 empty empty empty 0 -10 0 12 #00faff #000000 #000000 0 1;
#X obj 379 459 modetest1 seven;
#X obj 817 75 tgl 19 0 empty empty empty 0 -10 0 12 #fcfcfc #000000 #000000 0 1;
#X msg 817 99 \; pd dsp \$1;
#X obj 668 89 *~;
#X obj 668 124 *~;
#X obj 670 157 *~;
#X obj 671 201 *~;
#X obj 670 235 *~;
#X obj 673 268 *~;
#X obj 674 310 *~;
#X obj 713 53 *~ 0.2;
#X obj 720 109 *~ 0.2;
#X obj 720 160 *~ 0.2;
#X obj 724 217 *~ 0.2;
#X obj 725 268 *~ 0.2;
#X obj 729 324 *~ 0.2;
#X obj 728 375 *~ 0.2;
#X obj 592 442 dac~;
#X obj 726 349 phasor~ 110;
#X obj 727 298 phasor~ 220;
#X obj 723 242 phasor~ 440;
#X obj 722 191 phasor~ 880;
#X obj 718 134 phasor~ 140;
#X obj 718 83 phasor~ 280;
#X obj 713 26 phasor~ 560;
#X connect 0 0 1 0;
#X connect 1 0 3 0;
#X connect 2 0 1 1;
#X connect 3 0 14 1;
#X connect 4 0 14 3;
#X connect 10 0 15 3;
#X connect 14 1 8 0;
#X connect 14 1 15 1;
#X connect 14 2 15 2;
#X connect 15 0 14 0;
#X connect 15 1 9 0;
#X connect 15 1 16 1;
#X connect 15 2 16 2;
#X connect 16 0 15 0;
#X connect 16 1 21 0;
#X connect 16 1 22 1;
#X connect 16 2 22 2;
#X connect 17 0 16 3;
#X connect 22 0 16 0;
#X connect 22 1 27 0;
#X connect 22 1 28 1;
#X connect 22 2 28 2;
#X connect 23 0 22 3;
#X connect 28 0 22 0;
#X connect 28 1 33 0;
#X connect 28 1 34 1;
#X connect 28 2 34 2;
#X connect 29 0 28 3;
#X connect 34 0 28 0;
#X connect 34 1 39 0;
#X connect 35 0 34 3;
#X connect 40 1 48 1;
#X connect 40 1 46 0;
#X connect 40 1 47 0;
#X connect 40 2 48 2;
#X connect 41 0 42 0;
#X connect 42 0 44 0;
#X connect 43 0 42 1;
#X connect 44 0 40 1;
#X connect 45 0 40 3;
#X connect 47 0 70 0;
#X connect 48 0 40 0;
#X connect 48 1 50 0;
#X connect 48 1 56 1;
#X connect 48 2 56 2;
#X connect 49 0 48 3;
#X connect 50 0 71 0;
#X connect 51 0 56 3;
#X connect 53 0 72 0;
#X connect 54 0 57 3;
#X connect 55 0 73 0;
#X connect 56 0 48 0;
#X connect 56 1 52 0;
#X connect 56 1 53 0;
#X connect 56 1 57 1;
#X connect 56 2 57 2;
#X connect 57 0 56 0;
#X connect 57 1 63 1;
#X connect 57 1 55 0;
#X connect 57 2 63 2;
#X connect 58 0 63 3;
#X connect 60 0 74 0;
#X connect 61 0 64 3;
#X connect 62 0 75 0;
#X connect 63 0 57 0;
#X connect 63 1 64 1;
#X connect 63 1 59 0;
#X connect 63 1 60 0;
#X connect 63 2 64 2;
#X connect 64 0 63 0;
#X connect 64 1 67 1;
#X connect 64 1 62 0;
#X connect 64 2 67 2;
#X connect 65 0 67 3;
#X connect 66 0 76 0;
#X connect 67 0 64 0;
#X connect 67 1 66 0;
#X connect 68 0 69 0;
#X connect 70 0 84 0;
#X connect 70 0 84 1;
#X connect 71 0 84 0;
#X connect 71 0 84 1;
#X connect 72 0 84 0;
#X connect 72 0 84 1;
#X connect 73 0 84 0;
#X connect 73 0 84 1;
#X connect 74 0 84 0;
#X connect 74 0 84 1;
#X connect 75 0 84 0;
#X connect 75 0 84 1;
#X connect 76 0 84 0;
#X connect 76 0 84 1;
#X connect 77 0 70 1;
#X connect 78 0 71 1;
#X connect 79 0 72 1;
#X connect 80 0 73 1;
#X connect 81 0 74 1;
#X connect 82 0 75 1;
#X connect 83 0 76 1;
#X connect 85 0 83 0;
#X connect 86 0 82 0;
#X connect 87 0 81 0;
#X connect 88 0 80 0;
#X connect 89 0 79 0;
#X connect 90 0 78 0;
#X connect 91 0 77 0;
