#N canvas 608 66 1263 844 12;
#X obj 42 27 inlet db;
#X obj 140 28 inlet df;
#X obj 234 28 inlet sm;
#X obj 335 29 inlet m;
#X obj 107 132 == 0;
#X obj 308 122 == 1;
#X obj 522 125 == 2;
#X obj 115 173 tgl 19 0 empty empty empty 0 -10 0 12 #fcfcfc #000000 #000000 0 1;
#X obj 315 173 tgl 19 0 empty empty empty 0 -10 0 12 #fcfcfc #000000 #000000 0 1;
#X obj 522 149 tgl 19 0 empty empty empty 0 -10 0 12 #fcfcfc #000000 #000000 0 1;
#X obj 31 200 pack f f f;
#X obj 74 236 spigot;
#X obj 74 275 unpack f f f;
#X obj 220 201 pack f f f;
#X obj 263 237 spigot;
#X obj 263 276 unpack f f f;
#X obj 423 199 pack f f f;
#X obj 466 235 spigot;
#X obj 466 274 unpack f f f;
#X listbox 19 375 20 0 0 0 - - - 0;
#X listbox 199 318 20 0 0 0 - - - 0;
#X obj 97 340 break;
#X obj 286 344 count;
#X obj 482 330 shift;
#X obj 132 399 outlet db;
#X obj 293 395 outlet df;
#X obj 478 391 outlet sm;
#X floatatom 139 56 5 0 0 0 - - - 0;
#X floatatom 234 53 5 0 0 0 - - - 0;
#X floatatom 45 53 5 0 0 0 - - - 0;
#X floatatom 338 58 5 0 0 0 - - - 0;
#X obj 221 163 bang;
#X obj 41 164 bang;
#X obj 485 162 bang;
#X connect 0 0 29 0;
#X connect 1 0 27 0;
#X connect 2 0 28 0;
#X connect 3 0 30 0;
#X connect 4 0 7 0;
#X connect 4 0 32 0;
#X connect 5 0 8 0;
#X connect 5 0 31 0;
#X connect 6 0 9 0;
#X connect 6 0 33 0;
#X connect 7 0 11 1;
#X connect 8 0 14 1;
#X connect 9 0 17 1;
#X connect 10 0 11 0;
#X connect 10 0 19 0;
#X connect 11 0 12 0;
#X connect 12 0 21 0;
#X connect 12 1 21 1;
#X connect 12 2 21 2;
#X connect 13 0 14 0;
#X connect 13 0 20 0;
#X connect 14 0 15 0;
#X connect 15 0 22 0;
#X connect 15 1 22 1;
#X connect 15 2 22 2;
#X connect 16 0 17 0;
#X connect 17 0 18 0;
#X connect 18 0 23 0;
#X connect 18 1 23 1;
#X connect 18 2 23 2;
#X connect 21 0 24 0;
#X connect 21 1 25 0;
#X connect 21 2 26 0;
#X connect 22 0 24 0;
#X connect 22 1 25 0;
#X connect 22 2 26 0;
#X connect 23 0 24 0;
#X connect 23 1 25 0;
#X connect 23 2 26 0;
#X connect 27 0 10 1;
#X connect 27 0 13 1;
#X connect 27 0 16 1;
#X connect 28 0 10 2;
#X connect 28 0 13 2;
#X connect 28 0 16 2;
#X connect 29 0 10 0;
#X connect 29 0 13 0;
#X connect 29 0 16 0;
#X connect 30 0 4 0;
#X connect 30 0 5 0;
#X connect 30 0 6 0;
#X connect 31 0 13 0;
#X connect 32 0 10 0;
#X connect 33 0 16 0;
