#N canvas -9 40 1920 1016 12;
#X obj 44 20 inlet db;
#X obj 142 21 inlet df;
#X obj 236 21 inlet sm;
#X obj 337 22 inlet m;
#X floatatom 141 49 5 0 0 0 - - - 0;
#X floatatom 236 46 5 0 0 0 - - - 0;
#X floatatom 47 46 5 0 0 0 - - - 0;
#X floatatom 340 51 5 0 0 0 - - - 0;
#X obj 144 223 spigot;
#X floatatom 145 252 5 0 0 0 - - - 0;
#X obj 174 425 outlet db;
#X obj 291 425 outlet df;
#X obj 460 431 outlet sm;
#X obj 87 223 spigot;
#X obj 201 223 spigot;
#X obj 347 224 spigot;
#X floatatom 350 250 5 0 0 0 - - - 0;
#X obj 290 224 spigot;
#X obj 404 224 spigot;
#X obj 558 223 spigot;
#X floatatom 556 249 5 0 0 0 - - - 0;
#X obj 501 223 spigot;
#X obj 615 223 spigot;
#X obj 321 85 statecheck;
#X floatatom 295 118 5 0 0 0 - - - 0;
#X floatatom 347 117 5 0 0 0 - - - 0;
#X floatatom 400 119 5 0 0 0 - - - 0;
#X obj 122 342 break;
#X obj 340 338 count;
#X obj 519 344 shift;
#X connect 0 0 6 0;
#X connect 1 0 4 0;
#X connect 2 0 5 0;
#X connect 3 0 7 0;
#X connect 4 0 8 0;
#X connect 4 0 15 0;
#X connect 4 0 19 0;
#X connect 5 0 14 0;
#X connect 5 0 18 0;
#X connect 5 0 22 0;
#X connect 6 0 13 0;
#X connect 6 0 17 0;
#X connect 6 0 21 0;
#X connect 7 0 23 0;
#X connect 8 0 9 0;
#X connect 8 0 27 1;
#X connect 13 0 27 0;
#X connect 14 0 27 2;
#X connect 15 0 16 0;
#X connect 15 0 28 1;
#X connect 17 0 28 0;
#X connect 18 0 28 2;
#X connect 19 0 20 0;
#X connect 19 0 29 1;
#X connect 21 0 29 0;
#X connect 22 0 29 2;
#X connect 23 0 24 0;
#X connect 23 1 25 0;
#X connect 23 2 26 0;
#X connect 24 0 13 1;
#X connect 24 0 8 1;
#X connect 24 0 14 1;
#X connect 25 0 17 1;
#X connect 25 0 15 1;
#X connect 25 0 18 1;
#X connect 26 0 21 1;
#X connect 26 0 19 1;
#X connect 26 0 22 1;
#X connect 27 0 10 0;
#X connect 27 1 11 0;
#X connect 27 2 12 0;
#X connect 28 0 10 0;
#X connect 28 1 11 0;
#X connect 28 2 12 0;
#X connect 29 0 10 0;
#X connect 29 1 11 0;
#X connect 29 2 12 0;
