#N canvas 190 190 1920 1016 12;
#X obj 514 214 Dflipflop;
#X text 673 21 in: D clk \, rst out: !Q \, Q \, clk;
#X obj 514 313 != 1;
#X obj 572 313 f;
#X obj 574 262 t f f;
#X obj 572 290 sel 1;
#X obj 667 215 Dflipflop;
#X obj 667 314 != 1;
#X obj 725 314 f;
#X obj 727 263 t f f;
#X obj 725 291 sel 1;
#X obj 576 392 tgl 25 0 empty empty empty 0 -10 0 12 #c6feff #000000 #000000 0 1;
#X obj 630 391 tgl 25 0 empty empty empty 0 -10 0 12 #c6feff #000000 #000000 0 1;
#X obj 805 413 tgl 25 0 empty empty empty 0 -10 0 12 #c6feff #000000 #000000 0 1;
#X obj 448 176 tgl 19 0 empty empty empty 0 -10 0 12 #fcfcfc #000000 #000000 0 1;
#X msg 528 159 1;
#X obj 809 215 Dflipflop;
#X obj 809 314 != 1;
#X obj 867 314 f;
#X obj 869 263 t f f;
#X obj 867 291 sel 1;
#X obj 795 171 tgl 19 0 empty empty empty 0 -10 0 12 #fcfcfc #000000 #000000 0 1;
#X obj 123 167 Dflipflop;
#X obj 123 266 != 1;
#X obj 181 266 f;
#X obj 183 215 t f f;
#X obj 181 243 sel 1;
#X obj 68 382 outlet db;
#X obj 145 382 outlet lamp;
#X obj 235 382 outlet DF;
#X obj 310 382 outlet clk;
#X obj 43 58 inlet DF;
#X obj 114 57 inlet clk;
#X obj 191 57 inlet reset;
#X obj 284 57 inlet db;
#X text 5 18 DF styr clk i B;
#X text 286 24 db styr D;
#X obj 43 82 t f f;
#X text 49 431 DF från tidiare steg blir db till första break igen \, värt att kolla om rätt ordning;
#X obj 578 164 tgl 19 0 empty empty empty 0 -10 0 12 #fcfcfc #000000 #000000 0 1;
#X obj 28 189 f;
#X obj 114 81 bang;
#X connect 0 0 2 0;
#X connect 0 1 3 1;
#X connect 0 2 4 0;
#X connect 2 0 11 0;
#X connect 3 0 6 0;
#X connect 4 0 6 1;
#X connect 4 1 5 0;
#X connect 5 0 3 0;
#X connect 6 0 7 0;
#X connect 6 1 8 1;
#X connect 6 2 9 0;
#X connect 7 0 12 0;
#X connect 8 0 16 1;
#X connect 9 1 10 0;
#X connect 10 0 8 0;
#X connect 14 0 0 0;
#X connect 15 0 0 1;
#X connect 16 0 17 0;
#X connect 16 1 18 1;
#X connect 16 2 19 0;
#X connect 17 0 13 0;
#X connect 19 1 20 0;
#X connect 20 0 18 0;
#X connect 21 0 16 0;
#X connect 22 0 23 0;
#X connect 22 1 24 1;
#X connect 22 2 25 0;
#X connect 23 0 28 0;
#X connect 24 0 29 0;
#X connect 25 0 30 0;
#X connect 25 1 26 0;
#X connect 26 0 24 0;
#X connect 31 0 37 0;
#X connect 32 0 41 0;
#X connect 33 0 22 2;
#X connect 34 0 22 0;
#X connect 37 0 22 1;
#X connect 37 1 40 1;
#X connect 39 0 0 2;
#X connect 40 0 27 0;
#X connect 41 0 40 0;
