#N canvas 228 228 1920 1016 12;
#X obj 267 263 count;
#X obj 110 94 tgl 19 0 empty empty empty 0 -10 0 12 #fcfcfc #000000 #000000 0 1;
#X obj 110 118 metro 1500;
#X obj 110 142 tgl 19 0 empty empty empty 0 -10 0 12 #fcfcfc #000000 #000000 0 1;
#X msg 110 166 1;
#X obj 138 389 tgl 25 0 empty empty empty 0 -10 0 12 #c6feff #000000 #000000 0 1;
#X obj 201 390 tgl 25 0 empty empty empty 0 -10 0 12 #c6feff #000000 #000000 0 1;
#X obj 283 389 tgl 25 0 empty empty empty 0 -10 0 12 #c6feff #000000 #000000 0 1;
#X obj 363 388 tgl 25 0 empty empty empty 0 -10 0 12 #c6feff #000000 #000000 0 1;
#X obj 435 389 tgl 25 0 empty empty empty 0 -10 0 12 #c6feff #000000 #000000 0 1;
#X obj 492 387 tgl 25 0 empty empty empty 0 -10 0 12 #c6feff #000000 #000000 0 1;
#X obj 342 261 count;
#X obj 131 260 break;
#X obj 195 262 shift;
#X obj 420 262 break;
#X obj 484 264 shift;
#X msg 157 214 0;
#X obj 283 326 != 1;
#X obj 283 299 t f f;
#X obj 358 323 != 1;
#X obj 358 296 t f f;
#X obj 237 308 tgl 19 0 empty empty empty 0 -10 0 12 #fcfcfc #000000 #000000 0 1;
#X msg 220 209 1;
#X msg 307 210 1;
#X msg 454 202 0;
#X connect 0 0 13 3;
#X connect 0 0 21 0;
#X connect 0 1 18 0;
#X connect 1 0 2 0;
#X connect 2 0 3 0;
#X connect 3 0 4 0;
#X connect 4 0 12 0;
#X connect 11 0 0 0;
#X connect 11 1 20 0;
#X connect 11 2 14 1;
#X connect 12 1 5 0;
#X connect 12 2 13 0;
#X connect 12 3 13 1;
#X connect 13 0 12 3;
#X connect 13 1 6 0;
#X connect 13 2 0 1;
#X connect 13 3 0 2;
#X connect 14 0 11 0;
#X connect 14 1 9 0;
#X connect 14 2 15 0;
#X connect 14 3 15 1;
#X connect 15 0 14 3;
#X connect 15 1 10 0;
#X connect 16 0 12 2;
#X connect 17 0 7 0;
#X connect 18 0 17 0;
#X connect 18 1 11 1;
#X connect 19 0 8 0;
#X connect 20 0 19 0;
#X connect 20 1 14 0;
#X connect 22 0 13 2;
#X connect 23 0 0 3;
#X connect 24 0 14 2;
