#N canvas 152 152 1920 1016 12;
#X obj 32 176 Dflipflop;
#X obj 110 324 tgl 25 0 empty empty empty 0 -10 0 12 #c6feff #000000 #000000 0 1;
#X obj 148 324 tgl 25 0 empty empty empty 0 -10 0 12 #c6feff #000000 #000000 0 1;
#X obj 185 324 tgl 25 0 empty empty empty 0 -10 0 12 #c6feff #000000 #000000 0 1;
#X obj 221 325 tgl 25 0 empty empty empty 0 -10 0 12 #c6feff #000000 #000000 0 1;
#X obj 255 323 tgl 25 0 empty empty empty 0 -10 0 12 #c6feff #000000 #000000 0 1;
#X obj 139 182 Dflipflop;
#X obj 237 177 Dflipflop;
#X obj 329 173 Dflipflop;
#X obj 411 174 Dflipflop;
#X obj 489 169 Dflipflop;
#X obj 23 291 != 1;
#X obj 138 287 != 1;
#X obj 237 201 != 1;
#X obj 329 197 != 1;
#X obj 411 198 != 1;
#X obj 489 193 != 1;
#X obj 293 324 tgl 25 0 empty empty empty 0 -10 0 12 #c6feff #000000 #000000 0 1;
#X obj 69 43 tgl 19 0 empty empty empty 0 -10 0 12 #fcfcfc #000000 #000000 0 1;
#X obj 69 67 metro 1500;
#X obj 35 122 tgl 19 0 empty empty empty 0 -10 0 12 #fcfcfc #000000 #000000 0 1;
#X obj 67 294 f;
#X obj 177 274 f;
#X obj 249 280 f;
#X obj 368 295 f;
#X obj 437 314 f;
#X msg 102 38 500;
#X msg 139 39 1000;
#X msg 182 38 1500;
#X obj 547 282 f;
#X text 317 34 gå tbx till det som funkar.;
#X msg 70 98 1;
#X obj 66 265 sel 1;
#X obj 92 210 t f f;
#X obj 179 223 t f f;
#X obj 177 251 sel 1;
#X obj 279 217 t f f;
#X obj 277 245 sel 1;
#X obj 365 209 t f f;
#X obj 363 237 sel 1;
#X obj 455 223 t f f;
#X obj 453 251 sel 1;
#X obj 550 205 t f f;
#X obj 548 233 sel 1;
#X obj 613 167 Dflipflop;
#X obj 691 315 tgl 25 0 empty empty empty 0 -10 0 12 #c6feff #000000 #000000 0 1;
#X obj 729 315 tgl 25 0 empty empty empty 0 -10 0 12 #c6feff #000000 #000000 0 1;
#X obj 766 315 tgl 25 0 empty empty empty 0 -10 0 12 #c6feff #000000 #000000 0 1;
#X obj 802 316 tgl 25 0 empty empty empty 0 -10 0 12 #c6feff #000000 #000000 0 1;
#X obj 836 314 tgl 25 0 empty empty empty 0 -10 0 12 #c6feff #000000 #000000 0 1;
#X obj 720 173 Dflipflop;
#X obj 818 168 Dflipflop;
#X obj 910 164 Dflipflop;
#X obj 992 165 Dflipflop;
#X obj 1070 160 Dflipflop;
#X obj 604 282 != 1;
#X obj 719 278 != 1;
#X obj 818 192 != 1;
#X obj 910 188 != 1;
#X obj 992 189 != 1;
#X obj 1070 184 != 1;
#X obj 874 315 tgl 25 0 empty empty empty 0 -10 0 12 #c6feff #000000 #000000 0 1;
#X obj 648 285 f;
#X obj 758 265 f;
#X obj 830 271 f;
#X obj 949 286 f;
#X obj 1018 305 f;
#X obj 1128 273 f;
#X obj 647 256 sel 1;
#X obj 673 201 t f f;
#X obj 760 214 t f f;
#X obj 758 242 sel 1;
#X obj 860 208 t f f;
#X obj 858 236 sel 1;
#X obj 946 200 t f f;
#X obj 944 228 sel 1;
#X obj 1036 214 t f f;
#X obj 1034 242 sel 1;
#X obj 1131 196 t f f;
#X obj 1129 224 sel 1;
#X obj 615 120 tgl 19 0 empty empty empty 0 -10 0 12 #fcfcfc #000000 #000000 0 1;
#X obj 564 350 tgl 19 0 empty empty empty 0 -10 0 12 #fcfcfc #000000 #000000 0 1;
#X msg 661 120 1;
#X msg 572 120 1;
#X msg 706 119 0;
#X obj 419 398 count;
#X obj 364 399 count;
#X obj 469 396 count;
#X obj 378 457 tgl 25 0 empty empty empty 0 -10 0 12 #c6feff #000000 #000000 0 1;
#X obj 379 432 != 1;
#X obj 432 456 tgl 25 0 empty empty empty 0 -10 0 12 #c6feff #000000 #000000 0 1;
#X obj 433 431 != 1;
#X obj 486 454 tgl 25 0 empty empty empty 0 -10 0 12 #c6feff #000000 #000000 0 1;
#X obj 487 429 != 1;
#X msg 127 136 1;
#X connect 0 0 11 0;
#X connect 0 1 21 1;
#X connect 0 2 33 0;
#X connect 6 0 12 0;
#X connect 6 1 22 1;
#X connect 6 2 34 0;
#X connect 7 0 13 0;
#X connect 7 1 23 1;
#X connect 7 2 36 0;
#X connect 8 0 14 0;
#X connect 8 1 24 1;
#X connect 8 2 38 0;
#X connect 9 0 15 0;
#X connect 9 1 25 1;
#X connect 9 2 40 0;
#X connect 10 0 16 0;
#X connect 10 1 29 1;
#X connect 10 2 42 0;
#X connect 11 0 1 0;
#X connect 12 0 2 0;
#X connect 13 0 3 0;
#X connect 14 0 4 0;
#X connect 15 0 5 0;
#X connect 16 0 17 0;
#X connect 18 0 19 0;
#X connect 19 0 31 0;
#X connect 20 0 0 0;
#X connect 21 0 6 0;
#X connect 22 0 7 0;
#X connect 23 0 8 0;
#X connect 24 0 9 0;
#X connect 25 0 10 0;
#X connect 26 0 19 1;
#X connect 27 0 19 1;
#X connect 28 0 19 1;
#X connect 29 0 44 1;
#X connect 29 0 81 0;
#X connect 29 0 86 1;
#X connect 31 0 0 1;
#X connect 32 0 21 0;
#X connect 33 0 6 1;
#X connect 33 1 32 0;
#X connect 34 0 7 1;
#X connect 34 1 35 0;
#X connect 35 0 22 0;
#X connect 36 0 8 1;
#X connect 36 1 37 0;
#X connect 37 0 23 0;
#X connect 38 0 9 1;
#X connect 38 1 39 0;
#X connect 39 0 24 0;
#X connect 40 0 10 1;
#X connect 40 1 41 0;
#X connect 41 0 25 0;
#X connect 42 1 43 0;
#X connect 43 0 29 0;
#X connect 44 0 55 0;
#X connect 44 1 62 1;
#X connect 44 2 69 0;
#X connect 50 0 56 0;
#X connect 50 1 63 1;
#X connect 50 2 70 0;
#X connect 51 0 57 0;
#X connect 51 1 64 1;
#X connect 51 2 72 0;
#X connect 52 0 58 0;
#X connect 52 1 65 1;
#X connect 52 2 74 0;
#X connect 53 0 59 0;
#X connect 53 1 66 1;
#X connect 53 2 76 0;
#X connect 54 0 60 0;
#X connect 54 1 67 1;
#X connect 54 2 78 0;
#X connect 55 0 45 0;
#X connect 56 0 46 0;
#X connect 57 0 47 0;
#X connect 58 0 48 0;
#X connect 59 0 49 0;
#X connect 60 0 61 0;
#X connect 62 0 50 0;
#X connect 63 0 51 0;
#X connect 64 0 52 0;
#X connect 65 0 53 0;
#X connect 66 0 54 0;
#X connect 67 0 44 0;
#X connect 68 0 62 0;
#X connect 69 0 50 1;
#X connect 69 1 68 0;
#X connect 70 0 51 1;
#X connect 70 1 71 0;
#X connect 71 0 63 0;
#X connect 72 0 52 1;
#X connect 72 1 73 0;
#X connect 73 0 64 0;
#X connect 74 0 53 1;
#X connect 74 1 75 0;
#X connect 75 0 65 0;
#X connect 76 0 54 1;
#X connect 76 1 77 0;
#X connect 77 0 66 0;
#X connect 78 1 79 0;
#X connect 79 0 67 0;
#X connect 80 0 44 0;
#X connect 82 0 44 1;
#X connect 83 0 44 2;
#X connect 84 0 44 2;
#X connect 85 1 87 1;
#X connect 85 1 91 0;
#X connect 86 0 0 0;
#X connect 86 1 89 0;
#X connect 86 1 85 1;
#X connect 87 1 93 0;
#X connect 89 0 88 0;
#X connect 91 0 90 0;
#X connect 93 0 92 0;
#X connect 94 0 0 2;
