#N canvas 38 38 1920 1016 12;
#X obj 49 99 metro 1500;
#X obj 49 123 tgl 19 0 empty empty empty 0 -10 0 12 #fcfcfc #000000 #000000 0 1;
#X obj 49 50 tgl 19 0 empty empty empty 0 -10 0 12 #fcfcfc #000000 #000000 0 1;
#X msg 116 48 500;
#X msg 85 49 750;
#X msg 147 48 100;
#X msg 49 147 1;
#X obj 65 230 step1, f 9;
#X obj 66 343 tgl 25 0 empty empty empty 0 -10 0 12 #c6feff #000000 #000000 0 1;
#X obj 179 341 tgl 25 0 empty empty empty 0 -10 0 12 #c6feff #000000 #000000 0 1;
#X obj 288 337 tgl 25 0 empty empty empty 0 -10 0 12 #c6feff #000000 #000000 0 1;
#X obj 401 340 tgl 25 0 empty empty empty 0 -10 0 12 #c6feff #000000 #000000 0 1;
#X text 263 32 3 b \, 4s \, 5 c;
#X text 371 26 in: df \, clk \, rs \, mode \, db. out:db \, lamp \, df \, clk;
#X msg 128 158 3;
#X obj 168 232 step1, f 9;
#X msg 209 157 4;
#X obj 274 233 step1, f 9;
#X msg 315 158 4;
#X obj 376 233 step1, f 9;
#X msg 439 161 3;
#X msg 101 130 1;
#X msg 138 128 0;
#X msg 191 117 1;
#X msg 228 115 0;
#X msg 291 116 1;
#X msg 328 114 0;
#X msg 382 120 1;
#X msg 419 118 0;
#X text 551 64 db används inte korrekt;
#X msg 136 186 4;
#X msg 236 183 3;
#X msg 502 130 5;
#X connect 0 0 1 0;
#X connect 1 0 6 0;
#X connect 2 0 0 0;
#X connect 3 0 0 1;
#X connect 4 0 0 1;
#X connect 5 0 0 1;
#X connect 6 0 7 0;
#X connect 7 1 8 0;
#X connect 7 2 15 0;
#X connect 7 3 15 1;
#X connect 14 0 7 3;
#X connect 15 0 7 4;
#X connect 15 1 9 0;
#X connect 15 2 17 0;
#X connect 15 3 17 1;
#X connect 16 0 15 3;
#X connect 17 0 15 4;
#X connect 17 1 10 0;
#X connect 17 2 19 0;
#X connect 17 3 19 1;
#X connect 18 0 17 3;
#X connect 19 0 17 4;
#X connect 19 1 11 0;
#X connect 20 0 19 3;
#X connect 21 0 7 2;
#X connect 22 0 7 2;
#X connect 23 0 15 2;
#X connect 24 0 15 2;
#X connect 25 0 17 2;
#X connect 26 0 17 2;
#X connect 27 0 19 2;
#X connect 28 0 19 2;
#X connect 30 0 7 3;
#X connect 31 0 15 3;
#X connect 32 0 19 3;
#X connect 32 0 17 3;
#X connect 32 0 15 3;
#X connect 32 0 7 3;
