#N canvas 152 152 1920 1016 12;
#X obj 49 99 metro 1500;
#X obj 49 123 tgl 19 0 empty empty empty 0 -10 0 12 #fcfcfc #000000 #000000 0 1;
#X obj 49 50 tgl 19 0 empty empty empty 0 -10 0 12 #fcfcfc #000000 #000000 0 1;
#X msg 116 48 500;
#X msg 85 49 750;
#X msg 147 48 100;
#X msg 49 147 1;
#X text 263 32 3 b \, 4s \, 5 c;
#X obj 44 244 step, f 16;
#X text 371 26 in: df \, clk \, rs \, mode \, db. out:db \, lamp \, df \, clk;
#X text 259 58 sekvens count;
#X obj 178 243 step, f 16;
#X obj 308 244 step, f 16;
#X obj 442 243 step, f 16;
#X obj 80 354 tgl 25 0 empty empty empty 0 -10 0 12 #c6feff #000000 #000000 0 1;
#X obj 214 358 tgl 25 0 empty empty empty 0 -10 0 12 #c6feff #000000 #000000 0 1;
#X obj 344 360 tgl 25 0 empty empty empty 0 -10 0 12 #c6feff #000000 #000000 0 1;
#X obj 478 364 tgl 25 0 empty empty empty 0 -10 0 12 #c6feff #000000 #000000 0 1;
#X msg 240 132 5;
#X msg 277 132 4;
#X msg 312 130 3;
#X msg 183 131 1;
#X msg 145 132 0;
#X obj 419 99 bng 19 250 50 0 empty empty empty 0 -10 0 12 #fcfcfc #000000 #000000;
#X msg 380 132 4;
#X msg 416 132 3;
#X msg 453 132 5;
#X text 556 81 db funkar ej \, bytte db i count så ev kolla där igen men känns som att vi inte gör på rätt sätt.... det har väl funkat när jag bara använder s2? kolla det igen för att lista ut var problemet ligger. Abstraktion eller hårdkådning. Testa även att koppla ihop med count om s2 fungerar som det ska... omg är så trött och fattar inte vad jag håller på med. Bytte db i count värt att kolla igen där om det var rätt beslut.;
#X connect 0 0 1 0;
#X connect 1 0 6 0;
#X connect 2 0 0 0;
#X connect 3 0 0 1;
#X connect 4 0 0 1;
#X connect 5 0 0 1;
#X connect 6 0 8 0;
#X connect 8 1 14 0;
#X connect 8 2 11 0;
#X connect 8 3 11 1;
#X connect 11 0 8 4;
#X connect 11 1 15 0;
#X connect 11 2 12 0;
#X connect 11 3 12 1;
#X connect 12 0 11 4;
#X connect 12 1 16 0;
#X connect 12 2 13 0;
#X connect 12 3 13 1;
#X connect 13 0 12 4;
#X connect 13 1 17 0;
#X connect 18 0 12 3;
#X connect 18 0 8 3;
#X connect 18 0 11 3;
#X connect 18 0 13 3;
#X connect 19 0 12 3;
#X connect 19 0 8 3;
#X connect 19 0 11 3;
#X connect 19 0 13 3;
#X connect 20 0 12 3;
#X connect 20 0 8 3;
#X connect 20 0 11 3;
#X connect 20 0 13 3;
#X connect 21 0 12 2;
#X connect 21 0 8 2;
#X connect 21 0 11 2;
#X connect 21 0 13 2;
#X connect 22 0 12 2;
#X connect 22 0 8 2;
#X connect 22 0 11 2;
#X connect 22 0 13 2;
#X connect 23 0 24 0;
#X connect 23 0 25 0;
#X connect 23 0 26 0;
#X connect 24 0 12 3;
#X connect 24 0 11 3;
#X connect 25 0 8 3;
#X connect 26 0 13 3;
