#N canvas 190 190 1920 1016 12;
#X obj 799 144 f;
#X obj 799 120 sel 1;
#X obj 799 218 tgl 19 0 empty empty empty 0 -10 0 12 #fcfcfc #000000 #000000 0 1;
#X obj 799 168 t f f;
#X obj 799 192 != 1;
#X obj 848 143 f;
#X obj 848 120 sel 1;
#X obj 848 218 tgl 19 0 empty empty empty 0 -10 0 12 #fcfcfc #000000 #000000 0 1;
#X obj 848 167 t f f;
#X obj 848 191 != 1;
#X obj 894 143 f;
#X obj 894 120 sel 1;
#X obj 894 218 tgl 19 0 empty empty empty 0 -10 0 12 #fcfcfc #000000 #000000 0 1;
#X obj 894 167 t f f;
#X obj 894 191 != 1;
#X obj 27 105 == 1;
#X obj 9 147 f;
#X msg 9 27 1;
#X obj 9 51 sel 1;
#X obj 9 201 tgl 19 0 empty empty empty 0 -10 0 12 #fcfcfc #000000 #000000 0 1;
#X obj 27 79 tgl 19 0 empty empty empty 0 -10 0 12 #fcfcfc #000000 #000000 0 1;
#X obj 84 105 == 1;
#X obj 66 147 f;
#X obj 66 202 tgl 19 0 empty empty empty 0 -10 0 12 #fcfcfc #000000 #000000 0 1;
#X obj 84 79 tgl 19 0 empty empty empty 0 -10 0 12 #fcfcfc #000000 #000000 0 1;
#X obj 9 171 t f b;
#X text 883 46 Count;
#X text 12 4 Shift;
#X text 74 21 lampan är innan......;
#X obj 798 293 tgl 19 0 empty empty empty 0 -10 0 12 #fcfcfc #000000 #000000 0 1;
#X obj 831 292 tgl 19 0 empty empty empty 0 -10 0 12 #fcfcfc #000000 #000000 0 1;
#X obj 880 292 tgl 19 0 empty empty empty 0 -10 0 12 #fcfcfc #000000 #000000 0 1;
#X obj 799 65 f;
#X obj 799 32 bng 19 250 50 0 empty empty empty 0 -10 0 12 #fcfcfc #000000 #000000;
#X obj 799 89 != 1;
#X obj 831 262 != 1;
#X obj 880 263 != 1;
#X obj 141 104 == 1;
#X obj 123 146 f;
#X obj 123 200 tgl 19 0 empty empty empty 0 -10 0 12 #fcfcfc #000000 #000000 0 1;
#X obj 141 78 tgl 19 0 empty empty empty 0 -10 0 12 #fcfcfc #000000 #000000 0 1;
#X obj 198 104 == 1;
#X obj 180 146 f;
#X obj 180 200 tgl 19 0 empty empty empty 0 -10 0 12 #fcfcfc #000000 #000000 0 1;
#X obj 198 78 tgl 19 0 empty empty empty 0 -10 0 12 #fcfcfc #000000 #000000 0 1;
#X obj 123 170 t f b;
#X obj 66 171 t f b;
#X obj 180 170 t f b;
#X obj 298 142 f;
#X msg 298 22 1;
#X obj 298 46 sel 1;
#X obj 298 196 tgl 19 0 empty empty empty 0 -10 0 12 #fcfcfc #000000 #000000 0 1;
#X obj 316 74 tgl 19 0 empty empty empty 0 -10 0 12 #fcfcfc #000000 #000000 0 1;
#X obj 298 166 t f b;
#X obj 316 100 != 1;
#X obj 382 102 == 1;
#X obj 364 144 f;
#X obj 364 198 tgl 19 0 empty empty empty 0 -10 0 12 #fcfcfc #000000 #000000 0 1;
#X obj 382 76 tgl 19 0 empty empty empty 0 -10 0 12 #fcfcfc #000000 #000000 0 1;
#X obj 364 168 t f b;
#X obj 443 104 == 1;
#X obj 425 146 f;
#X obj 425 200 tgl 19 0 empty empty empty 0 -10 0 12 #fcfcfc #000000 #000000 0 1;
#X obj 443 78 tgl 19 0 empty empty empty 0 -10 0 12 #fcfcfc #000000 #000000 0 1;
#X obj 425 170 t f b;
#X obj 492 146 f;
#X obj 492 200 tgl 19 0 empty empty empty 0 -10 0 12 #fcfcfc #000000 #000000 0 1;
#X obj 510 47 tgl 19 0 empty empty empty 0 -10 0 12 #fcfcfc #000000 #000000 0 1;
#X obj 492 170 t f b;
#X obj 510 73 != 1;
#X obj 510 97 != 1;
#X obj 510 121 sel 1;
#X obj 555 122 tgl 19 0 empty empty empty 0 -10 0 12 #fcfcfc #000000 #000000 0 1;
#X obj 178 391 f;
#X obj 178 445 tgl 19 0 empty empty empty 0 -10 0 12 #fcfcfc #000000 #000000 0 1;
#X obj 178 291 tgl 19 0 empty empty empty 0 -10 0 12 #fcfcfc #000000 #000000 0 1;
#X obj 178 317 sel 1;
#X obj 196 367 tgl 19 0 empty empty empty 0 -10 0 12 #fcfcfc #000000 #000000 0 1;
#X obj 247 393 f;
#X obj 247 448 tgl 19 0 empty empty empty 0 -10 0 12 #fcfcfc #000000 #000000 0 1;
#X obj 265 368 tgl 19 0 empty empty empty 0 -10 0 12 #fcfcfc #000000 #000000 0 1;
#X obj 247 417 t f b;
#X obj 178 415 t f b b;
#X obj 304 392 f;
#X obj 304 447 tgl 19 0 empty empty empty 0 -10 0 12 #fcfcfc #000000 #000000 0 1;
#X obj 322 367 tgl 19 0 empty empty empty 0 -10 0 12 #fcfcfc #000000 #000000 0 1;
#X obj 304 416 t f b;
#X obj 321 333 f;
#X obj 261 333 f;
#X obj 363 391 f;
#X obj 363 445 tgl 19 0 empty empty empty 0 -10 0 12 #fcfcfc #000000 #000000 0 1;
#X obj 363 291 tgl 19 0 empty empty empty 0 -10 0 12 #fcfcfc #000000 #000000 0 1;
#X obj 363 317 sel 1;
#X obj 381 367 tgl 19 0 empty empty empty 0 -10 0 12 #fcfcfc #000000 #000000 0 1;
#X obj 363 415 t f b b;
#X obj 436 391 f;
#X obj 436 446 tgl 19 0 empty empty empty 0 -10 0 12 #fcfcfc #000000 #000000 0 1;
#X obj 454 366 tgl 19 0 empty empty empty 0 -10 0 12 #fcfcfc #000000 #000000 0 1;
#X obj 436 415 t f b;
#X obj 493 390 f;
#X obj 493 445 tgl 19 0 empty empty empty 0 -10 0 12 #fcfcfc #000000 #000000 0 1;
#X obj 511 365 tgl 19 0 empty empty empty 0 -10 0 12 #fcfcfc #000000 #000000 0 1;
#X obj 493 414 t f b;
#X obj 510 331 f;
#X obj 450 331 f;
#X obj 572 311 tgl 19 0 empty empty empty 0 -10 0 12 #fcfcfc #000000 #000000 0 1;
#X obj 630 424 sel 1;
#X obj 551 447 f;
#X obj 671 183 sel 1;
#X obj 671 158 f;
#X connect 0 0 3 0;
#X connect 1 0 0 0;
#X connect 3 0 4 0;
#X connect 3 1 6 0;
#X connect 3 1 35 0;
#X connect 4 0 2 0;
#X connect 4 0 0 1;
#X connect 5 0 8 0;
#X connect 6 0 5 0;
#X connect 8 0 9 0;
#X connect 8 1 11 0;
#X connect 8 1 36 0;
#X connect 9 0 7 0;
#X connect 9 0 5 1;
#X connect 10 0 13 0;
#X connect 11 0 10 0;
#X connect 13 0 14 0;
#X connect 14 0 12 0;
#X connect 14 0 10 1;
#X connect 15 0 16 1;
#X connect 16 0 25 0;
#X connect 17 0 18 0;
#X connect 18 0 16 0;
#X connect 19 0 24 0;
#X connect 20 0 15 0;
#X connect 21 0 22 1;
#X connect 22 0 46 0;
#X connect 23 0 40 0;
#X connect 24 0 21 0;
#X connect 25 0 19 0;
#X connect 25 1 22 0;
#X connect 32 0 34 0;
#X connect 32 0 29 0;
#X connect 33 0 32 0;
#X connect 34 0 1 0;
#X connect 34 0 32 1;
#X connect 35 0 30 0;
#X connect 36 0 31 0;
#X connect 37 0 38 1;
#X connect 38 0 45 0;
#X connect 39 0 44 0;
#X connect 40 0 37 0;
#X connect 41 0 42 1;
#X connect 42 0 47 0;
#X connect 43 0 20 0;
#X connect 44 0 41 0;
#X connect 45 0 39 0;
#X connect 45 1 42 0;
#X connect 46 0 23 0;
#X connect 46 1 38 0;
#X connect 47 0 43 0;
#X connect 48 0 53 0;
#X connect 49 0 50 0;
#X connect 50 0 48 0;
#X connect 51 0 58 0;
#X connect 52 0 54 0;
#X connect 53 0 51 0;
#X connect 53 1 56 0;
#X connect 54 0 48 1;
#X connect 55 0 56 1;
#X connect 56 0 59 0;
#X connect 57 0 63 0;
#X connect 58 0 55 0;
#X connect 59 0 57 0;
#X connect 59 1 61 0;
#X connect 60 0 61 1;
#X connect 61 0 64 0;
#X connect 62 0 67 0;
#X connect 63 0 60 0;
#X connect 64 0 62 0;
#X connect 65 0 68 0;
#X connect 67 0 69 0;
#X connect 68 0 66 0;
#X connect 69 0 52 0;
#X connect 69 0 70 0;
#X connect 70 0 71 0;
#X connect 71 0 65 0;
#X connect 72 0 65 1;
#X connect 73 0 82 0;
#X connect 74 0 80 0;
#X connect 75 0 76 0;
#X connect 76 0 73 0;
#X connect 77 0 73 1;
#X connect 78 0 81 0;
#X connect 79 0 85 0;
#X connect 80 0 78 1;
#X connect 81 0 79 0;
#X connect 81 1 83 0;
#X connect 82 0 74 0;
#X connect 82 1 78 0;
#X connect 83 0 86 0;
#X connect 84 0 91 0;
#X connect 84 0 109 1;
#X connect 85 0 83 1;
#X connect 86 0 84 0;
#X connect 86 1 109 0;
#X connect 87 0 88 0;
#X connect 88 0 77 0;
#X connect 89 0 94 0;
#X connect 90 0 97 0;
#X connect 91 0 92 0;
#X connect 91 0 87 0;
#X connect 92 0 89 0;
#X connect 93 0 89 1;
#X connect 94 0 90 0;
#X connect 94 1 95 0;
#X connect 95 0 98 0;
#X connect 96 0 101 0;
#X connect 97 0 95 1;
#X connect 98 0 96 0;
#X connect 98 1 99 0;
#X connect 99 0 102 0;
#X connect 100 0 107 1;
#X connect 101 0 99 1;
#X connect 102 0 100 0;
#X connect 102 1 107 0;
#X connect 103 0 104 0;
#X connect 104 0 93 0;
#X connect 105 0 103 0;
#X connect 107 0 106 0;
#X connect 108 0 0 0;
#X connect 109 0 108 0;
