#N canvas -6 -34 1920 1016 12;
#X text 15 11 B0S1C2C3B4S5C6C7- BSCCBSCC;
#X obj 95 198 break, f 7;
#X obj 171 198 shift, f 8;
#X obj 256 199 count, f 7;
#X text 232 11 in: K \, CLK \, J \, reset \, trg;
#X obj 81 64 tgl 19 0 empty empty empty 0 -10 0 12 #fcfcfc #000000 #000000 0 1;
#X obj 81 88 metro 1500;
#X obj 81 112 tgl 19 0 empty empty empty 0 -10 0 12 #fcfcfc #000000 #000000 0 1;
#X msg 122 60 500;
#X msg 156 60 1000;
#X text 235 30 out: !Q \, Q \, clk;
#X obj 118 243 tgl 25 0 empty empty empty 0 -10 0 12 #c6feff #000000 #000000 0 1;
#X obj 198 245 tgl 25 0 empty empty empty 0 -10 0 12 #c6feff #000000 #000000 0 1;
#X obj 279 245 tgl 25 0 empty empty empty 0 -10 0 12 #c6feff #000000 #000000 0 1;
#X text 430 20 Vi måste hitta ett sätt att koppla DB (men inte nödvändigtvis använder);
#X obj 326 199 count, f 7;
#X obj 349 245 tgl 25 0 empty empty empty 0 -10 0 12 #c6feff #000000 #000000 0 1;
#X obj 257 168 t f f f;
#X obj 328 167 t f f f;
#X obj 398 202 break, f 7;
#X obj 474 202 shift, f 8;
#X obj 559 203 count, f 7;
#X obj 421 247 tgl 25 0 empty empty empty 0 -10 0 12 #c6feff #000000 #000000 0 1;
#X obj 501 249 tgl 25 0 empty empty empty 0 -10 0 12 #c6feff #000000 #000000 0 1;
#X obj 582 249 tgl 25 0 empty empty empty 0 -10 0 12 #c6feff #000000 #000000 0 1;
#X obj 629 203 count, f 7;
#X obj 652 249 tgl 25 0 empty empty empty 0 -10 0 12 #c6feff #000000 #000000 0 1;
#X obj 560 172 t f f f;
#X obj 631 171 t f f f;
#X obj 199 352 tgl 25 0 empty empty empty 0 -10 0 12 #feffc6 #000000 #000000 0 1;
#X obj 280 351 tgl 25 0 empty empty empty 0 -10 0 12 #feffc6 #000000 #000000 0 1;
#X obj 355 350 tgl 25 0 empty empty empty 0 -10 0 12 #feffc6 #000000 #000000 0 1;
#X obj 426 352 tgl 25 0 empty empty empty 0 -10 0 12 #feffc6 #000000 #000000 0 1;
#X obj 500 352 tgl 25 0 empty empty empty 0 -10 0 12 #feffc6 #000000 #000000 0 1;
#X obj 120 353 tgl 25 0 empty empty empty 0 -10 0 12 #feffc6 #000000 #000000 0 1;
#X obj 577 353 tgl 25 0 empty empty empty 0 -10 0 12 #feffc6 #000000 #000000 0 1;
#X obj 651 353 tgl 25 0 empty empty empty 0 -10 0 12 #feffc6 #000000 #000000 0 1;
#X obj 773 247 bng 19 250 50 0 empty empty empty 0 -10 0 12 #fcfcfc #000000 #000000;
#X connect 1 0 2 0;
#X connect 1 0 34 0;
#X connect 1 1 11 0;
#X connect 1 1 2 2;
#X connect 1 2 2 1;
#X connect 2 0 29 0;
#X connect 2 1 12 0;
#X connect 2 2 17 0;
#X connect 3 0 30 0;
#X connect 3 1 13 0;
#X connect 3 2 18 0;
#X connect 5 0 6 0;
#X connect 6 0 7 0;
#X connect 7 0 1 1;
#X connect 7 0 1 4;
#X connect 7 0 19 4;
#X connect 8 0 6 1;
#X connect 9 0 6 1;
#X connect 15 0 31 0;
#X connect 15 1 16 0;
#X connect 15 2 19 1;
#X connect 17 0 3 1;
#X connect 17 1 3 0;
#X connect 17 2 3 2;
#X connect 18 0 15 1;
#X connect 18 1 15 0;
#X connect 18 2 15 2;
#X connect 19 0 20 0;
#X connect 19 0 32 0;
#X connect 19 1 22 0;
#X connect 19 1 20 2;
#X connect 19 2 20 1;
#X connect 20 0 33 0;
#X connect 20 1 23 0;
#X connect 20 2 27 0;
#X connect 21 0 35 0;
#X connect 21 1 24 0;
#X connect 21 2 28 0;
#X connect 25 0 36 0;
#X connect 25 1 26 0;
#X connect 25 2 37 0;
#X connect 27 0 21 1;
#X connect 27 1 21 0;
#X connect 27 2 21 2;
#X connect 28 0 25 1;
#X connect 28 1 25 0;
#X connect 28 2 25 2;
