#N canvas 228 228 1920 1016 12;
#X obj 154 94 tgl 19 0 empty empty empty 0 -10 0 12 #fcfcfc #000000 #000000 0 1;
#X obj 154 118 metro 1500;
#X obj 154 142 tgl 19 0 empty empty empty 0 -10 0 12 #fcfcfc #000000 #000000 0 1;
#X msg 618 98 0;
#X msg 659 98 1;
#X obj 457 369 tgl 25 0 empty empty empty 0 -10 0 12 #c6feff #000000 #000000 0 1;
#X obj 495 369 tgl 25 0 empty empty empty 0 -10 0 12 #c6feff #000000 #000000 0 1;
#X obj 532 369 tgl 25 0 empty empty empty 0 -10 0 12 #c6feff #000000 #000000 0 1;
#X obj 568 370 tgl 25 0 empty empty empty 0 -10 0 12 #c6feff #000000 #000000 0 1;
#X obj 453 446 tgl 25 0 empty empty empty 0 -10 0 12 #feffc6 #000000 #000000 0 1;
#X obj 501 446 tgl 25 0 empty empty empty 0 -10 0 12 #feffc6 #000000 #000000 0 1;
#X obj 538 445 tgl 25 0 empty empty empty 0 -10 0 12 #feffc6 #000000 #000000 0 1;
#X obj 575 445 tgl 25 0 empty empty empty 0 -10 0 12 #feffc6 #000000 #000000 0 1;
#X obj 401 262 f;
#X obj 401 285 t f f;
#X obj 401 309 != 1;
#X obj 483 258 f;
#X obj 483 281 t f f;
#X obj 483 305 != 1;
#X obj 561 256 f;
#X obj 561 279 t f f;
#X obj 561 303 != 1;
#X obj 633 261 f;
#X obj 633 284 t f f;
#X obj 633 308 != 1;
#X obj 702 262 f;
#X obj 702 285 t f f;
#X obj 702 309 != 1;
#X obj 618 369 tgl 25 0 empty empty empty 0 -10 0 12 #c6feff #000000 #000000 0 1;
#X obj 625 444 tgl 25 0 empty empty empty 0 -10 0 12 #feffc6 #000000 #000000 0 1;
#X obj 206 253 JKFF C0;
#X obj 217 399 JKFF S0;
#X obj 461 229 JKFF S1;
#X obj 539 228 JKFF S2;
#X obj 613 229 JKFF S3;
#X obj 682 230 JKFF S3;
#X obj 398 447 tgl 25 0 empty empty empty 0 -10 0 12 #feffc6 #000000 #000000 0 1;
#X obj 399 365 tgl 25 0 empty empty empty 0 -10 0 12 #c6feff #000000 #000000 0 1;
#X msg 255 158 1;
#X obj 178 181 bang;
#X msg 295 276 1;
#X msg 442 97 0;
#X msg 568 97 1;
#X obj 169 298 f;
#X obj 169 321 t f f;
#X obj 169 345 != 1;
#X msg 235 82 500;
#X connect 0 0 1 0;
#X connect 1 0 2 0;
#X connect 2 0 30 1;
#X connect 2 0 39 0;
#X connect 3 0 31 3;
#X connect 3 0 33 3;
#X connect 4 0 32 3;
#X connect 4 0 34 3;
#X connect 4 0 35 3;
#X connect 13 0 14 0;
#X connect 14 0 15 0;
#X connect 14 1 5 0;
#X connect 14 1 32 2;
#X connect 15 0 9 0;
#X connect 15 0 32 0;
#X connect 16 0 17 0;
#X connect 17 0 18 0;
#X connect 17 1 6 0;
#X connect 17 1 33 2;
#X connect 18 0 10 0;
#X connect 18 0 33 0;
#X connect 19 0 20 0;
#X connect 20 0 21 0;
#X connect 20 1 7 0;
#X connect 20 1 34 2;
#X connect 21 0 11 0;
#X connect 21 0 34 0;
#X connect 22 0 23 0;
#X connect 23 0 24 0;
#X connect 23 1 8 0;
#X connect 23 1 35 2;
#X connect 24 0 12 0;
#X connect 24 0 35 0;
#X connect 25 0 26 0;
#X connect 26 0 27 0;
#X connect 26 1 28 0;
#X connect 27 0 29 0;
#X connect 30 0 37 0;
#X connect 30 0 43 1;
#X connect 30 1 36 0;
#X connect 30 1 40 0;
#X connect 31 1 13 1;
#X connect 32 1 16 1;
#X connect 33 1 19 1;
#X connect 34 1 22 1;
#X connect 35 1 25 1;
#X connect 38 0 30 2;
#X connect 38 0 30 0;
#X connect 39 0 13 0;
#X connect 39 0 16 0;
#X connect 39 0 19 0;
#X connect 39 0 22 0;
#X connect 39 0 25 0;
#X connect 39 0 43 0;
#X connect 40 0 31 1;
#X connect 40 0 32 1;
#X connect 40 0 33 1;
#X connect 40 0 34 1;
#X connect 40 0 35 1;
#X connect 41 0 13 0;
#X connect 41 0 16 0;
#X connect 41 0 19 0;
#X connect 41 0 22 0;
#X connect 41 0 25 0;
#X connect 42 0 33 3;
#X connect 42 0 31 3;
#X connect 43 0 44 0;
#X connect 44 0 45 0;
#X connect 44 1 31 2;
#X connect 45 0 31 0;
#X connect 46 0 1 1;
