#N canvas -11 -11 1920 1016 12;
#X obj 131 36 tgl 19 0 empty empty empty 0 -10 0 12 #fcfcfc #000000 #000000 0 1;
#X obj 131 60 metro 500;
#X obj 131 84 tgl 19 0 empty empty empty 0 -10 0 12 #fcfcfc #000000 #000000 0 1;
#X msg 75 80 1;
#X obj 218 240 t f f;
#X obj 279 255 &&;
#X obj 161 185 t f f f;
#X obj 269 229 t b f;
#X obj 122 161 JKFF A;
#X obj 179 210 JKFF B;
#X obj 276 332 JKFF C;
#X obj 277 307 t f f;
#X obj 329 360 &&;
#X obj 342 329 t b f;
#X obj 329 384 t f f;
#X obj 279 279 t f f;
#X obj 329 422 JKFF D;
#X obj 203 121 t f f f f;
#X obj 290 153 tgl 25 0 empty empty empty 0 -10 0 12 #c6feff #000000 #000000 0 1;
#X obj 328 153 tgl 25 0 empty empty empty 0 -10 0 12 #c6feff #000000 #000000 0 1;
#X obj 366 155 tgl 25 0 empty empty empty 0 -10 0 12 #c6feff #000000 #000000 0 1;
#X obj 402 156 tgl 25 0 empty empty empty 0 -10 0 12 #c6feff #000000 #000000 0 1;
#X obj 73 198 tgl 25 0 empty empty empty 0 -10 0 12 #feffc6 #000000 #000000 0 1;
#X obj 78 262 tgl 25 0 empty empty empty 0 -10 0 12 #feffc6 #000000 #000000 0 1;
#X obj 107 370 tgl 25 0 empty empty empty 0 -10 0 12 #feffc6 #000000 #000000 0 1;
#X obj 128 452 tgl 25 0 empty empty empty 0 -10 0 12 #feffc6 #000000 #000000 0 1;
#X connect 0 0 1 0;
#X connect 1 0 2 0;
#X connect 2 0 17 0;
#X connect 3 0 8 0;
#X connect 3 0 8 2;
#X connect 4 1 5 0;
#X connect 5 0 15 0;
#X connect 6 0 7 0;
#X connect 6 1 9 0;
#X connect 6 2 9 2;
#X connect 7 0 5 0;
#X connect 7 1 5 1;
#X connect 8 0 22 0;
#X connect 8 1 6 0;
#X connect 8 1 18 0;
#X connect 9 0 23 0;
#X connect 9 1 4 0;
#X connect 9 1 19 0;
#X connect 10 0 24 0;
#X connect 10 1 13 0;
#X connect 10 1 20 0;
#X connect 11 0 10 0;
#X connect 11 1 10 2;
#X connect 12 0 14 0;
#X connect 13 0 12 0;
#X connect 13 1 12 1;
#X connect 14 0 16 0;
#X connect 14 1 16 2;
#X connect 15 0 11 0;
#X connect 15 1 12 0;
#X connect 16 0 25 0;
#X connect 16 1 21 0;
#X connect 17 0 16 1;
#X connect 17 1 10 1;
#X connect 17 2 9 1;
#X connect 17 3 8 1;
