#N canvas 140 -30 1920 1016 12;
#X obj 144 184 stage1;
#X obj 250 182 mode, f 13;
#X obj 431 181 stage10, f 14;
#X obj 16 159 tgl 19 0 empty empty empty 0 -10 0 12 #fcfcfc #000000 #000000 0 1;
#X obj 45 158 tgl 19 0 empty empty empty 0 -10 0 12 #fcfcfc #000000 #000000 0 1;
#X obj 77 158 tgl 19 0 empty empty empty 0 -10 0 12 #fcfcfc #000000 #000000 0 1;
#X obj 59 421 tgl 19 0 empty empty empty 0 -10 0 12 #fcfcfc #000000 #000000 0 1;
#X obj 84 422 bng 19 250 50 0 empty empty empty 0 -10 0 12 #fcfcfc #000000 #000000;
#X obj 119 421 tgl 19 0 empty empty empty 0 -10 0 12 #fcfcfc #000000 #000000 0 1;
#X obj 144 422 bng 19 250 50 0 empty empty empty 0 -10 0 12 #fcfcfc #000000 #000000;
#X obj 177 425 tgl 19 0 empty empty empty 0 -10 0 12 #fcfcfc #000000 #000000 0 1;
#X obj 202 426 bng 19 250 50 0 empty empty empty 0 -10 0 12 #fcfcfc #000000 #000000;
#X obj 200 51 tgl 19 0 empty empty empty 0 -10 0 12 #fcfcfc #000000 #000000 0 1;
#X obj 200 75 metro 500;
#X obj 145 19 vradio 19 1 0 3 empty empty empty 0 -10 0 12 #fcfcfc #000000 #000000 0;
#X floatatom 145 106 5 0 0 0 - - - 0;
#X obj 145 81 + 1;
#X obj 304 42 vradio 19 1 0 3 empty empty empty 0 -10 0 12 #fcfcfc #000000 #000000 0;
#X floatatom 304 129 5 0 0 0 - - - 0;
#X obj 304 104 + 1;
#X obj 499 13 vradio 19 1 0 3 empty empty empty 0 -10 0 12 #fcfcfc #000000 #000000 0;
#X floatatom 499 100 5 0 0 0 - - - 0;
#X obj 499 75 + 1;
#X obj 200 99 tgl 19 0 empty empty empty 0 -10 0 12 #fcfcfc #000000 #000000 0 1;
#X connect 0 0 6 0;
#X connect 0 0 7 0;
#X connect 0 1 8 0;
#X connect 0 1 9 0;
#X connect 0 2 10 0;
#X connect 0 2 11 0;
#X connect 2 3 1 0;
#X connect 3 0 0 0;
#X connect 4 0 0 1;
#X connect 5 0 0 2;
#X connect 12 0 13 0;
#X connect 13 0 23 0;
#X connect 14 0 16 0;
#X connect 15 0 0 1;
#X connect 16 0 15 0;
#X connect 17 0 19 0;
#X connect 18 0 1 4;
#X connect 19 0 18 0;
#X connect 20 0 22 0;
#X connect 21 0 2 4;
#X connect 22 0 21 0;
#X connect 23 0 0 2;
