#N canvas 366 28 1920 1016 12;
#X obj 107 144 3NAND;
#X obj 315 145 3NAND;
#X obj 107 262 NAND;
#X obj 286 258 NAND;
#X obj 267 302 f;
#X obj 89 302 f;
#X text 308 308 Q;
#X text 35 299 invQ;
#X obj 69 71 inlet K;
#X obj 349 74 inlet J;
#X obj 221 12 inlet clk;
#X obj 267 354 outlet Q;
#X obj 89 358 outlet invQ;
#X msg 122 11 1;
#X msg 160 11 0;
#X msg 432 47 1;
#X msg 470 47 0;
#X msg 357 24 1;
#X msg 395 24 0;
#X obj 212 128 sel 1;
#X floatatom 367 354 5 0 0 0 - - - 0;
#X floatatom 22 351 5 0 0 0 - - - 0;
#X floatatom 33 267 5 0 0 0 - - - 0;
#X floatatom 349 292 5 0 0 0 - - - 0;
#X floatatom 355 185 5 0 0 0 - - - 0;
#X floatatom 61 185 5 0 0 0 - - - 0;
#X obj 233 66 tgl 19 0 empty empty empty 0 -10 0 12 #fcfcfc #000000 #000000 0 1;
#X obj 274 157 bng 19 250 50 0 empty empty empty 0 -10 0 12 #fcfcfc #000000 #000000;
#X connect 0 0 2 0;
#X connect 0 0 25 0;
#X connect 1 0 3 1;
#X connect 1 0 24 0;
#X connect 2 0 5 1;
#X connect 2 0 22 0;
#X connect 3 0 4 1;
#X connect 3 0 23 0;
#X connect 4 0 2 1;
#X connect 4 0 0 0;
#X connect 4 0 11 0;
#X connect 4 0 20 0;
#X connect 5 0 3 0;
#X connect 5 0 1 2;
#X connect 5 0 12 0;
#X connect 5 0 21 0;
#X connect 8 0 0 1;
#X connect 9 0 1 1;
#X connect 10 0 0 2;
#X connect 10 0 1 0;
#X connect 10 0 19 0;
#X connect 13 0 0 1;
#X connect 14 0 0 1;
#X connect 15 0 1 1;
#X connect 16 0 1 1;
#X connect 17 0 0 2;
#X connect 17 0 1 0;
#X connect 18 0 0 2;
#X connect 18 0 1 0;
#X connect 19 0 27 0;
#X connect 19 0 4 0;
#X connect 19 0 5 0;
#X connect 26 0 19 0;
