#N canvas 38 38 1118 926 12;
#X obj 150 58 tgl 24 0 empty empty K 0 -10 0 12 #ffe3c6 #000000 #000000 0 1;
#X obj 341 55 tgl 24 0 empty empty CLK 0 -10 0 12 #feffc6 #000000 #000000 0 1;
#X obj 502 55 tgl 24 0 empty empty J 0 -10 0 12 #c6ffc7 #000000 #000000 0 1;
#X obj 56 315 tgl 24 0 empty empty RS 0 -10 0 12 #ffc7c6 #000000 #000000 0 1;
#X obj 141 139 3NAND;
#X obj 494 153 3NAND;
#X obj 322 144 != 1;
#X obj 150 204 NAND;
#X obj 462 221 NAND;
#X obj 443 258 f;
#X obj 154 247 f;
#X obj 418 298 NAND;
#X obj 154 297 NAND;
#X obj 148 344 3NAND;
#X obj 420 343 NAND;
#X obj 416 384 f;
#X obj 154 388 f;
#X obj 161 431 tgl 24 0 empty empty !Q 0 -10 0 12 #c6feff #000000 #000000 0 1;
#X obj 405 433 tgl 24 0 empty empty Q 0 -10 0 12 #e3c6ff #000000 #000000 0 1;
#X obj 203 416 print !Q;
#X obj 453 418 print Q;
#X obj 327 97 bang;
#X connect 0 0 4 1;
#X connect 1 0 6 0;
#X connect 1 0 21 0;
#X connect 1 0 5 0;
#X connect 1 0 4 2;
#X connect 2 0 5 1;
#X connect 3 0 13 0;
#X connect 4 0 7 0;
#X connect 5 0 8 1;
#X connect 6 0 11 1;
#X connect 6 0 12 0;
#X connect 7 0 10 1;
#X connect 8 0 9 1;
#X connect 9 0 7 1;
#X connect 9 0 11 0;
#X connect 10 0 8 0;
#X connect 10 0 12 1;
#X connect 11 0 14 1;
#X connect 12 0 13 1;
#X connect 13 0 16 1;
#X connect 14 0 15 1;
#X connect 15 0 18 0;
#X connect 15 0 20 0;
#X connect 15 0 13 2;
#X connect 15 0 4 0;
#X connect 16 0 14 0;
#X connect 16 0 17 0;
#X connect 16 0 19 0;
#X connect 16 0 5 2;
#X connect 21 0 16 0;
#X connect 21 0 10 0;
#X connect 21 0 9 0;
#X connect 21 0 15 0;
