#N canvas 152 152 1587 780 12;
#X obj 66 31 inlet DB;
#X msg 335 72 1;
#X msg 408 72 0;
#X obj 358 25 loadbang;
#X obj 336 132 switch_C-RB;
#X obj 200 32 inlet mode;
#X obj 70 192 NOR;
#X obj 89 232 NOR;
#X obj 526 17 inlet timer;
#X obj 519 438 outlet S;
#X obj 315 440 outlet RS;
#X obj 57 433 outlet DF;
#X obj 325 237 switch_B-CR;
#X obj 318 313 switch_C-RB;
#X text 555 188 no lamp \, no osc \, where? what is timer;
#X obj 64 325 jkbig;
#X connect 0 0 6 0;
#X connect 1 0 4 0;
#X connect 1 0 12 2;
#X connect 2 0 4 2;
#X connect 2 0 12 0;
#X connect 2 0 13 0;
#X connect 3 0 1 0;
#X connect 3 0 2 0;
#X connect 4 0 7 1;
#X connect 4 0 6 1;
#X connect 5 0 4 1;
#X connect 5 0 12 1;
#X connect 5 0 13 1;
#X connect 6 0 7 0;
#X connect 6 0 15 0;
#X connect 7 0 15 2;
#X connect 8 0 9 0;
#X connect 8 0 15 1;
#X connect 12 0 13 2;
#X connect 13 0 10 0;
#X connect 15 0 11 0;
