#N canvas 21 85 1920 1016 12;
#X obj 58 20 inlet DB;
#X obj 190 30 inlet DF;
#X obj 432 25 inlet RS;
#X obj 542 25 inlet S;
#X obj 13 435 outlet oscgate;
#X obj 222 437 outlet timer;
#X obj 323 437 outlet DB;
#X obj 127 436 outlet lamp;
#X obj 450 437 outlet DF;
#X obj 533 438 outlet RS;
#X obj 621 437 outlet S;
#X obj 190 78 != 1;
#X obj 190 113 f;
#X obj 190 144 != 1;
#X obj 623 24 inlet mode;
#X obj 341 221 NOR;
#X msg 748 64 1;
#X msg 822 66 0;
#X obj 371 245 NOR;
#X obj 347 277 JK, f 4;
#X obj 231 186 switch_S-CB;
#X obj 429 382 switch_CS-B;
#X obj 483 133 switch_S-CB;
#X obj 750 115 switch_CS-B;
#X obj 751 172 switch_S-CB;
#X obj 770 24 loadbang;
#X obj 331 389 switch_CS-B;
#X obj 103 320 switch_CS-B;
#X obj 103 344 != 1;
#X obj 103 368 f;
#X obj 103 392 != 1;
#X text 674 285 some things extra;
#X connect 0 0 20 2;
#X connect 1 0 11 0;
#X connect 2 0 9 0;
#X connect 3 0 22 0;
#X connect 11 0 12 0;
#X connect 12 0 13 0;
#X connect 13 0 5 0;
#X connect 13 0 20 0;
#X connect 13 0 22 2;
#X connect 14 0 20 1;
#X connect 14 0 21 1;
#X connect 14 0 22 1;
#X connect 14 0 23 1;
#X connect 14 0 24 1;
#X connect 14 0 26 1;
#X connect 14 0 27 1;
#X connect 15 0 18 0;
#X connect 15 0 19 0;
#X connect 16 0 23 0;
#X connect 17 0 23 2;
#X connect 17 0 24 0;
#X connect 18 0 19 2;
#X connect 19 0 21 2;
#X connect 19 0 26 0;
#X connect 19 0 27 2;
#X connect 19 1 21 0;
#X connect 19 1 26 2;
#X connect 19 1 27 0;
#X connect 20 0 15 0;
#X connect 21 0 8 0;
#X connect 22 0 10 0;
#X connect 22 0 19 1;
#X connect 23 0 24 2;
#X connect 24 0 15 1;
#X connect 24 0 18 1;
#X connect 25 0 16 0;
#X connect 25 0 17 0;
#X connect 26 0 6 0;
#X connect 27 0 28 0;
#X connect 28 0 29 0;
#X connect 29 0 4 0;
#X connect 29 0 30 0;
#X connect 30 0 7 0;
