#N canvas 38 38 1920 1016 12;
#X obj 8 164 mode, f 17;
#X obj 284 163 mode, f 17;
#X obj 2649 15 inlet DB;
#X obj 18 30 inlet DF;
#X obj 83 30 inlet RS;
#X obj 147 30 inlet S;
#X obj 592 157 mode, f 17;
#X obj 827 153 mode, f 17;
#X obj 1033 151 mode, f 17;
#X obj 1256 151 mode, f 17;
#X obj 1677 159 mode, f 17;
#X obj 2417 138 mode, f 17;
#X obj 208 29 inlet mode2;
#X obj 413 29 inlet mode3;
#X obj 727 24 inlet mode4;
#X obj 814 25 inlet mode5;
#X obj 1170 21 inlet mode6;
#X obj 1260 21 inlet mode7;
#X obj 1717 24 inlet mode8;
#X obj 2451 17 inlet mode9;
#X obj 10 439 outlet DB;
#X obj 80 440 outlet oscgate2;
#X obj 193 440 outlet lamp2;
#X obj 285 440 outlet timer2;
#X obj 386 440 outlet oscgate3;
#X obj 496 440 outlet lamp3;
#X obj 589 440 outlet timer3;
#X obj 687 440 outlet oscgate4;
#X obj 799 440 outlet lamp4;
#X obj 892 440 outlet timer4;
#X obj 990 440 outlet oscgate5;
#X obj 1102 440 outlet lamp5;
#X obj 1196 440 outlet timer5;
#X obj 1294 440 outlet oscgate6;
#X obj 1406 440 outlet lamp6;
#X obj 1500 440 outlet timer6;
#X obj 1601 440 outlet oscgate7;
#X obj 1713 440 outlet lamp7;
#X obj 1807 440 outlet timer7;
#X obj 1909 440 outlet oscgate8;
#X obj 2022 440 outlet lamp8;
#X obj 2115 441 outlet timer8;
#X obj 2216 440 outlet oscgate9;
#X obj 2328 440 outlet lamp9;
#X obj 2419 439 outlet timer9;
#X obj 2517 438 outlet DF;
#X obj 2587 439 outlet RS;
#X obj 2662 439 outlet S;
#X connect 0 0 21 0;
#X connect 0 1 22 0;
#X connect 0 2 23 0;
#X connect 0 3 20 0;
#X connect 0 4 1 1;
#X connect 0 5 1 2;
#X connect 0 6 1 3;
#X connect 1 0 24 0;
#X connect 1 1 25 0;
#X connect 1 2 26 0;
#X connect 1 3 0 0;
#X connect 1 4 6 1;
#X connect 1 5 6 2;
#X connect 1 6 6 3;
#X connect 2 0 11 0;
#X connect 3 0 0 1;
#X connect 4 0 0 2;
#X connect 5 0 0 3;
#X connect 6 0 27 0;
#X connect 6 1 28 0;
#X connect 6 2 29 0;
#X connect 6 3 1 0;
#X connect 6 4 7 1;
#X connect 6 5 7 2;
#X connect 6 6 7 3;
#X connect 7 0 30 0;
#X connect 7 1 31 0;
#X connect 7 2 32 0;
#X connect 7 3 6 0;
#X connect 7 4 8 1;
#X connect 7 5 8 2;
#X connect 7 6 8 3;
#X connect 8 0 33 0;
#X connect 8 1 34 0;
#X connect 8 2 35 0;
#X connect 8 3 7 0;
#X connect 8 4 9 1;
#X connect 8 5 9 2;
#X connect 8 6 9 3;
#X connect 9 0 36 0;
#X connect 9 1 37 0;
#X connect 9 2 38 0;
#X connect 9 3 8 0;
#X connect 9 4 10 1;
#X connect 9 5 10 2;
#X connect 9 6 10 3;
#X connect 10 0 39 0;
#X connect 10 1 40 0;
#X connect 10 2 41 0;
#X connect 10 3 9 0;
#X connect 10 4 11 1;
#X connect 10 5 11 2;
#X connect 10 6 11 3;
#X connect 11 0 42 0;
#X connect 11 1 43 0;
#X connect 11 2 44 0;
#X connect 11 3 10 0;
#X connect 11 4 45 0;
#X connect 11 5 46 0;
#X connect 11 6 47 0;
#X connect 12 0 0 4;
#X connect 13 0 1 4;
#X connect 14 0 6 4;
#X connect 15 0 7 4;
#X connect 16 0 8 4;
#X connect 17 0 9 4;
#X connect 18 0 10 4;
#X connect 19 0 11 4;
