#N canvas 38 38 1181 818 12;
#X obj 138 163 MSJKFF;
#X obj 126 97 tgl 19 0 empty empty empty 0 -10 0 12 #fcfcfc #000000 #000000 0 1;
#X obj 179 103 tgl 19 0 empty empty empty 0 -10 0 12 #fcfcfc #000000 #000000 0 1;
#X obj 158 20 tgl 19 0 empty empty empty 0 -10 0 12 #fcfcfc #000000 #000000 0 1;
#X obj 158 44 metro 500;
#X obj 158 68 tgl 19 0 empty empty empty 0 -10 0 12 #fcfcfc #000000 #000000 0 1;
#X obj 118 212 tgl 19 0 empty empty empty 0 -10 0 12 #fcfcfc #000000 #000000 0 1;
#X obj 187 207 tgl 19 0 empty empty empty 0 -10 0 12 #fcfcfc #000000 #000000 0 1;
#X connect 0 0 6 0;
#X connect 0 1 7 0;
#X connect 1 0 0 0;
#X connect 2 0 0 2;
#X connect 3 0 4 0;
#X connect 4 0 5 0;
#X connect 5 0 0 1;
