#N canvas 273 125 1424 733 12;
#X obj 36 152 tgl 19 0 empty empty empty 0 -10 0 12 #fcfcfc #000000 #000000 0 1;
#X obj 68 152 tgl 19 0 empty empty empty 0 -10 0 12 #fcfcfc #000000 #000000 0 1;
#X obj 200 51 tgl 19 0 empty empty empty 0 -10 0 12 #fcfcfc #000000 #000000 0 1;
#X obj 200 75 metro 500;
#X obj 145 19 vradio 19 1 0 3 empty empty empty 0 -10 0 12 #fcfcfc #000000 #000000 0;
#X floatatom 145 106 5 0 0 0 - - - 0;
#X obj 145 81 + 1;
#X obj 95 273 tgl 19 0 empty empty empty 0 -10 0 12 #fcfcfc #000000 #000000 0 1;
#X obj 126 277 bng 19 250 50 0 empty empty empty 0 -10 0 12 #fcfcfc #000000 #000000;
#X obj 167 271 tgl 19 0 empty empty empty 0 -10 0 12 #fcfcfc #000000 #000000 0 1;
#X obj 198 275 bng 19 250 50 0 empty empty empty 0 -10 0 12 #fcfcfc #000000 #000000;
#X obj 248 269 tgl 19 0 empty empty empty 0 -10 0 12 #fcfcfc #000000 #000000 0 1;
#X obj 279 273 bng 19 250 50 0 empty empty empty 0 -10 0 12 #fcfcfc #000000 #000000;
#X obj 144 184 stage1-1;
#X obj 458 157 jkbig;
#X obj 483 46 tgl 19 0 empty empty empty 0 -10 0 12 #fcfcfc #000000 #000000 0 1;
#X obj 483 70 metro 500;
#X msg 390 96 1;
#X msg 431 98 0;
#X msg 514 111 1;
#X msg 555 113 0;
#X floatatom 420 241 5 0 0 0 - - - 0;
#X obj 425 271 tgl 19 0 empty empty empty 0 -10 0 12 #fcfcfc #000000 #000000 0 1;
#X obj 456 275 bng 19 250 50 0 empty empty empty 0 -10 0 12 #fcfcfc #000000 #000000;
#X obj 522 235 tgl 19 0 empty empty empty 0 -10 0 12 #fcfcfc #000000 #000000 0 1;
#X obj 553 239 bng 19 250 50 0 empty empty empty 0 -10 0 12 #fcfcfc #000000 #000000;
#X obj 483 94 tgl 19 0 empty empty empty 0 -10 0 12 #fcfcfc #000000 #000000 0 1;
#X obj 200 99 tgl 19 0 empty empty empty 0 -10 0 12 #fcfcfc #000000 #000000 0 1;
#X connect 0 0 13 1;
#X connect 1 0 13 2;
#X connect 2 0 3 0;
#X connect 3 0 27 0;
#X connect 4 0 6 0;
#X connect 5 0 13 1;
#X connect 6 0 5 0;
#X connect 13 0 7 0;
#X connect 13 0 8 0;
#X connect 13 1 10 0;
#X connect 13 1 9 0;
#X connect 13 2 11 0;
#X connect 13 2 12 0;
#X connect 14 0 21 0;
#X connect 14 0 22 0;
#X connect 14 0 23 0;
#X connect 14 1 24 0;
#X connect 14 1 25 0;
#X connect 15 0 16 0;
#X connect 16 0 26 0;
#X connect 17 0 14 0;
#X connect 18 0 14 0;
#X connect 19 0 14 2;
#X connect 20 0 14 2;
#X connect 26 0 14 1;
#X connect 27 0 13 2;
