#N canvas 190 190 1920 1016 12;
#X obj 41 40 inlet;
#X obj 83 40 inlet;
#X obj 34 278 outlet;
#X obj 83 278 outlet;
#X obj 125 40 inlet;
#X obj 132 278 outlet;
#X text 135 21 DB;
#X text 47 299 DB;
#X text 52 21 DF;
#X text 94 19 s;
#X text 97 298 DF;
#X text 145 299 s;
#X obj 83 178 f;
#X obj 83 232 tgl 19 0 empty empty empty 0 -10 0 12 #fcfcfc #000000 #000000 0 1;
#X obj 83 78 tgl 19 0 empty empty empty 0 -10 0 12 #fcfcfc #000000 #000000 0 1;
#X obj 83 126 sel 1;
#X obj 101 154 tgl 19 0 empty empty empty 0 -10 0 12 #fcfcfc #000000 #000000 0 1;
#X obj 83 102 t f f;
#X obj 83 202 t f b;
#X connect 0 0 14 0;
#X connect 4 0 16 0;
#X connect 12 0 18 0;
#X connect 13 0 3 0;
#X connect 14 0 17 0;
#X connect 15 0 12 0;
#X connect 16 0 12 1;
#X connect 17 0 2 0;
#X connect 17 1 15 0;
#X connect 18 0 13 0;
#X connect 18 1 5 0;
