#N canvas 70 34 1685 739 12;
#X obj 18 177 spigot;
#X obj 379 12 vradio 19 1 0 3 empty empty empty 0 -10 0 12 #fcfcfc #000000 #000000 0;
#X obj 155 114 == 0;
#X obj 155 138 tgl 19 0 empty empty empty 0 -10 0 12 #fcfcfc #000000 #000000 0 1;
#X obj 277 113 == 1;
#X obj 371 119 == 2;
#X obj 277 137 tgl 19 0 empty empty empty 0 -10 0 12 #fcfcfc #000000 #000000 0 1;
#X obj 371 143 tgl 19 0 empty empty empty 0 -10 0 12 #fcfcfc #000000 #000000 0 1;
#X obj 192 181 spigot;
#X obj 286 188 spigot;
#X obj 96 177 spigot;
#X obj 90 243 spigot;
#X obj 89 19 inlet df;
#X obj 19 18 inlet db;
#X obj 162 19 inlet sm;
#X obj 186 215 spigot;
#X obj 196 252 spigot;
#X obj 295 215 spigot;
#X obj 318 255 spigot;
#X obj 18 321 outlet db;
#X obj 109 322 outlet df;
#X obj 201 324 outlet sm;
#X obj 240 20 inlet mode;
#X obj 283 324 outlet db;
#X obj 371 325 outlet df;
#X obj 460 325 outlet sm;
#X text 425 13 break 0;
#X text 425 29 count 1;
#X text 425 44 shift 2;
#X obj 20 45 s db;
#X obj 89 43 s df;
#X obj 162 43 s sm;
#X obj 240 44 s mode;
#X obj 531 122 == 0;
#X obj 531 146 tgl 19 0 empty empty empty 0 -10 0 12 #fcfcfc #000000 #000000 0 1;
#X obj 596 121 == 1;
#X obj 658 121 == 2;
#X obj 596 145 tgl 19 0 empty empty empty 0 -10 0 12 #fcfcfc #000000 #000000 0 1;
#X obj 658 145 tgl 19 0 empty empty empty 0 -10 0 12 #fcfcfc #000000 #000000 0 1;
#X obj 579 51 r mode;
#X obj 488 192 spigot;
#X obj 666 60 pack f f f;
#X obj 661 26 r db;
#X obj 698 26 r df;
#X obj 734 25 r sm;
#X listbox 666 84 20 0 0 0 - - - 0;
#X msg 616 12 1;
#X msg 698 4 2;
#X msg 773 2 4;
#X obj 716 121 unpack f f f;
#X floatatom 716 159 5 0 0 0 - - - 0;
#X floatatom 770 193 5 0 0 0 - - - 0;
#X floatatom 794 160 5 0 0 0 - - - 0;
#X obj 446 121 pack f f f;
#X obj 441 87 r db;
#X obj 478 87 r df;
#X obj 514 86 r sm;
#X obj 485 221 unpack f f f;
#X msg 790 62 7;
#X connect 0 0 19 0;
#X connect 1 0 2 0;
#X connect 1 0 4 0;
#X connect 1 0 5 0;
#X connect 2 0 3 0;
#X connect 3 0 0 1;
#X connect 3 0 10 1;
#X connect 3 0 11 1;
#X connect 4 0 6 0;
#X connect 5 0 7 0;
#X connect 6 0 8 1;
#X connect 6 0 15 1;
#X connect 6 0 16 1;
#X connect 7 0 9 1;
#X connect 7 0 17 1;
#X connect 7 0 18 1;
#X connect 8 0 19 0;
#X connect 9 0 19 0;
#X connect 10 0 20 0;
#X connect 11 0 21 0;
#X connect 12 0 10 0;
#X connect 12 0 15 0;
#X connect 12 0 17 0;
#X connect 12 0 30 0;
#X connect 13 0 0 0;
#X connect 13 0 8 0;
#X connect 13 0 9 0;
#X connect 13 0 29 0;
#X connect 14 0 11 0;
#X connect 14 0 16 0;
#X connect 14 0 18 0;
#X connect 14 0 31 0;
#X connect 15 0 20 0;
#X connect 16 0 21 0;
#X connect 17 0 20 0;
#X connect 18 0 21 0;
#X connect 22 0 2 0;
#X connect 22 0 4 0;
#X connect 22 0 5 0;
#X connect 22 0 32 0;
#X connect 33 0 34 0;
#X connect 34 0 40 1;
#X connect 35 0 37 0;
#X connect 36 0 38 0;
#X connect 39 0 33 0;
#X connect 39 0 35 0;
#X connect 39 0 36 0;
#X connect 40 0 57 0;
#X connect 41 0 45 0;
#X connect 42 0 41 0;
#X connect 43 0 41 1;
#X connect 44 0 41 2;
#X connect 45 0 49 0;
#X connect 46 0 41 0;
#X connect 47 0 41 1;
#X connect 48 0 41 2;
#X connect 49 0 50 0;
#X connect 49 1 51 0;
#X connect 49 2 52 0;
#X connect 53 0 40 0;
#X connect 54 0 53 0;
#X connect 55 0 53 1;
#X connect 56 0 53 2;
#X connect 58 0 41 2;
