#N canvas 1567 227 1920 1016 12;
#X obj 151 116 == 0;
#X obj 151 140 tgl 19 0 empty empty empty 0 -10 0 12 #fcfcfc #000000 #000000 0 1;
#X obj 439 112 == 1;
#X obj 733 108 == 2;
#X obj 439 136 tgl 19 0 empty empty empty 0 -10 0 12 #fcfcfc #000000 #000000 0 1;
#X obj 733 132 tgl 19 0 empty empty empty 0 -10 0 12 #fcfcfc #000000 #000000 0 1;
#X obj 308 46 r mode;
#X obj 72 181 spigot;
#X obj 44 150 pack f f f;
#X obj 39 116 r db;
#X obj 76 116 r df;
#X obj 112 115 r sm;
#X obj 71 208 unpack f f f;
#X obj 105 21 inlet df;
#X obj 35 20 inlet db;
#X obj 255 22 inlet mode;
#X obj 35 44 s db;
#X obj 106 45 s df;
#X obj 256 46 s mode;
#X obj 353 182 spigot;
#X obj 287 110 r db;
#X obj 325 111 r df;
#X obj 353 208 unpack f f f;
#X obj 642 178 spigot;
#X obj 623 142 pack f f f;
#X obj 618 108 r db;
#X obj 655 108 r df;
#X obj 691 107 r sm;
#X obj 642 204 unpack f f f;
#X obj 86 251 break;
#X obj 377 246 count;
#X obj 664 243 shift;
#X obj 149 366 outlet db;
#X obj 371 363 outlet df;
#X obj 635 363 outlet sm;
#X listbox 194 187 20 0 0 0 - - - 0;
#X listbox 491 187 20 0 0 0 - - - 0;
#X listbox 161 232 20 0 0 0 - - - 0;
#X floatatom 132 81 5 0 0 0 - - - 0;
#X floatatom 56 83 5 0 0 0 - - - 0;
#X msg 239 102 bang;
#X floatatom 8 286 5 0 0 0 - - - 0;
#X floatatom 456 248 5 0 0 0 - - - 0;
#X obj 512 44 t b f;
#X obj 507 17 r db;
#X obj 296 141 pack f f f;
#X floatatom 521 239 5 0 0 0 - - - 0;
#X floatatom 382 134 5 0 0 0 - - - 0;
#X obj 178 21 inlet smo;
#X obj 185 43 s smo;
#X floatatom 182 74 5 0 0 0 - - - 0;
#X obj 372 100 r smo;
#X floatatom 142 183 5 0 0 0 - - - 0;
#X connect 0 0 1 0;
#X connect 1 0 7 1;
#X connect 2 0 4 0;
#X connect 3 0 5 0;
#X connect 4 0 19 1;
#X connect 5 0 23 1;
#X connect 6 0 0 0;
#X connect 6 0 2 0;
#X connect 6 0 3 0;
#X connect 7 0 12 0;
#X connect 8 0 7 0;
#X connect 8 0 37 0;
#X connect 9 0 8 0;
#X connect 10 0 8 1;
#X connect 11 0 8 2;
#X connect 11 0 52 0;
#X connect 12 0 29 0;
#X connect 12 1 29 1;
#X connect 12 1 41 0;
#X connect 12 2 29 2;
#X connect 13 0 17 0;
#X connect 13 0 38 0;
#X connect 14 0 16 0;
#X connect 14 0 39 0;
#X connect 15 0 18 0;
#X connect 19 0 22 0;
#X connect 20 0 45 0;
#X connect 21 0 45 1;
#X connect 22 0 30 0;
#X connect 22 1 30 1;
#X connect 22 1 42 0;
#X connect 22 2 30 2;
#X connect 22 2 46 0;
#X connect 23 0 28 0;
#X connect 24 0 23 0;
#X connect 24 0 36 0;
#X connect 25 0 24 0;
#X connect 26 0 24 1;
#X connect 27 0 24 2;
#X connect 28 0 31 0;
#X connect 28 1 31 1;
#X connect 28 2 31 2;
#X connect 29 0 32 0;
#X connect 29 1 33 0;
#X connect 29 2 34 0;
#X connect 30 0 32 0;
#X connect 30 1 33 0;
#X connect 30 2 34 0;
#X connect 31 0 32 0;
#X connect 31 1 33 0;
#X connect 31 2 34 0;
#X connect 38 0 40 0;
#X connect 40 0 45 0;
#X connect 44 0 43 0;
#X connect 45 0 19 0;
#X connect 45 0 35 0;
#X connect 48 0 49 0;
#X connect 48 0 50 0;
#X connect 51 0 45 2;
#X connect 51 0 47 0;
