#N canvas 139 113 1590 728 12;
#X obj 123 118 == 0;
#X obj 123 142 tgl 19 0 empty empty empty 0 -10 0 12 #fcfcfc #000000 #000000 0 1;
#X obj 411 114 == 1;
#X obj 705 110 == 2;
#X obj 411 138 tgl 19 0 empty empty empty 0 -10 0 12 #fcfcfc #000000 #000000 0 1;
#X obj 705 134 tgl 19 0 empty empty empty 0 -10 0 12 #fcfcfc #000000 #000000 0 1;
#X obj 280 48 r mode;
#X obj 44 183 spigot;
#X obj 16 152 pack f f f;
#X obj 11 118 r db;
#X obj 48 118 r df;
#X obj 84 117 r sm;
#X obj 43 210 unpack f f f;
#X obj 77 23 inlet df;
#X obj 7 22 inlet db;
#X obj 150 23 inlet sm;
#X obj 227 24 inlet mode;
#X obj 7 46 s db;
#X obj 77 47 s df;
#X obj 150 47 s sm;
#X obj 228 48 s mode;
#X obj 325 184 spigot;
#X obj 306 148 pack f f f;
#X obj 301 114 r db;
#X obj 338 114 r df;
#X obj 374 113 r sm;
#X obj 325 210 unpack f f f;
#X obj 614 180 spigot;
#X obj 595 144 pack f f f;
#X obj 590 110 r db;
#X obj 627 110 r df;
#X obj 663 109 r sm;
#X obj 614 206 unpack f f f;
#X obj 8 296 outlet bdb;
#X obj 90 296 outlet bdf;
#X obj 173 297 outlet bsm;
#X obj 267 298 outlet cdb;
#X obj 349 298 outlet cdf;
#X obj 432 299 outlet csm;
#X obj 543 297 outlet sdb;
#X obj 625 297 outlet sdf;
#X obj 708 298 outlet ssm;
#X connect 0 0 1 0;
#X connect 1 0 7 1;
#X connect 2 0 4 0;
#X connect 3 0 5 0;
#X connect 4 0 21 1;
#X connect 5 0 27 1;
#X connect 6 0 0 0;
#X connect 6 0 2 0;
#X connect 6 0 3 0;
#X connect 7 0 12 0;
#X connect 8 0 7 0;
#X connect 9 0 8 0;
#X connect 10 0 8 1;
#X connect 11 0 8 2;
#X connect 12 0 33 0;
#X connect 12 1 34 0;
#X connect 12 2 35 0;
#X connect 13 0 18 0;
#X connect 14 0 17 0;
#X connect 15 0 19 0;
#X connect 16 0 20 0;
#X connect 21 0 26 0;
#X connect 22 0 21 0;
#X connect 23 0 22 0;
#X connect 24 0 22 1;
#X connect 25 0 22 2;
#X connect 26 0 36 0;
#X connect 26 1 37 0;
#X connect 26 2 38 0;
#X connect 27 0 32 0;
#X connect 28 0 27 0;
#X connect 29 0 28 0;
#X connect 30 0 28 1;
#X connect 31 0 28 2;
#X connect 32 0 39 0;
#X connect 32 1 40 0;
#X connect 32 2 41 0;
