#N canvas 0 0 1370 729 12;
#X obj 96 70 break;
#X obj 164 69 count;
#X obj 235 69 shift;
#X obj 98 134 break;
#X obj 166 133 count;
#X obj 237 133 shift;
#X obj 151 -77 tgl 15 0 empty empty empty 17 7 0 10 #fcfcfc #000000 #000000 0 1;
#X obj 150 -44 metro 200;
#X floatatom 227 -84 5 0 0 0 - - - 0;
#X obj 150 -16 tgl 15 0 empty empty empty 17 7 0 10 #fcfcfc #000000 #000000 0 1;
#X obj 24 108 tgl 15 0 empty empty empty 17 7 0 10 #fcfcfc #000000 #000000 0 1;
#X obj 41 108 tgl 15 0 empty empty empty 17 7 0 10 #00faff #000000 #000000 0 1;
#X obj 58 108 tgl 15 0 empty empty empty 17 7 0 10 #fcfcfc #000000 #000000 0 1;
#X obj 28 165 tgl 15 0 empty empty empty 17 7 0 10 #fcfcfc #000000 #000000 0 1;
#X obj 45 165 tgl 15 0 empty empty empty 17 7 0 10 #00faff #000000 #000000 0 1;
#X obj 62 165 tgl 15 0 empty empty empty 17 7 0 10 #fcfcfc #000000 #000000 0 1;
#X obj 158 176 tgl 15 0 empty empty empty 17 7 0 10 #fcfcfc #000000 #000000 0 1;
#X obj 175 176 tgl 15 0 empty empty empty 17 7 0 10 #00faff #000000 #000000 0 1;
#X obj 192 176 tgl 15 0 empty empty empty 17 7 0 10 #fcfcfc #000000 #000000 0 1;
#X obj 233 177 tgl 15 0 empty empty empty 17 7 0 10 #fcfcfc #000000 #000000 0 1;
#X obj 250 177 tgl 15 0 empty empty empty 17 7 0 10 #00faff #000000 #000000 0 1;
#X obj 267 177 tgl 15 0 empty empty empty 17 7 0 10 #fcfcfc #000000 #000000 0 1;
#N canvas 62 24 1266 779 3wayswitch 0;
#X obj 101 119 cnv 15 150 60 empty empty empty 20 12 0 14 #e0e0e0 #404040 0;
#X obj 122 134 hradio 15 1 0 3 empty empty break.count.shift 0 -8 0 10 #fcfcfc #000000 #000000 0;
#X obj 69 201 == 0;
#X obj 163 200 == 1;
#X obj 266 211 == 2;
#X obj 332 65 select 0 1 2;
#X obj 35 236 spigot;
#X obj 139 250 spigot;
#X obj 261 249 spigot;
#X obj 40 17 inlet;
#X obj 493 306 outlet;
#X obj 261 273 print shift;
#X obj 139 274 print count;
#X obj 35 260 print break;
#X connect 1 0 2 0;
#X connect 1 0 4 0;
#X connect 1 0 3 0;
#X connect 2 0 6 1;
#X connect 2 0 6 0;
#X connect 3 0 7 1;
#X connect 3 0 7 0;
#X connect 4 0 8 1;
#X connect 4 0 8 0;
#X connect 6 0 13 0;
#X connect 7 0 12 0;
#X connect 8 0 11 0;
#X coords 0 -1 1 1 152 81 1 100 100;
#X restore 713 -63 pd 3wayswitch;
#X obj 782 92 print test;
#X msg 784 57 bang;
#X msg 376 -52 1;
#X msg 431 -53 0;
#X text 483 0 detta funkar inte;
#X obj 300 2 break /count/shift;
#N canvas 1914 0 958 1004 mode 0;
#X obj 611 394 break;
#X obj 669 393 count;
#X obj 713 394 shift;
#X obj 117 49 != 1;
#X obj 111 185 != 1;
#X obj 118 142 f;
#X obj 20 75 tgl 15 0 empty empty empty 17 7 0 10 #fcfcfc #000000 #000000 0 1;
#X obj 149 101 select 1;
#X obj 20 50 select 1;
#X obj 20 14 inlet b-db;
#X obj 10 234 outlet b-db;
#X obj 118 14 inlet b-df;
#X obj 109 234 outlet b-df;
#X obj 195 234 outlet b-shift;
#X obj 197 14 inlet b-shift;
#X obj 431 91 tgl 19 0 empty empty empty 0 -10 0 12 #fcfcfc #000000 #000000 0 1;
#X obj 485 37 sel 1;
#X obj 386 59 != 1;
#X obj 430 59 sel 1;
#X obj 305 237 outlet c-db;
#X obj 389 237 outlet c-df;
#X obj 475 237 outlet c-shift;
#X obj 485 13 inlet c-shift;
#X obj 406 13 inlet c-df;
#X obj 323 13 inlet c-db;
#X obj 730 160 tgl 19 0 empty empty empty 0 -10 0 12 #fcfcfc #000000 #000000 0 1;
#X obj 730 130 f;
#X obj 790 88 sel 1;
#X obj 789 70 tgl 15 0 empty empty empty 17 7 0 10 #fcfcfc #000000 #000000 0 1;
#X obj 783 46 bang;
#X obj 603 13 inlet s-db;
#X obj 594 235 outlet s-db;
#X text 98 302 break;
#X text 383 301 count;
#X text 680 302 shift;
#X obj 691 233 outlet s-df;
#X obj 781 233 outlet s-shift;
#X obj 686 13 inlet s-df;
#X obj 765 13 inlet s-shift;
#X obj 234 296 inlet active;
#X connect 3 0 10 0;
#X connect 4 0 12 0;
#X connect 5 0 4 0;
#X connect 6 0 5 1;
#X connect 7 0 5 0;
#X connect 8 0 6 0;
#X connect 9 0 8 0;
#X connect 11 0 3 0;
#X connect 11 0 7 0;
#X connect 11 0 13 0;
#X connect 15 0 20 0;
#X connect 17 0 19 0;
#X connect 18 0 15 0;
#X connect 22 0 16 0;
#X connect 23 0 17 0;
#X connect 23 0 18 0;
#X connect 23 0 21 0;
#X connect 25 0 35 0;
#X connect 26 0 25 0;
#X connect 27 0 26 0;
#X connect 28 0 27 0;
#X connect 29 0 28 0;
#X connect 30 0 31 0;
#X connect 37 0 26 1;
#X connect 38 0 29 0;
#X connect 38 0 36 0;
#X restore 410 184 pd mode;
#X f 34;
#X text 308 133 level 2;
#X text 306 67 level 1 /step 1;
#X msg 627 112 \; s-db 1;
#X obj 322 42 break count;
#X text 97 325 teori 2: pd mode/ abstraktion w/ alla modes samtidigt \, needs some control inlet? not to disturb the data;
#X text 100 275 teori 1: 10 lager/steps/levels av break count shift \, alla connected to samma \, have only 1 active at time \, separate check for that?;
#X text 94 365 teori 3: tomt object som kan bli alla tre olika \, ambigious at first \, en tom \, skicka message till?;
#N canvas 152 152 770 482 step 0;
#X obj 69 88 break;
#X obj 157 87 count;
#X obj 243 87 shift;
#X obj 91 19 inlet;
#X obj 106 185 outlet;
#X restore 430 126 pd step;
#X text 105 237 Goal: hitta generalisering;
#X text 625 261 teori4: göra pd_lager 10 st kopplade till Pd 3wayswitch 10 st. Där det i sin tur i pd_lager finns en subpatch för break \, shift \, count respektive dvs olika för de respektove. med inlet utifrån switchens värde. Kopplingran akan väl vara mellan pd lager eftersom de väl är lika?;
#X connect 0 0 10 0;
#X connect 0 1 3 1;
#X connect 0 1 4 1;
#X connect 0 1 5 1;
#X connect 0 1 11 0;
#X connect 0 2 3 2;
#X connect 0 2 4 2;
#X connect 0 2 5 2;
#X connect 0 2 12 0;
#X connect 1 1 4 1;
#X connect 1 1 5 1;
#X connect 1 1 3 1;
#X connect 1 2 4 2;
#X connect 1 2 5 2;
#X connect 1 2 3 2;
#X connect 2 1 4 1;
#X connect 2 1 5 1;
#X connect 2 1 3 1;
#X connect 2 2 4 2;
#X connect 2 2 5 2;
#X connect 2 2 3 2;
#X connect 3 0 0 0;
#X connect 3 0 1 0;
#X connect 3 0 2 0;
#X connect 3 0 13 0;
#X connect 3 1 14 0;
#X connect 3 2 15 0;
#X connect 4 0 1 0;
#X connect 4 0 2 0;
#X connect 4 0 16 0;
#X connect 4 0 0 0;
#X connect 4 1 17 0;
#X connect 4 2 18 0;
#X connect 5 0 1 0;
#X connect 5 0 2 0;
#X connect 5 0 19 0;
#X connect 5 0 0 0;
#X connect 5 1 20 0;
#X connect 5 2 21 0;
#X connect 6 0 7 0;
#X connect 7 0 9 0;
#X connect 8 0 7 1;
#X connect 9 0 1 1;
#X connect 9 0 2 1;
#X connect 9 0 0 1;
#X connect 24 0 23 0;
