#N canvas 78 -30 1920 1016 12;
#X obj 133 117 == 1;
#X obj 133 142 sel 1;
#X obj 209 90 value i;
#X obj 209 116 array get state 0 1;
#X obj 209 140 value prevstate;
#X obj 133 168 value i;
#X obj 133 221 array get state 0 1;
#X obj 133 245 != 1;
#X obj 133 267 array set state;
#X obj 133 193 t f f;
#X obj 133 90 value df;
#X obj 36 91 value df;
#X obj 36 143 value shift;
#X obj 46 21 loadbang;
#X obj 110 47 t b b b;
#X obj 110 21 inlet;
#X obj 36 167 bang;
#X obj 36 115 t b f;
#X msg 324 20 \; df 1;
#X obj 388 14 bng 19 250 50 0 empty empty empty 0 -10 0 12 #fcfcfc #000000 #000000;
#X obj 388 38 value df;
#X floatatom 388 62 5 0 0 0 - - - 0;
#X obj 36 191 outlet;
#X connect 0 0 1 0;
#X connect 1 0 5 0;
#X connect 2 0 3 0;
#X connect 3 0 4 0;
#X connect 5 0 9 0;
#X connect 6 0 7 0;
#X connect 7 0 8 0;
#X connect 9 0 6 0;
#X connect 9 1 8 1;
#X connect 10 0 0 0;
#X connect 11 0 17 0;
#X connect 12 0 16 0;
#X connect 13 0 14 0;
#X connect 14 0 11 0;
#X connect 14 1 10 0;
#X connect 14 2 2 0;
#X connect 15 0 14 0;
#X connect 16 0 22 0;
#X connect 17 0 12 0;
#X connect 17 1 12 0;
#X connect 19 0 20 0;
#X connect 20 0 21 0;
