#N canvas -249 -11 1920 1016 12;
#X obj 18 64 != 1;
#X text 59 95 kolla olika alternativ \, göra if expr och använda until?;
#X obj 22 23 tgl 19 0 empty empty empty 0 -10 0 12 #fcfcfc #000000 #000000 0 1;
#X obj 18 88 tgl 19 0 empty empty empty 0 -10 0 12 #fcfcfc #000000 #000000 0 1;
#X obj 61 324 until;
#X obj 46 221 tgl 19 0 empty empty empty 0 -10 0 12 #fcfcfc #000000 #000000 0 1;
#X obj 46 245 metro 2000;
#X obj 46 269 tgl 19 0 empty empty empty 0 -10 0 12 #fcfcfc #000000 #000000 0 1;
#X obj 61 348 f;
#X obj 116 351 + 1;
#X obj 110 395 mod 15;
#X obj 167 398 sel 0;
#X obj 21 386 print;
#X obj 98 29 until;
#X obj 149 30 sel 0;
#X text 198 32 false;
#X obj 17 132 until;
#X obj 17 156 f;
#X obj 63 157 + 1;
#X msg 191 282 5;
#X obj 163 147 tgl 19 0 empty empty empty 0 -10 0 12 #fcfcfc #000000 #000000 0 1;
#X floatatom 170 355 5 0 0 0 - - - 0;
#X obj 170 331 mod;
#X msg 234 287 3;
#X floatatom 229 314 5 0 0 0 - - - 0;
#X obj 163 171 metro 500;
#X obj 170 244 f;
#X obj 216 245 + 1;
#X obj 165 199 bng 19 250 50 0 empty empty empty 0 -10 0 12 #fcfcfc #000000 #000000;
#X floatatom 109 289 5 0 0 0 - - - 0;
#X floatatom 430 51 5 0 0 0 - - - 0;
#X obj 430 1 bng 19 250 50 0 empty empty empty 0 -10 0 12 #fcfcfc #000000 #000000;
#X obj 430 27 value shift;
#X msg 529 27 \; shift 1;
#X obj 362 27 value df;
#X msg 597 26 \; df 1;
#X obj 666 45 array get state 0 1;
#X obj 665 22 bng 19 250 50 0 empty empty empty 0 -10 0 12 #fcfcfc #000000 #000000;
#X floatatom 666 69 5 0 0 0 - - - 0;
#X obj 723 73 value prevstate;
#X obj 828 26 value prevstate;
#X floatatom 828 50 5 0 0 0 - - - 0;
#X obj 824 1 bng 19 250 50 0 empty empty empty 0 -10 0 12 #fcfcfc #000000 #000000;
#X obj 269 30 value tmp;
#X obj 523 79 value steps;
#X connect 0 0 3 0;
#X connect 2 0 0 0;
#X connect 4 0 8 0;
#X connect 5 0 6 0;
#X connect 6 0 7 0;
#X connect 7 0 4 0;
#X connect 8 0 9 0;
#X connect 8 0 12 0;
#X connect 9 0 8 1;
#X connect 9 0 10 0;
#X connect 10 0 11 0;
#X connect 10 0 8 1;
#X connect 11 0 4 1;
#X connect 14 0 13 1;
#X connect 16 0 17 0;
#X connect 17 0 18 0;
#X connect 18 0 17 1;
#X connect 19 0 22 1;
#X connect 20 0 25 0;
#X connect 22 0 21 0;
#X connect 23 0 22 1;
#X connect 24 0 22 1;
#X connect 25 0 28 0;
#X connect 26 0 27 0;
#X connect 26 0 22 0;
#X connect 26 0 29 0;
#X connect 27 0 26 1;
#X connect 28 0 26 0;
#X connect 31 0 32 0;
#X connect 32 0 30 0;
#X connect 36 0 38 0;
#X connect 36 0 39 0;
#X connect 37 0 36 0;
#X connect 40 0 41 0;
#X connect 42 0 40 0;
