#N canvas 137 1000 1920 1016 12;
#X text 26 27 for (int i = 0 \; i < steps \; i++);
#X obj 335 18 value steps;
#X floatatom 428 16 5 0 0 0 - - - 0;
#X obj 310 19 bng 19 250 50 0 empty empty empty 0 -10 0 12 #fcfcfc #000000 #000000;
#X obj 45 243 f;
#X obj 75 243 + 1;
#X obj 104 243 mod;
#X obj 101 169 bng 19 250 50 0 empty empty empty 0 -10 0 12 #fcfcfc #000000 #000000;
#X obj 101 193 value steps;
#X obj 101 217 t b f;
#X obj 45 220 bng 19 250 50 0 empty empty empty 0 -10 0 12 #fcfcfc #000000 #000000;
#X obj 602 83 value k;
#X obj 250 219 expr k + 1;
#X msg 602 59 0;
#X obj 218 169 until;
#X msg 218 146 4;
#X obj 250 243 value k;
#X obj 250 267 print;
#X obj 667 59 bng 19 250 50 0 empty empty empty 0 -10 0 12 #fcfcfc #000000 #000000;
#X obj 667 83 value k;
#X floatatom 667 107 5 0 0 0 - - - 0;
#X obj 218 193 t b b;
#X connect 1 0 2 0;
#X connect 3 0 1 0;
#X connect 4 0 5 0;
#X connect 5 0 6 0;
#X connect 6 0 4 1;
#X connect 7 0 8 0;
#X connect 8 0 9 0;
#X connect 9 0 6 0;
#X connect 9 1 6 1;
#X connect 10 0 4 0;
#X connect 12 0 16 0;
#X connect 13 0 11 0;
#X connect 14 0 21 0;
#X connect 15 0 14 0;
#X connect 16 0 17 0;
#X connect 18 0 19 0;
#X connect 19 0 20 0;
#X connect 21 0 16 0;
#X connect 21 1 12 0;
