#N canvas 337 72 1920 1016 12;
#X obj 24 54 value a;
#X obj 313 20 bng 19 250 50 0 empty empty empty 0 -10 0 12 #fcfcfc #000000 #000000;
#X obj 314 87 print;
#X msg 355 10 2;
#X obj 314 63 expr $f1 + 1;
#X obj 120 56 value steg;
#X obj 219 56 value c;
#X msg 27 20 0;
#X msg 121 22 5;
#X msg 221 24 3;
#X listbox 94 386 20 0 0 0 - - - 0;
#X obj 160 272 bng 19 250 50 0 empty empty empty 0 -10 0 12 #fcfcfc #000000 #000000;
#X msg 63 20 4;
#X msg 259 22 7;
#X obj 160 114 value SHIFT;
#X obj 232 320 expr if (a < steg && c == 3 \, a + 1 \, a);
#X obj 245 177 bng 19 250 50 0 empty empty empty 0 -10 0 12 #fcfcfc #000000 #000000;
#X obj 246 205 value steg;
#X obj 246 232 until;
#X obj 246 256 print until;
#X obj 322 371 print a;
#X obj 232 344 value a;
#X connect 1 0 4 0;
#X connect 3 0 4 0;
#X connect 4 0 2 0;
#X connect 7 0 0 0;
#X connect 8 0 5 0;
#X connect 9 0 6 0;
#X connect 11 0 15 0;
#X connect 12 0 0 0;
#X connect 13 0 6 0;
#X connect 15 0 10 0;
#X connect 15 0 20 0;
#X connect 15 0 21 0;
#X connect 16 0 17 0;
#X connect 17 0 18 0;
#X connect 18 0 11 0;
#X connect 18 0 19 0;
