#N canvas 1878 71 1920 1016 12;
#X msg 191 109 1;
#X obj 103 132 value shift;
#X obj 36 157 value df;
#X msg 103 109 0;
#X msg 36 109 0;
#X obj 191 132 array set state;
#X obj 242 109 value i;
#X obj 35 25 loadbang;
#X obj 104 49 t b b b b;
#X obj 104 24 inlet;
#X obj 36 181 bang;
#X obj 36 205 outlet;
#X obj 36 133 t b f;
#X connect 0 0 5 0;
#X connect 2 0 10 0;
#X connect 3 0 1 0;
#X connect 4 0 12 0;
#X connect 6 0 5 1;
#X connect 7 0 8 0;
#X connect 8 0 4 0;
#X connect 8 1 3 0;
#X connect 8 2 0 0;
#X connect 8 3 6 0;
#X connect 9 0 8 0;
#X connect 10 0 11 0;
#X connect 12 0 2 0;
#X connect 12 1 2 0;
