#N canvas 114 114 1920 1016 12;
#X obj 171 151 reset;
#X obj 224 157 break;
#X obj 278 154 count;
#X obj 340 152 shift;
#X obj 191 80 route 1 2 3 4;
#X obj 191 53 array get mode 0 1;
#X obj 191 27 value i;
#X floatatom 312 81 5 0 0 0 - - - 0;
#X obj 195 -4 bng 19 250 50 0 empty empty empty 0 -10 0 12 #fcfcfc #000000 #000000;
#X obj 328 266 array get state 0 1;
#X obj 328 240 value i;
#X obj 328 290 t b f;
#X obj 97 290 value prevstate;
#X obj 129 365 value df;
#X obj 233 225 t b b;
#X obj 160 437 value i;
#X obj 97 340 t b f;
#X obj 128 413 t b f;
#X floatatom 417 342 5 0 0 0 - - - 0;
#X floatatom 54 410 5 0 0 0 - - - 0;
#X obj 223 344 bang;
#X obj 223 368 value i;
#X floatatom 223 392 5 0 0 0 - - - 0;
#X floatatom 253 437 5 0 0 0 - - - 0;
#X floatatom 33 349 5 0 0 0 - - - 0;
#X floatatom 271 276 5 0 0 0 - - - 0;
#X floatatom 403 311 5 0 0 0 - - - 0;
#X obj 128 389 expr i + 1;
#X obj 98 229 bng 19 250 50 0 empty empty empty 0 -10 0 12 #fcfcfc #000000 #000000;
#X obj 370 207 bng 19 250 50 0 empty empty empty 0 -10 0 12 #fcfcfc #000000 #000000;
#X obj 62 371 bng 19 250 50 0 empty empty empty 0 -10 0 12 #fcfcfc #000000 #000000;
#X msg 57 271 1;
#X msg 371 391 9;
#X msg 344 418 0;
#X obj 97 316 expr if( $f1 != $f2 && $f2 == 0 \, 1 \, 0);
#X msg 442 45 \; i 0;
#X obj 503 110 array define -yrange 1 4 mode 10;
#X connect 0 0 14 0;
#X connect 1 0 14 0;
#X connect 2 0 14 0;
#X connect 3 0 14 0;
#X connect 4 0 0 0;
#X connect 4 0 3 0;
#X connect 4 0 2 0;
#X connect 4 0 1 0;
#X connect 5 0 4 0;
#X connect 5 0 7 0;
#X connect 6 0 5 0;
#X connect 8 0 6 0;
#X connect 9 0 11 0;
#X connect 9 0 26 0;
#X connect 10 0 9 0;
#X connect 10 0 25 0;
#X connect 11 0 34 0;
#X connect 11 1 34 1;
#X connect 12 0 34 0;
#X connect 13 0 18 0;
#X connect 13 0 27 0;
#X connect 14 0 12 0;
#X connect 14 0 28 0;
#X connect 14 1 10 0;
#X connect 16 0 13 0;
#X connect 16 1 13 0;
#X connect 17 0 15 0;
#X connect 17 1 15 0;
#X connect 17 1 23 0;
#X connect 20 0 21 0;
#X connect 21 0 22 0;
#X connect 27 0 19 0;
#X connect 27 0 17 0;
#X connect 29 0 10 0;
#X connect 31 0 34 0;
#X connect 32 0 34 1;
#X connect 33 0 34 1;
#X connect 34 0 20 0;
#X connect 34 0 24 0;
#X connect 34 0 16 0;
#X connect 34 0 30 0;
