#N canvas -81 613 1920 1016 12;
#X obj 13 39 value shift;
#X obj 112 39 value df;
#X msg 13 15 1;
#X msg 112 16 1;
#X obj 432 13 array define -yrange 0 1 state 10;
#X obj 190 40 value tmp;
#X obj 672 59 array set state;
#X obj 280 41 value prevstate;
#X obj 280 13 array get state 0 1;
#X msg 672 34 0 0 0 0 1 0 0 0 1 0;
#X obj 795 59 value i;
#X obj 857 58 value steps;
#X obj 431 49 array define -yrange 1 4 mode 10;
#X obj 266 130 array set mode;
#X obj 86 139 array get mode;
#X listbox 86 163 22 0 0 0 - - - 0;
#X obj 86 112 bng 19 250 50 0 empty empty empty 0 -10 0 12 #fcfcfc #000000 #000000;
#X obj 86 186 unpack f f f f f f f f f f;
#X msg 266 105 2 4 4 4 4 3 3 3 3 3;
#X obj 17 226 <= 2;
#X obj 54 226 <= 2;
#X obj 90 226 <= 2;
#X obj 127 226 <= 2;
#X obj 163 226 <= 2;
#X obj 199 226 <= 2;
#X obj 236 226 <= 2;
#X obj 272 226 <= 2;
#X obj 309 226 <= 2;
#X obj 345 226 <= 2;
#X obj 97 266 pack f f f f f f f f f f;
#X listbox 97 290 20 0 0 0 - - - 0;
#X obj 97 313 array set state;
#X obj 426 120 array get state;
#X obj 421 86 bng 19 250 50 0 empty empty empty 0 -10 0 12 #fcfcfc #000000 #000000;
#X listbox 426 144 20 0 0 0 - - - 0;
#X obj 417 170 array size state;
#X floatatom 417 194 5 0 0 0 - - - 0;
#X text 19 81 reset 1 \, break 2 \, count 3 \, shift 4;
#X obj 779 318 array get state 0 1;
#X obj 779 292 value i;
#X obj 779 342 t b f;
#X obj 548 342 value prevstate;
#X obj 580 417 value df;
#X obj 625 190 route 1 2 3 4;
#X obj 625 220 bang;
#X obj 668 220 bang;
#X obj 710 220 bang;
#X obj 752 220 bang;
#X obj 668 244 break;
#X obj 625 244 reset;
#X obj 710 244 count;
#X obj 752 244 shift;
#X obj 625 163 array get mode 0 1;
#X obj 625 137 value i;
#X obj 684 277 t b b;
#X obj 611 489 value i;
#X obj 611 513 bang;
#X obj 300 381 f;
#X obj 332 380 + 1;
#X obj 363 381 mod;
#X obj 313 351 bng 19 250 50 0 empty empty empty 0 -10 0 12 #fcfcfc #000000 #000000;
#X floatatom 300 405 5 0 0 0 - - - 0;
#X floatatom 333 449 5 0 0 0 - - - 0;
#X floatatom 363 405 5 0 0 0 - - - 0;
#X obj 379 340 t b f;
#X obj 379 312 value steps;
#X obj 380 288 bng 19 250 50 0 empty empty empty 0 -10 0 12 #fcfcfc #000000 #000000;
#X obj 548 392 t b f;
#X obj 579 465 t b f;
#X floatatom 746 191 5 0 0 0 - - - 0;
#X obj 795 102 bng 19 250 50 0 empty empty empty 0 -10 0 12 #fcfcfc #000000 #000000;
#X obj 795 126 array get mode 0 1;
#X floatatom 795 150 5 0 0 0 - - - 0;
#X obj 876 175 bng 19 250 50 0 empty empty empty 0 -10 0 12 #fcfcfc #000000 #000000;
#X obj 876 199 value i;
#X floatatom 876 223 5 0 0 0 - - - 0;
#X floatatom 790 220 5 0 0 0 - - - 0;
#X msg 119 387 \; i 0;
#X obj 463 196 value steps;
#X obj 629 106 bng 19 250 50 0 empty empty empty 0 -10 0 12 #fcfcfc #000000 #000000;
#X floatatom 868 394 5 0 0 0 - - - 0;
#X floatatom 505 462 5 0 0 0 - - - 0;
#X obj 674 396 bang;
#X obj 674 420 value i;
#X floatatom 674 444 5 0 0 0 - - - 0;
#X floatatom 704 489 5 0 0 0 - - - 0;
#X floatatom 484 401 5 0 0 0 - - - 0;
#X floatatom 722 328 5 0 0 0 - - - 0;
#X floatatom 854 363 5 0 0 0 - - - 0;
#X obj 579 441 expr i + 1;
#X obj 549 281 bng 19 250 50 0 empty empty empty 0 -10 0 12 #fcfcfc #000000 #000000;
#X obj 564 229 bng 19 250 50 0 empty empty empty 0 -10 0 12 #fcfcfc #000000 #000000;
#X obj 230 449 t b f;
#X obj 30 378 bng 19 250 50 0 empty empty empty 0 -10 0 12 #fcfcfc #000000 #000000;
#X obj 29 402 value df;
#X floatatom 29 426 5 0 0 0 - - - 0;
#X obj 821 259 bng 19 250 50 0 empty empty empty 0 -10 0 12 #fcfcfc #000000 #000000;
#X floatatom 396 476 5 0 0 0 - - - 0;
#X obj 513 423 bng 19 250 50 0 empty empty empty 0 -10 0 12 #fcfcfc #000000 #000000;
#X msg 508 323 1;
#X msg 822 443 9;
#X msg 795 470 0;
#X obj 548 368 expr if( $f1 != $f2 && $f2 == 0 \, 1 \, 0);
#X connect 2 0 0 0;
#X connect 3 0 1 0;
#X connect 8 0 7 0;
#X connect 9 0 6 0;
#X connect 14 0 15 0;
#X connect 15 0 17 0;
#X connect 16 0 14 0;
#X connect 17 0 19 0;
#X connect 17 1 20 0;
#X connect 17 2 21 0;
#X connect 17 3 22 0;
#X connect 17 4 23 0;
#X connect 17 5 24 0;
#X connect 17 6 25 0;
#X connect 17 7 26 0;
#X connect 17 8 27 0;
#X connect 17 9 28 0;
#X connect 18 0 13 0;
#X connect 19 0 29 0;
#X connect 20 0 29 1;
#X connect 21 0 29 2;
#X connect 22 0 29 3;
#X connect 23 0 29 4;
#X connect 24 0 29 5;
#X connect 25 0 29 6;
#X connect 26 0 29 7;
#X connect 27 0 29 8;
#X connect 28 0 29 9;
#X connect 29 0 30 0;
#X connect 30 0 31 0;
#X connect 32 0 34 0;
#X connect 33 0 32 0;
#X connect 33 0 35 0;
#X connect 35 0 36 0;
#X connect 35 0 78 0;
#X connect 38 0 40 0;
#X connect 38 0 88 0;
#X connect 39 0 38 0;
#X connect 39 0 87 0;
#X connect 40 0 102 0;
#X connect 40 1 102 1;
#X connect 41 0 102 0;
#X connect 42 0 80 0;
#X connect 42 0 89 0;
#X connect 43 0 44 0;
#X connect 43 1 45 0;
#X connect 43 2 46 0;
#X connect 43 3 47 0;
#X connect 43 4 76 0;
#X connect 44 0 49 0;
#X connect 45 0 48 0;
#X connect 46 0 50 0;
#X connect 47 0 51 0;
#X connect 48 0 54 0;
#X connect 49 0 54 0;
#X connect 50 0 54 0;
#X connect 51 0 54 0;
#X connect 52 0 43 0;
#X connect 52 0 69 0;
#X connect 53 0 52 0;
#X connect 54 0 41 0;
#X connect 54 0 90 0;
#X connect 54 1 39 0;
#X connect 55 0 56 0;
#X connect 57 0 58 0;
#X connect 57 0 61 0;
#X connect 58 0 59 0;
#X connect 58 0 62 0;
#X connect 59 0 63 0;
#X connect 59 0 57 1;
#X connect 60 0 57 0;
#X connect 61 0 92 0;
#X connect 64 0 59 0;
#X connect 64 1 59 1;
#X connect 65 0 64 0;
#X connect 66 0 65 0;
#X connect 67 0 42 0;
#X connect 67 1 42 0;
#X connect 68 0 55 0;
#X connect 68 1 55 0;
#X connect 68 1 85 0;
#X connect 70 0 71 0;
#X connect 71 0 72 0;
#X connect 73 0 74 0;
#X connect 74 0 75 0;
#X connect 79 0 53 0;
#X connect 82 0 83 0;
#X connect 83 0 84 0;
#X connect 89 0 81 0;
#X connect 89 0 68 0;
#X connect 91 0 51 0;
#X connect 92 0 79 0;
#X connect 92 1 53 0;
#X connect 93 0 94 0;
#X connect 94 0 95 0;
#X connect 96 0 39 0;
#X connect 99 0 102 0;
#X connect 100 0 102 1;
#X connect 101 0 102 1;
#X connect 102 0 82 0;
#X connect 102 0 86 0;
#X connect 102 0 67 0;
#X connect 102 0 98 0;
