#N canvas 3 45 1920 1016 12;
#X obj 21 27 inlet;
#X obj 123 23 inlet;
#X obj 21 156 *~;
#X obj 39 124 *~ 0.2;
#X obj 141 124 *~ 0.2;
#X obj 246 123 *~ 0.2;
#X obj 348 122 *~ 0.2;
#X obj 453 122 *~ 0.2;
#X obj 556 120 *~ 0.2;
#X obj 666 125 *~ 0.2;
#X obj 666 99 phasor~ 110;
#X obj 556 94 phasor~ 220;
#X obj 453 96 phasor~ 440;
#X obj 348 96 phasor~ 880;
#X obj 246 97 phasor~ 140;
#X obj 141 98 phasor~ 280;
#X obj 39 97 phasor~ 560;
#X obj 123 157 *~;
#X obj 228 21 inlet;
#X obj 228 155 *~;
#X obj 330 23 inlet;
#X obj 330 156 *~;
#X obj 435 25 inlet;
#X obj 435 159 *~;
#X obj 538 26 inlet;
#X obj 538 159 *~;
#X obj 648 25 inlet;
#X obj 648 158 *~;
#X obj 775 128 *~ 0.2;
#X obj 757 26 inlet;
#X obj 757 159 *~;
#X obj 880 127 *~ 0.2;
#X obj 862 28 inlet;
#X obj 862 161 *~;
#X obj 775 102 phasor~ 450;
#X obj 880 101 phasor~ 900;
#X obj 525 289 dac~;
#X obj 985 124 *~ 0.2;
#X obj 967 25 inlet;
#X obj 967 159 *~;
#X obj 985 99 phasor~ 1350;
#X obj 21 71 line~;
#X text 52 301 replace to signal;
#X obj 208 399 mtof;
#X obj 379 289 vsl 19 162 0 127 0 0 empty empty empty 0 -9 0 12 #fcfcfc #000000 #000000 0 1;
#X obj 123 68 line~;
#X obj 228 68 line~;
#X obj 330 71 line~;
#X obj 435 74 line~;
#X obj 538 72 line~;
#X obj 648 73 line~;
#X obj 757 73 line~;
#X obj 862 74 line~;
#X obj 967 70 line~;
#X obj 123 46 pack 0 30;
#X obj 20 49 pack 0 30;
#X obj 228 46 pack 0 30;
#X obj 330 49 pack 0 30;
#X obj 435 52 pack 0 30;
#X obj 538 50 pack 0 30;
#X obj 648 51 pack 0 30;
#X obj 757 51 pack 0 30;
#X obj 862 52 pack 0 30;
#X obj 967 48 pack 0 30;
#X connect 0 0 55 0;
#X connect 1 0 54 0;
#X connect 2 0 36 0;
#X connect 2 0 36 1;
#X connect 3 0 2 1;
#X connect 4 0 17 1;
#X connect 5 0 19 1;
#X connect 6 0 21 1;
#X connect 7 0 23 1;
#X connect 8 0 25 1;
#X connect 9 0 27 1;
#X connect 10 0 9 0;
#X connect 11 0 8 0;
#X connect 12 0 7 0;
#X connect 13 0 6 0;
#X connect 14 0 5 0;
#X connect 15 0 4 0;
#X connect 16 0 3 0;
#X connect 17 0 36 0;
#X connect 17 0 36 1;
#X connect 18 0 56 0;
#X connect 19 0 36 0;
#X connect 19 0 36 1;
#X connect 20 0 57 0;
#X connect 21 0 36 0;
#X connect 21 0 36 1;
#X connect 22 0 58 0;
#X connect 23 0 36 0;
#X connect 23 0 36 1;
#X connect 24 0 59 0;
#X connect 25 0 36 0;
#X connect 25 0 36 1;
#X connect 26 0 60 0;
#X connect 27 0 36 0;
#X connect 27 0 36 1;
#X connect 28 0 30 1;
#X connect 29 0 61 0;
#X connect 30 0 36 0;
#X connect 30 0 36 1;
#X connect 31 0 33 1;
#X connect 32 0 62 0;
#X connect 33 0 36 0;
#X connect 33 0 36 1;
#X connect 34 0 28 0;
#X connect 35 0 31 0;
#X connect 37 0 39 1;
#X connect 38 0 63 0;
#X connect 39 0 36 0;
#X connect 39 0 36 1;
#X connect 40 0 37 0;
#X connect 41 0 2 0;
#X connect 44 0 43 0;
#X connect 45 0 17 0;
#X connect 46 0 19 0;
#X connect 47 0 21 0;
#X connect 48 0 23 0;
#X connect 49 0 25 0;
#X connect 50 0 27 0;
#X connect 51 0 30 0;
#X connect 52 0 33 0;
#X connect 53 0 39 0;
#X connect 54 0 45 0;
#X connect 55 0 41 0;
#X connect 56 0 46 0;
#X connect 57 0 47 0;
#X connect 58 0 48 0;
#X connect 59 0 49 0;
#X connect 60 0 50 0;
#X connect 61 0 51 0;
#X connect 62 0 52 0;
#X connect 63 0 53 0;
