#N canvas 725 78 991 821 12;
#X obj 151 137 3NAND;
#X obj 259 139 3NAND;
#X obj 160 262 NAND;
#X obj 248 264 NAND;
#X obj 163 62 tgl 19 0 empty empty empty 0 -10 0 12 #fcfcfc #000000 #000000 0 1;
#X obj 208 63 tgl 19 0 empty empty empty 0 -10 0 12 #fcfcfc #000000 #000000 0 1;
#X obj 268 59 tgl 19 0 empty empty empty 0 -10 0 12 #fcfcfc #000000 #000000 0 1;
#X floatatom 160 351 5 0 0 0 - - - 0;
#X floatatom 249 356 5 0 0 0 - - - 0;
#X obj 238 300 f;
#X obj 166 302 f;
#X text 276 306 Q;
#X obj 313 341 print Q;
#X connect 0 0 2 0;
#X connect 1 0 3 1;
#X connect 2 0 7 0;
#X connect 2 0 10 1;
#X connect 3 0 8 0;
#X connect 3 0 9 1;
#X connect 4 0 0 1;
#X connect 5 0 0 2;
#X connect 5 0 1 0;
#X connect 5 0 9 0;
#X connect 5 0 10 0;
#X connect 6 0 1 1;
#X connect 9 0 2 1;
#X connect 9 0 0 0;
#X connect 9 0 12 0;
#X connect 10 0 3 0;
#X connect 10 0 1 2;
