#N canvas 228 228 1920 1016 12;
#X floatatom 121 359 5 0 0 0 - - - 0;
#X text 108 399 invQ;
#X floatatom 188 360 5 0 0 0 - - - 0;
#X text 195 394 Q;
#X obj 53 34 inlet K;
#X obj 143 34 inlet clk;
#X obj 249 36 inlet J;
#X obj 58 442 outlet invQ;
#X obj 190 441 outlet Q;
#X obj 76 177 &&;
#X obj 219 174 &&;
#X obj 67 130 t b f;
#X obj 186 135 t b f;
#X obj 134 282 SRflip;
#X connect 0 0 12 0;
#X connect 0 0 7 0;
#X connect 2 0 9 0;
#X connect 2 0 8 0;
#X connect 4 0 11 0;
#X connect 5 0 13 1;
#X connect 6 0 10 0;
#X connect 9 0 13 0;
#X connect 10 0 13 2;
#X connect 11 0 9 0;
#X connect 11 1 9 1;
#X connect 12 0 10 0;
#X connect 12 1 10 1;
#X connect 13 0 0 0;
#X connect 13 1 2 0;
