#N canvas 114 114 1920 1016 12;
#X obj 196 25 inlet DB;
#X obj 288 24 inlet DF;
#X obj 375 25 inlet RS;
#X obj 460 28 inlet S;
#X obj 13 435 outlet oscgate;
#X obj 222 437 outlet timer;
#X obj 323 437 outlet DB;
#X obj 127 436 outlet lamp;
#X obj 398 438 outlet DF;
#X obj 481 439 outlet RS;
#X obj 569 438 outlet S;
#X obj 803 328 moses;
#X obj 808 383 route;
#X msg 862 101 1;
#X obj 288 48 != 1;
#X obj 288 72 f;
#X obj 288 96 != 1;
#X msg 903 101 0;
#X floatatom 873 175 5 0 0 0 - - - 0;
#X obj 875 138 NOR;
#X obj 611 190 &&;
#X connect 1 0 14 0;
#X connect 2 0 9 0;
#X connect 13 0 19 0;
#X connect 14 0 4 0;
#X connect 14 0 15 0;
#X connect 15 0 16 0;
#X connect 16 0 7 0;
#X connect 16 0 5 0;
#X connect 17 0 19 0;
#X connect 19 0 18 0;
