#N canvas 447 0 1440 1004 12;
#X floatatom 121 359 5 0 0 0 - - - 0;
#X text 108 399 invQ;
#X floatatom 188 360 5 0 0 0 - - - 0;
#X text 195 394 Q;
#X obj 76 177 &&;
#X obj 220 171 &&;
#X obj 67 130 t b f;
#X obj 186 135 t b f;
#X obj 134 282 SRflip;
#X msg 121 15 1;
#X msg 166 15 0;
#X obj 144 93 f;
#X floatatom 144 117 5 0 0 0 - - - 0;
#X msg 28 -13 1;
#X msg 73 -13 0;
#X obj 51 65 f;
#X floatatom 51 89 5 0 0 0 - - - 0;
#X text 10 85 K;
#X text 253 114 J;
#X msg 228 -10 1;
#X msg 273 -10 0;
#X obj 251 68 f;
#X floatatom 251 92 5 0 0 0 - - - 0;
#X obj 232 313 print Q;
#X obj 44 329 print invQ;
#X connect 0 0 7 0;
#X connect 2 0 4 0;
#X connect 4 0 8 0;
#X connect 5 0 8 2;
#X connect 6 0 4 0;
#X connect 6 1 4 1;
#X connect 7 0 5 0;
#X connect 7 1 5 1;
#X connect 8 0 0 0;
#X connect 8 0 24 0;
#X connect 8 1 2 0;
#X connect 8 1 23 0;
#X connect 9 0 11 0;
#X connect 10 0 11 0;
#X connect 11 0 12 0;
#X connect 12 0 8 1;
#X connect 13 0 15 0;
#X connect 14 0 15 0;
#X connect 15 0 16 0;
#X connect 16 0 6 0;
#X connect 19 0 21 0;
#X connect 20 0 21 0;
#X connect 21 0 22 0;
#X connect 22 0 5 0;
