#N canvas 1914 0 1920 1016 12;
#X obj 6 8 inlet;
#X obj 71 166 *~;
#X obj 7 52 line~;
#X obj 6 30 pack 0 30;
#X obj 71 218 outlet~;
#X obj 71 190 *~;
#X obj 174 6 inlet indgain;
#X obj 89 136 square;
#X obj 187 151 freqvib;
#X obj 281 7 inlet vib;
#X obj 83 5 inlet;
#X obj 451 137 r grov;
#X obj 380 218 loadbang;
#X msg 380 242 2;
#X obj 380 266 pow;
#X obj 445 242 t b f;
#X obj 445 194 +;
#X obj 451 166 t b f;
#X connect 0 0 3 0;
#X connect 1 0 5 0;
#X connect 2 0 1 0;
#X connect 3 0 2 0;
#X connect 5 0 4 0;
#X connect 6 0 5 1;
#X connect 7 0 1 1;
#X connect 8 0 7 0;
#X connect 9 0 8 1;
#X connect 10 0 16 0;
#X connect 11 0 17 0;
#X connect 12 0 13 0;
#X connect 13 0 14 0;
#X connect 15 0 14 0;
#X connect 15 1 14 1;
#X connect 16 0 15 0;
#X connect 17 0 16 0;
#X connect 17 1 16 1;
