#N canvas 114 114 1920 1016 12;
#X text 21 589 Based on layout objects from PdParty and PdDroidParty.;
#X text 39 624 (Note that attaching send/receive objects to each;
#X text 99 643 GUI object is not necessary.);
#X text 15 561 Size your Pd patch window to the intended aspect ratio.;
#X obj 184 105 t f f;
#X obj 183 175 pack f f;
#X obj 292 215 pack f f;
#X obj 281 169 expr centsv * $f1;
#X obj 208 144 t b f;
#X obj 314 191 t b f;
#X obj 114 317 vline~;
#X listbox 183 199 10 0 0 0 - - - 0;
#X obj 101 215 tgl 19 0 empty empty empty 0 -10 0 12 #fcfcfc #000000 #000000 0 1;
#X obj 101 241 t f f;
#X listbox 292 239 13 0 0 0 - - - 0;
#X obj 86 275 sel 1;
#X obj 130 274 sel 0;
#X obj 155 42 == 1;
#X obj 193 42 == 0;
#X obj 22 113 spigot;
#X obj 22 57 t f f;
#X obj 22 137 sig~;
#X obj 76 113 spigot;
#X obj 338 109 t f f f;
#X obj 115 344 *~;
#X obj 21 169 *~;
#X obj 10 86 f;
#X obj 46 86 f;
#X obj 101 191 metro 1000;
#X obj 274 31 loadbang;
#X msg 274 55 0;
#X obj 274 79 t f f;
#X obj 101 163 tgl 19 0 empty empty empty 0 -10 0 12 #fcfcfc #000000 #000000 0 1;
#X obj 13 311 dac~;
#X obj 21 213 osc~;
#X msg 22 32 440;
#X obj 21 4 loadbang;
#X obj 155 15 t f f f;
#X obj 70 492 value centsv;
#X obj 70 466 pow;
#X obj 73 439 t b f;
#X msg 39 434 2;
#X obj 149 409 bng 19 250 50 0 empty empty empty 0 -10 0 12 #fcfcfc #000000 #000000;
#X obj 149 433 v centsv;
#X floatatom 149 457 16 0 0 0 - - - 0;
#X msg 71 386 5;
#X obj 74 415 / 120;
#X obj 43 336 loadbang;
#X obj 43 360 t b b;
#X obj 207 314 receive fromGUI;
#X obj 207 340 list trim;
#X obj 257 406 * 100;
#X obj 129 73 t f b f;
#X obj 192 72 t f b f;
#X obj 207 364 route /tgl /knb /on;
#X msg 340 308 \; pd dsp \$1;
#X connect 4 0 5 0;
#X connect 4 1 7 0;
#X connect 5 0 11 0;
#X connect 6 0 14 0;
#X connect 7 0 6 0;
#X connect 8 0 5 0;
#X connect 8 1 5 1;
#X connect 9 0 6 0;
#X connect 9 1 6 1;
#X connect 10 0 24 0;
#X connect 11 0 10 0;
#X connect 12 0 13 0;
#X connect 13 0 15 0;
#X connect 13 1 16 0;
#X connect 14 0 10 0;
#X connect 15 0 11 0;
#X connect 16 0 14 0;
#X connect 17 0 52 0;
#X connect 18 0 53 0;
#X connect 19 0 21 0;
#X connect 20 0 26 1;
#X connect 20 1 27 1;
#X connect 21 0 25 0;
#X connect 22 0 4 0;
#X connect 23 0 8 0;
#X connect 23 1 9 0;
#X connect 23 2 28 1;
#X connect 24 0 34 0;
#X connect 25 0 34 0;
#X connect 26 0 19 0;
#X connect 27 0 22 0;
#X connect 28 0 12 0;
#X connect 29 0 30 0;
#X connect 30 0 31 0;
#X connect 31 0 11 0;
#X connect 31 1 14 0;
#X connect 32 0 28 0;
#X connect 34 0 33 0;
#X connect 34 0 33 1;
#X connect 35 0 20 0;
#X connect 36 0 35 0;
#X connect 37 0 17 0;
#X connect 37 1 18 0;
#X connect 37 2 32 0;
#X connect 39 0 38 0;
#X connect 40 0 39 0;
#X connect 40 1 39 1;
#X connect 41 0 39 0;
#X connect 42 0 43 0;
#X connect 43 0 44 0;
#X connect 45 0 46 0;
#X connect 46 0 40 0;
#X connect 47 0 48 0;
#X connect 48 0 41 0;
#X connect 48 1 45 0;
#X connect 49 0 50 0;
#X connect 50 0 54 0;
#X connect 51 0 23 0;
#X connect 52 0 24 1;
#X connect 52 1 27 0;
#X connect 52 2 22 1;
#X connect 53 0 25 1;
#X connect 53 1 26 0;
#X connect 53 2 19 1;
#X connect 54 0 37 0;
#X connect 54 1 51 0;
#X connect 54 2 55 0;
