#N canvas 1914 0 1920 1016 12;
#X obj 182 91 tgl 19 0 empty empty empty 0 -10 0 12 #fcfcfc #000000 #000000 0 1;
#X obj 182 115 metro 500;
#X obj 276 72 vradio 19 1 0 3 empty empty empty 0 -10 0 12 #fcfcfc #000000 #000000 0;
#X floatatom 276 159 5 0 0 0 - - - 0;
#X obj 276 134 + 1;
#X obj 182 139 tgl 19 0 empty empty empty 0 -10 0 12 #fcfcfc #000000 #000000 0 1;
#X obj 146 223 mode, f 17;
#X obj 295 222 mode, f 17;
#X obj 353 312 tgl 19 0 empty empty empty 0 -10 0 12 #fcfcfc #000000 #000000 0 1;
#X obj 173 267 bng 19 250 50 0 empty empty empty 0 -10 0 12 #fcfcfc #000000 #000000;
#X obj 409 80 vradio 19 1 0 3 empty empty empty 0 -10 0 12 #fcfcfc #000000 #000000 0;
#X floatatom 409 167 5 0 0 0 - - - 0;
#X obj 409 142 + 1;
#X obj 208 268 tgl 19 0 empty empty empty 0 -10 0 12 #fcfcfc #000000 #000000 0 1;
#X obj 235 268 bng 19 250 50 0 empty empty empty 0 -10 0 12 #fcfcfc #000000 #000000;
#X obj 388 313 tgl 19 0 empty empty empty 0 -10 0 12 #fcfcfc #000000 #000000 0 1;
#X obj 324 273 bng 19 250 50 0 empty empty empty 0 -10 0 12 #fcfcfc #000000 #000000;
#X obj 361 275 tgl 19 0 empty empty empty 0 -10 0 12 #fcfcfc #000000 #000000 0 1;
#X obj 388 275 bng 19 250 50 0 empty empty empty 0 -10 0 12 #fcfcfc #000000 #000000;
#X obj 608 70 vradio 19 1 0 3 empty empty empty 0 -10 0 12 #fcfcfc #000000 #000000 0;
#X floatatom 608 157 5 0 0 0 - - - 0;
#X obj 608 132 + 1;
#X obj 478 221 mode, f 17;
#X obj 627 220 mode, f 17;
#X obj 429 315 tgl 19 0 empty empty empty 0 -10 0 12 #fcfcfc #000000 #000000 0 1;
#X obj 505 265 bng 19 250 50 0 empty empty empty 0 -10 0 12 #fcfcfc #000000 #000000;
#X obj 741 78 vradio 19 1 0 3 empty empty empty 0 -10 0 12 #fcfcfc #000000 #000000 0;
#X floatatom 741 165 5 0 0 0 - - - 0;
#X obj 741 140 + 1;
#X obj 540 266 tgl 19 0 empty empty empty 0 -10 0 12 #fcfcfc #000000 #000000 0 1;
#X obj 567 266 bng 19 250 50 0 empty empty empty 0 -10 0 12 #fcfcfc #000000 #000000;
#X obj 461 315 tgl 19 0 empty empty empty 0 -10 0 12 #fcfcfc #000000 #000000 0 1;
#X obj 656 271 bng 19 250 50 0 empty empty empty 0 -10 0 12 #fcfcfc #000000 #000000;
#X obj 693 273 tgl 19 0 empty empty empty 0 -10 0 12 #fcfcfc #000000 #000000 0 1;
#X obj 720 273 bng 19 250 50 0 empty empty empty 0 -10 0 12 #fcfcfc #000000 #000000;
#X msg 210 31 1000;
#X msg 260 33 500;
#X obj 344 350 != 1;
#X obj 385 350 != 1;
#X obj 428 350 != 1;
#X obj 471 349 != 1;
#X obj 346 427 tgl 30 0 empty empty empty 0 -10 0 12 #00faff #000000 #000000 0 1;
#X obj 388 427 tgl 30 0 empty empty empty 0 -10 0 12 #00faff #000000 #000000 0 1;
#X obj 431 425 tgl 30 0 empty empty empty 0 -10 0 12 #00faff #000000 #000000 0 1;
#X obj 474 425 tgl 30 0 empty empty empty 0 -10 0 12 #00faff #000000 #000000 0 1;
#X msg 153 30 2000;
#X obj 614 419 tgl 30 0 empty empty empty 0 -10 0 12 #00faff #000000 #000000 0 1;
#X obj 656 419 tgl 30 0 empty empty empty 0 -10 0 12 #00faff #000000 #000000 0 1;
#X obj 699 417 tgl 30 0 empty empty empty 0 -10 0 12 #00faff #000000 #000000 0 1;
#X obj 742 417 tgl 30 0 empty empty empty 0 -10 0 12 #00faff #000000 #000000 0 1;
#X connect 0 0 1 0;
#X connect 1 0 5 0;
#X connect 2 0 4 0;
#X connect 3 0 6 4;
#X connect 4 0 3 0;
#X connect 5 0 6 1;
#X connect 5 0 6 2;
#X connect 5 0 6 3;
#X connect 6 1 8 0;
#X connect 6 1 9 0;
#X connect 6 4 7 1;
#X connect 6 4 13 0;
#X connect 6 4 14 0;
#X connect 6 4 46 0;
#X connect 6 5 7 2;
#X connect 6 6 7 3;
#X connect 7 1 15 0;
#X connect 7 1 16 0;
#X connect 7 3 6 0;
#X connect 7 4 17 0;
#X connect 7 4 18 0;
#X connect 7 4 22 1;
#X connect 7 4 47 0;
#X connect 7 5 22 2;
#X connect 7 6 22 3;
#X connect 8 0 37 0;
#X connect 10 0 12 0;
#X connect 11 0 7 4;
#X connect 12 0 11 0;
#X connect 15 0 38 0;
#X connect 19 0 21 0;
#X connect 20 0 22 4;
#X connect 21 0 20 0;
#X connect 22 1 24 0;
#X connect 22 1 25 0;
#X connect 22 3 7 0;
#X connect 22 4 23 1;
#X connect 22 4 29 0;
#X connect 22 4 30 0;
#X connect 22 4 48 0;
#X connect 22 5 23 2;
#X connect 22 6 23 3;
#X connect 23 1 31 0;
#X connect 23 1 32 0;
#X connect 23 3 22 0;
#X connect 23 4 33 0;
#X connect 23 4 34 0;
#X connect 23 4 49 0;
#X connect 24 0 39 0;
#X connect 26 0 28 0;
#X connect 27 0 23 4;
#X connect 28 0 27 0;
#X connect 31 0 40 0;
#X connect 35 0 1 1;
#X connect 36 0 1 1;
#X connect 37 0 41 0;
#X connect 38 0 42 0;
#X connect 39 0 43 0;
#X connect 40 0 44 0;
#X connect 45 0 1 1;
