#N canvas 1910 1001 1920 1016 12;
#X obj 48 44 inlet DB;
#X obj 190 30 inlet DF;
#X obj 432 25 inlet RS;
#X obj 542 25 inlet S;
#X obj 13 435 outlet oscgate;
#X obj 222 437 outlet timer;
#X obj 323 437 outlet DB;
#X obj 127 436 outlet lamp;
#X obj 450 437 outlet DF;
#X obj 533 438 outlet RS;
#X obj 621 437 outlet S;
#X obj 190 78 != 1;
#X obj 190 113 f;
#X obj 190 144 != 1;
#X obj 623 24 inlet mode;
#X obj 407 250 NOR;
#X msg 748 64 1;
#X msg 822 66 0;
#X obj 441 285 NOR;
#X obj 412 326 JK, f 4;
#X obj 358 213 switch_S-CB;
#X obj 442 378 switch_CS-B;
#X obj 594 265 switch_S-CB;
#X obj 309 390 switch_S-CB;
#X obj 750 115 switch_CS-B;
#X obj 751 172 switch_S-CB;
#X obj 770 24 loadbang;
#X obj 159 181 bng 19 250 50 0 empty empty empty 0 -10 0 12 #fcfcfc #000000 #000000;
#X floatatom 204 191 5 0 0 0 - - - 0;
#X obj 358 237 tgl 19 0 empty empty empty 0 -10 0 12 #fcfcfc #000000 #000000 0 1;
#X obj 376 286 tgl 19 0 empty empty empty 0 -10 0 12 #fcfcfc #000000 #000000 0 1;
#X obj 473 322 tgl 19 0 empty empty empty 0 -10 0 12 #fcfcfc #000000 #000000 0 1;
#X obj 400 363 tgl 19 0 empty empty empty 0 -10 0 12 #fcfcfc #000000 #000000 0 1;
#X connect 0 0 20 2;
#X connect 0 0 23 0;
#X connect 1 0 11 0;
#X connect 2 0 9 0;
#X connect 3 0 22 0;
#X connect 11 0 4 0;
#X connect 11 0 12 0;
#X connect 12 0 13 0;
#X connect 12 0 23 2;
#X connect 13 0 7 0;
#X connect 13 0 5 0;
#X connect 13 0 20 0;
#X connect 13 0 22 2;
#X connect 13 0 27 0;
#X connect 13 0 28 0;
#X connect 14 0 20 1;
#X connect 14 0 21 1;
#X connect 14 0 22 1;
#X connect 14 0 23 1;
#X connect 14 0 24 1;
#X connect 14 0 25 1;
#X connect 15 0 18 0;
#X connect 15 0 19 0;
#X connect 15 0 30 0;
#X connect 16 0 24 0;
#X connect 17 0 24 2;
#X connect 17 0 25 0;
#X connect 18 0 19 2;
#X connect 18 0 31 0;
#X connect 19 0 21 2;
#X connect 19 0 32 0;
#X connect 19 1 21 0;
#X connect 20 0 15 0;
#X connect 20 0 29 0;
#X connect 21 0 8 0;
#X connect 22 0 10 0;
#X connect 22 0 19 1;
#X connect 23 0 6 0;
#X connect 24 0 25 2;
#X connect 25 0 15 1;
#X connect 25 0 18 1;
#X connect 26 0 16 0;
#X connect 26 0 17 0;
