#N canvas 185 0 1920 1016 12;
#X obj 76 321 spigot;
#X obj 115 291 tgl 19 0 empty empty empty 0 -10 0 12 #fcfcfc #000000 #000000 0 1;
#X obj 174 421 outlet;
#X obj 279 319 spigot;
#X obj 247 289 tgl 19 0 empty empty empty 0 -10 0 12 #fcfcfc #000000 #000000 0 1;
#X obj 157 57 inlet mode;
#X obj 178 257 spigot;
#X obj 175 210 tgl 19 0 empty empty empty 0 -10 0 12 #fcfcfc #000000 #000000 0 1;
#X obj 72 56 inlet c;
#X obj 265 56 inlet rb;
#X obj 172 183 == 2;
#X text 325 143 c= 3 \, r=2 \, b=1;
#X obj 116 264 == 3;
#X obj 244 256 == 1;
#X connect 0 0 2 0;
#X connect 1 0 0 1;
#X connect 3 0 2 0;
#X connect 4 0 3 1;
#X connect 5 0 10 0;
#X connect 5 0 12 0;
#X connect 5 0 13 0;
#X connect 6 0 2 0;
#X connect 7 0 6 1;
#X connect 8 0 0 0;
#X connect 9 0 3 0;
#X connect 9 0 6 0;
#X connect 10 0 7 0;
#X connect 12 0 1 0;
#X connect 13 0 4 0;
