#N canvas 38 38 1920 1016 12;
#X obj 36 26 inlet clk;
#X obj 176 220 outlet reset;
#X obj 113 24 inlet reset;
#X obj 113 48 t f f f f f f f f f;
#X obj 78 149 nr1, f 8;
#X obj 78 221 outlet clkstp;
#X obj 619 150 nr10, f 8;
#X obj 207 23 r m1;
#X obj 250 24 r m2;
#X obj 295 23 r m3;
#X obj 339 23 r m4;
#X obj 380 23 r m5;
#X obj 422 23 r m6;
#X obj 462 23 r m7;
#X obj 498 23 r m8;
#X obj 536 24 r m9;
#X obj 575 24 r m10;
#X obj 268 220 s l1;
#X obj 305 220 s l2;
#X obj 342 220 s l3;
#X obj 378 220 s l4;
#X obj 413 220 s l5;
#X obj 449 220 s l6;
#X obj 485 220 s l7;
#X obj 521 219 s l8;
#X obj 557 219 s l9;
#X obj 592 219 s l10;
#X obj 146 150 stage2, f 7;
#X obj 205 150 stage2, f 7;
#X obj 263 151 stage2, f 7;
#X obj 323 150 stage2, f 7;
#X obj 381 150 stage2, f 7;
#X obj 441 150 stage2, f 7;
#X obj 499 150 stage2, f 7;
#X obj 558 150 stage2, f 7;
#X connect 0 0 4 0;
#X connect 2 0 3 0;
#X connect 3 0 6 3;
#X connect 3 1 34 3;
#X connect 3 2 33 3;
#X connect 3 3 32 3;
#X connect 3 4 31 3;
#X connect 3 5 30 3;
#X connect 3 6 29 3;
#X connect 3 7 28 3;
#X connect 3 8 27 3;
#X connect 4 0 5 0;
#X connect 4 1 1 0;
#X connect 4 2 17 0;
#X connect 4 3 27 0;
#X connect 4 4 27 1;
#X connect 6 0 34 4;
#X connect 6 1 26 0;
#X connect 7 0 4 2;
#X connect 8 0 27 2;
#X connect 9 0 28 2;
#X connect 10 0 29 2;
#X connect 11 0 30 2;
#X connect 12 0 31 2;
#X connect 13 0 32 2;
#X connect 14 0 33 2;
#X connect 15 0 34 2;
#X connect 16 0 6 2;
#X connect 27 0 4 4;
#X connect 27 1 18 0;
#X connect 27 2 28 0;
#X connect 27 3 28 1;
#X connect 28 0 27 4;
#X connect 28 1 19 0;
#X connect 28 2 29 0;
#X connect 28 3 29 1;
#X connect 29 0 28 4;
#X connect 29 1 20 0;
#X connect 29 2 30 0;
#X connect 29 3 30 1;
#X connect 30 0 29 4;
#X connect 30 1 21 0;
#X connect 30 2 31 0;
#X connect 30 3 31 1;
#X connect 31 0 30 4;
#X connect 31 1 22 0;
#X connect 31 2 32 0;
#X connect 31 3 32 1;
#X connect 32 0 31 4;
#X connect 32 1 23 0;
#X connect 32 2 33 0;
#X connect 32 3 33 1;
#X connect 33 0 32 4;
#X connect 33 1 24 0;
#X connect 33 2 34 0;
#X connect 33 3 34 1;
#X connect 34 0 33 4;
#X connect 34 1 25 0;
#X connect 34 2 6 0;
#X connect 34 3 6 1;
