#N canvas -8 81 1920 1016 12;
#X obj 103 219 b2, f 7;
#X obj 186 219 loads, f 7;
#X obj 260 218 loads, f 7;
#X obj 332 219 b2, f 7;
#X obj 397 220 loads, f 7;
#X obj 257 63 bng 19 250 50 0 empty empty empty 0 -10 0 12 #fcfcfc #000000 #000000;
#X obj 130 69 tgl 19 0 empty empty empty 0 -10 0 12 #fcfcfc #000000 #000000 0 1;
#X obj 130 93 metro 1500;
#X obj 130 117 tgl 19 0 empty empty empty 0 -10 0 12 #fcfcfc #000000 #000000 0 1;
#X msg 167 62 250;
#X msg 203 61 1500;
#X obj 136 318 tgl 24 0 empty empty empty 0 -10 0 12 #e3c6ff #000000 #000000 0 1;
#X obj 204 318 tgl 24 0 empty empty empty 0 -10 0 12 #e3c6ff #000000 #000000 0 1;
#X obj 263 318 tgl 24 0 empty empty empty 0 -10 0 12 #e3c6ff #000000 #000000 0 1;
#X obj 331 318 tgl 24 0 empty empty empty 0 -10 0 12 #e3c6ff #000000 #000000 0 1;
#X obj 390 319 tgl 24 0 empty empty empty 0 -10 0 12 #e3c6ff #000000 #000000 0 1;
#X msg 30 144 1;
#X floatatom 136 411 5 0 0 0 - - - 0;
#X obj 136 387 timer;
#X obj 136 357 bang;
#X floatatom 203 414 5 0 0 0 - - - 0;
#X obj 203 390 timer;
#X obj 203 360 bang;
#X floatatom 260 416 5 0 0 0 - - - 0;
#X obj 260 392 timer;
#X obj 260 362 bang;
#X floatatom 326 418 5 0 0 0 - - - 0;
#X obj 326 394 timer;
#X obj 326 364 bang;
#X floatatom 389 421 5 0 0 0 - - - 0;
#X obj 389 397 timer;
#X obj 389 367 bang;
#X obj 538 226 b2, f 7;
#X obj 537 325 tgl 24 0 empty empty empty 0 -10 0 12 #e3c6ff #000000 #000000 0 1;
#X floatatom 532 425 5 0 0 0 - - - 0;
#X obj 532 401 timer;
#X obj 532 371 bang;
#X obj 463 223 loads, f 7;
#X obj 456 322 tgl 24 0 empty empty empty 0 -10 0 12 #e3c6ff #000000 #000000 0 1;
#X floatatom 455 424 5 0 0 0 - - - 0;
#X obj 455 400 timer;
#X obj 455 370 bang;
#X obj 530 154 tgl 19 0 empty empty empty 0 -10 0 12 #fcfcfc #000000 #000000 0 1;
#X msg 575 161 1;
#X msg 583 186 0;
#X connect 0 0 11 0;
#X connect 0 1 1 0;
#X connect 0 2 1 1;
#X connect 1 0 12 0;
#X connect 1 1 2 0;
#X connect 1 2 2 1;
#X connect 1 3 0 3;
#X connect 2 0 13 0;
#X connect 2 1 3 0;
#X connect 2 2 3 1;
#X connect 2 3 1 3;
#X connect 3 0 14 0;
#X connect 3 1 4 0;
#X connect 3 2 4 1;
#X connect 3 3 2 3;
#X connect 4 0 15 0;
#X connect 4 1 37 0;
#X connect 4 2 37 1;
#X connect 4 3 3 3;
#X connect 5 0 0 2;
#X connect 5 0 2 2;
#X connect 5 0 4 2;
#X connect 5 0 1 2;
#X connect 5 0 37 2;
#X connect 5 0 3 2;
#X connect 5 0 32 2;
#X connect 6 0 7 0;
#X connect 7 0 8 0;
#X connect 8 0 0 0;
#X connect 9 0 7 1;
#X connect 10 0 7 1;
#X connect 11 0 19 0;
#X connect 12 0 22 0;
#X connect 13 0 25 0;
#X connect 14 0 28 0;
#X connect 15 0 31 0;
#X connect 18 0 17 0;
#X connect 19 0 18 1;
#X connect 19 0 18 0;
#X connect 21 0 20 0;
#X connect 22 0 21 1;
#X connect 22 0 21 0;
#X connect 24 0 23 0;
#X connect 25 0 24 1;
#X connect 25 0 24 0;
#X connect 27 0 26 0;
#X connect 28 0 27 1;
#X connect 28 0 27 0;
#X connect 30 0 29 0;
#X connect 31 0 30 1;
#X connect 31 0 30 0;
#X connect 32 0 33 0;
#X connect 33 0 36 0;
#X connect 35 0 34 0;
#X connect 36 0 35 1;
#X connect 36 0 35 0;
#X connect 37 0 38 0;
#X connect 37 1 32 0;
#X connect 37 2 32 1;
#X connect 38 0 41 0;
#X connect 40 0 39 0;
#X connect 41 0 40 1;
#X connect 41 0 40 0;
#X connect 42 0 37 3;
#X connect 43 0 37 3;
#X connect 43 0 3 3;
#X connect 44 0 37 3;
#X connect 44 0 3 3;
