#N canvas 30 -11 1920 1016 12;
#X obj 100 87 metro 1000;
#X obj 100 111 tgl 19 0 empty empty empty 0 -10 0 12 #fcfcfc #000000 #000000 0 1;
#X obj 101 58 tgl 19 0 empty empty empty 0 -10 0 12 #fcfcfc #000000 #000000 0 1;
#X obj 104 195 count;
#X obj 169 194 count;
#X obj 231 193 count;
#X text 335 21 in: db df \, sm \, rs. Out: db df sm;
#X obj 284 194 count;
#X obj 337 193 count;
#X obj 120 231 != 1;
#X obj 120 267 tgl 24 0 empty empty empty 0 -10 0 12 #00faff #000000 #000000 0 1;
#X obj 181 231 != 1;
#X obj 181 267 tgl 24 0 empty empty empty 0 -10 0 12 #00faff #000000 #000000 0 1;
#X obj 237 232 != 1;
#X obj 237 268 tgl 24 0 empty empty empty 0 -10 0 12 #00faff #000000 #000000 0 1;
#X obj 298 232 != 1;
#X obj 298 268 tgl 24 0 empty empty empty 0 -10 0 12 #00faff #000000 #000000 0 1;
#X obj 353 231 != 1;
#X obj 353 267 tgl 24 0 empty empty empty 0 -10 0 12 #00faff #000000 #000000 0 1;
#X msg 166 44 500;
#X msg 256 80 0;
#X msg 155 19 200;
#X msg 209 37 50;
#X floatatom 180 370 5 0 0 0 - - - 0;
#X obj 180 346 timer;
#X obj 181 296 bang;
#X floatatom 118 374 5 0 0 0 - - - 0;
#X obj 118 350 timer;
#X obj 119 300 bang;
#X floatatom 236 373 5 0 0 0 - - - 0;
#X obj 236 349 timer;
#X obj 237 299 bang;
#X floatatom 296 376 5 0 0 0 - - - 0;
#X obj 296 352 timer;
#X obj 297 302 bang;
#X floatatom 354 378 5 0 0 0 - - - 0;
#X obj 354 354 timer;
#X obj 355 304 bang;
#X floatatom 49 273 5 0 0 0 - - - 0;
#X obj 49 249 timer;
#X obj 50 199 bang;
#X obj 390 194 shift;
#X obj 416 259 tgl 24 0 empty empty empty 0 -10 0 12 #00faff #000000 #000000 0 1;
#X floatatom 417 370 5 0 0 0 - - - 0;
#X obj 417 346 timer;
#X obj 418 296 bang;
#X obj 446 194 shift;
#X obj 472 259 tgl 24 0 empty empty empty 0 -10 0 12 #00faff #000000 #000000 0 1;
#X floatatom 473 370 5 0 0 0 - - - 0;
#X obj 473 346 timer;
#X obj 474 296 bang;
#X obj 492 195 shift;
#X obj 518 260 tgl 24 0 empty empty empty 0 -10 0 12 #00faff #000000 #000000 0 1;
#X floatatom 519 371 5 0 0 0 - - - 0;
#X obj 519 347 timer;
#X obj 520 297 bang;
#X obj 538 195 shift;
#X obj 564 260 tgl 24 0 empty empty empty 0 -10 0 12 #00faff #000000 #000000 0 1;
#X floatatom 565 371 5 0 0 0 - - - 0;
#X obj 565 347 timer;
#X obj 566 297 bang;
#X obj 588 196 shift;
#X obj 614 261 tgl 24 0 empty empty empty 0 -10 0 12 #00faff #000000 #000000 0 1;
#X floatatom 615 372 5 0 0 0 - - - 0;
#X obj 615 348 timer;
#X obj 616 298 bang;
#X obj 644 196 shift;
#X obj 670 261 tgl 24 0 empty empty empty 0 -10 0 12 #00faff #000000 #000000 0 1;
#X floatatom 671 372 5 0 0 0 - - - 0;
#X obj 671 348 timer;
#X obj 672 298 bang;
#X obj 690 197 shift;
#X obj 716 262 tgl 24 0 empty empty empty 0 -10 0 12 #00faff #000000 #000000 0 1;
#X floatatom 717 373 5 0 0 0 - - - 0;
#X obj 717 349 timer;
#X obj 718 299 bang;
#X obj 736 197 shift;
#X obj 762 262 tgl 24 0 empty empty empty 0 -10 0 12 #00faff #000000 #000000 0 1;
#X floatatom 763 373 5 0 0 0 - - - 0;
#X obj 763 349 timer;
#X obj 764 299 bang;
#X text 179 434 4 bit c;
#X text 458 436 9 bit alt shift;
#X msg 198 76 2500;
#X connect 0 0 1 0;
#X connect 1 0 3 1;
#X connect 1 0 40 0;
#X connect 2 0 0 0;
#X connect 3 1 4 1;
#X connect 3 1 9 0;
#X connect 4 1 5 1;
#X connect 4 1 11 0;
#X connect 5 1 7 1;
#X connect 5 1 13 0;
#X connect 7 1 8 1;
#X connect 7 1 15 0;
#X connect 8 1 17 0;
#X connect 8 1 41 1;
#X connect 8 2 41 2;
#X connect 9 0 10 0;
#X connect 10 0 28 0;
#X connect 11 0 12 0;
#X connect 12 0 25 0;
#X connect 13 0 14 0;
#X connect 14 0 31 0;
#X connect 15 0 16 0;
#X connect 16 0 34 0;
#X connect 17 0 18 0;
#X connect 18 0 37 0;
#X connect 19 0 0 1;
#X connect 20 0 3 3;
#X connect 20 0 4 3;
#X connect 20 0 5 3;
#X connect 20 0 7 3;
#X connect 20 0 8 3;
#X connect 21 0 0 1;
#X connect 22 0 0 1;
#X connect 24 0 23 0;
#X connect 25 0 24 1;
#X connect 25 0 24 0;
#X connect 27 0 26 0;
#X connect 28 0 27 1;
#X connect 28 0 27 0;
#X connect 30 0 29 0;
#X connect 31 0 30 1;
#X connect 31 0 30 0;
#X connect 33 0 32 0;
#X connect 34 0 33 1;
#X connect 34 0 33 0;
#X connect 36 0 35 0;
#X connect 37 0 36 1;
#X connect 37 0 36 0;
#X connect 39 0 38 0;
#X connect 40 0 39 1;
#X connect 40 0 39 0;
#X connect 41 1 42 0;
#X connect 41 1 46 1;
#X connect 41 2 46 2;
#X connect 42 0 45 0;
#X connect 44 0 43 0;
#X connect 45 0 44 1;
#X connect 45 0 44 0;
#X connect 46 1 47 0;
#X connect 46 1 51 1;
#X connect 46 2 51 2;
#X connect 47 0 50 0;
#X connect 49 0 48 0;
#X connect 50 0 49 1;
#X connect 50 0 49 0;
#X connect 51 1 52 0;
#X connect 51 1 56 1;
#X connect 51 2 56 2;
#X connect 52 0 55 0;
#X connect 54 0 53 0;
#X connect 55 0 54 1;
#X connect 55 0 54 0;
#X connect 56 1 57 0;
#X connect 56 1 61 1;
#X connect 56 2 61 2;
#X connect 57 0 60 0;
#X connect 59 0 58 0;
#X connect 60 0 59 1;
#X connect 60 0 59 0;
#X connect 61 1 62 0;
#X connect 61 1 66 1;
#X connect 61 2 66 2;
#X connect 62 0 65 0;
#X connect 64 0 63 0;
#X connect 65 0 64 1;
#X connect 65 0 64 0;
#X connect 66 1 67 0;
#X connect 66 1 71 1;
#X connect 66 2 71 2;
#X connect 67 0 70 0;
#X connect 69 0 68 0;
#X connect 70 0 69 1;
#X connect 70 0 69 0;
#X connect 71 1 72 0;
#X connect 71 1 76 1;
#X connect 71 2 76 2;
#X connect 72 0 75 0;
#X connect 74 0 73 0;
#X connect 75 0 74 1;
#X connect 75 0 74 0;
#X connect 76 1 77 0;
#X connect 77 0 80 0;
#X connect 79 0 78 0;
#X connect 80 0 79 1;
#X connect 80 0 79 0;
#X connect 83 0 0 1;
