#N canvas 152 152 1920 1016 12;
#X obj 146 198 Dflipflop;
#X obj 285 336 tgl 25 0 empty empty empty 0 -10 0 12 #c6feff #000000 #000000 0 1;
#X obj 323 336 tgl 25 0 empty empty empty 0 -10 0 12 #c6feff #000000 #000000 0 1;
#X obj 360 336 tgl 25 0 empty empty empty 0 -10 0 12 #c6feff #000000 #000000 0 1;
#X obj 396 337 tgl 25 0 empty empty empty 0 -10 0 12 #c6feff #000000 #000000 0 1;
#X obj 430 335 tgl 25 0 empty empty empty 0 -10 0 12 #c6feff #000000 #000000 0 1;
#X obj 239 197 Dflipflop;
#X obj 323 196 Dflipflop;
#X obj 416 195 Dflipflop;
#X obj 501 196 Dflipflop;
#X obj 594 195 Dflipflop;
#X obj 146 222 != 1;
#X obj 239 221 != 1;
#X obj 323 220 != 1;
#X obj 416 219 != 1;
#X obj 501 220 != 1;
#X obj 594 219 != 1;
#X obj 468 336 tgl 25 0 empty empty empty 0 -10 0 12 #c6feff #000000 #000000 0 1;
#X obj 172 60 tgl 19 0 empty empty empty 0 -10 0 12 #fcfcfc #000000 #000000 0 1;
#X obj 172 84 metro 1500;
#X obj 172 108 tgl 19 0 empty empty empty 0 -10 0 12 #fcfcfc #000000 #000000 0 1;
#X obj 75 137 tgl 19 0 empty empty empty 0 -10 0 12 #fcfcfc #000000 #000000 0 1;
#X obj 138 135 sel 1;
#X obj 190 225 f;
#X obj 279 223 f;
#X obj 365 220 f;
#X obj 458 220 f;
#X obj 542 221 f;
#X msg 205 55 500;
#X msg 242 56 1000;
#X msg 285 55 1500;
#X obj 636 219 f;
#X connect 0 0 11 0;
#X connect 0 1 23 1;
#X connect 6 0 12 0;
#X connect 6 1 24 1;
#X connect 7 0 13 0;
#X connect 7 1 25 1;
#X connect 8 0 14 0;
#X connect 8 1 26 1;
#X connect 9 0 15 0;
#X connect 9 1 27 1;
#X connect 10 0 16 0;
#X connect 10 1 31 1;
#X connect 11 0 1 0;
#X connect 12 0 2 0;
#X connect 13 0 3 0;
#X connect 14 0 4 0;
#X connect 15 0 5 0;
#X connect 16 0 17 0;
#X connect 18 0 19 0;
#X connect 19 0 20 0;
#X connect 20 0 0 1;
#X connect 20 0 6 1;
#X connect 20 0 7 1;
#X connect 20 0 8 1;
#X connect 20 0 9 1;
#X connect 20 0 10 1;
#X connect 20 0 22 0;
#X connect 21 0 0 0;
#X connect 22 0 23 0;
#X connect 22 0 24 0;
#X connect 22 0 25 0;
#X connect 22 0 26 0;
#X connect 22 0 27 0;
#X connect 22 0 31 0;
#X connect 23 0 6 0;
#X connect 24 0 7 0;
#X connect 25 0 8 0;
#X connect 26 0 9 0;
#X connect 27 0 10 0;
#X connect 28 0 19 1;
#X connect 29 0 19 1;
#X connect 30 0 19 1;
#X connect 31 0 0 0;
