#N canvas 38 38 1920 1016 12;
#X text 18 5 försöka att återskapa en ring counter . I enring counter finns JKFF där J får Q frpn steget före och K får !Q från steget före. Detta går också att åstadkomma med en D flipflop genom att mata D med Q från steget innan. En D FF är en JK FF med enbart en data input som då ger D=J och K=!D. Måste hitta ett sätt där allt inte sker samtidigt men ändå styrs av en klocka. Sista steget kopplas även tillbaa till första steget i sekvensen så det behövs bara en start och sedan är den självgående. Sättet som den första verkar sätt är att skicka in en signal till preset som i mitt fall betyder att skicka 0 till reset i JKFF(tror jag?)(JA);
#X obj 499 218 Dflipflop;
#X msg 555 181 0;
#X obj 499 251 t f f;
#X obj 499 275 tgl 19 0 empty empty empty 0 -10 0 12 #fcfcfc #000000 #000000 0 1;
#X obj 617 219 Dflipflop;
#X obj 627 252 t f f;
#X obj 627 277 tgl 19 0 empty empty empty 0 -10 0 12 #fcfcfc #000000 #000000 0 1;
#X obj 736 217 Dflipflop;
#X obj 748 250 t f f;
#X obj 748 274 tgl 19 0 empty empty empty 0 -10 0 12 #fcfcfc #000000 #000000 0 1;
#X obj 521 111 tgl 19 0 empty empty empty 0 -10 0 12 #fcfcfc #000000 #000000 0 1;
#X obj 521 135 metro 1500;
#X obj 521 159 tgl 19 0 empty empty empty 0 -10 0 12 #fcfcfc #000000 #000000 0 1;
#X msg 675 185 1;
#X msg 799 182 1;
#X obj 492 190 tgl 19 0 empty empty empty 0 -10 0 12 #fcfcfc #000000 #000000 0 1;
#X obj 845 221 Dflipflop;
#X obj 850 266 t f f;
#X obj 850 290 tgl 19 0 empty empty empty 0 -10 0 12 #fcfcfc #000000 #000000 0 1;
#X msg 908 186 1;
#X obj 466 122 f;
#X obj 465 98 sel 1;
#X obj 649 33 r last;
#X obj 896 106 tgl 19 0 empty empty empty 0 -10 0 12 #fcfcfc #000000 #000000 0 1;
#X obj 466 145 bng 19 250 50 0 empty empty empty 0 -10 0 12 #fcfcfc #000000 #000000;
#X obj 468 189 bng 19 250 50 0 empty empty empty 0 -10 0 12 #fcfcfc #000000 #000000;
#X obj 555 280 f;
#X obj 554 253 t b f;
#X obj 681 278 f;
#X obj 680 251 t b f;
#X obj 801 278 f;
#X obj 800 251 t b f;
#X obj 908 271 f;
#X obj 907 244 t b f;
#X obj 649 57 tgl 19 0 empty empty empty 0 -10 0 12 #fcfcfc #000000 #000000 0 1;
#X msg 587 96 500;
#X floatatom 632 399 5 0 0 0 - - - 0;
#X obj 632 375 timer;
#X obj 633 325 bang;
#X floatatom 570 403 5 0 0 0 - - - 0;
#X obj 570 379 timer;
#X obj 571 329 bang;
#X floatatom 688 402 5 0 0 0 - - - 0;
#X obj 688 378 timer;
#X obj 689 328 bang;
#X floatatom 748 405 5 0 0 0 - - - 0;
#X obj 748 381 timer;
#X obj 749 331 bang;
#X floatatom 790 142 5 0 0 0 - - - 0;
#X obj 790 118 timer;
#X obj 791 68 bang;
#X msg 626 104 250;
#X obj 68 324 loadb;
#X obj 126 323 loads;
#X obj 190 324 loads;
#X obj 244 323 loads;
#X obj 202 192 bng 19 250 50 0 empty empty empty 0 -10 0 12 #fcfcfc #000000 #000000;
#X obj 68 412 tgl 19 0 empty empty empty 0 -10 0 12 #fcfcfc #000000 #000000 0 1;
#X obj 126 412 tgl 19 0 empty empty empty 0 -10 0 12 #fcfcfc #000000 #000000 0 1;
#X obj 190 412 tgl 19 0 empty empty empty 0 -10 0 12 #fcfcfc #000000 #000000 0 1;
#X obj 244 413 tgl 19 0 empty empty empty 0 -10 0 12 #fcfcfc #000000 #000000 0 1;
#X obj 75 198 tgl 19 0 empty empty empty 0 -10 0 12 #fcfcfc #000000 #000000 0 1;
#X obj 75 222 metro 1500;
#X obj 75 246 tgl 19 0 empty empty empty 0 -10 0 12 #fcfcfc #000000 #000000 0 1;
#X msg 112 191 250;
#X obj 296 324 loadb;
#X obj 348 325 loads;
#X obj 400 326 loadb;
#X obj 296 413 tgl 19 0 empty empty empty 0 -10 0 12 #fcfcfc #000000 #000000 0 1;
#X obj 348 413 tgl 19 0 empty empty empty 0 -10 0 12 #fcfcfc #000000 #000000 0 1;
#X obj 400 414 tgl 19 0 empty empty empty 0 -10 0 12 #fcfcfc #000000 #000000 0 1;
#X msg 148 190 1500;
#X connect 1 1 3 0;
#X connect 1 2 28 0;
#X connect 2 0 1 2;
#X connect 3 0 4 0;
#X connect 3 1 27 1;
#X connect 4 0 42 0;
#X connect 5 1 6 0;
#X connect 5 2 30 0;
#X connect 6 0 7 0;
#X connect 6 1 29 1;
#X connect 7 0 39 0;
#X connect 8 1 9 0;
#X connect 8 2 32 0;
#X connect 9 0 10 0;
#X connect 9 1 31 1;
#X connect 10 0 45 0;
#X connect 11 0 12 0;
#X connect 12 0 13 0;
#X connect 13 0 1 1;
#X connect 13 0 22 0;
#X connect 14 0 5 2;
#X connect 15 0 8 2;
#X connect 16 0 1 0;
#X connect 16 0 26 0;
#X connect 17 1 18 0;
#X connect 17 2 34 0;
#X connect 18 0 19 0;
#X connect 18 1 24 0;
#X connect 18 1 33 1;
#X connect 19 0 48 0;
#X connect 20 0 17 2;
#X connect 21 0 25 0;
#X connect 22 0 21 0;
#X connect 23 0 35 0;
#X connect 27 0 5 0;
#X connect 27 0 51 0;
#X connect 28 0 27 0;
#X connect 28 1 5 1;
#X connect 29 0 8 0;
#X connect 30 0 29 0;
#X connect 30 1 8 1;
#X connect 31 0 17 0;
#X connect 32 0 31 0;
#X connect 32 1 17 1;
#X connect 33 0 16 0;
#X connect 34 0 33 0;
#X connect 36 0 12 1;
#X connect 38 0 37 0;
#X connect 39 0 38 1;
#X connect 39 0 38 0;
#X connect 41 0 40 0;
#X connect 42 0 41 1;
#X connect 42 0 41 0;
#X connect 44 0 43 0;
#X connect 45 0 44 1;
#X connect 45 0 44 0;
#X connect 47 0 46 0;
#X connect 48 0 47 1;
#X connect 48 0 47 0;
#X connect 50 0 49 0;
#X connect 51 0 50 1;
#X connect 51 0 50 0;
#X connect 52 0 12 1;
#X connect 53 0 58 0;
#X connect 53 1 54 0;
#X connect 53 2 54 1;
#X connect 54 0 59 0;
#X connect 54 1 55 0;
#X connect 54 2 55 1;
#X connect 54 3 53 3;
#X connect 55 0 60 0;
#X connect 55 1 56 0;
#X connect 55 2 56 1;
#X connect 55 3 54 3;
#X connect 56 0 61 0;
#X connect 56 1 66 0;
#X connect 56 2 66 1;
#X connect 56 3 55 3;
#X connect 57 0 54 2;
#X connect 57 0 55 2;
#X connect 57 0 56 2;
#X connect 57 0 67 2;
#X connect 57 0 53 2;
#X connect 57 0 66 2;
#X connect 57 0 68 2;
#X connect 62 0 63 0;
#X connect 63 0 64 0;
#X connect 64 0 53 0;
#X connect 65 0 63 1;
#X connect 66 0 69 0;
#X connect 66 1 67 0;
#X connect 66 2 67 1;
#X connect 66 3 56 3;
#X connect 67 0 70 0;
#X connect 67 1 68 0;
#X connect 67 2 68 1;
#X connect 67 3 66 3;
#X connect 68 0 71 0;
#X connect 68 3 67 3;
#X connect 72 0 63 1;
