#N canvas 951 0 956 1003 12;
#X obj 22 32 inlet;
#X obj 22 55 mtof;
#X obj 112 90 bng 15 250 50 0 empty empty empty 17 7 0 10 -262144 -1
-1;
#X obj 152 116 delay 10;
#X msg 152 139 0 250;
#X msg 111 140 1 10;
#X obj 111 169 line~;
#X floatatom 111 192 5 0 0 0 - - -;
#X obj 111 214 * 4000;
#X obj 111 237 + 500;
#X floatatom 111 260 5 0 0 0 - - -;
#X obj 111 282 s Filter_Freq;
#X floatatom 23 237 5 0 0 0 - - -;
#X obj 23 259 phasor~;
#X obj 23 282 s~ Saw_Bass;
#X obj 261 88 r~ Saw_Bass;
#X obj 276 115 r Filter_freq;
#X obj 312 142 loadbang;
#X obj 273 205 vcf~;
#X obj 402 83 r~ Saw_Bass;
#X obj 425 110 r Filter_freq;
#X obj 459 139 loadbang;
#X msg 459 162 25;
#X msg 312 165 9;
#X obj 415 208 vcf~;
#X obj 567 76 bng 15 250 50 0 empty empty empty 17 7 0 10 -262144 -1
-1;
#X obj 616 99 delay 10;
#X msg 616 125 0 250;
#X msg 567 96 1 10;
#X obj 568 166 line~;
#X floatatom 568 189 5 0 0 0 - - -;
#X obj 545 280 *~;
#X obj 545 303 outlet~;
#X text 246 271 vcf~: Resonant lowpass filter input1: signal input2
: cut-off freq input 3: resonance;
#X connect 0 0 1 0;
#X connect 1 0 2 0;
#X connect 1 0 12 0;
#X connect 2 0 3 0;
#X connect 2 0 5 0;
#X connect 3 0 4 0;
#X connect 4 0 6 0;
#X connect 5 0 6 0;
#X connect 6 0 7 0;
#X connect 7 0 8 0;
#X connect 8 0 9 0;
#X connect 9 0 10 0;
#X connect 10 0 11 0;
#X connect 12 0 13 0;
#X connect 13 0 14 0;
#X connect 15 0 18 0;
#X connect 16 0 18 1;
#X connect 17 0 23 0;
#X connect 18 0 31 0;
#X connect 19 0 24 0;
#X connect 20 0 24 1;
#X connect 21 0 22 0;
#X connect 22 0 24 2;
#X connect 23 0 18 2;
#X connect 24 0 31 0;
#X connect 25 0 26 0;
#X connect 25 0 28 0;
#X connect 26 0 27 0;
#X connect 27 0 29 0;
#X connect 28 0 29 0;
#X connect 29 0 30 0;
#X connect 30 0 31 1;
#X connect 31 0 32 0;
