#N canvas 950 0 958 1004 12;
#X obj 207 40 inlet;
#X obj 209 69 bng 15 250 50 0 empty empty empty 17 7 0 10 -262144 -1
-1;
#X obj 209 89 random 8;
#X floatatom 209 112 5 0 0 0 - - -;
#X obj 163 136 sel 0 1 2 3 4 5 6 7;
#X text 13 134 C major scale cdefgabc;
#X msg 86 188 60;
#X msg 129 187 62;
#X msg 174 186 64;
#X msg 219 186 65;
#X msg 259 187 67;
#X msg 299 186 69;
#X msg 344 185 71;
#X msg 389 185 72;
#X floatatom 217 244 5 0 0 0 - - -;
#X obj 217 266 mtof;
#X floatatom 217 289 5 0 0 0 - - -;
#X obj 217 311 outlet;
#X connect 0 0 1 0;
#X connect 1 0 2 0;
#X connect 2 0 3 0;
#X connect 3 0 4 0;
#X connect 4 0 6 0;
#X connect 4 1 7 0;
#X connect 4 2 8 0;
#X connect 4 3 9 0;
#X connect 4 4 10 0;
#X connect 4 5 11 0;
#X connect 4 6 12 0;
#X connect 4 7 13 0;
#X connect 6 0 14 0;
#X connect 7 0 14 0;
#X connect 8 0 14 0;
#X connect 9 0 14 0;
#X connect 10 0 14 0;
#X connect 11 0 14 0;
#X connect 12 0 14 0;
#X connect 13 0 14 0;
#X connect 14 0 15 0;
#X connect 15 0 16 0;
#X connect 16 0 17 0;
