#N canvas 951 0 956 1003 12;
#X obj 49 21 inlet;
#X floatatom 49 44 5 0 0 0 - - -;
#X obj 49 66 sel 0 1 2 3 4;
#X obj 49 104 bng 15 250 50 0 empty empty empty 17 7 0 10 -262144 -1
-1;
#X obj 77 104 bng 15 250 50 0 empty empty empty 17 7 0 10 -262144 -1
-1;
#X obj 115 105 bng 15 250 50 0 empty empty empty 17 7 0 10 -262144
-1 -1;
#X obj 148 105 bng 15 250 50 0 empty empty empty 17 7 0 10 -262144
-1 -1;
#X obj 183 105 bng 15 250 50 0 empty empty empty 17 7 0 10 -262144
-1 -1;
#X obj 46 189 readsf~;
#X msg 46 158 open 1.wav \, 1;
#X obj 164 182 readsf~;
#X obj 275 183 readsf~;
#X msg 274 160 open 1.wav \, 1;
#X obj 48 251 readsf~;
#X obj 165 251 readsf~;
#X msg 164 228 open 1.wav \, 1;
#X msg 163 159 open 2.wav \, 1;
#X msg 45 226 open 2.wav \, 1;
#X obj 114 317 *~ 0.75;
#X obj 114 340 outlet~;
#X connect 0 0 1 0;
#X connect 1 0 2 0;
#X connect 2 0 3 0;
#X connect 2 1 4 0;
#X connect 2 2 5 0;
#X connect 2 3 6 0;
#X connect 2 4 7 0;
#X connect 3 0 9 0;
#X connect 4 0 16 0;
#X connect 5 0 12 0;
#X connect 6 0 17 0;
#X connect 7 0 15 0;
#X connect 8 0 18 0;
#X connect 9 0 8 0;
#X connect 10 0 18 0;
#X connect 11 0 18 0;
#X connect 12 0 11 0;
#X connect 13 0 18 0;
#X connect 14 0 18 0;
#X connect 15 0 14 0;
#X connect 16 0 10 0;
#X connect 17 0 13 0;
#X connect 18 0 19 0;
