#N canvas 951 0 956 1003 12;
#X msg 53 27 dsp 1;
#X msg 117 27 dsp 0;
#X obj 60 63 s pd;
#X text 27 106 BPM;
#X obj 25 131 loadbang;
#X msg 25 154 60000;
#X obj 99 130 loadbang;
#X msg 99 153 140;
#X floatatom 99 176 5 0 0 0 - - -;
#X obj 75 247 /;
#X obj 78 211 bng 15 250 50 0 empty empty empty 17 7 0 10 -262144 -1
-1;
#X floatatom 75 270 5 0 0 0 - - -;
#X obj 75 292 s 4th_time;
#X obj 196 28 tgl 15 0 empty empty empty 17 7 0 10 -262144 -1 -1 0
1;
#X obj 196 48 s ON;
#X text 196 103 Clock multiplication;
#X obj 241 127 r 4th_time;
#X obj 241 150 * 8;
#X obj 200 129 r ON;
#X obj 200 154 tgl 15 0 empty empty empty 17 7 0 10 -262144 -1 -1 0
1;
#X obj 200 174 metro;
#X obj 200 200 bng 15 250 50 0 empty empty empty 17 7 0 10 -262144
-1 -1;
#X obj 271 175 s 2mestime;
#X obj 200 220 s 2mes;
#X text 12 321 Bass clock;
#X obj 9 390 loadbang;
#X obj 87 391 sel 0;
#X obj 87 422 bng 15 250 50 0 empty empty empty 17 7 0 10 -262144 -1
-1;
#X msg 87 442 -1;
#X obj 135 340 r ON;
#X obj 200 338 r 4th_time;
#X obj 200 361 / 2;
#X floatatom 200 384 5 0 0 0 - - -;
#X obj 165 366 tgl 15 0 empty empty empty 17 7 0 10 -262144 -1 -1 0
1;
#X obj 166 412 metro;
#X obj 167 442 bng 15 250 50 0 empty empty empty 17 7 0 10 -262144
-1 -1;
#X obj 167 462 int 1;
#X obj 244 491 + 1;
#X floatatom 167 501 5 0 0 0 - - -;
#X obj 167 523 % 8 + 1;
#X obj 167 546 sel 1 2 3 4 5 6 7 8;
#X obj 132 589 bng 15 250 50 0 empty empty empty 17 7 0 10 -262144
-1 -1;
#X obj 174 589 bng 15 250 50 0 empty empty empty 17 7 0 10 -262144
-1 -1;
#X obj 220 586 bng 15 250 50 0 empty empty empty 17 7 0 10 -262144
-1 -1;
#X obj 276 586 bng 15 250 50 0 empty empty empty 17 7 0 10 -262144
-1 -1;
#X obj 327 586 bng 15 250 50 0 empty empty empty 17 7 0 10 -262144
-1 -1;
#X obj 382 586 bng 15 250 50 0 empty empty empty 17 7 0 10 -262144
-1 -1;
#X obj 424 586 bng 15 250 50 0 empty empty empty 17 7 0 10 -262144
-1 -1;
#X obj 477 585 bng 15 250 50 0 empty empty empty 17 7 0 10 -262144
-1 -1;
#X obj 131 607 s One;
#X obj 173 607 s Two;
#X obj 220 606 s Three;
#X obj 276 606 s Four;
#X obj 327 606 s Five;
#X obj 382 606 s Six;
#X obj 424 606 s Seven;
#X obj 481 605 s EIght;
#X obj 319 506 sel 1;
#X obj 72 541 % 32 + 1;
#X floatatom 72 563 5 0 0 0 - - -;
#X obj 72 585 sel 1;
#X obj 73 611 bng 15 250 50 0 empty empty empty 17 7 0 10 -262144 -1
-1;
#X obj 73 631 s New_Pattern;
#X obj 328 531 bng 15 250 50 0 empty empty empty 17 7 0 10 -262144
-1 -1;
#X obj 345 551 s Whole_Note;
#X text 391 20 Drum clock;
#X obj 404 96 loadbang;
#X obj 441 134 sel 0;
#X obj 441 165 bng 15 250 50 0 empty empty empty 17 7 0 10 -262144
-1 -1;
#X msg 441 185 -1;
#X obj 489 83 r ON;
#X obj 554 81 r 4th_time;
#X floatatom 554 127 5 0 0 0 - - -;
#X obj 519 109 tgl 15 0 empty empty empty 17 7 0 10 -262144 -1 -1 0
1;
#X obj 520 155 metro;
#X obj 521 185 bng 15 250 50 0 empty empty empty 17 7 0 10 -262144
-1 -1;
#X obj 521 205 int 1;
#X obj 586 206 + 1;
#X floatatom 521 244 5 0 0 0 - - -;
#X obj 554 104 / 4;
#X obj 521 266 % 16 + 1;
#X floatatom 521 289 5 0 0 0 - - -;
#X obj 521 311 sel 1 2 3 4 5 6 7 8 9 10 11 12 13 14 15 16;
#X obj 507 369 bng 15 250 50 0 empty empty empty 17 7 0 10 -262144
-1 -1;
#X obj 550 369 bng 15 250 50 0 empty empty empty 17 7 0 10 -262144
-1 -1;
#X obj 594 369 bng 15 250 50 0 empty empty empty 17 7 0 10 -262144
-1 -1;
#X obj 637 369 bng 15 250 50 0 empty empty empty 17 7 0 10 -262144
-1 -1;
#X obj 681 368 bng 15 250 50 0 empty empty empty 17 7 0 10 -262144
-1 -1;
#X obj 724 368 bng 15 250 50 0 empty empty empty 17 7 0 10 -262144
-1 -1;
#X obj 768 368 bng 15 250 50 0 empty empty empty 17 7 0 10 -262144
-1 -1;
#X obj 811 368 bng 15 250 50 0 empty empty empty 17 7 0 10 -262144
-1 -1;
#X obj 507 426 bng 15 250 50 0 empty empty empty 17 7 0 10 -262144
-1 -1;
#X obj 550 426 bng 15 250 50 0 empty empty empty 17 7 0 10 -262144
-1 -1;
#X obj 594 426 bng 15 250 50 0 empty empty empty 17 7 0 10 -262144
-1 -1;
#X obj 637 426 bng 15 250 50 0 empty empty empty 17 7 0 10 -262144
-1 -1;
#X obj 681 425 bng 15 250 50 0 empty empty empty 17 7 0 10 -262144
-1 -1;
#X obj 724 425 bng 15 250 50 0 empty empty empty 17 7 0 10 -262144
-1 -1;
#X obj 768 425 bng 15 250 50 0 empty empty empty 17 7 0 10 -262144
-1 -1;
#X obj 811 425 bng 15 250 50 0 empty empty empty 17 7 0 10 -262144
-1 -1;
#X obj 507 389 s 1/16;
#X obj 550 389 s 2/16;
#X obj 594 389 s 3/16;
#X obj 681 388 s 5/16;
#X obj 637 389 s 4/16;
#X obj 724 388 s 6/16;
#X obj 768 388 s 7/16;
#X obj 811 388 s 8/16;
#X obj 507 446 s 9/16;
#X obj 550 446 s 10/16;
#X obj 594 446 s 11/16;
#X obj 637 446 s 12/16;
#X obj 681 444 s 13/16;
#X obj 724 445 s 14/16;
#X obj 768 445 s 15/16;
#X obj 811 445 s 16/16;
#X obj 751 79 r One;
#X obj 751 107 bng 15 250 50 0 empty empty empty 17 7 0 10 -262144
-1 -1;
#X obj 751 127 spigot;
#X obj 752 155 bng 15 250 50 0 empty empty empty 17 7 0 10 -262144
-1 -1;
#X obj 843 3 r New_pattern;
#X obj 845 33 bng 15 250 50 0 empty empty empty 17 7 0 10 -262144 -1
-1;
#X obj 845 53 random 100;
#X floatatom 845 76 5 0 0 0 - - -;
#X obj 845 98 < 100;
#X obj 844 125 tgl 15 0 empty empty empty 17 7 0 10 -262144 -1 -1 0
1;
#X msg 752 175 40;
#X obj 862 146 loadbang;
#X msg 862 169 set 40;
#X obj 752 198 s Bass_ freq;
#X obj 865 239 r Bass_Freq;
#X floatatom 865 262 5 0 0 0 - - -;
#X obj 865 284 Ac_bass;
#X obj 865 307 s~ Bass;
#X obj 955 108 bng 15 250 50 0 empty empty empty 17 7 0 10 -262144
-1 -1;
#X obj 955 128 spigot;
#X obj 956 156 bng 15 250 50 0 empty empty empty 17 7 0 10 -262144
-1 -1;
#X obj 1047 4 r New_pattern;
#X obj 1049 34 bng 15 250 50 0 empty empty empty 17 7 0 10 -262144
-1 -1;
#X obj 1049 54 random 100;
#X floatatom 1049 77 5 0 0 0 - - -;
#X obj 1048 126 tgl 15 0 empty empty empty 17 7 0 10 -262144 -1 -1
1 1;
#X obj 956 199 s Bass_ freq;
#X obj 1049 99 < 90;
#X obj 955 80 r Two;
#X obj 1077 120 r New_pattern;
#X obj 1077 143 Bass_Note;
#X obj 1196 112 bng 15 250 50 0 empty empty empty 17 7 0 10 -262144
-1 -1;
#X obj 1196 132 spigot;
#X obj 1197 160 bng 15 250 50 0 empty empty empty 17 7 0 10 -262144
-1 -1;
#X obj 1288 8 r New_pattern;
#X obj 1290 38 bng 15 250 50 0 empty empty empty 17 7 0 10 -262144
-1 -1;
#X obj 1290 58 random 100;
#X floatatom 1290 81 5 0 0 0 - - -;
#X obj 1289 130 tgl 15 0 empty empty empty 17 7 0 10 -262144 -1 -1
0 1;
#X obj 1197 203 s Bass_ freq;
#X obj 1318 124 r New_pattern;
#X obj 1318 147 Bass_Note;
#X obj 1196 84 r Three;
#X msg 1197 180;
#X msg 956 176;
#X obj 1290 103 < 85;
#X obj 1431 114 bng 15 250 50 0 empty empty empty 17 7 0 10 -262144
-1 -1;
#X obj 1431 134 spigot;
#X obj 1432 162 bng 15 250 50 0 empty empty empty 17 7 0 10 -262144
-1 -1;
#X obj 1523 10 r New_pattern;
#X obj 1525 40 bng 15 250 50 0 empty empty empty 17 7 0 10 -262144
-1 -1;
#X obj 1525 60 random 100;
#X floatatom 1525 83 5 0 0 0 - - -;
#X obj 1524 132 tgl 15 0 empty empty empty 17 7 0 10 -262144 -1 -1
0 1;
#X obj 1432 205 s Bass_ freq;
#X obj 1553 126 r New_pattern;
#X obj 1553 149 Bass_Note;
#X msg 1432 182;
#X obj 1431 86 r Four;
#X obj 1525 105 < 75;
#X obj 1682 117 bng 15 250 50 0 empty empty empty 17 7 0 10 -262144
-1 -1;
#X obj 1682 137 spigot;
#X obj 1683 165 bng 15 250 50 0 empty empty empty 17 7 0 10 -262144
-1 -1;
#X obj 1774 13 r New_pattern;
#X obj 1776 43 bng 15 250 50 0 empty empty empty 17 7 0 10 -262144
-1 -1;
#X obj 1776 63 random 100;
#X floatatom 1776 86 5 0 0 0 - - -;
#X obj 1775 135 tgl 15 0 empty empty empty 17 7 0 10 -262144 -1 -1
0 1;
#X obj 1683 208 s Bass_ freq;
#X obj 1804 129 r New_pattern;
#X obj 1804 152 Bass_Note;
#X msg 1683 185;
#X obj 1682 89 r Five;
#X obj 1776 108 < 70;
#X obj 1042 302 r 1/16;
#X obj 1043 331 bng 15 250 50 0 empty empty empty 17 7 0 10 -262144
-1 -1;
#X msg 1043 351 0;
#X obj 1107 303 loadbang;
#X msg 1107 326 set 0;
#X obj 1043 374 s Drum_Note;
#X obj 1205 305 r 2/16;
#X obj 1204 333 bng 15 250 50 0 empty empty empty 17 7 0 10 -262144
-1 -1;
#X msg 1204 353 0;
#X obj 1263 276 r New_Pattern;
#X obj 1262 304 bng 15 250 50 0 empty empty empty 17 7 0 10 -262144
-1 -1;
#X obj 1262 324 random 5;
#X msg 1262 347 set \$1;
#X obj 1204 376 s Drum_Note;
#X obj 1355 339 bng 15 250 50 0 empty empty empty 17 7 0 10 -262144
-1 -1;
#X obj 1355 382 s Drum_Note;
#X obj 1355 312 r 3/16;
#X obj 1501 336 bng 15 250 50 0 empty empty empty 17 7 0 10 -262144
-1 -1;
#X msg 1501 356 4;
#X obj 1560 279 r New_Pattern;
#X obj 1559 307 bng 15 250 50 0 empty empty empty 17 7 0 10 -262144
-1 -1;
#X obj 1559 327 random 5;
#X msg 1559 350 set \$1;
#X obj 1501 379 s Drum_Note;
#X obj 1502 308 r 4/16;
#X obj 1644 344 bng 15 250 50 0 empty empty empty 17 7 0 10 -262144
-1 -1;
#X msg 1644 364 2;
#X obj 1703 287 r New_Pattern;
#X obj 1702 315 bng 15 250 50 0 empty empty empty 17 7 0 10 -262144
-1 -1;
#X obj 1702 335 random 5;
#X msg 1702 358 set \$1;
#X obj 1644 387 s Drum_Note;
#X obj 1645 316 r 5/16;
#X obj 1797 346 bng 15 250 50 0 empty empty empty 17 7 0 10 -262144
-1 -1;
#X msg 1797 366 4;
#X obj 1856 289 r New_Pattern;
#X obj 1855 317 bng 15 250 50 0 empty empty empty 17 7 0 10 -262144
-1 -1;
#X obj 1855 337 random 5;
#X msg 1855 360 set \$1;
#X obj 1797 389 s Drum_Note;
#X obj 1943 343 bng 15 250 50 0 empty empty empty 17 7 0 10 -262144
-1 -1;
#X msg 1943 363 1;
#X obj 2002 286 r New_Pattern;
#X obj 2001 314 bng 15 250 50 0 empty empty empty 17 7 0 10 -262144
-1 -1;
#X obj 2001 334 random 5;
#X msg 2001 357 set \$1;
#X obj 1943 386 s Drum_Note;
#X obj 2086 351 bng 15 250 50 0 empty empty empty 17 7 0 10 -262144
-1 -1;
#X msg 2086 371 1;
#X obj 2145 294 r New_Pattern;
#X obj 2144 322 bng 15 250 50 0 empty empty empty 17 7 0 10 -262144
-1 -1;
#X obj 2144 342 random 5;
#X msg 2144 365 set \$1;
#X obj 2086 394 s Drum_Note;
#X obj 1797 319 r 6/16;
#X obj 1944 315 r 7/16;
#X obj 2087 323 r 8/16;
#X obj 1047 480 bng 15 250 50 0 empty empty empty 17 7 0 10 -262144
-1 -1;
#X msg 1047 500 4;
#X obj 1106 423 r New_Pattern;
#X obj 1105 451 bng 15 250 50 0 empty empty empty 17 7 0 10 -262144
-1 -1;
#X obj 1105 471 random 5;
#X msg 1105 494 set \$1;
#X obj 1047 523 s Drum_Note;
#X obj 1193 477 bng 15 250 50 0 empty empty empty 17 7 0 10 -262144
-1 -1;
#X msg 1193 497 0;
#X obj 1252 420 r New_Pattern;
#X obj 1251 448 bng 15 250 50 0 empty empty empty 17 7 0 10 -262144
-1 -1;
#X obj 1251 468 random 5;
#X msg 1251 491 set \$1;
#X obj 1193 520 s Drum_Note;
#X obj 1336 485 bng 15 250 50 0 empty empty empty 17 7 0 10 -262144
-1 -1;
#X msg 1336 505 0;
#X obj 1395 428 r New_Pattern;
#X obj 1394 456 bng 15 250 50 0 empty empty empty 17 7 0 10 -262144
-1 -1;
#X obj 1394 476 random 5;
#X msg 1394 499 set \$1;
#X obj 1336 528 s Drum_Note;
#X obj 1489 487 bng 15 250 50 0 empty empty empty 17 7 0 10 -262144
-1 -1;
#X msg 1489 507 3;
#X obj 1548 430 r New_Pattern;
#X obj 1547 458 bng 15 250 50 0 empty empty empty 17 7 0 10 -262144
-1 -1;
#X obj 1547 478 random 5;
#X msg 1547 501 set \$1;
#X obj 1489 530 s Drum_Note;
#X obj 1635 484 bng 15 250 50 0 empty empty empty 17 7 0 10 -262144
-1 -1;
#X msg 1635 504 1;
#X obj 1694 427 r New_Pattern;
#X obj 1693 455 bng 15 250 50 0 empty empty empty 17 7 0 10 -262144
-1 -1;
#X obj 1693 475 random 5;
#X msg 1693 498 set \$1;
#X obj 1635 527 s Drum_Note;
#X obj 1778 492 bng 15 250 50 0 empty empty empty 17 7 0 10 -262144
-1 -1;
#X msg 1778 512 3;
#X obj 1837 435 r New_Pattern;
#X obj 1836 463 bng 15 250 50 0 empty empty empty 17 7 0 10 -262144
-1 -1;
#X obj 1836 483 random 5;
#X msg 1836 506 set \$1;
#X obj 1778 535 s Drum_Note;
#X obj 1047 453 r 9/16;
#X obj 1194 449 r 10/16;
#X obj 1337 457 r 11/16;
#X obj 1489 460 r 12/16;
#X obj 1636 456 r 13/16;
#X obj 1780 465 r 14/16;
#X obj 1942 488 bng 15 250 50 0 empty empty empty 17 7 0 10 -262144
-1 -1;
#X msg 1942 508 4;
#X obj 2001 431 r New_Pattern;
#X obj 2000 459 bng 15 250 50 0 empty empty empty 17 7 0 10 -262144
-1 -1;
#X obj 2000 479 random 5;
#X msg 2000 502 set \$1;
#X obj 1942 531 s Drum_Note;
#X obj 2085 496 bng 15 250 50 0 empty empty empty 17 7 0 10 -262144
-1 -1;
#X msg 2085 516 3;
#X obj 2144 439 r New_Pattern;
#X obj 2143 467 bng 15 250 50 0 empty empty empty 17 7 0 10 -262144
-1 -1;
#X obj 2143 487 random 5;
#X msg 2143 510 set \$1;
#X obj 2085 539 s Drum_Note;
#X obj 1943 460 r 15/16;
#X obj 2087 467 r 16/16;
#X obj 927 383 r Drum_note;
#X floatatom 928 416 5 0 0 0 - - -;
#X obj 928 441 Drum_Samples;
#X obj 928 467 s~ Drums;
#X obj 1415 309 loadbang;
#X msg 1413 353 set 0;
#X text 764 500 Ambient;
#X obj 765 538 r 2mes;
#X obj 765 565 bng 15 250 50 0 empty empty empty 17 7 0 10 -262144
-1 -1;
#X floatatom 765 608 5 0 0 0 - - -;
#X obj 765 585 Scales;
#X text 371 664 comment;
#X obj 695 645 / 2;
#X floatatom 695 668 5 0 0 0 - - -;
#X obj 695 690 phasor~;
#X obj 767 691 phasor~;
#X obj 835 642 * 1.005;
#X floatatom 835 665 5 0 0 0 - - -;
#X obj 835 687 phasor~;
#X obj 769 744 lop~ 100;
#X obj 771 803 *~;
#X obj 771 829 *~ 0.5;
#X obj 946 579 bng 15 250 50 0 empty empty empty 17 7 0 10 -262144
-1 -1;
#X msg 951 726 1 200;
#X obj 951 752 line~;
#X obj 1041 571 r 2mestime;
#X floatatom 1041 594 5 0 0 0 - - -;
#X obj 1041 616 - 500;
#X obj 1018 684 delay;
#X msg 1018 707 0 500;
#X obj 1113 594 r ON;
#X obj 1113 617 sel 0;
#X obj 1112 643 delay 5;
#X obj 771 852 s~ Ambient_Pad;
#X obj 1259 586 r Whole_Note;
#X obj 1260 616 bng 15 250 50 0 empty empty empty 17 7 0 10 -262144
-1 -1;
#X obj 1260 659 readsf~;
#X obj 1260 682 s~ Crash;
#X text 1254 564 Crash cymbal;
#X text 1547 582 Mixing;
#X obj 1503 637 r~ Crash;
#X obj 1574 636 r~ Drums;
#X obj 1574 659 *~ 0.4;
#X obj 1652 636 r~ Bass;
#X obj 1653 704 *~ 0.75;
#X obj 1733 634 r~ Ambient_Pad;
#X obj 1733 657 *~ 0.5;
#X obj 1891 569 loadbang;
#X msg 1891 592 1;
#X msg 1891 615 wet \$1;
#X obj 1969 568 loadbang;
#X msg 1969 591 0;
#X msg 1969 614 dry \$1;
#X obj 2055 571 loadbang;
#X msg 2055 594 0.95;
#X msg 2055 617 roomsize \$1;
#X obj 1734 698 freeverb~;
#X obj 1651 756 *~ 1;
#X obj 1702 757 *~ 1;
#X obj 1677 795 dac~;
#X msg 1260 636 open cymbal.wav \, 1;
#X msg 1355 359 0;
#X obj 1503 660 *~ 0.15;
#X connect 0 0 2 0;
#X connect 1 0 2 0;
#X connect 4 0 5 0;
#X connect 5 0 9 0;
#X connect 6 0 7 0;
#X connect 7 0 8 0;
#X connect 8 0 9 1;
#X connect 8 0 10 0;
#X connect 9 0 11 0;
#X connect 10 0 9 0;
#X connect 11 0 12 0;
#X connect 13 0 14 0;
#X connect 16 0 17 0;
#X connect 17 0 20 1;
#X connect 17 0 22 0;
#X connect 18 0 19 0;
#X connect 19 0 20 0;
#X connect 20 0 21 0;
#X connect 21 0 23 0;
#X connect 25 0 27 0;
#X connect 26 0 27 0;
#X connect 27 0 28 0;
#X connect 28 0 36 0;
#X connect 29 0 33 0;
#X connect 30 0 31 0;
#X connect 31 0 32 0;
#X connect 32 0 34 1;
#X connect 33 0 26 0;
#X connect 33 0 34 0;
#X connect 34 0 35 0;
#X connect 35 0 36 0;
#X connect 36 0 37 0;
#X connect 36 0 38 0;
#X connect 37 0 36 1;
#X connect 38 0 39 0;
#X connect 38 0 58 0;
#X connect 39 0 40 0;
#X connect 39 0 57 0;
#X connect 40 0 41 0;
#X connect 40 1 42 0;
#X connect 40 2 43 0;
#X connect 40 3 44 0;
#X connect 40 4 45 0;
#X connect 40 5 46 0;
#X connect 40 6 47 0;
#X connect 40 7 48 0;
#X connect 41 0 49 0;
#X connect 42 0 50 0;
#X connect 43 0 51 0;
#X connect 44 0 52 0;
#X connect 45 0 53 0;
#X connect 46 0 54 0;
#X connect 47 0 55 0;
#X connect 48 0 56 0;
#X connect 57 0 63 0;
#X connect 58 0 59 0;
#X connect 59 0 60 0;
#X connect 60 0 61 0;
#X connect 61 0 62 0;
#X connect 63 0 64 0;
#X connect 66 0 68 0;
#X connect 67 0 68 0;
#X connect 68 0 69 0;
#X connect 69 0 76 0;
#X connect 70 0 73 0;
#X connect 71 0 79 0;
#X connect 72 0 74 1;
#X connect 73 0 67 0;
#X connect 73 0 74 0;
#X connect 74 0 75 0;
#X connect 75 0 76 0;
#X connect 76 0 77 0;
#X connect 76 0 78 0;
#X connect 77 0 76 1;
#X connect 78 0 80 0;
#X connect 79 0 72 0;
#X connect 80 0 81 0;
#X connect 81 0 82 0;
#X connect 82 0 83 0;
#X connect 82 1 84 0;
#X connect 82 2 85 0;
#X connect 82 3 86 0;
#X connect 82 4 87 0;
#X connect 82 5 88 0;
#X connect 82 6 89 0;
#X connect 82 7 90 0;
#X connect 82 8 91 0;
#X connect 82 9 92 0;
#X connect 82 10 93 0;
#X connect 82 11 94 0;
#X connect 82 12 95 0;
#X connect 82 13 96 0;
#X connect 82 14 97 0;
#X connect 82 15 98 0;
#X connect 83 0 99 0;
#X connect 84 0 100 0;
#X connect 85 0 101 0;
#X connect 86 0 103 0;
#X connect 87 0 102 0;
#X connect 88 0 104 0;
#X connect 89 0 105 0;
#X connect 90 0 106 0;
#X connect 91 0 107 0;
#X connect 92 0 108 0;
#X connect 93 0 109 0;
#X connect 94 0 110 0;
#X connect 95 0 111 0;
#X connect 96 0 112 0;
#X connect 97 0 113 0;
#X connect 98 0 114 0;
#X connect 115 0 116 0;
#X connect 116 0 117 0;
#X connect 117 0 118 0;
#X connect 118 0 125 0;
#X connect 119 0 120 0;
#X connect 120 0 121 0;
#X connect 121 0 122 0;
#X connect 122 0 123 0;
#X connect 123 0 124 0;
#X connect 124 0 117 1;
#X connect 125 0 128 0;
#X connect 126 0 127 0;
#X connect 127 0 125 0;
#X connect 129 0 130 0;
#X connect 130 0 131 0;
#X connect 131 0 132 0;
#X connect 133 0 134 0;
#X connect 134 0 135 0;
#X connect 135 0 159 0;
#X connect 136 0 137 0;
#X connect 137 0 138 0;
#X connect 138 0 139 0;
#X connect 139 0 142 0;
#X connect 140 0 134 1;
#X connect 142 0 140 0;
#X connect 143 0 133 0;
#X connect 144 0 145 0;
#X connect 145 0 159 0;
#X connect 146 0 147 0;
#X connect 147 0 148 0;
#X connect 148 0 158 0;
#X connect 149 0 150 0;
#X connect 150 0 151 0;
#X connect 151 0 152 0;
#X connect 152 0 160 0;
#X connect 153 0 147 1;
#X connect 155 0 156 0;
#X connect 156 0 158 0;
#X connect 157 0 146 0;
#X connect 158 0 154 0;
#X connect 159 0 141 0;
#X connect 160 0 153 0;
#X connect 161 0 162 0;
#X connect 162 0 163 0;
#X connect 163 0 172 0;
#X connect 164 0 165 0;
#X connect 165 0 166 0;
#X connect 166 0 167 0;
#X connect 167 0 174 0;
#X connect 168 0 162 1;
#X connect 170 0 171 0;
#X connect 171 0 172 0;
#X connect 172 0 169 0;
#X connect 173 0 161 0;
#X connect 174 0 168 0;
#X connect 175 0 176 0;
#X connect 176 0 177 0;
#X connect 177 0 186 0;
#X connect 178 0 179 0;
#X connect 179 0 180 0;
#X connect 180 0 181 0;
#X connect 181 0 188 0;
#X connect 182 0 176 1;
#X connect 184 0 185 0;
#X connect 185 0 186 0;
#X connect 186 0 183 0;
#X connect 187 0 175 0;
#X connect 188 0 182 0;
#X connect 189 0 190 0;
#X connect 190 0 191 0;
#X connect 191 0 194 0;
#X connect 192 0 193 0;
#X connect 193 0 191 0;
#X connect 195 0 196 0;
#X connect 196 0 197 0;
#X connect 197 0 202 0;
#X connect 198 0 199 0;
#X connect 199 0 200 0;
#X connect 200 0 201 0;
#X connect 201 0 197 0;
#X connect 203 0 371 0;
#X connect 205 0 203 0;
#X connect 206 0 207 0;
#X connect 207 0 212 0;
#X connect 208 0 209 0;
#X connect 209 0 210 0;
#X connect 210 0 211 0;
#X connect 211 0 207 0;
#X connect 213 0 206 0;
#X connect 214 0 215 0;
#X connect 215 0 220 0;
#X connect 216 0 217 0;
#X connect 217 0 218 0;
#X connect 218 0 219 0;
#X connect 219 0 215 0;
#X connect 221 0 214 0;
#X connect 222 0 223 0;
#X connect 223 0 228 0;
#X connect 224 0 225 0;
#X connect 225 0 226 0;
#X connect 226 0 227 0;
#X connect 227 0 223 0;
#X connect 229 0 230 0;
#X connect 230 0 235 0;
#X connect 231 0 232 0;
#X connect 232 0 233 0;
#X connect 233 0 234 0;
#X connect 234 0 230 0;
#X connect 236 0 237 0;
#X connect 237 0 242 0;
#X connect 238 0 239 0;
#X connect 239 0 240 0;
#X connect 240 0 241 0;
#X connect 241 0 237 0;
#X connect 243 0 222 0;
#X connect 244 0 229 0;
#X connect 245 0 236 0;
#X connect 246 0 247 0;
#X connect 247 0 252 0;
#X connect 248 0 249 0;
#X connect 249 0 250 0;
#X connect 250 0 251 0;
#X connect 251 0 247 0;
#X connect 253 0 254 0;
#X connect 254 0 259 0;
#X connect 255 0 256 0;
#X connect 256 0 257 0;
#X connect 257 0 258 0;
#X connect 258 0 254 0;
#X connect 260 0 261 0;
#X connect 261 0 266 0;
#X connect 262 0 263 0;
#X connect 263 0 264 0;
#X connect 264 0 265 0;
#X connect 265 0 261 0;
#X connect 267 0 268 0;
#X connect 268 0 273 0;
#X connect 269 0 270 0;
#X connect 270 0 271 0;
#X connect 271 0 272 0;
#X connect 272 0 268 0;
#X connect 274 0 275 0;
#X connect 275 0 280 0;
#X connect 276 0 277 0;
#X connect 277 0 278 0;
#X connect 278 0 279 0;
#X connect 279 0 275 0;
#X connect 281 0 282 0;
#X connect 282 0 287 0;
#X connect 283 0 284 0;
#X connect 284 0 285 0;
#X connect 285 0 286 0;
#X connect 286 0 282 0;
#X connect 288 0 246 0;
#X connect 289 0 253 0;
#X connect 290 0 260 0;
#X connect 291 0 267 0;
#X connect 292 0 274 0;
#X connect 293 0 281 0;
#X connect 294 0 295 0;
#X connect 295 0 300 0;
#X connect 296 0 297 0;
#X connect 297 0 298 0;
#X connect 298 0 299 0;
#X connect 299 0 295 0;
#X connect 301 0 302 0;
#X connect 302 0 307 0;
#X connect 303 0 304 0;
#X connect 304 0 305 0;
#X connect 305 0 306 0;
#X connect 306 0 302 0;
#X connect 308 0 294 0;
#X connect 309 0 301 0;
#X connect 310 0 311 0;
#X connect 311 0 312 0;
#X connect 312 0 313 0;
#X connect 314 0 315 0;
#X connect 315 0 371 0;
#X connect 317 0 318 0;
#X connect 317 0 332 0;
#X connect 318 0 320 0;
#X connect 319 0 322 0;
#X connect 319 0 325 0;
#X connect 319 0 326 0;
#X connect 320 0 319 0;
#X connect 322 0 323 0;
#X connect 323 0 324 0;
#X connect 324 0 329 0;
#X connect 325 0 329 0;
#X connect 326 0 327 0;
#X connect 327 0 328 0;
#X connect 328 0 329 0;
#X connect 329 0 330 0;
#X connect 330 0 331 0;
#X connect 331 0 343 0;
#X connect 332 0 333 0;
#X connect 332 0 338 0;
#X connect 333 0 334 0;
#X connect 334 0 330 1;
#X connect 335 0 336 0;
#X connect 336 0 337 0;
#X connect 337 0 338 1;
#X connect 338 0 339 0;
#X connect 339 0 334 0;
#X connect 340 0 341 0;
#X connect 341 0 342 0;
#X connect 342 0 339 0;
#X connect 344 0 345 0;
#X connect 345 0 370 0;
#X connect 346 0 347 0;
#X connect 350 0 372 0;
#X connect 351 0 352 0;
#X connect 352 0 354 0;
#X connect 353 0 354 0;
#X connect 354 0 367 0;
#X connect 354 0 368 0;
#X connect 355 0 356 0;
#X connect 356 0 366 0;
#X connect 357 0 358 0;
#X connect 358 0 359 0;
#X connect 359 0 366 0;
#X connect 360 0 361 0;
#X connect 361 0 362 0;
#X connect 362 0 366 0;
#X connect 363 0 364 0;
#X connect 364 0 365 0;
#X connect 365 0 366 0;
#X connect 366 0 367 0;
#X connect 366 1 368 0;
#X connect 367 0 369 0;
#X connect 368 0 369 1;
#X connect 370 0 346 0;
#X connect 371 0 204 0;
#X connect 372 0 354 0;
