#N canvas 951 0 956 1003 12;
#X msg 34 18 dsp 0;
#X msg 86 18 dsp 1;
#X obj 59 51 s pd;
#X obj 153 22 tgl 15 0 empty empty empty 17 7 0 10 -262144 -1 -1 0
1;
#X obj 153 42 s ON;
#X text 24 97 BPM;
#X obj 25 135 loadbang;
#X msg 30 189 60000;
#X obj 27 160 delay 1;
#X floatatom 104 206 5 0 0 0 - - -;
#X obj 81 250 bng 15 250 50 0 empty empty empty 17 7 0 10 -262144 -1
-1;
#X obj 81 270 /;
#X floatatom 81 293 5 0 0 0 - - -;
#X obj 81 315 * 4;
#X text 209 109 Rythm 1;
#X obj 253 135 r ON;
#X obj 255 165 tgl 15 0 empty empty empty 17 7 0 10 -262144 -1 -1 0
1;
#X obj 260 211 metro;
#X obj 81 338 s whole_time;
#X obj 319 136 r whole_time;
#X floatatom 319 182 5 0 0 0 - - -;
#X obj 210 213 sel 0;
#X obj 211 241 bng 15 250 50 0 empty empty empty 17 7 0 10 -262144
-1 -1;
#X obj 155 181 loadbang;
#X obj 260 244 bng 15 250 50 0 empty empty empty 17 7 0 10 -262144
-1 -1;
#X obj 262 311 int 1;
#X obj 316 312 + 1;
#X floatatom 262 334 5 0 0 0 - - -;
#X floatatom 265 422 5 0 0 0 - - -;
#X obj 265 444 s rythm1;
#X obj 576 112 sel 1 2 3 4 5 6 7 8;
#X obj 470 177 bng 15 250 50 0 empty empty empty 17 7 0 10 -262144
-1 -1;
#X obj 501 207 tgl 15 0 empty empty empty 17 7 0 10 -262144 -1 -1 1
1;
#X obj 469 237 spigot;
#X obj 469 262 bng 15 250 50 0 empty empty empty 17 7 0 10 -262144
-1 -1;
#X obj 534 179 bng 15 250 50 0 empty empty empty 17 7 0 10 -262144
-1 -1;
#X obj 565 209 tgl 15 0 empty empty empty 17 7 0 10 -262144 -1 -1 1
1;
#X obj 533 239 spigot;
#X obj 533 264 bng 15 250 50 0 empty empty empty 17 7 0 10 -262144
-1 -1;
#X obj 596 177 bng 15 250 50 0 empty empty empty 17 7 0 10 -262144
-1 -1;
#X obj 627 207 tgl 15 0 empty empty empty 17 7 0 10 -262144 -1 -1 1
1;
#X obj 595 237 spigot;
#X obj 595 262 bng 15 250 50 0 empty empty empty 17 7 0 10 -262144
-1 -1;
#X obj 652 176 bng 15 250 50 0 empty empty empty 17 7 0 10 -262144
-1 -1;
#X obj 683 206 tgl 15 0 empty empty empty 17 7 0 10 -262144 -1 -1 1
1;
#X obj 651 236 spigot;
#X obj 651 261 bng 15 250 50 0 empty empty empty 17 7 0 10 -262144
-1 -1;
#X obj 712 175 bng 15 250 50 0 empty empty empty 17 7 0 10 -262144
-1 -1;
#X obj 743 205 tgl 15 0 empty empty empty 17 7 0 10 -262144 -1 -1 1
1;
#X obj 711 235 spigot;
#X obj 711 260 bng 15 250 50 0 empty empty empty 17 7 0 10 -262144
-1 -1;
#X obj 776 177 bng 15 250 50 0 empty empty empty 17 7 0 10 -262144
-1 -1;
#X obj 807 207 tgl 15 0 empty empty empty 17 7 0 10 -262144 -1 -1 1
1;
#X obj 775 237 spigot;
#X obj 775 262 bng 15 250 50 0 empty empty empty 17 7 0 10 -262144
-1 -1;
#X obj 838 175 bng 15 250 50 0 empty empty empty 17 7 0 10 -262144
-1 -1;
#X obj 869 205 tgl 15 0 empty empty empty 17 7 0 10 -262144 -1 -1 1
1;
#X obj 837 235 spigot;
#X obj 837 260 bng 15 250 50 0 empty empty empty 17 7 0 10 -262144
-1 -1;
#X obj 894 174 bng 15 250 50 0 empty empty empty 17 7 0 10 -262144
-1 -1;
#X obj 925 204 tgl 15 0 empty empty empty 17 7 0 10 -262144 -1 -1 1
1;
#X obj 893 234 spigot;
#X obj 893 259 bng 15 250 50 0 empty empty empty 17 7 0 10 -262144
-1 -1;
#X obj 673 341 bng 15 250 50 0 empty empty empty 17 7 0 10 -262144
-1 -1;
#X msg 672 372 open cymbal.wav \, 1;
#X obj 672 395 readsf~;
#X obj 672 418 s~ cymbal;
#X msg 211 261 -1;
#X obj 264 384 + 1;
#X text 365 162 comment;
#X obj 319 159 / 4;
#X obj 264 361 % 4;
#X obj 115 488 r ON;
#X obj 117 518 tgl 15 0 empty empty empty 17 7 0 10 -262144 -1 -1 0
1;
#X obj 122 564 metro;
#X obj 181 489 r whole_time;
#X floatatom 181 535 5 0 0 0 - - -;
#X obj 72 566 sel 0;
#X obj 73 594 bng 15 250 50 0 empty empty empty 17 7 0 10 -262144 -1
-1;
#X obj 17 534 loadbang;
#X obj 122 597 bng 15 250 50 0 empty empty empty 17 7 0 10 -262144
-1 -1;
#X obj 124 664 int 1;
#X obj 178 665 + 1;
#X floatatom 124 687 5 0 0 0 - - -;
#X floatatom 127 775 5 0 0 0 - - -;
#X msg 73 614 -1;
#X obj 126 737 + 1;
#X text 71 462 Rythm 2;
#X text 227 515 comment;
#X obj 181 512 / 3;
#X obj 126 714 % 3;
#X obj 127 797 s rythm2;
#X obj 576 89 r rythm2;
#X obj 449 390 r rythm1;
#X floatatom 449 413 5 0 0 0 - - -;
#X obj 449 435 sel 1 2 3 4;
#X obj 448 468 bng 15 250 50 0 empty empty empty 17 7 0 10 -262144
-1 -1;
#X obj 470 468 bng 15 250 50 0 empty empty empty 17 7 0 10 -262144
-1 -1;
#X obj 493 469 bng 15 250 50 0 empty empty empty 17 7 0 10 -262144
-1 -1;
#X obj 515 469 bng 15 250 50 0 empty empty empty 17 7 0 10 -262144
-1 -1;
#X msg 447 506 open 1.wav \, 1;
#X obj 447 529 readsf~;
#X obj 447 552 s~ kick;
#X obj 651 471 r rythm2;
#X floatatom 651 494 5 0 0 0 - - -;
#X obj 651 516 sel 1 2 3;
#X obj 651 551 bng 15 250 50 0 empty empty empty 17 7 0 10 -262144
-1 -1;
#X obj 676 552 bng 15 250 50 0 empty empty empty 17 7 0 10 -262144
-1 -1;
#X obj 701 553 bng 15 250 50 0 empty empty empty 17 7 0 10 -262144
-1 -1;
#X obj 776 466 r rythm 1;
#X floatatom 776 489 5 0 0 0 - - -;
#X obj 776 511 sel 1 2 3 4;
#X obj 779 547 bng 15 250 50 0 empty empty empty 17 7 0 10 -262144
-1 -1;
#X obj 801 547 bng 15 250 50 0 empty empty empty 17 7 0 10 -262144
-1 -1;
#X obj 826 548 bng 15 250 50 0 empty empty empty 17 7 0 10 -262144
-1 -1;
#X obj 851 549 bng 15 250 50 0 empty empty empty 17 7 0 10 -262144
-1 -1;
#X obj 361 615 r ON;
#X obj 362 648 tgl 15 0 empty empty empty 17 7 0 10 -262144 -1 -1 0
1;
#X obj 362 668 metro;
#X obj 411 610 r whole_time;
#X obj 411 633 / 20;
#X floatatom 411 656 5 0 0 0 - - -;
#X msg 104 183 80;
#X obj 363 699 bng 15 250 50 0 empty empty empty 17 7 0 10 -262144
-1 -1;
#X obj 363 732 int 1;
#X obj 310 669 sel 0;
#X obj 311 701 bng 15 250 50 0 empty empty empty 17 7 0 10 -262144
-1 -1;
#X msg 311 721 -1;
#X obj 242 667 loadbang;
#X obj 434 731 + 1;
#X floatatom 363 755 5 0 0 0 - - -;
#X obj 363 777 % 5;
#X obj 363 800 + 1;
#X obj 686 620 r rythm3;
#X floatatom 686 643 5 0 0 0 - - -;
#X obj 663 666 sel 1 2 3 4 5;
#X obj 652 704 bng 15 250 50 0 empty empty empty 17 7 0 10 -262144
-1 -1;
#X obj 677 705 bng 15 250 50 0 empty empty empty 17 7 0 10 -262144
-1 -1;
#X obj 702 706 bng 15 250 50 0 empty empty empty 17 7 0 10 -262144
-1 -1;
#X obj 729 706 bng 15 250 50 0 empty empty empty 17 7 0 10 -262144
-1 -1;
#X obj 754 707 bng 15 250 50 0 empty empty empty 17 7 0 10 -262144
-1 -1;
#X obj 610 770 spigot;
#X obj 649 744 tgl 15 0 empty empty empty 17 7 0 10 -262144 -1 -1 1
1;
#X obj 612 799 bng 15 250 50 0 empty empty empty 17 7 0 10 -262144
-1 -1;
#X obj 665 771 spigot;
#X obj 704 745 tgl 15 0 empty empty empty 17 7 0 10 -262144 -1 -1 1
1;
#X obj 667 800 bng 15 250 50 0 empty empty empty 17 7 0 10 -262144
-1 -1;
#X obj 723 773 spigot;
#X obj 762 747 tgl 15 0 empty empty empty 17 7 0 10 -262144 -1 -1 1
1;
#X obj 725 802 bng 15 250 50 0 empty empty empty 17 7 0 10 -262144
-1 -1;
#X obj 786 773 spigot;
#X obj 825 747 tgl 15 0 empty empty empty 17 7 0 10 -262144 -1 -1 1
1;
#X obj 788 802 bng 15 250 50 0 empty empty empty 17 7 0 10 -262144
-1 -1;
#X obj 557 773 spigot;
#X obj 596 747 tgl 15 0 empty empty empty 17 7 0 10 -262144 -1 -1 1
1;
#X obj 559 802 bng 15 250 50 0 empty empty empty 17 7 0 10 -262144
-1 -1;
#X obj 702 840 bng 15 250 50 0 empty empty empty 17 7 0 10 -262144
-1 -1;
#X msg 702 860 open 2.wav \, 1;
#X obj 702 886 readsf~;
#X obj 702 912 s~ hi;
#X obj 363 823 s rythm3;
#X connect 0 0 2 0;
#X connect 1 0 2 0;
#X connect 3 0 4 0;
#X connect 6 0 8 0;
#X connect 6 0 122 0;
#X connect 7 0 11 0;
#X connect 8 0 7 0;
#X connect 9 0 10 0;
#X connect 9 0 11 1;
#X connect 10 0 11 0;
#X connect 11 0 12 0;
#X connect 12 0 13 0;
#X connect 13 0 18 0;
#X connect 15 0 16 0;
#X connect 16 0 17 0;
#X connect 16 0 21 0;
#X connect 17 0 24 0;
#X connect 19 0 70 0;
#X connect 20 0 17 1;
#X connect 21 0 22 0;
#X connect 22 0 67 0;
#X connect 23 0 22 0;
#X connect 24 0 25 0;
#X connect 25 0 26 0;
#X connect 25 0 27 0;
#X connect 26 0 25 1;
#X connect 27 0 71 0;
#X connect 28 0 29 0;
#X connect 30 0 31 0;
#X connect 30 1 35 0;
#X connect 30 2 39 0;
#X connect 30 3 43 0;
#X connect 30 4 47 0;
#X connect 30 5 51 0;
#X connect 30 6 55 0;
#X connect 30 7 59 0;
#X connect 31 0 33 0;
#X connect 32 0 33 1;
#X connect 33 0 34 0;
#X connect 34 0 63 0;
#X connect 35 0 37 0;
#X connect 36 0 37 1;
#X connect 37 0 38 0;
#X connect 38 0 63 0;
#X connect 39 0 41 0;
#X connect 40 0 41 1;
#X connect 41 0 42 0;
#X connect 42 0 63 0;
#X connect 43 0 45 0;
#X connect 44 0 45 1;
#X connect 45 0 46 0;
#X connect 46 0 63 0;
#X connect 47 0 49 0;
#X connect 48 0 49 1;
#X connect 49 0 50 0;
#X connect 50 0 63 0;
#X connect 51 0 53 0;
#X connect 52 0 53 1;
#X connect 53 0 54 0;
#X connect 54 0 63 0;
#X connect 55 0 57 0;
#X connect 56 0 57 1;
#X connect 57 0 58 0;
#X connect 58 0 63 0;
#X connect 59 0 61 0;
#X connect 60 0 61 1;
#X connect 61 0 62 0;
#X connect 62 0 63 0;
#X connect 63 0 64 0;
#X connect 64 0 65 0;
#X connect 65 0 66 0;
#X connect 67 0 25 0;
#X connect 68 0 28 0;
#X connect 70 0 20 0;
#X connect 71 0 68 0;
#X connect 72 0 73 0;
#X connect 73 0 74 0;
#X connect 73 0 77 0;
#X connect 74 0 80 0;
#X connect 75 0 89 0;
#X connect 76 0 74 1;
#X connect 77 0 78 0;
#X connect 78 0 85 0;
#X connect 79 0 78 0;
#X connect 80 0 81 0;
#X connect 81 0 82 0;
#X connect 81 0 83 0;
#X connect 82 0 81 1;
#X connect 83 0 90 0;
#X connect 84 0 91 0;
#X connect 85 0 81 0;
#X connect 86 0 84 0;
#X connect 89 0 76 0;
#X connect 90 0 86 0;
#X connect 92 0 30 0;
#X connect 93 0 94 0;
#X connect 94 0 95 0;
#X connect 95 0 96 0;
#X connect 95 1 97 0;
#X connect 95 2 98 0;
#X connect 95 3 99 0;
#X connect 96 0 100 0;
#X connect 97 0 100 0;
#X connect 98 0 100 0;
#X connect 99 0 100 0;
#X connect 100 0 101 0;
#X connect 101 0 102 0;
#X connect 103 0 104 0;
#X connect 104 0 105 0;
#X connect 105 0 106 0;
#X connect 105 1 107 0;
#X connect 105 2 108 0;
#X connect 109 0 110 0;
#X connect 110 0 111 0;
#X connect 111 0 112 0;
#X connect 111 1 113 0;
#X connect 111 2 114 0;
#X connect 111 3 115 0;
#X connect 116 0 117 0;
#X connect 117 0 118 0;
#X connect 118 0 123 0;
#X connect 119 0 120 0;
#X connect 120 0 121 0;
#X connect 121 0 118 1;
#X connect 122 0 9 0;
#X connect 123 0 124 0;
#X connect 124 0 129 0;
#X connect 124 0 130 0;
#X connect 125 0 126 0;
#X connect 126 0 127 0;
#X connect 127 0 124 0;
#X connect 128 0 126 0;
#X connect 129 0 124 1;
#X connect 130 0 131 0;
#X connect 131 0 132 0;
#X connect 132 0 160 0;
#X connect 133 0 134 0;
#X connect 134 0 135 0;
#X connect 135 0 136 0;
#X connect 135 1 137 0;
#X connect 135 2 138 0;
#X connect 135 3 139 0;
#X connect 135 4 140 0;
#X connect 136 0 153 0;
#X connect 137 0 141 0;
#X connect 138 0 144 0;
#X connect 139 0 147 0;
#X connect 140 0 150 0;
#X connect 141 0 143 0;
#X connect 142 0 141 1;
#X connect 143 0 156 0;
#X connect 144 0 146 0;
#X connect 145 0 144 1;
#X connect 146 0 156 0;
#X connect 147 0 149 0;
#X connect 148 0 147 1;
#X connect 149 0 156 0;
#X connect 150 0 152 0;
#X connect 151 0 150 1;
#X connect 152 0 156 0;
#X connect 153 0 155 0;
#X connect 154 0 153 1;
#X connect 155 0 156 0;
#X connect 156 0 157 0;
#X connect 157 0 158 0;
#X connect 158 0 159 0;
