#N canvas 1023 186 720 687 12;
#X obj 56 68 s pd;
#X obj 195 40 tgl 15 0 empty empty empty 17 7 0 10 -262144 -1 -1 0
1;
#X obj 195 83 bng 15 250 50 0 empty empty empty 17 7 0 10 -262144 -1
-1;
#X obj 195 106 random 1000;
#X floatatom 195 129 5 0 0 0 - - -;
#X obj 197 213 osc~;
#X obj 197 237 *~ 0.2;
#X obj 197 273 dac~;
#X msg 53 39 dsp 1;
#X msg 110 39 dsp 0;
#X obj 195 60 metro 500;
#X msg 195 151 \$1 500;
#X obj 195 174 line;
#X msg 30 128 1 \, 50 30000;
#X obj 30 151 line;
#X floatatom 30 174 5 0 0 0 - - -;
#X obj 30 196 phasor~;
#X obj 30 219 *~ 0.2;
#X obj 30 242 dac~;
#X connect 1 0 10 0;
#X connect 2 0 3 0;
#X connect 3 0 4 0;
#X connect 4 0 11 0;
#X connect 5 0 6 0;
#X connect 6 0 7 0;
#X connect 6 0 7 1;
#X connect 8 0 0 0;
#X connect 9 0 0 0;
#X connect 10 0 2 0;
#X connect 11 0 12 0;
#X connect 12 0 5 0;
#X connect 13 0 14 0;
#X connect 14 0 15 0;
#X connect 15 0 16 0;
#X connect 16 0 17 0;
#X connect 17 0 18 0;
#X connect 17 0 18 1;
