#N canvas 1103 292 561 594 12;
#X declare -lib zexy;
#X msg 29 24 dsp 1;
#X obj 29 47 s pd;
#X msg 80 23 dsp 0;
#X floatatom 37 87 5 0 0 0 - - -;
#X floatatom 37 145 5 0 0 0 - - -;
#X obj 154 103 osc~;
#X obj 154 126 *~ 0.7;
#X obj 154 149 dac~;
#X obj 37 122 expr 343/$f1;
#X obj 51 203 declare -lib zexy;
#X obj 95 251 demux~;
#X connect 0 0 1 0;
#X connect 2 0 1 0;
#X connect 3 0 5 0;
#X connect 3 0 8 0;
#X connect 5 0 6 0;
#X connect 6 0 7 0;
#X connect 6 0 7 1;
#X connect 8 0 4 0;
