#N canvas 951 0 956 1003 12;
#X obj 102 47 inlet;
#X obj 102 79 bng 15 250 50 0 empty empty empty 17 7 0 10 -262144 -1
-1;
#X obj 102 99 random 8;
#X floatatom 102 122 5 0 0 0 - - -;
#X obj 102 144 sel 0 1 2 3 4 5 6 7;
#X msg 52 194 64;
#X msg 86 193 65;
#X msg 125 193 67;
#X msg 165 193 69;
#X msg 204 192 71;
#X msg 238 191 72;
#X msg 277 191 74;
#X msg 317 191 76;
#X floatatom 166 261 5 0 0 0 - - -;
#X obj 166 283 mtof;
#X floatatom 166 306 5 0 0 0 - - -;
#X obj 166 328 outlet;
#X connect 0 0 1 0;
#X connect 1 0 2 0;
#X connect 2 0 3 0;
#X connect 3 0 4 0;
#X connect 4 0 5 0;
#X connect 4 1 6 0;
#X connect 4 2 7 0;
#X connect 4 3 8 0;
#X connect 4 4 9 0;
#X connect 4 5 10 0;
#X connect 4 6 11 0;
#X connect 4 7 12 0;
#X connect 5 0 13 0;
#X connect 6 0 13 0;
#X connect 7 0 13 0;
#X connect 8 0 13 0;
#X connect 9 0 13 0;
#X connect 10 0 13 0;
#X connect 11 0 13 0;
#X connect 12 0 13 0;
#X connect 13 0 14 0;
#X connect 14 0 15 0;
#X connect 15 0 16 0;
