#N canvas 114 114 1920 1016 12;
#X obj 7 18 inlet;
#X obj 110 13 inlet;
#X obj 22 451 outlet;
#X obj 217 451 outlet;
#X obj 328 14 inlet;
#X obj 268 451 outlet;
#X text 340 -7 DB;
#X text 35 471 DB;
#X text 18 -1 DF;
#X text 119 -6 s;
#X text 231 470 DF;
#X text 281 471 s;
#X obj 168 359 f;
#X obj 124 211 sel 1;
#X obj 168 383 t f f;
#X obj 168 407 != 1;
#X obj 168 451 outlet;
#X text 173 471 lamp;
#X obj 110 156 t f f;
#X obj 124 235 t b b;
#X obj 124 183 f;
#X obj 178 18 inlet;
#X text 179 -3 mode;
#X text 396 3 hur gör vi m reset?;
#X obj 199 60 t f f f;
#X obj 199 84 == 0;
#X obj 222 108 == 1;
#X obj 245 134 == 2;
#X obj 25 395 spigot;
#X obj 328 38 t f f;
#X obj 197 229 spigot;
#X obj 110 133 spigot;
#X obj 7 42 t f f f;
#X obj 110 38 t b b;
#X obj 142 61 spigot;
#X obj 28 146 spigot;
#X obj 28 174 f;
#X text 403 24 0b1c2s;
#X obj 239 335 f;
#X obj 29 121 spigot;
#X obj 28 198 t f f b;
#X obj 313 263 spigot;
#X obj 313 287 t f f;
#X obj 345 311 sel 1;
#X obj 345 344 f;
#X obj 359 374 t f f b;
#X obj 250 15 inlet;
#X text 254 -6 rs;
#X obj 346 90 t f f;
#X obj 378 119 spigot;
#X obj 327 118 spigot;
#X msg 327 142 0;
#X obj 334 198 t f f f f;
#X obj 374 228 != 1;
#X connect 0 0 32 0;
#X connect 1 0 33 0;
#X connect 4 0 29 0;
#X connect 12 0 14 0;
#X connect 12 0 38 1;
#X connect 13 0 19 0;
#X connect 14 0 15 0;
#X connect 14 1 3 0;
#X connect 15 0 12 1;
#X connect 15 0 16 0;
#X connect 18 0 2 0;
#X connect 18 1 20 1;
#X connect 19 0 5 0;
#X connect 19 1 12 0;
#X connect 20 0 13 0;
#X connect 21 0 24 0;
#X connect 24 0 25 0;
#X connect 24 1 26 0;
#X connect 24 2 27 0;
#X connect 25 0 52 0;
#X connect 26 0 31 1;
#X connect 26 0 34 1;
#X connect 27 0 28 1;
#X connect 27 0 35 1;
#X connect 27 0 39 1;
#X connect 28 0 2 0;
#X connect 29 0 28 0;
#X connect 29 1 30 0;
#X connect 30 0 44 1;
#X connect 31 0 18 0;
#X connect 32 0 41 0;
#X connect 32 1 39 0;
#X connect 32 2 31 0;
#X connect 33 0 35 0;
#X connect 33 1 34 0;
#X connect 34 0 20 0;
#X connect 35 0 36 0;
#X connect 36 0 40 0;
#X connect 36 0 38 1;
#X connect 39 0 36 1;
#X connect 40 0 2 0;
#X connect 40 1 16 0;
#X connect 40 2 5 0;
#X connect 41 0 42 0;
#X connect 42 0 2 0;
#X connect 42 1 43 0;
#X connect 43 0 44 0;
#X connect 44 0 38 1;
#X connect 44 0 45 0;
#X connect 45 0 3 0;
#X connect 45 1 16 0;
#X connect 45 2 5 0;
#X connect 46 0 48 0;
#X connect 48 0 50 0;
#X connect 48 1 49 0;
#X connect 49 0 44 0;
#X connect 50 0 51 0;
#X connect 51 0 36 0;
#X connect 52 0 30 1;
#X connect 52 1 41 1;
#X connect 52 2 53 0;
#X connect 52 3 49 1;
#X connect 53 0 50 1;
