#N canvas 208 51 1920 1016 12;
#X obj 7 18 inlet;
#X obj 254 449 outlet;
#X obj 312 16 inlet;
#X obj 305 449 outlet;
#X text 322 -3 DB;
#X text 18 -1 DF;
#X text 119 -6 s;
#X text 268 468 DF;
#X text 318 469 s;
#X obj 86 159 f;
#X obj 54 112 sel 1;
#X obj 86 183 t f f;
#X obj 86 207 != 1;
#X obj 205 449 outlet;
#X text 210 469 lamp;
#X obj 54 136 t b b;
#X obj 178 18 inlet;
#X text 179 -3 mode;
#X text 396 3 hur gör vi m reset?;
#X obj 352 70 t f f f;
#X obj 352 94 == 0;
#X obj 398 144 == 2;
#X obj 252 211 spigot;
#X obj 54 84 spigot;
#X obj 7 42 t f f f;
#X obj 31 305 f;
#X obj 219 306 f;
#X obj 31 331 t f f b;
#X obj 16 451 outlet;
#X text 18 469 clkstp;
#X obj 123 449 outlet;
#X text 132 469 rs;
#X obj 236 16 inlet;
#X text 243 -7 rs;
#X text 403 24 0b1r2c;
#X obj 31 248 spigot;
#X obj 31 272 sel 1;
#X obj 208 120 loadbang;
#X msg 208 144 1;
#X msg 376 269 1;
#X msg 411 269 0;
#X obj 376 304 t f f;
#X obj 376 242 t b b;
#X obj 376 215 sel 1;
#X obj 312 40 tgl 19 0 empty empty empty 0 -10 0 12 #fcfcfc #000000 #000000 0 1;
#X obj 312 64 bng 19 250 50 0 empty empty empty 0 -10 0 12 #fcfcfc #000000 #000000;
#X connect 0 0 24 0;
#X connect 2 0 22 0;
#X connect 2 0 44 0;
#X connect 9 0 11 0;
#X connect 9 0 26 1;
#X connect 10 0 15 0;
#X connect 11 0 12 0;
#X connect 11 1 1 0;
#X connect 12 0 9 1;
#X connect 12 0 13 0;
#X connect 15 0 3 0;
#X connect 15 1 9 0;
#X connect 16 0 19 0;
#X connect 19 0 20 0;
#X connect 19 1 43 0;
#X connect 19 2 21 0;
#X connect 20 0 22 1;
#X connect 20 0 35 1;
#X connect 21 0 23 1;
#X connect 22 0 25 1;
#X connect 23 0 10 0;
#X connect 24 1 35 0;
#X connect 24 2 23 0;
#X connect 25 0 27 0;
#X connect 25 0 26 1;
#X connect 27 0 1 0;
#X connect 27 1 13 0;
#X connect 27 2 3 0;
#X connect 35 0 36 0;
#X connect 36 0 25 0;
#X connect 37 0 38 0;
#X connect 38 0 22 0;
#X connect 39 0 41 0;
#X connect 40 0 28 0;
#X connect 41 0 13 0;
#X connect 41 1 30 0;
#X connect 42 0 39 0;
#X connect 42 1 40 0;
#X connect 43 0 42 0;
#X connect 44 0 45 0;
