#N canvas 37 28 1054 1016 12;
#X obj 62 76 vibtest;
#X obj 101 260 dac~;
#X obj 31 24 loadbang;
#X msg 31 48 440;
#X obj 258 211 s vib;
#X obj 344 77 receive fromGUI;
#X obj 344 103 list trim;
#X obj 344 127 route /tgl /knb;
#X obj 378 197 bng 19 250 50 0 empty empty empty 0 -10 0 12 #fcfcfc #000000 #000000;
#X obj 346 260 bng 19 250 50 0 empty empty empty 0 -10 0 12 #fcfcfc #000000 #000000;
#X obj 133 177 osc~;
#X obj 296 175 * 100;
#X connect 0 0 10 0;
#X connect 2 0 3 0;
#X connect 3 0 0 0;
#X connect 5 0 6 0;
#X connect 6 0 7 0;
#X connect 7 0 0 1;
#X connect 7 0 9 0;
#X connect 7 1 8 0;
#X connect 7 1 11 0;
#X connect 10 0 1 0;
#X connect 10 0 1 1;
#X connect 11 0 4 0;
