#N canvas 93 147 1920 1016 12;
#X obj 323 171 t f f;
#X obj 271 249 pack f f;
#X obj 366 252 pack f f;
#X obj 355 206 expr centsv * $f1;
#X obj 296 223 t b f;
#X obj 388 228 t b f;
#X obj 328 321 vline~;
#X listbox 271 273 10 0 0 0 - - - 0;
#X obj 198 257 tgl 19 0 empty empty empty 0 -10 0 12 #fcfcfc #000000 #000000 0 1;
#X obj 198 283 t f f;
#X listbox 366 276 13 0 0 0 - - - 0;
#X obj 183 317 sel 1;
#X obj 227 316 sel 0;
#X msg 375 131 1000;
#X msg 319 143 400;
#X obj 207 82 == 1;
#X obj 245 82 == 0;
#X obj 39 112 spigot;
#X obj 39 56 t f f;
#X obj 39 136 sig~;
#X obj 93 112 spigot;
#X obj 375 171 t f f f;
#X msg 175 205 0;
#X obj 622 177 value centsv;
#X obj 627 142 pow;
#X obj 630 112 t b f;
#X msg 596 107 2;
#X obj 704 35 bng 19 250 50 0 empty empty empty 0 -10 0 12 #fcfcfc #000000 #000000;
#X obj 704 59 v centsv;
#X floatatom 704 83 16 0 0 0 - - - 0;
#X msg 628 59 5;
#X obj 631 88 / 120;
#X obj 546 17 loadbang;
#X obj 546 41 t b b;
#X floatatom 60 192 5 0 0 0 - - - 0;
#X floatatom 107 171 5 0 0 0 - - - 0;
#X obj 328 362 *~;
#X obj 39 255 *~;
#X obj 171 114 t f b b f;
#X obj 39 80 f;
#X obj 76 81 f;
#X obj 198 233 metro 1000;
#X obj 336 54 loadbang;
#X msg 336 78 0;
#X obj 336 102 t f f;
#X obj 168 63 tgl 19 0 empty empty empty 0 -10 0 12 #fcfcfc #000000 #000000 0 1;
#X obj 241 189 sel 1;
#X obj 246 114 t f b f f;
#X obj 176 170 sel 1;
#X obj 83 458 dac~;
#X obj 784 257 receive fromGUI;
#X obj 784 283 list trim;
#X obj 784 307 route /tgl /knb;
#X obj 115 375 osc~;
#X obj 736 355 * 100;
#X msg 39 31 440;
#X obj 38 3 loadbang;
#X obj 207 55 t f f f;
#X obj 561 355 tgl 19 0 empty empty empty 0 -10 0 12 #fcfcfc #000000 #000000 0 1;
#X floatatom 497 418 5 0 1 0 - - - 0;
#X connect 0 0 1 0;
#X connect 0 1 3 0;
#X connect 1 0 7 0;
#X connect 2 0 10 0;
#X connect 3 0 2 0;
#X connect 4 0 1 0;
#X connect 4 1 1 1;
#X connect 5 0 2 0;
#X connect 5 1 2 1;
#X connect 6 0 36 0;
#X connect 7 0 6 0;
#X connect 8 0 9 0;
#X connect 9 0 11 0;
#X connect 9 1 12 0;
#X connect 10 0 6 0;
#X connect 11 0 7 0;
#X connect 12 0 10 0;
#X connect 13 0 21 0;
#X connect 14 0 0 0;
#X connect 15 0 38 0;
#X connect 16 0 47 0;
#X connect 17 0 19 0;
#X connect 17 0 34 0;
#X connect 18 0 39 0;
#X connect 18 1 40 0;
#X connect 19 0 37 0;
#X connect 20 0 0 0;
#X connect 20 0 35 0;
#X connect 21 0 4 0;
#X connect 21 1 5 0;
#X connect 21 2 41 1;
#X connect 24 0 23 0;
#X connect 25 0 24 0;
#X connect 25 1 24 1;
#X connect 26 0 24 0;
#X connect 27 0 28 0;
#X connect 28 0 29 0;
#X connect 30 0 31 0;
#X connect 31 0 25 0;
#X connect 32 0 33 0;
#X connect 33 0 26 0;
#X connect 33 1 30 0;
#X connect 36 0 53 0;
#X connect 37 0 53 0;
#X connect 38 0 36 1;
#X connect 38 1 46 0;
#X connect 38 2 40 0;
#X connect 38 3 20 1;
#X connect 39 0 17 0;
#X connect 40 0 20 0;
#X connect 41 0 8 0;
#X connect 42 0 43 0;
#X connect 43 0 44 0;
#X connect 44 0 7 0;
#X connect 44 1 10 0;
#X connect 45 0 41 0;
#X connect 47 0 37 1;
#X connect 47 1 39 0;
#X connect 47 2 17 1;
#X connect 47 3 48 0;
#X connect 48 0 22 0;
#X connect 50 0 51 0;
#X connect 51 0 52 0;
#X connect 52 0 57 0;
#X connect 52 1 54 0;
#X connect 53 0 49 0;
#X connect 53 0 49 1;
#X connect 54 0 21 0;
#X connect 55 0 18 0;
#X connect 56 0 55 0;
#X connect 57 0 15 0;
#X connect 57 1 16 0;
#X connect 57 2 45 0;
#X connect 58 0 57 0;
#X connect 59 0 54 0;
