#N canvas 0 0 1370 729 12;
#X obj 33 27 tgl 15 0 empty empty empty 17 7 0 10 #fcfcfc #000000 #000000 0 1;
#X obj 32 60 metro 200;
#X floatatom 109 20 5 0 0 0 - - - 0;
#X obj 32 88 tgl 15 0 empty empty empty 17 7 0 10 #fcfcfc #000000 #000000 0 1;
#X obj 59 158 tgl 15 0 empty empty empty 17 7 0 10 #fcfcfc #000000 #000000 0 1;
#X obj 76 158 tgl 15 0 empty empty empty 17 7 0 10 #00faff #000000 #000000 0 1;
#X obj 93 158 tgl 15 0 empty empty empty 17 7 0 10 #fcfcfc #000000 #000000 0 1;
#X obj 58 209 tgl 15 0 empty empty empty 17 7 0 10 #fcfcfc #000000 #000000 0 1;
#X obj 75 209 tgl 15 0 empty empty empty 17 7 0 10 #00faff #000000 #000000 0 1;
#X obj 92 209 tgl 15 0 empty empty empty 17 7 0 10 #fcfcfc #000000 #000000 0 1;
#X obj 59 256 tgl 15 0 empty empty empty 17 7 0 10 #fcfcfc #000000 #000000 0 1;
#X obj 76 256 tgl 15 0 empty empty empty 17 7 0 10 #00faff #000000 #000000 0 1;
#X obj 93 256 tgl 15 0 empty empty empty 17 7 0 10 #fcfcfc #000000 #000000 0 1;
#X obj 503 340 osc~ 110;
#X obj 503 362 *~ 0.3;
#X obj 485 385 *~;
#X obj 513 253 *~ 0.3;
#X obj 495 276 *~;
#X obj 519 172 *~ 0.3;
#X obj 501 195 *~;
#X obj 519 150 osc~ 440;
#X obj 376 433 dac~;
#X obj 513 231 osc~ 880;
#X obj 53 311 tgl 15 0 empty empty empty 17 7 0 10 #fcfcfc #000000 #000000 0 1;
#X obj 76 312 tgl 15 0 empty empty empty 17 7 0 10 #00faff #000000 #000000 0 1;
#X obj 93 312 tgl 15 0 empty empty empty 17 7 0 10 #fcfcfc #000000 #000000 0 1;
#X obj 21 287 break three;
#X obj 77 364 tgl 15 0 empty empty empty 17 7 0 10 #00faff #000000 #000000 0 1;
#X obj 94 364 tgl 15 0 empty empty empty 17 7 0 10 #fcfcfc #000000 #000000 0 1;
#X obj 59 364 tgl 15 0 empty empty empty 17 7 0 10 #fcfcfc #000000 #000000 0 1;
#X obj 60 340 shift four;
#X obj 79 448 tgl 15 0 empty empty empty 17 7 0 10 #00faff #000000 #000000 0 1;
#X obj 96 448 tgl 15 0 empty empty empty 17 7 0 10 #fcfcfc #000000 #000000 0 1;
#X obj 61 447 tgl 15 0 empty empty empty 17 7 0 10 #fcfcfc #000000 #000000 0 1;
#X obj 61 425 shift five;
#X obj 79 522 tgl 15 0 empty empty empty 17 7 0 10 #00faff #000000 #000000 0 1;
#X obj 96 522 tgl 15 0 empty empty empty 17 7 0 10 #fcfcfc #000000 #000000 0 1;
#X obj 55 521 tgl 15 0 empty empty empty 17 7 0 10 #fcfcfc #000000 #000000 0 1;
#X obj 61 499 count six;
#N canvas 185 404 941 604 3wayswitch 0;
#X obj 101 119 cnv 15 150 60 empty empty empty 20 12 0 14 #e0e0e0 #404040 0;
#X obj 122 134 hradio 15 1 0 3 empty empty break.count.shift 0 -8 0 10 #fcfcfc #000000 #000000 0;
#X obj 166 191 == 0;
#X obj 209 190 == 1;
#X obj 255 195 == 2;
#X obj 291 129 select 0 1 2;
#X obj 132 226 spigot;
#X obj 191 239 spigot;
#X obj 250 234 spigot;
#X obj 168 48 inlet;
#X obj 301 273 outlet;
#X connect 1 0 2 0;
#X connect 1 0 4 0;
#X connect 1 0 3 0;
#X connect 2 0 6 1;
#X connect 3 0 7 1;
#X connect 4 0 8 1;
#X coords 0 -1 1 1 152 81 1 100 100;
#X restore 214 59 pd 3wayswitch;
#X text 120 287 NOTE: all db needs to be from stage after!;
#X text 405 9 TODO:;
#X text 433 40 1 make unified andromatic stagemodule containing break \, count \, shift with three way switch;
#X text 434 78 2 add audio like below;
#X obj 59 135 count zero;
#X obj 58 188 count one;
#X obj 59 233 count two;
#X connect 0 0 1 0;
#X connect 1 0 3 0;
#X connect 2 0 1 1;
#X connect 3 0 44 1;
#X connect 5 0 19 0;
#X connect 5 0 45 1;
#X connect 6 0 45 2;
#X connect 7 0 44 0;
#X connect 8 0 17 0;
#X connect 8 0 46 1;
#X connect 9 0 46 2;
#X connect 11 0 15 0;
#X connect 11 0 26 1;
#X connect 12 0 26 2;
#X connect 13 0 14 0;
#X connect 14 0 15 1;
#X connect 15 0 21 1;
#X connect 15 0 21 0;
#X connect 16 0 17 1;
#X connect 17 0 21 0;
#X connect 17 0 21 1;
#X connect 19 0 21 0;
#X connect 19 0 21 1;
#X connect 20 0 18 0;
#X connect 22 0 16 0;
#X connect 23 0 46 0;
#X connect 24 0 30 1;
#X connect 25 0 30 2;
#X connect 26 0 23 0;
#X connect 26 1 24 0;
#X connect 26 2 25 0;
#X connect 27 0 34 1;
#X connect 28 0 34 2;
#X connect 29 0 26 0;
#X connect 30 0 29 0;
#X connect 30 1 27 0;
#X connect 30 2 28 0;
#X connect 31 0 38 1;
#X connect 32 0 38 2;
#X connect 33 0 30 0;
#X connect 34 0 33 0;
#X connect 34 1 31 0;
#X connect 34 2 32 0;
#X connect 37 0 34 0;
#X connect 38 0 37 0;
#X connect 38 1 35 0;
#X connect 38 2 36 0;
#X connect 44 0 4 0;
#X connect 44 1 5 0;
#X connect 44 2 6 0;
#X connect 45 0 7 0;
#X connect 45 1 8 0;
#X connect 45 2 9 0;
#X connect 46 0 10 0;
#X connect 46 1 11 0;
#X connect 46 2 12 0;
