#N canvas 38 38 1691 818 12;
#X obj 137 117 == 0;
#X obj 135 142 tgl 19 0 empty empty empty 0 -10 0 12 #fcfcfc #000000 #000000 0 1;
#X obj 416 114 == 1;
#X obj 705 110 == 2;
#X obj 411 138 tgl 19 0 empty empty empty 0 -10 0 12 #fcfcfc #000000 #000000 0 1;
#X obj 705 134 tgl 19 0 empty empty empty 0 -10 0 12 #fcfcfc #000000 #000000 0 1;
#X obj 414 82 r mode;
#X obj 44 183 spigot;
#X obj 16 152 pack f f f;
#X obj 43 210 unpack f f f;
#X obj 670 27 inlet mode;
#X obj 670 55 s mode;
#X obj 325 184 spigot;
#X obj 306 148 pack f f f;
#X obj 325 210 unpack f f f;
#X obj 614 180 spigot;
#X obj 595 144 pack f f f;
#X obj 614 206 unpack f f f;
#X obj 8 296 outlet bdb;
#X obj 90 296 outlet bdf;
#X obj 173 297 outlet bsm;
#X obj 267 298 outlet cdb;
#X obj 349 298 outlet cdf;
#X obj 432 299 outlet csm;
#X obj 543 297 outlet sdb;
#X obj 625 297 outlet sdf;
#X obj 708 298 outlet ssm;
#X obj 7 22 inlet bdb;
#X obj 77 23 inlet bdf;
#X obj 150 23 inlet bsm;
#X obj 224 23 inlet cdb;
#X obj 294 24 inlet cdf;
#X obj 367 24 inlet csm;
#X obj 439 24 inlet sdb;
#X obj 510 25 inlet sdf;
#X obj 582 25 inlet ssm;
#X obj 7 46 s bdb;
#X obj 77 47 s bdf;
#X obj 150 47 s bsm;
#X obj 224 47 s cdb;
#X obj 294 48 s cdf;
#X obj 367 48 s csm;
#X obj 439 48 s sdb;
#X obj 509 49 s sdf;
#X obj 582 49 s ssm;
#X obj 581 112 r sdb;
#X obj 622 112 r sdf;
#X obj 665 112 r ssm;
#X obj 286 114 r cdb;
#X obj 331 114 r cdf;
#X obj 372 114 r csm;
#X obj 11 118 r bdb;
#X obj 53 117 r bdf;
#X obj 94 117 r bsm;
#X connect 0 0 1 0;
#X connect 1 0 7 1;
#X connect 2 0 4 0;
#X connect 3 0 5 0;
#X connect 4 0 12 1;
#X connect 5 0 15 1;
#X connect 6 0 0 0;
#X connect 6 0 2 0;
#X connect 6 0 3 0;
#X connect 7 0 9 0;
#X connect 8 0 7 0;
#X connect 9 0 18 0;
#X connect 9 1 19 0;
#X connect 9 2 20 0;
#X connect 10 0 11 0;
#X connect 12 0 14 0;
#X connect 13 0 12 0;
#X connect 14 0 21 0;
#X connect 14 1 22 0;
#X connect 14 2 23 0;
#X connect 15 0 17 0;
#X connect 16 0 15 0;
#X connect 17 0 24 0;
#X connect 17 1 25 0;
#X connect 17 2 26 0;
#X connect 27 0 36 0;
#X connect 28 0 37 0;
#X connect 29 0 38 0;
#X connect 30 0 39 0;
#X connect 31 0 40 0;
#X connect 32 0 41 0;
#X connect 33 0 42 0;
#X connect 34 0 43 0;
#X connect 35 0 44 0;
#X connect 45 0 16 0;
#X connect 46 0 16 1;
#X connect 47 0 16 2;
#X connect 48 0 13 0;
#X connect 49 0 13 1;
#X connect 50 0 13 2;
#X connect 51 0 8 0;
#X connect 52 0 8 1;
#X connect 53 0 8 2;
