#N canvas 156 74 1136 673 12;
#X obj 63 41 inlet db;
#X obj 198 41 inlet df;
#X obj 339 41 inlet sm;
#X obj 63 65 s db;
#X obj 198 65 s df;
#X obj 339 65 s sm;
#X obj 55 156 break;
#X obj 199 159 count;
#X obj 339 162 shift;
#X obj 45 295 outlet db;
#X obj 203 297 outlet df;
#X obj 348 296 outlet sm;
#X obj 440 145 check-mode;
#X obj 497 45 vradio 19 1 0 3 empty empty empty 0 -10 0 12 #fcfcfc #000000 #000000 0;
#X obj 296 230 tempcheckmode, f 20;
#X connect 0 0 3 0;
#X connect 1 0 4 0;
#X connect 2 0 5 0;
#X connect 13 0 12 3;
