#N canvas 46 115 1749 823 12;
#X obj 68 106 break;
#X obj 134 107 count;
#X obj 197 107 shift;
#X obj 25 24 inlet db;
#X obj 115 23 inlet df;
#X obj 22 181 outlet db;
#X obj 121 181 outlet df;
#X obj 210 25 inlet sm;
#X obj 224 180 outlet sm;
#X obj 72 378 spigot;
#X obj 249 216 vradio 19 1 0 3 empty empty empty 0 -10 0 12 #fcfcfc #000000 #000000 0;
#X obj 112 318 == 0;
#X obj 112 342 tgl 19 0 empty empty empty 0 -10 0 12 #fcfcfc #000000 #000000 0 1;
#X obj 198 317 == 1;
#X obj 290 318 == 2;
#X obj 198 341 tgl 19 0 empty empty empty 0 -10 0 12 #fcfcfc #000000 #000000 0 1;
#X obj 290 342 tgl 19 0 empty empty empty 0 -10 0 12 #fcfcfc #000000 #000000 0 1;
#X obj 158 383 spigot;
#X obj 254 387 spigot;
#X connect 0 0 5 0;
#X connect 0 1 6 0;
#X connect 0 2 8 0;
#X connect 1 0 5 0;
#X connect 1 1 6 0;
#X connect 1 2 8 0;
#X connect 2 0 5 0;
#X connect 2 1 6 0;
#X connect 2 2 8 0;
#X connect 3 0 0 0;
#X connect 3 0 1 0;
#X connect 3 0 2 0;
#X connect 4 0 0 1;
#X connect 4 0 1 1;
#X connect 4 0 2 1;
#X connect 7 0 0 2;
#X connect 7 0 1 2;
#X connect 7 0 2 2;
#X connect 10 0 11 0;
#X connect 10 0 13 0;
#X connect 10 0 14 0;
#X connect 11 0 12 0;
#X connect 12 0 9 1;
#X connect 13 0 15 0;
#X connect 14 0 16 0;
#X connect 15 0 17 1;
#X connect 16 0 18 1;
