#N canvas 532 22 1186 887 12;
#X obj 22 108 tempcheckmode, f 25;
#X obj 215 90 vradio 19 1 0 3 empty empty empty 0 -10 0 12 #fcfcfc #000000 #000000 0;
#X text 243 93 break 0;
#X text 243 109 count 1;
#X text 243 124 shift 2;
#X obj 31 148 break;
#X obj 93 147 count;
#X obj 160 149 shift;
#X obj 19 196 tempcheckmode, f 25;
#X obj 30 233 break;
#X obj 92 232 count;
#X obj 159 234 shift;
#X obj 215 181 vradio 19 1 0 3 empty empty empty 0 -10 0 12 #fcfcfc #000000 #000000 0;
#X text 243 184 break 0;
#X text 243 200 count 1;
#X text 243 215 shift 2;
#X obj 68 20 tgl 19 0 empty empty empty 0 -10 0 12 #fcfcfc #000000 #000000 0 1;
#X obj 68 44 metro 1000;
#X floatatom 135 10 5 0 0 0 - - - 0;
#X obj 68 68 tgl 19 0 empty empty empty 0 -10 0 12 #fcfcfc #000000 #000000 0 1;
#X obj 440 127 tgl 15 0 empty empty empty 17 7 0 10 #00faff #000000 #000000 0 1;
#X obj 22 280 tempcheckmode, f 25;
#X obj 215 262 vradio 19 1 0 3 empty empty empty 0 -10 0 12 #fcfcfc #000000 #000000 0;
#X text 243 265 break 0;
#X text 243 281 count 1;
#X text 243 296 shift 2;
#X obj 31 320 break;
#X obj 93 319 count;
#X obj 160 321 shift;
#X obj 19 368 tempcheckmode, f 25;
#X obj 30 405 break;
#X obj 92 404 count;
#X obj 159 406 shift;
#X obj 215 353 vradio 19 1 0 3 empty empty empty 0 -10 0 12 #fcfcfc #000000 #000000 0;
#X text 243 356 break 0;
#X text 243 372 count 1;
#X text 243 387 shift 2;
#X obj 418 220 tgl 15 0 empty empty empty 17 7 0 10 #00faff #000000 #000000 0 1;
#X obj 409 312 tgl 15 0 empty empty empty 17 7 0 10 #00faff #000000 #000000 0 1;
#X obj 400 401 tgl 15 0 empty empty empty 17 7 0 10 #00faff #000000 #000000 0 1;
#X connect 0 1 5 1;
#X connect 0 2 5 2;
#X connect 0 4 6 1;
#X connect 0 5 6 2;
#X connect 0 7 7 1;
#X connect 0 8 7 2;
#X connect 1 0 0 3;
#X connect 5 1 8 1;
#X connect 5 2 8 2;
#X connect 6 1 20 0;
#X connect 6 1 8 1;
#X connect 6 1 8 2;
#X connect 7 1 8 1;
#X connect 7 2 8 2;
#X connect 8 1 9 1;
#X connect 8 2 9 2;
#X connect 8 4 10 1;
#X connect 8 5 10 2;
#X connect 8 7 11 1;
#X connect 8 8 11 2;
#X connect 9 1 21 1;
#X connect 9 2 21 2;
#X connect 10 1 37 0;
#X connect 10 1 21 1;
#X connect 10 2 21 2;
#X connect 11 1 21 1;
#X connect 11 2 21 2;
#X connect 12 0 8 3;
#X connect 16 0 17 0;
#X connect 17 0 19 0;
#X connect 18 0 17 1;
#X connect 19 0 0 1;
#X connect 21 1 26 1;
#X connect 21 2 26 2;
#X connect 21 4 27 1;
#X connect 21 5 27 2;
#X connect 21 7 28 1;
#X connect 21 8 28 2;
#X connect 22 0 21 3;
#X connect 26 1 29 1;
#X connect 26 2 29 2;
#X connect 27 1 38 0;
#X connect 27 1 29 1;
#X connect 27 1 29 2;
#X connect 28 1 29 1;
#X connect 28 2 29 2;
#X connect 29 1 30 1;
#X connect 29 2 30 2;
#X connect 29 4 31 1;
#X connect 29 5 31 2;
#X connect 29 7 32 1;
#X connect 29 8 32 2;
#X connect 31 1 39 0;
#X connect 33 0 29 3;
