#N canvas 76 76 1920 1016 12;
#X obj 90 29 inlet;
#X obj 90 63 sel 0 1 2 3 4 5 6 7 8 9;
#X obj 304 19 inlet;
#X obj 338 112 f;
#X obj 304 43 t f f f f f f f f f f;
#X obj 306 111 f;
#X obj 401 112 f;
#X obj 369 111 f;
#X obj 466 112 f;
#X obj 434 111 f;
#X obj 529 112 f;
#X obj 497 111 f;
#X obj 595 114 f;
#X obj 563 113 f;
#X msg 101 227 \; 1a \$1;
#X msg 154 227 \; 1b \$1;
#X msg 206 228 \; 1c \$1;
#X msg 255 229 \; 1d \$1;
#X msg 307 230 \; 1e \$1;
#X msg 360 231 \; 1f \$1;
#X msg 412 232 \; 1g \$1;
#X msg 461 233 \; 1h \$1;
#X msg 513 234 \; 1i \$1;
#X msg 564 233 \; 1j \$1;
#X connect 0 0 1 0;
#X connect 1 0 5 0;
#X connect 1 1 3 0;
#X connect 1 2 7 0;
#X connect 1 3 6 0;
#X connect 1 4 9 0;
#X connect 1 5 8 0;
#X connect 1 6 11 0;
#X connect 1 7 10 0;
#X connect 1 8 13 0;
#X connect 1 9 12 0;
#X connect 2 0 4 0;
#X connect 3 0 15 0;
#X connect 4 0 5 1;
#X connect 4 1 3 1;
#X connect 4 2 7 1;
#X connect 4 3 6 1;
#X connect 4 4 9 1;
#X connect 4 5 8 1;
#X connect 4 6 11 1;
#X connect 4 7 10 1;
#X connect 4 8 13 1;
#X connect 4 9 12 1;
#X connect 5 0 14 0;
#X connect 6 0 17 0;
#X connect 7 0 16 0;
#X connect 8 0 19 0;
#X connect 9 0 18 0;
#X connect 10 0 21 0;
#X connect 11 0 20 0;
#X connect 12 0 23 0;
#X connect 13 0 22 0;
