#N canvas 18 48 1920 1016 12;
#X obj 189 251 JKFF, f 9;
#X obj 27 326 != 1;
#X msg 189 182 1;
#X obj 189 206 t f f;
#X obj 150 116 t f f b f;
#X text 293 182 testar att byta db;
#X obj 153 383 outlet lamp;
#X obj 45 39 inlet DF;
#X obj 136 37 inlet clk;
#X obj 240 41 inlet reset;
#X obj 336 40 inlet DB;
#X obj 57 383 outlet DB;
#X obj 256 383 outlet DF;
#X obj 348 384 outlet clk;
#X msg 239 66 0;
#X obj 99 321 f;
#X obj 355 333 f;
#X obj 137 86 t b b;
#X text 477 83 se till att hitta ett sätt där vi inte aktiverar klockan där tidigare steg är break. B kommer skicka DF = 1 men vi vill inte reagera på det. HUr funkar det i kopplingsschemat? Jag vet att den skickar DF från !Q i B men det är ju 1 oavsett \, shift får ju den informationen till D FF??;
#X text 477 163 Break och count använder DF från tidigare steg för clk puls till JKFF. Vi vill fortfarande att den triggas i break?;
#X text 473 204 Gå tillbaka \, vad vill du åstadkomma? När du är i count vill du se till att du inte klockar när tidigare steg är break. Du vill inte heller klocka break - när tidigare steg är break ( är detta ens ett problem iom DB??);
#X text 490 305 invertera DB \, se till att faktiskt använda DB som 0 ist \, löser detta mina problem?;
#X obj 136 61 sel 1;
#X connect 0 0 6 0;
#X connect 0 1 12 0;
#X connect 1 0 11 0;
#X connect 2 0 3 0;
#X connect 3 0 0 0;
#X connect 3 1 0 2;
#X connect 4 0 0 1;
#X connect 4 1 15 1;
#X connect 4 2 2 0;
#X connect 4 3 16 1;
#X connect 7 0 4 0;
#X connect 8 0 22 0;
#X connect 9 0 14 0;
#X connect 14 0 0 3;
#X connect 15 0 11 0;
#X connect 16 0 13 0;
#X connect 17 0 15 0;
#X connect 17 1 16 0;
#X connect 22 0 17 0;
