#N canvas -53 182 1920 1016 12;
#X obj 61 37 inlet~;
#X obj 112 37 inlet freq;
#X obj 198 117 *~ 0.8;
#X obj 198 141 clip~ -0.99 0.99;
#X obj 61 160 outlet~;
#X obj 61 88 lop~;
#X text 350 146 tog brt för jag vet inte varför denna är här;
#X connect 0 0 5 0;
#X connect 1 0 5 1;
#X connect 2 0 3 0;
#X connect 5 0 4 0;
