#N canvas 152 152 1920 1016 12;
#X obj 30 20 inlet~;
#X obj 110 21 inlet~;
#X obj 92 97 +~;
#X obj 92 180 *~;
#X obj 92 206 outlet~;
#X text 7 179 summing amp;
#X obj 92 133 vibrato;
#X obj 154 206 outlet~;
#X obj 306 251 vibrato;
#X obj 295 142 vibratoamp;
#X obj 294 60 osc~ 1600;
#N canvas 0 50 450 250 (subpatch) 0;
#X array array\$0 100 float 1;
#A 0 0 0 0 0 0 0 0 0 0 0 0 0 0 0 0 0 0 0 0 0 0 0 0 0 0 0 0 0 0 0 0 0 0 0 0 0 0 0 0 0 0 0 0 0 0 0 0 0 0 0 0 0 0 0 0 0 0 0 0 0 0 0 0 0 0 0 0 0 0 0 0 0 0 0 0 0 0 0 0 0 0 0 0 0 0 0 0 0 0 0 0 0 0 0 0 0 0 0 0 0;
#X coords 0 1 99 -1 200 140 1;
#X restore 686 193 graph;
#X obj 617 36 tgl 19 0 empty empty empty 0 -10 0 12 #fcfcfc #000000 #000000 0 1;
#X obj 617 60 metro 100;
#X obj 617 84 tabwrite~ array\$0;
#X obj 404 180 tgl 19 0 empty empty empty 0 -10 0 12 #fcfcfc #000000 #000000 0 1;
#X floatatom 433 179 5 0 0 0 - - - 0;
#X obj 243 349 dac~;
#X obj 306 275 send~ vibb;
#X obj 330 96 r~ vibb;
#X obj 410 94 tgl 19 0 empty empty empty 0 -10 0 12 #fcfcfc #000000 #000000 0 1;
#X obj 443 297 freqscope;
#X connect 0 0 2 0;
#X connect 1 0 2 1;
#X connect 2 0 6 0;
#X connect 3 0 4 0;
#X connect 6 0 3 0;
#X connect 6 0 7 0;
#X connect 8 0 18 0;
#X connect 8 0 14 0;
#X connect 9 0 8 0;
#X connect 10 0 9 0;
#X connect 12 0 13 0;
#X connect 13 0 14 0;
#X connect 15 0 8 1;
#X connect 16 0 8 2;
#X connect 19 0 9 1;
#X connect 20 0 9 2;
