#N canvas 114 114 1920 1016 12;
#X obj 236 163 sq;
#X obj 27 271 +~;
#X obj 103 269 +~;
#X obj 27 303 +~;
#X obj 27 138 *~;
#X obj 45 100 *~;
#X obj 103 138 *~;
#X obj 236 138 *~;
#X obj 27 15 inlet~;
#X obj 262 13 r hpf;
#X obj 306 13 r lpf;
#X obj 348 13 r sq;
#X obj 77 15 inlet;
#X obj 123 15 inlet;
#X obj 170 14 inlet;
#X obj 216 14 inlet;
#X obj 27 340 outlet~;
#X obj 27 186 *~;
#X obj 103 233 *~;
#X obj 293 198 *~ 0.2;
#X obj 293 174 hip~ 6500;
#X obj 215 238 lop~ 400;
#X obj 215 259 lop~ 800;
#X obj 215 280 lop~ 2400;
#X obj 285 236 lop~ 2400;
#X obj 285 258 lop~ 800;
#X obj 285 280 lop~ 400;
#X obj 215 304 *~ 0.3;
#X obj 285 304 *~ 0.3;
#X obj 27 162 hip~ 6500;
#X obj 103 210 lop~ 2400;
#X obj 103 162 lop~ 400;
#X obj 103 186 lop~ 800;
#X connect 0 0 2 1;
#X connect 1 0 3 0;
#X connect 2 0 3 1;
#X connect 3 0 16 0;
#X connect 4 0 29 0;
#X connect 5 0 1 1;
#X connect 6 0 31 0;
#X connect 7 0 0 0;
#X connect 8 0 5 0;
#X connect 8 0 6 0;
#X connect 8 0 7 0;
#X connect 8 0 4 0;
#X connect 9 0 17 1;
#X connect 10 0 18 1;
#X connect 11 0 0 1;
#X connect 12 0 4 1;
#X connect 13 0 5 1;
#X connect 14 0 6 1;
#X connect 15 0 7 1;
#X connect 17 0 1 0;
#X connect 18 0 2 0;
#X connect 20 0 19 0;
#X connect 21 0 22 0;
#X connect 22 0 23 0;
#X connect 23 0 27 0;
#X connect 24 0 25 0;
#X connect 25 0 26 0;
#X connect 26 0 28 0;
#X connect 29 0 17 0;
#X connect 30 0 18 0;
#X connect 31 0 32 0;
#X connect 32 0 30 0;
