#N canvas 1913 1009 1920 1016 12;
#X obj 192 326 JKFF, f 7;
#X obj 401 217 f;
#X obj 78 245 f;
#X obj 78 269 t f f;
#X obj 78 293 != 1;
#X obj 399 37 f;
#X obj 192 365 f;
#X obj 242 363 f;
#X obj 484 473 outlet clk;
#X obj 399 11 inlet reset;
#X obj 278 14 inlet mode;
#X obj 398 474 outlet DF;
#X obj 243 441 spigot;
#X obj 286 475 outlet lamp;
#X obj 192 392 t f f;
#X obj 192 416 != 1;
#X obj 192 440 spigot;
#X obj 500 10 inlet DB;
#X obj 500 34 t f f;
#X obj 133 211 spigot;
#X obj 30 8 inlet DF;
#X obj 157 13 inlet clk;
#X obj 30 32 t f f;
#X obj 433 292 f 1;
#X obj 369 169 spigot;
#X obj 369 193 t f f;
#X obj 433 265 sel 1;
#X obj 401 241 t f f;
#X obj 172 187 == 0;
#X obj 278 111 t f f f f f f f f f;
#X text 792 20 0b \, 1c \, 2s;
#X obj 30 69 t f f f;
#X obj 53 105 spigot;
#X obj 92 81 == 0;
#X obj 53 372 t b b;
#X obj 53 345 sel 1;
#X obj 53 132 t f f f;
#X obj 433 320 t f f f;
#X text 792 46 0b \, 1r \, 2c;
#X obj 19 475 outlet clkstp;
#X obj 141 476 outlet reset;
#X msg 579 244 1;
#X msg 628 243 0;
#X obj 579 276 t f f;
#X obj 579 209 t b b;
#X obj 579 179 sel 1;
#X obj 408 144 == 2;
#X obj 241 402 != 2;
#X obj 282 414 == 2;
#X obj 579 300 t f f;
#X obj 601 70 loadbang;
#X msg 601 94 1;
#X obj 752 319 == 0;
#X obj 752 343 sel 1;
#X msg 752 367 0;
#X obj 278 38 t f f;
#X connect 0 0 6 1;
#X connect 0 1 7 1;
#X connect 1 0 27 0;
#X connect 2 0 3 0;
#X connect 3 0 4 0;
#X connect 3 1 0 2;
#X connect 4 0 0 0;
#X connect 5 0 0 3;
#X connect 6 0 14 0;
#X connect 7 0 11 0;
#X connect 9 0 5 0;
#X connect 10 0 55 0;
#X connect 12 0 13 0;
#X connect 14 0 15 0;
#X connect 14 1 12 0;
#X connect 15 0 16 0;
#X connect 16 0 13 0;
#X connect 17 0 18 0;
#X connect 18 0 19 0;
#X connect 19 0 2 0;
#X connect 20 0 22 0;
#X connect 22 0 31 0;
#X connect 23 0 37 0;
#X connect 24 0 25 0;
#X connect 25 0 8 0;
#X connect 25 1 1 0;
#X connect 26 0 23 0;
#X connect 27 0 0 1;
#X connect 27 1 26 0;
#X connect 28 0 19 1;
#X connect 29 0 48 0;
#X connect 29 1 47 0;
#X connect 29 5 33 0;
#X connect 29 6 28 0;
#X connect 29 7 45 0;
#X connect 29 8 46 0;
#X connect 31 0 24 0;
#X connect 31 1 32 0;
#X connect 32 0 36 0;
#X connect 33 0 32 1;
#X connect 34 0 6 0;
#X connect 34 1 7 0;
#X connect 35 0 34 0;
#X connect 36 0 35 0;
#X connect 36 1 8 0;
#X connect 36 2 0 1;
#X connect 37 0 35 0;
#X connect 37 1 0 0;
#X connect 37 2 0 2;
#X connect 41 0 43 0;
#X connect 42 0 39 0;
#X connect 43 0 49 0;
#X connect 43 1 5 0;
#X connect 44 0 41 0;
#X connect 44 1 42 0;
#X connect 45 0 44 0;
#X connect 46 0 24 1;
#X connect 47 0 16 1;
#X connect 48 0 12 1;
#X connect 49 0 13 0;
#X connect 49 1 40 0;
#X connect 50 0 51 0;
#X connect 51 0 18 0;
#X connect 52 0 53 0;
#X connect 53 0 54 0;
#X connect 54 0 0 3;
#X connect 55 0 29 0;
#X connect 55 1 52 0;
