#N canvas 38 38 1920 1016 12;
#X obj 90 29 inlet;
#X obj 90 63 sel 0 1 2 3 4 5 6 7 8 9;
#X obj 304 19 inlet;
#X obj 338 112 f;
#X msg 101 227 \; a \$1;
#X msg 154 227 \; b \$1;
#X msg 206 228 \; c \$1;
#X msg 255 229 \; d \$1;
#X msg 307 230 \; e \$1;
#X msg 360 231 \; f \$1;
#X msg 412 232 \; g \$1;
#X msg 461 233 \; h \$1;
#X msg 513 234 \; i \$1;
#X msg 564 233 \; j \$1;
#X obj 304 43 t f f f f f f f f f f;
#X obj 306 111 f;
#X obj 401 112 f;
#X obj 369 111 f;
#X obj 466 112 f;
#X obj 434 111 f;
#X obj 529 112 f;
#X obj 497 111 f;
#X obj 595 114 f;
#X obj 563 113 f;
#X connect 0 0 1 0;
#X connect 1 0 15 0;
#X connect 1 1 3 0;
#X connect 1 2 17 0;
#X connect 1 3 16 0;
#X connect 1 4 19 0;
#X connect 1 5 18 0;
#X connect 1 6 21 0;
#X connect 1 7 20 0;
#X connect 1 8 23 0;
#X connect 1 9 22 0;
#X connect 2 0 14 0;
#X connect 3 0 5 0;
#X connect 14 0 15 1;
#X connect 14 1 3 1;
#X connect 14 2 17 1;
#X connect 14 3 16 1;
#X connect 14 4 19 1;
#X connect 14 5 18 1;
#X connect 14 6 21 1;
#X connect 14 7 20 1;
#X connect 14 8 23 1;
#X connect 14 9 22 1;
#X connect 15 0 4 0;
#X connect 16 0 7 0;
#X connect 17 0 6 0;
#X connect 18 0 9 0;
#X connect 19 0 8 0;
#X connect 20 0 11 0;
#X connect 21 0 10 0;
#X connect 22 0 13 0;
#X connect 23 0 12 0;
