#N canvas -10 0 958 1004 12;
#X obj 43 365 hip~ 5;
#X obj 157 231 osc~;
#X obj 89 232 *~;
#X obj 157 180 mtof;
#X obj 157 208 *;
#X msg 206 176 0.5;
#X floatatom 206 205 3 0 0 0 - - - 0;
#X msg 244 176 15;
#X obj 90 255 *~ 2;
#X obj 206 151 loadbang;
#X text 161 272 on/off for original;
#X text 277 176 <= choose an effect;
#X obj 111 127 moses 1;
#X obj 111 99 sigmund~ -npts 2048;
#X text 255 99 track pitch;
#X text 173 125 reject low numbers indicating no pitch found;
#X obj 108 288 tgl 19 0 empty empty empty 0 -6 0 8 #dfdfdf #000000 #000000 0 1;
#X obj 90 317 *~;
#X obj 61 288 tgl 19 0 empty empty empty 0 -6 0 8 #dfdfdf #000000 #000000 0 1;
#X obj 43 317 *~;
#X text 133 288 <- and processed sounds;
#X obj 103 420 dac~;
#X obj 299 314 loadbang;
#X obj 299 375 expr 1000*1024/$f1;
#X obj 299 340 samplerate~;
#X obj 125 37 delwrite~ octave\$0 40;
#X obj 299 418 delread~ octave\$0;
#X obj 106 7 phasor~ 440;
#X obj 331 245 sigmund~ pitch;
#X obj 331 269 mtof;
#X floatatom 331 293 5 0 0 0 - - - 0;
#X connect 0 0 21 0;
#X connect 0 0 21 1;
#X connect 1 0 2 1;
#X connect 1 0 28 0;
#X connect 2 0 8 0;
#X connect 3 0 4 0;
#X connect 4 0 1 0;
#X connect 5 0 6 0;
#X connect 6 0 4 1;
#X connect 7 0 6 0;
#X connect 8 0 17 0;
#X connect 9 0 5 0;
#X connect 12 1 3 0;
#X connect 13 0 12 0;
#X connect 16 0 17 1;
#X connect 17 0 0 0;
#X connect 18 0 19 1;
#X connect 19 0 0 0;
#X connect 22 0 24 0;
#X connect 23 0 26 0;
#X connect 24 0 23 0;
#X connect 26 0 19 0;
#X connect 26 0 2 0;
#X connect 27 0 25 0;
#X connect 27 0 13 0;
#X connect 28 0 29 0;
#X connect 29 0 30 0;
