#N canvas 76 76 1920 1016 12;
#X obj 716 285 freqscope;
#X obj 428 408 bp~, f 4;
#X obj 306 438 output~;
#X obj 8 35 tgl 19 0 empty empty empty 0 -10 0 12 #fcfcfc #000000 #000000 0 1;
#X obj 34 34 readsf~;
#X msg 34 9 open 1.wav;
#X obj 122 37 tgl 19 0 empty empty empty 0 -10 0 12 #fcfcfc #000000 #000000 0 1;
#X obj 148 36 readsf~;
#X msg 148 11 open 2.wav;
#X obj 238 37 tgl 19 0 empty empty empty 0 -10 0 12 #fcfcfc #000000 #000000 0 1;
#X obj 264 36 readsf~;
#X obj 355 39 tgl 19 0 empty empty empty 0 -10 0 12 #fcfcfc #000000 #000000 0 1;
#X obj 381 38 readsf~;
#X obj 470 42 tgl 19 0 empty empty empty 0 -10 0 12 #fcfcfc #000000 #000000 0 1;
#X obj 496 41 readsf~;
#X obj 583 43 tgl 19 0 empty empty empty 0 -10 0 12 #fcfcfc #000000 #000000 0 1;
#X obj 609 42 readsf~;
#X obj 7 84 tgl 19 0 empty empty empty 0 -10 0 12 #fcfcfc #000000 #000000 0 1;
#X obj 33 83 readsf~;
#X obj 121 86 tgl 19 0 empty empty empty 0 -10 0 12 #fcfcfc #000000 #000000 0 1;
#X obj 147 85 readsf~;
#X obj 237 86 tgl 19 0 empty empty empty 0 -10 0 12 #fcfcfc #000000 #000000 0 1;
#X obj 263 85 readsf~;
#X obj 354 88 tgl 19 0 empty empty empty 0 -10 0 12 #fcfcfc #000000 #000000 0 1;
#X obj 380 87 readsf~;
#X obj 469 91 tgl 19 0 empty empty empty 0 -10 0 12 #fcfcfc #000000 #000000 0 1;
#X obj 497 90 readsf~;
#X msg 264 11 open 3.wav;
#X msg 381 13 open 4.wav;
#X msg 496 16 open 5.wav;
#X msg 609 17 open 6.wav;
#X msg 33 58 open 7.wav;
#X msg 147 60 open 8.wav;
#X msg 263 60 open 9.wav;
#X msg 380 62 open 10.wav;
#X msg 497 65 open 11.wav;
#X msg 4 12 1;
#X msg 2 60 1;
#X msg 116 10 1;
#X msg 117 60 1;
#X msg 230 11 1;
#X msg 229 60 1;
#X msg 349 11 1;
#X msg 348 63 1;
#X msg 463 15 1;
#X msg 467 65 1;
#X msg 578 17 1;
#X obj 48 436 output~;
#X obj 154 333 tgl 19 0 empty empty empty 0 -10 0 12 #fcfcfc #000000 #000000 0 1;
#X msg 178 385 mute \$1;
#X msg 110 384 mute \$1;
#X obj 111 358 != 1;
#X obj 506 284 freqscope;
#X msg 618 125 1024;
#X floatatom 618 173 5 0 0 0 - - - 0;
#X obj 876 30 *~ 0.2;
#X obj 308 333 tgl 19 0 empty empty empty 0 -10 0 12 #fcfcfc #000000 #000000 0 1;
#X msg 332 385 mute \$1;
#X msg 264 384 mute \$1;
#X obj 265 358 != 1;
#X obj 876 6 hip~ 6500;
#X obj 734 10 lop~ 400;
#X obj 734 31 lop~ 800;
#X obj 734 52 lop~ 2400;
#X obj 804 8 lop~ 2400;
#X obj 804 30 lop~ 800;
#X obj 804 52 lop~ 400;
#X obj 734 76 *~ 0.3;
#X obj 804 76 *~ 0.3;
#X obj 616 149 * 1;
#X obj 178 436 output~;
#X obj 177 155 noise~;
#X obj 177 179 bp~ 400 2;
#X obj 252 180 bp~ 800 2;
#X connect 3 0 4 0;
#X connect 4 1 36 0;
#X connect 5 0 4 0;
#X connect 6 0 7 0;
#X connect 7 1 38 0;
#X connect 8 0 7 0;
#X connect 9 0 10 0;
#X connect 10 1 40 0;
#X connect 11 0 12 0;
#X connect 12 1 42 0;
#X connect 13 0 14 0;
#X connect 14 1 44 0;
#X connect 15 0 16 0;
#X connect 16 1 46 0;
#X connect 17 0 18 0;
#X connect 18 1 37 0;
#X connect 19 0 20 0;
#X connect 20 1 39 0;
#X connect 21 0 22 0;
#X connect 22 1 41 0;
#X connect 23 0 24 0;
#X connect 24 1 43 0;
#X connect 25 0 26 0;
#X connect 26 1 45 0;
#X connect 27 0 10 0;
#X connect 28 0 12 0;
#X connect 29 0 14 0;
#X connect 30 0 16 0;
#X connect 31 0 18 0;
#X connect 32 0 20 0;
#X connect 33 0 22 0;
#X connect 34 0 24 0;
#X connect 35 0 26 0;
#X connect 36 0 5 0;
#X connect 36 0 3 0;
#X connect 37 0 31 0;
#X connect 37 0 17 0;
#X connect 38 0 8 0;
#X connect 38 0 6 0;
#X connect 39 0 32 0;
#X connect 39 0 19 0;
#X connect 40 0 27 0;
#X connect 40 0 9 0;
#X connect 41 0 33 0;
#X connect 41 0 21 0;
#X connect 42 0 28 0;
#X connect 42 0 11 0;
#X connect 43 0 34 0;
#X connect 43 0 23 0;
#X connect 44 0 29 0;
#X connect 44 0 13 0;
#X connect 45 0 35 0;
#X connect 45 0 25 0;
#X connect 46 0 30 0;
#X connect 46 0 15 0;
#X connect 48 0 49 0;
#X connect 48 0 51 0;
#X connect 49 0 70 0;
#X connect 50 0 47 0;
#X connect 51 0 50 0;
#X connect 53 0 69 0;
#X connect 54 0 0 1;
#X connect 54 0 52 1;
#X connect 56 0 57 0;
#X connect 56 0 59 0;
#X connect 57 0 2 0;
#X connect 58 0 70 0;
#X connect 59 0 58 0;
#X connect 60 0 55 0;
#X connect 61 0 62 0;
#X connect 62 0 63 0;
#X connect 63 0 67 0;
#X connect 64 0 65 0;
#X connect 65 0 66 0;
#X connect 66 0 68 0;
#X connect 69 0 54 0;
#X connect 71 0 72 0;
#X connect 71 0 73 0;
#X connect 72 0 52 0;
#X connect 73 0 0 0;
