#N canvas 209 0 1699 1004 12;
#X obj 432 78 inlet J;
#X obj 164 81 inlet K;
#X obj 301 81 inlet CLK;
#X obj 165 198 expr if ($f1 == $f2 \, if ($f1 == 0 \, if ($f3 == 1 \, 1 \, 0) \, if ($f3 == 1 \, 0 \, 1)) \, if ($f1 == 0 \, 0 \, 1));
#X obj 279 113 bang;
#X obj 334 157 t b f;
#X obj 317 114 sel 1;
#X obj 165 245 f;
#X obj 209 243 t b f;
#X obj 152 294 != 1;
#X obj 152 319 print !Q;
#X obj 194 271 t f f;
#X obj 299 319 print Q;
#X obj 219 319 outlet !Q;
#X obj 363 319 outlet Q;
#X obj 517 78 inlet reset;
#X msg 508 153 0;
#X obj 517 102 sel 1;
#X msg 550 153 1;
#X obj 517 126 t b b;
#X connect 0 0 3 0;
#X connect 1 0 5 0;
#X connect 2 0 4 0;
#X connect 2 0 6 0;
#X connect 3 0 7 1;
#X connect 5 0 3 0;
#X connect 5 1 3 1;
#X connect 6 0 7 0;
#X connect 7 0 8 0;
#X connect 7 0 11 0;
#X connect 8 0 3 0;
#X connect 8 1 3 2;
#X connect 9 0 10 0;
#X connect 9 0 13 0;
#X connect 11 0 9 0;
#X connect 11 1 12 0;
#X connect 11 1 14 0;
#X connect 15 0 17 0;
#X connect 16 0 7 0;
#X connect 16 0 3 0;
#X connect 17 0 19 0;
#X connect 18 0 5 0;
#X connect 19 0 16 0;
#X connect 19 1 18 0;
