#N canvas -9 106 1920 1016 12;
#X obj 37 31 tgl 19 0 empty empty empty 0 -10 0 12 #fcfcfc #000000 #000000 0 1;
#X obj 37 55 metro 500;
#X obj 37 79 tgl 19 0 empty empty empty 0 -10 0 12 #fcfcfc #000000 #000000 0 1;
#X obj 226 245 JKFF, f 13;
#X text 558 29 1: K \, 2: clk \, 3: J \, 4: reset 1 !Q \, 2 Q;
#X obj 220 149 NOR;
#X obj 190 90 tgl 19 0 empty empty empty 0 -10 0 12 #fcfcfc #000000 #000000 0 1;
#X msg 206 59 0;
#X msg 167 60 1;
#X obj 312 202 tgl 19 0 empty empty empty 0 -10 0 12 #fcfcfc #000000 #000000 0 1;
#X msg 328 162 0;
#X msg 289 163 1;
#X obj 202 187 NOR;
#X obj 190 120 t f f;
#X obj 263 116 tgl 19 0 empty empty empty 0 -10 0 12 #fcfcfc #000000 #000000 0 1;
#X msg 279 85 0;
#X msg 240 86 1;
#X obj 126 146 tgl 19 0 empty empty empty 0 -10 0 12 #fcfcfc #000000 #000000 0 1;
#X obj 227 284 tgl 19 0 empty empty empty 0 -10 0 12 #fcfcfc #000000 #000000 0 1;
#X obj 315 284 tgl 19 0 empty empty empty 0 -10 0 12 #fcfcfc #000000 #000000 0 1;
#X text 372 166 reset;
#X text 177 23 ground a;
#X text 266 55 DB b1;
#X text 91 116 clk;
#X text 125 282 !Q for B \, DF;
#X obj 302 422 JKFF, f 13;
#X obj 407 348 NOR;
#X obj 389 386 NOR;
#X obj 377 319 t f f;
#X obj 375 293 tgl 19 0 empty empty empty 0 -10 0 12 #fcfcfc #000000 #000000 0 1;
#X msg 391 262 0;
#X msg 352 263 1;
#X obj 302 446 tgl 19 0 empty empty empty 0 -10 0 12 #fcfcfc #000000 #000000 0 1;
#X obj 388 449 tgl 19 0 empty empty empty 0 -10 0 12 #fcfcfc #000000 #000000 0 1;
#X obj 490 145 JKFF, f 13;
#X obj 490 113 2NOR;
#X obj 492 172 tgl 19 0 empty empty empty 0 -10 0 12 #fcfcfc #000000 #000000 0 1;
#X obj 577 172 tgl 19 0 empty empty empty 0 -10 0 12 #fcfcfc #000000 #000000 0 1;
#X obj 511 268 JKFF, f 13;
#X obj 506 237 2NOR;
#X obj 513 295 tgl 19 0 empty empty empty 0 -10 0 12 #fcfcfc #000000 #000000 0 1;
#X obj 598 295 tgl 19 0 empty empty empty 0 -10 0 12 #fcfcfc #000000 #000000 0 1;
#X obj 565 205 f;
#X obj 582 337 f;
#X obj 633 239 != 1;
#X obj 733 269 tgl 19 0 empty empty empty 0 -10 0 12 #fcfcfc #000000 #000000 0 1;
#X obj 564 233 tgl 19 0 empty empty empty 0 -10 0 12 #fcfcfc #000000 #000000 0 1;
#X obj 582 361 != 1;
#X obj 650 339 bng 19 250 50 0 empty empty empty 0 -10 0 12 #fcfcfc #000000 #000000;
#X connect 0 0 1 0;
#X connect 1 0 2 0;
#X connect 3 0 18 0;
#X connect 3 1 19 0;
#X connect 5 0 12 1;
#X connect 5 0 3 0;
#X connect 6 0 13 0;
#X connect 7 0 6 0;
#X connect 8 0 6 0;
#X connect 8 0 35 0;
#X connect 8 0 39 0;
#X connect 9 0 3 3;
#X connect 10 0 9 0;
#X connect 11 0 9 0;
#X connect 12 0 3 2;
#X connect 13 0 12 0;
#X connect 13 1 5 0;
#X connect 14 0 5 1;
#X connect 15 0 14 0;
#X connect 15 0 35 1;
#X connect 15 0 39 1;
#X connect 16 0 14 0;
#X connect 17 0 3 1;
#X connect 17 0 25 1;
#X connect 17 0 34 1;
#X connect 17 0 42 0;
#X connect 17 0 43 0;
#X connect 18 0 26 1;
#X connect 25 0 32 0;
#X connect 25 1 33 0;
#X connect 26 0 27 1;
#X connect 26 0 25 0;
#X connect 27 0 25 2;
#X connect 28 0 27 0;
#X connect 28 1 26 0;
#X connect 29 0 28 0;
#X connect 30 0 29 0;
#X connect 31 0 29 0;
#X connect 34 0 36 0;
#X connect 34 1 37 0;
#X connect 35 0 34 0;
#X connect 35 1 34 2;
#X connect 37 0 42 1;
#X connect 38 0 40 0;
#X connect 38 1 41 0;
#X connect 39 0 38 0;
#X connect 39 1 38 2;
#X connect 41 0 43 1;
#X connect 41 0 48 0;
#X connect 42 0 44 0;
#X connect 42 0 46 0;
#X connect 42 0 38 1;
#X connect 43 0 47 0;
#X connect 44 0 45 0;
#X connect 44 0 35 1;
#X connect 47 0 39 1;
