#N canvas -10 0 1367 1004 12;
#X obj 151 25 tgl 25 0 empty empty J 0 -10 0 12 #ffe3c6 #000000 #000000 0 1;
#X obj 272 27 tgl 25 0 empty empty K 0 -10 0 12 #feffc6 #000000 #000000 0 1;
#X obj 247 81 t b f;
#X obj 73 176 expr if ($f1 == 0 && $f2 == 0 \, if ($f3 == 1 \, 1 \, 0) \, if ($f1 == 0 \, 0 \, 1));
#X obj 75 240 f;
#X obj 114 241 t b f;
#X floatatom 26 215 5 0 0 0 - - - 0;
#X floatatom 63 281 5 0 0 0 - - - 0;
#X obj 32 89 bng 19 250 50 0 empty empty empty 0 -10 0 12 #fcfcfc #000000 #000000;
#X obj 128 308 print Q;
#X connect 0 0 3 0;
#X connect 1 0 2 0;
#X connect 2 0 3 0;
#X connect 2 1 3 1;
#X connect 3 0 6 0;
#X connect 3 0 4 1;
#X connect 4 0 5 0;
#X connect 4 0 7 0;
#X connect 4 0 9 0;
#X connect 5 0 3 0;
#X connect 5 1 3 2;
#X connect 8 0 3 0;
#X connect 8 0 4 0;
