#N canvas 128 128 689 511 12;
#X obj 74 87 mode, f 9;
#X msg 119 29 1;
#X msg 53 30 1;
#X obj 92 125 tgl 19 0 empty empty empty 0 -10 0 12 #fcfcfc #000000 #000000 0 1;
#X obj 153 87 mode, f 9;
#X msg 198 29 1;
#X obj 171 125 tgl 19 0 empty empty empty 0 -10 0 12 #fcfcfc #000000 #000000 0 1;
#X obj 227 86 mode, f 9;
#X msg 272 28 1;
#X obj 245 124 tgl 19 0 empty empty empty 0 -10 0 12 #fcfcfc #000000 #000000 0 1;
#X connect 0 1 3 0;
#X connect 0 2 4 0;
#X connect 0 3 4 1;
#X connect 1 0 0 2;
#X connect 2 0 0 0;
#X connect 2 0 0 1;
#X connect 4 1 6 0;
#X connect 4 2 7 0;
#X connect 4 3 7 1;
#X connect 5 0 4 2;
#X connect 7 1 9 0;
#X connect 8 0 7 2;
