#N canvas 963 68 1920 1026 12;
#X obj 113 297 f;
#X obj 92 382 t f f;
#X obj 92 410 != 1;
#X obj 20 27 inlet;
#X obj 62 27 inlet;
#X obj 351 18 inlet;
#X text 361 -1 DB;
#X text 31 8 DF;
#X text 73 6 s;
#X obj 13 468 outlet;
#X obj 366 464 outlet;
#X obj 415 464 outlet;
#X text 25 487 DB;
#X text 379 482 DF;
#X text 427 483 s;
#X obj 40 310 sel 1;
#X obj 8 288 t f f;
#X obj 112 25 inlet;
#X text 111 4 mode;
#X obj 112 46 t f f f;
#X obj 98 68 == 0;
#X obj 135 68 == 1;
#X obj 172 68 == 2;
#X obj 8 265 spigot;
#X obj 278 197 spigot;
#X obj 92 473 outlet;
#X text 96 490 lamp;
#X obj 121 198 spigot;
#X obj 274 245 spigot;
#X obj 31 199 sel 1;
#X obj 17 131 t f f;
#X obj 31 223 t b b;
#X obj 31 177 f;
#X obj 17 109 spigot;
#X obj 85 134 spigot;
#X obj 273 25 inlet;
#X text 282 4 rs;
#X obj 273 72 f;
#X obj 273 49 sel 1;
#X obj 98 90 t f f f f;
#X obj 414 57 sel 1;
#X msg 414 81 1;
#X obj 351 42 t f f;
#X obj 375 282 spigot;
#X obj 559 17 r ON;
#X obj 559 41 sel 0;
#X msg 559 65 0;
#X obj 92 359 spigot;
#X obj 113 321 t f f;
#X obj 159 352 t f f b;
#X obj 273 96 t f f;
#X obj 575 142 t f f f;
#X obj 575 170 t f f f;
#X obj 55 419 tgl 19 0 empty empty empty 0 -10 0 12 #fcfcfc #000000 #000000 0 1;
#X obj 53 383 tgl 19 0 empty empty empty 0 -10 0 12 #fcfcfc #000000 #000000 0 1;
#X obj 55 353 tgl 19 0 empty empty empty 0 -10 0 12 #fcfcfc #000000 #000000 0 1;
#X obj 32 354 bng 19 250 50 0 empty empty empty 0 -10 0 12 #fcfcfc #000000 #000000;
#X obj 29 382 bng 19 250 50 0 empty empty empty 0 -10 0 12 #fcfcfc #000000 #000000;
#X obj 30 419 bng 19 250 50 0 empty empty empty 0 -10 0 12 #fcfcfc #000000 #000000;
#X obj 212 261 tgl 19 0 empty empty empty 0 -10 0 12 #fcfcfc #000000 #000000 0 1;
#X obj 187 261 bng 19 250 50 0 empty empty empty 0 -10 0 12 #fcfcfc #000000 #000000;
#X obj 92 434 t f f;
#X obj 199 292 bng 19 250 50 0 empty empty empty 0 -10 0 12 #fcfcfc #000000 #000000;
#X connect 0 0 48 0;
#X connect 0 0 55 0;
#X connect 1 0 2 0;
#X connect 1 1 10 0;
#X connect 2 0 53 0;
#X connect 2 0 61 0;
#X connect 3 0 23 0;
#X connect 3 0 28 0;
#X connect 3 0 33 0;
#X connect 4 0 27 0;
#X connect 4 0 34 0;
#X connect 5 0 42 0;
#X connect 15 0 0 0;
#X connect 16 0 9 0;
#X connect 16 1 15 0;
#X connect 17 0 19 0;
#X connect 19 0 20 0;
#X connect 19 1 21 0;
#X connect 19 2 22 0;
#X connect 20 0 39 0;
#X connect 21 0 51 0;
#X connect 22 0 52 0;
#X connect 23 0 16 0;
#X connect 24 0 0 1;
#X connect 27 0 0 0;
#X connect 28 0 0 1;
#X connect 29 0 31 0;
#X connect 30 0 9 0;
#X connect 30 1 32 1;
#X connect 30 1 59 0;
#X connect 31 0 11 0;
#X connect 31 1 0 0;
#X connect 31 1 62 0;
#X connect 32 0 29 0;
#X connect 33 0 30 0;
#X connect 34 0 32 0;
#X connect 35 0 38 0;
#X connect 37 0 50 0;
#X connect 38 0 37 0;
#X connect 39 0 24 1;
#X connect 39 1 23 1;
#X connect 39 2 37 1;
#X connect 39 3 40 0;
#X connect 40 0 41 0;
#X connect 41 0 42 0;
#X connect 42 0 43 0;
#X connect 42 1 24 0;
#X connect 43 0 9 0;
#X connect 44 0 45 0;
#X connect 45 0 46 0;
#X connect 46 0 0 0;
#X connect 47 0 1 0;
#X connect 47 0 54 0;
#X connect 48 0 47 0;
#X connect 48 1 49 0;
#X connect 49 0 10 0;
#X connect 49 1 25 0;
#X connect 49 2 11 0;
#X connect 50 0 25 0;
#X connect 50 1 0 1;
#X connect 51 0 47 1;
#X connect 51 1 34 1;
#X connect 51 2 33 1;
#X connect 52 0 27 1;
#X connect 52 1 28 1;
#X connect 52 2 43 1;
#X connect 53 0 58 0;
#X connect 54 0 57 0;
#X connect 55 0 56 0;
#X connect 59 0 60 0;
#X connect 61 0 25 0;
#X connect 61 1 0 1;
