#N canvas 76 76 1920 1016 12;
#X obj 102 109 tgl 24 0 empty l1 empty 0 -10 0 12 #00faff #000000 #000000 0 1;
#X obj 132 109 tgl 24 0 empty l2 empty 0 -10 0 12 #00faff #000000 #000000 0 1;
#X obj 161 109 tgl 24 0 empty l3 empty 0 -10 0 12 #00faff #000000 #000000 0 1;
#X obj 191 109 tgl 24 0 empty l4 empty 0 -10 0 12 #00faff #000000 #000000 0 1;
#X obj 220 109 tgl 24 0 empty l5 empty 0 -10 0 12 #00faff #000000 #000000 0 1;
#X obj 250 109 tgl 24 0 empty l6 empty 0 -10 0 12 #00faff #000000 #000000 0 1;
#X obj 279 109 tgl 24 0 empty l7 empty 0 -10 0 12 #00faff #000000 #000000 0 1;
#X obj 309 109 tgl 24 0 empty l8 empty 0 -10 0 12 #00faff #000000 #000000 0 1;
#X obj 339 109 tgl 24 0 empty l9 empty 0 -10 0 12 #00faff #000000 #000000 0 1;
#X obj 369 109 tgl 24 0 empty l10 empty 0 -10 0 12 #00faff #000000 #000000 0 1;
#X obj 120 275 vradio 19 1 1 3 m1 empty empty 0 -10 0 12 #fcfcfc #000000 #000000 0;
#X obj 147 275 vradio 19 1 1 3 m2 empty empty 0 -10 0 12 #fcfcfc #000000 #000000 2;
#X obj 173 275 vradio 19 1 1 3 m3 empty empty 0 -10 0 12 #fcfcfc #000000 #000000 2;
#X obj 200 275 vradio 19 1 1 3 m4 empty empty 0 -10 0 12 #fcfcfc #000000 #000000 2;
#X obj 225 275 vradio 19 1 1 3 m5 empty empty 0 -10 0 12 #fcfcfc #000000 #000000 2;
#X obj 250 275 vradio 19 1 1 3 m6 empty empty 0 -10 0 12 #fcfcfc #000000 #000000 2;
#X obj 276 275 vradio 19 1 1 3 m7 empty empty 0 -10 0 12 #fcfcfc #000000 #000000 2;
#X obj 303 275 vradio 19 1 1 3 m8 empty empty 0 -10 0 12 #fcfcfc #000000 #000000 2;
#X obj 328 275 vradio 19 1 1 3 m9 empty empty 0 -10 0 12 #fcfcfc #000000 #000000 2;
#X obj 355 275 vradio 19 1 1 3 m10 empty empty 0 -10 0 12 #fcfcfc #000000 #000000 2;
#X obj 45 171 hsl 30 30 1 13 0 1 p1 empty Pitch -35 15 1 12 #fcfcfc #000000 #000000 1353 1;
#X obj 45 214 hsl 30 30 0 1 0 1 g1 empty Gain -34 15 1 12 #fcfcfc #000000 #000000 2900 1;
#X obj 89 171 hsl 30 30 1 13 0 1 p2 empty empty -35 15 1 12 #fcfcfc #000000 #000000 2001 1;
#X obj 89 214 hsl 30 30 0 1 0 1 g2 empty empty -34 15 1 12 #fcfcfc #000000 #000000 185 1;
#X obj 133 171 hsl 30 30 1 13 0 1 p3 empty empty -35 15 1 12 #fcfcfc #000000 #000000 2257 1;
#X obj 133 214 hsl 30 30 0 1 0 1 g3 empty empty -34 15 1 12 #fcfcfc #000000 #000000 2658 1;
#X obj 175 171 hsl 30 30 1 13 0 1 p4 empty empty -35 15 1 12 #fcfcfc #000000 #000000 1750 1;
#X obj 175 214 hsl 30 30 0 1 0 1 g4 empty empty -34 15 1 12 #fcfcfc #000000 #000000 2900 1;
#X obj 219 171 hsl 30 30 1 13 0 1 p5 empty empty -35 15 1 12 #fcfcfc #000000 #000000 1650 1;
#X obj 219 214 hsl 30 30 0 1 0 1 g5 empty empty -34 15 1 12 #fcfcfc #000000 #000000 2900 1;
#X obj 262 171 hsl 30 30 1 13 0 1 p6 empty empty -35 15 1 12 #fcfcfc #000000 #000000 1950 1;
#X obj 262 214 hsl 30 30 0 1 0 1 g6 empty empty -34 15 1 12 #fcfcfc #000000 #000000 2900 1;
#X obj 306 171 hsl 30 30 1 13 0 1 p7 empty empty -35 15 1 12 #fcfcfc #000000 #000000 1800 1;
#X obj 306 214 hsl 30 30 0 1 0 1 g7 empty empty -34 15 1 12 #fcfcfc #000000 #000000 2900 1;
#X obj 348 171 hsl 30 30 1 13 0 1 p8 empty empty -35 15 1 12 #fcfcfc #000000 #000000 1550 1;
#X obj 348 214 hsl 30 30 0 1 0 1 g8 empty empty -34 15 1 12 #fcfcfc #000000 #000000 2900 1;
#X obj 392 171 hsl 30 30 1 13 0 1 p9 empty empty -35 15 1 12 #fcfcfc #000000 #000000 1850 1;
#X obj 392 214 hsl 30 30 0 1 0 1 g9 empty empty -34 15 1 12 #fcfcfc #000000 #000000 2900 1;
#X obj 435 171 hsl 30 30 1 13 0 1 p10 empty empty -35 15 1 12 #fcfcfc #000000 #000000 1750 1;
#X obj 435 214 hsl 30 30 0 1 0 1 g10 empty empty -34 15 1 12 #fcfcfc #000000 #000000 2900 1;
#X obj 1270 283 vradio 19 1 0 2 ON OFF empty 0 -10 0 12 #fcfcfc #000000 #000000 0;
#X text 1244 285 OFF;
#X text 1251 302 ON;
#X msg 1027 423 1;
#X msg 1027 375 tempo \$1 permin;
#X obj 1027 400 metro 1 300 permin;
#X obj 1027 445 stages, f 7;
#X msg 1086 445 1;
#X obj 1027 348 r speed;
#X obj 1027 469 s OFF;
#X obj 991 375 r ON;
#X obj 1053 138 hsl 100 25 0 1 0 1 hpf empty HPF -2 -10 0 12 #fcfcfc #000000 #000000 965 1;
#X obj 1053 240 hsl 100 25 0 1 0 1 lpf empty LPF -2 -10 0 12 #fcfcfc #000000 #000000 9309 1;
#X obj 1051 187 hsl 100 25 0 1 0 1 gain empty Gain -2 -10 0 12 #fcfcfc #000000 #000000 1878 1;
#X obj 1055 289 hsl 100 25 0 1 0 1 sq empty SQ -2 -10 0 12 #fcfcfc #000000 #000000 6330 1;
#X obj 1177 136 hsl 100 25 0 1 0 1 high empty BPH -2 -10 0 12 #fcfcfc #000000 #000000 9900 1;
#X obj 1177 186 hsl 100 25 0 1 0 1 low empty BPL -2 -10 0 12 #fcfcfc #000000 #000000 900 1;
#X obj 1177 239 hsl 100 25 12 1200 0 1 speed empty Speed -2 -10 0 12 #fcfcfc #000000 #000000 4481 1;
#X obj 1298 184 hsl 100 25 0 1 0 1 grov empty Tune -2 -10 0 12 #fcfcfc #000000 #000000 665 1;
#X obj 1300 238 hsl 100 25 0 10 0 1 vib empty Vibrato\ speed -2 -10 0 12 #fcfcfc #000000 #000000 9900 1;
#X obj 1297 136 hsl 100 25 0 135 0 1 mod empty Modulation\ speed -2 -10 0 12 #fcfcfc #000000 #000000 0 1;
#X obj 514 132 tgl 15 1 1a - HPF -25 8 1 8 #fcfcfc #000000 #000000 0 1;
#X obj 529 132 tgl 15 1 2a - empty 17 7 0 10 #fcfcfc #000000 #000000 0 1;
#X obj 544 132 tgl 15 1 3a - empty 17 7 0 10 #fcfcfc #000000 #000000 0 1;
#X obj 559 132 tgl 15 1 4a - empty 17 7 0 10 #fcfcfc #000000 #000000 0 1;
#X obj 514 147 tgl 15 1 1b - Direct -25 8 1 8 #fcfcfc #000000 #000000 0 1;
#X obj 529 147 tgl 15 0 2b - empty 17 7 0 10 #fcfcfc #000000 #000000 0 1;
#X obj 544 147 tgl 15 1 3b - empty 17 7 0 10 #fcfcfc #000000 #000000 0 1;
#X obj 559 147 tgl 15 1 4b - empty 17 7 0 10 #fcfcfc #000000 #000000 0 1;
#X obj 514 162 tgl 15 1 1c - LPF -25 8 1 8 #fcfcfc #000000 #000000 0 1;
#X obj 529 162 tgl 15 1 2c - empty 17 7 0 10 #fcfcfc #000000 #000000 0 1;
#X obj 544 162 tgl 15 1 3c - empty 17 7 0 10 #fcfcfc #000000 #000000 0 1;
#X obj 559 162 tgl 15 1 4c - empty 17 7 0 10 #fcfcfc #000000 #000000 0 1;
#X obj 514 177 tgl 15 1 1d - SQ -25 8 1 8 #fcfcfc #000000 #000000 0 1;
#X obj 529 177 tgl 15 1 2d - empty 17 7 0 10 #fcfcfc #000000 #000000 0 1;
#X obj 544 177 tgl 15 1 3d - empty 17 7 0 10 #fcfcfc #000000 #000000 0 1;
#X obj 559 177 tgl 15 1 4d - empty 17 7 0 10 #fcfcfc #000000 #000000 0 1;
#X text 518 115 1;
#X text 534 115 2;
#X text 563 115 4;
#X text 549 115 3;
#X obj 514 192 tgl 15 1 1e - BPF\ 1 -25 8 1 8 #fcfcfc #000000 #000000 0 1;
#X obj 529 192 tgl 15 1 2e - empty 17 7 0 10 #fcfcfc #000000 #000000 0 1;
#X obj 544 192 tgl 15 1 3e - empty 17 7 0 10 #fcfcfc #000000 #000000 0 1;
#X obj 559 192 tgl 15 1 4e - empty 17 7 0 10 #fcfcfc #000000 #000000 0 1;
#X obj 514 207 tgl 15 1 1f - BPF\ 2 -25 8 1 8 #fcfcfc #000000 #000000 0 1;
#X obj 529 207 tgl 15 0 2f - empty 17 7 0 10 #fcfcfc #000000 #000000 0 1;
#X obj 544 207 tgl 15 1 3f - empty 17 7 0 10 #fcfcfc #000000 #000000 0 1;
#X obj 559 207 tgl 15 1 4f - empty 17 7 0 10 #fcfcfc #000000 #000000 0 1;
#X obj 514 222 tgl 15 1 1g - BPF\ 3 -25 8 1 8 #fcfcfc #000000 #000000 0 1;
#X obj 529 222 tgl 15 1 2g - empty 17 7 0 10 #fcfcfc #000000 #000000 0 1;
#X obj 544 222 tgl 15 1 3g - empty 17 7 0 10 #fcfcfc #000000 #000000 0 1;
#X obj 559 222 tgl 15 1 4g - empty 17 7 0 10 #fcfcfc #000000 #000000 0 1;
#X obj 514 237 tgl 15 1 1h - BPF\ 4 -25 8 1 8 #fcfcfc #000000 #000000 0 1;
#X obj 529 237 tgl 15 1 2h - empty 17 7 0 10 #fcfcfc #000000 #000000 0 1;
#X obj 544 237 tgl 15 1 3h - empty 17 7 0 10 #fcfcfc #000000 #000000 0 1;
#X obj 559 237 tgl 15 1 4h - empty 17 7 0 10 #fcfcfc #000000 #000000 0 1;
#X obj 574 132 tgl 15 1 5a - empty -25 8 0 8 #fcfcfc #000000 #fc2828 0 1;
#X obj 589 132 tgl 15 1 6a - 6 0 -10 0 10 #fcfcfc #000000 #000000 0 1;
#X obj 604 132 tgl 15 1 7a - 7 5 -10 0 10 #fcfcfc #000000 #000000 0 1;
#X obj 619 132 tgl 15 1 8a - empty 17 7 0 10 #fcfcfc #000000 #000000 0 1;
#X obj 574 147 tgl 15 1 5b - empty -25 8 0 8 #fcfcfc #000000 #fc2828 0 1;
#X obj 589 147 tgl 15 0 6b - empty 17 7 0 10 #fcfcfc #000000 #000000 0 1;
#X obj 604 147 tgl 15 1 7b - empty 17 7 0 10 #fcfcfc #000000 #000000 0 1;
#X obj 619 147 tgl 15 1 8b - empty 17 7 0 10 #fcfcfc #000000 #000000 0 1;
#X obj 574 162 tgl 15 1 5c - empty -25 8 0 8 #fcfcfc #000000 #fc2828 0 1;
#X obj 589 162 tgl 15 1 6c - empty 17 7 0 10 #fcfcfc #000000 #000000 0 1;
#X obj 604 162 tgl 15 1 7c - empty 17 7 0 10 #fcfcfc #000000 #000000 0 1;
#X obj 619 162 tgl 15 1 8c - empty 17 7 0 10 #fcfcfc #000000 #000000 0 1;
#X obj 574 177 tgl 15 1 5d - empty -25 8 0 8 #fcfcfc #000000 #fc2828 0 1;
#X obj 589 177 tgl 15 1 6d - empty 17 7 0 10 #fcfcfc #000000 #000000 0 1;
#X obj 604 177 tgl 15 1 7d - empty 17 7 0 10 #fcfcfc #000000 #000000 0 1;
#X obj 619 177 tgl 15 1 8d - empty 17 7 0 10 #fcfcfc #000000 #000000 0 1;
#X obj 574 192 tgl 15 1 5e - empty -25 8 0 8 #fcfcfc #000000 #fc2828 0 1;
#X obj 589 192 tgl 15 1 6e - empty 17 7 0 10 #fcfcfc #000000 #000000 0 1;
#X obj 604 192 tgl 15 1 7e - empty 17 7 0 10 #fcfcfc #000000 #000000 0 1;
#X obj 619 192 tgl 15 1 8e - empty 17 7 0 10 #fcfcfc #000000 #000000 0 1;
#X obj 574 207 tgl 15 1 5f - empty -25 8 0 8 #fcfcfc #000000 #fc2828 0 1;
#X obj 589 207 tgl 15 0 6f - empty 17 7 0 10 #fcfcfc #000000 #000000 0 1;
#X obj 604 207 tgl 15 1 7f - empty 17 7 0 10 #fcfcfc #000000 #000000 0 1;
#X obj 619 207 tgl 15 1 8f - empty 17 7 0 10 #fcfcfc #000000 #000000 0 1;
#X obj 574 222 tgl 15 1 5g - empty -25 8 0 8 #fcfcfc #000000 #fc2828 0 1;
#X obj 589 222 tgl 15 1 6g - empty 17 7 0 10 #fcfcfc #000000 #000000 0 1;
#X obj 604 222 tgl 15 1 7g - empty 17 7 0 10 #fcfcfc #000000 #000000 0 1;
#X obj 619 222 tgl 15 1 8g - empty 17 7 0 10 #fcfcfc #000000 #000000 0 1;
#X obj 574 237 tgl 15 1 5h - empty -25 8 0 8 #fcfcfc #000000 #fc2828 0 1;
#X obj 589 237 tgl 15 1 6h - empty 17 7 0 10 #fcfcfc #000000 #000000 0 1;
#X obj 604 237 tgl 15 1 7h - empty 17 7 0 10 #fcfcfc #000000 #000000 0 1;
#X obj 619 237 tgl 15 1 8h - empty 17 7 0 10 #fcfcfc #000000 #000000 0 1;
#X obj 634 132 tgl 15 1 9a - empty 17 7 0 10 #fcfcfc #000000 #000000 0 1;
#X obj 649 132 tgl 15 1 10a - empty 17 7 0 10 #fcfcfc #000000 #000000 0 1;
#X obj 634 147 tgl 15 1 9b - empty 17 7 0 10 #fcfcfc #000000 #000000 0 1;
#X obj 649 147 tgl 15 1 10b - empty 17 7 0 10 #fcfcfc #000000 #000000 0 1;
#X obj 634 162 tgl 15 1 9c - empty 17 7 0 10 #fcfcfc #000000 #000000 0 1;
#X obj 649 162 tgl 15 1 10c - empty 17 7 0 10 #fcfcfc #000000 #000000 0 1;
#X obj 634 177 tgl 15 1 9d - empty 17 7 0 10 #fcfcfc #000000 #000000 0 1;
#X obj 649 177 tgl 15 1 10d - empty 17 7 0 10 #fcfcfc #000000 #000000 0 1;
#X obj 634 192 tgl 15 1 9e - empty 17 7 0 10 #fcfcfc #000000 #000000 0 1;
#X obj 649 192 tgl 15 1 10e - empty 17 7 0 10 #fcfcfc #000000 #000000 0 1;
#X obj 634 207 tgl 15 1 9f - empty 17 7 0 10 #fcfcfc #000000 #000000 0 1;
#X obj 649 207 tgl 15 1 10f - empty 17 7 0 10 #fcfcfc #000000 #000000 0 1;
#X obj 634 222 tgl 15 1 9g - empty 17 7 0 10 #fcfcfc #000000 #000000 0 1;
#X obj 649 222 tgl 15 1 10g - empty 17 7 0 10 #fcfcfc #000000 #000000 0 1;
#X obj 634 237 tgl 15 1 9h - empty 17 7 0 10 #fcfcfc #000000 #000000 0 1;
#X obj 649 237 tgl 15 1 10h - empty 17 7 0 10 #fcfcfc #000000 #000000 0 1;
#X text 578 115 5;
#X text 594 115 6;
#X text 609 115 7;
#X text 623 115 8;
#X text 639 115 9;
#X text 648 115 10;
#X msg 683 243 \; - 1;
#X msg 684 281 \; - 0;
#X obj 514 252 tgl 15 1 1i - Mod -25 8 1 8 #fcfcfc #000000 #000000 0 1;
#X obj 529 252 tgl 15 1 2i - empty 17 7 0 10 #fcfcfc #000000 #000000 0 1;
#X obj 544 252 tgl 15 1 3i - empty 17 7 0 10 #fcfcfc #000000 #000000 0 1;
#X obj 559 252 tgl 15 1 4i - empty 17 7 0 10 #fcfcfc #000000 #000000 0 1;
#X obj 514 267 tgl 15 1 1j - Vib -25 8 1 8 #fcfcfc #000000 #000000 0 1;
#X obj 529 267 tgl 15 1 2j - empty 17 7 0 10 #fcfcfc #000000 #000000 0 1;
#X obj 544 267 tgl 15 1 3j - empty 17 7 0 10 #fcfcfc #000000 #000000 0 1;
#X obj 559 267 tgl 15 1 4j - empty 17 7 0 10 #fcfcfc #000000 #000000 0 1;
#X obj 574 252 tgl 15 1 5i - empty -25 8 0 8 #fcfcfc #000000 #fc2828 0 1;
#X obj 589 252 tgl 15 1 6i - empty 17 7 0 10 #fcfcfc #000000 #000000 0 1;
#X obj 604 252 tgl 15 1 7i - empty 17 7 0 10 #fcfcfc #000000 #000000 0 1;
#X obj 619 252 tgl 15 1 8i - empty 17 7 0 10 #fcfcfc #000000 #000000 0 1;
#X obj 574 267 tgl 15 1 5j - empty -25 8 0 8 #fcfcfc #000000 #fc2828 0 1;
#X obj 589 267 tgl 15 1 6j - empty 17 7 0 10 #fcfcfc #000000 #000000 0 1;
#X obj 604 267 tgl 15 1 7j - empty 17 7 0 10 #fcfcfc #000000 #000000 0 1;
#X obj 619 267 tgl 15 1 8j - empty 17 7 0 10 #fcfcfc #000000 #000000 0 1;
#X obj 634 252 tgl 15 1 9i - empty 17 7 0 10 #fcfcfc #000000 #000000 0 1;
#X obj 649 252 tgl 15 1 10i - empty 17 7 0 10 #fcfcfc #000000 #000000 0 1;
#X obj 634 267 tgl 15 1 9j - empty 17 7 0 10 #fcfcfc #000000 #000000 0 1;
#X obj 649 267 tgl 15 1 10j - empty 17 7 0 10 #fcfcfc #000000 #000000 0 1;
#N canvas 0 50 450 250 (subpatch) 0;
#X array matrix\$0 100 float 1;
#A 0 0.120472 0.121864 0.123324 0.124841 0.126403 0.128004 0.129636 0.131292 0.132966 0.134649 0.136336 0.13802 0.139695 0.141354 0.142994 0.144608 0.146192 0.0395089 0.0353001 0.0319477 0.0370493 0.0431384 0.0460886 0.0460581 0.0448658 0.0438693 0.043396 0.0431575 0.042803 0.0421807 0.0413198 0.0403097 0.0392134 0.0380493 0.0368118 0.0354943 0.0340994 0.0326369 0.0311186 0.0295547 0.0279533 0.0263215 0.0246659 0.0229937 0.0213117 0.0196268 0.0179455 0.0162736 0.0146171 0.0129813 0.0113712 0.00979173 0.00824728 0.114974 0.11923 0.122634 0.117587 0.111555 0.108665 0.108758 0.110015 0.111077 0.111618 0.111925 0.112349 0.11304 0.113971 0.11505 0.116216 0.117448 0.118753 0.120137 0.121597 0.123124 0.124704 0.126329 0.127989 0.129677 0.131387 0.133111 0.134843 0.136575 0.138302 0.140016 0.141712 0.143385 0.145029 0.146641 0.0399829 0.0357959 0.0324625 0.0375804 0.0436831 0.0466442 0.0466221 0.0454358 0.0444429 0.0439708 0.0437315 0.043374;
#X coords 0 1 99 -1 200 140 1;
#X restore 741 351 graph;
#X obj 1115 41 steps;
#X obj 998 36 tgl 19 0 empty empty empty 0 -10 0 12 #fcfcfc #000000 #000000 0 1;
#X obj 998 60 metro 100;
#X obj 998 84 tabwrite~ matrix\$0;
#X obj 734 168 freqscope;
#X text 1111 327 modulation speed o vibrato kanske bör ändras till gain för det filtret....kanske inte nåt som går att kontrollera för tune kolla vad som blir rimligast \, att den sköter oktaven?;
#X obj 827 145 dac~;
#X obj 939 139 limiter;
#X obj 849 115 compressor;
#X obj 952 285 output~;
#X obj 6 5 receive fromGUI;
#X obj 6 31 list trim;
#X obj 2049 55 receive fromGUI;
#X obj 2295 163 list trim;
#X obj 2137 189 route /myGrid;
#X listbox 2137 213 20 0 0 0 - - - 0;
#X floatatom 2137 236 5 0 0 0 - - - 0;
#X obj 2198 241 list split 2;
#X listbox 2199 266 20 0 0 0 - - - 0;
#X floatatom 2256 296 5 0 0 0 - - - 0;
#X floatatom 2104 287 5 0 0 0 - - - 0;
#X floatatom 2145 288 5 0 0 0 - - - 0;
#X obj 2104 263 list split 1;
#X obj 2073 413 sel 0 1 2 3 4 5 6 7 8 9;
#X obj 2060 433 bng 19 250 50 0 empty empty empty 0 -10 0 12 #fcfcfc #000000 #000000;
#X obj 2130 442 bng 19 250 50 0 empty empty empty 0 -10 0 12 #fcfcfc #000000 #000000;
#X obj 2258 393 f;
#X obj 2253 331 f;
#X obj 2182 316 f;
#X obj 1601 341 checky1;
#X obj 1658 50 receive fromGUI;
#X obj 1658 76 list trim;
#X obj 1658 102 route /myGrid;
#X obj 1658 126 unpack f f f;
#X obj 1601 275 sel 0 1 2 3 4 5 6 7 8 9;
#X obj 1601 312 f;
#X obj 1648 312 f;
#X obj 1700 166 t f f f f f f f f f f;
#X obj 1759 214 f;
#X obj 1685 312 f;
#X obj 1819 215 f;
#X obj 1789 214 f;
#X obj 1875 213 f;
#X obj 1847 214 f;
#X obj 1941 215 f;
#X obj 1909 214 f;
#X obj 1659 342 checky2;
#X obj 1718 343 checky2;
#X obj 1739 245 t f f f f f f f f f f;
#X obj 87 66 cm;
#X obj 125 67 cm;
#X obj 162 66 cm;
#X obj 87 28 route /mode1 /mode2 /mode3 /mode4 /mode5 /mode6 /mode7 /mode8 /mode9 /modeq0;
#X obj 199 66 cm;
#X obj 237 66 cm;
#X obj 274 66 cm;
#X obj 312 67 cm;
#X obj 349 67 cm;
#X obj 387 67 cm;
#X obj 424 67 cm;
#X obj 6 55 s listgui;
#X obj 11 337 r listgui;
#X obj 351 427 r listgui;
#X obj 351 452 route /gain1 /gain2 /gain3 /gain4 /gain5 /gain6 /gain7 /gain8 /gain9 /gain10;
#X obj 11 360 route /pitch1 /pitch2 /pitch3 /pitch4 /pitch5 /pitch6 /pitch7 /pitch8 /pitch9 /pitch10;
#X obj 11 398 pc;
#X obj 48 398 pc;
#X obj 85 398 pc;
#X obj 121 398 pc;
#X obj 158 398 pc;
#X obj 195 398 pc;
#X obj 232 398 pc;
#X obj 268 398 pc;
#X obj 305 398 pc;
#X obj 342 398 pc;
#X obj 480 67 send toGUI;
#X msg 475 26 list /tgl1 \$1;
#X obj 475 2 r l1;
#X obj 578 2 r l2;
#X msg 578 26 list /tgl2 \$1;
#X obj 683 3 r l3;
#X msg 683 27 list /tgl3 \$1;
#X obj 786 3 r l4;
#X msg 786 27 list /tgl4 \$1;
#X obj 568 52 r l5;
#X msg 568 76 list /tgl5 \$1;
#X obj 671 52 r l6;
#X msg 671 76 list /tgl6 \$1;
#X obj 776 53 r l7;
#X msg 776 77 list /tgl7 \$1;
#X obj 879 53 r l8;
#X msg 879 77 list /tgl8 \$1;
#X obj 683 105 r l9;
#X msg 683 129 list /tgl9 \$1;
#X obj 893 1 r l10;
#X msg 893 25 list /tgl10 \$1;
#X obj 1218 16 r listgui;
#X obj 1218 40 route /hpf /lpf /bph /bpl /tune /gain /speed /sq /mod /vib /pwr;
#X obj 1539 81 * 10;
#X obj 1493 82 * 135;
#X obj 1474 197 tgl 19 0 empty empty empty 0 -10 0 12 #fcfcfc #000000 #000000 0 1;
#X obj 1427 235 r OFF;
#X msg 1427 259 list /pwr \$1;
#X obj 1427 283 send toGUI;
#X obj 1444 138 expr (12 + (1188 * $f1));
#X text 486 303 INTE KLAR MED CHECKY!!!!!;
#X text 409 333 o varför funkar inte mmp??? orkar ej;
#X connect 43 0 46 0;
#X connect 44 0 45 0;
#X connect 45 0 43 0;
#X connect 46 0 49 0;
#X connect 46 1 47 0;
#X connect 47 0 46 1;
#X connect 48 0 44 0;
#X connect 50 0 45 0;
#X connect 174 0 177 0;
#X connect 174 0 178 0;
#X connect 174 0 180 0;
#X connect 174 0 180 1;
#X connect 175 0 176 0;
#X connect 176 0 177 0;
#X connect 181 0 182 0;
#X connect 181 0 183 0;
#X connect 181 0 178 0;
#X connect 181 0 177 0;
#X connect 184 0 185 0;
#X connect 185 0 226 0;
#X connect 185 0 234 0;
#X connect 186 0 187 0;
#X connect 187 0 188 0;
#X connect 188 0 189 0;
#X connect 189 0 190 0;
#X connect 189 0 191 0;
#X connect 191 0 192 0;
#X connect 191 1 193 0;
#X connect 191 1 201 1;
#X connect 192 0 196 0;
#X connect 194 0 197 0;
#X connect 196 0 194 0;
#X connect 196 1 195 0;
#X connect 196 1 200 1;
#X connect 196 1 202 1;
#X connect 197 1 198 0;
#X connect 197 2 199 0;
#X connect 199 0 202 0;
#X connect 204 0 205 0;
#X connect 205 0 206 0;
#X connect 206 0 207 0;
#X connect 207 0 208 0;
#X connect 207 1 211 0;
#X connect 207 2 222 0;
#X connect 208 0 209 0;
#X connect 208 1 210 0;
#X connect 208 2 213 0;
#X connect 209 0 203 0;
#X connect 210 0 220 0;
#X connect 211 0 209 1;
#X connect 211 1 210 1;
#X connect 211 2 213 1;
#X connect 211 3 212 1;
#X connect 211 4 215 1;
#X connect 211 5 214 1;
#X connect 211 6 217 1;
#X connect 211 7 216 1;
#X connect 211 8 219 1;
#X connect 211 9 218 1;
#X connect 213 0 221 0;
#X connect 222 0 203 1;
#X connect 222 1 220 1;
#X connect 222 2 221 1;
#X connect 223 0 10 0;
#X connect 224 0 11 0;
#X connect 225 0 12 0;
#X connect 226 0 223 0;
#X connect 226 1 224 0;
#X connect 226 2 225 0;
#X connect 226 3 227 0;
#X connect 226 4 228 0;
#X connect 226 5 229 0;
#X connect 226 6 230 0;
#X connect 226 7 231 0;
#X connect 226 8 232 0;
#X connect 226 9 233 0;
#X connect 227 0 13 0;
#X connect 228 0 14 0;
#X connect 229 0 15 0;
#X connect 230 0 16 0;
#X connect 231 0 17 0;
#X connect 232 0 18 0;
#X connect 233 0 19 0;
#X connect 235 0 238 0;
#X connect 236 0 237 0;
#X connect 237 0 21 0;
#X connect 237 1 23 0;
#X connect 237 2 25 0;
#X connect 237 3 27 0;
#X connect 237 4 29 0;
#X connect 237 5 31 0;
#X connect 237 6 33 0;
#X connect 237 7 35 0;
#X connect 237 8 37 0;
#X connect 237 9 39 0;
#X connect 238 0 239 0;
#X connect 238 1 240 0;
#X connect 238 2 241 0;
#X connect 238 3 242 0;
#X connect 238 4 243 0;
#X connect 238 5 244 0;
#X connect 238 6 245 0;
#X connect 238 7 246 0;
#X connect 238 8 247 0;
#X connect 238 9 248 0;
#X connect 239 0 20 0;
#X connect 240 0 22 0;
#X connect 241 0 24 0;
#X connect 242 0 26 0;
#X connect 243 0 28 0;
#X connect 244 0 30 0;
#X connect 245 0 32 0;
#X connect 246 0 34 0;
#X connect 247 0 36 0;
#X connect 248 0 38 0;
#X connect 250 0 249 0;
#X connect 251 0 250 0;
#X connect 252 0 253 0;
#X connect 253 0 249 0;
#X connect 254 0 255 0;
#X connect 255 0 249 0;
#X connect 256 0 257 0;
#X connect 257 0 249 0;
#X connect 258 0 259 0;
#X connect 259 0 249 0;
#X connect 260 0 261 0;
#X connect 261 0 249 0;
#X connect 262 0 263 0;
#X connect 263 0 249 0;
#X connect 264 0 265 0;
#X connect 265 0 249 0;
#X connect 266 0 267 0;
#X connect 267 0 249 0;
#X connect 268 0 269 0;
#X connect 269 0 249 0;
#X connect 270 0 271 0;
#X connect 271 0 51 0;
#X connect 271 1 52 0;
#X connect 271 2 55 0;
#X connect 271 3 56 0;
#X connect 271 4 58 0;
#X connect 271 5 53 0;
#X connect 271 6 278 0;
#X connect 271 7 54 0;
#X connect 271 8 273 0;
#X connect 271 9 272 0;
#X connect 271 10 40 0;
#X connect 271 10 274 0;
#X connect 272 0 59 0;
#X connect 273 0 60 0;
#X connect 275 0 276 0;
#X connect 276 0 277 0;
#X connect 278 0 57 0;
