#N canvas 228 228 1920 1016 12;
#X listbox 198 50 20 0 0 0 - - - 0;
#X floatatom 198 73 5 0 0 0 - - - 0;
#X obj 259 78 list split 2;
#X listbox 260 103 20 0 0 0 - - - 0;
#X floatatom 317 133 5 0 0 0 - - - 0;
#X floatatom 165 124 5 0 0 0 - - - 0;
#X floatatom 206 125 5 0 0 0 - - - 0;
#X obj 165 100 list split 1;
#X obj 26 173 sel 0 1 2 3 4 5 6 7 8 9;
#X obj -49 290 sel 0 1 2 3 4 5 6 7 8 9;
#X obj 26 197 bng 19 250 50 0 empty empty empty 0 -10 0 12 #fcfcfc #000000 #000000;
#X obj 54 198 bng 19 250 50 0 empty empty empty 0 -10 0 12 #fcfcfc #000000 #000000;
#X obj 83 202 bng 19 250 50 0 empty empty empty 0 -10 0 12 #fcfcfc #000000 #000000;
#X obj 69 77 bng 19 250 50 0 empty empty empty 0 -10 0 12 #fcfcfc #000000 #000000;
#X obj 145 293 sel 0 1 2 3 4 5 6 7 8 9;
#X obj 211 153 f;
#X obj 314 168 f;
#X obj 243 153 f;
#X obj 1 339 bng 19 250 50 0 empty empty empty 0 -10 0 12 #fcfcfc #000000 #000000;
#X obj 30 343 bng 19 250 50 0 empty empty empty 0 -10 0 12 #fcfcfc #000000 #000000;
#X obj 146 341 bng 19 250 50 0 empty empty empty 0 -10 0 12 #fcfcfc #000000 #000000;
#X obj 174 342 bng 19 250 50 0 empty empty empty 0 -10 0 12 #fcfcfc #000000 #000000;
#X obj 203 346 bng 19 250 50 0 empty empty empty 0 -10 0 12 #fcfcfc #000000 #000000;
#X obj 233 347 bng 19 250 50 0 empty empty empty 0 -10 0 12 #fcfcfc #000000 #000000;
#X obj 55 342 bng 19 250 50 0 empty empty empty 0 -10 0 12 #fcfcfc #000000 #000000;
#X msg 196 18 4 5 1;
#X listbox 444 61 20 0 0 0 - - - 0;
#X msg 442 29 4 5 1;
#X floatatom 526 111 5 0 0 0 - - - 0;
#X floatatom 443 109 5 0 0 0 - - - 0;
#X floatatom 484 110 5 0 0 0 - - - 0;
#X obj 444 85 unpack f f f;
#X obj 443 145 sel 0 1 2 3 4 5 6 7 8 9;
#X connect 0 0 1 0;
#X connect 0 0 2 0;
#X connect 2 0 3 0;
#X connect 2 1 4 0;
#X connect 2 1 16 1;
#X connect 3 0 7 0;
#X connect 5 0 8 0;
#X connect 7 0 5 0;
#X connect 7 1 6 0;
#X connect 7 1 15 1;
#X connect 7 1 17 1;
#X connect 8 0 10 0;
#X connect 8 1 11 0;
#X connect 8 2 12 0;
#X connect 9 1 18 0;
#X connect 9 2 19 0;
#X connect 9 3 24 0;
#X connect 10 0 15 0;
#X connect 12 0 17 0;
#X connect 13 0 5 0;
#X connect 14 0 20 0;
#X connect 14 1 21 0;
#X connect 14 2 22 0;
#X connect 14 3 23 0;
#X connect 15 0 9 0;
#X connect 17 0 14 0;
#X connect 23 0 16 0;
#X connect 25 0 0 0;
#X connect 26 0 31 0;
#X connect 27 0 26 0;
#X connect 29 0 32 0;
#X connect 31 0 29 0;
#X connect 31 1 30 0;
#X connect 31 2 28 0;
