#N canvas 726 261 1920 1026 12;
#X obj 65 52 r m1;
#X obj 100 52 r m2;
#X obj 135 52 r m3;
#X obj 170 52 r m4;
#X obj 205 52 r m5;
#X obj 240 52 r m6;
#X obj 275 52 r m7;
#X obj 310 52 r m8;
#X obj 345 52 r m9;
#X obj 380 52 r m10;
#X obj 57 100 s l1;
#X obj 92 100 s l2;
#X obj 127 100 s l3;
#X obj 162 100 s l4;
#X obj 197 100 s l5;
#X obj 232 100 s l6;
#X obj 267 100 s l7;
#X obj 302 100 s l8;
#X obj 337 100 s l9;
#X obj 372 100 s l10;
#X obj 101 75 mode, f 7;
#X obj 159 75 mode, f 7;
#X obj 218 75 mode, f 7;
#X obj 42 75 mode1, f 7;
#X obj 569 75 mode10, f 8;
#X obj 276 75 mode, f 7;
#X obj 334 75 mode, f 7;
#X obj 393 75 mode, f 7;
#X obj 451 75 mode, f 7;
#X obj 510 75 mode, f 7;
#X obj 10 27 inlet;
#X obj 10 51 t b f;
#X obj 42 127 t f f f f f f f f f f;
#X text 12 7 CLK;
#X connect 0 0 23 2;
#X connect 1 0 20 2;
#X connect 2 0 21 2;
#X connect 3 0 22 2;
#X connect 4 0 25 2;
#X connect 5 0 26 2;
#X connect 6 0 27 2;
#X connect 7 0 28 2;
#X connect 8 0 29 2;
#X connect 9 0 24 2;
#X connect 20 0 23 4;
#X connect 20 1 11 0;
#X connect 20 2 21 0;
#X connect 20 3 21 1;
#X connect 21 0 20 4;
#X connect 21 1 12 0;
#X connect 21 2 22 0;
#X connect 21 3 22 1;
#X connect 22 0 21 4;
#X connect 22 1 13 0;
#X connect 22 2 25 0;
#X connect 22 3 25 1;
#X connect 23 0 32 0;
#X connect 23 1 10 0;
#X connect 23 2 20 0;
#X connect 23 3 20 1;
#X connect 24 0 29 4;
#X connect 24 1 19 0;
#X connect 25 0 22 4;
#X connect 25 1 14 0;
#X connect 25 2 26 0;
#X connect 25 3 26 1;
#X connect 26 0 25 4;
#X connect 26 1 15 0;
#X connect 26 2 27 0;
#X connect 26 3 27 1;
#X connect 27 0 26 4;
#X connect 27 1 16 0;
#X connect 27 2 28 0;
#X connect 27 3 28 1;
#X connect 28 0 27 4;
#X connect 28 1 17 0;
#X connect 28 2 29 0;
#X connect 28 3 29 1;
#X connect 29 0 28 4;
#X connect 29 1 18 0;
#X connect 29 2 24 0;
#X connect 29 3 24 1;
#X connect 30 0 31 0;
#X connect 31 0 23 1;
#X connect 31 1 23 0;
#X connect 32 0 24 3;
#X connect 32 1 29 3;
#X connect 32 2 28 3;
#X connect 32 3 27 3;
#X connect 32 4 26 3;
#X connect 32 5 25 3;
#X connect 32 6 22 3;
#X connect 32 7 21 3;
#X connect 32 8 20 3;
#X connect 32 9 23 3;
