#N canvas 38 38 1920 1016 12;
#X obj 150 189 &&;
#X obj 258 325 NOR;
#X obj 258 359 f;
#X obj 341 324 NOR;
#X obj 341 358 f;
#X obj 43 53 inlet J;
#X obj 282 31 inlet clk;
#X obj 482 39 inlet K;
#X obj 141 133 t b f;
#X obj 152 279 &&;
#X obj 260 445 s invQ;
#X obj 180 228 t b f;
#X obj 146 326 f;
#X obj 448 183 &&;
#X obj 442 126 t b f;
#X obj 450 273 &&;
#X obj 478 222 t b f;
#X obj 444 320 f;
#X obj 341 443 s Q;
#X obj 204 183 r invQ;
#X obj 502 177 r Q;
#X obj 55 138 tgl 19 0 empty empty empty 0 -10 0 12 #fcfcfc #000000 #000000 0 1;
#X obj 244 24 tgl 19 0 empty empty empty 0 -10 0 12 #fcfcfc #000000 #000000 0 1;
#X obj 506 69 tgl 19 0 empty empty empty 0 -10 0 12 #fcfcfc #000000 #000000 0 1;
#X obj 652 232 r invQ;
#X floatatom 652 256 5 0 0 0 - - - 0;
#X floatatom 720 255 5 0 0 0 - - - 0;
#X obj 720 231 r Q;
#X connect 0 0 9 0;
#X connect 1 0 2 0;
#X connect 2 0 3 0;
#X connect 2 0 10 0;
#X connect 3 0 4 0;
#X connect 4 0 1 1;
#X connect 4 0 18 0;
#X connect 5 0 0 0;
#X connect 6 0 8 0;
#X connect 6 0 13 0;
#X connect 7 0 14 0;
#X connect 8 0 0 0;
#X connect 8 1 0 1;
#X connect 9 0 12 0;
#X connect 11 0 9 0;
#X connect 11 1 9 1;
#X connect 12 0 1 0;
#X connect 13 0 15 0;
#X connect 14 0 13 0;
#X connect 14 1 13 1;
#X connect 15 0 17 0;
#X connect 16 0 15 0;
#X connect 16 1 15 1;
#X connect 17 0 3 1;
#X connect 19 0 11 0;
#X connect 20 0 16 0;
#X connect 21 0 0 0;
#X connect 22 0 8 0;
#X connect 22 0 13 0;
#X connect 23 0 14 0;
#X connect 24 0 25 0;
#X connect 27 0 26 0;
