#N canvas -10 -15 1920 1016 12;
#X obj 122 132 != 1;
#X text 182 138 invert;
#X obj 292 391 outlet oscgate;
#X obj 94 186 != 1;
#X msg 28 78 1;
#X msg 77 78 0;
#X floatatom 150 160 5 0 0 0 - - - 0;
#X floatatom 94 210 5 0 0 0 - - - 0;
#X msg 775 35 1;
#X msg 827 35 0;
#X text 778 59 C/S;
#X obj 653 31 inlet S;
#X obj 535 32 inlet RS;
#X obj 425 31 inlet DF;
#X obj 332 30 inlet DB;
#X text 838 59 B;
#X obj 425 390 outlet DB;
#X obj 524 389 outlet DF;
#X obj 621 390 outlet RS;
#X obj 723 392 outlet S;
#X obj 187 288 moses;
#X obj 64 309 route;
#X obj 422 97 f;
#X obj 425 64 != 1;
#X obj 422 121 != 1;
#X obj 198 391 outlet lamp;
#X obj 99 387 outlet timer;
#X connect 0 0 3 0;
#X connect 0 0 6 0;
#X connect 3 0 7 0;
#X connect 4 0 0 0;
#X connect 5 0 0 0;
#X connect 13 0 23 0;
#X connect 22 0 24 0;
#X connect 23 0 2 0;
#X connect 23 0 22 0;
#X connect 24 0 25 0;
#X connect 24 0 26 0;
