#N canvas 801 198 1920 1016 12;
#X obj 41 30 inlet a;
#X obj 142 29 inlet b;
#X obj 103 154 ||;
#X floatatom 103 178 5 0 0 0 - - - 0;
#X text 149 154 OR;
#X obj 102 206 != 1;
#X text 146 192 NOR;
#X floatatom 102 230 5 0 0 0 - - - 0;
#X obj 102 94 t b f;
#X obj 91 297 outlet T;
#X connect 0 0 2 0;
#X connect 1 0 8 0;
#X connect 2 0 3 0;
#X connect 3 0 5 0;
#X connect 5 0 7 0;
#X connect 7 0 9 0;
#X connect 8 0 2 0;
#X connect 8 1 2 1;
