#N canvas 589 58 1218 789 12;
#X obj 229 247 SRflip;
#X msg 104 83 1;
#X msg 149 83 0;
#X obj 197 8 tgl 19 0 empty empty empty 0 -10 0 12 #fcfcfc #000000 #000000 0 1;
#X obj 197 32 metro 500;
#X obj 197 56 tgl 19 0 empty empty empty 0 -10 0 12 #fcfcfc #000000 #000000 0 1;
#X obj 147 327 print invQ;
#X obj 268 336 print Q;
#X obj 127 161 f;
#X floatatom 127 185 5 0 0 0 - - - 0;
#X msg 215 84 1;
#X msg 260 84 0;
#X obj 238 162 f;
#X floatatom 238 186 5 0 0 0 - - - 0;
#X msg 311 84 1;
#X msg 356 84 0;
#X obj 334 162 f;
#X floatatom 334 186 5 0 0 0 - - - 0;
#X text 106 35 R;
#X text 317 49 S;
#X connect 0 0 6 0;
#X connect 0 1 7 0;
#X connect 1 0 8 0;
#X connect 2 0 8 0;
#X connect 3 0 4 0;
#X connect 4 0 5 0;
#X connect 5 0 0 1;
#X connect 8 0 9 0;
#X connect 9 0 0 0;
#X connect 10 0 12 0;
#X connect 11 0 12 0;
#X connect 12 0 13 0;
#X connect 13 0 0 1;
#X connect 14 0 16 0;
#X connect 15 0 16 0;
#X connect 16 0 17 0;
#X connect 17 0 0 2;
