#N canvas 70 130 958 1004 12;
#X obj 192 326 JKFF, f 7;
#X obj 672 296 f;
#X obj 78 245 f;
#X obj 78 269 t f f;
#X obj 78 293 != 1;
#X obj 192 365 f;
#X obj 242 363 f;
#X obj 351 475 outlet clk;
#X obj 400 32 inlet reset;
#X obj 260 30 inlet mode;
#X obj 55 478 outlet DB;
#X obj 265 476 outlet DF;
#X obj 243 441 spigot;
#X obj 153 477 outlet lamp;
#X obj 192 392 t f f;
#X obj 192 416 != 1;
#X obj 192 440 spigot;
#X obj 501 31 inlet DB;
#X obj 501 55 t f f;
#X obj 533 88 spigot;
#X obj 133 211 spigot;
#X obj 30 31 inlet DF;
#X obj 119 31 inlet clk;
#X obj 30 55 t f f;
#X obj 704 371 f 1;
#X obj 684 457 spigot;
#X obj 772 422 == 2;
#X obj 572 63 == 2;
#X obj 117 187 == 2;
#X obj 78 212 spigot;
#X obj 640 248 spigot;
#X obj 640 272 t f f;
#X obj 139 80 spigot;
#X obj 178 56 == 2;
#X obj 282 414 == 1;
#X obj 241 402 != 1;
#X obj 704 344 sel 1;
#X obj 672 320 t f f;
#X obj 172 187 == 0;
#X obj 322 148 t f f f f f f f f f;
#X text 661 34 0b \, 1c \, 2s;
#X obj 679 223 == 1;
#X obj 30 92 t f f f;
#X obj 53 135 spigot;
#X obj 92 111 == 0;
#X obj 53 372 t b b;
#X obj 53 345 sel 1;
#X obj 53 162 t f f f;
#X obj 139 104 t f f f;
#X obj 704 399 t f f f;
#X obj 386 360 t f f;
#X obj 386 405 spigot;
#X obj 460 260 == 2;
#X obj 772 446 t f f;
#X obj 723 431 == 1;
#X obj 557 134 spigot;
#X obj 608 134 spigot;
#X obj 640 181 != 1;
#X obj 647 109 == 0;
#X obj 596 109 != 0;
#X obj 608 156 t f f;
#X obj 557 186 != 1;
#X obj 557 160 t f f;
#X obj 260 54 t f f f;
#X obj 400 56 t f f;
#X obj 781 104 loadbang;
#X msg 781 128 1;
#X connect 0 0 5 1;
#X connect 0 1 6 1;
#X connect 1 0 37 0;
#X connect 2 0 3 0;
#X connect 3 0 4 0;
#X connect 3 1 0 2;
#X connect 4 0 0 0;
#X connect 5 0 14 0;
#X connect 6 0 50 0;
#X connect 8 0 64 0;
#X connect 9 0 63 0;
#X connect 12 0 13 0;
#X connect 14 0 15 0;
#X connect 14 1 12 0;
#X connect 15 0 16 0;
#X connect 16 0 13 0;
#X connect 17 0 18 0;
#X connect 18 0 20 0;
#X connect 18 1 19 0;
#X connect 19 0 10 0;
#X connect 20 0 2 0;
#X connect 21 0 23 0;
#X connect 22 0 32 0;
#X connect 23 0 42 0;
#X connect 23 1 25 0;
#X connect 24 0 49 0;
#X connect 25 0 10 0;
#X connect 26 0 53 0;
#X connect 27 0 19 1;
#X connect 28 0 29 1;
#X connect 29 0 2 0;
#X connect 30 0 31 0;
#X connect 31 0 7 0;
#X connect 31 1 1 0;
#X connect 32 0 48 0;
#X connect 33 0 32 1;
#X connect 34 0 12 1;
#X connect 35 0 16 1;
#X connect 36 0 24 0;
#X connect 37 0 0 1;
#X connect 37 1 36 0;
#X connect 38 0 20 1;
#X connect 39 0 34 0;
#X connect 39 1 35 0;
#X connect 39 2 33 0;
#X connect 39 3 26 0;
#X connect 39 4 28 0;
#X connect 39 5 44 0;
#X connect 39 6 38 0;
#X connect 39 7 27 0;
#X connect 39 8 41 0;
#X connect 41 0 30 1;
#X connect 42 0 30 0;
#X connect 42 1 43 0;
#X connect 42 2 29 0;
#X connect 43 0 47 0;
#X connect 44 0 43 1;
#X connect 45 0 5 0;
#X connect 45 1 6 0;
#X connect 46 0 45 0;
#X connect 47 0 46 0;
#X connect 47 1 7 0;
#X connect 47 2 0 1;
#X connect 48 0 46 0;
#X connect 48 1 7 0;
#X connect 48 2 0 1;
#X connect 49 0 46 0;
#X connect 49 1 0 0;
#X connect 49 2 0 2;
#X connect 50 0 51 0;
#X connect 50 1 11 0;
#X connect 51 0 10 0;
#X connect 52 0 51 1;
#X connect 53 0 54 0;
#X connect 53 1 52 0;
#X connect 54 0 25 1;
#X connect 55 0 62 0;
#X connect 56 0 60 0;
#X connect 57 0 0 3;
#X connect 58 0 56 1;
#X connect 59 0 55 1;
#X connect 60 0 13 0;
#X connect 60 1 57 0;
#X connect 61 0 13 0;
#X connect 62 0 61 0;
#X connect 62 1 0 3;
#X connect 63 0 39 0;
#X connect 63 1 59 0;
#X connect 63 2 58 0;
#X connect 64 0 55 0;
#X connect 64 1 56 0;
#X connect 65 0 66 0;
#X connect 66 0 18 0;
