#N canvas 22 0 1920 1016 12;
#X obj 336 117 +~;
#X obj 336 141 *~ 0.4;
#X obj 336 167 clip~ -0.99 0.99;
#X obj 27 36 inlet~;
#X obj 95 35 inlet Q;
#X obj 95 59 t f f;
#X obj 163 35 inlet high;
#X obj 246 35 inlet low;
#X obj 27 136 *~;
#X obj 95 137 *~;
#X obj 27 112 bp~ 6400;
#X obj 95 113 bp~ 400;
#X obj 27 160 outlet~;
#X obj 95 161 outlet~;
#X text 430 120 tog bort denna eftersom jag summerar utanför;
#X connect 0 0 1 0;
#X connect 1 0 2 0;
#X connect 3 0 10 0;
#X connect 3 0 11 0;
#X connect 4 0 5 0;
#X connect 5 0 10 2;
#X connect 5 1 11 2;
#X connect 6 0 8 1;
#X connect 7 0 9 1;
#X connect 8 0 12 0;
#X connect 9 0 13 0;
#X connect 10 0 8 0;
#X connect 11 0 9 0;
