#N canvas 38 38 1920 1016 12;
#X obj 397 64 inlet J;
#X obj 164 67 inlet K;
#X obj 301 67 inlet CLK;
#X obj 165 198 expr if ($f1 == $f2 \, if ($f1 == 0 \, if ($f3 == 1 \, 1 \, 0) \, if ($f3 == 1 \, 0 \, 1)) \, if ($f1 == 0 \, 0 \, 1));
#X obj 279 99 bang;
#X obj 334 157 t b f;
#X obj 317 100 sel 1;
#X obj 165 245 f;
#X obj 209 243 t b f;
#X obj 152 294 != 1;
#X obj 194 271 t f f;
#X obj 152 323 outlet !Q;
#X obj 226 324 outlet Q;
#X obj 482 64 inlet reset;
#X msg 462 164 0;
#X obj 482 113 sel 1;
#X msg 504 164 1;
#X obj 482 137 t b b;
#X obj 412 118 tgl 19 0 empty empty empty 0 -10 0 12 #fcfcfc #000000 #000000 0 1;
#X obj 164 91 tgl 19 0 empty empty empty 0 -10 0 12 #fcfcfc #000000 #000000 0 1;
#X obj 110 263 tgl 19 0 empty empty empty 0 -10 0 12 #fcfcfc #000000 #000000 0 1;
#X obj 165 269 bng 19 250 50 0 empty empty empty 0 -10 0 12 #fcfcfc #000000 #000000;
#X obj 557 138 t b b;
#X obj 557 114 sel 0;
#X obj 482 88 t f f;
#X msg 552 164 0;
#X msg 594 164 1;
#X text 632 62 inlet reset /(clr) \, vid 1 go to K=1 \, J=0 \, Q=0 \, vid 0 go to J=1 \, K=0 \, Q=1;
#X connect 0 0 3 0;
#X connect 0 0 18 0;
#X connect 1 0 5 0;
#X connect 1 0 19 0;
#X connect 2 0 4 0;
#X connect 2 0 6 0;
#X connect 3 0 7 1;
#X connect 5 0 3 0;
#X connect 5 1 3 1;
#X connect 6 0 7 0;
#X connect 7 0 8 0;
#X connect 7 0 10 0;
#X connect 7 0 20 0;
#X connect 7 0 21 0;
#X connect 8 0 3 0;
#X connect 8 1 3 2;
#X connect 9 0 11 0;
#X connect 10 0 9 0;
#X connect 10 1 12 0;
#X connect 13 0 24 0;
#X connect 14 0 7 0;
#X connect 14 0 3 0;
#X connect 15 0 17 0;
#X connect 16 0 5 0;
#X connect 17 0 14 0;
#X connect 17 1 16 0;
#X connect 22 0 25 0;
#X connect 22 1 26 0;
#X connect 23 0 22 0;
#X connect 24 0 15 0;
#X connect 24 1 23 0;
#X connect 25 0 5 0;
#X connect 26 0 3 0;
#X connect 26 0 7 0;
