#N canvas 1914 0 1920 1016 12;
#X obj 106 154 first, f 7;
#X obj 163 154 mode, f 7;
#X obj 621 154 last, f 7;
#X obj 220 154 mode, f 7;
#X obj 278 154 mode, f 7;
#X obj 335 154 mode, f 7;
#X obj 392 154 mode, f 7;
#X obj 449 154 mode, f 7;
#X obj 507 154 mode, f 7;
#X obj 564 154 mode, f 7;
#X obj 36 26 inlet clk;
#X obj 52 312 outlet reset;
#X obj 113 24 inlet reset;
#X obj 113 48 t f f f f f f f f f;
#X obj 263 21 inlet;
#X obj 308 22 inlet;
#X obj 353 22 inlet;
#X obj 403 21 inlet;
#X obj 448 22 inlet;
#X obj 493 22 inlet;
#X obj 542 22 inlet;
#X obj 592 21 inlet;
#X obj 637 22 inlet;
#X obj 682 22 inlet;
#X obj 149 312 outlet;
#X obj 199 312 outlet;
#X obj 252 313 outlet;
#X obj 302 313 outlet;
#X obj 353 312 outlet;
#X obj 403 312 outlet;
#X obj 456 313 outlet;
#X obj 506 313 outlet;
#X obj 558 314 outlet;
#X obj 608 314 outlet;
#X connect 0 1 11 0;
#X connect 0 2 24 0;
#X connect 0 3 1 0;
#X connect 0 4 1 1;
#X connect 1 0 0 3;
#X connect 1 1 25 0;
#X connect 1 2 3 0;
#X connect 1 3 3 1;
#X connect 2 0 9 3;
#X connect 2 1 33 0;
#X connect 3 0 1 3;
#X connect 3 1 26 0;
#X connect 3 2 4 0;
#X connect 3 3 4 1;
#X connect 4 0 3 3;
#X connect 4 1 27 0;
#X connect 4 2 5 0;
#X connect 4 3 5 1;
#X connect 5 0 4 3;
#X connect 5 1 28 0;
#X connect 5 2 6 0;
#X connect 5 3 6 1;
#X connect 6 0 5 3;
#X connect 6 1 29 0;
#X connect 6 2 7 0;
#X connect 6 3 7 1;
#X connect 7 0 6 3;
#X connect 7 1 30 0;
#X connect 7 2 8 0;
#X connect 7 3 8 1;
#X connect 8 0 7 3;
#X connect 8 1 31 0;
#X connect 8 2 9 0;
#X connect 8 3 9 1;
#X connect 9 0 8 3;
#X connect 9 1 32 0;
#X connect 9 2 2 0;
#X connect 9 3 2 1;
#X connect 10 0 0 0;
#X connect 12 0 13 0;
#X connect 13 0 2 2;
#X connect 13 1 9 2;
#X connect 13 2 8 2;
#X connect 13 3 7 2;
#X connect 13 4 6 2;
#X connect 13 5 5 2;
#X connect 13 6 4 2;
#X connect 13 7 3 2;
#X connect 13 8 1 2;
#X connect 14 0 0 4;
#X connect 15 0 1 4;
#X connect 16 0 3 4;
#X connect 17 0 4 4;
#X connect 18 0 5 4;
#X connect 19 0 6 4;
#X connect 20 0 7 4;
#X connect 21 0 8 4;
#X connect 22 0 9 4;
#X connect 23 0 2 4;
