#N canvas 228 228 1920 1016 12;
#X obj 38 28 inlet grov;
#X obj 119 28 inlet vib;
#X obj 195 28 inlet hpf;
#X obj 267 29 inlet lpf;
#X obj 341 28 inlet amp;
#X obj 414 29 inlet high;
#X obj 493 29 inlet low;
#X obj 567 28 inlet sq;
#X obj 57 319 outlet grov;
#X obj 154 320 outlet vib;
#X obj 236 320 outlet hpf;
#X obj 320 318 outlet lpf;
#X obj 400 321 outlet amp;
#X obj 484 320 outlet high;
#X obj 573 318 outlet low;
#X obj 657 318 outlet sq;
#X connect 0 0 8 0;
#X connect 1 0 9 0;
#X connect 2 0 10 0;
#X connect 3 0 11 0;
#X connect 4 0 12 0;
#X connect 5 0 13 0;
#X connect 6 0 14 0;
#X connect 7 0 15 0;
