#N canvas 1284 166 1920 1016 12;
#X obj 43 39 inlet~;
#X obj 101 39 inlet~;
#X obj 165 38 inlet~;
#X obj 230 39 inlet~;
#X obj 297 39 inlet~;
#X obj 355 39 inlet~;
#X obj 419 38 inlet~;
#X obj 484 39 inlet~;
#X obj 543 39 inlet~;
#X obj 608 40 inlet~;
#X obj 64 127 +~;
#X obj 166 125 +~;
#X obj 302 133 +~;
#X obj 440 136 +~;
#X obj 561 126 +~;
#X obj 232 200 +~;
#X obj 345 193 +~;
#X obj 446 265 +~;
#X obj 384 312 +~;
#X obj 671 38 inlet;
#X obj 383 352 *~;
#X obj 387 391 dac~;
#X obj 523 374 outlet~;
#X connect 0 0 10 0;
#X connect 1 0 10 1;
#X connect 2 0 11 0;
#X connect 3 0 11 1;
#X connect 4 0 12 0;
#X connect 5 0 12 1;
#X connect 6 0 13 0;
#X connect 7 0 13 1;
#X connect 8 0 14 0;
#X connect 9 0 14 1;
#X connect 10 0 15 0;
#X connect 11 0 15 1;
#X connect 12 0 16 0;
#X connect 13 0 16 1;
#X connect 14 0 17 1;
#X connect 15 0 18 0;
#X connect 16 0 17 0;
#X connect 17 0 18 1;
#X connect 18 0 20 0;
#X connect 19 0 20 1;
#X connect 20 0 21 0;
#X connect 20 0 21 1;
#X connect 20 0 22 0;
