#N canvas 657 67 1920 1016 12;
#X obj 77 101 Dflipflop;
#X msg 197 83 0;
#X obj 77 130 t f f;
#X obj 91 164 f;
#X obj 406 47 t b f;
#X obj 22 12 inlet D;
#X obj 97 11 inlet clk;
#X obj 123 219 outlet D;
#X obj 192 219 outlet clk;
#X obj 178 11 inlet trig;
#X obj 18 217 outlet DF;
#X obj 274 13 inlet db;
#X obj 279 220 outlet db;
#X obj 452 46 bang;
#X obj 22 41 t f b f f;
#X obj 280 50 tgl 19 0 empty empty empty 0 -10 0 12 #fcfcfc #000000 #000000 0 1;
#X floatatom 652 201 5 0 0 0 - - - 0;
#X obj 652 177 timer;
#X obj 653 127 bang;
#X floatatom 594 215 5 0 0 0 - - - 0;
#X obj 594 191 timer;
#X obj 595 141 bang;
#X obj 13 121 tgl 19 0 empty empty empty 0 -10 0 12 #fcfcfc #000000 #000000 0 1;
#X obj 317 129 tgl 19 0 empty empty empty 0 -10 0 12 #fcfcfc #000000 #000000 0 1;
#X msg 137 75 1;
#X obj 22 69 != 1;
#X connect 0 0 22 0;
#X connect 0 0 2 0;
#X connect 0 1 23 0;
#X connect 1 0 0 2;
#X connect 2 0 10 0;
#X connect 2 0 18 0;
#X connect 2 1 3 1;
#X connect 3 0 7 0;
#X connect 5 0 14 0;
#X connect 9 0 24 0;
#X connect 11 0 0 0;
#X connect 11 0 15 0;
#X connect 14 0 25 0;
#X connect 14 1 3 0;
#X connect 14 2 0 1;
#X connect 14 3 8 0;
#X connect 17 0 16 0;
#X connect 18 0 17 1;
#X connect 18 0 17 0;
#X connect 20 0 19 0;
#X connect 21 0 20 1;
#X connect 21 0 20 0;
#X connect 24 0 0 2;
#X connect 25 0 12 0;
