#N canvas 950 0 958 1004 12;
#X obj 136 206 Dflipflop;
#X obj 36 75 inlet DF;
#X obj 119 123 sel 1;
#X obj 178 237 f;
#X obj 114 360 outlet DF;
#X obj 119 99 t f f f;
#X obj 286 364 outlet DB;
#X obj 212 73 inlet DB;
#X obj 119 75 inlet sm;
#X obj 200 362 outlet sm;
#X connect 0 1 3 1;
#X connect 1 0 0 0;
#X connect 2 0 3 0;
#X connect 3 0 4 0;
#X connect 5 0 2 0;
#X connect 5 1 0 1;
#X connect 5 2 9 0;
#X connect 7 0 6 0;
#X connect 8 0 5 0;
