#N canvas 190 190 1920 1016 12;
#X obj 158 227 break;
#X obj 208 227 shift;
#X obj 261 227 shift;
#X text 335 21 in: db df \, sm \, rs. Out: db df sm;
#X obj 319 227 break;
#X obj 123 96 tgl 19 0 empty empty empty 0 -10 0 12 #fcfcfc #000000 #000000 0 1;
#X obj 123 120 metro 1500;
#X obj 123 144 tgl 19 0 empty empty empty 0 -10 0 12 #fcfcfc #000000 #000000 0 1;
#X obj 167 296 tgl 24 0 empty empty empty 0 -10 0 12 #00faff #000000 #000000 0 1;
#X obj 228 296 tgl 24 0 empty empty empty 0 -10 0 12 #00faff #000000 #000000 0 1;
#X obj 284 297 tgl 24 0 empty empty empty 0 -10 0 12 #00faff #000000 #000000 0 1;
#X obj 345 297 tgl 24 0 empty empty empty 0 -10 0 12 #00faff #000000 #000000 0 1;
#X obj 409 296 tgl 24 0 empty empty empty 0 -10 0 12 #00faff #000000 #000000 0 1;
#X obj 588 221 shift;
#X obj 641 221 shift;
#X obj 608 290 tgl 24 0 empty empty empty 0 -10 0 12 #00faff #000000 #000000 0 1;
#X obj 664 291 tgl 24 0 empty empty empty 0 -10 0 12 #00faff #000000 #000000 0 1;
#X obj 694 221 shift;
#X obj 744 218 shift;
#X obj 714 290 tgl 24 0 empty empty empty 0 -10 0 12 #00faff #000000 #000000 0 1;
#X obj 770 291 tgl 24 0 empty empty empty 0 -10 0 12 #00faff #000000 #000000 0 1;
#X obj 482 113 tgl 19 0 empty empty empty 0 -10 0 12 #fcfcfc #000000 #000000 0 1;
#X obj 482 137 metro 1500;
#X obj 482 161 tgl 19 0 empty empty empty 0 -10 0 12 #fcfcfc #000000 #000000 0 1;
#X msg 597 164 1;
#X msg 638 164 1;
#X connect 0 1 1 1;
#X connect 0 1 8 0;
#X connect 0 2 1 2;
#X connect 1 0 0 0;
#X connect 1 1 9 0;
#X connect 1 1 2 1;
#X connect 1 2 2 2;
#X connect 2 0 1 0;
#X connect 2 1 10 0;
#X connect 2 1 4 1;
#X connect 2 2 4 2;
#X connect 4 0 2 0;
#X connect 4 1 11 0;
#X connect 5 0 6 0;
#X connect 6 0 7 0;
#X connect 7 0 0 1;
#X connect 13 1 15 0;
#X connect 13 1 14 1;
#X connect 13 2 14 2;
#X connect 14 0 13 0;
#X connect 14 0 13 1;
#X connect 14 1 16 0;
#X connect 14 1 17 1;
#X connect 14 2 17 2;
#X connect 17 0 14 0;
#X connect 17 1 19 0;
#X connect 17 1 18 1;
#X connect 17 2 18 2;
#X connect 18 0 17 0;
#X connect 18 1 20 0;
#X connect 21 0 22 0;
#X connect 22 0 23 0;
#X connect 23 0 13 2;
#X connect 24 0 13 1;
#X connect 25 0 13 3;
