#N canvas 114 114 1920 1016 12;
#X obj 65 42 bng 19 250 50 0 empty empty empty 0 -10 0 12 #fcfcfc #000000 #000000;
#X obj 65 66 tgl 19 0 empty empty empty 0 -10 0 12 #fcfcfc #000000 #000000 0 1;
#X floatatom 65 90 5 0 0 0 - - - 0;
#X obj 65 113 tgl 19 0 empty empty empty 0 -10 0 12 #fcfcfc #000000 #000000 0 1;
#X obj 124 66 != 1;
#X floatatom 124 90 5 0 0 0 - - - 0;
#X obj 125 124 tgl 19 0 empty empty empty 0 -10 0 12 #fcfcfc #000000 #000000 0 1;
#X obj 165 119 == 1;
#X obj 165 143 tgl 19 0 empty empty empty 0 -10 0 12 #fcfcfc #000000 #000000 0 1;
#X floatatom 165 167 5 0 0 0 - - - 0;
#X obj 165 190 sel 1 0;
#X obj 163 222 tgl 19 0 empty empty empty 0 -10 0 12 #fcfcfc #000000 #000000 0 1;
#X floatatom 163 246 5 0 0 0 - - - 0;
#X obj 211 221 tgl 19 0 empty empty empty 0 -10 0 12 #fcfcfc #000000 #000000 0 1;
#X floatatom 211 245 5 0 0 0 - - - 0;
#X msg 64 394 0;
#X obj 64 418 s reset;
#X obj 171 39 r reset;
#X obj 233 65 != 1;
#X floatatom 233 89 5 0 0 0 - - - 0;
#X obj 234 123 tgl 19 0 empty empty empty 0 -10 0 12 #fcfcfc #000000 #000000 0 1;
#X obj 274 118 == 1;
#X obj 274 142 tgl 19 0 empty empty empty 0 -10 0 12 #fcfcfc #000000 #000000 0 1;
#X floatatom 274 166 5 0 0 0 - - - 0;
#X obj 274 189 sel 1 0;
#X obj 272 221 tgl 19 0 empty empty empty 0 -10 0 12 #fcfcfc #000000 #000000 0 1;
#X floatatom 272 245 5 0 0 0 - - - 0;
#X obj 320 220 tgl 19 0 empty empty empty 0 -10 0 12 #fcfcfc #000000 #000000 0 1;
#X floatatom 320 244 5 0 0 0 - - - 0;
#X obj 280 38 r reset;
#X obj 344 64 != 1;
#X floatatom 344 88 5 0 0 0 - - - 0;
#X obj 345 122 tgl 19 0 empty empty empty 0 -10 0 12 #fcfcfc #000000 #000000 0 1;
#X obj 385 117 == 1;
#X obj 385 141 tgl 19 0 empty empty empty 0 -10 0 12 #fcfcfc #000000 #000000 0 1;
#X floatatom 385 165 5 0 0 0 - - - 0;
#X obj 385 188 sel 1 0;
#X obj 383 220 tgl 19 0 empty empty empty 0 -10 0 12 #fcfcfc #000000 #000000 0 1;
#X floatatom 383 244 5 0 0 0 - - - 0;
#X obj 431 219 tgl 19 0 empty empty empty 0 -10 0 12 #fcfcfc #000000 #000000 0 1;
#X floatatom 431 243 5 0 0 0 - - - 0;
#X obj 391 37 r reset;
#X obj 453 63 != 1;
#X floatatom 453 87 5 0 0 0 - - - 0;
#X obj 454 121 tgl 19 0 empty empty empty 0 -10 0 12 #fcfcfc #000000 #000000 0 1;
#X obj 494 116 == 1;
#X obj 494 140 tgl 19 0 empty empty empty 0 -10 0 12 #fcfcfc #000000 #000000 0 1;
#X floatatom 494 164 5 0 0 0 - - - 0;
#X obj 494 187 sel 1 0;
#X obj 492 219 tgl 19 0 empty empty empty 0 -10 0 12 #fcfcfc #000000 #000000 0 1;
#X floatatom 492 243 5 0 0 0 - - - 0;
#X obj 540 218 tgl 19 0 empty empty empty 0 -10 0 12 #fcfcfc #000000 #000000 0 1;
#X floatatom 540 242 5 0 0 0 - - - 0;
#X obj 500 36 r reset;
#X obj 565 61 != 1;
#X floatatom 565 85 5 0 0 0 - - - 0;
#X obj 566 119 tgl 19 0 empty empty empty 0 -10 0 12 #fcfcfc #000000 #000000 0 1;
#X obj 606 114 == 1;
#X obj 606 138 tgl 19 0 empty empty empty 0 -10 0 12 #fcfcfc #000000 #000000 0 1;
#X floatatom 606 162 5 0 0 0 - - - 0;
#X obj 606 185 sel 1 0;
#X obj 604 217 tgl 19 0 empty empty empty 0 -10 0 12 #fcfcfc #000000 #000000 0 1;
#X floatatom 604 241 5 0 0 0 - - - 0;
#X obj 652 216 tgl 19 0 empty empty empty 0 -10 0 12 #fcfcfc #000000 #000000 0 1;
#X floatatom 652 240 5 0 0 0 - - - 0;
#X obj 612 34 r reset;
#X obj 323 377 spigot;
#X connect 0 0 1 0;
#X connect 1 0 2 0;
#X connect 2 0 3 0;
#X connect 2 0 4 0;
#X connect 4 0 5 0;
#X connect 5 0 6 0;
#X connect 5 0 7 0;
#X connect 7 0 8 0;
#X connect 8 0 9 0;
#X connect 9 0 10 0;
#X connect 10 0 11 0;
#X connect 10 1 13 0;
#X connect 11 0 12 0;
#X connect 12 0 18 0;
#X connect 13 0 14 0;
#X connect 15 0 16 0;
#X connect 17 0 5 0;
#X connect 17 0 12 0;
#X connect 18 0 19 0;
#X connect 19 0 20 0;
#X connect 19 0 21 0;
#X connect 21 0 22 0;
#X connect 22 0 23 0;
#X connect 23 0 24 0;
#X connect 24 0 25 0;
#X connect 24 1 27 0;
#X connect 25 0 26 0;
#X connect 26 0 30 0;
#X connect 27 0 28 0;
#X connect 29 0 19 0;
#X connect 29 0 26 0;
#X connect 30 0 31 0;
#X connect 31 0 32 0;
#X connect 31 0 33 0;
#X connect 33 0 34 0;
#X connect 34 0 35 0;
#X connect 35 0 36 0;
#X connect 36 0 37 0;
#X connect 36 1 39 0;
#X connect 37 0 38 0;
#X connect 38 0 42 0;
#X connect 39 0 40 0;
#X connect 41 0 31 0;
#X connect 41 0 38 0;
#X connect 42 0 43 0;
#X connect 43 0 44 0;
#X connect 43 0 45 0;
#X connect 45 0 46 0;
#X connect 46 0 47 0;
#X connect 47 0 48 0;
#X connect 48 0 49 0;
#X connect 48 1 51 0;
#X connect 49 0 50 0;
#X connect 50 0 54 0;
#X connect 51 0 52 0;
#X connect 53 0 43 0;
#X connect 53 0 50 0;
#X connect 54 0 55 0;
#X connect 55 0 56 0;
#X connect 55 0 57 0;
#X connect 57 0 58 0;
#X connect 58 0 59 0;
#X connect 59 0 60 0;
#X connect 60 0 61 0;
#X connect 60 1 63 0;
#X connect 61 0 62 0;
#X connect 63 0 64 0;
#X connect 65 0 55 0;
#X connect 65 0 62 0;
