#N canvas 114 114 1920 1016 12;
#X obj 110 189 tgl 24 0 empty empty empty 0 -10 0 12 #00faff #000000 #000000 0 1;
#X obj 146 189 tgl 24 0 empty empty empty 0 -10 0 12 #00faff #000000 #000000 0 1;
#X obj 187 189 tgl 24 0 empty empty empty 0 -10 0 12 #00faff #000000 #000000 0 1;
#X obj 225 189 tgl 24 0 empty empty empty 0 -10 0 12 #00faff #000000 #000000 0 1;
#X obj 266 189 tgl 24 0 empty empty empty 0 -10 0 12 #00faff #000000 #000000 0 1;
#X obj 306 189 tgl 24 0 empty empty empty 0 -10 0 12 #00faff #000000 #000000 0 1;
#X obj 429 189 tgl 24 0 empty empty empty 0 -10 0 12 #00faff #000000 #000000 0 1;
#X obj 468 189 tgl 24 0 empty empty empty 0 -10 0 12 #00faff #000000 #000000 0 1;
#X msg 697 186 1;
#X obj 145 469 sound, f 33;
#X obj 256 122 tgl 30 0 empty empty Sound 0 -10 0 12 #e3c6ff #000000 #000000 0 1;
#X msg 707 226 \; pd dsp \$1;
#X text 729 203 Sound;
#X obj 125 122 tgl 30 0 empty empty ON/OFF 0 -10 0 12 #c7c6ff #000000 #000000 0 1;
#X obj 344 189 tgl 24 0 empty empty empty 0 -10 0 12 #00faff #000000 #000000 0 1;
#X obj 385 189 tgl 24 0 empty empty empty 0 -10 0 12 #00faff #000000 #000000 0 1;
#X obj 303 123 bng 30 250 50 0 empty empty Reset 0 -10 0 12 #ffe3c6 #000000 #000000;
#X floatatom 109 328 5 0 0 0 - - - 0;
#X obj 88 388 timer;
#X obj 88 358 bang;
#X floatatom 148 328 5 0 0 0 - - - 0;
#X obj 135 391 timer;
#X obj 135 361 bang;
#X floatatom 187 328 5 0 0 0 - - - 0;
#X obj 187 390 timer;
#X obj 187 360 bang;
#X floatatom 227 328 5 0 0 0 - - - 0;
#X obj 242 392 timer;
#X obj 242 362 bang;
#X floatatom 267 328 5 0 0 0 - - - 0;
#X obj 287 395 timer;
#X obj 287 365 bang;
#X floatatom 307 328 5 0 0 0 - - - 0;
#X obj 329 395 timer;
#X obj 329 365 bang;
#X floatatom 347 329 5 0 0 0 - - - 0;
#X obj 380 396 timer;
#X obj 380 366 bang;
#X floatatom 388 329 5 0 0 0 - - - 0;
#X obj 430 396 timer;
#X obj 430 366 bang;
#X floatatom 427 329 5 0 0 0 - - - 0;
#X obj 475 399 timer;
#X obj 475 369 bang;
#X floatatom 467 329 5 0 0 0 - - - 0;
#X obj 517 399 timer;
#X obj 517 369 bang;
#X obj 109 56 first, f 7;
#X obj 166 56 mode, f 7;
#X obj 624 56 last, f 7;
#X obj 223 56 mode, f 7;
#X obj 281 56 mode, f 7;
#X obj 338 56 mode, f 7;
#X obj 395 56 mode, f 7;
#X obj 452 56 mode, f 7;
#X obj 510 56 mode, f 7;
#X obj 567 56 mode, f 7;
#X msg 647 305 1;
#X obj 647 329 t f f f f f f f f f;
#X obj 148 234 vradio 19 1 1 3 empty empty empty 0 -10 0 12 #fcfcfc #000000 #000000 1;
#X obj 189 234 vradio 19 1 1 3 empty empty empty 0 -10 0 12 #fcfcfc #000000 #000000 1;
#X obj 228 234 vradio 19 1 1 3 empty empty empty 0 -10 0 12 #fcfcfc #000000 #000000 1;
#X obj 269 234 vradio 19 1 1 3 empty empty empty 0 -10 0 12 #fcfcfc #000000 #000000 1;
#X obj 309 234 vradio 19 1 1 3 empty empty empty 0 -10 0 12 #fcfcfc #000000 #000000 1;
#X obj 350 234 vradio 19 1 1 3 empty empty empty 0 -10 0 12 #fcfcfc #000000 #000000 1;
#X obj 389 234 vradio 19 1 1 3 empty empty empty 0 -10 0 12 #fcfcfc #000000 #000000 1;
#X obj 432 234 vradio 19 1 1 3 empty empty empty 0 -10 0 12 #fcfcfc #000000 #000000 1;
#X obj 468 233 vradio 19 1 1 3 empty empty empty 0 -10 0 12 #fcfcfc #000000 #000000 1;
#X obj 113 234 vradio 19 1 1 3 empty empty empty 0 -10 0 12 #fcfcfc #000000 #000000 2;
#X obj 179 122 nbx 5 17 -1e+37 1e+37 0 1 empty empty BPM 0 -10 0 12 #fcfcfc #000000 #000000 300 256;
#X msg 697 138 tempo \$1 permin;
#X obj 697 163 metro 1 300 permin;
#X obj 699 5 loadbang;
#X msg 699 58 300;
#X obj 817 37 bng 19 250 50 0 empty empty empty 0 -10 0 12 #fcfcfc #000000 #000000;
#X obj 699 29 t b b;
#X msg 734 58 1;
#X obj 734 84 t f f f f f f f f f f;
#X connect 0 0 9 0;
#X connect 0 0 19 0;
#X connect 1 0 9 1;
#X connect 1 0 22 0;
#X connect 2 0 9 2;
#X connect 2 0 25 0;
#X connect 3 0 9 3;
#X connect 3 0 28 0;
#X connect 4 0 9 4;
#X connect 4 0 31 0;
#X connect 5 0 9 5;
#X connect 5 0 34 0;
#X connect 6 0 9 8;
#X connect 6 0 43 0;
#X connect 7 0 9 9;
#X connect 7 0 46 0;
#X connect 8 0 47 0;
#X connect 10 0 11 0;
#X connect 13 0 71 0;
#X connect 14 0 9 6;
#X connect 14 0 37 0;
#X connect 15 0 9 7;
#X connect 15 0 40 0;
#X connect 16 0 57 0;
#X connect 18 0 17 0;
#X connect 19 0 18 1;
#X connect 19 0 18 0;
#X connect 21 0 20 0;
#X connect 22 0 21 1;
#X connect 22 0 21 0;
#X connect 24 0 23 0;
#X connect 25 0 24 1;
#X connect 25 0 24 0;
#X connect 27 0 26 0;
#X connect 28 0 27 1;
#X connect 28 0 27 0;
#X connect 30 0 29 0;
#X connect 31 0 30 1;
#X connect 31 0 30 0;
#X connect 33 0 32 0;
#X connect 34 0 33 1;
#X connect 34 0 33 0;
#X connect 36 0 35 0;
#X connect 37 0 36 1;
#X connect 37 0 36 0;
#X connect 39 0 38 0;
#X connect 40 0 39 1;
#X connect 40 0 39 0;
#X connect 42 0 41 0;
#X connect 43 0 42 1;
#X connect 43 0 42 0;
#X connect 45 0 44 0;
#X connect 46 0 45 1;
#X connect 46 0 45 0;
#X connect 47 1 16 0;
#X connect 47 2 0 0;
#X connect 47 3 48 0;
#X connect 47 4 48 1;
#X connect 48 0 47 3;
#X connect 48 1 1 0;
#X connect 48 2 50 0;
#X connect 48 3 50 1;
#X connect 49 0 56 3;
#X connect 49 1 7 0;
#X connect 50 0 48 3;
#X connect 50 1 2 0;
#X connect 50 2 51 0;
#X connect 50 3 51 1;
#X connect 51 0 50 3;
#X connect 51 1 3 0;
#X connect 51 2 52 0;
#X connect 51 3 52 1;
#X connect 52 0 51 3;
#X connect 52 1 4 0;
#X connect 52 2 53 0;
#X connect 52 3 53 1;
#X connect 53 0 52 3;
#X connect 53 1 5 0;
#X connect 53 2 54 0;
#X connect 53 3 54 1;
#X connect 54 0 53 3;
#X connect 54 1 14 0;
#X connect 54 2 55 0;
#X connect 54 3 55 1;
#X connect 55 0 54 3;
#X connect 55 1 15 0;
#X connect 55 2 56 0;
#X connect 55 3 56 1;
#X connect 56 0 55 3;
#X connect 56 1 6 0;
#X connect 56 2 49 0;
#X connect 56 3 49 1;
#X connect 57 0 58 0;
#X connect 58 0 49 2;
#X connect 58 1 56 2;
#X connect 58 2 55 2;
#X connect 58 3 54 2;
#X connect 58 4 53 2;
#X connect 58 5 52 2;
#X connect 58 6 51 2;
#X connect 58 7 50 2;
#X connect 58 8 48 2;
#X connect 59 0 48 4;
#X connect 60 0 50 4;
#X connect 61 0 51 4;
#X connect 62 0 52 4;
#X connect 63 0 53 4;
#X connect 64 0 54 4;
#X connect 65 0 55 4;
#X connect 66 0 56 4;
#X connect 67 0 49 4;
#X connect 68 0 47 4;
#X connect 69 0 70 0;
#X connect 70 0 71 0;
#X connect 71 0 8 0;
#X connect 72 0 75 0;
#X connect 73 0 69 0;
#X connect 74 0 76 0;
#X connect 75 0 73 0;
#X connect 75 1 76 0;
#X connect 76 0 77 0;
#X connect 77 0 68 0;
#X connect 77 1 59 0;
#X connect 77 2 60 0;
#X connect 77 3 61 0;
#X connect 77 4 62 0;
#X connect 77 5 63 0;
#X connect 77 6 64 0;
#X connect 77 7 65 0;
#X connect 77 8 66 0;
#X connect 77 9 67 0;
#X coords 0 -1 1 1 410 250 2 100 100;
