#N canvas 228 228 1920 1016 12;
#X obj 568 224 break;
#X obj 617 225 shift;
#X obj 662 226 shift;
#X obj 573 279 tgl 23 0 empty empty empty 0 -10 0 12 #00faff #000000 #000000 0 1;
#X obj 625 278 tgl 23 0 empty empty empty 0 -10 0 12 #00faff #000000 #000000 0 1;
#X obj 684 279 tgl 23 0 empty empty empty 0 -10 0 12 #00faff #000000 #000000 0 1;
#X msg 504 176 1;
#X msg 544 176 1;
#X msg 578 176 0;
#X msg 611 178 0;
#X msg 652 179 0;
#X obj 714 225 break;
#X obj 763 226 shift;
#X obj 808 227 shift;
#X obj 719 280 tgl 23 0 empty empty empty 0 -10 0 12 #00faff #000000 #000000 0 1;
#X obj 771 279 tgl 23 0 empty empty empty 0 -10 0 12 #00faff #000000 #000000 0 1;
#X obj 830 280 tgl 23 0 empty empty empty 0 -10 0 12 #00faff #000000 #000000 0 1;
#X obj 860 226 break;
#X obj 865 281 tgl 23 0 empty empty empty 0 -10 0 12 #00faff #000000 #000000 0 1;
#X msg 715 175 0;
#X msg 872 175 0;
#X obj 125 233 mode, f 6;
#X obj 179 234 mode, f 6;
#X obj 234 233 mode, f 6;
#X obj 288 233 mode, f 6;
#X obj 137 322 tgl 23 0 empty empty empty 0 -10 0 12 #00faff #000000 #000000 0 1;
#X obj 189 321 tgl 23 0 empty empty empty 0 -10 0 12 #00faff #000000 #000000 0 1;
#X obj 248 322 tgl 23 0 empty empty empty 0 -10 0 12 #00faff #000000 #000000 0 1;
#X obj 300 327 tgl 23 0 empty empty empty 0 -10 0 12 #00faff #000000 #000000 0 1;
#X msg 138 189 1;
#X msg 79 174 1;
#X msg 208 94 0;
#X msg 207 182 2;
#X msg 244 181 3;
#X connect 0 1 3 0;
#X connect 0 2 1 0;
#X connect 0 3 1 1;
#X connect 1 0 0 3;
#X connect 1 1 4 0;
#X connect 1 2 2 0;
#X connect 1 3 2 1;
#X connect 2 0 1 3;
#X connect 2 1 5 0;
#X connect 2 2 11 0;
#X connect 2 3 11 1;
#X connect 6 0 0 1;
#X connect 7 0 0 0;
#X connect 8 0 0 0;
#X connect 9 0 0 2;
#X connect 10 0 1 2;
#X connect 10 0 2 2;
#X connect 11 0 2 3;
#X connect 11 1 14 0;
#X connect 11 2 12 0;
#X connect 11 3 12 1;
#X connect 12 0 11 3;
#X connect 12 1 15 0;
#X connect 12 2 13 0;
#X connect 12 3 13 1;
#X connect 13 0 12 3;
#X connect 13 1 16 0;
#X connect 13 2 17 0;
#X connect 13 3 17 1;
#X connect 17 0 13 3;
#X connect 17 1 18 0;
#X connect 19 0 11 2;
#X connect 20 0 17 2;
#X connect 21 1 25 0;
#X connect 21 2 22 0;
#X connect 21 3 22 1;
#X connect 22 0 21 3;
#X connect 22 1 26 0;
#X connect 22 2 23 0;
#X connect 22 3 23 1;
#X connect 23 0 22 3;
#X connect 23 1 27 0;
#X connect 23 2 24 0;
#X connect 23 3 24 1;
#X connect 24 0 23 3;
#X connect 24 1 28 0;
#X connect 29 0 21 1;
#X connect 30 0 21 0;
#X connect 31 0 24 2;
#X connect 31 0 21 2;
#X connect 32 0 21 4;
#X connect 32 0 24 4;
#X connect 33 0 22 4;
#X connect 33 0 23 4;
