#N canvas 1838 288 1920 1016 12;
#X obj 56 32 inlet;
#X obj 49 162 spiggate;
#X obj 238 165 spiggate;
#X obj 34 288 outlet;
#X obj 199 293 outlet;
#X obj 279 294 outlet;
#X obj 58 216 break;
#X obj 256 216 count;
#X obj 371 296 outlet;
#X obj 366 25 inlet;
#X obj 366 49 t f f f;
#X obj 56 79 t f f f;
#X obj 129 31 inlet;
#X obj 129 78 t f f f;
#X obj 201 30 inlet;
#X obj 201 77 t f f f;
#X obj 269 30 inlet;
#X obj 269 77 t f f f;
#X obj 339 75 == 0;
#X text 468 35 Break 0 \, Reset 1 \, Count 2, f 29;
#X obj 420 75 == 2;
#X obj 380 76 == 1;
#X text 522 77 vad händer i reset och hur skiljer sig b o c i steg 1 från andra steg?;
#X text 547 122 reset ska stanna \, blocka allt och resetta \, b till 1 andra till 0;
#X msg 441 174 0;
#X msg 380 155 1;
#X obj 116 291 outlet;
#X obj 380 179 t f f;
#X obj 380 100 sel 1;
#X obj 380 127 t b b;
#X text 61 5 DF;
#X text 133 6 CLK;
#X text 200 5 Reset;
#X text 273 6 DB;
#X text 366 6 Mode;
#X text 28 315 Stop CLK;
#X text 117 315 Reset;
#X text 205 317 Lamp;
#X text 287 317 DF;
#X text 380 320 CLK;
#X obj 328 102 t f f;
#X connect 0 0 11 0;
#X connect 1 0 6 0;
#X connect 1 1 6 1;
#X connect 1 2 6 2;
#X connect 1 3 6 3;
#X connect 2 0 7 0;
#X connect 2 1 7 1;
#X connect 2 2 7 2;
#X connect 2 3 7 3;
#X connect 6 1 4 0;
#X connect 6 2 5 0;
#X connect 6 3 8 0;
#X connect 7 1 4 0;
#X connect 7 2 5 0;
#X connect 7 3 8 0;
#X connect 9 0 10 0;
#X connect 10 0 18 0;
#X connect 10 1 21 0;
#X connect 10 2 20 0;
#X connect 11 0 1 0;
#X connect 11 2 2 0;
#X connect 12 0 13 0;
#X connect 13 0 1 1;
#X connect 13 2 2 1;
#X connect 14 0 15 0;
#X connect 15 0 1 2;
#X connect 15 2 2 2;
#X connect 16 0 17 0;
#X connect 17 0 1 3;
#X connect 17 2 2 3;
#X connect 18 0 40 0;
#X connect 20 0 2 4;
#X connect 21 0 28 0;
#X connect 24 0 3 0;
#X connect 25 0 27 0;
#X connect 27 0 26 0;
#X connect 27 1 15 0;
#X connect 28 0 29 0;
#X connect 29 0 25 0;
#X connect 29 1 24 0;
#X connect 40 0 4 0;
#X connect 40 1 1 4;
