#N canvas 1914 0 1920 1016 12;
#X obj 24 12 inlet;
#X obj 100 269 *~;
#X obj 25 56 line~;
#X obj 24 34 pack 0 30;
#X obj 126 74 phasor~;
#X obj 126 47 grov;
#X obj 107 13 inlet freq;
#X obj 192 13 inlet grov;
#X obj 100 293 outlet~;
#X text 257 189 grov:1-10;
#X obj 126 126 fmmod;
#X obj 273 13 inlet vib;
#X text 243 204 vib = mod freq;
#X text 240 220 säger 0-135 i fmmod \, ev justera här;
#X text 243 256 modamount \, vad är rimligtt? 1-10?;
#X obj 273 37 t f f;
#X connect 0 0 3 0;
#X connect 1 0 8 0;
#X connect 2 0 1 0;
#X connect 3 0 2 0;
#X connect 4 0 10 0;
#X connect 5 0 4 0;
#X connect 6 0 5 0;
#X connect 7 0 5 1;
#X connect 10 0 1 1;
#X connect 11 0 15 0;
#X connect 15 0 10 1;
#X connect 15 1 10 2;
