#N canvas 845 181 1920 1016 12;
#X obj 45 27 inlet freq;
#X obj 157 27 inlet modfreq;
#X obj 276 27 inlet modamount;
#X obj 162 238 +~;
#X obj 45 87 mtof~;
#X obj 45 60 sig~;
#X text 202 58 0-135;
#X obj 157 58 * 1.6;
#X obj 157 114 mtof~;
#X obj 157 87 sig~;
#X obj 157 138 phasor~;
#X obj 180 184 *~;
#X obj 162 262 outlet~;
#X connect 0 0 5 0;
#X connect 1 0 7 0;
#X connect 2 0 11 1;
#X connect 3 0 12 0;
#X connect 4 0 3 0;
#X connect 5 0 4 0;
#X connect 7 0 9 0;
#X connect 8 0 10 0;
#X connect 9 0 8 0;
#X connect 10 0 11 0;
#X connect 11 0 3 1;
