#N canvas 152 152 1920 1016 12;
#X obj 172 68 tgl 19 0 empty empty empty 0 -10 0 12 #fcfcfc #000000 #000000 0 1;
#X obj 210 68 tgl 19 0 empty empty empty 0 -10 0 12 #fcfcfc #000000 #000000 0 1;
#X obj 258 66 tgl 19 0 empty empty empty 0 -10 0 12 #fcfcfc #000000 #000000 0 1;
#X obj 181 124 pack f f f;
#X listbox 181 148 20 0 0 0 - - - 0;
#X obj 181 171 unpack f f f;
#X obj 181 195 tgl 19 0 empty empty empty 0 -10 0 12 #fcfcfc #000000 #000000 0 1;
#X obj 221 197 tgl 19 0 empty empty empty 0 -10 0 12 #fcfcfc #000000 #000000 0 1;
#X obj 264 198 tgl 19 0 empty empty empty 0 -10 0 12 #fcfcfc #000000 #000000 0 1;
#X obj 210 92 t b f;
#X obj 555 235 *~;
#X obj 501 182 sig~ 10;
#X msg 609 181 1;
#X msg 653 180 0;
#X obj 425 282 snapshot~;
#X floatatom 425 306 5 0 0 0 - - - 0;
#X obj 501 229 bng 19 250 50 0 empty empty empty 0 -10 0 12 #fcfcfc #000000 #000000;
#X obj 560 287 snapshot~;
#X floatatom 560 311 5 0 0 0 - - - 0;
#X obj 390 240 bng 19 250 50 0 empty empty empty 0 -10 0 12 #fcfcfc #000000 #000000;
#X obj 158 352 *~;
#X obj 142 311 osc~ 440;
#X connect 0 0 3 0;
#X connect 1 0 9 0;
#X connect 2 0 3 2;
#X connect 3 0 4 0;
#X connect 4 0 5 0;
#X connect 5 0 6 0;
#X connect 5 1 7 0;
#X connect 5 2 8 0;
#X connect 9 0 3 0;
#X connect 9 1 3 1;
#X connect 10 0 17 0;
#X connect 11 0 10 0;
#X connect 11 0 14 0;
#X connect 12 0 10 1;
#X connect 13 0 10 1;
#X connect 14 0 15 0;
#X connect 16 0 17 0;
#X connect 17 0 18 0;
#X connect 19 0 14 0;
#X connect 21 0 20 0;
