#N canvas 1031 373 807 613 12;
#X obj 134 97 NOR;
#X obj 116 135 NOR;
#X obj 91 70 t f f;
#X text 174 97 1;
#X obj 36 20 inlet a;
#X obj 118 21 inlet b;
#X obj 54 197 outlet T1;
#X obj 151 197 outlet T2;
#X text 156 137 2;
#X connect 0 0 1 1;
#X connect 0 0 6 0;
#X connect 1 0 7 0;
#X connect 2 0 1 0;
#X connect 2 1 0 0;
#X connect 4 0 2 0;
#X connect 5 0 0 1;
