#N canvas 212 65 1360 836 12;
#X obj 245 144 t b f;
#X obj 73 176 expr if ($f1 == 0 && $f2 == 0 \, if ($f3 == 1 \, 1 \, 0) \, if ($f1 == 0 \, 0 \, 1));
#X obj 75 240 f;
#X obj 111 238 t b f;
#X obj 44 331 != 1;
#X obj 44 356 print !Q;
#X obj 53 13 inlet K;
#X obj 267 11 inlet J;
#X obj 146 13 inlet clk;
#X obj 398 13 inlet reset;
#X msg 389 88 0;
#X obj 398 37 sel 1;
#X msg 431 88 1;
#X obj 398 61 t b b;
#X obj 147 44 bang;
#X obj 72 271 t f f;
#X obj 200 348 print Q;
#X obj 111 356 outlet !Q;
#X obj 264 348 outlet Q;
#X connect 0 0 1 0;
#X connect 0 1 1 1;
#X connect 1 0 2 1;
#X connect 2 0 3 0;
#X connect 2 0 15 0;
#X connect 3 0 1 0;
#X connect 3 1 1 2;
#X connect 4 0 5 0;
#X connect 4 0 17 0;
#X connect 6 0 0 0;
#X connect 7 0 1 0;
#X connect 8 0 14 0;
#X connect 9 0 11 0;
#X connect 10 0 2 0;
#X connect 10 0 1 0;
#X connect 11 0 13 0;
#X connect 12 0 0 0;
#X connect 13 0 10 0;
#X connect 13 1 12 0;
#X connect 14 0 1 0;
#X connect 14 0 2 0;
#X connect 15 0 4 0;
#X connect 15 1 16 0;
#X connect 15 1 18 0;
