#N canvas 228 228 1920 1016 12;
#X obj 309 210 JK, f 9;
#X obj 350 169 tgl 25 0 empty empty J 0 -10 0 12 #ffe3c6 #000000 #000000 0 1;
#X obj 297 170 tgl 25 0 empty empty K 0 -10 0 12 #feffc6 #000000 #000000 0 1;
#X obj 323 98 tgl 19 0 empty empty empty 0 -10 0 12 #fcfcfc #000000 #000000 0 1;
#X obj 323 146 tgl 19 0 empty empty empty 0 -10 0 12 #fcfcfc #000000 #000000 0 1;
#X obj 323 122 metro 500;
#X obj 422 153 tgl 19 0 empty empty Reset 0 -10 0 12 #fcfcfc #000000 #000000 0 1;
#X obj 312 253 tgl 25 0 empty empty !Q 0 -10 0 12 #c6feff #000000 #000000 0 1;
#X obj 367 253 tgl 25 0 empty empty Q 0 -10 0 12 #c6ffc7 #000000 #000000 0 1;
#X connect 0 0 7 0;
#X connect 0 1 8 0;
#X connect 1 0 0 2;
#X connect 2 0 0 0;
#X connect 3 0 5 0;
#X connect 4 0 0 1;
#X connect 5 0 4 0;
#X connect 6 0 0 3;
