#N canvas 38 38 1920 1016 12;
#X obj 27 36 inlet~;
#X obj 95 35 inlet Q;
#X obj 95 59 t f f;
#X obj 27 112 bp~ 3200;
#X obj 95 113 bp~ 200;
#X obj 163 35 inlet high;
#X obj 246 35 inlet low;
#X obj 27 136 *~;
#X obj 95 137 *~;
#X obj 27 160 outlet~;
#X obj 95 161 outlet~;
#X connect 0 0 3 0;
#X connect 0 0 4 0;
#X connect 1 0 2 0;
#X connect 2 0 3 2;
#X connect 2 1 4 2;
#X connect 3 0 7 0;
#X connect 4 0 8 0;
#X connect 5 0 7 1;
#X connect 6 0 8 1;
#X connect 7 0 9 0;
#X connect 8 0 10 0;
