#N canvas 114 114 1920 1016 12;
#X obj 95 189 tgl 24 0 empty empty empty 0 -10 0 12 #00faff #000000 #000000 0 1;
#X obj 149 189 tgl 24 0 empty empty empty 0 -10 0 12 #00faff #000000 #000000 0 1;
#X obj 199 189 tgl 24 0 empty empty empty 0 -10 0 12 #00faff #000000 #000000 0 1;
#X obj 246 189 tgl 24 0 empty empty empty 0 -10 0 12 #00faff #000000 #000000 0 1;
#X obj 293 189 tgl 24 0 empty empty empty 0 -10 0 12 #00faff #000000 #000000 0 1;
#X obj 338 189 tgl 24 0 empty empty empty 0 -10 0 12 #00faff #000000 #000000 0 1;
#X obj 477 189 tgl 24 0 empty empty empty 0 -10 0 12 #00faff #000000 #000000 0 1;
#X obj 524 189 tgl 24 0 empty empty empty 0 -10 0 12 #00faff #000000 #000000 0 1;
#X msg -159 217 1;
#X obj 256 122 tgl 30 0 empty empty Sound 0 -10 0 12 #e3c6ff #000000 #000000 0 1;
#X msg -149 257 \; pd dsp \$1;
#X text -127 234 Sound;
#X obj 125 122 tgl 30 0 empty empty ON/OFF 0 -10 0 12 #c7c6ff #000000 #000000 0 1;
#X obj 385 189 tgl 24 0 empty empty empty 0 -10 0 12 #00faff #000000 #000000 0 1;
#X obj 433 189 tgl 24 0 empty empty empty 0 -10 0 12 #00faff #000000 #000000 0 1;
#X obj 303 123 bng 30 250 50 0 empty empty Reset 0 -10 0 12 #ffe3c6 #000000 #000000;
#X floatatom 29 10 5 0 0 0 - - - 0;
#X obj 8 70 timer;
#X obj 8 40 bang;
#X msg -130 313 1;
#X obj -130 337 t f f f f f f f f f;
#X obj 151 353 vradio 19 1 1 3 empty empty empty 0 -10 0 12 #fcfcfc #000000 #000000 1;
#X obj 201 353 vradio 19 1 1 3 empty empty empty 0 -10 0 12 #fcfcfc #000000 #000000 1;
#X obj 249 353 vradio 19 1 1 3 empty empty empty 0 -10 0 12 #fcfcfc #000000 #000000 1;
#X obj 296 353 vradio 19 1 1 3 empty empty empty 0 -10 0 12 #fcfcfc #000000 #000000 1;
#X obj 341 353 vradio 19 1 1 3 empty empty empty 0 -10 0 12 #fcfcfc #000000 #000000 1;
#X obj 391 353 vradio 19 1 1 3 empty empty empty 0 -10 0 12 #fcfcfc #000000 #000000 1;
#X obj 437 353 vradio 19 1 1 3 empty empty empty 0 -10 0 12 #fcfcfc #000000 #000000 1;
#X obj 480 353 vradio 19 1 1 3 empty empty empty 0 -10 0 12 #fcfcfc #000000 #000000 1;
#X obj 524 352 vradio 19 1 1 3 empty empty empty 0 -10 0 12 #fcfcfc #000000 #000000 1;
#X obj 98 353 vradio 19 1 1 3 empty empty empty 0 -10 0 12 #fcfcfc #000000 #000000 2;
#X obj 179 122 nbx 5 17 -1e+37 1e+37 0 1 empty empty BPM 0 -10 0 12 #fcfcfc #000000 #000000 528 256;
#X msg -159 169 tempo \$1 permin;
#X obj -159 194 metro 1 300 permin;
#X obj -157 36 loadbang;
#X msg -157 89 300;
#X obj -39 68 bng 19 250 50 0 empty empty empty 0 -10 0 12 #fcfcfc #000000 #000000;
#X obj -157 60 t b b;
#X msg -122 89 1;
#X obj -122 115 t f f f f f f f f f f;
#X obj -192 407 logic, f 38;
#X obj 92 455 step, f 8;
#X obj 820 169 hsl 100 25 200 6400 0 0 hpf empty HPF -2 -10 1 12 #fcfcfc #000000 #000000 0 1;
#X obj 820 271 hsl 100 25 50 6400 0 0 lpf empty LPF -2 -10 1 12 #fcfcfc #000000 #000000 0 1;
#X obj 818 218 hsl 100 25 0 1 0 0 gain empty Gain -2 -10 1 12 #fcfcfc #000000 #000000 0 1;
#X obj 822 320 hsl 100 25 0 1 0 0 sq empty SQ -2 -10 1 12 #fcfcfc #000000 #000000 0 1;
#X obj 944 167 hsl 100 25 0 1 0 0 high empty BPH -2 -10 1 12 #fcfcfc #000000 #000000 0 1;
#X obj 944 217 hsl 100 25 0 1 0 0 low empty BPL -2 -10 1 12 #fcfcfc #000000 #000000 0 1;
#X obj 945 269 hsl 100 25 12 1200 0 0 speed empty Speed -2 -10 1 12 #fcfcfc #000000 #000000 0 1;
#X obj 1065 215 hsl 100 25 0 10 0 0 grov empty Tune -2 -10 1 12 #fcfcfc #000000 #000000 0 1;
#X obj 1067 269 hsl 100 25 0 10 0 0 amp empty Amp -2 -10 1 12 #fcfcfc #000000 #000000 0 1;
#X obj 1064 167 hsl 100 25 0 135 0 0 mod empty Mod -2 -10 1 12 #fcfcfc #000000 #000000 0 1;
#X obj 619 198 tgl 15 1 1a - HPF -25 8 1 8 #fcfcfc #000000 #000000 0 1;
#X obj 634 198 tgl 15 1 2a - empty 17 7 0 10 #fcfcfc #000000 #000000 0 1;
#X obj 649 198 tgl 15 1 3a - empty 17 7 0 10 #fcfcfc #000000 #000000 0 1;
#X obj 664 198 tgl 15 1 4a - empty 17 7 0 10 #fcfcfc #000000 #000000 0 1;
#X obj 619 213 tgl 15 1 1b - Direct -25 8 1 8 #fcfcfc #000000 #000000 0 1;
#X obj 634 213 tgl 15 0 2b - empty 17 7 0 10 #fcfcfc #000000 #000000 0 1;
#X obj 649 213 tgl 15 1 3b - empty 17 7 0 10 #fcfcfc #000000 #000000 0 1;
#X obj 664 213 tgl 15 1 4b - empty 17 7 0 10 #fcfcfc #000000 #000000 0 1;
#X obj 619 228 tgl 15 1 1c - LPF -25 8 1 8 #fcfcfc #000000 #000000 0 1;
#X obj 634 228 tgl 15 1 2c - empty 17 7 0 10 #fcfcfc #000000 #000000 0 1;
#X obj 649 228 tgl 15 1 3c - empty 17 7 0 10 #fcfcfc #000000 #000000 0 1;
#X obj 664 228 tgl 15 1 4c - empty 17 7 0 10 #fcfcfc #000000 #000000 0 1;
#X obj 619 243 tgl 15 1 1d - SQ -25 8 1 8 #fcfcfc #000000 #000000 0 1;
#X obj 634 243 tgl 15 1 2d - empty 17 7 0 10 #fcfcfc #000000 #000000 0 1;
#X obj 649 243 tgl 15 1 3d - empty 17 7 0 10 #fcfcfc #000000 #000000 0 1;
#X obj 664 243 tgl 15 1 4d - empty 17 7 0 10 #fcfcfc #000000 #000000 0 1;
#X text 623 181 1;
#X text 639 181 2;
#X text 668 181 4;
#X text 654 181 3;
#X obj 619 258 tgl 15 1 1e - BPF\ 1 -25 8 1 8 #fcfcfc #000000 #000000 0 1;
#X obj 634 258 tgl 15 1 2e - empty 17 7 0 10 #fcfcfc #000000 #000000 0 1;
#X obj 649 258 tgl 15 1 3e - empty 17 7 0 10 #fcfcfc #000000 #000000 0 1;
#X obj 664 258 tgl 15 1 4e - empty 17 7 0 10 #fcfcfc #000000 #000000 0 1;
#X obj 619 273 tgl 15 1 1f - BPF\ 2 -25 8 1 8 #fcfcfc #000000 #000000 0 1;
#X obj 634 273 tgl 15 0 2f - empty 17 7 0 10 #fcfcfc #000000 #000000 0 1;
#X obj 649 273 tgl 15 1 3f - empty 17 7 0 10 #fcfcfc #000000 #000000 0 1;
#X obj 664 273 tgl 15 1 4f - empty 17 7 0 10 #fcfcfc #000000 #000000 0 1;
#X obj 619 288 tgl 15 1 1g - BPF\ 3 -25 8 1 8 #fcfcfc #000000 #000000 0 1;
#X obj 634 288 tgl 15 1 2g - empty 17 7 0 10 #fcfcfc #000000 #000000 0 1;
#X obj 649 288 tgl 15 1 3g - empty 17 7 0 10 #fcfcfc #000000 #000000 0 1;
#X obj 664 288 tgl 15 1 4g - empty 17 7 0 10 #fcfcfc #000000 #000000 0 1;
#X obj 619 303 tgl 15 1 1h - BPF\ 4 -25 8 1 8 #fcfcfc #000000 #000000 0 1;
#X obj 634 303 tgl 15 1 2h - empty 17 7 0 10 #fcfcfc #000000 #000000 0 1;
#X obj 649 303 tgl 15 1 3h - empty 17 7 0 10 #fcfcfc #000000 #000000 0 1;
#X obj 664 303 tgl 15 1 4h - empty 17 7 0 10 #fcfcfc #000000 #000000 0 1;
#X obj 679 198 tgl 15 1 5a - empty -25 8 0 8 #fcfcfc #000000 #fc2828 0 1;
#X obj 694 198 tgl 15 1 6a - 6 0 -10 0 10 #fcfcfc #000000 #000000 0 1;
#X obj 709 198 tgl 15 1 7a - 7 5 -10 0 10 #fcfcfc #000000 #000000 0 1;
#X obj 724 198 tgl 15 1 8a - empty 17 7 0 10 #fcfcfc #000000 #000000 0 1;
#X obj 679 213 tgl 15 1 5b - empty -25 8 0 8 #fcfcfc #000000 #fc2828 0 1;
#X obj 694 213 tgl 15 0 6b - empty 17 7 0 10 #fcfcfc #000000 #000000 0 1;
#X obj 709 213 tgl 15 1 7b - empty 17 7 0 10 #fcfcfc #000000 #000000 0 1;
#X obj 724 213 tgl 15 1 8b - empty 17 7 0 10 #fcfcfc #000000 #000000 0 1;
#X obj 679 228 tgl 15 1 5c - empty -25 8 0 8 #fcfcfc #000000 #fc2828 0 1;
#X obj 694 228 tgl 15 1 6c - empty 17 7 0 10 #fcfcfc #000000 #000000 0 1;
#X obj 709 228 tgl 15 1 7c - empty 17 7 0 10 #fcfcfc #000000 #000000 0 1;
#X obj 724 228 tgl 15 1 8c - empty 17 7 0 10 #fcfcfc #000000 #000000 0 1;
#X obj 679 243 tgl 15 1 5d - empty -25 8 0 8 #fcfcfc #000000 #fc2828 0 1;
#X obj 694 243 tgl 15 1 6d - empty 17 7 0 10 #fcfcfc #000000 #000000 0 1;
#X obj 709 243 tgl 15 1 7d - empty 17 7 0 10 #fcfcfc #000000 #000000 0 1;
#X obj 724 243 tgl 15 1 8d - empty 17 7 0 10 #fcfcfc #000000 #000000 0 1;
#X obj 679 258 tgl 15 1 5e - empty -25 8 0 8 #fcfcfc #000000 #fc2828 0 1;
#X obj 694 258 tgl 15 1 6e - empty 17 7 0 10 #fcfcfc #000000 #000000 0 1;
#X obj 709 258 tgl 15 1 7e - empty 17 7 0 10 #fcfcfc #000000 #000000 0 1;
#X obj 724 258 tgl 15 1 8e - empty 17 7 0 10 #fcfcfc #000000 #000000 0 1;
#X obj 679 273 tgl 15 1 5f - empty -25 8 0 8 #fcfcfc #000000 #fc2828 0 1;
#X obj 694 273 tgl 15 0 6f - empty 17 7 0 10 #fcfcfc #000000 #000000 0 1;
#X obj 709 273 tgl 15 1 7f - empty 17 7 0 10 #fcfcfc #000000 #000000 0 1;
#X obj 724 273 tgl 15 1 8f - empty 17 7 0 10 #fcfcfc #000000 #000000 0 1;
#X obj 679 288 tgl 15 1 5g - empty -25 8 0 8 #fcfcfc #000000 #fc2828 0 1;
#X obj 694 288 tgl 15 1 6g - empty 17 7 0 10 #fcfcfc #000000 #000000 0 1;
#X obj 709 288 tgl 15 1 7g - empty 17 7 0 10 #fcfcfc #000000 #000000 0 1;
#X obj 724 288 tgl 15 1 8g - empty 17 7 0 10 #fcfcfc #000000 #000000 0 1;
#X obj 679 303 tgl 15 1 5h - empty -25 8 0 8 #fcfcfc #000000 #fc2828 0 1;
#X obj 694 303 tgl 15 1 6h - empty 17 7 0 10 #fcfcfc #000000 #000000 0 1;
#X obj 709 303 tgl 15 1 7h - empty 17 7 0 10 #fcfcfc #000000 #000000 0 1;
#X obj 724 303 tgl 15 1 8h - empty 17 7 0 10 #fcfcfc #000000 #000000 0 1;
#X obj 739 198 tgl 15 1 9a - empty 17 7 0 10 #fcfcfc #000000 #000000 0 1;
#X obj 754 198 tgl 15 1 10a - empty 17 7 0 10 #fcfcfc #000000 #000000 0 1;
#X obj 739 213 tgl 15 1 9b - empty 17 7 0 10 #fcfcfc #000000 #000000 0 1;
#X obj 754 213 tgl 15 1 10b - empty 17 7 0 10 #fcfcfc #000000 #000000 0 1;
#X obj 739 228 tgl 15 1 9c - empty 17 7 0 10 #fcfcfc #000000 #000000 0 1;
#X obj 754 228 tgl 15 1 10c - empty 17 7 0 10 #fcfcfc #000000 #000000 0 1;
#X obj 739 243 tgl 15 1 9d - empty 17 7 0 10 #fcfcfc #000000 #000000 0 1;
#X obj 754 243 tgl 15 1 10d - empty 17 7 0 10 #fcfcfc #000000 #000000 0 1;
#X obj 739 258 tgl 15 1 9e - empty 17 7 0 10 #fcfcfc #000000 #000000 0 1;
#X obj 754 258 tgl 15 1 10e - empty 17 7 0 10 #fcfcfc #000000 #000000 0 1;
#X obj 739 273 tgl 15 1 9f - empty 17 7 0 10 #fcfcfc #000000 #000000 0 1;
#X obj 754 273 tgl 15 1 10f - empty 17 7 0 10 #fcfcfc #000000 #000000 0 1;
#X obj 739 288 tgl 15 1 9g - empty 17 7 0 10 #fcfcfc #000000 #000000 0 1;
#X obj 754 288 tgl 15 1 10g - empty 17 7 0 10 #fcfcfc #000000 #000000 0 1;
#X obj 739 303 tgl 15 1 9h - empty 17 7 0 10 #fcfcfc #000000 #000000 0 1;
#X obj 754 303 tgl 15 1 10h - empty 17 7 0 10 #fcfcfc #000000 #000000 0 1;
#X text 683 181 5;
#X text 699 181 6;
#X text 714 181 7;
#X text 728 181 8;
#X text 744 181 9;
#X text 753 181 10;
#N canvas 872 200 1920 1016 filterpack1 0;
#X obj 99 93 filterpack, f 20;
#X obj 31 66 r 1a;
#X obj 69 66 r 1b;
#X obj 105 67 r 1c;
#X obj 142 67 r 1d;
#X obj 178 66 r 1e;
#X obj 216 66 r 1f;
#X obj 251 67 r 1g;
#X obj 289 67 r 1h;
#X listbox 99 117 20 0 0 0 - - - 0;
#X obj 107 204 outlet;
#X connect 0 0 9 0;
#X connect 0 0 10 0;
#X connect 1 0 0 0;
#X connect 2 0 0 1;
#X connect 3 0 0 2;
#X connect 4 0 0 3;
#X connect 5 0 0 4;
#X connect 6 0 0 5;
#X connect 7 0 0 6;
#X connect 8 0 0 7;
#X restore -76 520 pd filterpack1;
#N canvas -235 141 1890 1016 filterpack10 0;
#X obj 111 77 filterpack, f 20;
#X listbox 111 101 20 0 0 0 - - - 0;
#X obj 24 51 r 10a;
#X obj 65 51 r 10b;
#X obj 109 51 r 10c;
#X obj 151 52 r 10d;
#X obj 194 52 r 10e;
#X obj 235 51 r 10f;
#X obj 277 50 r 10g;
#X obj 321 49 r 10h;
#X obj 132 172 outlet;
#X connect 0 0 1 0;
#X connect 0 0 10 0;
#X connect 2 0 0 0;
#X connect 3 0 0 1;
#X connect 4 0 0 2;
#X connect 5 0 0 3;
#X connect 6 0 0 4;
#X connect 7 0 0 5;
#X connect 8 0 0 6;
#X connect 9 0 0 7;
#X restore -77 500 pd filterpack10;
#N canvas 152 152 1613 817 filterpack2 0;
#X obj 88 58 filterpack, f 20;
#X listbox 88 82 20 0 0 0 - - - 0;
#X obj 20 31 r 2a;
#X obj 58 31 r 2b;
#X obj 94 32 r 2c;
#X obj 240 32 r 2g;
#X obj 205 31 r 2f;
#X obj 168 31 r 2e;
#X obj 131 32 r 2d;
#X obj 278 32 r 2h;
#X obj 94 118 outlet;
#X connect 0 0 1 0;
#X connect 1 0 10 0;
#X connect 2 0 0 0;
#X connect 3 0 0 1;
#X connect 4 0 0 2;
#X connect 5 0 0 6;
#X connect 6 0 0 5;
#X connect 7 0 0 4;
#X connect 8 0 0 3;
#X connect 9 0 0 7;
#X restore -75 478 pd filterpack2;
#N canvas 870 214 885 448 filterpack3 0;
#X obj 88 58 filterpack, f 20;
#X listbox 88 82 20 0 0 0 - - - 0;
#X obj 20 31 r 3a;
#X obj 57 31 r 3b;
#X obj 94 32 r 3c;
#X obj 131 32 r 3d;
#X obj 168 31 r 3e;
#X obj 205 31 r 3f;
#X obj 240 32 r 3g;
#X obj 278 32 r 3h;
#X obj 111 136 outlet;
#X connect 0 0 1 0;
#X connect 0 0 10 0;
#X connect 2 0 0 0;
#X connect 3 0 0 1;
#X connect 4 0 0 2;
#X connect 5 0 0 3;
#X connect 6 0 0 4;
#X connect 7 0 0 5;
#X connect 8 0 0 6;
#X connect 9 0 0 7;
#X restore -76 542 pd filterpack3;
#X msg 809 447 \; - 1;
#N canvas 791 230 759 470 filterpack4 0;
#X obj 100 66 filterpack, f 20;
#X listbox 100 90 20 0 0 0 - - - 0;
#X obj 32 39 r 4a;
#X obj 70 39 r 4b;
#X obj 106 40 r 4c;
#X obj 143 40 r 4d;
#X obj 180 39 r 4e;
#X obj 217 39 r 4f;
#X obj 252 40 r 4g;
#X obj 290 40 r 4h;
#X obj 139 163 outlet;
#X connect 0 0 1 0;
#X connect 0 0 10 0;
#X connect 2 0 0 0;
#X connect 3 0 0 1;
#X connect 4 0 0 2;
#X connect 5 0 0 3;
#X connect 6 0 0 4;
#X connect 7 0 0 5;
#X connect 8 0 0 6;
#X connect 9 0 0 7;
#X restore -76 633 pd filterpack4;
#N canvas 38 38 1718 910 filterpack5 0;
#X obj 92 57 filterpack, f 20;
#X listbox 92 81 20 0 0 0 - - - 0;
#X obj 24 30 r 5a;
#X obj 62 30 r 5b;
#X obj 98 31 r 5c;
#X obj 135 31 r 5d;
#X obj 172 30 r 5e;
#X obj 209 30 r 5f;
#X obj 244 31 r 5g;
#X obj 282 31 r 5h;
#X obj 135 123 outlet;
#X connect 0 0 1 0;
#X connect 0 0 10 0;
#X connect 2 0 0 0;
#X connect 3 0 0 1;
#X connect 4 0 0 2;
#X connect 5 0 0 3;
#X connect 6 0 0 4;
#X connect 7 0 0 5;
#X connect 8 0 0 6;
#X connect 9 0 0 7;
#X restore -71 452 pd filterpack5;
#N canvas 38 38 1920 1016 filterpack6 0;
#X obj 88 57 filterpack, f 20;
#X listbox 88 81 20 0 0 0 - - - 0;
#X obj 20 30 r 6a;
#X obj 58 30 r 6b;
#X obj 94 31 r 6c;
#X obj 131 31 r 6d;
#X obj 168 30 r 6e;
#X obj 205 30 r 6f;
#X obj 240 31 r 6g;
#X obj 278 31 r 6h;
#X obj 196 194 outlet;
#X connect 0 0 1 0;
#X connect 0 0 10 0;
#X connect 2 0 0 0;
#X connect 3 0 0 1;
#X connect 4 0 0 2;
#X connect 5 0 0 3;
#X connect 6 0 0 4;
#X connect 7 0 0 5;
#X connect 8 0 0 6;
#X connect 9 0 0 7;
#X restore -77 564 pd filterpack6;
#N canvas -38 176 1920 1016 filterpack7 0;
#X obj 88 57 filterpack, f 20;
#X listbox 88 81 20 0 0 0 - - - 0;
#X obj 20 30 r 7a;
#X obj 58 30 r 7b;
#X obj 94 31 r 7c;
#X obj 131 31 r 7d;
#X obj 168 30 r 7e;
#X obj 205 30 r 7f;
#X obj 240 31 r 7g;
#X obj 278 31 r 7h;
#X obj 176 225 outlet;
#X connect 0 0 1 0;
#X connect 0 0 10 0;
#X connect 2 0 0 0;
#X connect 3 0 0 1;
#X connect 4 0 0 2;
#X connect 5 0 0 3;
#X connect 6 0 0 4;
#X connect 7 0 0 5;
#X connect 8 0 0 6;
#X connect 9 0 0 7;
#X restore -75 610 pd filterpack7;
#N canvas -206 254 1920 1016 filterpack8 0;
#X obj 88 57 filterpack, f 20;
#X listbox 88 81 20 0 0 0 - - - 0;
#X obj 20 30 r 8a;
#X obj 58 30 r 8b;
#X obj 94 31 r 8c;
#X obj 131 31 r 8d;
#X obj 168 30 r 8e;
#X obj 205 31 r 8f;
#X obj 240 31 r 8g;
#X obj 280 31 r 8h;
#X obj 97 147 outlet;
#X connect 0 0 1 0;
#X connect 0 0 10 0;
#X connect 2 0 0 0;
#X connect 3 0 0 1;
#X connect 4 0 0 2;
#X connect 5 0 0 3;
#X connect 6 0 0 4;
#X connect 7 0 0 5;
#X connect 8 0 0 6;
#X connect 9 0 0 7;
#X restore -70 433 pd filterpack8;
#N canvas -144 413 1920 1016 filterpack9 0;
#X obj 88 57 filterpack, f 20;
#X listbox 88 81 20 0 0 0 - - - 0;
#X obj 20 30 r 9a;
#X obj 58 28 r 9b;
#X obj 94 31 r 9c;
#X obj 131 31 r 9d;
#X obj 168 30 r 9e;
#X obj 205 30 r 9f;
#X obj 240 31 r 9g;
#X obj 278 31 r 9h;
#X obj 93 125 outlet;
#X connect 0 0 1 0;
#X connect 0 0 10 0;
#X connect 2 0 0 0;
#X connect 3 0 0 1;
#X connect 4 0 0 2;
#X connect 5 0 0 3;
#X connect 6 0 0 4;
#X connect 7 0 0 5;
#X connect 8 0 0 6;
#X connect 9 0 0 7;
#X restore -76 588 pd filterpack9;
#X msg 808 482 \; - 0;
#X obj 148 571 r hpf;
#X floatatom 148 595 5 0 0 0 - - - 0;
#X obj 191 571 r high;
#X floatatom 191 595 5 0 0 0 - - - 0;
#X obj 241 570 r mod;
#X floatatom 241 594 5 0 0 0 - - - 0;
#X obj 284 570 r gain;
#X floatatom 284 594 5 0 0 0 - - - 0;
#X obj 334 570 r low;
#X floatatom 334 594 5 0 0 0 - - - 0;
#X obj 476 568 r speed;
#X floatatom 476 592 5 0 0 0 - - - 0;
#X obj 534 569 r amp;
#X floatatom 534 593 5 0 0 0 - - - 0;
#X obj 585 569 r sq;
#X floatatom 585 593 5 0 0 0 - - - 0;
#X obj 380 569 r grov;
#X floatatom 380 593 5 0 0 0 - - - 0;
#X obj 432 568 r lpf;
#X floatatom 432 592 5 0 0 0 - - - 0;
#X obj 898 475 r gain;
#X obj 253 22 r speed;
#X obj 61 23 hsl 25 30 20 2000 1 0 empty empty Pitch -2 -10 1 12 #fcfcfc #000000 #000000 0 1;
#X floatatom 58 58 5 0 0 0 - - - 0;
#X obj 94 236 hsl 25 30 20 2000 1 0 empty empty Pitch -40 10 1 12 #fcfcfc #000000 #000000 0 1;
#X obj 148 235 hsl 25 30 20 2000 1 0 empty empty empty -2 -10 1 12 #fcfcfc #000000 #000000 0 1;
#X obj 197 234 hsl 25 30 20 2000 1 0 empty empty empty -2 -10 1 12 #fcfcfc #000000 #000000 0 1;
#X obj 245 232 hsl 25 30 20 2000 1 0 empty empty empty -2 -10 1 12 #fcfcfc #000000 #000000 0 1;
#X obj 294 232 hsl 25 30 20 2000 1 0 empty empty empty -2 -10 1 12 #fcfcfc #000000 #000000 0 1;
#X obj 339 231 hsl 25 30 20 2000 1 0 empty empty empty -2 -10 1 12 #fcfcfc #000000 #000000 0 1;
#X obj 388 230 hsl 25 30 20 2000 1 0 empty empty empty -2 -10 1 12 #fcfcfc #000000 #000000 0 1;
#X obj 436 229 hsl 25 30 20 2000 1 0 empty empty empty -2 -10 1 12 #fcfcfc #000000 #000000 0 1;
#X obj 479 229 hsl 25 30 20 2000 1 0 empty empty empty -2 -10 1 12 #fcfcfc #000000 #000000 0 1;
#X obj 524 229 hsl 25 30 20 2000 1 0 empty empty empty -2 -10 1 12 #fcfcfc #000000 #000000 0 1;
#X obj 93 283 hsl 25 30 0.01 1 1 0 empty empty Gain -40 10 1 12 #fcfcfc #000000 #000000 0 1;
#X obj 145 283 hsl 25 30 0.01 1 1 0 empty empty empty -40 10 1 12 #fcfcfc #000000 #000000 0 1;
#X obj 196 283 hsl 25 30 0.01 1 1 0 empty empty empty -40 10 1 12 #fcfcfc #000000 #000000 0 1;
#X obj 244 282 hsl 25 30 0.01 1 1 0 empty empty empty -40 10 1 12 #fcfcfc #000000 #000000 0 1;
#X obj 295 281 hsl 25 30 0.01 1 1 0 empty empty empty -40 10 1 12 #fcfcfc #000000 #000000 0 1;
#X obj 346 281 hsl 25 30 0.01 1 1 0 empty empty empty -40 10 1 12 #fcfcfc #000000 #000000 0 1;
#X obj 392 281 hsl 25 30 0.01 1 1 0 empty empty empty -40 10 1 12 #fcfcfc #000000 #000000 0 1;
#X obj 435 280 hsl 25 30 0.01 1 1 0 empty empty empty -40 10 1 12 #fcfcfc #000000 #000000 0 1;
#X obj 482 280 hsl 25 30 0.01 1 1 0 empty empty empty -40 10 1 12 #fcfcfc #000000 #000000 0 1;
#X obj 528 280 hsl 25 30 0.01 1 1 0 empty empty empty -40 10 1 12 #fcfcfc #000000 #000000 0 1;
#X obj 162 457 step, f 8;
#X obj 231 458 step, f 8;
#X obj 301 460 step, f 8;
#X obj 369 456 step, f 8;
#X obj 439 458 step, f 8;
#X obj 508 459 step, f 8;
#X obj 578 461 step, f 8;
#X obj 495 511 step, f 8;
#X obj 565 513 step, f 8;
#X obj 724 593 sound, f 21;
#X obj 670 439 tgl 19 0 empty empty empty 0 -10 0 12 #fcfcfc #000000 #000000 0 1;
#X obj 670 463 metro 100;
#N canvas 0 50 450 250 (subpatch) 0;
#X array signal 100 float 1;
#A 0 -2.2 -2.2 -2.2 -2.2 -2.2 -2.2 -2.2 -2.2 -2.2 -2.2 -2.2 -2.2 -2.2 -2.2 -2.2 -2.2 -2.2 -2.2 -2.2 -2.2 -2.2 -2.2 -2.2 -2.2 -2.2 -2.2 -2.2 -2.2 -2.2 -2.2 -2.2 -2.2 -2.2 -2.2 -2.2 -2.2 -2.2 -2.2 -2.2 -2.2 -2.2 -2.2 -2.2 -2.2 -2.2 -2.2 -2.2 -2.2 -2.2 -2.2 -2.2 -2.2 -2.2 -2.2 -2.2 -2.2 -2.2 -2.2 -2.2 -2.2 -2.2 -2.2 -2.2 -2.2 -2.2 -2.2 -2.2 -2.2 -2.2 -2.2 -2.2 -2.2 -2.2 -2.2 -2.2 -2.2 -2.2 -2.2 -2.2 -2.2 -2.2 -2.2 -2.2 -2.2 -2.2 -2.2 -2.2 -2.2 -2.2 -2.2 -2.2 -2.2 -2.2 -2.2 -2.2 -2.2 -2.2 -2.2 -2.2 -2.2;
#X coords 0 1 99 -1 200 140 1;
#X restore 466 10 graph;
#X obj 670 487 tabwrite~ signal;
#X connect 0 0 18 0;
#X connect 0 0 41 0;
#X connect 1 0 198 0;
#X connect 2 0 199 0;
#X connect 3 0 200 0;
#X connect 4 0 201 0;
#X connect 5 0 202 0;
#X connect 6 0 205 0;
#X connect 7 0 206 0;
#X connect 8 0 40 0;
#X connect 9 0 10 0;
#X connect 12 0 33 0;
#X connect 13 0 203 0;
#X connect 14 0 204 0;
#X connect 15 0 19 0;
#X connect 17 0 16 0;
#X connect 18 0 17 1;
#X connect 18 0 17 0;
#X connect 19 0 20 0;
#X connect 19 0 40 1;
#X connect 21 0 40 3;
#X connect 22 0 40 4;
#X connect 23 0 40 5;
#X connect 24 0 40 6;
#X connect 25 0 40 7;
#X connect 26 0 40 8;
#X connect 27 0 40 9;
#X connect 28 0 40 10;
#X connect 29 0 40 11;
#X connect 30 0 40 2;
#X connect 31 0 32 0;
#X connect 32 0 33 0;
#X connect 33 0 8 0;
#X connect 34 0 37 0;
#X connect 35 0 31 0;
#X connect 36 0 38 0;
#X connect 37 0 35 0;
#X connect 37 1 38 0;
#X connect 38 0 39 0;
#X connect 39 0 30 0;
#X connect 39 1 21 0;
#X connect 39 2 22 0;
#X connect 39 3 23 0;
#X connect 39 4 24 0;
#X connect 39 5 25 0;
#X connect 39 6 26 0;
#X connect 39 7 27 0;
#X connect 39 8 28 0;
#X connect 39 9 29 0;
#X connect 40 0 15 0;
#X connect 40 1 0 0;
#X connect 40 2 1 0;
#X connect 40 3 2 0;
#X connect 40 4 3 0;
#X connect 40 5 4 0;
#X connect 40 6 5 0;
#X connect 40 7 13 0;
#X connect 40 8 14 0;
#X connect 40 9 6 0;
#X connect 40 10 7 0;
#X connect 41 0 207 0;
#X connect 142 0 41 3;
#X connect 143 0 206 3;
#X connect 144 0 198 3;
#X connect 145 0 199 3;
#X connect 147 0 200 3;
#X connect 148 0 201 3;
#X connect 149 0 202 3;
#X connect 150 0 203 3;
#X connect 151 0 204 3;
#X connect 152 0 205 3;
#X connect 154 0 155 0;
#X connect 156 0 157 0;
#X connect 158 0 159 0;
#X connect 160 0 161 0;
#X connect 162 0 163 0;
#X connect 164 0 165 0;
#X connect 166 0 167 0;
#X connect 168 0 169 0;
#X connect 170 0 171 0;
#X connect 172 0 173 0;
#X connect 174 0 207 10;
#X connect 175 0 31 0;
#X connect 176 0 177 0;
#X connect 178 0 41 1;
#X connect 179 0 198 1;
#X connect 180 0 199 1;
#X connect 181 0 200 1;
#X connect 182 0 201 1;
#X connect 183 0 202 1;
#X connect 184 0 203 1;
#X connect 185 0 204 1;
#X connect 186 0 205 1;
#X connect 187 0 206 1;
#X connect 188 0 41 2;
#X connect 189 0 198 2;
#X connect 190 0 199 2;
#X connect 191 0 200 2;
#X connect 192 0 201 2;
#X connect 193 0 202 2;
#X connect 194 0 203 2;
#X connect 195 0 204 2;
#X connect 196 0 205 2;
#X connect 197 0 206 2;
#X connect 198 0 207 1;
#X connect 199 0 207 2;
#X connect 200 0 207 3;
#X connect 201 0 207 4;
#X connect 202 0 207 5;
#X connect 203 0 207 6;
#X connect 204 0 207 7;
#X connect 205 0 207 8;
#X connect 206 0 207 9;
#X connect 207 0 211 0;
#X connect 208 0 209 0;
#X connect 209 0 211 0;
