#N canvas -6 0 1920 1016 12;
#X obj 235 54 phasor~ 440;
#X obj 333 153 tgl 19 0 empty empty empty 0 -10 0 12 #fcfcfc #000000 #000000 0 1;
#X obj 333 177 metro 100;
#N canvas 0 50 450 250 (subpatch) 0;
#X array array10 100 float 1;
#A 0 0 0 0 0 0 0 0 0 0 0 0 0 0 0 0 0 0 0 0 0 0 0 0 0 0 0 0 0 0 0 0 0 0 0 0 0 0 0 0 0 0 0 0 0 0 0 0 0 0 0 0 0 0 0 0 0 0 0 0 0 0 0 0 0 0 0 0 0 0 0 0 0 0 0 0 0 0 0 0 0 0 0 0 0 0 0 0 0 0 0 0 0 0 0 0 0 0 0 0 0;
#X coords 0 1 99 -1 200 140 1 0 0;
#X restore 635 256 graph;
#X obj 480 68 tgl 19 0 empty empty empty 0 -10 0 12 #fcfcfc #000000 #000000 0 1;
#X msg 480 92 \; pd dsp \$1;
#X obj 333 201 tabwrite~ array10;
#X obj 235 109 expr~ $v1 > 0.5;
#X obj 235 133 sqrt~;
#X obj 235 157 -~ 0.5;
#X obj 77 296 phasor~ 440;
#X obj 190 298 phasor~ -440;
#X obj 160 376 +~;
#X obj 160 400 -~ 1;
#X msg 289 270 0.5;
#X msg 291 295 0;
#X msg 206 258 0;
#X obj 261 226 bng 19 250 50 0 empty empty empty 0 -10 0 12 #fcfcfc #000000 #000000;
#X obj 368 436 dac~;
#X obj 368 401 *~;
#X obj 386 375 tgl 19 0 empty empty empty 0 -10 0 12 #fcfcfc #000000 #000000 0 1;
#X obj 432 438 dac~;
#X obj 432 403 *~;
#X obj 450 377 tgl 19 0 empty empty empty 0 -10 0 12 #fcfcfc #000000 #000000 0 1;
#X obj 279 134 -~ 0.5;
#X connect 0 0 7 0;
#X connect 1 0 2 0;
#X connect 2 0 6 0;
#X connect 4 0 5 0;
#X connect 7 0 8 0;
#X connect 7 0 24 0;
#X connect 8 0 9 0;
#X connect 9 0 22 0;
#X connect 10 0 12 0;
#X connect 11 0 12 1;
#X connect 12 0 13 0;
#X connect 13 0 19 0;
#X connect 14 0 11 1;
#X connect 15 0 11 1;
#X connect 16 0 10 1;
#X connect 17 0 16 0;
#X connect 17 0 14 0;
#X connect 19 0 18 0;
#X connect 19 0 18 1;
#X connect 20 0 19 1;
#X connect 22 0 21 0;
#X connect 22 0 21 1;
#X connect 23 0 22 1;
