#N canvas 76 76 1920 1016 12;
#X obj 142 72 loadbang;
#X msg 142 96 400;
#X obj 104 101 tgl 19 0 empty empty empty 0 -10 0 12 #fcfcfc #000000 #000000 0 1;
#X obj 104 125 metro;
#X obj 104 149 bng 19 250 50 0 empty empty empty 0 -10 0 12 #fcfcfc #000000 #000000;
#X floatatom 104 197 5 0 0 0 - - - 0;
#X obj 104 220 mod 10;
#X obj 104 244 + 1;
#X floatatom 104 268 5 0 0 0 - - - 0;
#X obj 105 292 sel 1 2 3 4 5 6 7 8 9 10;
#X obj 50 130 sel 0;
#X obj 50 154 bng 19 250 50 0 empty empty empty 0 -10 0 12 #fcfcfc #000000 #000000;
#X obj 9 82 loadbang;
#X obj 172 173 + 1;
#X obj 31 293 s all;
#X obj 77 326 bng 19 250 50 0 empty empty empty 0 -10 0 12 #fcfcfc #000000 #000000;
#X obj 123 327 bng 19 250 50 0 empty empty empty 0 -10 0 12 #fcfcfc #000000 #000000;
#X obj 171 326 bng 19 250 50 0 empty empty empty 0 -10 0 12 #fcfcfc #000000 #000000;
#X obj 235 327 bng 19 250 50 0 empty empty empty 0 -10 0 12 #fcfcfc #000000 #000000;
#X obj 295 329 bng 19 250 50 0 empty empty empty 0 -10 0 12 #fcfcfc #000000 #000000;
#X obj 362 328 bng 19 250 50 0 empty empty empty 0 -10 0 12 #fcfcfc #000000 #000000;
#X obj 420 329 bng 19 250 50 0 empty empty empty 0 -10 0 12 #fcfcfc #000000 #000000;
#X obj 475 327 bng 19 250 50 0 empty empty empty 0 -10 0 12 #fcfcfc #000000 #000000;
#X obj 548 327 bng 19 250 50 0 empty empty empty 0 -10 0 12 #fcfcfc #000000 #000000;
#X obj 601 324 bng 19 250 50 0 empty empty empty 0 -10 0 12 #fcfcfc #000000 #000000;
#X obj 77 350 s One;
#X obj 123 351 s Two;
#X obj 171 350 s Three;
#X obj 235 351 s Four;
#X obj 295 353 s Five;
#X obj 362 352 s Six;
#X obj 420 353 s Seven;
#X obj 481 353 s Eight;
#X obj 548 351 s Nine;
#X obj 602 349 s Ten;
#X obj 104 173 int 1;
#X msg 50 178 -1;
#X obj 316 153 r One;
#X obj 316 177 bng 19 250 50 0 empty empty empty 0 -10 0 12 #fcfcfc #000000 #000000;
#X obj 436 138 r all;
#X obj 436 162 sel 3;
#X obj 436 186 bng 19 250 50 0 empty empty empty 0 -10 0 12 #fcfcfc #000000 #000000;
#X obj 436 210 s Three;
#X obj 580 182 r Three;
#X obj 584 212 bng 19 250 50 0 empty empty empty 0 -10 0 12 #fcfcfc #000000 #000000;
#X connect 0 0 1 0;
#X connect 1 0 3 1;
#X connect 2 0 3 0;
#X connect 2 0 10 0;
#X connect 3 0 4 0;
#X connect 4 0 35 0;
#X connect 5 0 6 0;
#X connect 6 0 7 0;
#X connect 7 0 8 0;
#X connect 8 0 9 0;
#X connect 8 0 14 0;
#X connect 9 0 15 0;
#X connect 9 1 16 0;
#X connect 9 2 17 0;
#X connect 9 3 18 0;
#X connect 9 4 19 0;
#X connect 9 5 20 0;
#X connect 9 6 21 0;
#X connect 9 7 22 0;
#X connect 9 8 23 0;
#X connect 9 9 24 0;
#X connect 10 0 11 0;
#X connect 11 0 36 0;
#X connect 12 0 10 0;
#X connect 13 0 35 1;
#X connect 15 0 25 0;
#X connect 16 0 26 0;
#X connect 17 0 27 0;
#X connect 18 0 28 0;
#X connect 19 0 29 0;
#X connect 20 0 30 0;
#X connect 21 0 31 0;
#X connect 22 0 32 0;
#X connect 23 0 33 0;
#X connect 24 0 34 0;
#X connect 35 0 5 0;
#X connect 35 0 13 0;
#X connect 36 0 35 0;
#X connect 37 0 38 0;
#X connect 39 0 40 0;
#X connect 40 0 41 0;
#X connect 41 0 42 0;
#X connect 43 0 44 0;
