#N canvas 60 47 1920 1016 10;
#X obj 97 -79 inlet~;
#X obj 409 6 s \$0-blocksize;
#X obj 344 -52 \$1;
#X obj 344 -24 expr if($i1 > 0 \, $i1 \, 1024);
#X msg 344 6 set \$1;
#X obj 344 31 block~;
#X obj 113 -3 r \$0-blocksize;
#X obj 98 24 /~;
#X text 342 -101 Set the FFT block size.;
#X text 95 -102 Compute spectra.;
#X obj 344 -80 loadbang;
#X obj 296 -80 inlet;
#X text 18 -155 Plot the power spectrum of the input signal. Optional creation argument specifies FFT length (defaults to 1024).;
#N canvas 413 270 294 194 powspec~ 0;
#X obj 103 52 rfft~;
#X obj 108 113 +~;
#X obj 93 87 *~;
#X obj 126 87 *~;
#X obj 102 24 inlet~;
#X obj 108 142 outlet~;
#X connect 0 0 2 0;
#X connect 0 0 2 1;
#X connect 0 1 3 0;
#X connect 0 1 3 1;
#X connect 1 0 5 0;
#X connect 2 0 1 0;
#X connect 3 0 1 1;
#X connect 4 0 0 0;
#X restore 97 -26 pd powspec~;
#X obj 101 76 tabwrite~ \$0-signal;
#X obj 165 25 metro 100;
#N canvas 0 22 450 300 (subpatch) 0;
#X array \$0-signal 256 float 1;
#A 0 0 0 0 0 0 0 0 0 0 0 0 0 0 0 0 0 0 0 0 0 0 0 0 0 0 0 0 0 0 0 0 0 0 0 0 0 0 0 0 0 0 0 0 0 0 0 0 0 0 0 0 0 0 0 0 0 0 0 0 0 0 0 0 0 0 0 0 0 0 0 0 0 0 0 0 0 0 0 0 0 0 0 0 0 0 0 0 0 0 0 0 0 0 0 0 0 0 0 0 0 0 0 0 0 0 0 0 0 0 0 0 0 0 0 0 0 0 0 0 0 0 0 0 0 0 0 0 0 0 0 0 0 0 0 0 0 0 0 0 0 0 0 0 0 0 0 0 0 0 0 0 0 0 0 0 0 0 0 0 0 0 0 0 0 0 0 0 0 0 0 0 0 0 0 0 0 0 0 0 0 0 0 0 0 0 0 0 0 0 0 0 0 0 0 0 0 0 0 0 0 0 0 0 0 0 0 0 0 0 0 0 0 0 0 0 0 0 0 0 0 0 0 0 0 0 0 0 0 0 0 0 0 0 0 0 0 0 0 0 0 0 0 0 0 0 0 0 0 0 0 0 0 0 0 0 0;
#X coords 0 99 255 0 200 140 1;
#X restore 100 145 graph;
#X obj 194 124 tgl 15 0 empty empty empty 17 7 0 10 #fcfcfc #000000 #000000 0 1;
#X obj 231 44 loadbang;
#X msg 230 65 1;
#X floatatom 262 122 5 0 0 0 - - - 0;
#X text 220 121 yscale;
#X obj 97 -50 *~;
#X obj 315 149 s \$0-yscale;
#X obj 162 -74 r \$0-yscale;
#X msg 349 247 resize \$1;
#X obj 349 276 s \$0-signal;
#X obj 349 199 r \$0-maxx;
#X obj 435 276 s \$0-signal;
#X obj 435 223 pack 0 0;
#X obj 488 195 r \$0-minx;
#X msg 435 247 xlabel \$2 \$1;
#X obj 403 166 s \$0-maxx;
#X obj 98 49 rmstodb~;
#X obj 403 140 / 4;
#X obj -22 53 tabplay~ \$0-signal;
#X obj 38 191 * -1;
#X obj 38 215 + 1;
#X obj -7 242 *~;
#X obj 35 243 *~;
#X obj -5 163 r \$0-alpha;
#X obj -6 140 s \$0-alpha;
#X obj -6 97 loadbang;
#X obj 17 270 +~;
#X obj 17 291 max~;
#X floatatom 262 103 5 0 0 0 - - - 0;
#X obj 422 107 44100;
#X obj 435 142 /;
#X floatatom 265 265 5 0 0 0 - - - 0;
#X obj 464 107 r \$0-maxfreq;
#X obj 456 29 loadbang;
#X msg 456 48 4000;
#X obj 456 70 s \$0-maxfreq;
#X text 216 103 fftsize;
#X msg -6 118 0.5;
#X text 18 -128 Original by Ron Weiss https://github.com/ronw/pd-dafx;
#X text 17 -116 Modified 2011-01-25 Dan Ellis dpwe@ee.columbia.edu;
#X text -2 316 Deacying "peak hold" on spectra;
#X text -3 327 so they don't disappear in a flash;
#X text 213 264 max freq;
#X text 161 123 plot?;
#X connect 0 0 22 0;
#X connect 2 0 3 0;
#X connect 3 0 1 0;
#X connect 3 0 4 0;
#X connect 3 0 34 0;
#X connect 3 0 45 0;
#X connect 4 0 5 0;
#X connect 6 0 7 1;
#X connect 7 0 33 0;
#X connect 10 0 2 0;
#X connect 11 0 3 0;
#X connect 13 0 7 0;
#X connect 15 0 35 0;
#X connect 15 0 14 0;
#X connect 17 0 15 0;
#X connect 18 0 19 0;
#X connect 19 0 17 0;
#X connect 19 0 20 0;
#X connect 20 0 23 0;
#X connect 22 0 13 0;
#X connect 24 0 22 1;
#X connect 25 0 26 0;
#X connect 27 0 25 0;
#X connect 27 0 29 0;
#X connect 29 0 31 0;
#X connect 30 0 29 1;
#X connect 33 0 39 0;
#X connect 33 0 44 1;
#X connect 34 0 32 0;
#X connect 35 0 38 0;
#X connect 36 0 37 0;
#X connect 37 0 39 1;
#X connect 38 0 43 0;
#X connect 39 0 43 1;
#X connect 40 0 36 0;
#X connect 40 0 38 1;
#X connect 42 0 54 0;
#X connect 43 0 44 0;
#X connect 44 0 14 0;
#X connect 46 0 47 0;
#X connect 47 0 34 1;
#X connect 49 0 47 1;
#X connect 49 0 48 0;
#X connect 50 0 51 0;
#X connect 51 0 52 0;
#X connect 54 0 41 0;
#X coords 0 -1 1 1 200 185 1 100 100;
