#N canvas -9 131 1920 1016 12;
#X obj 70 128 *;
#X obj 81 99 t b f;
#X obj 32 45 inlet;
#X obj 70 160 outlet;
#X obj 81 45 r grov;
#X connect 0 0 3 0;
#X connect 1 0 0 0;
#X connect 1 1 0 1;
#X connect 2 0 0 0;
#X connect 4 0 1 0;
