#N canvas -10 0 1920 1016 12;
#X obj 187 103 sel 1;
#X obj 205 156 f;
#X obj 231 103 != 1;
#X obj 205 180 t f f f;
#X obj 228 237 outlet DF;
#X obj 143 213 != 1;
#X obj 143 237 outlet lamp;
#X obj 264 49 inlet reset;
#X obj 72 237 outlet DB;
#X obj 141 49 inlet DF;
#X obj 141 73 t f f f;
#X obj 301 237 outlet clk;
#X connect 0 0 1 0;
#X connect 1 0 3 0;
#X connect 2 0 1 1;
#X connect 3 0 5 0;
#X connect 3 1 4 0;
#X connect 3 2 2 0;
#X connect 5 0 6 0;
#X connect 7 0 1 0;
#X connect 9 0 10 0;
#X connect 10 0 8 0;
#X connect 10 1 11 0;
#X connect 10 2 0 0;
