#N canvas 1914 0 1920 1016 12;
#X obj 6 8 inlet;
#X obj 71 203 *~;
#X obj 7 52 line~;
#X obj 6 30 pack 0 30;
#X obj 89 41 grov;
#X obj 89 7 inlet freq;
#X obj 71 269 outlet~;
#X obj 71 227 *~;
#X obj 174 6 inlet indgain;
#X obj 219 183 tgl 19 0 empty empty empty 0 -10 0 12 #fcfcfc #000000 #000000 0 1;
#X obj 219 207 metro 100;
#N canvas 0 50 450 250 (subpatch) 0;
#X array ljud\$0 100 float 1;
#A 0 0 0 0 0 0 0 0 0 0 0 0 0 0 0 0 0 0 0 0 0 0 0 0 0 0 0 0 0 0 0 0 0 0 0 0 0 0 0 0 0 0 0 0 0 0 0 0 0 0 0 0 0 0 0 0 0 0 0 0 0 0 0 0 0 0 0 0 0 0 0 0 0 0 0 0 0 0 0 0 0 0 0 0 0 0 0 0 0 0 0 0 0 0 0 0 0 0 0 0 0;
#X coords 0 1 99 -1 200 140 1;
#X restore 640 126 graph;
#X obj 219 231 tabwrite~ ljud\$0;
#X obj 89 136 square;
#X obj 267 149 snapshot~;
#X floatatom 267 173 5 0 0 0 - - - 0;
#X obj 89 78 freqvib;
#X obj 281 7 inlet vib;
#X obj 443 284 sigmund~ pitch;
#X floatatom 443 308 5 0 0 0 - - - 0;
#X connect 0 0 3 0;
#X connect 1 0 7 0;
#X connect 2 0 1 0;
#X connect 3 0 2 0;
#X connect 4 0 16 0;
#X connect 5 0 4 0;
#X connect 7 0 6 0;
#X connect 7 0 12 0;
#X connect 7 0 18 0;
#X connect 8 0 7 1;
#X connect 9 0 10 0;
#X connect 10 0 12 0;
#X connect 13 0 1 1;
#X connect 14 0 15 0;
#X connect 16 0 13 0;
#X connect 17 0 16 1;
#X connect 18 0 19 0;
