#N canvas 176 145 1920 1016 12;
#X obj 56 32 inlet;
#X obj 49 162 spiggate;
#X obj 145 163 spiggate;
#X obj 238 165 spiggate;
#X obj 38 288 outlet;
#X obj 124 291 outlet;
#X obj 204 292 outlet;
#X obj 58 216 break;
#X obj 256 216 count;
#X obj 159 215 shift;
#X obj 296 294 outlet;
#X obj 366 25 inlet;
#X obj 366 49 t f f f;
#X obj 56 79 t f f f;
#X obj 129 31 inlet;
#X obj 129 78 t f f f;
#X obj 201 30 inlet;
#X obj 201 77 t f f f;
#X obj 269 30 inlet;
#X obj 269 77 t f f f;
#X text 468 35 Break 0 \, Count 1 \, Shift 2;
#X obj 339 75 == 0;
#X obj 381 75 == 2;
#X obj 423 75 == 1;
#X text 63 10 DF;
#X text 131 7 CLK;
#X text 200 5 Reset;
#X text 270 5 DB;
#X text 368 2 Mode;
#X text 49 315 DB;
#X text 127 314 Lamp;
#X text 214 318 DF;
#X text 304 320 CLK;
#X text 369 375 flytta reset så att det påverkar oavsett mode \, innan gick in i spiggate;
#X obj 124 408 spigot;
#X obj 423 99 t f f;
#X obj 381 99 t f f;
#X obj 339 99 t f f;
#X obj 188 408 spigot;
#X obj 257 409 spigot;
#X text 369 426 blir ev jättekonstigt;
#X text 493 238 break borde bryta en sekvens så att den inte släpper förbi en count men om nästa är shift är det ok. Måxste se till att den inte ger df 1? fast det är ju det vi gör??? det är ju så shift funkar??? måste ha typ condition att inte skicka df vidare om nästa är count (från break);
#X text 504 330 byt df output i break till 0 och se till att invertera df i shift \, nej det funkar inte för vi ska kunna ha en alt shift \, hur löste jag det förut???;
#X connect 0 0 13 0;
#X connect 1 0 7 0;
#X connect 1 1 7 1;
#X connect 1 3 7 3;
#X connect 2 0 9 0;
#X connect 2 1 9 1;
#X connect 2 3 9 3;
#X connect 3 0 8 0;
#X connect 3 1 8 1;
#X connect 3 3 8 3;
#X connect 7 0 4 0;
#X connect 7 1 34 0;
#X connect 7 2 6 0;
#X connect 7 3 10 0;
#X connect 8 0 4 0;
#X connect 8 1 39 0;
#X connect 8 2 6 0;
#X connect 8 3 10 0;
#X connect 9 0 4 0;
#X connect 9 1 38 0;
#X connect 9 2 6 0;
#X connect 9 3 10 0;
#X connect 11 0 12 0;
#X connect 12 0 21 0;
#X connect 12 1 22 0;
#X connect 12 2 23 0;
#X connect 13 0 1 0;
#X connect 13 1 2 0;
#X connect 13 2 3 0;
#X connect 14 0 15 0;
#X connect 15 0 1 1;
#X connect 15 1 2 1;
#X connect 15 2 3 1;
#X connect 16 0 17 0;
#X connect 17 0 7 2;
#X connect 17 1 9 2;
#X connect 17 2 8 2;
#X connect 18 0 19 0;
#X connect 19 0 1 3;
#X connect 19 1 2 3;
#X connect 19 2 3 3;
#X connect 21 0 37 0;
#X connect 22 0 36 0;
#X connect 23 0 35 0;
#X connect 34 0 5 0;
#X connect 35 0 39 1;
#X connect 35 1 3 4;
#X connect 36 0 38 1;
#X connect 36 1 2 4;
#X connect 37 0 34 1;
#X connect 37 1 1 4;
#X connect 38 0 5 0;
#X connect 39 0 5 0;
