#N canvas 228 228 1920 1016 12;
#X obj 62 24 inlet~;
#X obj 164 21 inlet;
#X text 252 70 dela en signal på två och ta delen med den lägre frekvensen;
#X text 252 95 en oktav ner;
#X obj 62 56 sigmund~ pitch;
#X obj 62 80 mtof;
#X obj 62 162 vcf~ 1;
#X obj 81 110 / 2;
#X obj 81 135 sig~;
#X obj 62 186 *~;
#X obj 62 210 outlet~;
#X text 116 113 freq cleaver;
#X text 240 21 make signal 1 octave lower;
#X connect 0 0 4 0;
#X connect 0 0 6 0;
#X connect 1 0 9 1;
#X connect 4 0 5 0;
#X connect 5 0 7 0;
#X connect 6 0 9 0;
#X connect 7 0 8 0;
#X connect 8 0 6 1;
#X connect 9 0 10 0;
