#N canvas 144 983 1920 1016 12;
#X obj 46 80 step, f 8;
#X obj 185 80 step, f 8;
#X obj 45 152 step, f 8;
#X obj 184 154 step, f 8;
#X obj 45 231 step, f 8;
#X obj 184 233 step, f 8;
#X obj 44 306 step, f 8;
#X obj 183 308 step, f 8;
#X obj 41 382 step, f 8;
#X obj 180 384 step, f 10;
#X obj 46 54 r l1;
#X obj 185 53 r l2;
#X obj 45 125 r l3;
#X obj 184 126 r l4;
#X obj 45 203 r l5;
#X obj 184 205 r l6;
#X obj 44 278 r l7;
#X obj 183 280 r l8;
#X obj 41 355 r l9;
#X obj 180 356 r l10;
#X obj 63 30 r p1;
#X obj 202 29 r p2;
#X obj 62 102 r p3;
#X obj 201 103 r p4;
#X obj 62 179 r p5;
#X obj 202 181 r p6;
#X obj 61 254 r p7;
#X obj 201 256 r p8;
#X obj 58 331 r p9;
#X obj 201 332 r p10;
#X obj 81 54 r g1;
#X obj 220 53 r g2;
#X obj 80 125 r g3;
#X obj 219 126 r g4;
#X obj 80 203 r g5;
#X obj 219 205 r g6;
#X obj 79 278 r g7;
#X obj 218 280 r g8;
#X obj 76 355 r g9;
#X obj 224 356 r g10;
#X obj 95 5 filterpacks, f 14;
#X obj 104 462 sound, f 16;
#X obj 303 473 outlet~;
#X obj 242 443 send~ signal;
#X text 318 47 Hallå? \, finns det bara en av varje filter? also \, varför dör datorn när dsp inte är på?;
#X text 318 82 hur är dataflödet/signalflödet. Varje steg är en separat signal \, denna adderas tillsammans med grovavtämningen samt vibrato(tänk på hur det funkar i voltkontrollerade system) \, detta går sen till de individuella osc för varje steg där den "master freq" adderas till varje indv. freq. Vajre signal är en egen o tänk som en typ and grind att om oscillerar samt fått pulsvåg från sequencern så skicka ljud ut (skickas signal till matris/filter om inte seq på?) görs saker även om inte in-patchad signal till matris? nu tappar jag mig sjäkllv.... Vi skickar signal till filter/matris \, men det finns bara en matris vafan varför har jag gjort olika? Kan pd ens hantera att jag skickar in allt? antar att jag måste addera tidigare? dags att gå tbx till kopplingsscheman \, kul.....;
#X text 366 333 hur flipflopar jag en signal;
#X connect 0 0 41 0;
#X connect 1 0 41 1;
#X connect 2 0 41 2;
#X connect 3 0 41 3;
#X connect 4 0 41 4;
#X connect 5 0 41 5;
#X connect 6 0 41 6;
#X connect 7 0 41 7;
#X connect 8 0 41 8;
#X connect 9 0 41 9;
#X connect 10 0 0 0;
#X connect 11 0 1 0;
#X connect 12 0 2 0;
#X connect 13 0 3 0;
#X connect 14 0 4 0;
#X connect 15 0 5 0;
#X connect 16 0 6 0;
#X connect 17 0 7 0;
#X connect 18 0 8 0;
#X connect 19 0 9 0;
#X connect 20 0 0 1;
#X connect 21 0 1 1;
#X connect 22 0 2 1;
#X connect 23 0 3 1;
#X connect 24 0 4 1;
#X connect 25 0 5 1;
#X connect 26 0 6 1;
#X connect 27 0 7 1;
#X connect 28 0 8 1;
#X connect 29 0 9 1;
#X connect 30 0 0 2;
#X connect 31 0 1 2;
#X connect 32 0 2 2;
#X connect 33 0 3 2;
#X connect 34 0 4 2;
#X connect 35 0 5 2;
#X connect 36 0 6 2;
#X connect 37 0 7 2;
#X connect 38 0 8 2;
#X connect 39 0 9 2;
#X connect 40 0 0 3;
#X connect 40 1 1 3;
#X connect 40 2 2 3;
#X connect 40 3 3 3;
#X connect 40 4 4 3;
#X connect 40 5 5 3;
#X connect 40 6 6 3;
#X connect 40 7 7 3;
#X connect 40 8 8 3;
#X connect 40 9 9 3;
#X connect 41 0 42 0;
#X connect 41 0 43 0;
