#N canvas 114 114 1920 1016 12;
#X obj 27 165 hpf;
#X obj 68 164 lpf;
#X obj 101 164 sq;
#X obj 27 208 +~;
#X obj 68 208 +~;
#X obj 27 240 +~;
#X obj 27 138 *~;
#X obj 45 100 *~;
#X obj 68 140 *~;
#X obj 101 139 *~;
#X obj 27 15 inlet~;
#X obj 99 16 r hpf;
#X obj 150 16 r lpf;
#X obj 201 16 r sq;
#X obj 245 16 inlet;
#X obj 291 16 inlet;
#X obj 338 15 inlet;
#X obj 384 15 inlet;
#X obj 27 277 outlet~;
#X connect 0 0 3 0;
#X connect 1 0 4 0;
#X connect 2 0 4 1;
#X connect 3 0 5 0;
#X connect 4 0 5 1;
#X connect 5 0 18 0;
#X connect 6 0 0 0;
#X connect 7 0 3 1;
#X connect 8 0 1 0;
#X connect 9 0 2 0;
#X connect 10 0 6 0;
#X connect 10 0 7 0;
#X connect 10 0 8 0;
#X connect 10 0 9 0;
#X connect 11 0 0 1;
#X connect 12 0 1 1;
#X connect 13 0 2 1;
#X connect 14 0 6 1;
#X connect 15 0 7 1;
#X connect 16 0 8 1;
#X connect 17 0 9 1;
