#N canvas 950 0 1920 1016 12;
#X obj 16 13 inlet~;
#X obj 85 14 inlet;
#X obj 16 111 *~;
#X obj 16 181 outlet~;
#X text 21 41 end signal;
#X text 72 180 send back to start;
#X text 107 38 check if on or off;
#X obj 252 12 inlet;
#X text 300 11 vib amount;
#X obj 16 140 *~;
#X connect 0 0 2 0;
#X connect 1 0 2 1;
#X connect 2 0 9 0;
#X connect 7 0 9 1;
#X connect 9 0 3 0;
