#N canvas 950 0 1920 1016 12;
#X obj 15 117 hpf;
#X obj 56 116 lpf;
#X obj 143 186 bp64-4;
#X obj 207 186 bp32-2;
#X obj 269 186 bp16-1;
#X obj 327 187 bp8-5;
#X obj 89 116 sq;
#X obj 5 -3 inlet~;
#X obj 15 160 +~;
#X obj 56 160 +~;
#X obj 15 192 +~;
#X obj 147 228 +~;
#X obj 227 228 +~;
#X obj 184 257 +~;
#X obj 271 227 +~;
#X obj 342 226 +~;
#X obj 311 258 +~;
#X obj 184 285 *~;
#X obj 311 283 *~;
#X obj 184 314 +~;
#X obj 166 356 +~;
#X obj 166 439 *~;
#X obj 166 465 outlet~;
#X obj 55 -4 inlet hpf;
#X obj 127 -3 inlet lpf;
#X obj 338 -4 inlet high;
#X obj 419 -5 inlet low;
#X obj 814 43 t f f f f;
#X obj 338 22 t f f f f;
#X obj 419 21 t f f f f;
#X obj 588 -5 inlet unpack;
#X obj 15 90 *~;
#X obj 46 60 *~;
#X obj 56 92 *~;
#X obj 89 91 *~;
#X obj 143 159 *~;
#X obj 207 160 *~;
#X obj 269 160 *~;
#X obj 327 162 *~;
#N canvas 0 50 450 250 (subpatch) 0;
#X array filtrerad\$0 100 float 1;
#A 0 2.78473 2.81731 2.8499 2.88248 2.91507 2.94765 2.98023 3.01282 3.0454 3.07798 3.11057 3.14315 3.17574 3.20832 3.2409 3.27349 3.30607 3.33866 3.37124 3.40382 3.43641 3.46899 3.50157 3.53416 3.56674 3.59933 3.63191 3.66449 3.69708 3.72966 3.76225 3.79483 3.82741 3.86 3.89258 3.92516 3.95775 3.99033 4.02292 4.0555 4.08808 4.12067 4.15325 4.18584 4.21842 4.251 4.28359 4.31617 4.34876 4.38134 4.41392 4.44651 4.47909 4.51167 4.54426 4.57684 4.60943 4.64201 4.67459 4.70718 4.73976 4.77235 4.80493 4.83751 4.8701 4.90268 4.93526 4.96785 5.00043 5.03302 5.0656 5.09818 5.13077 4.98552 5.01811 5.05069 5.08328 5.11586 5.14844 5.18103 5.21361 5.24619 5.27878 5.31136 5.34395 5.37653 5.40911 5.4417 5.47428 5.50687 5.53945 5.57203 5.60462 5.6372 5.66978 5.70237 5.73495 5.76754 5.80012 5.8327;
#X coords 0 1 99 -1 200 140 1 0 0;
#X restore 657 327 graph;
#X obj 458 366 tgl 19 0 empty empty empty 0 -10 0 12 #fcfcfc #000000 #000000 0 1;
#X obj 458 390 metro 100;
#X obj 814 -6 loadbang;
#X msg 814 17 2.5;
#X obj 464 254 clip~ -0.99 0.99;
#X obj 197 -3 inlet sq;
#X obj 458 414 tabwrite~ filtrerad\$0;
#X text 438 280 använda clip i slutet ist?;
#X obj 199 112 bpmod;
#X text 4 223 D \, hpf \, lpf \, sqr;
#X obj 265 -4 inlet mod;
#X text 858 19 Q for bpf;
#X text 81 438 summing amp;
#X obj 166 392 vibrato;
#X obj 491 -5 inlet vibamp;
#X obj 228 465 outlet~;
#X obj 588 19 unpack f f f f f f f f f f;
#X obj 677 221 *~;
#X obj 713 220 *~;
#X connect 0 0 8 0;
#X connect 1 0 9 0;
#X connect 2 0 11 0;
#X connect 2 1 14 0;
#X connect 3 0 11 1;
#X connect 3 1 14 1;
#X connect 4 0 12 0;
#X connect 4 1 15 0;
#X connect 5 0 12 1;
#X connect 5 1 15 1;
#X connect 6 0 9 1;
#X connect 7 0 31 0;
#X connect 7 0 32 0;
#X connect 7 0 33 0;
#X connect 7 0 34 0;
#X connect 7 0 57 0;
#X connect 8 0 10 0;
#X connect 9 0 10 1;
#X connect 10 0 20 0;
#X connect 11 0 13 0;
#X connect 12 0 13 1;
#X connect 13 0 17 0;
#X connect 14 0 16 0;
#X connect 15 0 16 1;
#X connect 16 0 18 0;
#X connect 17 0 19 0;
#X connect 18 0 19 1;
#X connect 19 0 20 1;
#X connect 20 0 46 0;
#X connect 20 0 53 0;
#X connect 21 0 22 0;
#X connect 23 0 0 1;
#X connect 24 0 1 1;
#X connect 25 0 28 0;
#X connect 26 0 29 0;
#X connect 27 0 2 1;
#X connect 27 1 3 1;
#X connect 27 2 4 1;
#X connect 27 3 5 1;
#X connect 28 0 2 2;
#X connect 28 1 3 2;
#X connect 28 2 4 2;
#X connect 28 3 5 2;
#X connect 29 0 2 3;
#X connect 29 1 3 3;
#X connect 29 2 4 3;
#X connect 29 3 5 3;
#X connect 30 0 56 0;
#X connect 31 0 0 0;
#X connect 32 0 8 1;
#X connect 33 0 1 0;
#X connect 34 0 6 0;
#X connect 35 0 2 0;
#X connect 36 0 3 0;
#X connect 37 0 4 0;
#X connect 38 0 5 0;
#X connect 40 0 41 0;
#X connect 41 0 46 0;
#X connect 42 0 43 0;
#X connect 43 0 27 0;
#X connect 45 0 6 1;
#X connect 48 0 35 0;
#X connect 48 0 36 0;
#X connect 48 0 37 0;
#X connect 48 0 38 0;
#X connect 50 0 48 1;
#X connect 53 0 21 0;
#X connect 53 0 55 0;
#X connect 54 0 53 2;
#X connect 56 0 31 1;
#X connect 56 1 32 1;
#X connect 56 2 33 1;
#X connect 56 3 34 1;
#X connect 56 4 35 1;
#X connect 56 5 36 1;
#X connect 56 6 37 1;
#X connect 56 7 38 1;
