#N canvas 950 0 958 1004 12;
#X obj 144 388 break, f 9;
#X obj 241 389 shift, f 9;
#X obj 338 389 count, f 8;
#X text 541 41 DF \, clk \, reset \, DB | DB \, lamp \, DF \, clk;
#X obj 95 450 outlet DB;
#X obj 190 449 outlet lamp;
#X obj 295 450 outlet DF;
#X obj 389 451 outlet clk;
#X obj 51 13 inlet DF;
#X obj 134 13 inlet clk;
#X obj 219 13 inlet reset;
#X obj 312 13 inlet mode;
#X obj 396 13 inlet DB;
#X obj 219 37 t f f f;
#X obj 396 37 t f f;
#X obj 51 37 t f f f;
#X obj 134 37 t f f;
#X obj 338 286 spigot;
#X obj 163 200 spigot;
#X obj 260 199 spigot;
#X obj 144 285 spigot;
#X obj 241 285 spigot;
#X obj 266 78 == 2;
#X text 537 80 Break 2 \, Shift 3 \, Count 4;
#X obj 335 78 == 3;
#X obj 402 78 == 4;
#X obj 312 39 t f f f;
#X obj 266 102 t f f f;
#X obj 335 102 t f f f;
#X obj 402 102 t f f;
#X obj 373 366 spigot;
#X obj 184 365 spigot;
#X obj 281 365 spigot;
#X obj 144 261 f;
#X obj 144 236 t b f;
#X obj 373 343 f;
#X obj 373 318 t b f;
#X obj 281 341 f;
#X obj 281 316 t b f;
#X obj 184 340 f;
#X obj 184 315 t b f;
#X obj 241 262 f;
#X obj 241 237 t b f;
#X obj 338 261 f;
#X obj 338 236 t b f;
#X obj 163 176 f;
#X obj 163 151 t b f;
#X obj 260 175 f;
#X obj 260 150 t b f;
#X obj 567 371 tgl 19 0 empty empty empty 0 -10 0 12 #fcfcfc #000000 #000000 0 1;
#X obj 566 398 tgl 19 0 empty empty empty 0 -10 0 12 #fcfcfc #000000 #000000 0 1;
#X obj 48 162 tgl 19 0 empty empty empty 0 -10 0 12 #fcfcfc #000000 #000000 0 1;
#X obj 47 189 tgl 19 0 empty empty empty 0 -10 0 12 #fcfcfc #000000 #000000 0 1;
#X obj 47 218 tgl 19 0 empty empty empty 0 -10 0 12 #fcfcfc #000000 #000000 0 1;
#X obj 49 316 tgl 19 0 empty empty empty 0 -10 0 12 #fcfcfc #000000 #000000 0 1;
#X obj 48 343 tgl 19 0 empty empty empty 0 -10 0 12 #fcfcfc #000000 #000000 0 1;
#X obj 48 372 tgl 19 0 empty empty empty 0 -10 0 12 #fcfcfc #000000 #000000 0 1;
#X obj 543 455 tgl 19 0 empty empty empty 0 -10 0 12 #fcfcfc #000000 #000000 0 1;
#X obj 512 456 tgl 19 0 empty empty empty 0 -10 0 12 #fcfcfc #000000 #000000 0 1;
#X obj 607 454 tgl 19 0 empty empty empty 0 -10 0 12 #fcfcfc #000000 #000000 0 1;
#X obj 576 455 tgl 19 0 empty empty empty 0 -10 0 12 #fcfcfc #000000 #000000 0 1;
#X connect 0 0 4 0;
#X connect 0 1 5 0;
#X connect 0 2 6 0;
#X connect 0 3 7 0;
#X connect 1 0 4 0;
#X connect 1 1 5 0;
#X connect 1 2 6 0;
#X connect 1 3 7 0;
#X connect 2 0 4 0;
#X connect 2 0 58 0;
#X connect 2 1 5 0;
#X connect 2 1 57 0;
#X connect 2 2 6 0;
#X connect 2 2 60 0;
#X connect 2 3 7 0;
#X connect 2 3 59 0;
#X connect 8 0 15 0;
#X connect 9 0 16 0;
#X connect 10 0 13 0;
#X connect 11 0 26 0;
#X connect 12 0 14 0;
#X connect 13 0 39 0;
#X connect 13 1 37 0;
#X connect 13 2 35 0;
#X connect 14 0 0 3;
#X connect 14 1 1 3;
#X connect 15 0 33 0;
#X connect 15 1 41 0;
#X connect 15 2 43 0;
#X connect 16 0 45 0;
#X connect 16 1 47 0;
#X connect 17 0 2 0;
#X connect 17 0 50 0;
#X connect 18 0 0 1;
#X connect 18 0 51 0;
#X connect 19 0 1 1;
#X connect 19 0 54 0;
#X connect 20 0 0 0;
#X connect 20 0 52 0;
#X connect 21 0 1 0;
#X connect 21 0 55 0;
#X connect 22 0 27 0;
#X connect 24 0 28 0;
#X connect 25 0 29 0;
#X connect 26 0 22 0;
#X connect 26 1 24 0;
#X connect 26 2 25 0;
#X connect 27 0 18 1;
#X connect 27 0 46 0;
#X connect 27 1 34 0;
#X connect 27 2 40 0;
#X connect 28 0 48 0;
#X connect 28 1 42 0;
#X connect 28 2 38 0;
#X connect 29 0 44 0;
#X connect 29 1 36 0;
#X connect 30 0 2 2;
#X connect 30 0 49 0;
#X connect 31 0 0 2;
#X connect 31 0 53 0;
#X connect 32 0 1 2;
#X connect 32 0 56 0;
#X connect 33 0 20 0;
#X connect 34 0 33 0;
#X connect 34 1 20 1;
#X connect 35 0 30 0;
#X connect 36 0 35 0;
#X connect 36 1 30 1;
#X connect 37 0 32 0;
#X connect 38 0 37 0;
#X connect 38 1 32 1;
#X connect 39 0 31 0;
#X connect 40 0 39 0;
#X connect 40 1 31 1;
#X connect 41 0 21 0;
#X connect 42 0 41 0;
#X connect 42 1 21 1;
#X connect 43 0 17 0;
#X connect 44 0 43 0;
#X connect 44 1 17 1;
#X connect 45 0 18 0;
#X connect 46 0 45 0;
#X connect 46 1 18 1;
#X connect 47 0 19 0;
#X connect 48 0 47 0;
#X connect 48 1 19 1;
