#N canvas 114 114 1920 1026 12;
#X obj 15 42 b2bcount;
#X obj 78 42 b2bcount;
#X obj 142 42 b2bcount;
#X obj 206 42 b2bcount;
#X msg 15 20 1;
#X obj 32 68 tgl 19 0 empty empty empty 0 -10 0 12 #fcfcfc #000000 #000000 0 1;
#X obj 95 69 tgl 19 0 empty empty empty 0 -10 0 12 #fcfcfc #000000 #000000 0 1;
#X obj 160 66 tgl 19 0 empty empty empty 0 -10 0 12 #fcfcfc #000000 #000000 0 1;
#X obj 224 67 tgl 19 0 empty empty empty 0 -10 0 12 #fcfcfc #000000 #000000 0 1;
#X obj 271 42 b2bshift;
#X obj 336 42 b2bshift;
#X obj 401 42 b2bshift;
#X obj 466 42 b2bshift;
#X obj 297 67 tgl 19 0 empty empty empty 0 -10 0 12 #fcfcfc #000000 #000000 0 1;
#X obj 362 67 tgl 19 0 empty empty empty 0 -10 0 12 #fcfcfc #000000 #000000 0 1;
#X obj 428 68 tgl 19 0 empty empty empty 0 -10 0 12 #fcfcfc #000000 #000000 0 1;
#X obj 493 67 tgl 19 0 empty empty empty 0 -10 0 12 #fcfcfc #000000 #000000 0 1;
#X obj 532 42 b2bbreak;
#X obj 597 42 b2bshift;
#X obj 662 42 b2bshift;
#X obj 624 68 tgl 19 0 empty empty empty 0 -10 0 12 #fcfcfc #000000 #000000 0 1;
#X obj 689 67 tgl 19 0 empty empty empty 0 -10 0 12 #fcfcfc #000000 #000000 0 1;
#X obj 727 42 b2bbreak;
#X obj 780 19 tgl 19 0 empty empty empty 0 -10 0 12 #fcfcfc #000000 #000000 0 1;
#X obj 559 67 tgl 19 0 empty empty empty 0 -10 0 12 #fcfcfc #000000 #000000 0 1;
#X obj 754 66 tgl 19 0 empty empty empty 0 -10 0 12 #fcfcfc #000000 #000000 0 1;
#X obj 585 20 tgl 19 0 empty empty empty 0 -10 0 12 #fcfcfc #000000 #000000 0 1;
#X text 19 97 3c4s3c;
#X obj 20 166 b2bcount;
#X obj 83 166 b2bcount;
#X obj 147 166 b2bcount;
#X msg 20 118 1;
#X obj 37 191 tgl 19 0 empty empty empty 0 -10 0 12 #fcfcfc #000000 #000000 0 1;
#X obj 100 192 tgl 19 0 empty empty empty 0 -10 0 12 #fcfcfc #000000 #000000 0 1;
#X obj 165 193 tgl 19 0 empty empty empty 0 -10 0 12 #fcfcfc #000000 #000000 0 1;
#X obj 212 166 b2bbreak;
#X obj 277 166 b2bshift;
#X obj 342 166 b2bshift;
#X obj 304 193 tgl 19 0 empty empty empty 0 -10 0 12 #fcfcfc #000000 #000000 0 1;
#X obj 369 192 tgl 19 0 empty empty empty 0 -10 0 12 #fcfcfc #000000 #000000 0 1;
#X obj 239 192 tgl 19 0 empty empty empty 0 -10 0 12 #fcfcfc #000000 #000000 0 1;
#X obj 265 141 tgl 19 0 empty empty empty 0 -10 0 12 #fcfcfc #000000 #000000 0 1;
#X obj 406 166 b2bshift;
#X obj 433 192 tgl 19 0 empty empty empty 0 -10 0 12 #fcfcfc #000000 #000000 0 1;
#X obj 470 166 b2bcount;
#X obj 533 166 b2bcount;
#X obj 597 166 b2bcount;
#X obj 487 191 tgl 19 0 empty empty empty 0 -10 0 12 #fcfcfc #000000 #000000 0 1;
#X obj 550 191 tgl 19 0 empty empty empty 0 -10 0 12 #fcfcfc #000000 #000000 0 1;
#X obj 615 192 tgl 19 0 empty empty empty 0 -10 0 12 #fcfcfc #000000 #000000 0 1;
#X text 89 98 count efter en shit är för snabb..... hur löser jag det?;
#X obj 20 140 t b f;
#X text 514 94 Så nu funkar det men nu triggas inte break rätt \, varför inte? ändrade jag nåt där \, är det för att jag inte skickar tbx db i count på en gång?;
#X text 513 139 japp \, var det \, nu ska vi bara lckas abstrahera allt....;
#X text 74 215 0b1c2s;
#X text 350 222 in: df \, s \, mode \, db out: db \, lamp \, df \, s;
#X obj 19 262 b2bcount;
#X obj 82 262 b2bcount;
#X obj 146 262 b2bcount;
#X msg 19 214 1;
#X obj 36 287 tgl 19 0 empty empty empty 0 -10 0 12 #fcfcfc #000000 #000000 0 1;
#X obj 99 288 tgl 19 0 empty empty empty 0 -10 0 12 #fcfcfc #000000 #000000 0 1;
#X obj 164 289 tgl 19 0 empty empty empty 0 -10 0 12 #fcfcfc #000000 #000000 0 1;
#X obj 19 236 t b f;
#X obj 210 262 mode, f 6;
#X obj 223 291 tgl 19 0 empty empty empty 0 -10 0 12 #fcfcfc #000000 #000000 0 1;
#X obj 261 262 mode, f 6;
#X obj 274 291 tgl 19 0 empty empty empty 0 -10 0 12 #fcfcfc #000000 #000000 0 1;
#X obj 311 262 mode, f 6;
#X obj 324 291 tgl 19 0 empty empty empty 0 -10 0 12 #fcfcfc #000000 #000000 0 1;
#X obj 362 262 mode, f 6;
#X obj 375 291 tgl 19 0 empty empty empty 0 -10 0 12 #fcfcfc #000000 #000000 0 1;
#X obj 412 262 b2bcount;
#X obj 475 262 b2bcount;
#X obj 539 262 b2bcount;
#X obj 429 287 tgl 19 0 empty empty empty 0 -10 0 12 #fcfcfc #000000 #000000 0 1;
#X obj 492 288 tgl 19 0 empty empty empty 0 -10 0 12 #fcfcfc #000000 #000000 0 1;
#X obj 557 289 tgl 19 0 empty empty empty 0 -10 0 12 #fcfcfc #000000 #000000 0 1;
#X msg 221 223 0;
#X obj 255 224 tgl 19 0 empty empty empty 0 -10 0 12 #fcfcfc #000000 #000000 0 1;
#X msg 287 225 2;
#X obj 10 357 mode, f 6;
#X obj 23 386 tgl 19 0 empty empty empty 0 -10 0 12 #fcfcfc #000000 #000000 0 1;
#X obj 61 357 mode, f 6;
#X obj 74 386 tgl 19 0 empty empty empty 0 -10 0 12 #fcfcfc #000000 #000000 0 1;
#X obj 111 357 mode, f 6;
#X obj 124 386 tgl 19 0 empty empty empty 0 -10 0 12 #fcfcfc #000000 #000000 0 1;
#X msg 9 311 1;
#X obj 9 333 t b f;
#X msg 49 312 1;
#X obj 162 357 mode, f 6;
#X obj 175 386 tgl 19 0 empty empty empty 0 -10 0 12 #fcfcfc #000000 #000000 0 1;
#X obj 213 357 mode, f 6;
#X obj 226 386 tgl 19 0 empty empty empty 0 -10 0 12 #fcfcfc #000000 #000000 0 1;
#X obj 263 357 mode, f 6;
#X obj 276 386 tgl 19 0 empty empty empty 0 -10 0 12 #fcfcfc #000000 #000000 0 1;
#X obj 314 357 mode, f 6;
#X obj 327 386 tgl 19 0 empty empty empty 0 -10 0 12 #fcfcfc #000000 #000000 0 1;
#X msg 173 318 0;
#X obj 207 319 tgl 19 0 empty empty empty 0 -10 0 12 #fcfcfc #000000 #000000 0 1;
#X msg 239 320 2;
#X obj 364 357 mode, f 6;
#X obj 377 386 tgl 19 0 empty empty empty 0 -10 0 12 #fcfcfc #000000 #000000 0 1;
#X obj 415 357 mode, f 6;
#X obj 428 386 tgl 19 0 empty empty empty 0 -10 0 12 #fcfcfc #000000 #000000 0 1;
#X obj 465 357 mode, f 6;
#X obj 478 386 tgl 19 0 empty empty empty 0 -10 0 12 #fcfcfc #000000 #000000 0 1;
#X msg 424 323 1;
#X connect 0 1 5 0;
#X connect 0 2 1 0;
#X connect 1 1 6 0;
#X connect 1 2 2 0;
#X connect 2 1 7 0;
#X connect 2 2 3 0;
#X connect 3 1 8 0;
#X connect 3 2 9 0;
#X connect 3 3 9 1;
#X connect 4 0 0 0;
#X connect 9 1 13 0;
#X connect 9 1 10 0;
#X connect 9 2 10 1;
#X connect 10 1 14 0;
#X connect 10 1 11 0;
#X connect 10 2 11 1;
#X connect 11 1 15 0;
#X connect 11 1 12 0;
#X connect 11 2 12 1;
#X connect 12 1 16 0;
#X connect 12 1 17 0;
#X connect 12 2 17 1;
#X connect 17 0 12 2;
#X connect 17 1 18 0;
#X connect 17 1 24 0;
#X connect 17 2 18 1;
#X connect 18 0 17 2;
#X connect 18 1 20 0;
#X connect 18 1 19 0;
#X connect 18 2 19 1;
#X connect 19 0 18 2;
#X connect 19 1 21 0;
#X connect 19 1 22 0;
#X connect 19 2 22 1;
#X connect 22 0 19 2;
#X connect 22 1 25 0;
#X connect 23 0 22 2;
#X connect 26 0 17 2;
#X connect 28 1 32 0;
#X connect 28 2 29 0;
#X connect 28 3 29 1;
#X connect 29 1 33 0;
#X connect 29 2 30 0;
#X connect 29 3 30 1;
#X connect 30 1 34 0;
#X connect 30 2 35 0;
#X connect 30 3 35 1;
#X connect 31 0 51 0;
#X connect 35 0 30 2;
#X connect 35 1 36 0;
#X connect 35 1 40 0;
#X connect 35 2 36 1;
#X connect 36 0 35 2;
#X connect 36 1 38 0;
#X connect 36 1 37 0;
#X connect 36 2 37 1;
#X connect 37 0 36 2;
#X connect 37 1 39 0;
#X connect 37 1 42 0;
#X connect 37 2 42 1;
#X connect 41 0 35 2;
#X connect 42 0 37 2;
#X connect 42 1 43 0;
#X connect 42 1 44 0;
#X connect 42 2 44 1;
#X connect 44 0 42 2;
#X connect 44 1 47 0;
#X connect 44 2 45 0;
#X connect 44 3 45 1;
#X connect 45 0 44 2;
#X connect 45 1 48 0;
#X connect 45 2 46 0;
#X connect 45 3 46 1;
#X connect 46 0 45 2;
#X connect 46 1 49 0;
#X connect 51 0 28 1;
#X connect 51 1 28 0;
#X connect 56 1 60 0;
#X connect 56 2 57 0;
#X connect 56 3 57 1;
#X connect 57 1 61 0;
#X connect 57 2 58 0;
#X connect 57 3 58 1;
#X connect 58 1 62 0;
#X connect 58 2 64 0;
#X connect 58 3 64 1;
#X connect 59 0 63 0;
#X connect 59 0 88 0;
#X connect 63 0 56 1;
#X connect 63 1 56 0;
#X connect 64 0 58 2;
#X connect 64 1 65 0;
#X connect 64 2 66 0;
#X connect 64 3 66 1;
#X connect 66 0 64 3;
#X connect 66 1 67 0;
#X connect 66 2 68 0;
#X connect 66 3 68 1;
#X connect 68 0 66 3;
#X connect 68 1 69 0;
#X connect 68 2 70 0;
#X connect 68 3 70 1;
#X connect 70 0 68 3;
#X connect 70 1 71 0;
#X connect 70 2 72 0;
#X connect 70 3 72 1;
#X connect 72 0 70 3;
#X connect 72 1 75 0;
#X connect 72 2 73 0;
#X connect 72 3 73 1;
#X connect 73 1 76 0;
#X connect 73 2 74 0;
#X connect 73 3 74 1;
#X connect 74 1 77 0;
#X connect 78 0 64 2;
#X connect 79 0 64 3;
#X connect 80 0 66 2;
#X connect 80 0 68 2;
#X connect 80 0 70 2;
#X connect 81 1 82 0;
#X connect 81 2 83 0;
#X connect 81 3 83 1;
#X connect 83 0 81 3;
#X connect 83 1 84 0;
#X connect 83 2 85 0;
#X connect 83 3 85 1;
#X connect 85 0 83 3;
#X connect 85 1 86 0;
#X connect 85 2 90 0;
#X connect 85 3 90 1;
#X connect 87 0 88 0;
#X connect 88 0 81 1;
#X connect 88 1 81 0;
#X connect 89 0 81 2;
#X connect 89 0 83 2;
#X connect 89 0 85 2;
#X connect 90 0 85 3;
#X connect 90 1 91 0;
#X connect 90 2 92 0;
#X connect 90 3 92 1;
#X connect 92 0 90 3;
#X connect 92 1 93 0;
#X connect 92 2 94 0;
#X connect 92 3 94 1;
#X connect 94 0 92 3;
#X connect 94 1 95 0;
#X connect 94 2 96 0;
#X connect 94 3 96 1;
#X connect 96 0 94 3;
#X connect 96 1 97 0;
#X connect 96 2 101 0;
#X connect 96 3 101 1;
#X connect 98 0 90 2;
#X connect 99 0 90 3;
#X connect 100 0 92 2;
#X connect 100 0 94 2;
#X connect 100 0 96 2;
#X connect 101 0 96 3;
#X connect 101 1 102 0;
#X connect 101 2 103 0;
#X connect 101 3 103 1;
#X connect 103 0 101 3;
#X connect 103 1 104 0;
#X connect 103 2 105 0;
#X connect 103 3 105 1;
#X connect 105 0 103 3;
#X connect 105 1 106 0;
#X connect 107 0 101 2;
#X connect 107 0 103 2;
#X connect 107 0 105 2;
