#N canvas 159 54 1589 730 12;
#X obj 713 112 tgl 19 0 empty empty empty 0 -10 0 12 #fcfcfc #000000 #000000 0 1;
#X msg 713 136 \; pd dsp \$1;
#X obj 576 116 tgl 19 0 empty empty empty 0 -10 0 12 #fcfcfc #000000 #000000 0 1;
#X obj 576 149 metro 1000;
#X floatatom 578 176 5 0 0 0 - - - 0;
#X obj 540 58 tgl 19 0 empty empty empty 0 -10 0 12 #fcfcfc #000000 #000000 0 1;
#X obj 32 189 mode, f 8;
#X obj 138 186 tgl 25 0 empty empty empty 0 -10 0 12 #00faff #000000 #000000 0 1;
#X obj 141 122 vradio 19 1 0 3 empty empty empty 0 -10 0 12 #fcfcfc #000000 #000000 0;
#X obj 31 228 mode, f 8;
#X obj 181 186 tgl 25 0 empty empty empty 0 -10 0 12 #00faff #000000 #000000 0 1;
#X obj 182 123 vradio 19 1 0 3 empty empty empty 0 -10 0 12 #fcfcfc #000000 #000000 0;
#X obj 29 262 mode, f 8;
#X obj 216 186 tgl 25 0 empty empty empty 0 -10 0 12 #00faff #000000 #000000 0 1;
#X obj 218 121 vradio 19 1 0 3 empty empty empty 0 -10 0 12 #fcfcfc #000000 #000000 0;
#X obj 29 292 mode, f 8;
#X obj 252 188 tgl 25 0 empty empty empty 0 -10 0 12 #00faff #000000 #000000 0 1;
#X obj 254 122 vradio 19 1 0 3 empty empty empty 0 -10 0 12 #fcfcfc #000000 #000000 0;
#X obj 29 318 mode, f 8;
#X obj 285 186 tgl 25 0 empty empty empty 0 -10 0 12 #00faff #000000 #000000 0 1;
#X obj 290 122 vradio 19 1 0 3 empty empty empty 0 -10 0 12 #fcfcfc #000000 #000000 0;
#X obj 26 347 mode, f 8;
#X obj 322 186 tgl 25 0 empty empty empty 0 -10 0 12 #00faff #000000 #000000 0 1;
#X obj 324 121 vradio 19 1 0 3 empty empty empty 0 -10 0 12 #fcfcfc #000000 #000000 0;
#X obj 27 373 mode, f 8;
#X obj 358 185 tgl 25 0 empty empty empty 0 -10 0 12 #00faff #000000 #000000 0 1;
#X obj 362 122 vradio 19 1 0 3 empty empty empty 0 -10 0 12 #fcfcfc #000000 #000000 0;
#X obj 27 402 mode, f 8;
#X obj 390 185 tgl 25 0 empty empty empty 0 -10 0 12 #00faff #000000 #000000 0 1;
#X obj 394 121 vradio 19 1 0 3 empty empty empty 0 -10 0 12 #fcfcfc #000000 #000000 0;
#X obj 27 432 mode, f 8;
#X obj 430 186 tgl 25 0 empty empty empty 0 -10 0 12 #00faff #000000 #000000 0 1;
#X obj 431 122 vradio 19 1 0 3 empty empty empty 0 -10 0 12 #fcfcfc #000000 #000000 0;
#X obj 25 457 mode, f 8;
#X obj 465 186 tgl 25 0 empty empty empty 0 -10 0 12 #00faff #000000 #000000 0 1;
#X obj 467 123 vradio 19 1 0 3 empty empty empty 0 -10 0 12 #fcfcfc #000000 #000000 0;
#X obj 326 494 sound, f 42;
#X text 499 120 Break;
#X text 497 141 Count;
#X text 501 161 Shift;
#X text 598 118 On/Off;
#X text 735 110 Sound;
#X text 579 201 Metro;
#X connect 0 0 1 0;
#X connect 2 0 3 0;
#X connect 3 0 5 0;
#X connect 4 0 3 1;
#X connect 5 0 6 1;
#X connect 6 1 7 0;
#X connect 6 1 9 1;
#X connect 6 2 9 2;
#X connect 7 0 36 0;
#X connect 8 0 6 3;
#X connect 9 0 6 0;
#X connect 9 1 10 0;
#X connect 9 1 12 1;
#X connect 9 2 12 2;
#X connect 10 0 36 1;
#X connect 11 0 9 3;
#X connect 12 0 9 0;
#X connect 12 1 13 0;
#X connect 12 1 15 1;
#X connect 12 2 15 2;
#X connect 13 0 36 2;
#X connect 14 0 12 3;
#X connect 15 0 12 0;
#X connect 15 1 16 0;
#X connect 15 1 18 1;
#X connect 15 2 18 2;
#X connect 16 0 36 3;
#X connect 17 0 15 3;
#X connect 18 0 15 0;
#X connect 18 1 19 0;
#X connect 18 1 21 1;
#X connect 18 2 21 2;
#X connect 19 0 36 4;
#X connect 20 0 18 3;
#X connect 21 0 18 0;
#X connect 21 1 22 0;
#X connect 21 1 24 1;
#X connect 21 2 24 2;
#X connect 22 0 36 5;
#X connect 23 0 21 3;
#X connect 24 0 21 0;
#X connect 24 1 25 0;
#X connect 24 1 27 1;
#X connect 24 2 27 2;
#X connect 25 0 36 6;
#X connect 26 0 24 3;
#X connect 27 0 24 0;
#X connect 27 1 28 0;
#X connect 27 1 30 1;
#X connect 27 2 30 2;
#X connect 28 0 36 7;
#X connect 29 0 27 3;
#X connect 30 0 27 0;
#X connect 30 1 31 0;
#X connect 30 1 33 1;
#X connect 30 2 33 2;
#X connect 31 0 36 8;
#X connect 32 0 30 3;
#X connect 33 0 30 0;
#X connect 33 1 34 0;
#X connect 34 0 36 9;
#X connect 35 0 33 3;
#X coords 0 -1 1 1 750 700 1 100 100;
