#N canvas -11 -11 960 1016 12;
#X obj 129 204 Dflipflop;
#X obj 141 238 f;
#X obj 141 326 outlet DF;
#X obj 38 226 tgl 25 0 empty empty empty 0 -10 0 12 #c6feff #000000 #000000 0 1;
#X obj 87 275 != 1;
#X obj 29 329 outlet lamp;
#X text 37 362 skiljer sig dessa åt?;
#X obj 127 52 inlet clk;
#X obj 35 54 inlet DF;
#X obj 234 328 outlet clk;
#X obj 226 55 inlet reset;
#X obj 127 129 t f f b;
#X obj 337 54 inlet db;
#X text 391 229 skicka tillbaka db innan eller efter operationen?;
#X obj 327 329 outlet db;
#X obj 141 262 t f f;
#X connect 0 0 4 0;
#X connect 0 1 1 1;
#X connect 1 0 15 0;
#X connect 4 0 3 0;
#X connect 4 0 5 0;
#X connect 7 0 11 0;
#X connect 10 0 0 2;
#X connect 11 0 9 0;
#X connect 11 1 0 1;
#X connect 11 2 1 0;
#X connect 12 0 0 0;
#X connect 15 0 2 0;
#X connect 15 1 14 0;
