#N canvas 190 190 1920 1016 12;
#X obj 39 103 metro 1500;
#X obj 39 127 tgl 19 0 empty empty empty 0 -10 0 12 #fcfcfc #000000 #000000 0 1;
#X obj 46 207 JKFF 0;
#X obj 127 206 JKFF 1;
#X obj 205 205 JKFF 2;
#X obj 279 206 JKFF 3;
#X msg 213 80 0;
#X msg 254 80 1;
#X obj 464 361 tgl 25 0 empty empty empty 0 -10 0 12 #c6feff #000000 #000000 0 1;
#X obj 185 429 tgl 25 0 empty empty empty 0 -10 0 12 #c6feff #000000 #000000 0 1;
#X obj 222 429 tgl 25 0 empty empty empty 0 -10 0 12 #c6feff #000000 #000000 0 1;
#X obj 258 430 tgl 25 0 empty empty empty 0 -10 0 12 #c6feff #000000 #000000 0 1;
#X obj 67 239 f;
#X obj 11 166 sel 1;
#X obj 67 262 t f f;
#X obj 67 286 != 1;
#X obj 149 235 f;
#X obj 149 258 t f f;
#X obj 149 282 != 1;
#X obj 227 233 f;
#X obj 227 256 t f f;
#X obj 227 280 != 1;
#X obj 39 54 tgl 19 0 empty empty empty 0 -10 0 12 #fcfcfc #000000 #000000 0 1;
#X obj 299 238 f;
#X obj 299 261 t f f;
#X obj 299 285 != 1;
#X obj 348 207 JKFF 3;
#X obj 368 239 f;
#X obj 368 262 t f f;
#X obj 368 286 != 1;
#X obj 308 429 tgl 25 0 empty empty empty 0 -10 0 12 #c6feff #000000 #000000 0 1;
#X msg 108 66 500;
#X msg 75 53 750;
#X msg 150 64 100;
#X obj 496 122 metro 1500;
#X obj 496 146 tgl 19 0 empty empty empty 0 -10 0 12 #fcfcfc #000000 #000000 0 1;
#X obj 453 183 sel 1;
#X obj 496 73 tgl 19 0 empty empty empty 0 -10 0 12 #fcfcfc #000000 #000000 0 1;
#X msg 565 85 500;
#X msg 532 72 750;
#X msg 607 83 100;
#X obj 464 239 Dflipflop;
#X obj 464 324 != 1;
#X obj 555 363 tgl 25 0 empty empty empty 0 -10 0 12 #c6feff #000000 #000000 0 1;
#X obj 555 241 Dflipflop;
#X obj 555 326 != 1;
#X obj 476 276 f;
#X obj 567 277 f;
#X obj 634 364 tgl 25 0 empty empty empty 0 -10 0 12 #c6feff #000000 #000000 0 1;
#X obj 634 242 Dflipflop;
#X obj 634 327 != 1;
#X obj 725 366 tgl 25 0 empty empty empty 0 -10 0 12 #c6feff #000000 #000000 0 1;
#X obj 725 244 Dflipflop;
#X obj 725 329 != 1;
#X obj 646 279 f;
#X obj 737 280 f;
#X obj 802 367 tgl 25 0 empty empty empty 0 -10 0 12 #c6feff #000000 #000000 0 1;
#X obj 802 245 Dflipflop;
#X obj 802 330 != 1;
#X obj 814 281 f;
#X msg 683 151 0;
#X msg 724 151 1;
#X connect 0 0 1 0;
#X connect 1 0 2 1;
#X connect 1 0 3 1;
#X connect 1 0 4 1;
#X connect 1 0 5 1;
#X connect 1 0 13 0;
#X connect 1 0 26 1;
#X connect 2 1 12 1;
#X connect 3 1 16 1;
#X connect 4 1 19 1;
#X connect 5 1 23 1;
#X connect 6 0 2 3;
#X connect 7 0 5 3;
#X connect 7 0 3 3;
#X connect 7 0 26 3;
#X connect 7 0 4 3;
#X connect 12 0 14 0;
#X connect 13 0 12 0;
#X connect 13 0 16 0;
#X connect 13 0 19 0;
#X connect 13 0 23 0;
#X connect 13 0 27 0;
#X connect 14 0 15 0;
#X connect 14 1 3 2;
#X connect 15 0 3 0;
#X connect 16 0 17 0;
#X connect 17 0 18 0;
#X connect 17 1 4 2;
#X connect 18 0 4 0;
#X connect 19 0 20 0;
#X connect 20 0 21 0;
#X connect 20 1 5 2;
#X connect 21 0 5 0;
#X connect 22 0 0 0;
#X connect 23 0 24 0;
#X connect 24 0 25 0;
#X connect 24 1 26 2;
#X connect 25 0 26 0;
#X connect 26 1 27 1;
#X connect 27 0 28 0;
#X connect 28 0 29 0;
#X connect 28 1 2 2;
#X connect 29 0 2 0;
#X connect 31 0 0 1;
#X connect 32 0 0 1;
#X connect 33 0 0 1;
#X connect 34 0 35 0;
#X connect 35 0 36 0;
#X connect 35 0 41 1;
#X connect 36 0 46 0;
#X connect 36 0 47 0;
#X connect 36 0 54 0;
#X connect 36 0 55 0;
#X connect 36 0 59 0;
#X connect 37 0 34 0;
#X connect 38 0 34 1;
#X connect 39 0 34 1;
#X connect 40 0 34 1;
#X connect 41 0 42 0;
#X connect 41 1 46 1;
#X connect 41 2 44 1;
#X connect 42 0 8 0;
#X connect 44 0 45 0;
#X connect 44 1 47 1;
#X connect 44 2 49 1;
#X connect 45 0 43 0;
#X connect 46 0 44 0;
#X connect 47 0 49 0;
#X connect 49 0 50 0;
#X connect 49 1 54 1;
#X connect 49 2 52 1;
#X connect 50 0 48 0;
#X connect 52 0 53 0;
#X connect 52 1 55 1;
#X connect 52 2 57 1;
#X connect 53 0 51 0;
#X connect 54 0 52 0;
#X connect 55 0 57 0;
#X connect 57 0 58 0;
#X connect 57 1 59 1;
#X connect 58 0 56 0;
#X connect 59 0 41 0;
#X connect 60 0 41 2;
