#N canvas 152 152 1920 1016 12;
#X obj 70 152 dbreak;
#X obj 141 151 dshift;
#X obj 56 21 tgl 19 0 empty empty empty 0 -10 0 12 #fcfcfc #000000 #000000 0 1;
#X obj 56 45 metro 1500;
#X obj 56 69 tgl 19 0 empty empty empty 0 -10 0 12 #fcfcfc #000000 #000000 0 1;
#X obj 210 150 dshift;
#X obj 70 264 tgl 24 0 empty empty empty 0 -10 0 12 #e3c6ff #000000 #000000 0 1;
#X obj 142 263 tgl 24 0 empty empty empty 0 -10 0 12 #e3c6ff #000000 #000000 0 1;
#X obj 210 263 tgl 24 0 empty empty empty 0 -10 0 12 #e3c6ff #000000 #000000 0 1;
#X text 554 32 in: df \, sm \, db \, out:df \, sm \, db;
#X obj 429 187 dshift;
#X obj 498 186 dshift;
#X obj 430 299 tgl 24 0 empty empty empty 0 -10 0 12 #e3c6ff #000000 #000000 0 1;
#X obj 498 299 tgl 24 0 empty empty empty 0 -10 0 12 #e3c6ff #000000 #000000 0 1;
#X obj 468 67 tgl 19 0 empty empty empty 0 -10 0 12 #fcfcfc #000000 #000000 0 1;
#X obj 468 91 metro 1500;
#X obj 468 115 tgl 19 0 empty empty empty 0 -10 0 12 #fcfcfc #000000 #000000 0 1;
#X obj 415 158 tgl 19 0 empty empty empty 0 -10 0 12 #fcfcfc #000000 #000000 0 1;
#X obj 556 187 dshift;
#X obj 625 186 dshift;
#X obj 557 299 tgl 24 0 empty empty empty 0 -10 0 12 #e3c6ff #000000 #000000 0 1;
#X obj 625 299 tgl 24 0 empty empty empty 0 -10 0 12 #e3c6ff #000000 #000000 0 1;
#X obj 683 188 dshift;
#X obj 752 187 dshift;
#X obj 684 300 tgl 24 0 empty empty empty 0 -10 0 12 #e3c6ff #000000 #000000 0 1;
#X obj 752 300 tgl 24 0 empty empty empty 0 -10 0 12 #e3c6ff #000000 #000000 0 1;
#X obj 810 188 dshift;
#X obj 879 187 dshift;
#X obj 811 300 tgl 24 0 empty empty empty 0 -10 0 12 #e3c6ff #000000 #000000 0 1;
#X obj 879 300 tgl 24 0 empty empty empty 0 -10 0 12 #e3c6ff #000000 #000000 0 1;
#X msg 589 66 500;
#X connect 0 0 1 0;
#X connect 0 0 6 0;
#X connect 0 1 1 1;
#X connect 1 0 5 0;
#X connect 1 0 7 0;
#X connect 1 1 5 1;
#X connect 2 0 3 0;
#X connect 3 0 4 0;
#X connect 4 0 0 0;
#X connect 5 0 8 0;
#X connect 5 2 0 2;
#X connect 10 0 11 0;
#X connect 10 0 12 0;
#X connect 10 1 11 1;
#X connect 11 0 18 0;
#X connect 11 0 13 0;
#X connect 11 1 18 1;
#X connect 14 0 15 0;
#X connect 15 0 16 0;
#X connect 16 0 10 1;
#X connect 17 0 10 0;
#X connect 18 0 19 0;
#X connect 18 0 20 0;
#X connect 18 1 19 1;
#X connect 19 0 22 0;
#X connect 19 0 21 0;
#X connect 19 1 22 1;
#X connect 22 0 23 0;
#X connect 22 0 24 0;
#X connect 22 1 23 1;
#X connect 23 0 26 0;
#X connect 23 0 25 0;
#X connect 23 1 26 1;
#X connect 26 0 27 0;
#X connect 26 0 28 0;
#X connect 26 1 27 1;
#X connect 27 0 29 0;
#X connect 30 0 15 1;
