#N canvas 1105 7 704 507 12;
#X obj 77 101 Dflipflop;
#X msg 137 75 0;
#X obj 77 134 t f f;
#X obj 133 163 f;
#X obj 196 131 t b f;
#X obj 23 11 inlet D;
#X obj 97 11 inlet clk;
#X obj 123 219 outlet D;
#X obj 192 219 outlet clk;
#X obj 178 11 inlet trig;
#X obj 18 217 outlet DF;
#X obj 274 13 inlet db;
#X obj 279 220 outlet db;
#X obj 23 63 != 1;
#X obj 23 35 t f f f;
#X obj 137 130 bang;
#X connect 0 1 2 0;
#X connect 0 2 15 0;
#X connect 1 0 0 2;
#X connect 2 0 10 0;
#X connect 2 1 3 1;
#X connect 3 0 7 0;
#X connect 5 0 14 0;
#X connect 9 0 1 0;
#X connect 11 0 0 0;
#X connect 13 0 12 0;
#X connect 14 0 13 0;
#X connect 14 1 0 1;
#X connect 14 2 8 0;
#X connect 15 0 3 0;
