#N canvas 228 228 1920 1016 12;
#X obj 120 209 NORShift break;
#X obj 256 208 NORShift;
#X obj 336 209 NORShift;
#X obj 413 209 NORShift;
#X obj 168 76 tgl 19 0 empty empty empty 0 -10 0 12 #fcfcfc #000000 #000000 0 1;
#X obj 168 100 metro 1500;
#X obj 168 124 tgl 19 0 empty empty empty 0 -10 0 12 #fcfcfc #000000 #000000 0 1;
#X obj 65 94 tgl 19 0 empty empty empty 0 -10 0 12 #fcfcfc #000000 #000000 0 1;
#X text 525 23 in: df \, clk \, out: !Q \, Q \, clk;
#X obj 128 299 tgl 25 0 empty empty empty 0 -10 0 12 #c6feff #000000 #000000 0 1;
#X obj 220 303 tgl 25 0 empty empty empty 0 -10 0 12 #c6feff #000000 #000000 0 1;
#X obj 321 303 tgl 25 0 empty empty empty 0 -10 0 12 #c6feff #000000 #000000 0 1;
#X obj 426 303 tgl 25 0 empty empty empty 0 -10 0 12 #c6feff #000000 #000000 0 1;
#X obj 499 213 NORShift;
#X obj 576 213 NORShift, f 9;
#X obj 484 307 tgl 25 0 empty empty empty 0 -10 0 12 #c6feff #000000 #000000 0 1;
#X obj 589 307 tgl 25 0 empty empty empty 0 -10 0 12 #c6feff #000000 #000000 0 1;
#X connect 0 0 1 0;
#X connect 0 0 9 0;
#X connect 0 2 1 1;
#X connect 1 1 2 0;
#X connect 1 1 10 0;
#X connect 1 2 2 1;
#X connect 2 1 3 0;
#X connect 2 1 11 0;
#X connect 2 2 3 1;
#X connect 3 1 12 0;
#X connect 3 1 13 0;
#X connect 3 2 13 1;
#X connect 4 0 5 0;
#X connect 5 0 6 0;
#X connect 6 0 0 1;
#X connect 7 0 0 0;
#X connect 13 1 14 0;
#X connect 13 1 15 0;
#X connect 13 2 14 1;
#X connect 14 1 16 0;
#X connect 14 2 0 0;
