#N canvas 228 228 1920 1016 12;
#X obj 224 188 == 1;
#X obj 256 106 tgl 19 0 empty empty empty 0 -10 0 12 #fcfcfc #000000 #000000 0 1;
#X obj 241 300 tgl 19 0 empty empty empty 0 -10 0 12 #fcfcfc #000000 #000000 0 1;
#X obj 224 214 t f f;
#X obj 201 241 sel 1;
#X obj 264 242 sel 0;
#X msg 201 265 1;
#X msg 264 266 0;
#X obj 225 148 f;
#X obj 123 26 tgl 19 0 empty empty empty 0 -10 0 12 #fcfcfc #000000 #000000 0 1;
#X obj 123 50 metro 500;
#X obj 360 188 == 1;
#X obj 377 300 tgl 19 0 empty empty empty 0 -10 0 12 #fcfcfc #000000 #000000 0 1;
#X obj 360 214 t f f;
#X obj 337 241 sel 1;
#X obj 400 242 sel 0;
#X msg 337 265 1;
#X msg 400 266 0;
#X obj 361 148 f;
#X obj 485 192 == 1;
#X obj 502 304 tgl 19 0 empty empty empty 0 -10 0 12 #fcfcfc #000000 #000000 0 1;
#X obj 485 218 t f f;
#X obj 462 245 sel 1;
#X obj 525 246 sel 0;
#X msg 462 269 1;
#X msg 525 270 0;
#X obj 486 152 f;
#X obj 621 192 == 1;
#X obj 638 304 tgl 19 0 empty empty empty 0 -10 0 12 #fcfcfc #000000 #000000 0 1;
#X obj 621 218 t f f;
#X obj 598 245 sel 1;
#X obj 661 246 sel 0;
#X msg 598 269 1;
#X msg 661 270 0;
#X obj 622 152 f;
#X obj 123 74 tgl 19 0 empty empty empty 0 -10 0 12 #fcfcfc #000000 #000000 0 1;
#X obj 123 98 sel 1;
#X obj 235 347 f;
#X connect 0 0 3 0;
#X connect 1 0 8 1;
#X connect 2 0 37 1;
#X connect 3 0 4 0;
#X connect 3 1 5 0;
#X connect 4 0 6 0;
#X connect 5 0 7 0;
#X connect 6 0 2 0;
#X connect 7 0 2 0;
#X connect 8 0 0 0;
#X connect 9 0 10 0;
#X connect 10 0 35 0;
#X connect 11 0 13 0;
#X connect 12 0 26 1;
#X connect 13 0 14 0;
#X connect 13 1 15 0;
#X connect 14 0 16 0;
#X connect 15 0 17 0;
#X connect 16 0 12 0;
#X connect 17 0 12 0;
#X connect 18 0 11 0;
#X connect 19 0 21 0;
#X connect 20 0 34 1;
#X connect 21 0 22 0;
#X connect 21 1 23 0;
#X connect 22 0 24 0;
#X connect 23 0 25 0;
#X connect 24 0 20 0;
#X connect 25 0 20 0;
#X connect 26 0 19 0;
#X connect 27 0 29 0;
#X connect 29 0 30 0;
#X connect 29 1 31 0;
#X connect 30 0 32 0;
#X connect 31 0 33 0;
#X connect 32 0 28 0;
#X connect 33 0 28 0;
#X connect 34 0 27 0;
#X connect 35 0 36 0;
#X connect 36 0 8 0;
#X connect 36 0 26 0;
#X connect 36 0 34 0;
#X connect 36 0 37 0;
#X connect 36 0 18 0;
#X connect 37 0 18 1;
