#N canvas 0 0 1924 1020 12;
#X obj 9 80 step, f 8;
#X obj 148 80 step, f 8;
#X obj 8 152 step, f 8;
#X obj 147 154 step, f 8;
#X obj 8 231 step, f 8;
#X obj 147 233 step, f 8;
#X obj 7 306 step, f 8;
#X obj 146 308 step, f 8;
#X obj 4 382 step, f 8;
#X obj 143 384 step, f 10;
#X obj 9 54 r l1;
#X obj 148 53 r l2;
#X obj 8 125 r l3;
#X obj 147 126 r l4;
#X obj 8 203 r l5;
#X obj 147 205 r l6;
#X obj 7 278 r l7;
#X obj 146 280 r l8;
#X obj 4 355 r l9;
#X obj 143 356 r l10;
#X obj 26 30 r p1;
#X obj 165 29 r p2;
#X obj 25 102 r p3;
#X obj 164 103 r p4;
#X obj 25 179 r p5;
#X obj 165 181 r p6;
#X obj 24 254 r p7;
#X obj 164 256 r p8;
#X obj 21 331 r p9;
#X obj 164 332 r p10;
#X obj 44 54 r g1;
#X obj 183 53 r g2;
#X obj 43 125 r g3;
#X obj 182 126 r g4;
#X obj 43 203 r g5;
#X obj 182 205 r g6;
#X obj 42 278 r g7;
#X obj 181 280 r g8;
#X obj 39 355 r g9;
#X obj 187 356 r g10;
#X obj 59 5 filterpacks, f 14;
#X obj 91 421 outlet~;
#X connect 0 0 41 0;
#X connect 1 0 41 0;
#X connect 2 0 41 0;
#X connect 3 0 41 0;
#X connect 4 0 41 0;
#X connect 5 0 41 0;
#X connect 6 0 41 0;
#X connect 7 0 41 0;
#X connect 8 0 41 0;
#X connect 9 0 41 0;
#X connect 10 0 0 0;
#X connect 11 0 1 0;
#X connect 12 0 2 0;
#X connect 13 0 3 0;
#X connect 14 0 4 0;
#X connect 15 0 5 0;
#X connect 16 0 6 0;
#X connect 17 0 7 0;
#X connect 18 0 8 0;
#X connect 19 0 9 0;
#X connect 20 0 0 1;
#X connect 21 0 1 1;
#X connect 22 0 2 1;
#X connect 23 0 3 1;
#X connect 24 0 4 1;
#X connect 25 0 5 1;
#X connect 26 0 6 1;
#X connect 27 0 7 1;
#X connect 28 0 8 1;
#X connect 29 0 9 1;
#X connect 30 0 0 2;
#X connect 31 0 1 2;
#X connect 32 0 2 2;
#X connect 33 0 3 2;
#X connect 34 0 4 2;
#X connect 35 0 5 2;
#X connect 36 0 6 2;
#X connect 37 0 7 2;
#X connect 38 0 8 2;
#X connect 39 0 9 2;
#X connect 40 0 0 3;
#X connect 40 1 1 3;
#X connect 40 2 2 3;
#X connect 40 3 3 3;
#X connect 40 4 4 3;
#X connect 40 5 5 3;
#X connect 40 6 6 3;
#X connect 40 7 7 3;
#X connect 40 8 8 3;
#X connect 40 9 9 3;
