#N canvas 76 76 1920 1016 12;
#X obj 27 149 break, f 6;
#X obj 80 149 shift, f 6;
#X obj 132 149 shift, f 6;
#X obj 183 149 shift, f 6;
#X obj 34 63 tgl 19 0 empty empty empty 0 -10 0 12 #fcfcfc #000000 #000000 0 1;
#X obj 34 87 metro 1000;
#X obj 34 111 tgl 19 0 empty empty empty 0 -10 0 12 #fcfcfc #000000 #000000 0 1;
#X obj 163 111 bng 19 250 50 0 empty empty empty 0 -10 0 12 #fcfcfc #000000 #000000;
#X obj 96 231 tgl 24 0 empty empty empty 0 -10 0 12 #00faff #000000 #000000 0 1;
#X obj 35 228 tgl 24 0 empty empty empty 0 -10 0 12 #00faff #000000 #000000 0 1;
#X obj 147 231 tgl 24 0 empty empty empty 0 -10 0 12 #00faff #000000 #000000 0 1;
#X obj 206 231 tgl 24 0 empty empty empty 0 -10 0 12 #00faff #000000 #000000 0 1;
#X obj 264 148 shift, f 6;
#X obj 316 148 shift, f 6;
#X obj 367 148 shift, f 6;
#X obj 268 75 metro 1000;
#X obj 329 97 bng 19 250 50 0 empty empty empty 0 -10 0 12 #fcfcfc #000000 #000000;
#X obj 280 230 tgl 24 0 empty empty empty 0 -10 0 12 #00faff #000000 #000000 0 1;
#X obj 331 230 tgl 24 0 empty empty empty 0 -10 0 12 #00faff #000000 #000000 0 1;
#X obj 390 230 tgl 24 0 empty empty empty 0 -10 0 12 #00faff #000000 #000000 0 1;
#X obj 266 36 tgl 19 0 empty empty empty 0 -10 0 12 #fcfcfc #000000 #000000 0 1;
#X obj 268 99 tgl 19 0 empty empty empty 0 -10 0 12 #fcfcfc #000000 #000000 0 1;
#X obj 419 148 shift, f 6;
#X obj 442 230 tgl 24 0 empty empty empty 0 -10 0 12 #00faff #000000 #000000 0 1;
#X msg 395 91 1;
#X connect 0 0 1 0;
#X connect 0 1 9 0;
#X connect 0 1 1 2;
#X connect 0 2 1 1;
#X connect 1 0 2 0;
#X connect 1 1 2 2;
#X connect 1 1 8 0;
#X connect 1 2 2 1;
#X connect 2 0 3 0;
#X connect 2 1 3 2;
#X connect 2 1 10 0;
#X connect 2 2 3 1;
#X connect 3 0 0 0;
#X connect 3 1 11 0;
#X connect 3 2 0 2;
#X connect 4 0 5 0;
#X connect 5 0 6 0;
#X connect 6 0 0 1;
#X connect 7 0 0 4;
#X connect 7 0 3 4;
#X connect 7 0 1 4;
#X connect 7 0 2 4;
#X connect 12 0 13 0;
#X connect 12 1 17 0;
#X connect 12 1 13 2;
#X connect 13 0 14 0;
#X connect 13 1 14 2;
#X connect 13 1 18 0;
#X connect 14 0 22 0;
#X connect 14 1 22 2;
#X connect 14 1 19 0;
#X connect 15 0 21 0;
#X connect 16 0 12 4;
#X connect 20 0 15 0;
#X connect 21 0 12 1;
#X connect 21 0 13 1;
#X connect 21 0 14 1;
#X connect 21 0 22 1;
#X connect 22 0 12 0;
#X connect 22 1 12 2;
#X connect 22 1 23 0;
#X connect 24 0 14 4;
