#N canvas 152 152 1920 1016 12;
#X obj 80 35 tgl 19 0 empty empty empty 0 -10 0 12 #fcfcfc #000000 #000000 0 1;
#X obj 80 83 tgl 19 0 empty empty empty 0 -10 0 12 #fcfcfc #000000 #000000 0 1;
#X obj 80 59 metro 1500;
#X msg 142 26 500;
#X obj 75 166 JKFF A;
#X msg 186 54 1;
#X obj 186 78 t f f;
#X obj 186 102 != 1;
#X obj 77 221 JKFF B;
#X obj 78 284 JKFF B;
#X obj 12 115 t f f f;
#X obj 239 152 tgl 25 0 empty empty empty 0 -10 0 12 #c6feff #000000 #000000 0 1;
#X obj 277 152 tgl 25 0 empty empty empty 0 -10 0 12 #c6feff #000000 #000000 0 1;
#X obj 314 152 tgl 25 0 empty empty empty 0 -10 0 12 #c6feff #000000 #000000 0 1;
#X obj 227 228 tgl 25 0 empty empty empty 0 -10 0 12 #feffc6 #000000 #000000 0 1;
#X obj 275 228 tgl 25 0 empty empty empty 0 -10 0 12 #feffc6 #000000 #000000 0 1;
#X obj 320 226 tgl 25 0 empty empty empty 0 -10 0 12 #feffc6 #000000 #000000 0 1;
#X msg 117 113 0;
#X obj 542 77 JKFF 1;
#X obj 645 77 JKFF 2;
#X obj 759 76 JKFF 3;
#X text 340 30 100 \, 10 \, 1 \, 100;
#X msg 583 39 0;
#X obj 583 120 tgl 25 0 empty empty empty 0 -10 0 12 #c6feff #000000 #000000 0 1;
#X obj 690 116 tgl 25 0 empty empty empty 0 -10 0 12 #c6feff #000000 #000000 0 1;
#X obj 802 117 tgl 25 0 empty empty empty 0 -10 0 12 #c6feff #000000 #000000 0 1;
#X msg 686 39 1;
#X msg 799 40 1;
#X msg 582 14 1;
#X obj 645 36 tgl 19 0 empty empty empty 0 -10 0 12 #fcfcfc #000000 #000000 0 1;
#X obj 589 160 != 1;
#X obj 692 159 != 1;
#X obj 803 159 != 1;
#X obj 769 37 tgl 19 0 empty empty empty 0 -10 0 12 #fcfcfc #000000 #000000 0 1;
#X obj 550 22 tgl 19 0 empty empty empty 0 -10 0 12 #fcfcfc #000000 #000000 0 1;
#X obj 459 368 f;
#X obj 467 277 JKFF 1;
#X obj 570 277 JKFF 2;
#X obj 684 276 JKFF 3;
#X msg 508 239 0;
#X obj 508 320 tgl 25 0 empty empty empty 0 -10 0 12 #c6feff #000000 #000000 0 1;
#X msg 611 239 1;
#X msg 724 240 1;
#X msg 507 214 1;
#X obj 570 236 tgl 19 0 empty empty empty 0 -10 0 12 #fcfcfc #000000 #000000 0 1;
#X obj 514 360 != 1;
#X obj 694 237 tgl 19 0 empty empty empty 0 -10 0 12 #fcfcfc #000000 #000000 0 1;
#X obj 475 222 tgl 19 0 empty empty empty 0 -10 0 12 #fcfcfc #000000 #000000 0 1;
#X obj 510 400 f;
#X obj 570 377 f;
#X obj 609 328 tgl 25 0 empty empty empty 0 -10 0 12 #c6feff #000000 #000000 0 1;
#X obj 615 368 != 1;
#X obj 611 408 f;
#X obj 689 380 f;
#X obj 728 331 tgl 25 0 empty empty empty 0 -10 0 12 #c6feff #000000 #000000 0 1;
#X obj 734 371 != 1;
#X obj 730 411 f;
#X obj 387 258 sel 1;
#X connect 0 0 2 0;
#X connect 1 0 10 0;
#X connect 2 0 1 0;
#X connect 3 0 2 1;
#X connect 4 0 14 0;
#X connect 4 0 8 0;
#X connect 4 1 11 0;
#X connect 4 1 8 2;
#X connect 5 0 6 0;
#X connect 5 0 8 3;
#X connect 5 0 9 3;
#X connect 6 0 7 0;
#X connect 6 1 4 2;
#X connect 7 0 4 0;
#X connect 8 0 9 0;
#X connect 8 0 15 0;
#X connect 8 1 9 2;
#X connect 8 1 12 0;
#X connect 9 0 16 0;
#X connect 9 1 13 0;
#X connect 9 1 6 0;
#X connect 10 0 9 1;
#X connect 10 1 8 1;
#X connect 10 2 4 1;
#X connect 17 0 4 3;
#X connect 18 1 23 0;
#X connect 19 1 24 0;
#X connect 20 1 25 0;
#X connect 22 0 18 3;
#X connect 23 0 19 2;
#X connect 23 0 30 0;
#X connect 24 0 31 0;
#X connect 24 0 20 2;
#X connect 25 0 32 0;
#X connect 25 0 18 2;
#X connect 26 0 19 3;
#X connect 27 0 20 3;
#X connect 28 0 18 3;
#X connect 29 0 19 1;
#X connect 30 0 19 0;
#X connect 31 0 20 0;
#X connect 32 0 18 0;
#X connect 33 0 20 1;
#X connect 34 0 18 1;
#X connect 35 0 37 2;
#X connect 36 1 40 0;
#X connect 37 1 50 0;
#X connect 38 1 54 0;
#X connect 39 0 36 3;
#X connect 40 0 45 0;
#X connect 40 0 35 1;
#X connect 41 0 37 3;
#X connect 42 0 38 3;
#X connect 43 0 36 3;
#X connect 44 0 37 1;
#X connect 45 0 48 1;
#X connect 46 0 38 1;
#X connect 47 0 36 1;
#X connect 47 0 57 0;
#X connect 47 0 37 1;
#X connect 47 0 38 1;
#X connect 48 0 37 0;
#X connect 49 0 38 2;
#X connect 50 0 51 0;
#X connect 50 0 49 1;
#X connect 51 0 52 1;
#X connect 52 0 38 0;
#X connect 53 0 36 2;
#X connect 54 0 55 0;
#X connect 54 0 53 1;
#X connect 55 0 56 1;
#X connect 56 0 36 0;
#X connect 57 0 35 0;
#X connect 57 0 48 0;
#X connect 57 0 49 0;
#X connect 57 0 52 0;
#X connect 57 0 53 0;
#X connect 57 0 56 0;
