#N canvas 950 0 958 1004 12;
#X obj 116 315 JKFF, f 9;
#X obj 158 372 t f f;
#X obj 158 396 != 1;
#X obj 57 442 outlet !Q;
#X obj 190 444 outlet Q;
#X obj 290 176 inlet reset;
#X obj 14 175 inlet K;
#X obj 129 174 inlet CLK;
#X obj 224 174 inlet J;
#X msg 191 143 1;
#X msg 83 145 0;
#X obj 158 346 f;
#X obj 290 200 sel 1;
#X msg 290 224 0;
#X obj 390 176 inlet trig;
#X obj 390 200 t b b;
#X obj 83 169 t f f;
#X text 9 10 Shift funkar i praktiken som break. Skillnaden är avv vi initsierar i 0 ist för 1/ eller vi ändrar inte den är som den är.;
#X obj 268 444 outlet CLK;
#X obj 129 198 t f f f;
#X obj 129 226 sel 1;
#X obj 27 243 tgl 19 0 empty empty empty 0 -10 0 12 #fcfcfc #000000 #000000 0 1;
#X obj 76 217 tgl 19 0 empty empty empty 0 -10 0 12 #fcfcfc #000000 #000000 0 1;
#X obj 281 298 tgl 19 0 empty empty empty 0 -10 0 12 #fcfcfc #000000 #000000 0 1;
#X obj 261 348 tgl 19 0 empty empty empty 0 -10 0 12 #fcfcfc #000000 #000000 0 1;
#X obj 259 379 tgl 19 0 empty empty empty 0 -10 0 12 #fcfcfc #000000 #000000 0 1;
#X obj 267 409 tgl 19 0 empty empty empty 0 -10 0 12 #fcfcfc #000000 #000000 0 1;
#X obj 43 331 tgl 19 0 empty empty empty 0 -10 0 12 #fcfcfc #000000 #000000 0 1;
#X obj 192 235 tgl 19 0 empty empty empty 0 -10 0 12 #fcfcfc #000000 #000000 0 1;
#X connect 0 1 11 1;
#X connect 0 1 24 0;
#X connect 1 0 2 0;
#X connect 1 1 4 0;
#X connect 1 1 26 0;
#X connect 2 0 3 0;
#X connect 2 0 27 0;
#X connect 5 0 0 3;
#X connect 5 0 12 0;
#X connect 6 0 0 0;
#X connect 6 0 21 0;
#X connect 7 0 19 0;
#X connect 8 0 0 2;
#X connect 8 0 23 0;
#X connect 9 0 0 2;
#X connect 10 0 16 0;
#X connect 11 0 1 0;
#X connect 11 0 25 0;
#X connect 12 0 13 0;
#X connect 13 0 11 0;
#X connect 14 0 15 0;
#X connect 15 0 10 0;
#X connect 15 1 9 0;
#X connect 16 0 11 0;
#X connect 16 0 22 0;
#X connect 16 1 0 0;
#X connect 19 0 20 0;
#X connect 19 1 0 1;
#X connect 19 2 18 0;
#X connect 19 2 28 0;
#X connect 20 0 11 0;
