#N canvas 224 224 1920 1026 12;
#X obj 122 220 modeny;
#X msg 359 129 1;
#X obj 359 153 t b f;
#X msg 402 118 1;
#X obj 392 227 tgl 19 0 empty empty empty 0 -10 0 12 #fcfcfc #000000 #000000 0 1;
#X obj 451 227 tgl 19 0 empty empty empty 0 -10 0 12 #fcfcfc #000000 #000000 0 1;
#X obj 509 227 tgl 19 0 empty empty empty 0 -10 0 12 #fcfcfc #000000 #000000 0 1;
#X obj 568 227 tgl 19 0 empty empty empty 0 -10 0 12 #fcfcfc #000000 #000000 0 1;
#X msg 537 126 0;
#X obj 598 112 tgl 19 0 empty empty empty 0 -10 0 12 #fcfcfc #000000 #000000 0 1;
#X obj 377 195 modeny, f 7;
#X obj 436 195 modeny, f 7;
#X obj 494 195 modeny, f 7;
#X obj 553 195 modeny, f 7;
#X connect 1 0 2 0;
#X connect 2 0 10 1;
#X connect 2 1 10 0;
#X connect 3 0 10 2;
#X connect 3 0 11 2;
#X connect 3 0 12 2;
#X connect 3 0 13 2;
#X connect 8 0 12 2;
#X connect 9 0 12 4;
#X connect 10 1 4 0;
#X connect 10 2 11 0;
#X connect 10 3 11 1;
#X connect 11 0 10 4;
#X connect 11 1 5 0;
#X connect 11 2 12 0;
#X connect 11 3 12 1;
#X connect 12 0 11 4;
#X connect 12 1 6 0;
#X connect 12 2 13 0;
#X connect 12 3 13 1;
#X connect 13 0 12 4;
#X connect 13 1 7 0;
