#N canvas -58 -24 1920 1016 12;
#X obj 306 97 value step;
#X msg 310 55 0;
#X obj 139 210 array size state;
#X obj 134 153 bng 19 250 50 0 empty empty empty 0 -10 0 12 #fcfcfc #000000 #000000;
#X floatatom 139 234 5 0 0 0 - - - 0;
#X obj 319 218 array size state;
#X msg 316 173 10;
#X obj 505 287 array get state;
#X listbox 472 328 54 0 0 0 - - - 0;
#X obj 558 170 bng 19 250 50 0 empty empty empty 0 -10 0 12 #fcfcfc #000000 #000000;
#X msg 543 237 1;
#X msg 464 169 1;
#X floatatom 498 204 5 0 0 0 - - - 0;
#X msg 516 167 0;
#X obj 374 431 value prevstate;
#X obj 408 363 array get state 0 1;
#X floatatom 387 393 5 0 0 0 - - - 0;
#X obj 270 310 bng 19 250 50 0 empty empty empty 0 -10 0 12 #fcfcfc #000000 #000000;
#X obj 593 394 value prevstate;
#X floatatom 593 418 5 0 0 0 - - - 0;
#X obj 590 361 bng 19 250 50 0 empty empty empty 0 -10 0 12 #fcfcfc #000000 #000000;
#X msg 305 308 2;
#X listbox 442 391 20 0 0 0 - - - 0;
#X obj 415 325 v step;
#X obj 414 289 bng 19 250 50 0 empty empty empty 0 -10 0 12 #fcfcfc #000000 #000000;
#X obj 62 363 array set state;
#X msg 582 233 -1;
#X obj 571 100 array define -yrange 0 1 state 10;
#X msg 56 323 0 0 0 0 1 0 0 0 1 0;
#X connect 1 0 0 0;
#X connect 2 0 4 0;
#X connect 3 0 2 0;
#X connect 6 0 5 0;
#X connect 7 0 8 0;
#X connect 9 0 7 0;
#X connect 10 0 7 1;
#X connect 11 0 7 0;
#X connect 12 0 7 0;
#X connect 13 0 7 0;
#X connect 15 0 16 0;
#X connect 15 0 22 0;
#X connect 16 0 14 0;
#X connect 17 0 15 0;
#X connect 18 0 19 0;
#X connect 20 0 18 0;
#X connect 21 0 15 0;
#X connect 23 0 15 0;
#X connect 24 0 23 0;
#X connect 26 0 7 1;
#X connect 28 0 25 0;
