#N canvas 145 -18 1920 1016 12;
#X obj 139 119 == 1;
#X obj 139 143 sel 1;
#X obj 139 91 value shift;
#X obj 78 19 loadbang;
#X obj 20 143 value prevstate;
#X obj 278 93 value i;
#X obj 278 119 array get state 0 1;
#X obj 278 143 value tmp;
#X obj 498 52 value prevstate;
#X obj 498 23 bng 19 250 50 0 empty empty empty 0 -10 0 12 #fcfcfc #000000 #000000;
#X floatatom 498 76 5 0 0 0 - - - 0;
#X obj 139 168 value prevstate;
#X obj 139 218 array set state;
#X obj 190 195 value i;
#X obj 20 93 value tmp;
#X obj 150 45 t b b b b;
#X obj 150 19 inlet;
#X obj 20 167 bang;
#X obj 20 191 outlet;
#X msg 412 12 \; shift 1;
#X obj 20 117 t b f;
#X connect 0 0 1 0;
#X connect 1 0 11 0;
#X connect 2 0 0 0;
#X connect 3 0 15 0;
#X connect 4 0 17 0;
#X connect 5 0 6 0;
#X connect 6 0 7 0;
#X connect 8 0 10 0;
#X connect 9 0 8 0;
#X connect 11 0 12 0;
#X connect 13 0 12 1;
#X connect 14 0 20 0;
#X connect 15 0 14 0;
#X connect 15 1 2 0;
#X connect 15 2 13 0;
#X connect 15 3 5 0;
#X connect 16 0 15 0;
#X connect 17 0 18 0;
#X connect 20 0 4 0;
#X connect 20 1 4 0;
