#N canvas 950 0 1920 1016 12;
#X obj 237 167 Dflipflop;
#X obj 240 264 != 1;
#X obj 333 286 f;
#X obj 335 235 t f f;
#X obj 333 263 sel 1;
#X obj 259 382 outlet lamp;
#X obj 349 382 outlet DF;
#X obj 424 382 outlet clk;
#X obj 56 26 inlet DF;
#X obj 169 14 inlet clk;
#X obj 299 13 inlet reset;
#X obj 55 54 t f f;
#X obj 153 304 f;
#X obj 131 269 bang;
#X obj 400 15 inlet DB;
#X obj 182 382 outlet DB;
#X obj 581 298 inlet mode;
#X obj 346 88 spigot;
#X obj 400 39 t f f;
#X obj 402 89 spigot;
#X obj 35 109 spigot;
#X obj 91 110 spigot;
#X obj 35 133 t f f;
#X obj 169 38 t f f;
#X obj 181 77 spigot;
#X obj 237 78 spigot;
#X obj 581 322 t f f;
#X obj 581 346 == 2;
#X obj 643 347 == 4;
#X obj 581 370 t f f f;
#X obj 643 371 t f f f;
#X obj 33 361 bng 19 250 50 0 empty empty empty 0 -10 0 12 #fcfcfc #000000 #000000;
#X obj 70 364 bng 19 250 50 0 empty empty empty 0 -10 0 12 #fcfcfc #000000 #000000;
#X obj 137 382 bng 19 250 50 0 empty empty empty 0 -10 0 12 #fcfcfc #000000 #000000;
#X obj 269 321 bng 19 250 50 0 empty empty empty 0 -10 0 12 #fcfcfc #000000 #000000;
#X obj 309 338 bng 19 250 50 0 empty empty empty 0 -10 0 12 #fcfcfc #000000 #000000;
#X obj 191 244 bng 19 250 50 0 empty empty empty 0 -10 0 12 #fcfcfc #000000 #000000;
#X obj 366 456 bng 19 250 50 0 empty empty empty 0 -10 0 12 #fcfcfc #000000 #000000;
#X connect 0 0 1 0;
#X connect 0 1 2 1;
#X connect 0 1 36 0;
#X connect 0 2 3 0;
#X connect 1 0 5 0;
#X connect 1 0 34 0;
#X connect 2 0 6 0;
#X connect 2 0 35 0;
#X connect 3 0 7 0;
#X connect 3 1 4 0;
#X connect 4 0 2 0;
#X connect 8 0 11 0;
#X connect 9 0 13 0;
#X connect 9 0 23 0;
#X connect 10 0 0 2;
#X connect 11 0 20 0;
#X connect 11 1 21 0;
#X connect 12 0 15 0;
#X connect 12 0 33 0;
#X connect 13 0 12 0;
#X connect 14 0 0 0;
#X connect 14 0 18 0;
#X connect 16 0 26 0;
#X connect 17 0 0 0;
#X connect 18 0 17 0;
#X connect 18 1 19 0;
#X connect 19 0 15 0;
#X connect 20 0 22 0;
#X connect 21 0 0 0;
#X connect 21 0 32 0;
#X connect 22 0 0 1;
#X connect 22 0 31 0;
#X connect 22 1 12 1;
#X connect 23 0 24 0;
#X connect 23 1 25 0;
#X connect 24 0 13 0;
#X connect 25 0 0 1;
#X connect 25 0 37 0;
#X connect 26 0 27 0;
#X connect 26 1 28 0;
#X connect 27 0 29 0;
#X connect 28 0 30 0;
#X connect 29 0 20 1;
#X connect 29 1 24 1;
#X connect 29 2 17 1;
#X connect 30 0 25 1;
#X connect 30 1 21 1;
#X connect 30 2 19 1;
