#N canvas 702 91 1920 1016 12;
#X obj 51 313 break;
#X obj 212 317 shift;
#X obj 340 311 count;
#X obj 41 14 inlet DF;
#X obj 215 16 inlet clk;
#X obj 381 21 inlet reset;
#X obj 572 17 inlet DB;
#X obj 41 38 t f f f;
#X obj 215 40 t f f f;
#X obj 381 45 t f f f;
#X obj 54 419 outlet DB;
#X obj 139 419 outlet lamp;
#X obj 233 420 outlet DF;
#X obj 310 420 outlet clk;
#X obj 786 4 inlet mode;
#X obj 786 28 t f f f;
#X obj 695 69 == 2;
#X obj 796 69 == 3;
#X obj 889 68 == 4;
#X obj 695 93 t f f f f;
#X obj 796 93 t f f f f;
#X obj 889 92 t f f f;
#X obj 359 94 spigot;
#X obj 412 94 spigot;
#X obj 463 94 spigot;
#X obj 190 102 spigot;
#X obj 243 102 spigot;
#X obj 294 102 spigot;
#X obj 10 101 spigot;
#X obj 63 101 spigot;
#X obj 114 101 spigot;
#X obj 572 41 t f f;
#X obj 561 95 spigot;
#X obj 612 95 spigot;
#X connect 0 0 10 0;
#X connect 0 1 11 0;
#X connect 0 2 12 0;
#X connect 0 3 13 0;
#X connect 1 0 10 0;
#X connect 1 1 11 0;
#X connect 1 2 12 0;
#X connect 1 3 13 0;
#X connect 2 0 10 0;
#X connect 2 1 11 0;
#X connect 2 2 12 0;
#X connect 2 3 13 0;
#X connect 3 0 7 0;
#X connect 4 0 8 0;
#X connect 5 0 9 0;
#X connect 6 0 31 0;
#X connect 7 0 28 0;
#X connect 7 1 29 0;
#X connect 7 2 30 0;
#X connect 8 0 25 0;
#X connect 8 1 26 0;
#X connect 8 2 27 0;
#X connect 9 0 22 0;
#X connect 9 1 23 0;
#X connect 9 2 24 0;
#X connect 14 0 15 0;
#X connect 15 0 16 0;
#X connect 15 1 17 0;
#X connect 15 2 18 0;
#X connect 16 0 19 0;
#X connect 17 0 20 0;
#X connect 18 0 21 0;
#X connect 19 0 25 1;
#X connect 19 1 28 1;
#X connect 19 2 32 1;
#X connect 19 3 22 1;
#X connect 20 0 26 1;
#X connect 20 1 29 1;
#X connect 20 2 33 1;
#X connect 20 3 23 1;
#X connect 21 0 27 1;
#X connect 21 1 30 1;
#X connect 21 2 24 1;
#X connect 22 0 0 2;
#X connect 23 0 1 2;
#X connect 24 0 2 2;
#X connect 25 0 0 1;
#X connect 26 0 1 1;
#X connect 27 0 2 1;
#X connect 28 0 0 0;
#X connect 29 0 1 0;
#X connect 30 0 2 0;
#X connect 31 0 32 0;
#X connect 31 1 33 0;
#X connect 32 0 0 3;
#X connect 33 0 1 3;
