#N canvas 228 228 1920 1016 12;
#X obj 73 71 tgl 19 0 empty empty empty 0 -10 0 12 #fcfcfc #000000 #000000 0 1;
#X obj 73 95 metro 1000;
#X obj 73 119 tgl 19 0 empty empty empty 0 -10 0 12 #fcfcfc #000000 #000000 0 1;
#X msg 73 143 1;
#X text 177 29 BSSCCC;
#X text 307 31 DF \, clk \, reset \, DB | DB \, lamp \, DF \, clk;
#X obj 93 220 break;
#X obj 103 278 tgl 25 0 empty empty empty 0 -10 0 12 #c7c6ff #000000 #000000 0 1;
#X obj 161 220 shift;
#X obj 172 280 tgl 25 0 empty empty empty 0 -10 0 12 #c7c6ff #000000 #000000 0 1;
#X obj 224 221 shift;
#X obj 235 280 tgl 25 0 empty empty empty 0 -10 0 12 #c7c6ff #000000 #000000 0 1;
#X obj 288 220 count;
#X obj 299 280 tgl 25 0 empty empty empty 0 -10 0 12 #c7c6ff #000000 #000000 0 1;
#X obj 344 220 count;
#X obj 355 280 tgl 25 0 empty empty empty 0 -10 0 12 #c7c6ff #000000 #000000 0 1;
#X obj 399 221 count;
#X obj 410 281 tgl 25 0 empty empty empty 0 -10 0 12 #c7c6ff #000000 #000000 0 1;
#X obj 451 223 shift;
#X obj 462 283 tgl 25 0 empty empty empty 0 -10 0 12 #c7c6ff #000000 #000000 0 1;
#X obj 514 224 shift;
#X obj 525 283 tgl 25 0 empty empty empty 0 -10 0 12 #c7c6ff #000000 #000000 0 1;
#X msg 151 64 500;
#X obj 568 225 break;
#X obj 578 283 tgl 25 0 empty empty empty 0 -10 0 12 #c7c6ff #000000 #000000 0 1;
#X obj 636 225 shift;
#X obj 647 285 tgl 25 0 empty empty empty 0 -10 0 12 #c7c6ff #000000 #000000 0 1;
#X obj 699 226 shift;
#X obj 710 285 tgl 25 0 empty empty empty 0 -10 0 12 #c7c6ff #000000 #000000 0 1;
#X obj 763 225 count;
#X obj 774 285 tgl 25 0 empty empty empty 0 -10 0 12 #c7c6ff #000000 #000000 0 1;
#X obj 819 225 count;
#X obj 830 285 tgl 25 0 empty empty empty 0 -10 0 12 #c7c6ff #000000 #000000 0 1;
#X msg 207 66 200;
#X obj 646 129 bng 19 250 50 0 empty empty empty 0 -10 0 12 #fcfcfc #000000 #000000;
#X obj 135 169 tgl 19 0 empty empty empty 0 -10 0 12 #fcfcfc #000000 #000000 0 1;
#X connect 0 0 1 0;
#X connect 1 0 2 0;
#X connect 2 0 3 0;
#X connect 3 0 6 0;
#X connect 6 1 7 0;
#X connect 6 2 8 0;
#X connect 6 3 8 1;
#X connect 8 0 6 3;
#X connect 8 1 9 0;
#X connect 8 2 10 0;
#X connect 8 3 10 1;
#X connect 10 0 8 3;
#X connect 10 1 11 0;
#X connect 10 2 12 0;
#X connect 10 3 12 1;
#X connect 12 0 10 3;
#X connect 12 1 13 0;
#X connect 12 2 14 0;
#X connect 12 3 14 1;
#X connect 14 0 12 3;
#X connect 14 1 15 0;
#X connect 14 2 16 0;
#X connect 14 3 16 1;
#X connect 16 0 14 3;
#X connect 16 1 17 0;
#X connect 16 2 18 0;
#X connect 16 3 18 1;
#X connect 18 1 19 0;
#X connect 18 2 20 0;
#X connect 18 3 20 1;
#X connect 20 0 18 3;
#X connect 20 1 21 0;
#X connect 20 2 23 0;
#X connect 20 3 23 1;
#X connect 22 0 1 1;
#X connect 23 1 24 0;
#X connect 23 2 25 0;
#X connect 23 3 25 1;
#X connect 25 0 23 3;
#X connect 25 1 26 0;
#X connect 25 2 27 0;
#X connect 25 3 27 1;
#X connect 27 0 25 3;
#X connect 27 1 28 0;
#X connect 27 2 29 0;
#X connect 27 3 29 1;
#X connect 29 0 27 3;
#X connect 29 1 30 0;
#X connect 29 2 31 0;
#X connect 29 3 31 1;
#X connect 31 0 29 3;
#X connect 31 1 32 0;
#X connect 33 0 1 1;
#X connect 34 0 23 2;
#X connect 35 0 6 2;
