#N canvas 76 76 1920 1016 12;
#X obj 104 204 break;
#X obj 438 229 shift;
#X obj 739 204 count;
#X obj 16 40 inlet DF1;
#X obj 90 39 inlet clk1;
#X obj 171 39 inlet rs1;
#X obj 245 40 inlet db1;
#X obj 323 38 inlet DF2;
#X obj 397 37 inlet clk2;
#X obj 552 38 inlet db2;
#X obj 478 37 inlet rs2;
#X obj 632 37 inlet DF3;
#X obj 706 36 inlet clk3;
#X obj 787 36 inlet rs3;
#X obj 861 37 inlet db3;
#X connect 3 0 0 0;
#X connect 4 0 0 1;
#X connect 5 0 0 2;
#X connect 6 0 0 3;
#X connect 7 0 1 0;
#X connect 8 0 1 1;
#X connect 9 0 1 3;
#X connect 10 0 1 2;
#X connect 11 0 2 0;
#X connect 12 0 2 1;
#X connect 13 0 2 2;
#X connect 14 0 2 3;
