#N canvas 228 228 1920 1016 12;
#X obj 114 219 JKFF, f 10;
#X obj 570 245 Dflipflop;
#X obj 76 138 t f f;
#X obj 76 162 != 1;
#X msg 332 118 1;
#X obj 332 142 t f f;
#X obj 359 61 tgl 19 0 empty empty empty 0 -10 0 12 #fcfcfc #000000 #000000 0 1;
#X obj 359 84 t f b f;
#X obj 76 106 tgl 19 0 empty empty empty 0 -10 0 12 #fcfcfc #000000 #000000 0 1;
#X obj 25 135 tgl 19 0 empty empty empty 0 -10 0 12 #fcfcfc #000000 #000000 0 1;
#X obj 25 159 t f f;
#X obj 136 113 tgl 19 0 empty empty empty 0 -10 0 12 #fcfcfc #000000 #000000 0 1;
#X obj 136 137 t f f f;
#X text 396 115 count;
#X connect 2 0 3 0;
#X connect 2 1 0 2;
#X connect 3 0 0 0;
#X connect 4 0 5 0;
#X connect 5 0 0 0;
#X connect 5 1 0 2;
#X connect 6 0 7 0;
#X connect 7 0 0 1;
#X connect 7 1 4 0;
#X connect 8 0 2 0;
#X connect 9 0 10 0;
#X connect 10 0 0 1;
#X connect 11 0 12 0;
#X connect 12 0 0 1;
