#N canvas 38 38 1920 1016 12;
#X obj 88 243 stepv2;
#X obj 555 210 step, f 6;
#X obj 613 211 step, f 7;
#X obj 677 211 step, f 6;
#X obj 568 240 tgl 25 0 empty empty empty 0 -10 0 12 #c7c6ff #000000 #000000 0 1;
#X obj 628 240 tgl 25 0 empty empty empty 0 -10 0 12 #c7c6ff #000000 #000000 0 1;
#X obj 690 240 tgl 25 0 empty empty empty 0 -10 0 12 #c7c6ff #000000 #000000 0 1;
#X obj 553 73 tgl 19 0 empty empty empty 0 -10 0 12 #fcfcfc #000000 #000000 0 1;
#X obj 553 97 metro 1000;
#X obj 553 121 tgl 19 0 empty empty empty 0 -10 0 12 #fcfcfc #000000 #000000 0 1;
#X msg 553 145 1;
#X msg 631 66 500;
#X msg 609 148 4;
#X msg 652 149 3;
#X obj 137 186 bng 19 250 50 0 empty empty empty 0 -10 0 12 #fcfcfc #000000 #000000;
#X obj 53 74 tgl 19 0 empty empty empty 0 -10 0 12 #fcfcfc #000000 #000000 0 1;
#X obj 53 98 metro 1000;
#X obj 53 122 tgl 19 0 empty empty empty 0 -10 0 12 #fcfcfc #000000 #000000 0 1;
#X msg 53 146 1;
#X msg 131 67 500;
#X msg 293 154 4;
#X msg 187 155 3;
#X text 208 13 DF \, clk \, reset \, mode \, DB | DB \, lamp \, DF \, clk;
#X text 215 43 2b \, 3s \, 4c;
#X obj 97 309 tgl 25 0 empty empty empty 0 -10 0 12 #c7c6ff #000000 #000000 0 1;
#X obj 157 309 tgl 25 0 empty empty empty 0 -10 0 12 #c7c6ff #000000 #000000 0 1;
#X obj 158 405 tgl 25 0 empty empty empty 0 -10 0 12 #c7c6ff #000000 #000000 0 1;
#X obj 151 244 stepv2;
#X obj 205 244 stepv2;
#X obj 214 310 tgl 25 0 empty empty empty 0 -10 0 12 #c7c6ff #000000 #000000 0 1;
#X obj 274 310 tgl 25 0 empty empty empty 0 -10 0 12 #c7c6ff #000000 #000000 0 1;
#X obj 268 245 stepv2;
#X msg 121 157 2;
#X obj 95 194 bng 19 250 50 0 empty empty empty 0 -10 0 12 #fcfcfc #000000 #000000;
#X msg 325 180 2;
#X connect 0 1 24 0;
#X connect 0 2 27 0;
#X connect 0 3 27 1;
#X connect 1 1 4 0;
#X connect 1 2 2 0;
#X connect 1 3 2 1;
#X connect 2 0 1 4;
#X connect 2 1 5 0;
#X connect 2 2 3 0;
#X connect 2 3 3 1;
#X connect 3 0 2 4;
#X connect 3 1 6 0;
#X connect 7 0 8 0;
#X connect 8 0 9 0;
#X connect 9 0 10 0;
#X connect 10 0 1 0;
#X connect 11 0 8 1;
#X connect 12 0 2 3;
#X connect 12 0 1 3;
#X connect 12 0 3 3;
#X connect 13 0 2 3;
#X connect 13 0 3 3;
#X connect 14 0 0 2;
#X connect 15 0 16 0;
#X connect 16 0 17 0;
#X connect 17 0 18 0;
#X connect 18 0 0 0;
#X connect 18 0 33 0;
#X connect 19 0 16 1;
#X connect 20 0 0 3;
#X connect 20 0 27 3;
#X connect 20 0 28 3;
#X connect 20 0 31 3;
#X connect 21 0 27 3;
#X connect 21 0 28 3;
#X connect 21 0 31 3;
#X connect 27 0 0 4;
#X connect 27 1 25 0;
#X connect 27 2 28 0;
#X connect 27 3 28 1;
#X connect 28 0 27 4;
#X connect 28 1 29 0;
#X connect 28 2 31 0;
#X connect 28 3 31 1;
#X connect 31 0 28 4;
#X connect 31 1 30 0;
#X connect 32 0 0 3;
#X connect 33 0 0 1;
#X connect 34 0 31 3;
