#N canvas 961 134 1920 1016 12;
#X obj 73 71 tgl 19 0 empty empty empty 0 -10 0 12 #fcfcfc #000000 #000000 0 1;
#X obj 73 95 metro 1000;
#X obj 73 119 tgl 19 0 empty empty empty 0 -10 0 12 #fcfcfc #000000 #000000 0 1;
#X msg 73 143 1;
#X obj 93 220 break;
#X obj 103 278 tgl 25 0 empty empty empty 0 -10 0 12 #c7c6ff #000000 #000000 0 1;
#X msg 151 64 500;
#X msg 207 66 200;
#X obj 147 220 step, f 6;
#X obj 205 221 step, f 7;
#X text 302 27 DF \, clk \, reset \, mode \, DB | DB \, lamp \, DF \, clk;
#X text 309 57 2b \, 3s \, 4c;
#X obj 269 221 step, f 6;
#X obj 327 222 step, f 7;
#X obj 392 222 break;
#X obj 402 280 tgl 25 0 empty empty empty 0 -10 0 12 #c7c6ff #000000 #000000 0 1;
#X obj 233 432 bng 19 250 50 0 empty empty empty 0 -10 0 12 #fcfcfc #000000 #000000;
#X obj 160 278 tgl 25 0 empty empty empty 0 -10 0 12 #c7c6ff #000000 #000000 0 1;
#X obj 220 278 tgl 25 0 empty empty empty 0 -10 0 12 #c7c6ff #000000 #000000 0 1;
#X obj 282 278 tgl 25 0 empty empty empty 0 -10 0 12 #c7c6ff #000000 #000000 0 1;
#X obj 342 279 tgl 25 0 empty empty empty 0 -10 0 12 #c7c6ff #000000 #000000 0 1;
#X msg 178 135 3;
#X msg 359 136 4;
#X msg 267 115 8;
#X obj 555 210 step, f 6;
#X obj 613 211 step, f 7;
#X obj 677 211 step, f 6;
#X obj 735 212 step, f 7;
#X obj 568 240 tgl 25 0 empty empty empty 0 -10 0 12 #c7c6ff #000000 #000000 0 1;
#X obj 628 240 tgl 25 0 empty empty empty 0 -10 0 12 #c7c6ff #000000 #000000 0 1;
#X obj 690 240 tgl 25 0 empty empty empty 0 -10 0 12 #c7c6ff #000000 #000000 0 1;
#X obj 750 241 tgl 25 0 empty empty empty 0 -10 0 12 #c7c6ff #000000 #000000 0 1;
#X obj 553 73 tgl 19 0 empty empty empty 0 -10 0 12 #fcfcfc #000000 #000000 0 1;
#X obj 553 97 metro 1000;
#X obj 553 121 tgl 19 0 empty empty empty 0 -10 0 12 #fcfcfc #000000 #000000 0 1;
#X msg 553 145 1;
#X msg 631 66 500;
#X msg 609 148 4;
#X msg 652 149 3;
#X obj 578 347 count;
#X obj 472 347 shift;
#X obj 525 346 shift;
#X obj 592 383 tgl 25 0 empty empty empty 0 -10 0 12 #c7c6ff #000000 #000000 0 1;
#X obj 486 380 tgl 25 0 empty empty empty 0 -10 0 12 #c7c6ff #000000 #000000 0 1;
#X obj 548 380 tgl 25 0 empty empty empty 0 -10 0 12 #c7c6ff #000000 #000000 0 1;
#X obj 416 346 break;
#X obj 425 385 tgl 25 0 empty empty empty 0 -10 0 12 #c7c6ff #000000 #000000 0 1;
#X obj 625 347 count;
#X obj 639 383 tgl 25 0 empty empty empty 0 -10 0 12 #c7c6ff #000000 #000000 0 1;
#X obj 677 346 break;
#X obj 686 385 tgl 25 0 empty empty empty 0 -10 0 12 #c7c6ff #000000 #000000 0 1;
#X obj 671 297 bng 19 250 50 0 empty empty empty 0 -10 0 12 #fcfcfc #000000 #000000;
#X obj 334 406 tgl 19 0 empty empty empty 0 -10 0 12 #fcfcfc #000000 #000000 0 1;
#X msg 114 41 2000;
#X obj 725 348 shift;
#X obj 739 381 tgl 25 0 empty empty empty 0 -10 0 12 #c7c6ff #000000 #000000 0 1;
#X obj 773 348 count;
#X obj 787 384 tgl 25 0 empty empty empty 0 -10 0 12 #c7c6ff #000000 #000000 0 1;
#X obj 821 349 shift;
#X obj 874 348 shift;
#X obj 835 382 tgl 25 0 empty empty empty 0 -10 0 12 #c7c6ff #000000 #000000 0 1;
#X obj 897 382 tgl 25 0 empty empty empty 0 -10 0 12 #c7c6ff #000000 #000000 0 1;
#X obj 669 446 tgl 19 0 empty empty empty 0 -10 0 12 #fcfcfc #000000 #000000 0 1;
#X obj 704 445 tgl 19 0 empty empty empty 0 -10 0 12 #fcfcfc #000000 #000000 0 1;
#X obj 131 321 tgl 25 0 empty empty empty 0 -10 0 12 #c7c6ff #000000 #000000 0 1;
#X obj 182 327 tgl 25 0 empty empty empty 0 -10 0 12 #c7c6ff #000000 #000000 0 1;
#X connect 0 0 1 0;
#X connect 1 0 2 0;
#X connect 2 0 3 0;
#X connect 3 0 4 0;
#X connect 4 1 5 0;
#X connect 4 2 8 0;
#X connect 4 2 64 0;
#X connect 4 3 8 1;
#X connect 6 0 1 1;
#X connect 7 0 1 1;
#X connect 8 0 4 3;
#X connect 8 1 17 0;
#X connect 8 2 9 0;
#X connect 8 2 65 0;
#X connect 8 3 9 1;
#X connect 9 0 8 4;
#X connect 9 1 18 0;
#X connect 9 2 12 0;
#X connect 9 3 12 1;
#X connect 12 0 9 4;
#X connect 12 0 52 0;
#X connect 12 1 19 0;
#X connect 12 2 13 0;
#X connect 12 3 13 1;
#X connect 13 0 12 4;
#X connect 13 1 20 0;
#X connect 13 2 14 0;
#X connect 13 3 14 1;
#X connect 14 0 13 4;
#X connect 14 1 15 0;
#X connect 16 0 4 2;
#X connect 16 0 14 2;
#X connect 16 0 13 2;
#X connect 16 0 9 2;
#X connect 16 0 12 2;
#X connect 16 0 8 2;
#X connect 21 0 13 3;
#X connect 21 0 9 3;
#X connect 21 0 12 3;
#X connect 21 0 8 3;
#X connect 22 0 13 3;
#X connect 22 0 12 3;
#X connect 23 0 4 2;
#X connect 23 0 14 2;
#X connect 23 0 13 2;
#X connect 23 0 9 2;
#X connect 23 0 12 2;
#X connect 23 0 8 2;
#X connect 24 1 28 0;
#X connect 24 2 25 0;
#X connect 24 3 25 1;
#X connect 25 0 24 4;
#X connect 25 1 29 0;
#X connect 25 2 26 0;
#X connect 25 3 26 1;
#X connect 26 0 25 4;
#X connect 26 1 30 0;
#X connect 26 2 27 0;
#X connect 26 3 27 1;
#X connect 27 0 26 4;
#X connect 27 1 31 0;
#X connect 32 0 33 0;
#X connect 33 0 34 0;
#X connect 34 0 35 0;
#X connect 35 0 45 0;
#X connect 35 0 24 0;
#X connect 36 0 33 1;
#X connect 37 0 25 3;
#X connect 37 0 24 3;
#X connect 37 0 26 3;
#X connect 37 0 27 3;
#X connect 38 0 25 3;
#X connect 38 0 26 3;
#X connect 38 0 27 3;
#X connect 39 0 41 3;
#X connect 39 1 42 0;
#X connect 39 2 47 0;
#X connect 39 3 47 1;
#X connect 40 0 45 3;
#X connect 40 1 43 0;
#X connect 40 2 41 0;
#X connect 40 3 41 1;
#X connect 41 0 40 3;
#X connect 41 1 44 0;
#X connect 41 2 39 0;
#X connect 41 3 39 1;
#X connect 45 1 46 0;
#X connect 45 2 40 0;
#X connect 45 3 40 1;
#X connect 47 0 39 3;
#X connect 47 1 48 0;
#X connect 47 2 49 0;
#X connect 47 3 49 1;
#X connect 47 3 62 0;
#X connect 49 0 47 3;
#X connect 49 0 63 0;
#X connect 49 1 50 0;
#X connect 49 2 54 0;
#X connect 49 3 54 1;
#X connect 51 0 45 2;
#X connect 51 0 40 2;
#X connect 51 0 41 2;
#X connect 51 0 49 2;
#X connect 51 0 39 2;
#X connect 51 0 47 2;
#X connect 51 0 54 2;
#X connect 51 0 56 2;
#X connect 51 0 58 2;
#X connect 51 0 59 2;
#X connect 53 0 1 1;
#X connect 54 0 49 3;
#X connect 54 1 55 0;
#X connect 54 2 56 0;
#X connect 54 3 56 1;
#X connect 56 0 54 3;
#X connect 56 1 57 0;
#X connect 56 2 58 0;
#X connect 56 3 58 1;
#X connect 58 0 56 3;
#X connect 58 1 60 0;
#X connect 58 2 59 0;
#X connect 58 3 59 1;
#X connect 59 0 58 3;
#X connect 59 1 61 0;
