#N canvas 76 76 1920 1016 12;
#X obj 183 203 JKFF, f 9;
#X obj 243 358 outlet DF;
#X obj 144 360 outlet lamp;
#X obj 20 273 t f f;
#X obj 20 297 != 1;
#X obj 133 327 spigot;
#X obj 183 327 spigot;
#X obj 258 302 f;
#X obj 260 251 t f f;
#X obj 258 279 sel 1;
#X connect 0 0 3 0;
#X connect 0 1 7 1;
#X connect 3 0 4 0;
#X connect 3 1 6 0;
#X connect 4 0 5 0;
#X connect 5 0 2 0;
#X connect 6 0 2 0;
#X connect 8 1 9 0;
#X connect 9 0 7 0;
